<?xml version="1.0" encoding="UTF-8" standalone="no"?>
<!-- Generator: Adobe Illustrator 15.0.0, SVG Export Plug-In . SVG Version: 6.00 Build 0)  -->

<svg
   xmlns:dc="http://purl.org/dc/elements/1.1/"
   xmlns:cc="http://creativecommons.org/ns#"
   xmlns:rdf="http://www.w3.org/1999/02/22-rdf-syntax-ns#"
   xmlns:svg="http://www.w3.org/2000/svg"
   xmlns="http://www.w3.org/2000/svg"
   xmlns:sodipodi="http://sodipodi.sourceforge.net/DTD/sodipodi-0.dtd"
   xmlns:inkscape="http://www.inkscape.org/namespaces/inkscape"
   version="1.1"
   x="0px"
   y="0px"
   width="612px"
   height="696px"
   viewBox="0 0 612 696"
   enable-background="new 0 0 612 696"
   xml:space="preserve"
   id="svg2"
   inkscape:version="0.48.1 r9760"
   sodipodi:docname="HackPGH.fist.svgz"><metadata
   id="metadata17"><rdf:RDF><cc:Work
       rdf:about=""><dc:format>image/svg+xml</dc:format><dc:type
         rdf:resource="http://purl.org/dc/dcmitype/StillImage" /><dc:title></dc:title></cc:Work></rdf:RDF></metadata><defs
   id="defs15" /><sodipodi:namedview
   pagecolor="#ffffff"
   bordercolor="#666666"
   borderopacity="1"
   objecttolerance="10"
   gridtolerance="10"
   guidetolerance="10"
   inkscape:pageopacity="0"
   inkscape:pageshadow="2"
   inkscape:window-width="1600"
   inkscape:window-height="823"
   id="namedview13"
   showgrid="false"
   inkscape:zoom="0.47844828"
   inkscape:cx="306"
   inkscape:cy="374.12613"
   inkscape:window-x="0"
   inkscape:window-y="24"
   inkscape:window-maximized="1"
   inkscape:current-layer="svg2" />
<g
   id="Background_1_">
	<rect
   id="Background"
   display="none"
   fill-rule="evenodd"
   clip-rule="evenodd"
   fill="#231F20"
   width="612"
   height="696" />
	<path
   id="Negative_Text"
   fill="#231F20"
   d="M573.142,645.449c-0.21,1.768-0.342,3.698-0.389,5.671h0.127   C573.162,649.125,573.245,647.222,573.142,645.449z M0,611.188V696h612v-84.812H0z M288.96,633.36   c10.245-0.085,15.686,4.634,14.88,15.6h-9.36c-0.154-3.366-1.973-5.067-5.52-5.04V633.36z M246.96,633.36   c0.559,2.48,0.081,5.999,0.24,8.88c-2.821-0.261-4.296,0.824-4.56,3.12h-9.12C233.239,636.599,238.561,633.441,246.96,633.36z    M12.24,672.48c-3.292-12.469-6.057-25.463-9.36-37.921c2.801-0.559,6.64-0.08,9.84-0.239c2.553,12.727,5.194,25.365,7.68,38.16   H12.24z M24.96,672c-0.7-2.637-1.361-5.376-1.92-8.16c-0.545-2.719-1.691-5.878-1.68-8.399c0.018-3.838,2.581-7.104,2.64-11.04   c0.855,4.906,3.56,10.057,3.6,15.359C27.632,663.951,25.185,667.812,24.96,672z M34.8,672.48c-2.521-12.92-5.589-25.291-8.16-38.16   h8.88c2.425,12.854,5.075,25.484,7.68,38.16H34.8z M66,672.48c-2.869-12.572-6.157-24.724-8.88-37.44   c-3.454,12.065-6.306,24.734-9.36,37.2c-1.184-3.286-1.438-6.727-2.16-10.32c-0.656-3.269-2.179-6.854-2.16-10.08   c0.016-2.761,1.356-5.669,1.92-8.399c0.586-2.842,0.894-5.629,1.68-8.4v-0.72h19.68c2.247,12.953,5.278,25.121,7.44,38.16H66z    M78.96,671.76c-0.799-5.175-3.624-10.829-3.6-16.319c0.018-4.001,2.386-7.395,2.64-11.28c1.464,4.936,2.232,10.567,3.6,15.6   C80.718,663.758,79.664,667.584,78.96,671.76z M88.8,672.48c-2.847-12.594-5.418-25.462-8.4-37.921c2.481-0.559,6-0.08,8.88-0.239   c2.606,12.674,5.248,25.312,7.68,38.16H88.8z M120,672.48c-3.169-12.351-6.079-24.961-9.12-37.44   c-3.449,12.071-5.819,25.221-9.6,36.96c-0.239-6.975-3.84-13.374-3.84-20.16c0-5.692,3.084-10.916,3.36-16.8   c0.207-0.193,0.143-0.657,0.48-0.72h19.2c2.567,12.713,5.209,25.351,7.68,38.16H120z M132.72,672   c-0.679-2.65-1.364-5.388-1.92-8.16c-0.543-2.707-1.678-5.898-1.68-8.399c-0.003-3.832,2.598-7.112,2.64-11.04   c0.901,4.873,3.539,10.06,3.6,15.359C135.409,663.968,132.945,667.83,132.72,672z M142.56,672.48   c-2.512-12.929-5.571-25.309-8.16-38.16h8.88c2.442,12.838,5.09,25.47,7.68,38.16H142.56z M155.52,672.24   c-1.054-3.299-1.444-6.753-2.16-10.32c-0.657-3.273-2.189-6.863-2.16-10.08c0.048-5.362,3.201-11.107,3.6-16.8v-0.72h10.08   C161.722,646.922,158.545,659.505,155.52,672.24z M177.36,672.48H166.8v-15.36h10.56V672.48z M203.28,651.6h-10.32v20.881h-10.8   c0.16-18.08-0.32-36.801,0.24-54.48h10.56v19.92c2.97,0.55,6.953,0.088,10.32,0.24V651.6z M228.72,672.48h-10.8V651.84   c-2.961-0.559-6.959-0.08-10.32-0.24V638.16h10.08c0.717-6.163-0.238-13.998,0.48-20.16h10.56V672.48z M252.48,656.16   c-3.814,0.027-9.078-0.873-10.56,1.68c-1.238,2.132-0.31,5.264,1.68,6.24c2.309,1.133,5.793,0.119,8.88,0.479v7.921   c-5.298,0.876-13.824,1.754-17.28-1.2c-4.061-3.472-4.024-17.137,0-20.88c4.086-3.802,10.697-1.595,17.28-1.92V656.16z    M266.16,672.48h-9.36v-15.12c0-6.879,1.754-15.853-5.28-15.12c0.159-2.881-0.319-6.399,0.24-8.88   c5.077,0.228,8.823,0.304,11.28,2.64C269.765,642.392,264.41,661.036,266.16,672.48z M284.64,643.92   c-8.683-0.901-8.415,19.775,0,18.96v10.32c-4.042-0.276-8.585-0.659-11.04-2.88c-5.551-5.021-6.241-27.481-0.48-33.601   c2.516-2.672,6.902-2.831,11.04-3.359h0.24C284.959,636.4,284.48,640.479,284.64,643.92z M288.96,673.2v-10.32   c3.916,0.156,5.37-2.15,6-5.28h9.12C304.62,668.38,299.73,673.73,288.96,673.2z M316.32,672.48h-9.12V618.72   c-0.021-0.34-0.04-0.68,0.24-0.72h8.88V672.48z M329.04,672.48c-2.709-5.212-5.543-10.297-8.4-15.36   c0.384-3.862-0.531-6.877,0-9.84c0.646-3.602,4.733-8.828,6.24-12.24c0.105-0.238,0.22-0.624,0.48-0.72H339.6   c-3.454,5.905-7.126,11.594-10.56,17.52c3.815,7.225,8.503,13.578,12.479,20.641H329.04z M353.28,672.48h-10.8V618.72   c-0.021-0.34-0.04-0.68,0.239-0.72h10.561V672.48z M381.36,656.88c-5.333,4.553-15.143,0.954-23.761,2.16v-13.2   c5.299-1.143,10.719,1.84,15.12-0.72c2.939-1.709,3.288-10.626,0.48-12.96c-3.13-2.602-10.438-0.025-15.601-0.96   c0.16-4.32-0.319-9.279,0.24-13.2c10.488,1.041,21.272-3.111,25.68,5.04C387.479,630.362,386.892,652.157,381.36,656.88z    M409.92,630.48c-2.096,0.07-5.256-0.292-6.96,0.479c-3.719,1.683-3.532,12.24-3.12,19.68c0.381,6.87,2.215,10.456,10.08,9.601   v12.479c-6.384,0.005-13.375,0.293-17.04-3.6c-3.805-4.041-3.995-12.749-4.08-20.88c-0.128-12.22-0.495-25.908,7.92-29.28   c4.037-1.618,8.83-0.971,13.2-1.44V630.48z M432.72,668.88c-3.354,4.773-10.303,3.762-18.479,3.84V660.24   c6.98,0.74,11.348-1.132,10.56-8.16c-4.16-0.56-9.359-0.08-13.92-0.24c0.159-3.28-0.319-7.199,0.24-10.08h24.24   C434.648,651.971,437.002,662.788,432.72,668.88z M435.36,636.48H424.56c1.122-6.642-4.837-6.203-10.319-6.24V617.52   C429.469,616.393,436.737,620.529,435.36,636.48z M461.28,651.6h-10.32v20.881h-10.8c0.16-18.08-0.32-36.801,0.24-54.48h10.56   v19.92c2.97,0.55,6.952,0.088,10.32,0.24V651.6z M486.72,672.48h-10.8V651.84c-2.961-0.559-6.959-0.08-10.32-0.24V638.16h10.08   c0.718-6.163-0.237-13.998,0.48-20.16h10.56V672.48z M502.08,672.48H491.52v-15.36h10.561V672.48z M520.8,643.92   c-5.704-0.775-6.503,4.182-6.479,9.84c0.023,5.781,0.775,9.441,6.479,9.12v10.32c-4.408-0.239-9.299-0.238-12-2.641   c-4.42-3.931-4.16-16.127-3.6-24.479c0.633-9.438,5.462-12.578,15.12-12.72C521.43,635.93,520.487,640.553,520.8,643.92z    M539.52,667.2c-2.01,4.832-7.539,5.942-14.399,6v-10.32c5.345,0.387,6.311-2.826,6.479-8.64c0.163-5.595-0.47-11.146-6.479-10.32   v-10.56c6.223,0.451,12.621,0.892,14.64,6.479C541.539,644.766,541.834,661.639,539.52,667.2z M553.2,672.48h-9.36   c0.16-12.641-0.32-25.92,0.24-38.16h9.12V672.48z M564.24,651.12c0.375-4.799-2.19-7.587-6.96-6.48v-10.08   c9.613-4.029,15.319,1.614,15.861,10.89c0.346-2.909,0.904-5.369,1.658-6.81c2.807-5.361,12.839-6.35,20.641-4.319v9.84   c-3.93-0.021-7.827-0.928-10.561,0.479c-2.711,1.396-4.159,13.745-0.72,16.08c2.885,1.959,7.05,0.864,11.28,0.96v9.36   c-7.798,2.709-17.646,1.744-20.641-4.32c-1.555-3.149-2.192-9.561-2.047-15.6H564.24z M588.96,690.48   c-10.063,0.463-15.196-4.004-14.88-13.921h9.36c0.108,3.091,2.206,4.193,5.52,4.08V690.48z M593.04,690.24v-9.601   c9.227,0.381,6.96-12.925,6.96-23.52c0-8.746-0.188-17.108,0.24-22.8h8.64v24.239C608.881,676.019,610.814,691.457,593.04,690.24z" />
</g>
<g
   id="DarkOnly__x28_print_x29_">
	<path
   id="Text_1_"
   display="none"
   fill-rule="evenodd"
   clip-rule="evenodd"
   fill="#231F20"
   d="M339.6,634.32   c-3.454,5.905-7.126,11.594-10.56,17.52c3.815,7.225,8.503,13.578,12.479,20.641c-4.159,0-8.319,0-12.479,0   c-2.709-5.212-5.543-10.297-8.4-15.36c0.384-3.862-0.531-6.877,0-9.84c0.646-3.602,4.733-8.828,6.24-12.24   c0.105-0.238,0.22-0.624,0.48-0.72C331.44,634.32,335.52,634.32,339.6,634.32z M543.84,672.48c3.12,0,6.24,0,9.36,0   c0-12.721,0-25.44,0-38.16c-3.04,0-6.08,0-9.12,0C543.52,646.561,544,659.84,543.84,672.48z M600,657.12   c0,10.595,2.267,23.9-6.96,23.52c0,3.2,0,6.4,0,9.601c17.774,1.217,15.841-14.222,15.84-31.681c0-8.712,0-17.415,0-24.239   c-2.88,0-5.76,0-8.64,0C599.812,640.012,600,648.374,600,657.12z M410.88,651.84c4.561,0.16,9.76-0.319,13.92,0.24   c0.788,7.028-3.579,8.9-10.56,8.16c0,4.16,0,8.319,0,12.479c8.177-0.078,15.125,0.934,18.479-3.84   c4.282-6.092,1.929-16.909,2.641-27.12c-8.08,0-16.16,0-24.24,0C410.561,644.641,411.039,648.56,410.88,651.84z M75.36,655.44   c-0.024,5.49,2.801,11.145,3.6,16.319c0.704-4.176,1.758-8.002,2.64-12c-1.368-5.032-2.136-10.664-3.6-15.6   C77.746,648.046,75.377,651.439,75.36,655.44z M21.36,655.44c-0.011,2.521,1.135,5.681,1.68,8.399   c0.559,2.784,1.22,5.523,1.92,8.16c0.225-4.188,2.672-8.049,2.64-12.24c-0.041-5.303-2.745-10.453-3.6-15.359   C23.941,648.336,21.377,651.603,21.36,655.44z M129.12,655.44c0.002,2.501,1.137,5.692,1.68,8.399   c0.557,2.772,1.242,5.51,1.92,8.16c0.225-4.17,2.688-8.032,2.64-12.24c-0.061-5.3-2.699-10.486-3.6-15.359   C131.718,648.328,129.117,651.608,129.12,655.44z M235.2,650.4c-4.024,3.743-4.061,17.408,0,20.88   c3.456,2.954,11.981,2.076,17.28,1.2c0-2.641,0-5.28,0-7.921c-3.086-0.36-6.571,0.653-8.88-0.479   c-1.99-0.977-2.918-4.108-1.68-6.24c1.482-2.553,6.746-1.652,10.56-1.68c0-2.561,0-5.12,0-7.68   C245.897,648.806,239.286,646.599,235.2,650.4z M166.8,657.12c0,5.12,0,10.24,0,15.36c3.52,0,7.04,0,10.56,0   c0-5.12,0-10.24,0-15.36C173.84,657.12,170.32,657.12,166.8,657.12z M491.52,657.12c0,5.12,0,10.24,0,15.36   c3.521,0,7.04,0,10.561,0c0-5.12,0-10.24,0-15.36C498.561,657.12,495.04,657.12,491.52,657.12z M294.96,657.6   c-0.63,3.13-2.084,5.437-6,5.28c0,3.44,0,6.88,0,10.32c10.771,0.53,15.66-4.82,15.12-15.601C301.04,657.6,298,657.6,294.96,657.6z    M574.08,676.56c-0.316,9.917,4.816,14.384,14.88,13.921c0-3.28,0-6.561,0-9.841c-3.313,0.113-5.411-0.989-5.52-4.08   C580.32,676.56,577.2,676.56,574.08,676.56z M288.96,643.92c3.547-0.027,5.366,1.674,5.52,5.04c3.12,0,6.24,0,9.36,0   c0.806-10.966-4.635-15.685-14.88-15.6C288.96,636.88,288.96,640.4,288.96,643.92z M505.2,646.08   c-0.561,8.353-0.82,20.549,3.6,24.479c2.701,2.402,7.592,2.401,12,2.641c0-3.44,0-6.88,0-10.32   c-5.704,0.321-6.456-3.339-6.479-9.12c-0.023-5.658,0.775-10.615,6.479-9.84c-0.312-3.367,0.63-7.99-0.479-10.56   C510.662,633.502,505.833,636.643,505.2,646.08z M539.52,667.2c2.314-5.562,2.02-22.435,0.24-27.36   c-2.019-5.588-8.417-6.028-14.64-6.479c0,3.52,0,7.04,0,10.56c6.01-0.826,6.643,4.726,6.479,10.32   c-0.169,5.813-1.135,9.026-6.479,8.64c0,3.44,0,6.88,0,10.32C531.98,673.143,537.51,672.032,539.52,667.2z M557.28,634.56   c0,3.36,0,6.721,0,10.08c4.77-1.106,7.335,1.682,6.96,6.48c2.88,0,5.76,0,8.64,0C574.641,638.681,568.73,629.761,557.28,634.56z    M574.8,638.64c-2.612,4.991-2.899,22.208,0,28.08c2.994,6.064,12.843,7.029,20.641,4.32c0-3.12,0-6.24,0-9.36   c-4.23-0.096-8.396,0.999-11.28-0.96c-3.439-2.335-1.991-14.684,0.72-16.08c2.733-1.407,6.631-0.501,10.561-0.479   c0-3.28,0-6.561,0-9.84C587.639,632.29,577.606,633.278,574.8,638.64z M12.24,672.48c2.72,0,5.44,0,8.16,0   c-2.485-12.795-5.127-25.434-7.68-38.16c-3.201,0.159-7.04-0.319-9.84,0.239C6.183,647.018,8.948,660.012,12.24,672.48z    M34.8,672.48c2.8,0,5.6,0,8.4,0c-2.605-12.676-5.255-25.306-7.68-38.16c-2.96,0-5.92,0-8.88,0   C29.21,647.189,32.279,659.561,34.8,672.48z M47.04,634.32c0,0.239,0,0.479,0,0.72c-0.786,2.771-1.094,5.559-1.68,8.4   c-0.563,2.73-1.904,5.639-1.92,8.399c-0.019,3.226,1.504,6.812,2.16,10.08c0.721,3.594,0.976,7.034,2.16,10.32   c3.054-12.466,5.906-25.135,9.36-37.2c2.723,12.717,6.011,24.868,8.88,37.44c2.72,0,5.44,0,8.16,0   c-2.162-13.039-5.193-25.207-7.44-38.16C60.16,634.32,53.6,634.32,47.04,634.32z M88.8,672.48c2.72,0,5.44,0,8.16,0   c-2.432-12.849-5.074-25.486-7.68-38.16c-2.88,0.159-6.399-0.319-8.88,0.239C83.382,647.019,85.953,659.887,88.8,672.48z    M101.28,634.32c-0.337,0.062-0.273,0.526-0.48,0.72c-0.275,5.884-3.36,11.107-3.36,16.8c0,6.786,3.601,13.186,3.84,20.16   c3.781-11.739,6.151-24.889,9.6-36.96c3.041,12.479,5.951,25.09,9.12,37.44c2.72,0,5.44,0,8.16,0   c-2.471-12.81-5.113-25.447-7.68-38.16C114.08,634.32,107.68,634.32,101.28,634.32z M142.56,672.48c2.8,0,5.6,0,8.4,0   c-2.59-12.69-5.238-25.322-7.68-38.16c-2.96,0-5.92,0-8.88,0C136.989,647.172,140.048,659.552,142.56,672.48z M154.8,634.32   c0,0.239,0,0.479,0,0.72c-0.398,5.692-3.551,11.438-3.6,16.8c-0.029,3.217,1.503,6.807,2.16,10.08   c0.716,3.567,1.106,7.021,2.16,10.32c3.025-12.735,6.202-25.318,9.36-37.92C161.52,634.32,158.16,634.32,154.8,634.32z    M396.72,618.96c-8.415,3.372-8.048,17.061-7.92,29.28c0.085,8.131,0.275,16.839,4.08,20.88c3.665,3.893,10.656,3.604,17.04,3.6   c0-4.16,0-8.319,0-12.479c-7.865,0.855-9.699-2.73-10.08-9.601c-0.412-7.439-0.599-17.997,3.12-19.68   c1.704-0.771,4.864-0.409,6.96-0.479c0-4.32,0-8.641,0-12.961C405.55,617.989,400.757,617.342,396.72,618.96z M414.24,617.52   c0,4.24,0,8.48,0,12.721c5.482,0.037,11.441-0.401,10.319,6.24c3.601,0,7.2,0,10.801,0   C436.737,620.529,429.469,616.393,414.24,617.52z M182.4,618c-0.56,17.68-0.08,36.4-0.24,54.48c3.6,0,7.2,0,10.8,0   c0-6.961,0-13.921,0-20.881c3.44,0,6.88,0,10.32,0c0-4.479,0-8.96,0-13.439c-3.367-0.152-7.35,0.31-10.32-0.24   c0-6.64,0-13.28,0-19.92C189.44,618,185.92,618,182.4,618z M218.16,618c-0.718,6.162,0.237,13.997-0.48,20.16   c-3.36,0-6.72,0-10.08,0c0,4.479,0,8.96,0,13.439c3.36,0.16,7.359-0.318,10.32,0.24c0,6.88,0,13.76,0,20.641c3.6,0,7.2,0,10.8,0   c0-18.16,0-36.32,0-54.48C225.2,618,221.68,618,218.16,618z M307.2,618.72c0,17.92,0,35.84,0,53.761c3.04,0,6.08,0,9.12,0   c0-18.16,0-36.32,0-54.48c-2.96,0-5.92,0-8.88,0C307.16,618.04,307.18,618.38,307.2,618.72z M342.48,618.72   c0,17.92,0,35.84,0,53.761c3.6,0,7.199,0,10.8,0c0-18.16,0-36.32,0-54.48c-3.521,0-7.04,0-10.561,0   C342.44,618.04,342.459,618.38,342.48,618.72z M357.6,631.2c5.163,0.935,12.471-1.642,15.601,0.96   c2.808,2.334,2.459,11.251-0.48,12.96c-4.401,2.56-9.821-0.423-15.12,0.72c0,4.4,0,8.8,0,13.2   c8.618-1.206,18.428,2.393,23.761-2.16c5.531-4.723,6.119-26.518,2.159-33.84c-4.407-8.151-15.191-3.999-25.68-5.04   C357.28,621.921,357.76,626.88,357.6,631.2z M440.4,618c-0.561,17.68-0.08,36.4-0.24,54.48c3.6,0,7.2,0,10.8,0   c0-6.961,0-13.921,0-20.881c3.44,0,6.88,0,10.32,0c0-4.479,0-8.96,0-13.439c-3.368-0.152-7.351,0.31-10.32-0.24   c0-6.64,0-13.28,0-19.92C447.44,618,443.92,618,440.4,618z M476.16,618c-0.718,6.162,0.237,13.997-0.48,20.16   c-3.359,0-6.72,0-10.08,0c0,4.479,0,8.96,0,13.439c3.361,0.16,7.359-0.318,10.32,0.24c0,6.88,0,13.76,0,20.641c3.6,0,7.2,0,10.8,0   c0-18.16,0-36.32,0-54.48C483.2,618,479.68,618,476.16,618z M246.96,633.36c-8.399,0.081-13.721,3.238-13.44,12   c3.04,0,6.08,0,9.12,0c0.264-2.296,1.739-3.381,4.56-3.12C247.041,639.359,247.519,635.841,246.96,633.36z M263.04,636   c-2.458-2.336-6.203-2.412-11.28-2.64c-0.559,2.48-0.081,5.999-0.24,8.88c7.034-0.732,5.28,8.241,5.28,15.12   c0,5.778,0,11.162,0,15.12c3.12,0,6.24,0,9.36,0C264.41,661.036,269.765,642.392,263.04,636z M284.16,633.36   c-4.138,0.528-8.524,0.688-11.04,3.359c-5.761,6.119-5.071,28.579,0.48,33.601c2.455,2.221,6.998,2.604,11.04,2.88   c0-3.44,0-6.88,0-10.32c-8.415,0.815-8.683-19.861,0-18.96c-0.16-3.44,0.319-7.52-0.24-10.56   C284.32,633.36,284.24,633.36,284.16,633.36z" />
	<path
   id="Image_1_"
   fill-rule="evenodd"
   clip-rule="evenodd"
   fill="#231F20"
   d="M448.08,384.72c1.253-1.968,3.553-7.69,3.12-9.359   c0.02,0.074-0.016,0.164,0,0.239c-3.254,7.227-10.029,10.932-16.32,15.12c1.69,2.949,3.091,6.189,5.04,8.88   c2.537-3.613,3.544-8.518,6-12.479C446.47,386.232,447.529,385.584,448.08,384.72z M352.32,213.36   c1.594,2.839,4.027,5.533,3.6,7.92c-0.617,3.446-4.798,3.695-6.479,6.72c4.074-1.718,7.417-5.911,12.96-6.24   c6.298-0.374,11.459,3.026,15.359,6.24c15.318-38.522,30.245-77.435,45.84-115.68c1.586-5.194,3.648-9.915,5.521-14.64   c1.833-4.626,3.293-9.452,5.76-13.92c0.174-2.506,1.717-4.667,2.64-6.96c2.901-7.204,5.033-14.706,8.4-21.36   c1.876-5.832,4.308-11.701,6.48-17.28c0.895-2.298,1.795-4.484,2.64-6.96c1.16-3.401,2.827-6.793,4.32-10.32   c2.822-6.672,5.276-13.887,7.92-20.88H345.36v203.76C348.648,205.169,350.117,209.438,352.32,213.36z M595.44,228.48   c-3.401,0.64-7.081,2.207-10.561,3.36c-51.792,17.173-104.957,33.44-156.72,50.4c3.04,5.859-3.999,16.683,3.359,18.24   c2.227,0.471,4.996-0.5,7.44-0.72c55.941-5.033,118.329-11.604,173.04-16.8v-58.32c-3.222,0.614-6.314,2.445-9.36,3.12   C600.258,228.288,598.065,227.986,595.44,228.48z M403.44,243.6c5.162,4.758,8.45,11.389,8.88,20.88   c2.039,1.889,5.321-1.075,8.16-2.88c63.442-40.339,128.25-81.125,191.52-120.96V10.56C542.47,88.229,473.043,166.007,403.44,243.6z    M414.48,510.48c-0.761-1.966-0.987-4.021-1.681-6c-2.725-7.781-5.466-15.018-7.439-22.08c-5.554-14.612-9.602-29.127-15.36-43.681   c-4.71,1.498-9.493,3.676-14.16,4.8c-5.22,1.259-10.599,1.035-15.359,2.641c-3.874,1.307-7.539,4.78-10.801,6.72   c-3.498,2.081-6.78,3.785-10.56,5.28c-1.563,17.954-1.115,37.279-2.64,55.68c-0.635,7.658-0.052,15.408-0.721,23.04   c-0.819,9.354-0.664,18.723-1.439,28.08c-0.635,7.65-0.053,15.416-0.721,23.04c-0.658,7.522-0.993,15.198-0.72,22.8   c19.966-32.125,52.706-55.453,81.84-79.439c1.69-1.392,5.146-3.938,5.28-5.04c0.117-0.96-1.097-3.463-1.68-5.28   c-0.713-2.221-1.283-4.419-1.681-5.76C416.135,513.572,415.085,512.044,414.48,510.48z M301.44,232.08   c-4.78,2.719-10.083,4.749-13.68,8.64c2.278,3.643,4.106,7.734,6.72,11.04c3.494-1.465,7.833-2.087,11.04-3.84   c0.697,0.684,1.051,0.314,1.68,0.24c4.565-0.537,10.416-2.732,15.6-4.56c10.169-3.586,17.877-7,23.76-13.68   c-0.562-1.117-1.34-2.02-1.68-3.36c2.341-2.219,5.48-3.64,7.44-6.24c-2.62-4.18-4.713-8.887-7.681-12.72   c-4.679,1.812-9.957,5.334-14.88,8.16C320.099,221.305,310.757,226.779,301.44,232.08z M441.6,332.16   c4.818,5.021,10.724,8.957,13.92,15.6c52.242,18.32,104.149,36.968,156.48,55.2V342c-56.428-7.396-113.027-14.02-170.4-21.36   C442.106,323.865,442.515,329.023,441.6,332.16z M34.8,328.32c15.265-1.373,30.728-1.738,46.08-3.12   c8.195-0.738,16.514-0.481,24.72-1.2c2.009-0.176,5.665-0.233,8.64-0.48c47.257-3.916,96.19-5.554,143.28-9.12   c1.116-5.364,0.993-11.967,1.44-18C174.249,283.311,84.049,270.725,0,258.48v72c1.695-0.457,7.093-0.698,10.08-0.96   C18.046,328.822,27.188,329.005,34.8,328.32z M444,446.4c3.304-1.399,10.212-6.051,10.32-10.08c0.033-1.264-0.854-3.73-1.44-5.28   c-1.16-3.068-3.466-6.352-5.28-9.6c-5.286-9.469-11.063-20.069-15.84-29.04h-0.479c-7.539,3.98-14.759,8.281-23.28,11.279   c8.795,12.677,16.177,26.718,25.68,39.12C436.508,446.49,438.912,448.554,444,446.4z M251.52,363.12   c1.468-8.853,2.316-18.324,3.6-27.36C170.512,360.356,84.142,386.263,0,411.36v95.76c41.221-23.011,83.891-48.046,125.04-71.28   C167.181,411.579,209.384,387.388,251.52,363.12z M276.48,259.2C184.813,192.484,91.35,126.053,0,60.48v111.36   c85.561,33.941,171.964,68.446,259.44,102.96C261.618,266.099,269.178,262.778,276.48,259.2z M449.04,611.28   c-3.325-9.055-6.144-18.292-9.36-27.12c-2.043-5.607-3.59-11.492-6-17.76c-1.067-2.776-2.272-5.776-3.12-8.641   c-1.819-6.152-4.119-12.169-5.76-18.479c-28.8,20.641-55.642,43.237-76.319,72H449.04z M612,611.281V489.84   c-52.447-35.475-105.783-72.133-158.64-108c-4.037,6.923-7.423,14.498-11.521,21.36c1.919,4.043,4.487,8.565,6.96,13.2   c2.361,4.425,5.521,8.616,7.2,12.72c1.309,3.197,2.834,7.822,0.72,10.8c0.926,0.883,1.238,2.243,2.16,3.36   c0.862,1.044,2.121,1.37,2.64,2.64c0.722,1.765,0.266,3.787,1.44,5.521c16.395,19.901,32.716,40.252,49.44,60.239   c27.436,32.791,55.457,67.032,82.08,99.601L612,611.281z M227.76,611.28c18.194-41.438,43.623-78.909,69.36-114.24   c6.211-8.526,12.893-17.69,19.439-26.64c3.759-5.139,6.076-10.003,12-12.721c2.655-1.218,5.72-1.599,8.4-2.64   c2.546-0.989,5.064-2.116,7.44-3.36c4.726-2.474,8.814-6.328,13.199-8.399c5.227-2.47,13.08-1.489,17.761-4.08   c15.141-3.285,28.597-9.83,39.84-17.76c-3.689-5.352-7.075-11.006-10.8-16.32c-5.302,0.619-14.064,4.171-17.521-0.48   c-4.789,4.903-11.265,10.068-17.04,15.12c-1.957,1.712-4.237,4.606-6.24,5.28c-3.723,1.253-8.521,0.697-13.92,1.2   c-3.201,0.298-5.29,2.392-7.68,2.399c-10.302,0.036-1.726-17.434-11.76-18c-0.321,2.998,2.809,4.035,2.88,8.4   c0.059,3.58-0.019,8.281-0.96,11.28c-6.501,0.611-9.604-5.241-15.601-5.28c-1.669-0.011-3.694,1.176-5.52,0.96   c-1.98-0.234-5.251-3.254-6.96-4.56c-2.332-1.782-4.074-3.742-6.48-4.801c1.187,2.411,3.181,3.661,5.28,5.761   c2.134,2.134,7.769,7.983,1.68,9.359c-4.333,0.979-8.479-3.152-12.24-1.2c-0.722,1.513,0.141,3.328,0.48,4.561   c-5.355,10.14-12.406,19.171-18.96,28.56c-6.525,9.349-12.615,19.084-18.96,28.561c-12.725,19.004-25.315,37.985-38.4,56.64   c4.335-13.699,14.363-25.13,18.48-40.08c1.464-5.315,1.437-10.617,3.84-15.84c1.861-4.044,4.693-7.872,8.4-11.28   c3.602-3.311,5.916-7.699,8.16-11.52c2.368-4.032,5.597-7.707,7.92-11.76c2.486-4.338,4.179-9.079,6.96-12.48   c1.212-1.482,3.589-2.754,5.04-4.32c1.699-1.833,3.475-5.466,4.32-7.92c1.022-2.966,1.266-7.659,3.12-8.88   c1.778-1.171,5.583-0.191,7.44-1.2c-0.938-5.381-4.395-8.244-8.88-10.08c-1.35,1.496,0.778,3.777,0.48,6   c-0.44,3.28-5.685,4.863-7.44,7.44c-1.189,1.747-1.338,4.089-2.16,6.24c-1.173,3.071-4.089,6.305-6.48,9.6   c-6.62,9.126-13.915,18.78-20.16,27.84c-8.868,12.862-17.271,25.998-25.92,37.92c-13.577,18.716-27.428,36.273-42,53.761   c-4.845,5.813-9.625,11.828-15.6,16.319c1.912-7.212,6.03-12.926,9.36-18.72c10.421-18.13,20.013-34.216,32.16-52.08   c3.705-5.448,7.624-10.741,11.52-16.56c3.827-5.716,8.271-10.901,8.64-19.44c0.386-8.934-1.343-17.272-2.64-25.439   c-1.168-7.357-3.051-17.524,0.24-24.721c1.789-3.91,6.034-7.623,8.88-11.52c3.001-4.108,5.815-8.038,8.64-11.521   c6.202-7.646,11.117-16.022,18.24-22.08c3.905,1.68,6.481,5.281,9.36,8.16c5.792,5.793,11.715,11.482,17.28,17.761   c2.699,3.045,5.07,6.461,8.4,8.88c-7-15.64-21.043-24.237-31.68-36.24c3.041,1.12,5.754,4.646,8.88,6.479   c-2.465-5.315-9.317-7.771-10.32-14.399c-0.182-1.201,0.173-3.521,0.24-5.04c0.378-8.601-0.102-16.072,0.96-23.28   c0.998-6.777,2.08-13.555,3.12-20.88c0.916-6.451,0.821-14.444,1.2-22.8c0.5-11.011,0.453-20.318,6.48-25.2   c2.045-1.656,4.905-2.856,7.44-4.32c7.491-4.324,15.72-7.022,24.96-10.08c8.826-2.921,17.376-5.354,27.121-8.16   c5.747-1.655,10.802-3.961,12.96,1.92c1.94,5.291-0.479,12.746-0.48,18.24c1.553,1.103,4.125,0.771,5.76,1.44   c2.649,1.084,6.287,3.764,6.48,6.24c0.396,5.072-6.661,6.85-9.601,9.84c-1.521,1.547-2.897,4.038-2.64,6.96   c0.346,3.914,4.543,8.387,6.48,11.28c2.623,3.918,4.168,7.228,8.159,9.6c-1.512-3.054-3.502-6.306-5.52-10.32   c-1.542-3.067-5.341-7.466-4.8-11.52c0.415-3.119,5.484-6.543,10.08-6.96c11.423-1.036,21.101,13.004,22.8,22.32   c1.172,6.424-5.491,8.205-10.32,9.84c-4.355,1.476-9.15,2.96-13.92,1.68c-3.808-1.022-8.915-3.546-12.24-6.24   c-5.427-4.396-8.958-11.688-15.359-15.84c-2.306-1.495-5.031-2.261-6.48-3.84c-5.217-5.684-2.049-16.965,0.24-23.76   c-8.555,1.446-5.591,14.409-7.68,22.32c-8.654-1.827-10.682-10.279-17.76-13.68c-0.669,1.939,1.455,3.148,2.4,4.32   c1.027,1.273,2.002,2.79,2.88,4.08c1.944,2.859,4.266,5.324,6,8.16c-1.239,1.939-4.102,2.888-6.72,3.84   c-2.588,0.941-5.166,2.743-7.68,2.88c-4.154,0.227-6.658-2.938-10.56-2.88c-0.479,9.815,15.839,4.788,23.76,5.76   c2.011,0.247,5.659,1.576,5.76,2.88c0.133,1.719-3.949,2.783-5.04,2.88c-3.689,0.327-6.93-1.538-9.84-0.72   c1.176,6.986,15.121,3.276,21.36,6c0.205,4.847-4.973,6.113-5.04,10.8c-0.059,4.097,4.896,5.812,4.8,9.36   c-0.179,6.607-11.114,0.972-14.4,0.24c1.814,4.563,4.902,6.685,9.121,9.12c3.319,1.917,10.319,3.9,10.319,7.919   c0,4.8-10.021,5.571-9.12,9.841c0.483,2.284,4.3,0.999,6.48,1.68c-1.243,4.705-5.686,7.34-9.601,10.08   c-2.024,1.417-4.062,2.663-6.24,3.84c-2.08,1.124-4.836,1.964-5.76,4.32c3.035,2.367,8.305,1.46,12.24,0.72   c4.054-0.764,7.858-2.886,11.28-2.64c0.272,2.583-1.943,4.569-3.6,6.479c-1.477,1.701-3.307,4.51-5.04,5.28   c-0.947,0.42-2.16,0.154-3.12,0.479c-1.938,0.658-2.955,2.119-4.56,2.641c-4.481,1.454-9.856,1.377-13.68,0.72   c-8.898-1.53-15.961-8.564-22.8-12.24c5.64,6.76,15.076,11.804,22.8,17.28c-0.248,0.952-2.278,0.122-2.64,0.96   c2.384,2.901,7,4.335,11.28,6c5.428,2.111,10.439,5.225,17.76,4.32c10.365-1.281,17.163-12.329,21.119-20.641   c4.866-10.221,6.61-21.904,8.16-33.6c2.67,7.84,6.082,14.334,12,19.68c4.333,3.914,8.658,7.853,15.601,7.681   c0.908,5.342,4.709,8.704,7.92,12.239c2.382,2.624,5.171,5.11,7.92,7.2c16.362-2.737,27.919-9.151,40.32-16.32   c3.952-2.284,8.506-4.537,11.279-7.439c2.453-2.566,4.684-6.922,6.48-11.04c1.885-4.32,4.566-10.479,3.359-16.08   c-1.464-6.799-6.5-11.015-11.04-14.88c-1.673-1.425-3.807-2.61-4.319-4.32c-0.563-1.879,0.137-3.208,0.24-4.56   c0.854-11.258-3.207-19.324-8.16-24.48c-1.993-2.074-5.927-3.809-6.24-7.68c-0.204-2.511,1.014-5.059,1.2-7.2   c0.64-7.342-2.429-15.889-7.92-19.44c-1.781-1.151-7.253-1.936-8.4-4.32c-1.308-2.718-0.665-5.671-1.2-8.4   c-2.694-13.758-19.853-18.913-30.479-25.68c-3.692-2.351-7.992-6.953-14.4-6.72c-4.441,0.162-9.218,4.505-12.72,6.96   c-4.096,2.871-7.302,6.362-11.04,8.64c-5.085,3.1-12.106,5.035-18.72,7.2c-6.522,2.135-13.545,3.48-20.16,5.52   c-6.333,1.952-12.391,4.06-18.72,6.96c-5.372,2.46-13.024,5.807-16.08,9.6c-4.745,5.889-2.928,17.54-2.88,26.4   c0.06,11.054-1.381,21.453-2.64,31.44c-1.886,14.961-3.668,30.419-6.48,44.4c-0.979,4.865-2.833,8.202-5.52,11.52   c-4.726,5.834-10.405,11.795-15.84,18c-15.573,17.781-31.881,35.914-49.68,52.08c-5.862,5.323-11.134,11.486-17.04,16.8   c-5.869,5.281-12.457,10.225-18.96,15.12c-6.498,4.893-13.104,10.164-19.92,13.92c-7.346,4.049-15.34,7.213-23.04,10.8   C88.181,517.83,73.627,526.074,60,535.2c-20.032,13.414-40.484,27.896-60,41.52v34.562L227.76,611.28z M344.64,611.28   c-0.342-0.856,0.557-1.573,0.96-2.16c16.859-24.486,39.93-44.554,63.601-62.64c12.067-9.222,25.422-18.182,34.08-31.2   c8.602-12.935,13.28-30.059,13.2-51.36c0.128-0.991,2.172-0.068,2.159-1.2c0.288-1.8-1.872-1.854-1.68-3.359   c0.18-1.41,1.113-0.748,2.16-1.92c0.324-1.685-0.974-1.747-1.2-2.881c-0.032-1.312,1.739-0.82,1.68-2.159   c0.083-1.362-1.588-0.972-1.92-1.92c-0.437-1.694,1.271-1.78,0.48-3.12c-0.397-1.455-2.024-0.204-2.88-1.2   c-0.82-0.971,0.956-1.898-0.24-2.641c-1.952,0.388-3.432,2.128-5.28,3.36c-1.767,1.178-3.577,2.731-6,3.12   c0.421,0.71,1.279-0.139,1.92,0c-0.738,0.982-0.883,3.248,1.44,2.64c-0.67,1.469-0.973,3.34,1.439,3.36   c-0.038,1.081-1.663,0.576-1.439,1.92c-0.14,1.34,1.485,0.915,1.92,1.68c-0.097,1.504-2.265,0.936-2.16,2.641   c0.168,1.191,1.974,0.746,2.88,1.2c-0.247,21.912-4.598,38.695-13.68,51.6c-8.619,12.246-22.282,21.936-34.08,31.2   c-24.609,19.324-47.706,39.128-65.52,65.04H344.64z M278.88,462.96c4.721-7.05,9.856-16.25,16.8-20.4h0.48   c-3.761,7.052-8.817,13.397-13.44,19.921c-4.61,6.503-9.229,13.005-13.68,19.68c-8.911,13.363-15.059,28.653-25.92,40.56   C252.104,502.709,266.368,481.645,278.88,462.96z M368.64,284.64c6.285,0.115,9.116,5.764,10.08,12   C375.176,292.824,373.695,286.945,368.64,284.64z M345.6,330.72c0.172-1.395,3.592-6.292,5.761-6c1.624,0.218,2.05,4.011,2.88,5.76   c2.96,6.238,7.958,8.04,16.08,9.12c-2.416,2.241-4.716,6.168-8.4,6.48c-3.352,0.283-7.039-2.807-9.84-5.28   C349.345,338.385,345.086,334.912,345.6,330.72z M430.08,355.2c3.86,0.056,7.56,5.83,6.96,9.359   c-0.686,4.04-6.372,4.685-5.521,9.841c-1.994,3.143-5.107,4.986-7.68,7.92c-2.999,3.419-4.997,8.492-9.359,10.56   c-3.627,1.719-8.496,2.119-15.36,2.64c-3.044,0.231-5.948,1.794-8.64,1.2c-2.059-0.453-3.972-3.392-5.28-4.8   c-1.422-1.53-3.832-3.822-4.32-5.76c-0.826-3.277,0.93-7.956,2.64-9.84c2.207-2.43,7.355-4.547,10.801-6.24   c7.66-3.766,14.872-6.92,23.279-10.561C421.228,357.949,426.404,355.146,430.08,355.2z M419.52,326.16   c1.531,2.184,3.799,4.817,4.08,7.44c0.381,3.547-2.174,9.256-4.56,9.84c-2.621,0.641-5.445-1.522-7.92-1.92   c-2.91-0.467-7.043-0.959-9.601-0.24c-1.757,0.495-3.821,2.882-5.279,4.56c-1.716,1.974-3.003,3.437-4.561,5.28   c-3.05,3.61-5.816,8.653-9.359,10.32c-2.452,1.152-8.316,1.74-12,0.239c-1.639-0.667-2.509-3.751-4.801-3.6   c-2.955,0.195-2.944,6.032-5.76,6.24c-1.73,0.128-6.581-4.661-6.479-6.96c0.062-1.44,3.262-3.994,5.04-5.28   c5.957-4.31,13.514-8.005,19.199-11.76c4.079-2.693,8.375-5.482,12.24-8.4c4.052-3.058,7.937-6.706,11.76-8.64   c3.617-1.829,7.669-3.208,12.48-3.36C416.315,321.236,417.942,323.91,419.52,326.16z M404.16,275.04   c0.16-0.077,0.197-0.182,0.479-0.24c3.363-0.694,5.268,1.852,7.2,4.56c1.086,1.521,2.839,4.084,2.88,5.28   c0.093,2.673-3.605,7.342-6,8.16c-2.815,0.962-7.235,0.428-10.56,1.92c-3.317,1.489-5.925,6.196-8.641,6.24   c-2.406,0.039-5.835-2.609-6.239-5.04c-0.818-4.917,6.125-9.61,8.88-12C396.219,280.399,399.83,277.114,404.16,275.04z    M356.16,234.72c2.719,0.339,5.06,2.252,8.16,3.12c4.559,1.275,9.584,0.787,15.359,1.2c3.894,0.279,14.07,4.178,14.4,7.92   c0.321,3.641-4.947,6.11-7.92,7.44c-3.557,1.592-7.871,2.724-9.36,6c-2.588,5.695,1.438,13.928-3.359,18   c-9.106-4.46-6.623-17.961-9.841-27.84c-0.354-1.09-1.035-2.062-1.68-2.88c-3.496-4.441-8.926-7.668-17.04-7.44   C346.877,238.087,351.81,234.177,356.16,234.72z M253.92,87.36c-1.437-1.475-1.516-4.565-3.84-5.28   c-1.916-0.589-4.226,0.334-6.72,0.24c-10.867-17.773-19.616-37.664-33.6-52.32h-0.48c-0.057,0.343-0.395,0.405-0.48,0.72   c1.534,5.752,3.214,10.835,4.8,15.84c1.566,4.942,4.302,9.222,6.72,13.68c4.825,8.897,9.353,17.643,14.4,26.64   c-1.676,2.166-4.297,3.657-4.32,6.96c-0.015,2.107,2.473,5.886,3.84,8.4c21.703,39.906,44.293,80.977,65.52,119.76   c-2.359,2.836-9.323,3.372-7.68,8.64c-1.672,1.607-4.677,1.883-5.04,4.8c2.556-0.272,4.576-2.129,6.72-3.36   c14.625-8.394,29.713-17.051,44.16-25.2c0.926-0.522,2.552-0.963,2.88-2.16c-1.182-0.819-1.804,0.667-2.88,0.72   c-3.344-5.906-11.045,3.71-14.88,4.32c-21.311-37.009-42.185-74.455-63.36-111.6C265.503,95.906,258.449,85.367,253.92,87.36z    M310.08,194.4c1.842,0.426,3.053,2.669,2.4,4.8c-2.237-0.323-2.903-2.217-2.881-4.8H310.08z M305.28,210.48   c-3.092,0.038-4.063-4.296-0.96-5.28C308.717,203.807,308.823,210.437,305.28,210.48z M302.88,182.16   c1.86,0.408,2.931,2.792,2.4,4.8c-2.206-0.354-2.964-2.156-2.88-4.8H302.88z M295.92,170.16c2.348,0.076,3.314,2.732,2.88,4.8   C296.485,174.81,295.491,172.278,295.92,170.16z M297.36,193.2c5.626-1.942,4.89,6.905,0,5.52   C295.862,198.296,294.275,194.265,297.36,193.2z M295.68,208.32c-1.731-0.282-2.65-2.342-2.16-4.08   C295.166,204.55,296.369,206.462,295.68,208.32z M290.64,180.96c2.428-0.956,3.556,0.303,3.84,1.68   c0.81,3.926-5.282,5.146-5.52,0.96C288.906,182.651,289.27,181.5,290.64,180.96z M287.04,192.48c1.786,0.294,2.377,1.782,2.4,3.84   C287.416,196.389,286.533,194.155,287.04,192.48z M280.08,179.76c1.638,0.318,2.665,2.407,2.16,4.08   C280.427,183.698,279.44,181.568,280.08,179.76z M289.2,225.36c1.401-1.942,3.67-3.019,5.76-4.32   c-20.275-37.457-42.667-78.079-63.6-116.4c-3.013-5.516-7.275-13.053-1.2-18.48c-4.645-8.452-8.96-16.625-14.16-26.4   c-2.177-4.092-4.714-7.983-6.48-13.68c-0.783-2.525-1.491-4.727-2.4-7.68c-1.386-4.503-3.897-12.28,2.88-12   c3.831,0.159,6.532,5.968,8.4,8.4c2.364,3.077,5.517,6.472,7.44,9.36c3.601,5.406,6.364,11.642,9.6,17.28   c3.332,5.805,6.684,11.427,9.84,17.04c6.251-0.971,9.013,1.547,10.8,5.04c6.452,1.158,11.304,8.917,8.4,15.6   c12.679,22.44,25.241,44.999,38.16,67.2c-2.078-6.08-3.66-12.229-5.76-18.24c-0.388-1.111-0.387-2.451-0.72-3.6   c-1.184-4.086-2.854-8.583-4.32-13.2c-4.401-13.863-8.504-28.365-12.96-42.48c-4.288-13.584-8.511-27.468-12.48-41.52   c-0.875-3.098-2.301-6.956-3.6-10.8c-1.554-4.6-3.051-10.134-4.8-15.36c-1.146-3.425-1.827-7.079-2.88-10.56   c-1.074-3.548-2.391-6.919-3.36-10.56h-134.4c55.707,75.585,112.813,153.68,169.68,229.68   C288.37,228.326,288.2,226.747,289.2,225.36z" />
</g>
<g
   id="LightOnly__x28_shirt_x29_">
	<path
   id="Text"
   fill-rule="evenodd"
   clip-rule="evenodd"
   fill="#ECCC79"
   d="M339.6,634.32c-3.454,5.905-7.126,11.594-10.56,17.52   c3.815,7.225,8.503,13.578,12.479,20.641c-4.159,0-8.319,0-12.479,0c-2.709-5.212-5.543-10.297-8.4-15.36   c0.384-3.862-0.531-6.877,0-9.84c0.646-3.602,4.733-8.828,6.24-12.24c0.105-0.238,0.22-0.624,0.48-0.72   C331.44,634.32,335.52,634.32,339.6,634.32z M543.84,672.48c3.12,0,6.24,0,9.36,0c0-12.721,0-25.44,0-38.16c-3.04,0-6.08,0-9.12,0   C543.52,646.561,544,659.84,543.84,672.48z M600,657.12c0,10.595,2.267,23.9-6.96,23.52c0,3.2,0,6.4,0,9.601   c17.774,1.217,15.841-14.222,15.84-31.681c0-8.712,0-17.415,0-24.239c-2.88,0-5.76,0-8.64,0   C599.812,640.012,600,648.374,600,657.12z M410.88,651.84c4.561,0.16,9.76-0.319,13.92,0.24c0.788,7.028-3.579,8.9-10.56,8.16   c0,4.16,0,8.319,0,12.479c8.177-0.078,15.125,0.934,18.479-3.84c4.282-6.092,1.929-16.909,2.641-27.12c-8.08,0-16.16,0-24.24,0   C410.561,644.641,411.039,648.56,410.88,651.84z M75.36,655.44c-0.024,5.49,2.801,11.145,3.6,16.319   c0.704-4.176,1.758-8.002,2.64-12c-1.368-5.032-2.136-10.664-3.6-15.6C77.746,648.046,75.377,651.439,75.36,655.44z M21.36,655.44   c-0.011,2.521,1.135,5.681,1.68,8.399c0.559,2.784,1.22,5.523,1.92,8.16c0.225-4.188,2.672-8.049,2.64-12.24   c-0.041-5.303-2.745-10.453-3.6-15.359C23.941,648.336,21.377,651.603,21.36,655.44z M129.12,655.44   c0.002,2.501,1.137,5.692,1.68,8.399c0.557,2.772,1.242,5.51,1.92,8.16c0.225-4.17,2.688-8.032,2.64-12.24   c-0.061-5.3-2.699-10.486-3.6-15.359C131.718,648.328,129.117,651.608,129.12,655.44z M235.2,650.4   c-4.024,3.743-4.061,17.408,0,20.88c3.456,2.954,11.981,2.076,17.28,1.2c0-2.641,0-5.28,0-7.921   c-3.086-0.36-6.571,0.653-8.88-0.479c-1.99-0.977-2.918-4.108-1.68-6.24c1.482-2.553,6.746-1.652,10.56-1.68c0-2.561,0-5.12,0-7.68   C245.897,648.806,239.286,646.599,235.2,650.4z M166.8,657.12c0,5.12,0,10.24,0,15.36c3.52,0,7.04,0,10.56,0   c0-5.12,0-10.24,0-15.36C173.84,657.12,170.32,657.12,166.8,657.12z M491.52,657.12c0,5.12,0,10.24,0,15.36   c3.521,0,7.04,0,10.561,0c0-5.12,0-10.24,0-15.36C498.561,657.12,495.04,657.12,491.52,657.12z M294.96,657.6   c-0.63,3.13-2.084,5.437-6,5.28c0,3.44,0,6.88,0,10.32c10.771,0.53,15.66-4.82,15.12-15.601C301.04,657.6,298,657.6,294.96,657.6z    M574.08,676.56c-0.316,9.917,4.816,14.384,14.88,13.921c0-3.28,0-6.561,0-9.841c-3.313,0.113-5.411-0.989-5.52-4.08   C580.32,676.56,577.2,676.56,574.08,676.56z M288.96,643.92c3.547-0.027,5.366,1.674,5.52,5.04c3.12,0,6.24,0,9.36,0   c0.806-10.966-4.635-15.685-14.88-15.6C288.96,636.88,288.96,640.4,288.96,643.92z M505.2,646.08   c-0.561,8.353-0.82,20.549,3.6,24.479c2.701,2.402,7.592,2.401,12,2.641c0-3.44,0-6.88,0-10.32   c-5.704,0.321-6.456-3.339-6.479-9.12c-0.023-5.658,0.775-10.615,6.479-9.84c-0.312-3.367,0.63-7.99-0.479-10.56   C510.662,633.502,505.833,636.643,505.2,646.08z M539.52,667.2c2.314-5.562,2.02-22.435,0.24-27.36   c-2.019-5.588-8.417-6.028-14.64-6.479c0,3.52,0,7.04,0,10.56c6.01-0.826,6.643,4.726,6.479,10.32   c-0.169,5.813-1.135,9.026-6.479,8.64c0,3.44,0,6.88,0,10.32C531.98,673.143,537.51,672.032,539.52,667.2z M557.28,634.56   c0,3.36,0,6.721,0,10.08c4.77-1.106,7.335,1.682,6.96,6.48c2.88,0,5.76,0,8.64,0C574.641,638.681,568.73,629.761,557.28,634.56z    M574.8,638.64c-2.612,4.991-2.899,22.208,0,28.08c2.994,6.064,12.843,7.029,20.641,4.32c0-3.12,0-6.24,0-9.36   c-4.23-0.096-8.396,0.999-11.28-0.96c-3.439-2.335-1.991-14.684,0.72-16.08c2.733-1.407,6.631-0.501,10.561-0.479   c0-3.28,0-6.561,0-9.84C587.639,632.29,577.606,633.278,574.8,638.64z M12.24,672.48c2.72,0,5.44,0,8.16,0   c-2.485-12.795-5.127-25.434-7.68-38.16c-3.201,0.159-7.04-0.319-9.84,0.239C6.183,647.018,8.948,660.012,12.24,672.48z    M34.8,672.48c2.8,0,5.6,0,8.4,0c-2.605-12.676-5.255-25.306-7.68-38.16c-2.96,0-5.92,0-8.88,0   C29.21,647.189,32.279,659.561,34.8,672.48z M47.04,634.32c0,0.239,0,0.479,0,0.72c-0.786,2.771-1.094,5.559-1.68,8.4   c-0.563,2.73-1.904,5.639-1.92,8.399c-0.019,3.226,1.504,6.812,2.16,10.08c0.721,3.594,0.976,7.034,2.16,10.32   c3.054-12.466,5.906-25.135,9.36-37.2c2.723,12.717,6.011,24.868,8.88,37.44c2.72,0,5.44,0,8.16,0   c-2.162-13.039-5.193-25.207-7.44-38.16C60.16,634.32,53.6,634.32,47.04,634.32z M88.8,672.48c2.72,0,5.44,0,8.16,0   c-2.432-12.849-5.074-25.486-7.68-38.16c-2.88,0.159-6.399-0.319-8.88,0.239C83.382,647.019,85.953,659.887,88.8,672.48z    M101.28,634.32c-0.337,0.062-0.273,0.526-0.48,0.72c-0.275,5.884-3.36,11.107-3.36,16.8c0,6.786,3.601,13.186,3.84,20.16   c3.781-11.739,6.151-24.889,9.6-36.96c3.041,12.479,5.951,25.09,9.12,37.44c2.72,0,5.44,0,8.16,0   c-2.471-12.81-5.113-25.447-7.68-38.16C114.08,634.32,107.68,634.32,101.28,634.32z M142.56,672.48c2.8,0,5.6,0,8.4,0   c-2.59-12.69-5.238-25.322-7.68-38.16c-2.96,0-5.92,0-8.88,0C136.989,647.172,140.048,659.552,142.56,672.48z M154.8,634.32   c0,0.239,0,0.479,0,0.72c-0.398,5.692-3.551,11.438-3.6,16.8c-0.029,3.217,1.503,6.807,2.16,10.08   c0.716,3.567,1.106,7.021,2.16,10.32c3.025-12.735,6.202-25.318,9.36-37.92C161.52,634.32,158.16,634.32,154.8,634.32z    M396.72,618.96c-8.415,3.372-8.048,17.061-7.92,29.28c0.085,8.131,0.275,16.839,4.08,20.88c3.665,3.893,10.656,3.604,17.04,3.6   c0-4.16,0-8.319,0-12.479c-7.865,0.855-9.699-2.73-10.08-9.601c-0.412-7.439-0.599-17.997,3.12-19.68   c1.704-0.771,4.864-0.409,6.96-0.479c0-4.32,0-8.641,0-12.961C405.55,617.989,400.757,617.342,396.72,618.96z M414.24,617.52   c0,4.24,0,8.48,0,12.721c5.482,0.037,11.441-0.401,10.319,6.24c3.601,0,7.2,0,10.801,0   C436.737,620.529,429.469,616.393,414.24,617.52z M182.4,618c-0.56,17.68-0.08,36.4-0.24,54.48c3.6,0,7.2,0,10.8,0   c0-6.961,0-13.921,0-20.881c3.44,0,6.88,0,10.32,0c0-4.479,0-8.96,0-13.439c-3.367-0.152-7.35,0.31-10.32-0.24   c0-6.64,0-13.28,0-19.92C189.44,618,185.92,618,182.4,618z M218.16,618c-0.718,6.162,0.237,13.997-0.48,20.16   c-3.36,0-6.72,0-10.08,0c0,4.479,0,8.96,0,13.439c3.36,0.16,7.359-0.318,10.32,0.24c0,6.88,0,13.76,0,20.641c3.6,0,7.2,0,10.8,0   c0-18.16,0-36.32,0-54.48C225.2,618,221.68,618,218.16,618z M307.2,618.72c0,17.92,0,35.84,0,53.761c3.04,0,6.08,0,9.12,0   c0-18.16,0-36.32,0-54.48c-2.96,0-5.92,0-8.88,0C307.16,618.04,307.18,618.38,307.2,618.72z M342.48,618.72   c0,17.92,0,35.84,0,53.761c3.6,0,7.199,0,10.8,0c0-18.16,0-36.32,0-54.48c-3.521,0-7.04,0-10.561,0   C342.44,618.04,342.459,618.38,342.48,618.72z M357.6,631.2c5.163,0.935,12.471-1.642,15.601,0.96   c2.808,2.334,2.459,11.251-0.48,12.96c-4.401,2.56-9.821-0.423-15.12,0.72c0,4.4,0,8.8,0,13.2   c8.618-1.206,18.428,2.393,23.761-2.16c5.531-4.723,6.119-26.518,2.159-33.84c-4.407-8.151-15.191-3.999-25.68-5.04   C357.28,621.921,357.76,626.88,357.6,631.2z M440.4,618c-0.561,17.68-0.08,36.4-0.24,54.48c3.6,0,7.2,0,10.8,0   c0-6.961,0-13.921,0-20.881c3.44,0,6.88,0,10.32,0c0-4.479,0-8.96,0-13.439c-3.368-0.152-7.351,0.31-10.32-0.24   c0-6.64,0-13.28,0-19.92C447.44,618,443.92,618,440.4,618z M476.16,618c-0.718,6.162,0.237,13.997-0.48,20.16   c-3.359,0-6.72,0-10.08,0c0,4.479,0,8.96,0,13.439c3.361,0.16,7.359-0.318,10.32,0.24c0,6.88,0,13.76,0,20.641c3.6,0,7.2,0,10.8,0   c0-18.16,0-36.32,0-54.48C483.2,618,479.68,618,476.16,618z M246.96,633.36c-8.399,0.081-13.721,3.238-13.44,12   c3.04,0,6.08,0,9.12,0c0.264-2.296,1.739-3.381,4.56-3.12C247.041,639.359,247.519,635.841,246.96,633.36z M263.04,636   c-2.458-2.336-6.203-2.412-11.28-2.64c-0.559,2.48-0.081,5.999-0.24,8.88c7.034-0.732,5.28,8.241,5.28,15.12   c0,5.778,0,11.162,0,15.12c3.12,0,6.24,0,9.36,0C264.41,661.036,269.765,642.392,263.04,636z M284.16,633.36   c-4.138,0.528-8.524,0.688-11.04,3.359c-5.761,6.119-5.071,28.579,0.48,33.601c2.455,2.221,6.998,2.604,11.04,2.88   c0-3.44,0-6.88,0-10.32c-8.415,0.815-8.683-19.861,0-18.96c-0.16-3.44,0.319-7.52-0.24-10.56   C284.32,633.36,284.24,633.36,284.16,633.36z" />
	<path
   id="Image"
   fill-rule="evenodd"
   clip-rule="evenodd"
   fill="#ECCC79"
   d="M373.44,278.4c-9.106-4.46-6.623-17.961-9.841-27.84   c-0.354-1.09-1.035-2.062-1.68-2.88c-3.496-4.441-8.926-7.668-17.04-7.44c1.997-2.153,6.93-6.063,11.28-5.52   c2.719,0.339,5.06,2.252,8.16,3.12c4.559,1.275,9.584,0.787,15.359,1.2c3.894,0.279,14.07,4.178,14.4,7.92   c0.321,3.641-4.947,6.11-7.92,7.44c-3.557,1.592-7.871,2.724-9.36,6C374.212,266.095,378.238,274.328,373.44,278.4z M404.16,275.04   c-4.33,2.074-7.941,5.359-12,8.88c-2.755,2.39-9.698,7.083-8.88,12c0.404,2.431,3.833,5.079,6.239,5.04   c2.716-0.043,5.323-4.75,8.641-6.24c3.324-1.493,7.744-0.958,10.56-1.92c2.395-0.818,6.093-5.487,6-8.16   c-0.041-1.196-1.794-3.759-2.88-5.28c-1.933-2.708-3.837-5.254-7.2-4.56C404.357,274.858,404.32,274.963,404.16,275.04z    M378.72,296.64c-0.964-6.236-3.795-11.885-10.08-12C373.695,286.945,375.176,292.824,378.72,296.64z M401.52,323.28   c-3.823,1.934-7.708,5.582-11.76,8.64c-3.865,2.918-8.161,5.707-12.24,8.4c-5.686,3.755-13.242,7.45-19.199,11.76   c-1.778,1.286-4.978,3.84-5.04,5.28c-0.102,2.299,4.749,7.088,6.479,6.96c2.815-0.208,2.805-6.045,5.76-6.24   c2.292-0.151,3.162,2.933,4.801,3.6c3.684,1.501,9.548,0.913,12-0.239c3.543-1.667,6.31-6.71,9.359-10.32   c1.558-1.844,2.845-3.306,4.561-5.28c1.458-1.678,3.522-4.065,5.279-4.56c2.558-0.719,6.69-0.227,9.601,0.24   c2.475,0.397,5.299,2.561,7.92,1.92c2.386-0.584,4.94-6.293,4.56-9.84c-0.281-2.623-2.549-5.256-4.08-7.44   c-1.577-2.25-3.204-4.924-5.52-6.24C409.188,320.072,405.137,321.451,401.52,323.28z M354.24,330.48   c-0.83-1.749-1.256-5.542-2.88-5.76c-2.169-0.292-5.589,4.605-5.761,6c-0.514,4.191,3.745,7.665,6.48,10.08   c2.801,2.473,6.488,5.563,9.84,5.28c3.685-0.312,5.984-4.239,8.4-6.48C362.198,338.52,357.2,336.718,354.24,330.48z M437.04,364.56   c0.6-3.529-3.1-9.304-6.96-9.359c-3.676-0.054-8.853,2.749-12.48,4.319c-8.407,3.641-15.619,6.795-23.279,10.561   c-3.445,1.693-8.594,3.811-10.801,6.24c-1.71,1.884-3.466,6.562-2.64,9.84c0.488,1.938,2.898,4.229,4.32,5.76   c1.309,1.408,3.222,4.347,5.28,4.8c2.691,0.594,5.596-0.969,8.64-1.2c6.864-0.521,11.733-0.921,15.36-2.64   c4.362-2.067,6.36-7.141,9.359-10.56c2.572-2.934,5.686-4.777,7.68-7.92C430.668,369.244,436.354,368.6,437.04,364.56z    M295.68,442.56c-6.944,4.15-12.079,13.351-16.8,20.4c-12.512,18.685-26.776,39.749-35.76,59.76   c10.861-11.906,17.009-27.196,25.92-40.56c4.451-6.675,9.07-13.177,13.68-19.68c4.623-6.523,9.679-12.869,13.44-19.921   C296,442.56,295.84,442.56,295.68,442.56z M297.36,198.72c4.89,1.385,5.626-7.462,0-5.52   C294.275,194.265,295.862,198.296,297.36,198.72z M312.48,199.2c0.652-2.131-0.559-4.374-2.4-4.8c-0.16,0-0.32,0-0.48,0   C309.577,196.983,310.243,198.877,312.48,199.2z M295.68,208.32c0.689-1.857-0.514-3.77-2.16-4.08   C293.03,205.978,293.949,208.038,295.68,208.32z M305.28,210.48c3.543-0.043,3.437-6.673-0.96-5.28   C301.216,206.184,302.188,210.518,305.28,210.48z M282.24,183.84c0.504-1.673-0.522-3.762-2.16-4.08   C279.44,181.568,280.427,183.698,282.24,183.84z M288.96,183.6c0.238,4.186,6.33,2.966,5.52-0.96   c-0.284-1.377-1.412-2.636-3.84-1.68C289.27,181.5,288.906,182.651,288.96,183.6z M305.28,186.96c0.531-2.008-0.54-4.392-2.4-4.8   c-0.16,0-0.32,0-0.48,0C302.315,184.804,303.074,186.606,305.28,186.96z M289.44,196.32c-0.022-2.058-0.614-3.545-2.4-3.84   C286.533,194.155,287.416,196.389,289.44,196.32z M298.8,174.96c0.435-2.068-0.532-4.724-2.88-4.8   C295.491,172.278,296.485,174.81,298.8,174.96z M0,0c0,20.16,0,40.32,0,60.48c91.35,65.573,184.813,132.004,276.48,198.72   c-7.302,3.578-14.862,6.898-17.04,15.6C171.964,240.286,85.561,205.781,0,171.84c0,28.88,0,57.76,0,86.64   c84.049,12.245,174.249,24.831,258.96,37.92c-0.447,6.033-0.324,12.636-1.44,18c-47.089,3.566-96.022,5.204-143.28,9.12   c-2.976,0.247-6.631,0.304-8.64,0.48c-8.206,0.719-16.525,0.462-24.72,1.2c-15.352,1.381-30.815,1.747-46.08,3.12   c-7.612,0.685-16.753,0.502-24.72,1.2c-2.987,0.262-8.385,0.503-10.08,0.96c0,26.959,0,53.92,0,80.88   c84.142-25.098,170.512-51.004,255.12-75.601c-1.284,9.036-2.132,18.508-3.6,27.36c-42.136,24.268-84.339,48.459-126.48,72.72   C83.891,459.074,41.221,484.109,0,507.12c0,23.199,0,46.4,0,69.6c19.516-13.624,39.968-28.105,60-41.52   c13.627-9.126,28.181-17.37,43.44-24.48c7.7-3.587,15.694-6.751,23.04-10.8c6.816-3.756,13.422-9.027,19.92-13.92   c6.503-4.896,13.091-9.839,18.96-15.12c5.906-5.313,11.178-11.477,17.04-16.8c17.799-16.166,34.107-34.299,49.68-52.08   c5.435-6.205,11.114-12.166,15.84-18c2.687-3.317,4.542-6.654,5.52-11.52c2.812-13.981,4.594-29.439,6.48-44.4   c1.259-9.987,2.7-20.386,2.64-31.44c-0.048-8.86-1.865-20.511,2.88-26.4c3.056-3.793,10.708-7.14,16.08-9.6   c6.33-2.9,12.387-5.008,18.72-6.96c6.615-2.04,13.638-3.385,20.16-5.52c6.613-2.166,13.635-4.101,18.72-7.2   c3.738-2.278,6.944-5.769,11.04-8.64c3.502-2.455,8.278-6.798,12.72-6.96c6.408-0.233,10.708,4.369,14.4,6.72   c10.627,6.767,27.785,11.921,30.479,25.68c0.535,2.729-0.107,5.683,1.2,8.4c1.147,2.384,6.619,3.168,8.4,4.32   c5.491,3.551,8.56,12.098,7.92,19.44c-0.187,2.141-1.404,4.689-1.2,7.2c0.313,3.871,4.247,5.605,6.24,7.68   c4.953,5.156,9.014,13.222,8.16,24.48c-0.104,1.352-0.804,2.681-0.24,4.56c0.513,1.71,2.646,2.896,4.319,4.32   c4.54,3.865,9.576,8.081,11.04,14.88c1.207,5.601-1.475,11.76-3.359,16.08c-1.797,4.118-4.027,8.474-6.48,11.04   c-2.773,2.902-7.327,5.155-11.279,7.439c-12.401,7.169-23.958,13.583-40.32,16.32c-2.749-2.09-5.538-4.576-7.92-7.2   c-3.211-3.535-7.012-6.897-7.92-12.239c-6.942,0.172-11.268-3.767-15.601-7.681c-5.918-5.346-9.33-11.84-12-19.68   c-1.55,11.695-3.294,23.379-8.16,33.6c-3.956,8.312-10.754,19.359-21.119,20.641c-7.321,0.904-12.332-2.209-17.76-4.32   c-4.281-1.665-8.896-3.099-11.28-6c0.362-0.838,2.392-0.008,2.64-0.96c-7.724-5.477-17.16-10.521-22.8-17.28   c6.839,3.676,13.901,10.71,22.8,12.24c3.824,0.657,9.199,0.734,13.68-0.72c1.605-0.521,2.622-1.982,4.56-2.641   c0.96-0.325,2.173-0.06,3.12-0.479c1.733-0.771,3.563-3.579,5.04-5.28c1.656-1.91,3.872-3.896,3.6-6.479   c-3.422-0.246-7.227,1.876-11.28,2.64c-3.935,0.74-9.205,1.647-12.24-0.72c0.924-2.356,3.68-3.196,5.76-4.32   c2.177-1.177,4.215-2.423,6.24-3.84c3.915-2.74,8.357-5.375,9.601-10.08c-2.181-0.681-5.997,0.604-6.48-1.68   c-0.901-4.27,9.12-5.041,9.12-9.841c0-4.02-7-6.003-10.319-7.919c-4.219-2.435-7.307-4.557-9.121-9.12   c3.286,0.732,14.221,6.367,14.4-0.24c0.096-3.548-4.858-5.263-4.8-9.36c0.067-4.687,5.245-5.953,5.04-10.8   c-6.239-2.724-20.184,0.986-21.36-6c2.91-0.818,6.151,1.046,9.84,0.72c1.091-0.097,5.173-1.161,5.04-2.88   c-0.102-1.304-3.749-2.633-5.76-2.88c-7.921-0.972-24.239,4.055-23.76-5.76c3.902-0.057,6.406,3.107,10.56,2.88   c2.514-0.138,5.092-1.939,7.68-2.88c2.618-0.952,5.481-1.901,6.72-3.84c-1.734-2.836-4.056-5.301-6-8.16   c-0.877-1.291-1.853-2.807-2.88-4.08c-0.945-1.171-3.069-2.38-2.4-4.32c7.079,3.401,9.106,11.854,17.76,13.68   c2.089-7.911-0.875-20.875,7.68-22.32c-2.289,6.795-5.457,18.077-0.24,23.76c1.449,1.579,4.175,2.345,6.48,3.84   c6.401,4.151,9.933,11.443,15.359,15.84c3.325,2.694,8.433,5.218,12.24,6.24c4.77,1.28,9.564-0.205,13.92-1.68   c4.829-1.635,11.492-3.416,10.32-9.84c-1.699-9.315-11.377-23.355-22.8-22.32c-4.596,0.417-9.665,3.841-10.08,6.96   c-0.541,4.054,3.258,8.453,4.8,11.52c2.018,4.014,4.008,7.266,5.52,10.32c-3.991-2.373-5.536-5.682-8.159-9.6   c-1.938-2.893-6.135-7.366-6.48-11.28c-0.258-2.922,1.119-5.413,2.64-6.96c2.939-2.991,9.996-4.769,9.601-9.84   c-0.193-2.476-3.831-5.156-6.48-6.24c-1.635-0.669-4.207-0.337-5.76-1.44c0.001-5.495,2.421-12.95,0.48-18.24   c-2.158-5.881-7.213-3.575-12.96-1.92c-9.744,2.806-18.295,5.239-27.121,8.16c-9.24,3.058-17.469,5.756-24.96,10.08   c-2.535,1.463-5.395,2.664-7.44,4.32c-6.027,4.882-5.98,14.189-6.48,25.2c-0.379,8.356-0.284,16.349-1.2,22.8   c-1.04,7.325-2.122,14.103-3.12,20.88c-1.062,7.208-0.582,14.68-0.96,23.28c-0.067,1.519-0.422,3.839-0.24,5.04   c1.002,6.629,7.855,9.084,10.32,14.399c-3.126-1.834-5.839-5.359-8.88-6.479c10.637,12.003,24.68,20.601,31.68,36.24   c-3.33-2.419-5.701-5.835-8.4-8.88c-5.565-6.278-11.488-11.968-17.28-17.761c-2.879-2.879-5.455-6.48-9.36-8.16   c-7.124,6.058-12.038,14.435-18.24,22.08c-2.824,3.482-5.639,7.412-8.64,11.521c-2.847,3.896-7.091,7.609-8.88,11.52   c-3.291,7.196-1.408,17.363-0.24,24.721c1.297,8.167,3.026,16.506,2.64,25.439c-0.37,8.539-4.813,13.725-8.64,19.44   c-3.896,5.818-7.815,11.111-11.52,16.56c-12.147,17.864-21.739,33.95-32.16,52.08c-3.33,5.794-7.448,11.508-9.36,18.72   c5.975-4.491,10.755-10.506,15.6-16.319c14.572-17.487,28.423-35.045,42-53.761c8.648-11.922,17.052-25.058,25.92-37.92   c6.246-9.06,13.54-18.714,20.16-27.84c2.391-3.295,5.307-6.528,6.48-9.6c0.821-2.151,0.97-4.493,2.16-6.24   c1.755-2.577,7-4.16,7.44-7.44c0.298-2.223-1.83-4.504-0.48-6c4.485,1.836,7.942,4.699,8.88,10.08   c-1.856,1.009-5.662,0.029-7.44,1.2c-1.854,1.221-2.098,5.914-3.12,8.88c-0.846,2.454-2.621,6.087-4.32,7.92   c-1.451,1.566-3.827,2.838-5.04,4.32c-2.782,3.401-4.475,8.143-6.96,12.48c-2.323,4.053-5.552,7.728-7.92,11.76   c-2.244,3.82-4.558,8.209-8.16,11.52c-3.708,3.408-6.539,7.236-8.4,11.28c-2.403,5.223-2.376,10.524-3.84,15.84   c-4.117,14.95-14.145,26.381-18.48,40.08c13.085-18.654,25.675-37.636,38.4-56.64c6.345-9.477,12.435-19.212,18.96-28.561   c6.554-9.389,13.605-18.42,18.96-28.56c-0.339-1.232-1.202-3.048-0.48-4.561c3.761-1.952,7.907,2.18,12.24,1.2   c6.088-1.376,0.454-7.226-1.68-9.359c-2.099-2.1-4.093-3.35-5.28-5.761c2.406,1.059,4.148,3.019,6.48,4.801   c1.709,1.306,4.979,4.325,6.96,4.56c1.825,0.216,3.851-0.971,5.52-0.96c5.996,0.039,9.1,5.892,15.601,5.28   c0.941-2.999,1.019-7.7,0.96-11.28c-0.071-4.365-3.201-5.402-2.88-8.4c10.034,0.566,1.458,18.036,11.76,18   c2.39-0.008,4.479-2.102,7.68-2.399c5.399-0.503,10.197,0.053,13.92-1.2c2.003-0.674,4.283-3.568,6.24-5.28   c5.775-5.052,12.251-10.217,17.04-15.12c3.456,4.651,12.219,1.1,17.521,0.48c3.725,5.314,7.11,10.969,10.8,16.32   c-11.243,7.93-24.699,14.475-39.84,17.76c-4.681,2.591-12.534,1.61-17.761,4.08c-4.385,2.071-8.474,5.926-13.199,8.399   c-2.376,1.244-4.895,2.371-7.44,3.36c-2.681,1.041-5.745,1.422-8.4,2.64c-5.924,2.718-8.241,7.582-12,12.721   c-6.547,8.949-13.228,18.113-19.439,26.64c-25.738,35.331-51.167,72.803-69.36,114.24c36.241,0,72.48,0,108.721,0   c17.813-25.912,40.91-45.716,65.52-65.04c11.798-9.265,25.461-18.954,34.08-31.2c9.082-12.904,13.433-29.688,13.68-51.6   c-0.906-0.454-2.712-0.009-2.88-1.2c-0.104-1.705,2.063-1.137,2.16-2.641c-0.435-0.765-2.06-0.34-1.92-1.68   c-0.224-1.344,1.401-0.839,1.439-1.92c-2.412-0.021-2.109-1.892-1.439-3.36c-2.323,0.608-2.179-1.657-1.44-2.64   c-0.641-0.139-1.499,0.71-1.92,0c2.423-0.389,4.233-1.942,6-3.12c1.849-1.232,3.328-2.973,5.28-3.36   c1.196,0.742-0.58,1.67,0.24,2.641c0.855,0.996,2.482-0.255,2.88,1.2c0.79,1.34-0.917,1.426-0.48,3.12   c0.332,0.948,2.003,0.558,1.92,1.92c0.06,1.339-1.712,0.848-1.68,2.159c0.227,1.134,1.524,1.196,1.2,2.881   c-1.047,1.172-1.98,0.51-2.16,1.92c-0.192,1.505,1.968,1.56,1.68,3.359c0.013,1.132-2.031,0.209-2.159,1.2   c0.08,21.302-4.599,38.426-13.2,51.36c-8.658,13.019-22.013,21.979-34.08,31.2c-23.671,18.086-46.741,38.153-63.601,62.64   c-0.403,0.587-1.302,1.304-0.96,2.16c1.28,0,2.561,0,3.841,0c20.678-28.763,47.52-51.359,76.319-72   c1.641,6.311,3.94,12.327,5.76,18.479c0.848,2.864,2.053,5.864,3.12,8.641c2.41,6.268,3.957,12.152,6,17.76   c3.217,8.828,6.035,18.065,9.36,27.12c48.479,0,96.961,0,145.44,0c-26.623-32.568-54.645-66.81-82.08-99.601   c-16.725-19.987-33.046-40.338-49.44-60.239c-1.175-1.733-0.719-3.756-1.44-5.521c-0.519-1.27-1.777-1.596-2.64-2.64   c-0.922-1.117-1.234-2.478-2.16-3.36c2.114-2.978,0.589-7.603-0.72-10.8c-1.68-4.104-4.839-8.295-7.2-12.72   c-2.473-4.635-5.041-9.157-6.96-13.2c4.098-6.862,7.483-14.438,11.521-21.36c52.856,35.867,106.192,72.525,158.64,108   c0-28.96,0-57.92,0-86.88c-52.331-18.232-104.238-36.88-156.48-55.2c-3.196-6.643-9.102-10.578-13.92-15.6   c0.915-3.137,0.507-8.295,0-11.52c57.373,7.34,113.973,13.964,170.4,21.36c0-19.68,0-39.36,0-59.04   c-54.711,5.196-117.099,11.767-173.04,16.8c-2.444,0.22-5.214,1.191-7.44,0.72c-7.358-1.557-0.319-12.38-3.359-18.24   c51.763-16.96,104.928-33.228,156.72-50.4c3.479-1.153,7.159-2.72,10.561-3.36c2.625-0.494,4.817-0.192,7.199-0.72   c3.046-0.675,6.139-2.505,9.36-3.12c0-28,0-56,0-84c-63.27,39.834-128.077,80.621-191.52,120.96   c-2.839,1.805-6.121,4.769-8.16,2.88c-0.43-9.491-3.718-16.122-8.88-20.88C473.043,166.007,542.47,88.229,612,10.56   c0-3.52,0-7.04,0-10.56c-48.241,0-96.479,0-144.72,0c-2.644,6.993-5.098,14.208-7.92,20.88c-1.493,3.527-3.16,6.919-4.32,10.32   c-0.845,2.476-1.745,4.662-2.64,6.96c-2.173,5.579-4.604,11.448-6.48,17.28c-3.367,6.654-5.499,14.156-8.4,21.36   c-0.923,2.292-2.466,4.454-2.64,6.96c-2.467,4.469-3.927,9.294-5.76,13.92c-1.872,4.725-3.935,9.446-5.521,14.64   c-15.595,38.245-30.521,77.158-45.84,115.68c-3.9-3.214-9.062-6.614-15.359-6.24c-5.543,0.33-8.886,4.522-12.96,6.24   c1.682-3.025,5.862-3.274,6.479-6.72c0.428-2.387-2.006-5.081-3.6-7.92c-2.203-3.921-3.672-8.191-6.96-9.6   c0-67.918,0-135.841,0-203.76c-31.201,0-62.4,0-93.601,0c0.969,3.641,2.287,7.012,3.36,10.56c1.053,3.481,1.734,7.135,2.88,10.56   c1.749,5.226,3.246,10.76,4.8,15.36c1.299,3.844,2.725,7.703,3.6,10.8c3.969,14.051,8.192,27.936,12.48,41.52   c4.456,14.115,8.559,28.617,12.96,42.48c1.466,4.617,3.137,9.114,4.32,13.2c0.333,1.149,0.332,2.489,0.72,3.6   c2.1,6.01,3.682,12.16,5.76,18.24c-12.919-22.201-25.481-44.759-38.16-67.2c2.904-6.683-1.948-14.442-8.4-15.6   c-1.787-3.493-4.549-6.011-10.8-5.04c-3.156-5.613-6.508-11.235-9.84-17.04c-3.236-5.638-6-11.874-9.6-17.28   c-1.923-2.889-5.076-6.284-7.44-9.36c-1.868-2.432-4.569-8.241-8.4-8.4c-6.777-0.28-4.266,7.497-2.88,12   c0.909,2.954,1.617,5.155,2.4,7.68c1.766,5.697,4.303,9.587,6.48,13.68c5.2,9.775,9.515,17.949,14.16,26.4   c-6.076,5.427-1.813,12.964,1.2,18.48c20.934,38.321,43.325,78.943,63.6,116.4c-2.089,1.301-4.359,2.378-5.76,4.32   c-1,1.387-0.83,2.966-2.16,4.32C230.173,153.68,173.067,75.585,117.36,0C78.241,0,39.12,0,0,0z M243.36,82.32   c2.494,0.094,4.805-0.829,6.72-0.24c2.324,0.715,2.403,3.805,3.84,5.28c4.529-1.993,11.583,8.546,5.76,10.8   c21.175,37.145,42.049,74.591,63.36,111.6c3.835-0.61,11.536-10.226,14.88-4.32c1.076-0.053,1.698-1.539,2.88-0.72   c-0.328,1.196-1.954,1.638-2.88,2.16c-14.447,8.149-29.535,16.807-44.16,25.2c-2.144,1.23-4.164,3.088-6.72,3.36   c0.363-2.917,3.368-3.192,5.04-4.8c-1.644-5.268,5.32-5.804,7.68-8.64c-21.227-38.783-43.816-79.854-65.52-119.76   c-1.368-2.514-3.855-6.293-3.84-8.4c0.023-3.303,2.645-4.794,4.32-6.96c-5.047-8.997-9.576-17.743-14.4-26.64   c-2.417-4.458-5.154-8.738-6.72-13.68c-1.586-5.005-3.266-10.088-4.8-15.84c0.085-0.315,0.423-0.377,0.48-0.72   c0.16,0,0.32,0,0.48,0C223.744,44.656,232.493,64.547,243.36,82.32z M352.32,220.32c-1.96,2.6-5.1,4.021-7.44,6.24   c0.34,1.34,1.117,2.243,1.68,3.36c-5.883,6.68-13.591,10.094-23.76,13.68c-5.184,1.828-11.034,4.023-15.6,4.56   c-0.629,0.074-0.983,0.443-1.68-0.24c-3.207,1.753-7.546,2.375-11.04,3.84c-2.614-3.306-4.442-7.397-6.72-11.04   c3.597-3.891,8.9-5.921,13.68-8.64c9.317-5.301,18.659-10.775,28.32-16.32c4.923-2.825,10.201-6.348,14.88-8.16   C347.607,211.433,349.7,216.14,352.32,220.32z M439.92,399.6c-1.949-2.69-3.35-5.931-5.04-8.88   c6.291-4.188,13.066-7.894,16.32-15.12c-0.016-0.075,0.02-0.165,0-0.239c0.433,1.669-1.867,7.392-3.12,9.359   c-0.551,0.864-1.61,1.513-2.16,2.4C443.464,391.082,442.457,395.986,439.92,399.6z M431.28,392.4c0.159,0,0.319,0,0.479,0   c4.776,8.971,10.554,19.571,15.84,29.04c1.814,3.248,4.12,6.531,5.28,9.6c0.586,1.55,1.474,4.017,1.44,5.28   c-0.108,4.029-7.017,8.681-10.32,10.08c-5.088,2.153-7.492,0.09-10.32-3.601c-9.503-12.402-16.885-26.443-25.68-39.12   C416.521,400.682,423.741,396.381,431.28,392.4z M390,438.72c5.759,14.554,9.807,29.068,15.36,43.681   c1.974,7.062,4.715,14.299,7.439,22.08c0.693,1.979,0.92,4.034,1.681,6c0.604,1.563,1.654,3.092,2.159,4.8   c0.397,1.341,0.968,3.539,1.681,5.76c0.583,1.817,1.797,4.32,1.68,5.28c-0.135,1.102-3.59,3.648-5.28,5.04   c-29.134,23.986-61.874,47.314-81.84,79.439c-0.273-7.602,0.062-15.277,0.72-22.8c0.668-7.624,0.086-15.39,0.721-23.04   c0.775-9.357,0.62-18.726,1.439-28.08c0.669-7.632,0.086-15.382,0.721-23.04c1.524-18.4,1.076-37.726,2.64-55.68   c3.779-1.495,7.062-3.199,10.56-5.28c3.262-1.939,6.927-5.413,10.801-6.72c4.761-1.605,10.14-1.382,15.359-2.641   C380.507,442.396,385.29,440.218,390,438.72z" />
</g>
</svg>