<?xml version="1.0" encoding="UTF-8" standalone="no"?>
<!-- Created with Inkscape (http://www.inkscape.org/) -->

<svg
   xmlns:dc="http://purl.org/dc/elements/1.1/"
   xmlns:cc="http://creativecommons.org/ns#"
   xmlns:rdf="http://www.w3.org/1999/02/22-rdf-syntax-ns#"
   xmlns:svg="http://www.w3.org/2000/svg"
   xmlns="http://www.w3.org/2000/svg"
   xmlns:sodipodi="http://sodipodi.sourceforge.net/DTD/sodipodi-0.dtd"
   xmlns:inkscape="http://www.inkscape.org/namespaces/inkscape"
   sodipodi:docname="hackpgh_pingpong_balloons.svg"
   inkscape:version="0.48.1 r9760"
   version="1.1"
   id="svg27345"
   height="1000"
   width="3200">
  <sodipodi:namedview
     id="base"
     pagecolor="#ffffff"
     bordercolor="#666666"
     borderopacity="1.0"
     inkscape:pageopacity="0.0"
     inkscape:pageshadow="2"
     inkscape:zoom="0.341875"
     inkscape:cx="2104.5704"
     inkscape:cy="500"
     inkscape:document-units="px"
     inkscape:current-layer="svg27345"
     showgrid="false"
     inkscape:window-width="1600"
     inkscape:window-height="823"
     inkscape:window-x="0"
     inkscape:window-y="24"
     inkscape:window-maximized="1" />
  <defs
     id="defs27347">
    <inkscape:perspective
       id="perspective27353"
       inkscape:persp3d-origin="372.04724 : 350.78739 : 1"
       inkscape:vp_z="744.09448 : 526.18109 : 1"
       inkscape:vp_y="0 : 1000 : 0"
       inkscape:vp_x="0 : 526.18109 : 1"
       sodipodi:type="inkscape:persp3d" />
    <inkscape:path-effect
       back_thickness="0.25"
       front_thickness="1"
       stroke_width_bottom="1"
       stroke_width_top="1"
       fat_output="false"
       bottom_smth_variation="0;1"
       top_smth_variation="0;1"
       scale_tb="2"
       scale_tf="2"
       scale_bb="2"
       scale_bf="2"
       top_tgt_variation="0;1"
       bottom_tgt_variation="0;1"
       top_edge_variation="0;1"
       bottom_edge_variation="0;1"
       bender="2679.7302,468.37519 , 5,0"
       do_bend="true"
       growth="0"
       dist_rdm="0;1"
       direction="2679.7302,463.37519 , 20.11912,4.9497475"
       is_visible="true"
       id="path-effect5625-1"
       effect="rough_hatches" />
    <inkscape:path-effect
       effect="rough_hatches"
       id="path-effect5469-9"
       is_visible="true"
       direction="1140,447.14062 , 18.067415,5.1438462"
       dist_rdm="0;1"
       growth="0"
       do_bend="true"
       bender="1140,452.14062 , 5,0"
       bottom_edge_variation="0;1"
       top_edge_variation="0;1"
       bottom_tgt_variation="0;1"
       top_tgt_variation="0;1"
       scale_bf="2"
       scale_bb="2"
       scale_tf="2"
       scale_tb="2"
       top_smth_variation="0;1"
       bottom_smth_variation="0;1"
       fat_output="false"
       stroke_width_top="1"
       stroke_width_bottom="1"
       front_thickness="1"
       back_thickness="0.25" />
    <inkscape:path-effect
       back_thickness="0.25"
       front_thickness="1"
       stroke_width_bottom="1"
       stroke_width_top="1"
       fat_output="false"
       bottom_smth_variation="0;1"
       top_smth_variation="0;1"
       scale_tb="2"
       scale_tf="2"
       scale_bb="2"
       scale_bf="2"
       top_tgt_variation="0;1"
       bottom_tgt_variation="0;1"
       top_edge_variation="0;1"
       bottom_edge_variation="0;1"
       bender="1140,452.14062 , 5,0"
       do_bend="true"
       growth="0"
       dist_rdm="0;1"
       direction="1140,447.14062 , 43.541915,2.0784278"
       is_visible="true"
       id="path-effect5294-1"
       effect="rough_hatches" />
    <inkscape:path-effect
       effect="rough_hatches"
       id="path-effect4774-3"
       is_visible="true"
       direction="1140,447.14062 , 17.332581,-2.2045055"
       dist_rdm="0;1"
       growth="0"
       do_bend="true"
       bender="1140,452.14062 , 5,0"
       bottom_edge_variation="0;1"
       top_edge_variation="0;1"
       bottom_tgt_variation="0;1"
       top_tgt_variation="0;1"
       scale_bf="2"
       scale_bb="2"
       scale_tf="2"
       scale_tb="2"
       top_smth_variation="0;1"
       bottom_smth_variation="0;1"
       fat_output="false"
       stroke_width_top="1"
       stroke_width_bottom="1"
       front_thickness="1"
       back_thickness="0.25" />
    <inkscape:path-effect
       back_thickness="0.25"
       front_thickness="1"
       stroke_width_bottom="1"
       stroke_width_top="1"
       fat_output="false"
       bottom_smth_variation="0;1"
       top_smth_variation="0;1"
       scale_tb="2"
       scale_tf="2"
       scale_bb="2"
       scale_bf="2"
       top_tgt_variation="0;1"
       bottom_tgt_variation="0;1"
       top_edge_variation="0;1"
       bottom_edge_variation="0;1"
       bender="1140,452.14062 , 5,0"
       do_bend="true"
       growth="0"
       dist_rdm="0;1"
       direction="1140,447.14062 , 9.984229,4.7764286"
       is_visible="true"
       id="path-effect4632-8"
       effect="rough_hatches" />
    <inkscape:path-effect
       effect="rough_hatches"
       id="path-effect4488-7"
       is_visible="true"
       direction="1140,447.14062 , 21.718423,6.2352832"
       dist_rdm="0;1"
       growth="0"
       do_bend="true"
       bender="1140,452.14062 , 5,0"
       bottom_edge_variation="0;1"
       top_edge_variation="0;1"
       bottom_tgt_variation="0;1"
       top_tgt_variation="0;1"
       scale_bf="2"
       scale_bb="2"
       scale_tf="2"
       scale_tb="2"
       top_smth_variation="0;1"
       bottom_smth_variation="0;1"
       fat_output="false"
       stroke_width_top="1"
       stroke_width_bottom="1"
       front_thickness="1"
       back_thickness="0.25" />
    <inkscape:path-effect
       back_thickness="0.25"
       front_thickness="1"
       stroke_width_bottom="1"
       stroke_width_top="1"
       fat_output="false"
       bottom_smth_variation="0;1"
       top_smth_variation="0;1"
       scale_tb="2"
       scale_tf="2"
       scale_bb="2"
       scale_bf="2"
       top_tgt_variation="0;1"
       bottom_tgt_variation="0;1"
       top_edge_variation="0;1"
       bottom_edge_variation="0;1"
       bender="1140,452.14062 , 5,0"
       do_bend="true"
       growth="0"
       dist_rdm="0;1"
       direction="1140,447.14062 , 23.654654,2.8284271"
       is_visible="true"
       id="path-effect4346-4"
       effect="rough_hatches" />
    <inkscape:path-effect
       effect="rough_hatches"
       id="path-effect4205-9"
       is_visible="true"
       direction="1140,447.13286 , 19.404363,0.70710678"
       dist_rdm="0;1"
       growth="0"
       do_bend="true"
       bender="1140,452.13286 , 5,0"
       bottom_edge_variation="0;1"
       top_edge_variation="0;1"
       bottom_tgt_variation="0;1"
       top_tgt_variation="0;1"
       scale_bf="2"
       scale_bb="2"
       scale_tf="2"
       scale_tb="2"
       top_smth_variation="0;1"
       bottom_smth_variation="0;1"
       fat_output="false"
       stroke_width_top="1"
       stroke_width_bottom="1"
       front_thickness="1"
       back_thickness="0.25" />
    <inkscape:path-effect
       back_thickness="0.25"
       front_thickness="1"
       stroke_width_bottom="1"
       stroke_width_top="1"
       fat_output="false"
       bottom_smth_variation="0;1"
       top_smth_variation="0;1"
       scale_tb="2"
       scale_tf="2"
       scale_bb="2"
       scale_bf="2"
       top_tgt_variation="0;1"
       bottom_tgt_variation="0;1"
       top_edge_variation="0;1"
       bottom_edge_variation="0;1"
       bender="1264.3109,537.17933 , 5,0"
       do_bend="true"
       growth="0"
       dist_rdm="0;1"
       direction="1264.3109,532.17933 , 17.047104,0"
       is_visible="true"
       id="path-effect4061-3"
       effect="rough_hatches" />
    <inkscape:path-effect
       back_thickness="0.25"
       front_thickness="1"
       stroke_width_bottom="1"
       stroke_width_top="1"
       fat_output="false"
       bottom_smth_variation="0;1"
       top_smth_variation="0;1"
       scale_tb="2"
       scale_tf="2"
       scale_bb="2"
       scale_bf="2"
       top_tgt_variation="0;1"
       bottom_tgt_variation="0;1"
       top_edge_variation="0;1"
       bottom_edge_variation="0;1"
       bender="1202.7505,488.09373 , 7.1213203,2.1213203"
       do_bend="true"
       growth="0"
       dist_rdm="0;1"
       direction="1202.7505,483.09373 , 6.7728703,-9.8994949"
       is_visible="true"
       id="path-effect4059-1"
       effect="rough_hatches" />
    <inkscape:path-effect
       back_thickness="0.25"
       front_thickness="1"
       stroke_width_bottom="1"
       stroke_width_top="1"
       fat_output="false"
       bottom_smth_variation="0;1"
       top_smth_variation="0;1"
       scale_tb="2"
       scale_tf="2"
       scale_bb="2"
       scale_bf="2"
       top_tgt_variation="0;1"
       bottom_tgt_variation="0;1"
       top_edge_variation="0;1"
       bottom_edge_variation="0;1"
       bender="1239.6286,496.21205 , 5,0"
       do_bend="true"
       growth="0"
       dist_rdm="0;1"
       direction="1239.6286,491.21205 , 21.253271,0"
       is_visible="true"
       id="path-effect4057-3"
       effect="rough_hatches" />
    <inkscape:path-effect
       back_thickness="0.25"
       front_thickness="1"
       stroke_width_bottom="1"
       stroke_width_top="1"
       fat_output="false"
       bottom_smth_variation="0;1"
       top_smth_variation="0;1"
       scale_tb="2"
       scale_tf="2"
       scale_bb="2"
       scale_bf="2"
       top_tgt_variation="0;1"
       bottom_tgt_variation="0;1"
       top_edge_variation="0;1"
       bottom_edge_variation="0;1"
       bender="1252.3257,430.60381 , 5,0"
       do_bend="true"
       growth="0"
       dist_rdm="0;1"
       direction="1252.3257,425.60381 , 11.638934,-3.5355339"
       is_visible="true"
       id="path-effect4055-8"
       effect="rough_hatches" />
    <inkscape:path-effect
       back_thickness="0.25"
       front_thickness="1"
       stroke_width_bottom="1"
       stroke_width_top="1"
       fat_output="false"
       bottom_smth_variation="0;1"
       top_smth_variation="0;1"
       scale_tb="2"
       scale_tf="2"
       scale_bb="2"
       scale_bf="2"
       top_tgt_variation="0;1"
       bottom_tgt_variation="0;1"
       top_edge_variation="0;1"
       bottom_edge_variation="0;1"
       bender="1216.7034,392.79947 , 5,0"
       do_bend="true"
       growth="0"
       dist_rdm="0;1"
       direction="1216.7034,387.79947 , 14.865636,0"
       is_visible="true"
       id="path-effect4053-7"
       effect="rough_hatches" />
    <inkscape:path-effect
       effect="rough_hatches"
       id="path-effect3919-9"
       is_visible="true"
       direction="1140,447.13286 , 27.177083,1.2716957"
       dist_rdm="0;1"
       growth="0"
       do_bend="true"
       bender="1140,452.13286 , 5,0"
       bottom_edge_variation="0;1"
       top_edge_variation="0;1"
       bottom_tgt_variation="0;1"
       top_tgt_variation="0;1"
       scale_bf="2"
       scale_bb="2"
       scale_tf="2"
       scale_tb="2"
       top_smth_variation="0;1"
       bottom_smth_variation="0;1"
       fat_output="false"
       stroke_width_top="1"
       stroke_width_bottom="1"
       front_thickness="1"
       back_thickness="0.25" />
    <inkscape:perspective
       id="perspective27353-3"
       inkscape:persp3d-origin="372.04724 : 350.78739 : 1"
       inkscape:vp_z="744.09448 : 526.18109 : 1"
       inkscape:vp_y="0 : 1000 : 0"
       inkscape:vp_x="0 : 526.18109 : 1"
       sodipodi:type="inkscape:persp3d" />
    <inkscape:perspective
       sodipodi:type="inkscape:persp3d"
       inkscape:vp_x="0 : 526.18109 : 1"
       inkscape:vp_y="0 : 1000 : 0"
       inkscape:vp_z="744.09448 : 526.18109 : 1"
       inkscape:persp3d-origin="372.04724 : 350.78739 : 1"
       id="perspective27353-33" />
    <inkscape:path-effect
       back_thickness="0.25"
       front_thickness="1"
       stroke_width_bottom="1"
       stroke_width_top="1"
       fat_output="false"
       bottom_smth_variation="0;1"
       top_smth_variation="0;1"
       scale_tb="2"
       scale_tf="2"
       scale_bb="2"
       scale_bf="2"
       top_tgt_variation="0;1"
       bottom_tgt_variation="0;1"
       top_edge_variation="0;1"
       bottom_edge_variation="0;1"
       bender="1140,452.13286 , 5,0"
       do_bend="true"
       growth="0"
       dist_rdm="0;1"
       direction="1140,447.13286 , 27.177083,1.2716957"
       is_visible="true"
       id="path-effect3919"
       effect="rough_hatches" />
    <inkscape:path-effect
       effect="rough_hatches"
       id="path-effect4053"
       is_visible="true"
       direction="1216.7034,387.79947 , 14.865636,0"
       dist_rdm="0;1"
       growth="0"
       do_bend="true"
       bender="1216.7034,392.79947 , 5,0"
       bottom_edge_variation="0;1"
       top_edge_variation="0;1"
       bottom_tgt_variation="0;1"
       top_tgt_variation="0;1"
       scale_bf="2"
       scale_bb="2"
       scale_tf="2"
       scale_tb="2"
       top_smth_variation="0;1"
       bottom_smth_variation="0;1"
       fat_output="false"
       stroke_width_top="1"
       stroke_width_bottom="1"
       front_thickness="1"
       back_thickness="0.25" />
    <inkscape:path-effect
       effect="rough_hatches"
       id="path-effect4055"
       is_visible="true"
       direction="1252.3257,425.60381 , 11.638934,-3.5355339"
       dist_rdm="0;1"
       growth="0"
       do_bend="true"
       bender="1252.3257,430.60381 , 5,0"
       bottom_edge_variation="0;1"
       top_edge_variation="0;1"
       bottom_tgt_variation="0;1"
       top_tgt_variation="0;1"
       scale_bf="2"
       scale_bb="2"
       scale_tf="2"
       scale_tb="2"
       top_smth_variation="0;1"
       bottom_smth_variation="0;1"
       fat_output="false"
       stroke_width_top="1"
       stroke_width_bottom="1"
       front_thickness="1"
       back_thickness="0.25" />
    <inkscape:path-effect
       effect="rough_hatches"
       id="path-effect4057"
       is_visible="true"
       direction="1239.6286,491.21205 , 21.253271,0"
       dist_rdm="0;1"
       growth="0"
       do_bend="true"
       bender="1239.6286,496.21205 , 5,0"
       bottom_edge_variation="0;1"
       top_edge_variation="0;1"
       bottom_tgt_variation="0;1"
       top_tgt_variation="0;1"
       scale_bf="2"
       scale_bb="2"
       scale_tf="2"
       scale_tb="2"
       top_smth_variation="0;1"
       bottom_smth_variation="0;1"
       fat_output="false"
       stroke_width_top="1"
       stroke_width_bottom="1"
       front_thickness="1"
       back_thickness="0.25" />
    <inkscape:path-effect
       effect="rough_hatches"
       id="path-effect4059"
       is_visible="true"
       direction="1202.7505,483.09373 , 6.7728703,-9.8994949"
       dist_rdm="0;1"
       growth="0"
       do_bend="true"
       bender="1202.7505,488.09373 , 7.1213203,2.1213203"
       bottom_edge_variation="0;1"
       top_edge_variation="0;1"
       bottom_tgt_variation="0;1"
       top_tgt_variation="0;1"
       scale_bf="2"
       scale_bb="2"
       scale_tf="2"
       scale_tb="2"
       top_smth_variation="0;1"
       bottom_smth_variation="0;1"
       fat_output="false"
       stroke_width_top="1"
       stroke_width_bottom="1"
       front_thickness="1"
       back_thickness="0.25" />
    <inkscape:path-effect
       effect="rough_hatches"
       id="path-effect4061"
       is_visible="true"
       direction="1264.3109,532.17933 , 17.047104,0"
       dist_rdm="0;1"
       growth="0"
       do_bend="true"
       bender="1264.3109,537.17933 , 5,0"
       bottom_edge_variation="0;1"
       top_edge_variation="0;1"
       bottom_tgt_variation="0;1"
       top_tgt_variation="0;1"
       scale_bf="2"
       scale_bb="2"
       scale_tf="2"
       scale_tb="2"
       top_smth_variation="0;1"
       bottom_smth_variation="0;1"
       fat_output="false"
       stroke_width_top="1"
       stroke_width_bottom="1"
       front_thickness="1"
       back_thickness="0.25" />
    <inkscape:path-effect
       back_thickness="0.25"
       front_thickness="1"
       stroke_width_bottom="1"
       stroke_width_top="1"
       fat_output="false"
       bottom_smth_variation="0;1"
       top_smth_variation="0;1"
       scale_tb="2"
       scale_tf="2"
       scale_bb="2"
       scale_bf="2"
       top_tgt_variation="0;1"
       bottom_tgt_variation="0;1"
       top_edge_variation="0;1"
       bottom_edge_variation="0;1"
       bender="1140,452.13286 , 5,0"
       do_bend="true"
       growth="0"
       dist_rdm="0;1"
       direction="1140,447.13286 , 19.404363,0.70710678"
       is_visible="true"
       id="path-effect4205"
       effect="rough_hatches" />
    <inkscape:path-effect
       effect="rough_hatches"
       id="path-effect4346"
       is_visible="true"
       direction="1140,447.14062 , 23.654654,2.8284271"
       dist_rdm="0;1"
       growth="0"
       do_bend="true"
       bender="1140,452.14062 , 5,0"
       bottom_edge_variation="0;1"
       top_edge_variation="0;1"
       bottom_tgt_variation="0;1"
       top_tgt_variation="0;1"
       scale_bf="2"
       scale_bb="2"
       scale_tf="2"
       scale_tb="2"
       top_smth_variation="0;1"
       bottom_smth_variation="0;1"
       fat_output="false"
       stroke_width_top="1"
       stroke_width_bottom="1"
       front_thickness="1"
       back_thickness="0.25" />
    <inkscape:path-effect
       back_thickness="0.25"
       front_thickness="1"
       stroke_width_bottom="1"
       stroke_width_top="1"
       fat_output="false"
       bottom_smth_variation="0;1"
       top_smth_variation="0;1"
       scale_tb="2"
       scale_tf="2"
       scale_bb="2"
       scale_bf="2"
       top_tgt_variation="0;1"
       bottom_tgt_variation="0;1"
       top_edge_variation="0;1"
       bottom_edge_variation="0;1"
       bender="1140,452.14062 , 5,0"
       do_bend="true"
       growth="0"
       dist_rdm="0;1"
       direction="1140,447.14062 , 21.718423,6.2352832"
       is_visible="true"
       id="path-effect4488"
       effect="rough_hatches" />
    <inkscape:path-effect
       effect="rough_hatches"
       id="path-effect4632"
       is_visible="true"
       direction="1140,447.14062 , 9.984229,4.7764286"
       dist_rdm="0;1"
       growth="0"
       do_bend="true"
       bender="1140,452.14062 , 5,0"
       bottom_edge_variation="0;1"
       top_edge_variation="0;1"
       bottom_tgt_variation="0;1"
       top_tgt_variation="0;1"
       scale_bf="2"
       scale_bb="2"
       scale_tf="2"
       scale_tb="2"
       top_smth_variation="0;1"
       bottom_smth_variation="0;1"
       fat_output="false"
       stroke_width_top="1"
       stroke_width_bottom="1"
       front_thickness="1"
       back_thickness="0.25" />
    <inkscape:path-effect
       back_thickness="0.25"
       front_thickness="1"
       stroke_width_bottom="1"
       stroke_width_top="1"
       fat_output="false"
       bottom_smth_variation="0;1"
       top_smth_variation="0;1"
       scale_tb="2"
       scale_tf="2"
       scale_bb="2"
       scale_bf="2"
       top_tgt_variation="0;1"
       bottom_tgt_variation="0;1"
       top_edge_variation="0;1"
       bottom_edge_variation="0;1"
       bender="1140,452.14062 , 5,0"
       do_bend="true"
       growth="0"
       dist_rdm="0;1"
       direction="1140,447.14062 , 17.332581,-2.2045055"
       is_visible="true"
       id="path-effect4774"
       effect="rough_hatches" />
    <inkscape:path-effect
       effect="rough_hatches"
       id="path-effect5294"
       is_visible="true"
       direction="1140,447.14062 , 43.541915,2.0784278"
       dist_rdm="0;1"
       growth="0"
       do_bend="true"
       bender="1140,452.14062 , 5,0"
       bottom_edge_variation="0;1"
       top_edge_variation="0;1"
       bottom_tgt_variation="0;1"
       top_tgt_variation="0;1"
       scale_bf="2"
       scale_bb="2"
       scale_tf="2"
       scale_tb="2"
       top_smth_variation="0;1"
       bottom_smth_variation="0;1"
       fat_output="false"
       stroke_width_top="1"
       stroke_width_bottom="1"
       front_thickness="1"
       back_thickness="0.25" />
    <inkscape:path-effect
       back_thickness="0.25"
       front_thickness="1"
       stroke_width_bottom="1"
       stroke_width_top="1"
       fat_output="false"
       bottom_smth_variation="0;1"
       top_smth_variation="0;1"
       scale_tb="2"
       scale_tf="2"
       scale_bb="2"
       scale_bf="2"
       top_tgt_variation="0;1"
       bottom_tgt_variation="0;1"
       top_edge_variation="0;1"
       bottom_edge_variation="0;1"
       bender="1140,452.14062 , 5,0"
       do_bend="true"
       growth="0"
       dist_rdm="0;1"
       direction="1140,447.14062 , 18.067415,5.1438462"
       is_visible="true"
       id="path-effect5469"
       effect="rough_hatches" />
    <inkscape:path-effect
       effect="rough_hatches"
       id="path-effect5625"
       is_visible="true"
       direction="1140,447.16013 , 20.11912,4.9497475"
       dist_rdm="0;1"
       growth="0"
       do_bend="true"
       bender="1140,452.16013 , 5,0"
       bottom_edge_variation="0;1"
       top_edge_variation="0;1"
       bottom_tgt_variation="0;1"
       top_tgt_variation="0;1"
       scale_bf="2"
       scale_bb="2"
       scale_tf="2"
       scale_tb="2"
       top_smth_variation="0;1"
       bottom_smth_variation="0;1"
       fat_output="false"
       stroke_width_top="1"
       stroke_width_bottom="1"
       front_thickness="1"
       back_thickness="0.25" />
  </defs>
  <metadata
     id="metadata27350">
    <rdf:RDF>
      <cc:Work
         rdf:about="">
        <dc:format>image/svg+xml</dc:format>
        <dc:type
           rdf:resource="http://purl.org/dc/dcmitype/StillImage" />
        <dc:title />
      </cc:Work>
    </rdf:RDF>
  </metadata>
  <g
     transform="translate(0,-52.36218)"
     id="layer1"
     inkscape:groupmode="layer"
     inkscape:label="Layer 1" />
  <eggbot
     totaldeltay="0"
     totaldeltax="0"
     lastpathnc="0"
     lastpath="0"
     id="eggbot8241"
     node="0"
     layer="0"
     serialport="/dev/ttyACM0" />
  <g
     style="display:inline"
     transform="translate(-81.167575,-43.794748)"
     id="layer1-7"
     inkscape:label="Layer 1" />
  <g
     id="g8466"
     transform="translate(-909.04906,8.5674324)">
    <path
       style="fill:none;stroke:#000000;stroke-width:4;stroke-linecap:round;stroke-linejoin:round;stroke-miterlimit:4;stroke-opacity:1;stroke-dasharray:none"
       d="m 1162.4514,838.86932 -1.8961,4.86928 -1.9658,4.86928 -2.0374,4.86927 -2.111,4.86928 -2.1865,4.86928 -2.2643,4.86927 -2.3442,4.86928 -2.4267,4.86928 6.8763,-4.86928 6.7185,-4.86928 6.5661,-4.86927 6.419,-4.86928 6.2769,-4.86928 6.1395,-4.86927 6.0067,-4.86928 5.8783,-4.86928 -1.7547,4.86928 -1.8191,4.86928 -1.8853,4.86927 -1.9532,4.86928 -2.0231,4.86928 -2.0949,4.86927 -2.1689,4.86928 -2.245,4.86928 6.2737,-4.86928 6.1294,-4.86928 5.9898,-4.86927 5.8552,-4.86928 5.7251,-4.86928 5.5994,-4.86927 5.4778,-4.86928 5.3602,-4.86928"
       id="path8468"
       inkscape:connector-curvature="0" />
    <path
       inkscape:connector-curvature="0"
       id="path8470"
       d="m 1242.7255,838.86932 -1.2856,4.86928 -1.3384,4.86928 -1.3926,4.86927 -1.4482,4.86928 -1.5054,4.86928 -1.564,4.86927 -1.6243,4.86928 -1.6865,4.86928 6.1361,-4.86928 5.9986,-4.86928 5.8659,-4.86927 5.7378,-4.86928 5.6141,-4.86928 5.4948,-4.86927 5.3793,-4.86928 5.2677,-4.86928 -1.1441,4.86928 -1.1917,4.86928 -1.2405,4.86927 -1.2905,4.86928 -1.342,4.86928 -1.3947,4.86927 -1.4489,4.86928 -1.5048,4.86928 5.5335,-4.86928 5.4094,-4.86928 5.2896,-4.86927 5.174,-4.86928 5.0624,-4.86928 4.9546,-4.86927 4.8503,-4.86928 4.7497,-4.86928"
       style="fill:none;stroke:#000000;stroke-width:4;stroke-linecap:round;stroke-linejoin:round;stroke-miterlimit:4;stroke-opacity:1;stroke-dasharray:none" />
    <path
       style="fill:none;stroke:#000000;stroke-width:4;stroke-linecap:round;stroke-linejoin:round;stroke-miterlimit:4;stroke-opacity:1;stroke-dasharray:none"
       d="m 1320.567,838.86932 -0.6935,4.86928 -0.73,4.86928 -0.7674,4.86927 -0.8056,4.86928 -0.8448,4.86928 -0.885,4.86927 -0.9263,4.86928 -0.9686,4.86928 5.4183,-4.86928 5.3005,-4.86928 5.1868,-4.86927 5.0773,-4.86928 4.9716,-4.86928 4.8694,-4.86927 4.7709,-4.86928 4.6758,-4.86928 -0.5522,4.86928 -0.5833,4.86928 -0.6152,4.86927 -0.6479,4.86928 -0.6814,4.86928 -0.7157,4.86927 -0.7508,4.86928 -0.787,4.86928 4.8157,-4.86928 4.7113,-4.86928 4.6106,-4.86927 4.5135,-4.86928 4.4198,-4.86928 4.3293,-4.86927 4.242,-4.86928 4.1577,-4.86928"
       id="path8472"
       inkscape:connector-curvature="0" />
    <path
       inkscape:connector-curvature="0"
       style="fill:none;stroke:#000000;stroke-width:4.00000048;stroke-linecap:round;stroke-linejoin:round;stroke-miterlimit:4;stroke-opacity:1;stroke-dashoffset:0"
       d="m 1396.0709,873.65468 -0.9917,1.62273 -1.5877,1.32514 -1.9685,0.89344 -2.129,0.32761 -1.8808,-0.32761 -1.2943,-0.89344 -0.5941,-1.32514 0.2149,-1.62273 1.0132,-1.62274 1.5855,-1.32514 1.945,-0.89343 2.0964,-0.32761 1.8593,0.32761 1.2965,0.89343 0.6176,1.32514 -0.1823,1.62274 0,0"
       id="path8474" />
    <path
       inkscape:connector-curvature="0"
       style="fill:none;stroke:#000000;stroke-width:4.00000048;stroke-linecap:round;stroke-linejoin:round;stroke-miterlimit:4;stroke-opacity:1;stroke-dashoffset:0"
       d="m 1902.2885,873.65468 0.4693,1.62273 -0.3847,1.32514 -1.1522,0.89344 -1.8285,0.32761 -2.1813,-0.32761 -2.1106,-0.89344 -1.7972,-1.32514 -1.246,-1.62273 -0.4342,-1.62274 0.4135,-1.32514 1.1598,-0.89343 1.8093,-0.32761 2.1463,0.32761 2.0817,0.89343 1.7897,1.32514 1.2651,1.62274 0,0"
       id="path8476" />
    <path
       inkscape:connector-curvature="0"
       style="fill:none;stroke:#000000;stroke-width:4;stroke-linecap:round;stroke-linejoin:round;stroke-miterlimit:4;stroke-opacity:1;stroke-dashoffset:0"
       d="m 1911.9809,838.86932 14.437,0 2.2664,0.17182 2.2797,0.49304 2.2369,0.78066 2.1373,1.03465 1.9802,1.25503 1.7642,1.4418 1.4881,1.59496 1.1503,1.71449 2.4251,4.39624 2.4857,4.39625 2.5481,4.39624 2.6123,4.39625 2.6782,4.39624 0.8326,1.7145 0.3347,1.59495 -0.144,1.44181 -0.6033,1.25503 -1.0417,1.03465 -1.458,0.78066 -1.8505,0.49304 -2.2173,0.17182 -15.4057,0 -2.4279,-0.17182 -2.4535,-0.49304 -2.4092,-0.78066 -2.296,-1.03465 -2.1146,-1.25503 -1.8671,-1.44181 -1.5548,-1.59495 -1.1795,-1.7145 -2.3923,-4.39624 -2.3332,-4.39625 -2.276,-4.39624 -2.2203,-4.39625 -2.1661,-4.39624 -0.6096,-1.71449 -0.1341,-1.59496 0.3102,-1.4418 0.724,-1.25503 1.1083,-1.03465 1.4645,-0.78066 1.7936,-0.49304 2.0973,-0.17182 0,0"
       id="path8478" />
    <path
       style="fill:none;stroke:#000000;stroke-width:4;stroke-linecap:round;stroke-linejoin:round;stroke-miterlimit:4;stroke-opacity:1;stroke-dasharray:none"
       d="m 1980.0784,877.82354 -3.2844,-4.86928 -3.1942,-4.86928 -3.107,-4.86927 -3.0224,-4.86928 -2.9404,-4.86928 -2.8609,-4.86927 -2.7838,-4.86928 -2.709,-4.86928"
       id="path8480"
       inkscape:connector-curvature="0" />
    <path
       style="fill:none;stroke:#000000;stroke-width:4;stroke-linecap:round;stroke-linejoin:round;stroke-miterlimit:4;stroke-opacity:1;stroke-dasharray:none"
       d="m 1993.709,851.76974 -2.6535,-2.60569 -2.4232,-2.00032 -2.566,-1.47445 -3.0746,-1.02809 -3.9457,-0.66122 -5.177,-0.37387 -15.4858,-0.20369"
       id="path8482"
       inkscape:connector-curvature="0"
       sodipodi:nodetypes="cc" />
    <path
       inkscape:connector-curvature="0"
       style="fill:none;stroke:#000000;stroke-width:4;stroke-linecap:round;stroke-linejoin:round;stroke-miterlimit:4;stroke-opacity:1;stroke-dashoffset:0"
       d="m 2010.9202,838.86932 16.6283,0 2.6241,0.17182 2.665,0.49304 2.6389,0.78066 2.5449,1.03465 2.3822,1.25503 2.1495,1.4418 1.8451,1.59496 1.4672,1.71449 3.1641,4.39624 3.2433,4.39625 3.3247,4.39624 3.4084,4.39625 3.4944,4.39624 1.1215,1.7145 0.5383,1.59495 -0.027,1.44181 -0.5727,1.25503 -1.0984,1.03465 -1.6025,0.78066 -2.0827,0.49304 -2.5368,0.17182 -17.7442,0 -2.8133,-0.17182 -2.8746,-0.49304 -2.8519,-0.78066 -2.7457,-1.03465 -2.5578,-1.25503 -2.2897,-1.44181 -1.9434,-1.59495 -1.5212,-1.7145 -3.1651,-4.39624 -3.087,-4.39625 -3.0113,-4.39624 -2.9375,-4.39625 -2.8658,-4.39624 -0.8444,-1.71449 -0.2856,-1.59496 0.2398,-1.4418 0.7324,-1.25503 1.1934,-1.03465 1.6244,-0.78066 2.0265,-0.49304 2.402,-0.17182 0,0"
       id="path8484" />
    <path
       style="fill:none;stroke:#000000;stroke-width:4;stroke-linecap:round;stroke-linejoin:round;stroke-miterlimit:4;stroke-opacity:1;stroke-dasharray:none"
       d="m 2039.4541,838.86932 3.3424,4.86928 3.4347,4.86928 3.5299,4.86927 3.6279,4.86928 3.729,4.86928 3.8334,4.86927 3.9411,4.86928 4.0523,4.86928 2.8806,3.85246 1.8098,3.41335 0.8089,2.97768 -0.1148,2.54547 -0.954,2.11669 -1.7024,1.69138 -2.3536,1.2695 -2.9024,0.85108 -3.3445,0.4361 -3.6762,0.0246 -3.8949,-0.3835 -3.999,-0.78813 -3.9877,-1.18931 -3.8615,-1.58705 -3.6214,-1.98132 -3.2696,-2.37216"
       id="path8486"
       inkscape:connector-curvature="0"
       sodipodi:nodetypes="ccc" />
    <path
       style="fill:none;stroke:#000000;stroke-width:4;stroke-linecap:round;stroke-linejoin:round;stroke-miterlimit:4;stroke-opacity:1;stroke-dasharray:none"
       d="m 1799.2222,819.39221 1.3993,4.86928 1.4376,4.86927 1.4771,4.86928 1.5178,4.86928 1.5596,4.86928 1.6027,4.86927 1.647,4.86928 1.6928,4.86928 1.7401,4.86928 1.7887,4.86927 1.8389,4.86928 1.8909,4.86928"
       id="path8488"
       inkscape:connector-curvature="0" />
    <path
       inkscape:connector-curvature="0"
       id="path8490"
       d="m 1851.2163,819.39221 1.7644,4.86928 1.8128,4.86927 1.8626,4.86928 1.9139,4.86928 1.9666,4.86928 2.021,4.86927 2.0769,4.86928 2.1347,4.86928 2.1941,4.86928 2.2555,4.86927 2.3189,4.86928 2.3843,4.86928"
       style="fill:none;stroke:#000000;stroke-width:4;stroke-linecap:round;stroke-linejoin:round;stroke-miterlimit:4;stroke-opacity:1;stroke-dasharray:none" />
    <path
       style="fill:none;stroke:#000000;stroke-width:4;stroke-linecap:round;stroke-linejoin:round;stroke-miterlimit:4;stroke-opacity:1;stroke-dasharray:none"
       d="m 1809.0474,848.60788 53.5452,-10e-6"
       id="path8492"
       inkscape:connector-curvature="0" />
    <path
       inkscape:connector-curvature="0"
       id="path8494"
       d="m 1659.7835,819.39221 0.4199,4.86928 0.4314,4.86927 0.4433,4.86928 0.4555,4.86928 0.468,4.86928 0.4809,4.86927 0.4943,4.86928 0.508,4.86928 0.5221,4.86928 0.5368,4.86927 0.5518,4.86928 0.5674,4.86928"
       style="fill:none;stroke:#000000;stroke-width:4;stroke-linecap:round;stroke-linejoin:round;stroke-miterlimit:4;stroke-opacity:1;stroke-dasharray:none" />
    <path
       style="fill:none;stroke:#000000;stroke-width:4;stroke-linecap:round;stroke-linejoin:round;stroke-miterlimit:4;stroke-opacity:1;stroke-dasharray:none"
       d="m 1612.5163,819.39221 0.088,4.86928 0.09,4.86927 0.093,4.86928 0.095,4.86928 0.098,4.86928 0.1007,4.86927 0.1035,4.86928 0.1063,4.86928 0.1093,4.86928 0.1124,4.86927 0.1156,4.86928 0.1187,4.86928"
       id="path8496"
       inkscape:connector-curvature="0" />
    <path
       inkscape:connector-curvature="0"
       id="path8498"
       d="m 1430.537,819.39221 -1.1902,4.86928 -1.2229,4.86927 -1.2565,4.86928 -1.291,4.86928 -1.3266,4.86928 -1.3633,4.86927 -1.401,4.86928 -1.44,4.86928 -1.4801,4.86928 -1.5215,4.86927 -1.5642,4.86928 -1.6084,4.86928"
       style="fill:none;stroke:#000000;stroke-width:4;stroke-linecap:round;stroke-linejoin:round;stroke-miterlimit:4;stroke-opacity:1;stroke-dasharray:none" />
    <path
       style="fill:none;stroke:#000000;stroke-width:4;stroke-linecap:round;stroke-linejoin:round;stroke-miterlimit:4;stroke-opacity:1;stroke-dasharray:none"
       d="m 1482.5312,819.39221 -0.8251,4.86928 -0.8476,4.86927 -0.871,4.86928 -0.8949,4.86928 -0.9196,4.86928 -0.945,4.86927 -0.9712,4.86928 -0.9982,4.86928 -1.0259,4.86928 -1.0547,4.86927 -1.0843,4.86928 -1.1149,4.86928"
       id="path8500"
       inkscape:connector-curvature="0" />
    <path
       inkscape:connector-curvature="0"
       id="path8502"
       d="m 1423.7177,848.60788 53.5451,-10e-6"
       style="fill:none;stroke:#000000;stroke-width:4;stroke-linecap:round;stroke-linejoin:round;stroke-miterlimit:4;stroke-opacity:1;stroke-dasharray:none" />
    <path
       style="fill:none;stroke:#000000;stroke-width:4;stroke-linecap:round;stroke-linejoin:round;stroke-miterlimit:4;stroke-opacity:1;stroke-dasharray:none;stroke-dashoffset:0"
       d="m 1588.8058,869.33699 -0.2638,1.7145 -0.6948,1.59495 -1.0829,1.44181 -1.4268,1.25503 -1.7251,1.03465 -1.9763,0.78066 -2.1791,0.49304 -2.332,0.17182 -15.4057,0 -2.3132,-0.17182 -2.1249,-0.49304 -1.891,-0.78066 -1.6125,-1.03465 -1.2911,-1.25503 -0.9283,-1.44181 -0.5251,-1.59495 -0.083,-1.7145 0.3706,-4.39624 0.3614,-4.39625 0.3526,-4.39624 0.344,-4.39625 0.3356,-4.39624 0.3493,-1.71449 0.7498,-1.59496 1.1025,-1.4418 1.4084,-1.25503 1.6691,-1.03465 1.8853,-0.78066 2.0585,-0.49304 2.1895,-0.17182 14.437,0 2.1742,0.17182 2.0148,0.49304 1.816,0.78066 1.5767,1.03465 1.2957,1.25503 0.9719,1.4418 0.6042,1.59496 0.1914,1.71449"
       id="path8504"
       inkscape:connector-curvature="0"
       sodipodi:nodetypes="cssssssc" />
    <path
       style="fill:none;stroke:#000000;stroke-width:4;stroke-linecap:round;stroke-linejoin:round;stroke-miterlimit:4;stroke-opacity:1;stroke-dasharray:none"
       d="m 1637.855,838.86932 -5.7754,4.28642 -5.8512,4.28641 -5.93,4.28642 -6.0115,4.28641 5.7959,4.36171 5.8829,4.36171 5.9731,4.36172 6.0669,4.36171 6.164,4.36171"
       id="path8506"
       inkscape:connector-curvature="0"
       sodipodi:nodetypes="ccc" />
    <path
       style="fill:none;stroke:#000000;stroke-width:4;stroke-linecap:round;stroke-linejoin:round;stroke-miterlimit:4;stroke-opacity:1;stroke-dasharray:none"
       d="m 1663.7409,825.21005 33.5158,0 2.72,0.34595 2.4712,0.9777 2.2129,1.51919 1.9427,1.97043 1.6584,2.33143 1.3578,2.60217 0.8635,2.8278 0.8745,2.8278 0.3381,2.87292 -0.046,2.78267 -0.4543,2.60217 -0.8862,2.33143 -1.341,1.97043 -1.8168,1.51919 -2.3109,0.9777 -2.8193,0.34595 -34.8271,0"
       id="path8508"
       inkscape:connector-curvature="0"
       sodipodi:nodetypes="cccc" />
    <path
       style="fill:none;stroke:#000000;stroke-width:4;stroke-linecap:round;stroke-linejoin:round;stroke-miterlimit:4;stroke-opacity:1;stroke-dasharray:none"
       d="m 1780.7125,834.56917 -1.3053,-3.00569 -2.0474,-2.35293 -2.7448,-1.77787 -3.3996,-1.28044 -4.0128,-0.86071 -4.5846,-0.51863 -10.7156,-0.3217 -6.3856,0.30023 -5.2108,0.93918 -4.0918,1.63583 -3.0228,2.39021 -1.9974,3.2023 -1.0086,4.07209 -0.048,4.99961 0.4424,2.99243 0.4511,2.99242 0.7967,2.85006 0.8083,2.85007 1.1494,2.52719 1.1624,2.5272 3.0377,4.37343 3.7782,3.65725 4.5278,2.90584 5.2802,2.11921 6.0286,1.29736 6.7659,0.44028 6.8759,-0.33422 5.7127,-1.01493 4.535,-1.71407 3.3521,-2.43163 2.1738,-3.16761 1.01,-3.92202 -0.1298,-4.69486 -0.6236,-2.74306 -0.6127,-2.74305 -22.9338,0"
       id="path8510"
       inkscape:connector-curvature="0"
       sodipodi:nodetypes="cccccc" />
    <path
       id="path8512"
       style="fill:none;stroke:#000000;stroke-width:4;stroke-linecap:round;stroke-linejoin:round;stroke-miterlimit:4;stroke-opacity:1;stroke-dasharray:none;stroke-dashoffset:0"
       d="m 1499.1245,843.92831 1.8327,-1.3668 2.1896,-1.15716 5.1738,-1.66912 5.782,-0.78177 5.8561,0.13811 5.3978,1.0905 2.3594,0.91257 2.0422,1.16286 1.6554,1.41722 1.1976,1.67564 0.667,1.93814 0.061,2.20469 -0.5129,4.72173 -0.5268,4.72172 -0.541,4.72172 -0.5557,4.72173 -0.5708,4.72172 -0.5864,4.72173 -25.4339,-9e-5 -2.2955,-0.17182 -2.0744,-0.49305 -1.8112,-0.78065 -1.5074,-1.03466 -1.1644,-1.25503 -0.7838,-1.4418 -0.3668,-1.59495 0.085,-1.7145 0.8603,-4.75828 0.5313,-1.71449 0.9297,-1.59496 1.2755,-1.4418 1.5706,-1.25503 1.816,-1.03465 2.0131,-0.78066 2.163,-0.49304 2.2668,-0.17182 22.9007,0"
       inkscape:connector-curvature="0"
       sodipodi:nodetypes="cscssssc" />
    <path
       inkscape:connector-curvature="0"
       style="fill:none;stroke:#000000;stroke-width:4;stroke-linecap:round;stroke-linejoin:round;stroke-miterlimit:4;stroke-opacity:1;stroke-dasharray:none"
       d="m 1750.7836,725.3505 1.3456,2.79065 1.3572,2.79066 1.5813,2.84925 1.595,2.84925 2.0564,3.71398 2.0802,3.71398 2.1046,3.71398 1.4007,2.51559 1.4122,2.51559 3.0627,4.95574 2.0409,3.51904 2.0649,3.51903 2.0897,3.51904 2.9372,4.99242 2.9888,4.99241 2.4283,3.89616 2.4622,3.89616 2.4969,3.89615 2.5326,3.89616 2.6097,3.94536 2.6481,3.94537 2.6878,3.94536 2.7285,3.94536 204.8465,0 -7.3759,-4.78979 -7.2469,-4.7898 -7.1218,-4.7898 -7.0009,-4.7898 -6.8836,-4.78979 -6.7702,-4.7898 -6.6603,-4.7898 -6.5538,-4.78979 -6.4507,-4.7898 -6.3507,-4.7898 -6.2539,-4.78979 -6.1601,-4.7898 -6.1409,-4.80591 -6.0517,-4.80591 -5.9653,-4.80592 -5.8815,-4.80591 -5.8005,-4.80591 -5.7219,-4.80591 -5.6457,-4.80591 -5.572,-4.80591 -5.5005,-4.80591 -5.4314,-4.80591 -5.3643,-4.80591 -5.2994,-4.80591 -5.3971,-4.97956 -5.3321,-4.97956 -5.2692,-4.97956 -5.2084,-4.97956 -5.1498,-4.97956 -5.093,-4.97956 -5.0383,-4.97956 -4.941,-4.96891 -4.8905,-4.96891 -4.8416,-4.96891 -4.7946,-4.96891 -4.7492,-4.9689 -4.7055,-4.96891 -4.6634,-4.96891"
       id="path8514" />
    <path
       inkscape:connector-curvature="0"
       style="fill:none;stroke:#000000;stroke-width:4;stroke-linecap:round;stroke-linejoin:round;stroke-miterlimit:4;stroke-opacity:1;stroke-dasharray:none"
       d="m 1767.2651,541.93468 7.3797,4.90991 7.4092,4.90991 7.4407,4.9099 7.4743,4.90991 7.5102,4.90991 7.5483,4.90991 7.5886,4.90991 7.6311,4.9099 7.676,4.90991 7.7232,4.90991 7.7727,4.90991 7.8247,4.90991 7.879,4.9099 7.9049,4.88377 7.9637,4.88376 8.0251,4.88376 8.0889,4.88376 8.1555,4.88376 8.2247,4.88377 8.2966,4.88376 8.3714,4.88376 8.4489,4.88376 8.5295,4.88376 8.613,4.88377 8.6996,4.88376 8.7892,4.88376 -1.1925,-4.78273 -1.1523,-4.78272 -1.1126,-4.78273 -1.0735,-4.78272 -1.0349,-4.78273 -0.9967,-4.78273 -0.9591,-4.78272 -0.922,-4.78273 -0.8852,-4.78272 -0.8489,-4.78273 -0.813,-4.78273 -0.7775,-4.78272 -0.7424,-4.78273 -0.7075,-4.78272 -0.6731,-4.78273 -0.6389,-4.78273 -0.605,-4.78272 -0.5714,-4.78273 -0.5381,-4.78272 -0.505,-4.78273 -0.4722,-4.78273 -13.4496,-4.5523 -13.3918,-4.55231 -13.3373,-4.5523 -13.286,-4.55231 -13.2382,-4.55231 -13.1935,-4.5523 -13.1522,-4.55231 -13.1033,-4.56321 -13.0683,-4.5632 -13.0363,-4.56321 -13.0077,-4.56321 -12.9821,-4.5632 -12.9596,-4.56321 -12.9405,-4.56321"
       id="path8516" />
    <path
       inkscape:connector-curvature="0"
       style="fill:none;stroke:#000000;stroke-width:4;stroke-linecap:round;stroke-linejoin:round;stroke-miterlimit:4;stroke-opacity:1;stroke-dasharray:none"
       d="m 1756.9808,473.64049 32.9389,4.10827 32.9281,4.10827 32.9236,4.10827 32.6521,4.12445 32.6607,4.12446 32.6757,4.12445 0.027,-4.87599 0.06,-4.87599 0.092,-4.87598 0.1247,-4.87599 0.1572,-4.87599 0.1899,-4.87599 0.2227,-4.87599 0.2554,-4.87599 0.2884,-4.87598 0.3215,-4.87599 0.3547,-4.87599 0.3881,-4.87599 0.4216,-4.87599 0.4555,-4.87598 -50.6082,4.89423 -50.4551,4.89424 -50.8498,4.82357 -50.7264,4.82357 -4.4428,0.71819 -2.195,0.25371 -2.0398,-0.13468"
       id="path8518" />
    <path
       inkscape:connector-curvature="0"
       style="fill:none;stroke:#000000;stroke-width:4;stroke-linecap:round;stroke-linejoin:round;stroke-miterlimit:4;stroke-opacity:1;stroke-dasharray:none"
       d="m 1742.5964,429.2376 15.4107,-4.86042 15.4691,-4.86042 15.5321,-4.86042 15.7014,-4.81678 15.7729,-4.81678 15.8491,-4.81678 15.9336,-4.83209 16.0195,-4.8321 16.1102,-4.83209 16.1145,-4.90638 16.2166,-4.90638 16.3239,-4.90638 6.7125,-2.16596 6.5836,-1.72116 4.5008,-0.40387 4.2902,-0.43335 2.898,-0.79455 2.9796,-1.04048 3.0212,-1.02746 3.0197,-0.75553 0.9864,-4.85442 1.0254,-4.85441 1.0648,-4.85442 1.1048,-4.85442 1.1453,-4.85441 1.1865,-4.85442 1.2282,-4.85442 1.2705,-4.85441 1.3137,-4.85442 1.3574,-4.85442 1.4018,-4.85441 1.447,-4.85442 1.4931,-4.85442 1.5398,-4.85441 1.5876,-4.85442 1.636,-4.85442 1.6855,-4.85441 1.7359,-4.85442 1.7874,-4.85442 1.8398,-4.85441 -10.6655,4.97781 -10.5285,4.97782 -10.3963,4.97782 -10.2688,4.97782 -10.1456,4.97781 -10.0268,4.97782 -9.9123,4.97782 -9.8017,4.97782 -9.6953,4.97782 -9.5926,4.97781 -9.4938,4.97782 -9.3986,4.97782 -9.3071,4.97782 -9.219,4.97781 -8.5431,4.67516 -8.4714,4.67515 -8.4025,4.67516 -8.3361,4.67516 -8.2725,4.67515 -8.2112,4.67516 -8.1526,4.67515 -8.0963,4.67516 -8.0424,4.67515 -7.991,4.67516 -7.9418,4.67515 -7.8949,4.67516 -7.8503,4.67515 -7.8079,4.67516 -7.7676,4.67515 -5.2986,3.27595 -2.4307,0.76446 -1.0692,-0.1228 -0.9369,-0.56871"
       id="path8520" />
    <path
       inkscape:connector-curvature="0"
       style="fill:none;stroke:#000000;stroke-width:4;stroke-linecap:round;stroke-linejoin:round;stroke-miterlimit:4;stroke-opacity:1;stroke-dasharray:none"
       d="m 1715.624,384.56561 4.8598,-4.98903 4.8943,-4.98902 4.9307,-4.98903 4.9685,-4.98902 5.0081,-4.98903 5.0494,-4.98903 5.0925,-4.98902 5.1375,-4.98903 5.1842,-4.98902 5.2328,-4.98903 5.2835,-4.98903 5.336,-4.98902 5.3907,-4.98903 5.4474,-4.98902 5.5062,-4.98903 5.5672,-4.98903 5.6305,-4.98902 5.6962,-4.98903 5.7641,-4.98902 5.8346,-4.98903 5.9076,-4.98903 5.9832,-4.98902 6.0614,-4.98903 6.1424,-4.98902 6.2263,-4.98903 6.313,-4.98903 6.4029,-4.98902 6.4959,-4.98903 6.5921,-4.98902 6.6916,-4.98903 6.7946,-4.98903 6.9013,-4.98902 7.0115,-4.98903 7.1258,-4.98902 7.2438,-4.98903 7.3662,-4.98903 7.4927,-4.98902 7.6237,-4.98903 7.7594,-4.98902 7.8999,-4.98903 8.0453,-4.98903 8.196,-4.98902 8.3521,-4.98903 8.5138,-4.98902 8.6814,-4.98903 8.8551,-4.98903 9.0352,-4.98902 9.2219,-4.98903 9.4157,-4.98902 9.6167,-4.98903 9.8253,-4.98903 10.0418,-4.98902 10.2667,-4.98903 10.5002,-4.98902 3.6999,-4.06653 3.7883,-4.06653 3.8793,-4.06653 -235.2294,0 -4.1441,4.06807 -4.0637,4.06806 -3.986,4.06807 -3.9393,3.97529 -3.8678,3.97529 -3.7984,3.97528 -3.0219,3.00993 -2.9821,3.00994 -2.7308,2.9553 -2.6957,2.9553 -3.5145,4.02168 -3.4542,4.02167 -4.2398,4.93862 -4.1533,4.93861 -2.6365,3.36553 -2.6003,3.36553 -2.5646,3.36553 -2.5883,2.96663 -2.5587,2.96663 -2.3675,3.08869 -2.3392,3.08869 -3.0611,4.19585 -3.0124,4.19584 -2.9649,4.19584 -3.2136,3.9289 -1.4365,2.00805 -0.9949,2.10641 -3.2492,3.94581 -2.8875,4.04442 -2.6945,4.06319 -2.6565,4.06318 -2.7791,4.12932 -2.7408,4.12931 -2.5971,4.33265 -2.5596,4.33265 -3.0252,4.76703 -2.9798,4.76703 -2.9359,4.76703 -2.8934,4.76703 -2.8522,4.76703 -2.8122,4.76703 -2.7735,4.76703 -2.7361,4.76702 -2.6998,4.76703 -2.6646,4.76703 -2.6305,4.76703 -2.5975,4.76703 -2.5656,4.76703 -2.5346,4.76703 -2.4878,4.78418 -2.4588,4.78419 -2.4307,4.78418 -2.4035,4.78418 -2.3772,4.78419 -2.3519,4.78418 -2.3272,4.78419 -2.3035,4.78418 -2.2805,4.78418 -2.2584,4.78419 -2.237,4.78418 -2.2163,4.78419 -2.1964,4.78418 -2.1772,4.78418"
       id="path8522" />
    <path
       inkscape:connector-curvature="0"
       style="fill:none;stroke:#000000;stroke-width:4;stroke-linecap:round;stroke-linejoin:round;stroke-miterlimit:4;stroke-opacity:1;stroke-dasharray:none"
       d="m 1620.0378,384.56561 -9.5571,3.20593 -4.6723,1.29486 -4.3084,0.79167 -15.0076,4.15623 -2.186,-3.01513 -1.9828,-3.22262 -1.9457,-3.26497 -1.9522,-3.26498 3.519,-3.01618 4.0459,-2.48538 8.6668,-4.48535 8.4617,-4.71687 8.504,-4.71688 8.549,-4.71687 8.5964,-4.71687 5.3789,-3.34645 5.4019,-3.34644 5.4259,-3.34645 -5.8386,3.40766 -5.8124,3.40767 -5.7873,3.40766 -8.4754,4.74294 -8.4284,4.74293 -8.2046,4.67334 -8.1642,4.67333 -7.9225,4.90269 -7.8861,4.90269 0.6704,-2.97825 1.2374,-3.40352 1.5362,-3.11977 1.5641,-2.12699 -0.3032,-2.04325 0.4808,-1.62551 1.0801,-1.30309 1.494,-1.07598 3.4846,-1.85188 1.6179,-0.96653 1.2863,-1.12067 -2.8408,-4.94434 -2.858,-4.94433 -2.8762,-4.94433 -2.8953,-4.94434 -2.9154,-4.94433 -2.9366,-4.94433 -2.9587,-4.94434 -2.982,-4.94433 -3.0064,-4.94433 -3.0318,-4.94433 -3.0584,-4.94434 -3.0861,-4.94433 -3.115,-4.94433 -3.1452,-4.94434 -3.1767,-4.94433 -3.2093,-4.94433 -3.2434,-4.94434 -3.2788,-4.94433 -3.3156,-4.94433 -3.3538,-4.94433 -3.3936,-4.94434 -3.4348,-4.94433 -3.4777,-4.94433 -3.5221,-4.94434 -3.5684,-4.94433 -3.6162,-4.94433 -3.6659,-4.94434 -3.7175,-4.94433 -1.9465,-2.51767 -1.9608,-2.51767 -1.6777,-2.54511 -0.8205,-2.13735 0.29,-2.51561 1.2416,-1.999 3.3842,-3.52874 -3.433,-4.39971 -3.4807,-4.39971 -3.53,-4.39971 -3.5808,-4.3997 -3.6335,-4.39971 -3.6879,-4.39971 -3.744,-4.39971 -3.3815,-3.84949 -3.428,-3.84948 -3.2504,-3.96152 -2.8963,-4.15711 -2.754,-4.41291 -2.8035,-4.41292 -2.903,-4.73677 -2.9615,-4.73677 0.5012,-0.83723 0.75,0 4.6195,3.31058 4.5627,3.31057 4.2543,3.54454 4.199,3.54454 3.9454,3.72866 3.8926,3.72866 3.695,3.86295 3.6449,3.86295 3.4852,3.96473 3.4379,3.96472 3.3919,3.96473 3.3472,3.96472 3.3371,3.93431 3.2951,3.93431 3.2543,3.93431 3.2147,3.93431 4.9496,-0.3641 2.2662,-0.16017 2.1264,0.22527 1.1213,0.43078 0.905,0.63591 1.3749,1.66866 1.1532,1.83341 1.3619,1.56093 1.186,-0.26831 1.265,0.0357 2.6238,0.84238 2.5123,1.63579 2.1223,2.14758 1.4615,2.37773 0.5371,2.32626 -0.1592,1.05582 -0.4873,0.93734 -0.848,0.78367 -1.2414,0.59477 3.6707,4.96694 3.6218,4.96694 3.5746,4.96694 3.5294,4.96694 3.4857,4.96694 3.4438,4.96694 3.4036,4.96694 3.3648,4.96694 3.3276,4.96694 3.2919,4.96694 3.2576,4.96694 3.2248,4.96694 3.1932,4.96694 3.1728,4.95787 3.1439,4.95787 3.1162,4.95787 3.0898,4.95787 3.0645,4.95787 3.0403,4.95787 3.0174,4.95787 2.9955,4.95787 2.9747,4.95787 2.955,4.95787 2.9364,4.95787 2.9187,4.95787 2.902,4.95787 2.0762,-0.72672 2.6144,-1.41894 6.0973,-3.52075 3.102,-1.40492 2.8775,-0.70336 1.2926,0.0203 1.1619,0.32636 1.0065,0.67597 0.8263,1.06914 0.376,-0.17009 -0.3442,-0.24351 -0.3251,-0.0545 0.4334,0.39692 5.04,3.2723 2.4215,3.48387 2.1697,3.70637 2.1231,3.74556 2.1167,3.74556 -2.0599,2.03798 -2.3564,1.74521 -4.7284,3.45284 0.7961,1.90167 1.0556,1.82278 -2.7837,2.77932 -2.9846,2.45661 -3.1964,2.18303 -3.4185,1.9586 -7.544,3.44044 -8.5499,3.13236 0,4e-5"
       id="path8524" />
    <path
       inkscape:connector-curvature="0"
       style="fill:none;stroke:#000000;stroke-width:4;stroke-linecap:round;stroke-linejoin:round;stroke-miterlimit:4;stroke-opacity:1;stroke-dasharray:none"
       d="m 1647.8967,338.51806 0.1542,-4.90749 0.1596,-4.90749 0.1652,-4.90749 0.1709,-4.90749 0.1766,-4.90749 0.1825,-4.9075 0.1884,-4.90749 0.1945,-4.90749 0.2006,-4.90749 0.2069,-4.90749 0.2133,-4.90749 0.2198,-4.90749 0.2265,-4.90749 0.2332,-4.90749 0.2402,-4.90749 0.2472,-4.9075 0.2544,-4.90749 0.2617,-4.90749 0.2693,-4.90749 0.277,-4.90749 0.2848,-4.90749 0.2929,-4.90749 0.3012,-4.90749 0.3095,-4.90749 0.3183,-4.90749 0.327,-4.9075 0.3362,-4.90749 0.3455,-4.90749 0.3551,-4.90749 0.3648,-4.90749 0.375,-4.90749 0.3853,-4.90749 0.396,-4.90749 0.4069,-4.90749 0.4182,-4.90749 0.4298,-4.9075 0.4417,-4.90749 0.454,-4.90749 0.4667,-4.90749 0.4797,-4.90749 0.4932,-4.90749 0.5071,-4.90749 0.5215,-4.90749 0.5363,-4.90749 0.5516,-4.90749 0.5675,-4.9075 0.5838,-4.90749 0.6008,-4.90749 -152.1527,0 1.8474,3.07006 1.8228,3.07005 1.8544,3.02974 1.8307,3.02973 1.5599,3.06203 1.5397,3.06204 1.571,3.03775 1.5514,3.03776 2.4208,4.44029 2.3784,4.44029 2.3375,4.44028 2.2979,4.44029 2.248,4.1662 2.2138,4.1662 2.1806,4.16619 2.2298,4.8396 2.1919,4.83959 2.1554,4.83959 2.1203,4.83959 2.0863,4.8396 2.1163,4.7586 2.0846,4.75861 2.0539,4.75861 2.0245,4.75861 1.996,4.75861 2.01,4.91272 1.9821,4.91272 1.9552,4.91273 1.9294,4.91272 1.9045,4.91273 1.8805,4.91272 1.8574,4.91272 1.8353,4.91273 1.814,4.91272 1.7934,4.91273 1.4747,3.81236 1.4624,3.81237 1.4506,3.81237 1.4391,3.81236 0.9763,4.15623 1.2677,3.50325 1.259,3.50324 1.2506,3.50325 1.2358,3.52347 1.228,3.52348 1.2203,3.52347"
       id="path8526" />
    <path
       inkscape:connector-curvature="0"
       style="fill:none;stroke:#000000;stroke-width:4;stroke-linecap:round;stroke-linejoin:round;stroke-miterlimit:4;stroke-opacity:1;stroke-dasharray:none"
       d="m 1577.331,368.4788 -3.7104,-4.73335 -3.7317,-4.73334 -3.754,-4.73334 -3.7776,-4.73335 -3.8022,-4.73334 -3.8281,-4.73335 -3.8552,-4.73334 -3.8836,-4.73335 -3.9132,-4.73334 -3.9441,-4.73335 -3.9763,-4.73334 -4.0099,-4.73335 -4.0448,-4.73334 -4.0812,-4.73335 -4.1156,-4.76237 -4.1551,-4.76238 -4.1962,-4.76237 -4.2389,-4.76238 -4.2833,-4.76237 -4.3293,-4.76237 -4.377,-4.76238 -4.4264,-4.76237 -4.4778,-4.76238 -4.531,-4.76237 -4.586,-4.76237 -4.6431,-4.76238 -4.7022,-4.76237 -4.7634,-4.76238 -4.9622,-4.91038 -5.0318,-4.91037 -5.104,-4.91038 -5.1789,-4.91038 -5.2564,-4.91038 -5.3368,-4.91038 -5.4201,-4.91038 -5.5065,-4.91038 -5.5959,-4.91038 -5.6886,-4.91038 -5.7847,-4.91038 -5.8843,-4.91037 -5.9876,-4.91038 -6.0946,-4.91038 -6.2057,-4.91038 -6.3207,-4.91038 -6.4402,-4.91038 -6.564,-4.91038 -6.6925,-4.91038 -6.8259,-4.91038 -6.9643,-4.91038 -7.1081,-4.91037 -7.2574,-4.91038 -7.4124,-4.91038 -7.5736,-4.91038 -7.7411,-4.91038 -7.9152,-4.91038 -190.7901,0 4.7512,4.99346 4.6148,4.99345 4.4831,4.99346 4.3558,4.99345 4.2328,4.99346 4.1138,4.99346 3.9987,4.99345 3.8872,4.99346 3.7793,4.99345 3.6746,4.99346 3.5732,4.99346 3.4747,4.99345 3.3793,4.99346 3.2866,4.99345 11.7921,4.97322 11.5837,4.97321 11.3828,4.97321 11.1889,4.97321 11.0018,4.97321 10.8214,4.97321 10.6473,4.97321 10.4792,4.97321 10.317,4.97321 10.1605,4.97321 10.0095,4.97322 9.8638,4.97321 9.7231,4.97321 9.5875,4.97321 9.4565,4.97321 9.3302,4.97321 9.2084,4.97321 9.0909,4.97321 8.9776,4.97321 8.8683,4.97321 8.7631,4.97322 8.6617,4.97321 8.564,4.97321 8.1532,4.79968 8.069,4.79969 7.9878,4.79968 7.9096,4.79969 7.8342,4.79968 7.7619,4.79969 7.6922,4.79968 7.6253,4.79969 7.561,4.79968 7.4994,4.79969 7.4402,4.79968 7.3836,4.79969 7.2995,4.81489 7.2476,4.81489 7.1981,4.81489 7.1509,4.8149 7.106,4.81489 7.0633,4.81489 7.0227,4.81489 6.9844,4.81489 6.9481,4.8149 6.9138,4.81489 6.8817,4.81489 6.8516,4.81489"
       id="path8528" />
    <path
       inkscape:connector-curvature="0"
       style="fill:none;stroke:#000000;stroke-width:4;stroke-linecap:round;stroke-linejoin:round;stroke-miterlimit:4;stroke-opacity:1;stroke-dasharray:none"
       d="m 1545.5185,420.65593 -12.8285,-4.98052 -12.8769,-4.98052 -12.9293,-4.98052 -12.9856,-4.98052 -13.046,-4.98052 -13.1106,-4.98051 -13.1792,-4.98052 -13.2521,-4.98052 -13.3292,-4.98052 -13.4107,-4.98052 -13.4966,-4.98052 -13.5871,-4.98052 -13.5327,-4.93911 -13.6305,-4.93912 -13.7329,-4.93912 -13.8402,-4.93911 -13.9522,-4.93912 -14.0692,-4.93911 -14.1913,-4.93912 -14.3185,-4.93912 -14.4511,-4.93911 -14.589,-4.93912 -14.7325,-4.93911 -14.8817,-4.93912 1.448,4.76991 1.4039,4.76991 1.3605,4.76991 1.3179,4.76991 1.2759,4.76991 1.2345,4.76992 1.1938,4.76991 1.1537,4.76991 1.1142,4.76991 1.0752,4.76991 1.0367,4.76991 0.9987,4.76991 0.9612,4.76991 0.9242,4.76991 0.8877,4.76991 0.8514,4.76992 0.8157,4.76991 0.7803,4.76991 0.7453,4.76991 0.7107,4.76991 0.6763,4.76991 30.9794,4.3103 30.8583,4.31029 30.7441,4.3103 30.6372,4.31029 30.5372,4.3103 25.6661,3.68031 25.6032,3.68031 25.5445,3.68031 25.1154,3.74746 25.0646,3.74745 25.018,3.74745"
       id="path8530" />
    <path
       inkscape:connector-curvature="0"
       style="fill:none;stroke:#000000;stroke-width:4;stroke-linecap:round;stroke-linejoin:round;stroke-miterlimit:4;stroke-opacity:1;stroke-dasharray:none"
       d="m 1543.8137,466.43426 -41.2182,2.75182 -41.6137,2.37395 -41.6305,2.44982 -41.2633,2.97944 -10.016,0.53822 -14.2819,0.69443 -14.2706,0.71091 -26.6622,1.79752 -26.5832,1.79059 -14.132,0.69704 -14.4391,0.70831 -6.384,0.46863 -5.2596,0.6377 0.084,4.92106 0.051,4.92107 0.018,4.92106 -0.015,4.92107 -0.048,4.92106 -0.081,4.92106 -0.1144,4.92107 -0.1475,4.92106 -0.1807,4.92107 -0.214,4.92106 -0.2474,4.92106 -0.281,4.92107 -0.3146,4.92106 -0.3484,4.92107 -0.3824,4.92106 -0.4166,4.92106 -0.4508,4.92107 -0.4855,4.92106 -0.5202,4.92107 17.0535,-4.87972 16.9748,-4.87971 16.901,-4.87971 16.832,-4.87972 16.7678,-4.87971 16.7086,-4.87971 16.6539,-4.87972 16.6041,-4.87971 16.5588,-4.87971 16.5622,-4.83145 16.5267,-4.83144 16.4956,-4.83145 16.4692,-4.83145 16.447,-4.83144 16.4295,-4.83145 16.4163,-4.83144 16.4075,-4.83145 16.4033,-4.83145"
       id="path8532" />
    <path
       inkscape:connector-curvature="0"
       style="fill:none;stroke:#000000;stroke-width:4;stroke-linecap:round;stroke-linejoin:round;stroke-miterlimit:4;stroke-opacity:1;stroke-dasharray:none"
       d="m 1536.9357,522.76762 -8.644,4.94421 -8.66,4.94421 -8.6783,4.9442 -8.6992,4.94421 -8.7226,4.94421 -8.7484,4.94421 -8.7769,4.94421 -8.8079,4.9442 -8.8415,4.94421 -8.8777,4.94421 -8.9165,4.94421 -8.9581,4.94421 -9.0023,4.9442 -9.0492,4.94421 -9.099,4.94421 -9.1516,4.94421 -9.2069,4.94421 -8.6441,4.58895 -8.6968,4.58896 -8.752,4.58895 -8.8097,4.58896 -8.8699,4.58895 -8.9326,4.58896 -8.9978,4.58895 -9.0658,4.58896 -9.1364,4.58895 -8.329,4.15691 -8.3913,4.15691 -8.4556,4.15691 -8.522,4.15691 -8.5907,4.15691 -8.574,4.06436 -8.6445,4.06437 -8.7172,4.06436 -8.7921,4.06437 -8.8694,4.06436 -1.4669,4.96833 -1.5149,4.96832 -1.5637,4.96833 -1.6133,4.96833 -1.6641,4.96832 -1.7156,4.96833 -1.7683,4.96832 -1.8219,4.96833 -1.8768,4.96833 -1.9327,4.96832 -1.9898,4.96833 -2.0482,4.96832 -2.108,4.96833 -2.1689,4.96833 -2.2314,4.96832 -2.2953,4.96833"
       id="path8534" />
    <path
       style="fill:none;stroke:#000000;stroke-width:4;stroke-linecap:round;stroke-linejoin:round;stroke-miterlimit:4;stroke-opacity:1;stroke-dasharray:none"
       d="m 1190.0691,769.68953 10.1811,-4.81722 10.0359,-4.81722 9.8953,-4.81722 9.7596,-4.81722 9.6282,-4.81723 9.589,-4.78097 9.4666,-4.78098 9.3482,-4.78098 9.2338,-4.78098 9.1232,-4.78098 7.6941,-3.85743 7.6237,-3.85742 7.7111,-3.65115 7.6479,-3.65115 7.7286,-3.43265 7.6723,-3.43265 7.7464,-3.20191 7.6967,-3.20192 7.8288,-3.0245 7.7838,-3.0245 7.6857,-3.10502 7.4886,-3.34457 6.8056,-3.54998 6.7399,-4.00044 6.6233,-4.26814 6.571,-4.26814 6.4493,-4.28956 6.4006,-4.28955 6.0839,-4.45647 6.0378,-4.45647 5.6722,-4.75807 5.4967,-4.94045 5.4987,-4.85359 5.457,-4.85359 5.5419,-4.80112 5.5036,-4.80112 5.4671,-4.80112 3.9412,-3.75168 3.9217,-3.75168 3.9027,-3.75168 3.8847,-3.75168 3.7481,-3.8392 3.7311,-3.8392 3.7148,-3.8392 3.6993,-3.8392 3.5836,-3.86341 3.5695,-3.8634 3.556,-3.8634 3.5433,-3.8634 3.2551,-3.52212 3.2455,-3.52212 3.2364,-3.52212 3.0199,-3.4149 3.0124,-3.41489 3.0052,-3.4149 2.1938,-2.90576 1.8277,-3.07564 1.4551,-3.41142 1.0755,-3.91309 0.7762,-4.13618 0.7715,-4.13618 0.7669,-4.13618 0.6542,-4.27885 0.6497,-4.27885 0.6454,-4.27885 0.5619,-4.34913 0.5577,-4.34914 0.5537,-4.34914 0.5498,-4.34913 0.5459,-4.34914 0.5423,-4.34914 0.5065,-4.42929 0.5029,-4.4293 0.4995,-4.42929 0.496,-4.42929 0.3219,-4.59672 0.3182,-4.59672 0.078,-4.72446 0.074,-4.72446 -0.1813,-4.06468 -0.1847,-4.06468 -0.12,-4.20408 -0.1236,-4.20408 0.2122,-4.02026 0.5905,-3.74389 1.0863,-3.35217 1.6998,-2.84511 1.5545,-1.62031 1.9661,-1.56771 4.7931,-2.95147 10.4016,-4.98366 10.9868,-4.43268 11.0282,-3.61067 11.9557,-3.14326 11.9052,-3.22564 11.7929,-3.76669 5.5336,-2.11283 4.9543,-2.46284 3.2835,-2.20475 3.2205,-2.53162 3.431,-2.62527 3.4412,-2.62527 3.6598,-2.5079 3.6706,-2.50789 4.0753,-2.09091 2.05,-0.65369 2.0224,-0.28297 2.7609,0.14523 2.5281,0.57364 2.3189,0.90591 2.1339,1.14208 3.8118,2.60812 3.3711,2.39927 4.9448,2.86955 5.3704,2.83335 5.496,2.93552 5.3227,3.17607 4.8517,3.55499 4.0853,4.07227 1.6638,2.27336 1.363,2.45457 1.0264,2.65307 0.6546,2.86888 0.1547,4.8641 0.165,2.4538 0.6803,2.3999 0.6849,0.95126 1.057,0.80443 2.7835,1.27516 2.9326,1.00809 2.1906,0.95451 2.2,1.79542 1.8958,2.25156 1.5792,2.62413 1.2503,2.91313 0.9092,3.11859 0.5556,3.24046 0.1891,3.27878 -0.1909,3.23354 -1.0069,4.01076 -0.5114,2.15148 -0.1537,2.18012 0.2782,1.56809 0.6047,1.37016 1.8789,2.28067 4.271,3.66165 2.0385,2.39301 1.8802,2.71117 1.669,3.0335 1.4055,3.36 1.0898,3.69068 0.7225,4.02555 0.3039,4.36458 -0.1658,4.7078 -0.4459,2.41775 -0.1055,1.35112 0.2392,1.52359 0.7502,1.38274 1.2289,1.23798 2.9895,2.37274 3.9621,3.46613 3.7445,3.85837 1.6538,2.15246 1.4358,2.34192 1.1635,2.56187 0.8374,2.81229 0.3429,2.45343 -0.011,2.48202 -0.8319,4.9191 -1.4921,4.64142 -1.6516,4.10241 -1.6661,3.52835 -1.6598,3.52835 -1.8901,3.13401 -2.0177,2.57699 -2.6934,2.38494 -3.2136,2.17376 -6.9475,4.02286 -5.2765,2.99982 -5.2783,2.99981 -5.4144,2.67779 -5.4175,2.67778 -5.7174,2.33731 -6.0236,2.05753 -6.4082,1.73819 -6.8712,1.37926 -4.878,-3.92472 -4.552,-4.38774 -2.932,-3.06551 -2.8039,-3.22265 -2.3014,-3.61435 -0.8451,-2.02737 -0.5787,-2.21326 -2.8881,-0.1389 -2.6438,-0.52847 -2.4339,-0.862 -2.2587,-1.13947 -4.1305,-2.88719 -3.8477,-3.32455 -4.6735,-4.88822 -1.8859,-2.70392 -1.8829,-2.70391 -1.5293,-2.97423 -1.5265,-2.97423 -1.2684,-3.25505 -1.2657,-3.25505 -0.4695,3.37043 -0.4676,3.37043 -0.4657,3.37043 -0.8983,4.97421 -0.8948,4.9742 -1.2533,4.81445 -1.2512,4.81444 -1.6204,4.64568 -1.9204,4.50705 -2.0085,3.78694 -2.0099,3.78694 -2.5006,3.80803 -2.8457,3.59635 -3.2036,3.21537 -3.5738,2.66511 -3.9552,1.94553 -4.3465,1.05667 -3.0913,0.1856 -2.8773,-0.18171 -5.2577,-1.19349 -4.839,-1.84705 -4.7159,-1.9568 -3.8324,-1.46155 -4.049,-1.76867 -4.3386,-2.48295 -4.6994,-3.60438 -4.8206,-4.2767 -4.8129,-4.27671 -4.503,-4.67851 -2.0657,-2.66784 -2.0647,-2.66783 -4.4506,-4.46056 -4.3688,-4.15653 -1.9133,-2.13411 -1.6044,-2.26192 -1.1998,-2.45769 -0.6998,-2.72139 0.042,-2.76253 0.2575,-3.03825 0.1095,-4.69129 0.1048,-4.69128 0.1001,-4.69129 0.1194,-3.26999 0.1171,-3.26999 0.3167,-3.16346 0.3148,-3.16345 0.7102,-4.82601 0.7057,-4.82601 0.7015,-4.82601 0.6975,-4.82601 0.6936,-4.82601 0.2856,-2.95196 0.2841,-2.95196 0.1433,-3.22077 0.1416,-3.22077 0.1186,-4.66576 0.1148,-4.66575 0.1109,-4.66575 0.168,-4.56598 0.1644,-4.56597 0.4085,-4.05097 0.4063,-4.05096 0.8199,-3.57141 1.2189,-3.20193 1.7114,-2.79515 2.2971,-2.35104 4.119,-2.58041 4.5585,-2.41305 6.7337,-3.43388 7.1082,-2.94566 7.7195,-2.64091 7.7349,-2.64091 15.603,-4.75926 16.48,-4.65954 4.9347,-1.41759 4.3822,-0.74324 1.8988,0.18103 1.6581,0.70932 1.3833,1.35752 1.0746,2.12563 0.5888,2.40113 0.1955,2.57939 -0.2026,2.73535 -0.2008,2.73534 -0.4137,2.75756 -0.4115,2.75756 -0.2454,2.55692 -0.2438,2.55691 1.5461,0.69084 1.7857,0.33455 1.8048,0.24046 1.603,0.4086 2.4419,1.25212 2.3756,1.74746 1.8291,2.0492 0.5598,1.07726 0.2437,1.08009 -0.2439,2.0309 -0.8954,1.73617 -1.3892,1.50211 -1.7256,1.32871 -3.8317,2.37995 -3.2911,2.41441 -1.2894,1.53625 -1.0654,1.88931 -0.6784,2.18737 -0.1288,2.43042 0.3292,1.72217 0.6648,1.75349 2.0045,3.48539 2.1971,3.03788 2.1962,3.03788 2.0459,3.10823 2.0458,3.10822 2.3058,2.62307 2.9858,2.25373 -2.0951,-3.97682 -2.0941,-3.97682 -2.0934,-3.97683 -1.8196,-3.11252 -1.8198,-3.11253 -1.4953,-3.52317 -0.3513,-1.78575 0.033,-1.77194 0.4396,-1.36113 0.8789,-1.34909 2.7943,-2.48288 3.705,-1.89717 4.0467,-0.95308 2.4734,-0.0257 2.4082,0.34924 2.3325,0.69066 2.2463,0.99855 4.1938,2.7866 3.7291,3.61576 3.1867,4.17666 2.5673,4.46928 1.8706,4.49367 1.0957,4.24978 0.071,2.54302 -0.6419,2.09973 -1.2241,1.71772 -1.6763,1.39694 -1.9982,1.13741 -2.1898,0.93913 -4.4331,1.52841 -3.8802,1.23119 -4.0154,0.935 -4.1,0.33779 -4.1348,-0.56042 -3.5246,-1.18643 -3.7508,-1.69175 -3.645,-2.05419 -3.2064,-2.27375 -4.3667,-4.33365 -4.0609,-4.93764 -4.2774,-4.88431 -2.3836,-2.21675 -2.6343,-1.95693 -4.1377,-2.17625 -1.884,-1.03055 -1.5093,-1.21854 -1.8292,-2.74488 -1.038,-3.21577 -0.3729,-3.54979 0.1662,-3.74693 0.579,-3.8072 0.8651,-3.73057 1.0372,-3.34191 1.0402,-3.3419 -1.7308,0.46462 -1.4437,0.74868 -1.1846,1.00467 -0.9537,1.2326 -1.3284,3.03674 -0.7458,3.61167 -0.3273,4.02502 -0.3259,4.02502 -0.3603,3.98932 -0.6836,3.66616 -3.4424,-1.12449 -2.8801,-1.68468 -2.4777,-2.08658 -2.2349,-2.33022 -4.3794,-4.75821 -2.4635,-2.11144 -2.8585,-1.72197 -0.041,1.53605 0.748,1.29407 2.1176,2.16333 3.3583,4.72435 3.5921,4.73432 3.4006,4.71438 -1.4027,1.4824 -1.9072,1.15817 -4.5093,1.78477 -4.4927,2.00763 -2.2243,0.87846 -2.2027,0.43291 -1.7265,-0.07 -1.5887,-0.34718 -2.9302,-1.16866 -2.8771,-1.20551 -1.5217,-0.39323 -1.6321,-0.13445 0.1279,1.9325 0.5401,1.56581 0.9096,1.23439 1.2365,0.93823 1.5206,0.67736 1.7623,0.45174 4.0793,0.36772 9.1834,-0.42009 4.4204,-0.22349 3.8488,0.14373 2.0097,0.42707 2.1533,0.77419 1.7371,1.00331 0.7615,1.11444 -0.1548,0.70988 -0.5132,0.63602 -1.7123,1.03175 -3.4423,0.97125 -3.1158,-0.1048 -2.9371,-0.52711 -2.7681,-0.42046 -2.6077,0.21515 0.4255,1.37429 0.7372,1.11348 1.0142,0.88168 1.2563,0.6789 3.1004,0.86547 3.6528,0.40243 7.8519,0.34403 3.6424,0.40574 3.0817,0.87099 -0.1832,1.92238 -0.6249,1.62789 -2.0045,2.75344 -2.062,2.71876 -0.6968,1.58454 -0.2842,1.86168 0.2232,1.65678 0.6315,1.45591 1.9402,2.5374 1.9317,2.41838 0.6211,1.30716 0.209,1.44851 -0.1802,1.27109 -0.4404,0.96824 -0.6694,0.69446 -0.8674,0.44972 -2.2039,0.2815 -2.6216,-0.3487 -5.499,-1.65808 -4.1765,-1.38912 1.8484,3.47887 2.3868,2.72122 2.9081,2.25993 3.4121,2.09501 7.4046,3.66268 1.7636,1.13367 1.4393,1.27451 0.9701,1.44217 0.3564,1.63665 -0.4948,1.8803 -1.2984,1.54665 -1.8181,1.31466 -2.0536,1.1843 -2.005,1.15557 -1.6721,1.22849 -1.0549,1.40305 -0.1533,1.67924 0.3804,0.80935 0.6754,0.4976 1.965,0.35979 2.3332,0.0123 2.1602,0.2645 -0.7029,1.93159 -1.0014,1.73515 -2.6948,3.0009 -3.2768,2.57495 -3.4501,2.38887 -7.2231,4.45524 -3.8477,1.96261 -1.6852,1.28426 -1.1606,1.74659 1.4342,0.85674 1.6312,0.54884 3.6556,0.36004 3.8517,-0.31347 3.6542,-0.61492 3.4691,-0.88917 3.3444,-1.07366 3.2067,-0.85472 3.0568,-0.23235 -0.2416,2.1173 -0.9923,1.91209 -2.9158,3.44584 -2.8087,3.45309 -1.5145,1.59412 -1.5227,1.05258 -1.8134,0.32481 -1.8252,0.24331 -1.5149,0.71326 -1.2763,0.87152 -1.2042,0.8416 -1.2984,0.62352 -4.063,0.94679 -4.1878,0.38702 -4.0439,-0.0706 -3.6318,-0.42601 m -1.1962,18.86749 -2.7231,-2.28728 -2.4401,-2.56933 -2.2989,-2.69971 -2.2961,-2.6997 -3.2996,-3.49375 -3.2951,-3.49374 -3.2912,-3.49375 -3.355,-3.35357 -3.3519,-3.35356 -3.3493,-3.35357 -2.4717,-2.62208 -2.4707,-2.62209 -2.7183,-2.37684 -3.1218,-1.82768 -3.01,2.74553 -2.8231,2.95615 -2.6362,3.18899 -2.6419,3.18899 -2.5498,3.361 -2.5564,3.361 -2.6545,3.36686 -2.662,3.36687 -3.448,4.4353 -3.4624,4.43531 -3.4775,4.43531 -2.9266,3.3307 -2.9367,3.33071 -2.8113,3.31657 -2.1622,3.35784 -1.2961,3.26793 -0.8223,3.512 -0.4264,3.67763 -0.108,3.76485 0.2171,3.73879 0.2122,3.7388 0.3889,3.44265 0.3854,3.44264 0.5433,4.78807 0.5369,4.78807 0.5307,4.78807 0.1756,3.70333 0.1711,3.70333 -0.1731,3.81087 -0.1795,3.81088 -0.5969,3.52952 -0.9811,3.21946 -1.3026,2.96173 -1.5612,2.75636 -1.8185,2.55296 -1.8272,2.55296 -3.9223,4.91251 -3.9059,4.78415 -3.9425,4.78415 -3.9806,4.78415 -4.0201,4.78415 -3.0798,3.79369 -3.1054,3.7937 -3.1319,3.79369 -3.159,3.7937 -3.9724,4.94004 -4.0199,4.94005 -4.069,4.94004 -3.4204,4.31794 -3.459,4.31794 -3.4989,4.31794 -3.5399,4.31794 -3.5822,4.31793 -3.6257,4.31794 -3.6706,4.31794 -2.9245,3.40312 -2.9539,3.40313 -2.9839,3.40312 -2.1258,2.7404 -2.1443,2.7404 -1.8494,2.97905 -1.8687,2.97905 6.6459,-4.19339 6.2256,-4.66721 3.9214,-3.33563 3.8851,-3.33563 3.8499,-3.33563 4.2129,-3.79983 4.1704,-3.79982 4.1291,-3.79983 4.0889,-3.79983 3.9817,-3.83747 3.9437,-3.83747 3.9068,-3.83747 3.8709,-3.83747 3.7847,-3.90407 3.7505,-3.90408 3.7172,-3.90407 3.6849,-3.90407 3.6174,-3.99964 3.5863,-3.99964 3.5562,-3.99964 3.5269,-3.99963 3.5404,-4.30198 3.5102,-4.30197 3.4809,-4.30197 3.4527,-4.30197 3.4253,-4.30197 3.4486,-4.46498 3.4217,-4.46499 3.3958,-4.46498 3.371,-4.46498 3.347,-4.46498 3.1602,-4.01453 3.1417,-4.01452 3.1236,-4.01452 3.1064,-4.01452 3.1737,-4.02883 3.1574,-4.02883 3.1418,-4.02883 3.1268,-4.02882 2.2456,-2.82913 2.2387,-2.82913 1.9501,-2.76428 1.426,-2.70062 1.1773,-3.77821 0.6144,-1.79959 0.8783,-1.62832 2.1959,-2.06917 2.8165,-1.93178 2.5242,-2.08417 0.8675,-1.18979 0.4528,-1.33656 -0.1468,-1.92492 -0.5676,-1.85877 -0.3378,-1.70118 0.1203,-0.76292 0.4212,-0.68923 3.6691,1.84274 3.051,2.45104 1.2427,1.50368 1.027,1.71581 0.7906,1.94797 0.5335,2.20012 -1.9939,0.52133 -2.4087,0.1111 -2.392,0.14622 -1.9451,0.6267 -0.7422,0.70533 -0.6021,1.01049 -0.9117,2.65566 -0.7727,2.94227 -0.7755,2.94227 -2.2401,4.84408 -1.4637,2.38092 -1.5382,1.92468 -3.1402,2.53315 -2.9348,2.46031 -2.3387,3.21027 -2.0796,3.60501 -2.1004,3.81344 -2.1113,3.81343 -2.4542,3.39831 -2.4656,3.39831 -2.4973,3.38921 -2.5096,3.3892 -2.2846,3.44429 -2.2969,3.44429 -2.7019,3.36968 -3.1484,3.07755 -3.321,3.04174 -2.9286,3.20094 -2.5281,3.33881 -2.119,3.45532 -1.9979,4.54245 -1.3513,4.56692 -1.1507,4.58708 -1.4018,4.60292 -1.3372,3.15211 -1.3473,3.1521 -1.6074,3.00094 -1.6186,3.00095 -2.457,3.80316 -2.4784,3.80316 -2.5002,3.80316 -2.5316,3.71278 -2.5542,3.71277 -2.5772,3.71277 -1.7456,2.83145 -1.7584,2.83146 -1.5248,2.91482 -1.5372,2.91483 4.0831,-4.65569 4.0372,-4.65568 3.993,-4.65569 3.9501,-4.65568 3.9089,-4.65568 3.8691,-4.65569 3.8307,-4.65568 3.7483,-4.69904 3.7126,-4.69904 3.6782,-4.69903 3.6451,-4.69904 3.6132,-4.69904 3.5825,-4.69903 3.5531,-4.69904 3.0513,-4.1402 3.0305,-4.14021 3.0103,-4.1402 2.991,-4.1402 3.0124,-4.11246 2.9944,-4.11245 2.9772,-4.11246 2.9606,-4.11245 3.0618,-4.04493 3.0464,-4.04494 3.0317,-4.04493 3.0176,-4.04493 2.867,-4.12691 2.8545,-4.12691 2.5865,-4.28854 2.5756,-4.28854 -0.7435,-2.52441 -0.1363,-1.40346 0.3338,-1.36459 1.6865,-0.54107 1.7225,-0.0321 3.5491,0.85442 3.6776,1.06511 1.8815,0.2313 1.9061,-0.17234 2.08,-0.82069 0.993,-1.19492 0.1174,-1.45809 -0.5466,-1.61018 -2.2411,-3.23236 -2.371,-2.5079 -3.4936,-3.19913 -1.4812,-1.59241 -1.2018,-1.87637 1.9915,1.09579 1.8409,1.37155 3.7732,3.09424 3.9677,3.0956 2.2339,1.44239 1.9809,0.72457 1.6424,-0.0693 1.666,-0.39499 1.6309,-0.43943 1.5381,-0.20261 2.5011,0.30407 2.272,0.76754 4.2028,2.26052 4.3208,2.1194 2.4176,0.59115 2.7013,0.0571 0.6232,-2.91769 0.3223,-3.34883 0.03,-3.38515 0.031,-3.38514 -0.2037,-1.72428 -0.4483,-1.43568 -1.2735,-2.29159 -1.1824,-1.99527 -0.3346,-1.06528 -0.045,-1.2057 1.9595,0.34201 1.518,0.74179 1.1404,1.0833 0.8267,1.36653 0.9667,3.34964 0.4749,3.78324 0.4924,3.75062 1.0204,3.25177 0.868,1.29313 1.1916,0.99358 1.5788,0.63577 2.0293,0.21967 2.0648,-0.39043 2.079,-0.87495 2.2557,-0.93746 2.5955,-0.57795 8.9192,-0.36259 3.9274,-0.26861 3.494,-0.74424 1.7903,-1.00349 1.8285,-1.59639 3.55,-3.49991 5.0999,-4.40531 5.0913,-4.40532 4.8916,-4.37827 4.4098,-4.30315 1.8267,1.59762 2.271,0.86039 2.5974,0.27371 2.8064,-0.16247 5.7731,-1.03135 5.2134,-0.96978 3.3148,4.70885 3.3342,4.70885 3.3396,4.7249 3.361,4.72489 -5.0456,3.26933 -5.0525,3.26933 -5.4204,2.97898 -5.6616,2.75217 -5.8972,2.50046 -6.127,2.2238 -6.3501,1.92223 -6.5663,1.59574 -2.2084,0.9459 -2.4923,0.65442 -5.4993,0.8143 -5.6252,0.78808 -2.651,0.62164 -2.4327,0.90001 -3.7959,2.12644 -3.7615,2.55817 -3.8431,2.64531 -4.0395,2.38788 -8.8063,3.88712 -5.007,1.44821 -4.989,1.60169 -2.4501,1.29062 -2.1168,1.49818 -3.5177,3.51722 -3.0375,4.04202 -3.1291,4.36321 -3.3215,4.39971 -3.3385,4.39971 -3.3562,4.39971 -3.375,4.39971 -3.3945,4.39971 -3.4151,4.39971 -3.4366,4.39971 -3.4093,4.44738 -3.4326,4.44739 -3.4571,4.44738 -3.4826,4.44738 -3.5091,4.44738 -3.5367,4.44739 -3.5654,4.44738 -3.0699,3.9939 -3.0937,3.99389 -3.1183,3.9939 -3.1438,3.99389 -3.0864,4.07044 -3.1135,4.07043 -3.1416,4.07044 -3.1705,4.07043 -3.0905,4.15316 -3.1212,4.15316 -3.1528,4.15316 -3.1856,4.15316 -3.0824,4.24208 -3.1169,4.24207 -3.1524,4.24207 -3.1891,4.24207 -3.0623,4.33717 -3.1007,4.33717 -3.1404,4.33717 -3.1813,4.33716 -3.0301,4.43846 -3.0728,4.43845 -3.1168,4.43845 -3.1624,4.43845"
       id="path8536"
       inkscape:connector-curvature="0"
       sodipodi:nodetypes="ccccccccscsccccccccscccccccccccccccccccccccccccccssscccccccccccccccccccccccccccccccccccsccsccccccccccccccccccccccccsccccccccccccccccccccccccccccccccsccccccccccc" />
    <path
       inkscape:connector-curvature="0"
       style="fill:none;stroke:#000000;stroke-width:4;stroke-linecap:round;stroke-linejoin:round;stroke-miterlimit:4;stroke-opacity:1;stroke-dasharray:none"
       d="m 1491.1015,809.66708 146.2759,0 0.01,-4.91538 0.011,-4.91538 0.014,-4.91538 0.018,-4.91538 0.021,-4.91539 0.024,-4.91538 0.027,-4.91538 0.03,-4.91538 0.034,-4.91538 0.037,-4.91538 0.04,-4.91538 0.043,-4.91538 0.046,-4.91538 0.049,-4.91538 0.052,-4.91539 0.055,-4.91538 0.058,-4.91538 0.061,-4.91538 0.064,-4.91538 0.067,-4.91538 0.07,-4.91538 0.073,-4.91538 0.076,-4.91538 0.079,-4.91538 0.082,-4.91539 0.085,-4.91538 0.088,-4.91538 0.091,-4.91538 0.094,-4.91538 0.097,-4.91538 0.1,-4.91538 0.1027,-4.91538 0.1057,-4.91538 0.1087,-4.91538 0.1118,-4.91539 0.1148,-4.91538"
       id="path8538" />
    <path
       inkscape:connector-curvature="0"
       style="fill:none;stroke:#000000;stroke-width:4;stroke-linecap:round;stroke-linejoin:round;stroke-miterlimit:4;stroke-opacity:1;stroke-dasharray:none"
       d="m 1699.2495,610.82587 1.9358,4.89373 1.9537,4.89372 1.9724,4.89373 1.9916,4.89372 2.0117,4.89373 2.0322,4.89373 2.0536,4.89372 2.0757,4.89373 2.0985,4.89372 2.1221,4.89373 2.1464,4.89373 2.1715,4.89372 2.1975,4.89373 2.2243,4.89372 2.2519,4.89373 2.2805,4.89373 2.3098,4.89372 2.3403,4.89373 2.3716,4.89372 2.4039,4.89373 2.4372,4.89373"
       id="path8540" />
    <path
       inkscape:connector-curvature="0"
       style="fill:none;stroke:#000000;stroke-width:4;stroke-linecap:round;stroke-linejoin:round;stroke-miterlimit:4;stroke-opacity:1;stroke-dasharray:none"
       d="m 1643.9144,809.65763 3.4348,-4.15218 3.3998,-4.15218 3.3661,-4.15217 3.624,-3.92352 3.5914,-3.92351 3.5599,-3.92351 3.8493,-3.77073 3.818,-3.77072 3.7878,-3.77073 4.1058,-3.69381 4.0751,-3.69382 4.0456,-3.69381 4.3895,-3.69278 4.3589,-3.69278 4.3295,-3.69278 4.6967,-3.76763 4.6658,-3.76762 4.6361,-3.76762 6.2914,-4.83798 6.243,-4.83797 6.1969,-4.83797 6.1533,-4.83798 6.1118,-4.83797 4.0128,-4.51504 3.9932,-4.51504 3.9749,-4.51504 3.9578,-4.51504 1.6081,-2.90368 1.606,-2.90367 1.3044,-3.1223 1.3044,-3.12231 1.0106,-3.34941 1.013,-3.34942 0.7275,-3.58502 0.7323,-3.58501 0.4556,-3.8291 0.4629,-3.82911 0.1953,-4.08167 0.2053,-4.08167 -0.053,-4.34273 -0.04,-4.34273 -0.2889,-4.61227 -0.2732,-4.61227 -2.0911,-0.38315 -0.9474,-0.29552 -0.5372,-0.72667 0.2408,-1.06362 0.8238,-0.54848 0.8726,-0.5049 0.3882,-0.9329 -0.6477,-0.45894 -0.8368,-0.26355 -0.7186,-0.3882 -0.2925,-0.83287 0.079,-0.82549 0.5626,-0.39486 0.6262,-0.33785 0.27,-0.65446 -1.6316,-0.37895 -0.7276,-0.93729 -0.063,-1.25095 0.361,-1.31994 -1.5594,-0.0202 -0.7268,-0.81499 -0.07,-1.15988 0.4103,-1.05483 -1.2333,0.24755 -0.5856,0.0761 -0.4909,-0.32369 1.9925,-0.56353 1.7545,-0.90342 3.1029,-2.15106 -2.1304,-3.25921 -4.7363,2.72099 -2.0713,0.70979 -1.8484,0.28628 -1.6652,-0.10162 -1.5218,-0.45393 -2.7724,-1.82234 -2.6762,-2.80431 -2.9253,-3.68399 -2.9082,-3.68399 -2.8916,-3.68399 -2.7003,-3.8113 -2.6844,-3.81131 -2.6691,-3.81131 -2.6033,-3.83117 -2.5889,-3.83118 -2.575,-3.83117 -2.6357,-3.7436 -2.623,-3.7436 -2.6109,-3.7436 7.1077,-2.85152 6.6956,-3.24029 6.4497,-3.4725 6.4459,-3.4725 0.5415,0 2.7981,4.79696 2.8177,4.79697 2.8382,4.79696 2.8594,4.79696 2.8816,4.79697 2.9044,4.79696 2.9283,4.79697 1.8619,2.81211 1.8709,2.81211 1.7503,2.7669 1.4299,2.70212 1.3507,3.17432 0.7932,2.92547 -0.3756,2.06335 -1.1673,2.07475 -1.739,2.00158 -2.0896,1.84387 2.0725,3.31901 2.2972,-1.8346 1.196,-0.7144 1.3034,-0.4411 0.5599,0.68058 -0.1392,0.74509 -0.2185,0.79472 0.3227,0.82951 0.9341,0.46881 1.0174,0.0349 0.9239,0.13436 0.6552,0.76731 0.3173,0.9388 -0.2957,0.70178 -0.3677,0.77853 0.1029,1.16901 0.5893,0.59134 0.8198,0.35045 0.7355,0.4402 0.3369,0.86057 -0.2133,0.82772 -0.6629,0.42531 -0.6698,0.41924 -0.2333,0.8095 0.4647,0.80242 0.6254,0.63316 0.5139,0.7526 0.1306,1.16073 -0.8337,0.68812 -0.7436,0.31503 -0.5445,0.36663 -0.2359,0.8429 0.367,1.04892 0.8586,0.76717 0.8444,0.83091 0.3249,1.24012 -0.3186,0.60591 -0.8468,0.14293 -0.8817,0.11238 -0.4235,0.51421 0.3416,4.50454 0.3576,4.50454 0.085,4.27824 0.098,4.27823 -0.1739,4.05179 -0.1632,4.05178 -0.435,3.82519 -0.427,3.82519 -0.698,3.59845 -0.6925,3.59845 -0.9626,3.37156 -0.9594,3.37156 -1.228,3.14452 -1.2271,3.14453 -1.4936,2.91735 -1.4949,2.91734 -2.2342,3.31251 -2.2393,3.31251 -2.6222,3.03311 -2.6298,3.0331 -2.9258,2.80928 -2.9353,2.80928 -3.1426,2.64102 -3.1535,2.64102 -5.2169,4.04758 -5.2474,4.04758 -5.2792,4.04758 -5.3125,4.04758 -5.3472,4.04757 -4.2998,3.44527 -4.325,3.44527 -4.351,3.44527 -4.175,3.52455 -4.2018,3.52454 -4.2296,3.52454 -3.9935,3.62712 -4.0217,3.62713 -4.051,3.62712 -3.7533,3.75302 -3.7827,3.75301 -3.813,3.75302 -3.4518,3.90221 -3.4816,3.90222 -3.5125,3.90222 -2.403,3.02151 -2.4201,3.02151 -2.2527,3.09058 -2.2695,3.09058 -10.6177,0.17242"
       id="path8542" />
    <g
       style="display:inline"
       transform="translate(1539.7302,-36.147122)"
       id="g8544"
       inkscape:label="Layer 1" />
    <path
       id="path8546"
       d="m 1662.7078,381.50843 -2.5605,0.46925 -2.4517,1.16161 -2.11,1.46677 -1.538,1.38472 4.5591,0.35232 3.7702,1.22072 3.0403,1.92313 2.372,2.45955 1.3021,2.32418 0.7036,3.08842 0.4302,3.24119 0.3565,3.23262 0.3585,3.23262 0.6195,2.98634 1.0155,2.66366 1.5769,2.22214 2.3037,1.66175 1.1775,-1.37122 0.6638,-1.62129 0.3634,-3.74072 0.04,-3.98488 0.26,-1.92649 0.6136,-1.79852 1.3428,-1.68152 1.9188,-1.23236 4.497,-1.90051 2.0959,-0.97319 2.2088,-1.31969 1.7227,-1.66737 0.4914,-0.96442 0.1444,-1.05179 -0.4054,-1.12569 -1.0037,-1.10165 -3.1961,-1.98961 -3.7662,-1.46863 -3.1141,-0.66441 -6.6402,-0.21794 -3.0275,-0.20252 -2.8524,-0.53412 -3.4133,-1.41464 -1.5786,-0.68716 -1.6143,-0.40914 -0.676,-0.0415 0,-1e-5"
       style="fill:none;stroke:#000000;stroke-width:4;stroke-linecap:round;stroke-linejoin:round;stroke-miterlimit:4;stroke-opacity:1;stroke-dasharray:none"
       inkscape:connector-curvature="0" />
    <path
       id="path8548"
       d="m 1713.2545,431.61119 -0.959,0.10376 -0.4002,0.18676 -2.5559,1.41691 -2.4325,1.70661 -4.8344,3.99428 -2.1768,1.7587 -2.5449,2.29535 -2.0115,2.67551 -0.5248,1.43141 -0.055,1.46778 0.6178,1.45956 1.2238,1.30691 1.5307,0.93531 1.5387,0.34479 1.6342,-0.6279 1.6789,-1.43733 1.7754,-1.65499 1.9218,-1.28092 2.1394,-0.63676 2.2573,-0.29081 2.1795,-0.21093 1.9064,-0.39712 1.5946,-0.9999 1.6233,-1.72071 1.2595,-1.99979 0.5009,-1.83712 -0.7796,-2.01887 -1.4015,-2.21445 -2.0452,-2.57308 -1.2133,-0.84332 -1.4479,-0.33964 0,0"
       style="fill:none;stroke:#000000;stroke-width:4;stroke-linecap:round;stroke-linejoin:round;stroke-miterlimit:4;stroke-opacity:1;stroke-dasharray:none"
       inkscape:connector-curvature="0" />
    <path
       id="path8550"
       d="m 1719.8354,479.90576 -2.7704,0.26626 -2.5712,0.57772 -4.6337,1.85373 -2.3054,1.39259 -2.3337,1.73474 -4.7732,3.80372 -4.8821,3.37213 -4.877,3.37214 -7.561,4.554 -7.7159,4.88798 -2.5165,2.07033 -1.0436,1.15922 -0.4466,1.00379 0.5812,1.66485 1.4576,1.85648 1.7311,1.49136 1.4001,0.56949 0.7435,-0.25639 0.5856,-0.57344 0.9153,-1.67465 0.937,-1.6727 0.6122,-0.57099 0.7802,-0.25297 1.1862,0.32433 0.9286,0.87178 0.8319,0.99485 0.8957,0.69352 2.4594,0.60887 2.6909,0.096 2.505,-0.30314 1.9019,-0.58848 2.0073,-1.45068 1.8532,-2.10465 3.5667,-4.72457 3.6196,-4.23332 2.0115,-2.19247 1.1071,-0.92844 1.0839,-0.55213 1.7274,-0.26365 1.9875,0.0106 3.9247,0.46061 3.1163,1.08012 1.6131,0.47733 1.5911,-0.0218 1.4112,-1.03284 1.2309,-2.02884 0.8214,-2.47458 0.1808,-2.37011 -0.4238,-1.57203 -0.8138,-1.53792 -1.982,-2.84576 -1.9516,-2.79197 -1.1169,-1.25367 -1.2787,-0.97626 0,0"
       style="fill:none;stroke:#000000;stroke-width:4;stroke-linecap:round;stroke-linejoin:round;stroke-miterlimit:4;stroke-opacity:1;stroke-dasharray:none"
       inkscape:connector-curvature="0" />
    <path
       id="path8552"
       d="m 1733.6152,518.21097 -2.3778,0.34608 -2.5911,0.89806 -4.9298,2.22138 -9.4541,4.2061 -9.0064,4.28132 -4.654,2.27911 -2.2217,1.30941 -1.6861,1.41261 -0.9775,1.50323 -0.7863,2.03052 -0.4024,2.24024 0.174,2.13238 0.5632,1.20307 0.9224,1.22282 2.0448,2.18097 1.927,2.21724 1.149,1.04499 1.2192,0.59757 1.6477,0.0747 1.6979,-0.31416 3.5466,-0.7359 7.1016,-0.69787 2.7889,-0.56498 2.3524,-0.85382 2.2673,-1.63681 1.7991,-2.18972 3.2352,-4.64012 3.1794,-3.11212 1.5238,-1.51286 1.3097,-1.72502 -0.053,-1.39476 0.3332,-1.13038 1.386,-1.76412 1.6194,-1.59609 0.6254,-0.92033 0.3581,-1.10069 -0.2632,-2.36209 -1.2362,-2.43921 -1.8937,-1.91658 -1.0957,-0.57488 -1.1428,-0.21932 0,0"
       style="fill:none;stroke:#000000;stroke-width:4;stroke-linecap:round;stroke-linejoin:round;stroke-miterlimit:4;stroke-opacity:1;stroke-dasharray:none"
       inkscape:connector-curvature="0" />
  </g>
  <g
     style="stroke-width:1.33333337;stroke-miterlimit:4;stroke-dasharray:none"
     inkscape:label="Hershey Text"
     transform="matrix(3.3,0,0,3.3,1601.1601,491.73736)"
     id="g5310">
    <path
       inkscape:connector-curvature="0"
       style="fill:none;stroke:#000000;stroke-width:1.21212125;stroke-miterlimit:4;stroke-dasharray:none"
       d="m -5,-12 0,21 m 0,-10 3,-3 2,-1 3,0 2,1 1,3 0,10"
       transform="translate(9,0)"
       id="path5312" />
    <path
       inkscape:connector-curvature="0"
       style="fill:none;stroke:#000000;stroke-width:1.21212125;stroke-miterlimit:4;stroke-dasharray:none"
       d="M 0,-12 0,5 1,8 3,9 5,9 m -8,-14 7,0"
       transform="translate(24,0)"
       id="path5314" />
    <path
       inkscape:connector-curvature="0"
       style="fill:none;stroke:#000000;stroke-width:1.21212125;stroke-miterlimit:4;stroke-dasharray:none"
       d="M 0,-12 0,5 1,8 3,9 5,9 m -8,-14 7,0"
       transform="translate(36,0)"
       id="path5316" />
    <path
       inkscape:connector-curvature="0"
       style="fill:none;stroke:#000000;stroke-width:1.21212125;stroke-miterlimit:4;stroke-dasharray:none"
       d="m -6,-5 0,21 m 0,-18 2,-2 2,-1 3,0 2,1 2,2 L 6,1 6,3 5,6 3,8 1,9 -2,9 -4,8 -6,6"
       transform="translate(53,0)"
       id="path5318" />
    <path
       inkscape:connector-curvature="0"
       style="fill:none;stroke:#000000;stroke-width:1.21212125;stroke-miterlimit:4;stroke-dasharray:none"
       d="m 0,-3 -1,1 1,1 1,-1 -1,-1 M 0,4 -1,5 0,6 1,5 0,4"
       transform="translate(66,0)"
       id="path5320" />
    <path
       inkscape:connector-curvature="0"
       style="fill:none;stroke:#000000;stroke-width:1.21212125;stroke-miterlimit:4;stroke-dasharray:none"
       d="M 9,-16 -9,16"
       transform="translate(81,0)"
       id="path5322" />
    <path
       inkscape:connector-curvature="0"
       style="fill:none;stroke:#000000;stroke-width:1.21212125;stroke-miterlimit:4;stroke-dasharray:none"
       d="M 9,-16 -9,16"
       transform="translate(103,0)"
       id="path5324" />
    <path
       inkscape:connector-curvature="0"
       style="fill:none;stroke:#000000;stroke-width:1.21212125;stroke-miterlimit:4;stroke-dasharray:none"
       d="m -6,-12 0,21 m 0,-11 2,-2 2,-1 3,0 2,1 2,2 L 6,1 6,3 5,6 3,8 1,9 -2,9 -4,8 -6,6"
       transform="translate(124,0)"
       id="path5326" />
    <path
       inkscape:connector-curvature="0"
       style="fill:none;stroke:#000000;stroke-width:1.21212125;stroke-miterlimit:4;stroke-dasharray:none"
       d="m -1,-12 1,1 1,-1 -1,-1 -1,1 m 1,7 0,14"
       transform="translate(137,0)"
       id="path5328" />
    <path
       inkscape:connector-curvature="0"
       style="fill:none;stroke:#000000;stroke-width:1.21212125;stroke-miterlimit:4;stroke-dasharray:none"
       d="M 0,-12 0,5 1,8 3,9 5,9 m -8,-14 7,0"
       transform="translate(146,0)"
       id="path5330" />
    <path
       inkscape:connector-curvature="0"
       style="fill:none;stroke:#000000;stroke-width:1.21212125;stroke-miterlimit:4;stroke-dasharray:none"
       d="M 0,4 -1,5 0,6 1,5 0,4"
       transform="translate(157,0)"
       id="path5332" />
    <path
       inkscape:connector-curvature="0"
       style="fill:none;stroke:#000000;stroke-width:1.21212125;stroke-miterlimit:4;stroke-dasharray:none"
       d="M 0,-12 0,9"
       transform="translate(165,0)"
       id="path5334" />
    <path
       inkscape:connector-curvature="0"
       style="fill:none;stroke:#000000;stroke-width:1.21212125;stroke-miterlimit:4;stroke-dasharray:none"
       d="M -6,-5 0,9 M 6,-5 0,9 l -2,4 -2,2 -2,1 -1,0"
       transform="translate(177,0)"
       id="path5336" />
    <path
       inkscape:connector-curvature="0"
       style="fill:none;stroke:#000000;stroke-width:1.21212125;stroke-miterlimit:4;stroke-dasharray:none"
       d="M 9,-16 -9,16"
       transform="translate(196,0)"
       id="path5338" />
    <path
       inkscape:connector-curvature="0"
       style="fill:none;stroke:#000000;stroke-width:1.21212125;stroke-miterlimit:4;stroke-dasharray:none"
       d="M -7,-12 -7,9 M 7,-12 7,9 M -7,-2 7,-2"
       transform="translate(218,0)"
       id="path5340" />
    <path
       inkscape:connector-curvature="0"
       style="fill:none;stroke:#000000;stroke-width:1.21212125;stroke-miterlimit:4;stroke-dasharray:none"
       d="m 6,-2 -2,-2 -2,-1 -3,0 -2,1 -2,2 -1,3 0,2 1,3 2,2 2,1 3,0 2,-1 2,-2"
       transform="translate(238,0)"
       id="path5342" />
    <path
       inkscape:connector-curvature="0"
       style="fill:none;stroke:#000000;stroke-width:1.21212125;stroke-miterlimit:4;stroke-dasharray:none"
       d="M -5,-12 -5,9 M 5,-5 -5,5 m 4,-4 7,8"
       transform="translate(256,0)"
       id="path5344" />
    <path
       inkscape:connector-curvature="0"
       style="fill:none;stroke:#000000;stroke-width:1.21212125;stroke-miterlimit:4;stroke-dasharray:none"
       d="m -7,-12 0,21 m 0,-21 9,0 3,1 1,1 1,2 0,3 -1,2 -1,1 -3,1 -9,0"
       transform="translate(275,0)"
       id="path5346" />
    <path
       inkscape:connector-curvature="0"
       style="fill:none;stroke:#000000;stroke-width:1.21212125;stroke-miterlimit:4;stroke-dasharray:none"
       d="m 8,-7 -1,-2 -2,-2 -2,-1 -4,0 -2,1 -2,2 -1,2 -1,3 0,5 1,3 1,2 2,2 2,1 L 3,9 5,8 7,6 8,4 8,1 M 3,1 8,1"
       transform="translate(295,0)"
       id="path5348" />
    <path
       inkscape:connector-curvature="0"
       style="fill:none;stroke:#000000;stroke-width:1.21212125;stroke-miterlimit:4;stroke-dasharray:none"
       d="M -7,-12 -7,9 M 7,-12 7,9 M -7,-2 7,-2"
       transform="translate(317,0)"
       id="path5350" />
    <path
       inkscape:connector-curvature="0"
       style="fill:none;stroke:#000000;stroke-width:1.21212125;stroke-miterlimit:4;stroke-dasharray:none"
       d="M 0,-12 -8,9 M 0,-12 8,9 M -5,2 5,2"
       transform="translate(337,0)"
       id="path5352" />
    <path
       inkscape:connector-curvature="0"
       style="fill:none;stroke:#000000;stroke-width:1.21212125;stroke-miterlimit:4;stroke-dasharray:none"
       d="m -7,-12 0,21 m 0,-21 9,0 3,1 1,1 1,2 0,3 -1,2 -1,1 -3,1 -9,0"
       transform="translate(357,0)"
       id="path5354" />
    <path
       inkscape:connector-curvature="0"
       style="fill:none;stroke:#000000;stroke-width:1.21212125;stroke-miterlimit:4;stroke-dasharray:none"
       d="m -7,-12 0,21 m 0,-21 9,0 3,1 1,1 1,2 0,3 -1,2 -1,1 -3,1 -9,0"
       transform="translate(378,0)"
       id="path5356" />
  </g>
  <g
     style="stroke-width:1.33333337;stroke-miterlimit:4;stroke-dasharray:none"
     id="g5576"
     transform="matrix(3.3,0,0,3.3,1757.9101,716.48429)"
     inkscape:label="Hershey Text">
    <path
       id="path5578"
       transform="translate(11,0)"
       d="m -7,-12 0,21 m 0,-21 9,0 3,1 1,1 1,2 0,2 -1,2 -1,1 -3,1 m -9,0 9,0 3,1 L 6,0 7,2 7,5 6,7 5,8 2,9 -7,9"
       style="fill:none;stroke:#000000;stroke-width:1.21212125;stroke-miterlimit:4;stroke-dasharray:none"
       inkscape:connector-curvature="0" />
    <path
       id="path5580"
       transform="translate(30,0)"
       d="M 6,-5 6,9 M 6,-2 4,-4 2,-5 l -3,0 -2,1 -2,2 -1,3 0,2 1,3 2,2 2,1 3,0 2,-1 2,-2"
       style="fill:none;stroke:#000000;stroke-width:1.21212125;stroke-miterlimit:4;stroke-dasharray:none"
       inkscape:connector-curvature="0" />
    <path
       id="path5582"
       transform="translate(44,0)"
       d="M 0,-12 0,9"
       style="fill:none;stroke:#000000;stroke-width:1.21212125;stroke-miterlimit:4;stroke-dasharray:none"
       inkscape:connector-curvature="0" />
    <path
       id="path5584"
       transform="translate(52,0)"
       d="M 0,-12 0,9"
       style="fill:none;stroke:#000000;stroke-width:1.21212125;stroke-miterlimit:4;stroke-dasharray:none"
       inkscape:connector-curvature="0" />
    <path
       id="path5586"
       transform="translate(64,0)"
       d=""
       style="fill:none;stroke:#000000;stroke-width:1.21212125;stroke-miterlimit:4;stroke-dasharray:none"
       inkscape:connector-curvature="0" />
    <path
       id="path5588"
       transform="translate(82,0)"
       d="M 1,-16 -6,16 M 7,-16 0,16 M -6,-3 8,-3 M -7,3 7,3"
       style="fill:none;stroke:#000000;stroke-width:1.21212125;stroke-miterlimit:4;stroke-dasharray:none"
       inkscape:connector-curvature="0" />
  </g>
  <g
     style="stroke-width:1.33333337;stroke-miterlimit:4;stroke-dasharray:none"
     inkscape:label="Hershey Text"
     transform="matrix(3.3,0,0,3.3,1670.4601,244.99045)"
     id="g5814">
    <path
       inkscape:connector-curvature="0"
       style="fill:none;stroke:#000000;stroke-width:1.21212125;stroke-miterlimit:4;stroke-dasharray:none"
       d="M 0,-12 -8,9 M 0,-12 8,9 M -5,2 5,2"
       transform="translate(9,0)"
       id="path5816" />
    <path
       inkscape:connector-curvature="0"
       style="fill:none;stroke:#000000;stroke-width:1.21212125;stroke-miterlimit:4;stroke-dasharray:none"
       d="M -6,1 6,1 6,-1 5,-3 4,-4 2,-5 l -3,0 -2,1 -2,2 -1,3 0,2 1,3 2,2 2,1 3,0 2,-1 2,-2"
       transform="translate(27,0)"
       id="path5818" />
    <path
       inkscape:connector-curvature="0"
       style="fill:none;stroke:#000000;stroke-width:1.21212125;stroke-miterlimit:4;stroke-dasharray:none"
       d="m -3,-5 0,14 m 0,-8 1,-3 2,-2 2,-1 3,0"
       transform="translate(43,0)"
       id="path5820" />
    <path
       inkscape:connector-curvature="0"
       style="fill:none;stroke:#000000;stroke-width:1.21212125;stroke-miterlimit:4;stroke-dasharray:none"
       d="m -1,-12 1,1 1,-1 -1,-1 -1,1 m 1,7 0,14"
       transform="translate(53,0)"
       id="path5822" />
    <path
       inkscape:connector-curvature="0"
       style="fill:none;stroke:#000000;stroke-width:1.21212125;stroke-miterlimit:4;stroke-dasharray:none"
       d="M 6,-5 6,9 M 6,-2 4,-4 2,-5 l -3,0 -2,1 -2,2 -1,3 0,2 1,3 2,2 2,1 3,0 2,-1 2,-2"
       transform="translate(66,0)"
       id="path5824" />
    <path
       inkscape:connector-curvature="0"
       style="fill:none;stroke:#000000;stroke-width:1.21212125;stroke-miterlimit:4;stroke-dasharray:none"
       d="M 0,-12 0,9"
       transform="translate(80,0)"
       id="path5826" />
    <path
       inkscape:connector-curvature="0"
       style="fill:none;stroke:#000000;stroke-width:1.21212125;stroke-miterlimit:4;stroke-dasharray:none"
       d=""
       transform="translate(92,0)"
       id="path5828" />
    <path
       inkscape:connector-curvature="0"
       style="fill:none;stroke:#000000;stroke-width:1.21212125;stroke-miterlimit:4;stroke-dasharray:none"
       d="m -7,-12 0,21 m 0,-21 9,0 3,1 1,1 1,2 0,3 -1,2 -1,1 -3,1 -9,0"
       transform="translate(111,0)"
       id="path5830" />
    <path
       inkscape:connector-curvature="0"
       style="fill:none;stroke:#000000;stroke-width:1.21212125;stroke-miterlimit:4;stroke-dasharray:none"
       d="m -1,-12 1,1 1,-1 -1,-1 -1,1 m 1,7 0,14"
       transform="translate(125,0)"
       id="path5832" />
    <path
       inkscape:connector-curvature="0"
       style="fill:none;stroke:#000000;stroke-width:1.21212125;stroke-miterlimit:4;stroke-dasharray:none"
       d="m -5,-5 0,14 m 0,-10 3,-3 2,-1 3,0 2,1 1,3 0,10"
       transform="translate(138,0)"
       id="path5834" />
    <path
       inkscape:connector-curvature="0"
       style="fill:none;stroke:#000000;stroke-width:1.21212125;stroke-miterlimit:4;stroke-dasharray:none"
       d="m 6,-5 0,16 -1,3 -1,1 -2,1 -3,0 -2,-1 M 6,-2 4,-4 2,-5 l -3,0 -2,1 -2,2 -1,3 0,2 1,3 2,2 2,1 3,0 2,-1 2,-2"
       transform="translate(157,0)"
       id="path5836" />
    <path
       inkscape:connector-curvature="0"
       style="fill:none;stroke:#000000;stroke-width:1.21212125;stroke-miterlimit:4;stroke-dasharray:none"
       d=""
       transform="translate(175,0)"
       id="path5838" />
    <path
       inkscape:connector-curvature="0"
       style="fill:none;stroke:#000000;stroke-width:1.21212125;stroke-miterlimit:4;stroke-dasharray:none"
       d="m -7,-12 0,21 m 0,-21 9,0 3,1 1,1 1,2 0,3 -1,2 -1,1 -3,1 -9,0"
       transform="translate(194,0)"
       id="path5840" />
    <path
       inkscape:connector-curvature="0"
       style="fill:none;stroke:#000000;stroke-width:1.21212125;stroke-miterlimit:4;stroke-dasharray:none"
       d="m -1,-5 -2,1 -2,2 -1,3 0,2 1,3 2,2 2,1 L 2,9 4,8 6,6 7,3 7,1 6,-2 4,-4 2,-5 -1,-5"
       transform="translate(213,0)"
       id="path5842" />
    <path
       inkscape:connector-curvature="0"
       style="fill:none;stroke:#000000;stroke-width:1.21212125;stroke-miterlimit:4;stroke-dasharray:none"
       d="m -5,-5 0,14 m 0,-10 3,-3 2,-1 3,0 2,1 1,3 0,10"
       transform="translate(232,0)"
       id="path5844" />
    <path
       inkscape:connector-curvature="0"
       style="fill:none;stroke:#000000;stroke-width:1.21212125;stroke-miterlimit:4;stroke-dasharray:none"
       d="m 6,-5 0,16 -1,3 -1,1 -2,1 -3,0 -2,-1 M 6,-2 4,-4 2,-5 l -3,0 -2,1 -2,2 -1,3 0,2 1,3 2,2 2,1 3,0 2,-1 2,-2"
       transform="translate(251,0)"
       id="path5846" />
    <path
       inkscape:connector-curvature="0"
       style="fill:none;stroke:#000000;stroke-width:1.21212125;stroke-miterlimit:4;stroke-dasharray:none"
       d=""
       transform="translate(269,0)"
       id="path5848" />
    <path
       inkscape:connector-curvature="0"
       style="fill:none;stroke:#000000;stroke-width:1.21212125;stroke-miterlimit:4;stroke-dasharray:none"
       d="m -7,-12 0,21 m 0,-21 7,0 3,1 2,2 1,2 1,3 L 7,1 6,4 5,6 3,8 0,9 -7,9"
       transform="translate(288,0)"
       id="path5850" />
    <path
       inkscape:connector-curvature="0"
       style="fill:none;stroke:#000000;stroke-width:1.21212125;stroke-miterlimit:4;stroke-dasharray:none"
       d="m -3,-5 0,14 m 0,-8 1,-3 2,-2 2,-1 3,0"
       transform="translate(305,0)"
       id="path5852" />
    <path
       inkscape:connector-curvature="0"
       style="fill:none;stroke:#000000;stroke-width:1.21212125;stroke-miterlimit:4;stroke-dasharray:none"
       d="m -1,-5 -2,1 -2,2 -1,3 0,2 1,3 2,2 2,1 L 2,9 4,8 6,6 7,3 7,1 6,-2 4,-4 2,-5 -1,-5"
       transform="translate(320,0)"
       id="path5854" />
    <path
       inkscape:connector-curvature="0"
       style="fill:none;stroke:#000000;stroke-width:1.21212125;stroke-miterlimit:4;stroke-dasharray:none"
       d="m -6,-5 0,21 m 0,-18 2,-2 2,-1 3,0 2,1 2,2 L 6,1 6,3 5,6 3,8 1,9 -2,9 -4,8 -6,6"
       transform="translate(340,0)"
       id="path5856" />
  </g>
</svg>
