<?xml version="1.0" encoding="UTF-8" standalone="no"?>
<!-- Created with Inkscape (http://www.inkscape.org/) -->

<svg
   xmlns:dc="http://purl.org/dc/elements/1.1/"
   xmlns:cc="http://creativecommons.org/ns#"
   xmlns:rdf="http://www.w3.org/1999/02/22-rdf-syntax-ns#"
   xmlns:svg="http://www.w3.org/2000/svg"
   xmlns="http://www.w3.org/2000/svg"
   xmlns:sodipodi="http://sodipodi.sourceforge.net/DTD/sodipodi-0.dtd"
   xmlns:inkscape="http://www.inkscape.org/namespaces/inkscape"
   width="180.56931"
   height="181.37239"
   id="svg5234"
   version="1.1"
   inkscape:version="0.48.1 r9760"
   sodipodi:docname="New document 25">
  <defs
     id="defs5236" />
  <sodipodi:namedview
     id="base"
     pagecolor="#ffffff"
     bordercolor="#666666"
     borderopacity="1.0"
     inkscape:pageopacity="0.0"
     inkscape:pageshadow="2"
     inkscape:zoom="3.5893003"
     inkscape:cx="90.28465"
     inkscape:cy="90.686196"
     inkscape:document-units="px"
     inkscape:current-layer="layer1"
     showgrid="false"
     fit-margin-top="0"
     fit-margin-left="0"
     fit-margin-right="0"
     fit-margin-bottom="0"
     inkscape:window-width="1600"
     inkscape:window-height="823"
     inkscape:window-x="0"
     inkscape:window-y="24"
     inkscape:window-maximized="1" />
  <metadata
     id="metadata5239">
    <rdf:RDF>
      <cc:Work
         rdf:about="">
        <dc:format>image/svg+xml</dc:format>
        <dc:type
           rdf:resource="http://purl.org/dc/dcmitype/StillImage" />
        <dc:title></dc:title>
      </cc:Work>
    </rdf:RDF>
  </metadata>
  <g
     inkscape:label="Layer 1"
     inkscape:groupmode="layer"
     id="layer1"
     transform="translate(-284.71535,-441.67599)">
    <g
       id="g5305">
      <g
         id="g5165"
         transform="translate(261.71535,-406.31382)">
        <rect
           inkscape:export-ydpi="147.06"
           inkscape:export-xdpi="147.06"
           inkscape:export-filename="hackpgh_spatula.png"
           y="847.98981"
           x="23.000002"
           height="181.37239"
           width="180.56384"
           id="rect4464"
           style="fill:#346633;fill-opacity:1;stroke:none" />
        <g
           inkscape:export-ydpi="147.06"
           inkscape:export-xdpi="147.06"
           inkscape:export-filename="hackpgh_spatula.png"
           id="g5710"
           transform="matrix(0.29528019,0,0,0.29528019,229.69613,821.98257)">
          <path
             inkscape:connector-curvature="0"
             style="fill:#989933;fill-opacity:1;fill-rule:evenodd"
             d="m -374.64557,329.81877 -73.55236,-241.742297 -134.50443,0 184.30881,249.239517 c 8.54417,-1.97393 15.99331,-4.48001 23.74798,-7.49722 z"
             id="path5685" />
          <path
             sodipodi:nodetypes="cccscccccc"
             inkscape:connector-curvature="0"
             style="fill:#989933;fill-opacity:1;fill-rule:evenodd"
             d="m -88.5,698.85846 0,-121.3528 c -52.447,-35.475 -105.35278,-71.55456 -158.20978,-107.42156 -4.037,6.923 -6.80073,14.69209 -11.45122,21.19237 -2.78767,3.8965 -6.59545,6.95092 -9.89317,10.42638 l 80.45317,98.05362 c 27.436,32.791 55.26528,66.53299 81.88828,99.10199 l 3.32604,3.45629 13.88668,0 z"
             id="path5667" />
          <path
             sodipodi:nodetypes="cccccccccc"
             inkscape:connector-curvature="0"
             style="fill:#989933;fill-opacity:1;fill-rule:evenodd"
             d="m -251.28244,698.85846 -58.62865,-171.94261 c -4.71,1.498 -9.58191,3.55562 -14.24891,4.67962 -5.22,1.259 -10.599,1.035 -15.359,2.641 -3.874,1.307 -7.539,4.78 -10.801,6.72 -3.498,2.081 -6.55017,3.77578 -10.33017,5.27078 l -6.63551,152.63121 0,3.45629 116.00324,0 z"
             id="path5665" />
          <path
             inkscape:connector-curvature="0"
             style="fill:#989933;fill-opacity:1;fill-rule:evenodd"
             d="m -423.52,347.27647 c -91.667,-66.716 -185.13,-133.147 -276.48,-198.72 v 111.36 c 85.561,33.941 171.964,68.446 259.44,102.96 2.178,-8.701 9.738,-12.022 17.04,-15.6 z"
             id="path5663" />
          <path
             inkscape:connector-curvature="0"
             style="fill:#989933;fill-opacity:1;fill-rule:evenodd"
             d="m -448.48,451.19647 c 1.468,-8.853 2.316,-18.324 3.6,-27.36 -84.608,24.596 -170.978,50.503 -255.12,75.6 v 95.76 c 41.221,-23.011 83.891,-48.046 125.04,-71.28 42.141,-24.261 84.344,-48.452 126.48,-72.72 z"
             id="path5661" />
          <path
             inkscape:connector-curvature="0"
             style="fill:#989933;fill-opacity:1;fill-rule:evenodd"
             d="m -665.2,416.39647 c 15.265,-1.373 30.728,-1.738 46.08,-3.12 8.195,-0.738 16.514,-0.481 24.72,-1.2 2.009,-0.176 5.665,-0.233 8.64,-0.48 47.257,-3.916 96.19,-5.554 143.28,-9.12 1.116,-5.364 0.993,-11.967 1.44,-18 -84.711,-13.089 -174.911,-25.675 -258.96,-37.92 v 72 c 1.695,-0.457 7.093,-0.698 10.08,-0.96 7.966,-0.698 17.108,-0.515 24.72,-1.2 z"
             id="path5659" />
          <path
             inkscape:connector-curvature="0"
             style="fill:#989933;fill-opacity:1;fill-rule:evenodd"
             d="m -258.4,420.23647 c 4.818,5.021 10.724,8.957 13.92,15.6 52.242,18.32 103.649,36.73468 155.98,54.96668 l 0,-60.78466 c -56.428,-7.396 -112.527,-13.96202 -169.9,-21.30202 0.506,3.225 0.915,8.383 0,11.52 z"
             id="path5657" />
          <path
             inkscape:connector-curvature="0"
             style="fill:#989933;fill-opacity:1;fill-rule:evenodd"
             d="m -296.01053,331.90418 c 5.162,4.758 7.90053,11.16129 8.33053,20.65229 2.039,1.889 5.47115,-1.02147 8.31015,-2.82647 L -88.5,228.79514 -88.5,99.201716 C -158.03,176.87071 -226.40753,254.31118 -296.01053,331.90418 z"
             id="path5655" />
          <path
             inkscape:connector-curvature="0"
             style="fill:#989933;fill-opacity:1;fill-rule:evenodd"
             d="m -271.82881,370.4881 c 3.04,5.859 -3.99266,16.58468 3.36534,18.14168 l 179.981997,-17.75869 -0.0063,-59.51189 z"
             id="path5653" />
          <path
             inkscape:connector-curvature="0"
             style="fill:#989933;fill-opacity:1;fill-rule:evenodd"
             d="m -354.16795,318.1249 c 9.6659,-7.87077 9.79446,-7.67453 16.56895,-8.28843 6.298,-0.374 11.459,3.026 15.359,6.24 l 89.52497,-227.999997 -121.45292,0 z"
             id="path3412" />
        </g>
        <g
           inkscape:export-ydpi="147.06"
           inkscape:export-xdpi="147.06"
           inkscape:export-filename="hackpgh_spatula.png"
           transform="matrix(0.29528019,0,0,0.29528019,-36.05604,821.98257)"
           id="g3923">
          <path
             sodipodi:nodetypes="cccccccccccccccccccccccccccccccccccccccccccccccsccccccccccccccccccccccccccsccccccccccccccccccccccccccccsccccccccccccccccccccccccccccccccccccccsscccccccccccccccccsccccccccccccccccccccccccccccccccccccsccccccccccccccccccccccccccccccccccccccscccccs"
             d="m 630.09375,443.28125 c 3.86,0.056 7.5375,5.81475 6.9375,9.34375 -0.686,4.04 -6.351,4.68775 -5.5,9.84375 -1.994,3.143 -5.1145,5.0035 -7.6875,7.9375 -2.999,3.419 -5.013,8.4945 -9.375,10.5625 -3.627,1.719 -8.47975,2.104 -15.34375,2.625 -3.044,0.231 -5.96425,1.7815 -8.65625,1.1875 -2.059,-0.453 -3.97325,-3.37325 -5.28125,-4.78125 -1.422,-1.53 -3.8245,-3.812 -4.3125,-5.75 -0.826,-3.277 0.94625,-7.95975 2.65625,-9.84375 2.207,-2.43 7.33525,-4.557 10.78125,-6.25 7.66,-3.766 14.87425,-6.9215 23.28125,-10.5625 3.628,-1.57 8.824,-4.3665 12.5,-4.3125 z m -79.125,-30.5 c 0.14439,-0.0202 0.27069,-0.0183 0.40625,0 1.624,0.218 2.045,4.03225 2.875,5.78125 2.96,6.238 7.9405,8.045 16.0625,9.125 -2.416,2.241 -4.72225,6.15675 -8.40625,6.46875 -3.352,0.283 -7.0115,-2.80825 -9.8125,-5.28125 -2.736,-2.415 -7.014,-5.90175 -6.5,-10.09375 0.16125,-1.30781 3.20921,-5.69749 5.375,-6 z M 614,408 c 2.316,1.317 3.95325,4 5.53125,6.25 1.531,2.184 3.7815,4.8145 4.0625,7.4375 0.381,3.547 -2.1765,9.25975 -4.5625,9.84375 -2.621,0.641 -5.43125,-1.5395 -7.90625,-1.9375 -2.91,-0.467 -7.03575,-0.969 -9.59375,-0.25 -1.757,0.495 -3.82325,2.8845 -5.28125,4.5625 -1.716,1.974 -3.0045,3.43825 -4.5625,5.28125 -3.05,3.61 -5.832,8.67675 -9.375,10.34375 -2.452,1.152 -8.316,1.71975 -12,0.21875 -1.639,-0.667 -2.48925,-3.74475 -4.78125,-3.59375 -2.955,0.195 -2.96525,6.042 -5.78125,6.25 -1.73,0.128 -6.57075,-4.66975 -6.46875,-6.96875 0.062,-1.44 3.25325,-3.99525 5.03125,-5.28125 5.957,-4.31 13.53375,-7.995 19.21875,-11.75 4.079,-2.693 8.35375,-5.48825 12.21875,-8.40625 4.052,-3.058 7.95825,-6.72225 11.78125,-8.65625 C 605.14825,409.51475 609.189,408.152 614,408 z m -45.375,-35.28125 c 6.285,0.115 9.12975,5.764 10.09375,12 -3.544,-3.816 -5.03875,-9.695 -10.09375,-12 z M 605.84375,362.75 c 2.64399,0.0594 4.3095,2.318 6,4.6875 1.086,1.521 2.834,4.08525 2.875,5.28125 0.093,2.673 -3.605,7.33825 -6,8.15625 -2.815,0.962 -7.2375,0.41425 -10.5625,1.90625 -3.317,1.489 -5.909,6.206 -8.625,6.25 -2.406,0.039 -5.846,-2.60025 -6.25,-5.03125 -0.818,-4.917 6.12,-9.61 8.875,-12 4.06,-3.521 7.67,-6.801 12,-8.875 0.16,-0.077 0.18675,-0.192 0.46875,-0.25 0.42037,-0.0867 0.84104,-0.13349 1.21875,-0.125 z m -50.5,-40 c 0.27557,6.6e-4 0.54062,-0.003 0.8125,0.0312 2.719,0.339 5.05625,2.257 8.15625,3.125 4.559,1.275 9.6,0.80575 15.375,1.21875 3.894,0.279 14.07625,4.16425 14.40625,7.90625 0.321,3.641 -4.9645,6.1075 -7.9375,7.4375 -3.557,1.592 -7.85475,2.724 -9.34375,6 -2.588,5.695 1.422,13.928 -3.375,18 -9.106,-4.46 -6.62575,-17.96475 -9.84375,-27.84375 -0.354,-1.09 -1.0425,-2.057 -1.6875,-2.875 -3.496,-4.441 -8.91725,-7.6655 -17.03125,-7.4375 1.87313,-2.01844 6.33519,-5.57247 10.46875,-5.5625 z m 7.53125,-9.3125 c -4.441,0.162 -9.21675,4.51375 -12.71875,6.96875 -4.096,2.871 -7.29325,6.347 -11.03125,8.625 -5.085,3.1 -12.10475,5.05375 -18.71875,7.21875 -6.522,2.135 -13.54125,3.46 -20.15625,5.5 -6.333,1.952 -12.38975,4.06875 -18.71875,6.96875 -5.372,2.46 -13.03775,5.80075 -16.09375,9.59375 -4.745,5.889 -2.923,17.54625 -2.875,26.40625 0.06,11.054 -1.39725,21.4505 -2.65625,31.4375 -1.886,14.961 -3.65675,30.42525 -6.46875,44.40625 -0.979,4.865 -2.84425,8.182 -5.53125,11.5 -4.726,5.834 -10.40875,11.795 -15.84375,18 -15.573,17.781 -31.85725,35.92775 -49.65625,52.09375 -5.862,5.323 -11.1565,11.4985 -17.0625,16.8125 -5.869,5.281 -12.4345,10.19875 -18.9375,15.09375 -6.498,4.893 -13.1215,10.1815 -19.9375,13.9375 -7.346,4.049 -15.33125,7.19425 -23.03125,10.78125 -15.255,7.111 -29.8105,15.374 -43.4375,24.5 -20.032,13.414 -40.484,27.876 -60,41.5 l 0,37.5335 227.75,0 c 18.194,-41.438 43.638,-81.85875 69.375,-117.18975 6.211,-8.526 12.8915,-17.70625 19.4375,-26.65625 3.759,-5.139 6.076,-10.00075 12,-12.71875 2.655,-1.218 5.72625,-1.584 8.40625,-2.625 2.546,-0.989 5.0615,-2.131 7.4375,-3.375 4.726,-2.474 8.8025,-6.33525 13.1875,-8.40625 5.227,-2.47 13.069,-1.4715 17.75,-4.0625 15.141,-3.285 28.60075,-9.82 39.84375,-17.75 10.77579,-7.15065 17.77937,-12.1452 24.71875,-21.84375 2.537,-3.613 3.544,-8.539 6,-12.5 0.55,-0.889 1.6365,-1.54225 2.1875,-2.40625 1.253,-1.968 3.52675,-7.67475 3.09375,-9.34375 0.02,0.074 -0.016,0.175 0,0.25 -3.254,7.227 -10.0215,10.90575 -16.3125,15.09375 -13.88691,8.56981 -19.12121,12.36209 -30.46875,14.40625 -5.302,0.619 -14.07425,4.18225 -17.53125,-0.46875 -4.789,4.903 -11.25625,10.073 -17.03125,15.125 -1.957,1.712 -4.247,4.60725 -6.25,5.28125 -3.723,1.253 -8.50725,0.6845 -13.90625,1.1875 -3.201,0.298 -5.2975,2.39925 -7.6875,2.40625 -10.302,0.036 -1.716,-17.434 -11.75,-18 -0.321,2.998 2.804,4.04125 2.875,8.40625 0.059,3.58 -0.0278,8.28225 -0.96875,11.28125 -6.501,0.611 -9.59675,-5.24225 -15.59375,-5.28125 -1.669,-0.011 -3.70525,1.1535 -5.53125,0.9375 -1.98,-0.234 -5.25975,-3.2565 -6.96875,-4.5625 -2.332,-1.782 -4.06275,-3.72225 -6.46875,-4.78125 1.187,2.411 3.18225,3.65 5.28125,5.75 2.134,2.134 7.7765,7.999 1.6875,9.375 -4.333,0.979 -8.489,-3.17075 -12.25,-1.21875 -0.722,1.513 0.161,3.3295 0.5,4.5625 -5.355,10.14 -12.41475,19.1735 -18.96875,28.5625 -6.525,9.349 -12.62375,19.0855 -18.96875,28.5625 -12.725,19.004 -25.32125,38.00125 -38.40625,56.65625 4.335,-13.699 14.383,-25.14375 18.5,-40.09375 1.464,-5.315 1.44075,-10.62075 3.84375,-15.84375 1.861,-4.044 4.668,-7.87325 8.375,-11.28125 3.602,-3.311 5.91225,-7.679 8.15625,-11.5 2.368,-4.032 5.6145,-7.72825 7.9375,-11.78125 2.486,-4.338 4.18775,-9.06775 6.96875,-12.46875 1.212,-1.482 3.58025,-2.7465 5.03125,-4.3125 1.699,-1.833 3.4675,-5.4835 4.3125,-7.9375 1.022,-2.966 1.271,-7.654 3.125,-8.875 1.778,-1.171 5.5805,-0.1785 7.4375,-1.1875 -0.938,-5.381 -4.39,-8.25775 -8.875,-10.09375 -1.35,1.496 0.76675,3.777 0.46875,6 -0.44,3.28 -5.6825,4.8605 -7.4375,7.4375 -1.189,1.747 -1.33425,4.099 -2.15625,6.25 -1.173,3.071 -4.07775,6.29875 -6.46875,9.59375 -6.62,9.126 -13.91125,18.78375 -20.15625,27.84375 -8.868,12.862 -17.2885,25.98425 -25.9375,37.90625 -13.577,18.716 -27.428,36.29325 -42,53.78125 -4.845,5.813 -9.61875,11.8215 -15.59375,16.3125 1.912,-7.212 6.01375,-12.92475 9.34375,-18.71875 10.421,-18.13 20.0405,-34.22975 32.1875,-52.09375 3.705,-5.448 7.604,-10.7435 11.5,-16.5625 3.827,-5.716 8.28725,-10.8985 8.65625,-19.4375 0.386,-8.934 -1.35925,-17.2705 -2.65625,-25.4375 -1.168,-7.357 -3.041,-17.52175 0.25,-24.71875 1.789,-3.91 6.029,-7.603 8.875,-11.5 3.001,-4.108 5.83125,-8.04825 8.65625,-11.53125 6.202,-7.646 11.09575,-16.03575 18.21875,-22.09375 3.905,1.68 6.496,5.27725 9.375,8.15625 5.792,5.793 11.71625,11.50225 17.28125,17.78125 2.699,3.045 5.045,6.456 8.375,8.875 -7,-15.64 -21.01925,-24.247 -31.65625,-36.25 3.041,1.12 5.749,4.667 8.875,6.5 -2.465,-5.315 -9.3095,-7.77825 -10.3125,-14.40625 -0.182,-1.201 0.15175,-3.51225 0.21875,-5.03125 0.378,-8.601 -0.0933,-16.07325 0.96875,-23.28125 0.998,-6.777 2.085,-13.58125 3.125,-20.90625 0.916,-6.451 0.8085,-14.42525 1.1875,-22.78125 0.5,-11.011 0.473,-20.33675 6.5,-25.21875 2.045,-1.656 4.9025,-2.8485 7.4375,-4.3125 7.491,-4.324 15.6975,-7.0045 24.9375,-10.0625 8.826,-2.921 17.38,-5.35025 27.125,-8.15625 5.747,-1.655 10.81075,-3.97475 12.96875,1.90625 1.94,5.291 -0.46775,12.756 -0.46875,18.25 1.553,1.103 4.115,0.7685 5.75,1.4375 2.649,1.084 6.27575,3.74275 6.46875,6.21875 0.396,5.072 -6.65375,6.85375 -9.59375,9.84375 -1.521,1.547 -2.882,4.04675 -2.625,6.96875 0.346,3.914 4.53175,8.38825 6.46875,11.28125 2.623,3.918 4.16525,7.22175 8.15625,9.59375 -1.512,-3.054 -3.51325,-6.2985 -5.53125,-10.3125 -1.542,-3.067 -5.32225,-7.47725 -4.78125,-11.53125 0.415,-3.119 5.4665,-6.5205 10.0625,-6.9375 11.423,-1.036 21.1135,12.9965 22.8125,22.3125 1.172,6.424 -5.4835,8.20875 -10.3125,9.84375 -4.355,1.476 -9.1675,2.93625 -13.9375,1.65625 -3.808,-1.022 -8.89375,-3.52475 -12.21875,-6.21875 -5.427,-4.396 -8.974,-11.69175 -15.375,-15.84375 -2.306,-1.495 -5.01975,-2.26475 -6.46875,-3.84375 -5.217,-5.684 -2.07025,-16.955 0.21875,-23.75 -8.555,1.446 -5.56725,14.4015 -7.65625,22.3125 -8.654,-1.827 -10.70325,-10.2865 -17.78125,-13.6875 -0.669,1.939 1.46125,3.1405 2.40625,4.3125 1.027,1.273 1.997,2.80375 2.875,4.09375 1.944,2.859 4.266,5.32025 6,8.15625 -1.239,1.939 -4.10075,2.89175 -6.71875,3.84375 -2.588,0.941 -5.14225,2.738 -7.65625,2.875 -4.154,0.227 -6.6605,-2.933 -10.5625,-2.875 -0.479,9.815 15.829,4.778 23.75,5.75 2.011,0.247 5.649,1.571 5.75,2.875 0.133,1.719 -3.94025,2.80925 -5.03125,2.90625 -3.689,0.327 -6.93375,-1.53675 -9.84375,-0.71875 1.176,6.986 15.136,3.276 21.375,6 0.205,4.847 -4.9955,6.09425 -5.0625,10.78125 -0.059,4.097 4.9085,5.827 4.8125,9.375 -0.179,6.607 -11.12025,0.95075 -14.40625,0.21875 1.814,4.563 4.906,6.69 9.125,9.125 3.319,1.917 10.3125,3.9185 10.3125,7.9375 0,4.8 -10.026,5.57375 -9.125,9.84375 0.483,2.284 4.32,0.97525 6.5,1.65625 -1.243,4.705 -5.67875,7.35375 -9.59375,10.09375 -2.024,1.417 -4.072,2.66675 -6.25,3.84375 -2.08,1.124 -4.826,1.9565 -5.75,4.3125 3.035,2.367 8.28375,1.45875 12.21875,0.71875 4.054,-0.764 7.85925,-2.871 11.28125,-2.625 0.272,2.583 -1.93675,4.55875 -3.59375,6.46875 -1.477,1.701 -3.29825,4.51125 -5.03125,5.28125 -0.947,0.42 -2.165,0.14375 -3.125,0.46875 -1.938,0.658 -2.9575,2.13425 -4.5625,2.65625 -4.481,1.454 -9.8635,1.37575 -13.6875,0.71875 -8.898,-1.53 -15.94225,-8.574 -22.78125,-12.25 5.64,6.76 15.05725,11.80525 22.78125,17.28125 -0.248,0.952 -2.263,0.13075 -2.625,0.96875 2.384,2.901 7.00125,4.335 11.28125,6 5.428,2.111 10.429,5.2175 17.75,4.3125 10.365,-1.281 17.169,-12.34425 21.125,-20.65625 4.866,-10.221 6.60625,-21.89775 8.15625,-33.59375 2.67,7.84 6.082,14.3415 12,19.6875 4.333,3.914 8.65075,7.8595 15.59375,7.6875 0.908,5.342 4.7265,8.68375 7.9375,12.21875 2.382,2.624 5.15725,5.12875 7.90625,7.21875 16.362,-2.737 27.9115,-9.1435 40.3125,-16.3125 3.952,-2.284 8.50825,-4.5355 11.28125,-7.4375 2.453,-2.566 4.704,-6.9445 6.5,-11.0625 1.885,-4.32 4.55075,-10.4615 3.34375,-16.0625 -1.464,-6.799 -6.49125,-11.01 -11.03125,-14.875 -1.673,-1.425 -3.8005,-2.63375 -4.3125,-4.34375 -0.563,-1.879 0.11575,-3.2105 0.21875,-4.5625 0.854,-11.258 -3.20325,-19.31275 -8.15625,-24.46875 -1.993,-2.074 -5.937,-3.8165 -6.25,-7.6875 -0.204,-2.511 1.03275,-5.0465 1.21875,-7.1875 0.64,-7.342 -2.4465,-15.8865 -7.9375,-19.4375 -1.781,-1.151 -7.228,-1.9285 -8.375,-4.3125 -1.308,-2.718 -0.68375,-5.67725 -1.21875,-8.40625 -2.694,-13.758 -19.84275,-18.9205 -30.46875,-25.6875 -3.692,-2.351 -7.99825,-6.95175 -14.40625,-6.71875 z M 478.88,551.03647 c 4.721,-7.05 9.856,-16.25 16.8,-20.4 l 0.48,0 c -3.761,7.052 -8.817,13.397 -13.44,19.921 -4.61,6.503 -9.229,13.005 -13.68,19.68 -8.911,13.363 -15.059,28.653 -25.92,40.56 8.984,-20.012 23.248,-41.076 35.76,-59.761 z"
             style="fill:#740607;fill-opacity:1;fill-rule:evenodd"
             id="path3925"
             inkscape:connector-curvature="0" />
          <g
             transform="translate(1467.2967,0)"
             id="g3927">
            <path
               inkscape:connector-curvature="0"
               style="fill:#eccc79;fill-opacity:1;stroke:none"
               d="m -817.0625,457.20147 c -1.796,4.118 -4.047,8.4965 -6.5,11.0625 -2.773,2.902 -7.32925,5.1535 -11.28125,7.4375 -12.401,7.169 -23.9505,13.5755 -40.3125,16.3125 -2.749,-2.09 -5.52425,-4.59475 -7.90625,-7.21875 -3.211,-3.535 -7.0295,-6.87675 -7.9375,-12.21875 -6.943,0.172 -11.26075,-3.7735 -15.59375,-7.6875 -5.918,-5.346 -9.33,-11.8475 -12,-19.6875 -1.55,11.696 -3.29025,23.37275 -8.15625,33.59375 -3.956,8.312 -10.76,19.37525 -21.125,20.65625 -7.321,0.905 -12.322,-2.2015 -17.75,-4.3125 -4.28,-1.665 -8.89725,-3.099 -11.28125,-6 0.362,-0.838 2.377,-0.0168 2.625,-0.96875 -7.724,-5.476 -17.14125,-10.52125 -22.78125,-17.28125 6.839,3.676 13.88325,10.72 22.78125,12.25 3.824,0.657 9.2065,0.73525 13.6875,-0.71875 1.605,-0.522 2.6245,-1.99825 4.5625,-2.65625 0.96,-0.325 2.178,-0.0487 3.125,-0.46875 1.733,-0.77 3.55425,-3.58025 5.03125,-5.28125 1.657,-1.91 3.86575,-3.88575 3.59375,-6.46875 -3.422,-0.246 -7.22725,1.861 -11.28125,2.625 -3.935,0.74 -9.18375,1.64825 -12.21875,-0.71875 0.924,-2.356 3.67,-3.1885 5.75,-4.3125 2.178,-1.177 4.226,-2.42675 6.25,-3.84375 3.915,-2.74 8.35075,-5.38875 9.59375,-10.09375 -2.18,-0.681 -6.017,0.62775 -6.5,-1.65625 -0.901,-4.27 9.125,-5.04375 9.125,-9.84375 0,-4.019 -6.9935,-6.0205 -10.3125,-7.9375 -4.219,-2.435 -7.311,-4.562 -9.125,-9.125 3.286,0.732 14.22725,6.38825 14.40625,-0.21875 0.096,-3.548 -4.8715,-5.278 -4.8125,-9.375 0.067,-4.687 5.2675,-5.93425 5.0625,-10.78125 -6.239,-2.724 -20.199,0.986 -21.375,-6 2.91,-0.818 6.15475,1.04575 9.84375,0.71875 1.091,-0.097 5.16425,-1.18725 5.03125,-2.90625 -0.101,-1.304 -3.739,-2.628 -5.75,-2.875 -7.921,-0.972 -24.229,4.065 -23.75,-5.75 3.902,-0.058 6.4085,3.102 10.5625,2.875 2.514,-0.137 5.06825,-1.934 7.65625,-2.875 2.618,-0.952 5.47975,-1.90475 6.71875,-3.84375 -1.734,-2.836 -4.056,-5.29725 -6,-8.15625 -0.878,-1.29 -1.848,-2.82075 -2.875,-4.09375 -0.945,-1.172 -3.07525,-2.3735 -2.40625,-4.3125 7.078,3.401 9.12725,11.8605 17.78125,13.6875 2.089,-7.911 -0.89875,-20.8665 7.65625,-22.3125 -2.289,6.795 -5.43575,18.066 -0.21875,23.75 1.449,1.579 4.16275,2.34875 6.46875,3.84375 6.401,4.152 9.948,11.44775 15.375,15.84375 3.325,2.694 8.41075,5.19675 12.21875,6.21875 4.77,1.28 9.5825,-0.18025 13.9375,-1.65625 4.829,-1.635 11.4845,-3.41975 10.3125,-9.84375 -1.699,-9.316 -11.3895,-23.3485 -22.8125,-22.3125 -4.596,0.417 -9.6475,3.8185 -10.0625,6.9375 -0.541,4.054 3.23925,8.46425 4.78125,11.53125 2.018,4.014 4.01925,7.2585 5.53125,10.3125 -3.991,-2.372 -5.53325,-5.67575 -8.15625,-9.59375 -1.937,-2.893 -6.12275,-7.36725 -6.46875,-11.28125 -0.257,-2.922 1.104,-5.42175 2.625,-6.96875 2.94,-2.99 9.98975,-4.77175 9.59375,-9.84375 -0.193,-2.476 -3.81975,-5.13475 -6.46875,-6.21875 -1.635,-0.669 -4.197,-0.3345 -5.75,-1.4375 10e-4,-5.494 2.40875,-12.959 0.46875,-18.25 -2.158,-5.881 -7.22175,-3.56125 -12.96875,-1.90625 -9.745,2.806 -18.299,5.23525 -27.125,8.15625 -9.24,3.058 -17.4465,5.7385 -24.9375,10.0625 -2.535,1.464 -5.3925,2.6565 -7.4375,4.3125 -6.02695,4.882 -5.99995,14.20775 -6.49995,25.21875 -0.3791,8.356 -0.2716,16.33025 -1.1875,22.78125 -1.04,7.325 -2.127,14.12925 -3.125,20.90625 -1.0618,7.208 -0.5908,14.68025 -0.9688,23.28125 -0.067,1.519 -0.4008,3.83025 -0.2187,5.03125 1.0029,6.628 7.8475,9.09125 10.31245,14.40625 -3.12595,-1.833 -5.83405,-5.38 -8.87495,-6.5 10.63693,12.003 24.6562,20.61 31.6562,36.25 -3.33,-2.419 -5.676,-5.83 -8.375,-8.875 -5.565,-6.279 -11.48927,-11.98825 -17.2812,-17.78125 -2.8791,-2.879 -5.4701,-6.47625 -9.375,-8.15625 -7.1231,6.058 -12.0168,14.44775 -18.2188,22.09375 -2.825,3.483 -5.6553,7.42325 -8.6563,11.53125 -2.846,3.897 -7.086,7.59 -8.875,11.5 -3.291,7.197 -1.418,17.36175 -0.25,24.71875 1.297,8.167 3.0423,16.5035 2.6563,25.4375 -0.369,8.539 -4.8293,13.7215 -8.6563,19.4375 -3.896,5.819 -7.795,11.1145 -11.5,16.5625 -12.147,17.864 -21.7665,33.96375 -32.1875,52.09375 -3.33,5.794 -7.4317,11.50675 -9.3437,18.71875 5.975,-4.491 10.7487,-10.4995 15.5937,-16.3125 14.5721,-17.488 28.423,-35.06525 42,-53.78125 8.649,-11.922 17.0695,-25.04425 25.9376,-37.90625 6.245,-9.06 13.5362,-18.71775 20.1562,-27.84375 2.39103,-3.295 5.29575,-6.52275 6.46875,-9.59375 0.822,-2.151 0.96725,-4.503 2.15625,-6.25 1.755,-2.577 6.9975,-4.1575 7.4375,-7.4375 0.298,-2.223 -1.81875,-4.504 -0.46875,-6 4.485,1.836 7.937,4.71275 8.875,10.09375 -1.857,1.009 -5.6595,0.0165 -7.4375,1.1875 -1.854,1.221 -2.103,5.909 -3.125,8.875 -0.845,2.454 -2.6135,6.1045 -4.3125,7.9375 -1.451,1.566 -3.81925,2.8305 -5.03125,4.3125 -2.781,3.401 -4.4827,8.13075 -6.9687,12.46875 -2.323,4.053 -5.5696,7.74925 -7.9375,11.78125 -2.2441,3.821 -4.5543,8.189 -8.1563,11.5 -3.707,3.408 -6.514,7.23725 -8.375,11.28125 -2.403,5.223 -2.3798,10.52875 -3.8438,15.84375 -4.117,14.95 -14.165,26.39475 -18.5,40.09375 13.085,-18.655 25.6813,-37.65225 38.4063,-56.65625 6.345,-9.477 12.44375,-19.2135 18.96875,-28.5625 6.554,-9.389 13.61375,-18.4225 18.96875,-28.5625 -0.339,-1.233 -1.222,-3.0495 -0.5,-4.5625 3.761,-1.952 7.917,2.19775 12.25,1.21875 6.089,-1.376 0.4465,-7.241 -1.6875,-9.375 -2.099,-2.1 -4.09425,-3.339 -5.28125,-5.75 2.406,1.059 4.13675,2.99925 6.46875,4.78125 1.709,1.306 4.98875,4.3285 6.96875,4.5625 1.826,0.216 3.86225,-0.9485 5.53125,-0.9375 5.997,0.039 9.09275,5.89225 15.59375,5.28125 0.94095,-2.999 1.02775,-7.70125 0.96875,-11.28125 -0.071,-4.365 -3.196,-5.40825 -2.875,-8.40625 10.034,0.566 1.448,18.036 11.75,18 2.39,-0.007 4.4865,-2.10825 7.6875,-2.40625 5.399,-0.503 10.18325,0.0655 13.90625,-1.1875 2.003,-0.674 4.293,-3.56925 6.25,-5.28125 5.775,-5.052 12.24225,-10.222 17.03125,-15.125 3.457,4.651 12.22925,1.08775 17.53125,0.46875 11.34754,-2.04416 16.58184,-5.83644 30.46875,-14.40625 6.291,-4.188 13.0585,-7.86675 16.3125,-15.09375"
               id="path3929" />
            <path
               inkscape:connector-curvature="0"
               style="fill:#eccc79;fill-opacity:1;stroke:none"
               d="m -911.96875,322.76397 c -4.13356,-0.01 -8.59562,3.54406 -10.46875,5.5625 8.114,-0.228 13.53525,2.9965 17.03125,7.4375 0.645,0.818 1.3335,1.785 1.6875,2.875 3.218,9.879 0.73775,23.38375 9.84375,27.84375 4.797,-4.072 0.787,-12.305 3.375,-18 1.489,-3.276 5.78675,-4.408 9.34375,-6 2.973,-1.33 8.2585,-3.7965 7.9375,-7.4375 -0.33,-3.742 -10.51225,-7.62725 -14.40625,-7.90625 -5.775,-0.413 -10.816,0.0562 -15.375,-1.21875 -3.1,-0.868 -5.43725,-2.786 -8.15625,-3.125 -0.27188,-0.0342 -0.53693,-0.0306 -0.8125,-0.0312 z"
               id="path3931" />
            <path
               inkscape:connector-curvature="0"
               style="fill:#eccc79;fill-opacity:1;stroke:none"
               d="m -862.0625,362.76397 c -0.20493,0.0215 -0.41481,0.0817 -0.625,0.125 -0.282,0.058 -0.30875,0.173 -0.46875,0.25 -4.33,2.074 -7.94,5.354 -12,8.875 -2.755,2.39 -9.693,7.083 -8.875,12 0.404,2.431 3.844,5.07025 6.25,5.03125 2.716,-0.044 5.308,-4.761 8.625,-6.25 3.325,-1.492 7.7475,-0.94425 10.5625,-1.90625 2.395,-0.818 6.093,-5.48325 6,-8.15625 -0.041,-1.196 -1.789,-3.76025 -2.875,-5.28125 -1.6905,-2.3695 -3.35601,-4.6281 -6,-4.6875 -0.18885,-0.004 -0.38882,-0.0215 -0.59375,0 z"
               id="path3933" />
            <path
               inkscape:connector-curvature="0"
               style="fill:#eccc79;fill-opacity:1;stroke:none"
               d="m -898.6875,372.73272 c 5.055,2.305 6.54975,8.184 10.09375,12 -0.964,-6.236 -3.80875,-11.885 -10.09375,-12 z"
               id="path3935" />
            <path
               inkscape:connector-curvature="0"
               style="fill:#eccc79;fill-opacity:1;stroke:none"
               d="m -853.3125,408.01397 c -4.811,0.152 -8.85175,1.51475 -12.46875,3.34375 -3.823,1.934 -7.72925,5.59825 -11.78125,8.65625 -3.865,2.918 -8.13975,5.71325 -12.21875,8.40625 -5.685,3.755 -13.26175,7.44 -19.21875,11.75 -1.778,1.286 -4.96925,3.84125 -5.03125,5.28125 -0.102,2.299 4.73875,7.09675 6.46875,6.96875 2.816,-0.208 2.82625,-6.055 5.78125,-6.25 2.292,-0.151 3.14225,2.92675 4.78125,3.59375 3.684,1.501 9.548,0.93325 12,-0.21875 3.543,-1.667 6.325,-6.73375 9.375,-10.34375 1.558,-1.843 2.8465,-3.30725 4.5625,-5.28125 1.458,-1.678 3.52425,-4.0675 5.28125,-4.5625 2.558,-0.719 6.68375,-0.217 9.59375,0.25 2.475,0.398 5.28525,2.5785 7.90625,1.9375 2.386,-0.584 4.9435,-6.29675 4.5625,-9.84375 -0.281,-2.623 -2.5315,-5.2535 -4.0625,-7.4375 -1.578,-2.25 -3.21525,-4.933 -5.53125,-6.25 z"
               id="path3937" />
            <path
               inkscape:connector-curvature="0"
               style="fill:#eccc79;fill-opacity:1;stroke:none"
               d="m -916.34375,412.79522 c -2.16579,0.30251 -5.21375,4.69219 -5.375,6 -0.514,4.192 3.764,7.67875 6.5,10.09375 2.801,2.473 6.4605,5.56425 9.8125,5.28125 3.684,-0.312 5.99025,-4.22775 8.40625,-6.46875 -8.122,-1.08 -13.1025,-2.887 -16.0625,-9.125 -0.83,-1.749 -1.251,-5.56325 -2.875,-5.78125 -0.13556,-0.0183 -0.26186,-0.0202 -0.40625,0 z"
               id="path3939" />
            <path
               inkscape:connector-curvature="0"
               style="fill:#eccc79;fill-opacity:1;stroke:none"
               d="m -837.9375,443.29522 c -3.61307,0.26849 -8.38,2.84062 -11.78125,4.3125 -8.407,3.641 -15.62125,6.7965 -23.28125,10.5625 -3.446,1.693 -8.57425,3.82 -10.78125,6.25 -1.71,1.884 -3.48225,6.56675 -2.65625,9.84375 0.488,1.938 2.8905,4.22 4.3125,5.75 1.308,1.408 3.22225,4.32825 5.28125,4.78125 2.692,0.594 5.61225,-0.9565 8.65625,-1.1875 6.864,-0.521 11.71675,-0.906 15.34375,-2.625 4.362,-2.068 6.376,-7.1435 9.375,-10.5625 2.573,-2.934 5.6935,-4.7945 7.6875,-7.9375 -0.851,-5.156 4.814,-5.80375 5.5,-9.84375 0.6,-3.529 -3.0775,-9.28775 -6.9375,-9.34375 -0.22975,-0.003 -0.47788,-0.0179 -0.71875,0 z"
               id="path3941" />
            <path
               inkscape:connector-curvature="0"
               style="fill:#eccc79;fill-opacity:1;stroke:none"
               d="m -971.625,530.63897 c -6.944,4.15 -12.0915,13.35625 -16.8125,20.40625 -12.512,18.685 -26.766,39.738 -35.75,59.75 10.861,-11.907 16.9952,-27.1995 25.90625,-40.5625 4.451,-6.675 9.0775,-13.1845 13.6875,-19.6875 4.623,-6.524 9.6765,-12.85425 13.4375,-19.90625 z"
               id="path3943" />
          </g>
        </g>
        <g
           transform="matrix(0.29528019,0,0,0.29528019,22.941518,848.175)"
           id="g4932"
           style="fill:#231f20;fill-opacity:1;stroke:#eccc79;stroke-width:3;stroke-miterlimit:4;stroke-opacity:1;stroke-dasharray:none">
          <path
             id="path4069"
             d="m 301.44,232.08 c -4.78,2.719 -10.083,4.749 -13.68,8.64 2.278,3.643 4.106,7.734 6.72,11.04 3.494,-1.465 7.833,-2.087 11.04,-3.84 0.697,0.684 1.051,0.314 1.68,0.24 4.565,-0.537 10.416,-2.732 15.6,-4.56 10.169,-3.586 17.877,-7 23.76,-13.68 -0.562,-1.117 -1.34,-2.02 -1.68,-3.36 2.341,-2.219 5.48,-3.64 7.44,-6.24 -2.62,-4.18 -4.713,-8.887 -7.681,-12.72 -4.679,1.812 -9.957,5.334 -14.88,8.16 -9.66,5.545 -19.002,11.019 -28.319,16.32 z"
             style="fill:#343235;fill-opacity:1;fill-rule:evenodd;stroke:#000000;stroke-width:3;stroke-miterlimit:4;stroke-opacity:1;stroke-dasharray:none"
             inkscape:connector-curvature="0" />
          <path
             id="path4063"
             d="m 444,446.4 c 3.304,-1.399 10.212,-6.051 10.32,-10.08 0.033,-1.264 -0.854,-3.73 -1.44,-5.28 -1.16,-3.068 -3.466,-6.352 -5.28,-9.6 -5.286,-9.469 -11.063,-20.069 -15.84,-29.04 h -0.479 c -7.539,3.98 -14.759,8.281 -23.28,11.279 8.795,12.677 16.177,26.718 25.68,39.12 2.827,3.691 5.231,5.755 10.319,3.601 z"
             style="fill:#343235;fill-opacity:1;fill-rule:evenodd;stroke:#000000;stroke-width:3;stroke-miterlimit:4;stroke-opacity:1;stroke-dasharray:none"
             inkscape:connector-curvature="0" />
          <path
             id="path4051"
             d="m 344.64,611.28 c -0.342,-0.856 0.557,-1.573 0.96,-2.16 16.859,-24.486 39.93,-44.554 63.601,-62.64 12.067,-9.222 25.422,-18.182 34.08,-31.2 8.602,-12.935 13.28,-30.059 13.2,-51.36 0.128,-0.991 2.172,-0.068 2.159,-1.2 0.288,-1.8 -1.872,-1.854 -1.68,-3.359 0.18,-1.41 1.113,-0.748 2.16,-1.92 0.324,-1.685 -0.974,-1.747 -1.2,-2.881 -0.032,-1.312 1.739,-0.82 1.68,-2.159 0.083,-1.362 -1.588,-0.972 -1.92,-1.92 -0.437,-1.694 1.271,-1.78 0.48,-3.12 -0.397,-1.455 -2.024,-0.204 -2.88,-1.2 -0.82,-0.971 0.956,-1.898 -0.24,-2.641 -1.952,0.388 -3.432,2.128 -5.28,3.36 -1.767,1.178 -3.577,2.731 -6,3.12 0.421,0.71 1.279,-0.139 1.92,0 -0.738,0.982 -0.883,3.248 1.44,2.64 -0.67,1.469 -0.973,3.34 1.439,3.36 -0.038,1.081 -1.663,0.576 -1.439,1.92 -0.14,1.34 1.485,0.915 1.92,1.68 -0.097,1.504 -2.265,0.936 -2.16,2.641 0.168,1.191 1.974,0.746 2.88,1.2 -0.247,21.912 -4.598,38.695 -13.68,51.6 -8.619,12.246 -22.282,21.936 -34.08,31.2 -24.609,19.324 -47.706,39.128 -65.52,65.04 h 8.16 z"
             style="fill:#343235;fill-opacity:1;fill-rule:evenodd;stroke:#000000;stroke-width:3;stroke-miterlimit:4;stroke-opacity:1;stroke-dasharray:none"
             inkscape:connector-curvature="0" />
          <path
             id="path4035"
             d="m 209.28125,30 c -0.057,0.343 -0.38375,0.40375 -0.46875,0.71875 1.534,5.752 3.19525,10.83875 4.78125,15.84375 1.566,4.942 4.30075,9.2295 6.71875,13.6875 4.825,8.897 9.35925,17.628 14.40625,26.625 -1.676,2.166 -4.2895,3.66575 -4.3125,6.96875 -0.015,2.107 2.47675,5.89225 3.84375,8.40625 21.703,39.906 44.273,80.967 65.5,119.75 -2.359,2.836 -9.29925,3.357 -7.65625,8.625 -1.672,1.607 -4.6995,1.8955 -5.0625,4.8125 2.556,-0.272 4.57475,-2.11275 6.71875,-3.34375 14.625,-8.394 29.70925,-17.06975 44.15625,-25.21875 0.926,-0.522 2.57825,-0.95925 2.90625,-2.15625 -1.182,-0.819 -1.83025,0.66575 -2.90625,0.71875 -3.344,-5.906 -11.04,3.7025 -14.875,4.3125 -21.311,-37.009 -42.16875,-74.44875 -63.34375,-111.59375 5.823,-2.254 -1.25225,-12.77425 -5.78125,-10.78125 -1.437,-1.475 -1.4885,-4.56625 -3.8125,-5.28125 -1.916,-0.589 -4.22475,0.31275 -6.71875,0.21875 C 232.508,64.5395 223.734,44.656 209.75,30 l -0.46875,0 z m 86.625,140.15625 c 2.348,0.076 3.34025,2.7445 2.90625,4.8125 -2.315,-0.15 -3.33525,-2.6945 -2.90625,-4.8125 z m -15.8125,9.59375 c 1.638,0.318 2.66125,2.42075 2.15625,4.09375 -1.813,-0.142 -2.79625,-2.28575 -2.15625,-4.09375 z m 12.125,0.875 c 1.35487,0.0153 2.037,0.96725 2.25,2 0.81,3.926 -5.262,5.15475 -5.5,0.96875 -0.054,-0.949 0.28625,-2.085 1.65625,-2.625 0.607,-0.239 1.14213,-0.34886 1.59375,-0.34375 z m 10.1875,1.53125 0.46875,0 c 1.86,0.408 2.93725,2.8045 2.40625,4.8125 -2.206,-0.354 -2.959,-2.1685 -2.875,-4.8125 z m -15.375,10.3125 c 1.786,0.294 2.38325,1.78575 2.40625,3.84375 -2.024,0.069 -2.91325,-2.16875 -2.40625,-3.84375 z m 11.75,0.4375 c 4.03511,-0.0941 3.02531,7.06766 -1.40625,5.8125 -1.498,-0.424 -3.085,-4.46625 0,-5.53125 0.52744,-0.18206 0.98883,-0.27152 1.40625,-0.28125 z m 10.8125,1.5 0.5,0 c 1.842,0.426 3.028,2.65025 2.375,4.78125 -2.237,-0.323 -2.897,-2.19825 -2.875,-4.78125 z m -16.0625,9.84375 c 1.646,0.31 2.84525,2.2045 2.15625,4.0625 -1.731,-0.282 -2.64625,-2.3245 -2.15625,-4.0625 z m 11.5625,0.78125 c 3.62169,-0.41925 3.50906,5.39719 0.1875,5.4375 -3.092,0.038 -4.07175,-4.29725 -0.96875,-5.28125 0.27481,-0.0871 0.5398,-0.1283 0.78125,-0.15625 z"
             style="fill:#ececec;fill-opacity:1;fill-rule:evenodd;stroke:#000000;stroke-width:3;stroke-miterlimit:4;stroke-opacity:1;stroke-dasharray:none"
             inkscape:connector-curvature="0" />
        </g>
      </g>
    </g>
  </g>
</svg>
