<?xml version="1.0" encoding="UTF-8" standalone="no"?>
<!-- Created with Inkscape (http://www.inkscape.org/) -->

<svg
   xmlns:dc="http://purl.org/dc/elements/1.1/"
   xmlns:cc="http://creativecommons.org/ns#"
   xmlns:rdf="http://www.w3.org/1999/02/22-rdf-syntax-ns#"
   xmlns:svg="http://www.w3.org/2000/svg"
   xmlns="http://www.w3.org/2000/svg"
   xmlns:sodipodi="http://sodipodi.sourceforge.net/DTD/sodipodi-0.dtd"
   xmlns:inkscape="http://www.inkscape.org/namespaces/inkscape"
   sodipodi:docname="pppwrs_006_soldering_gun_logo.svg"
   inkscape:version="0.48.3.1 r9886"
   version="1.1"
   id="svg2"
   height="361.0961"
   width="989.75726"
   inkscape:export-filename="/home/matthew/repo/HackPittsburghMedia/pppwrs_006_soldering_gun_logo.png"
   inkscape:export-xdpi="90"
   inkscape:export-ydpi="90">
  <defs
     id="defs4" />
  <sodipodi:namedview
     id="base"
     pagecolor="#ffffff"
     bordercolor="#666666"
     borderopacity="1.0"
     inkscape:pageopacity="1"
     inkscape:pageshadow="2"
     inkscape:zoom="0.56326942"
     inkscape:cx="621.60591"
     inkscape:cy="258.65851"
     inkscape:document-units="px"
     inkscape:current-layer="layer1"
     showgrid="false"
     inkscape:window-width="1280"
     inkscape:window-height="996"
     inkscape:window-x="1280"
     inkscape:window-y="0"
     inkscape:window-maximized="1"
     showguides="false"
     inkscape:guide-bbox="true"
     fit-margin-top="5"
     fit-margin-left="5"
     fit-margin-right="5"
     fit-margin-bottom="5"
     inkscape:object-nodes="true"
     inkscape:snap-smooth-nodes="true"
     inkscape:snap-global="false">
    <sodipodi:guide
       orientation="-0.02119667,0.99977533"
       position="442.53872,532.10304"
       id="guide3136" />
    <sodipodi:guide
       position="453.66372,228.46493"
       orientation="0,34.5"
       id="guide4021" />
    <sodipodi:guide
       orientation="0,1"
       position="607.78288,135.08142"
       id="guide3840" />
    <sodipodi:guide
       orientation="1,0"
       position="880.82113,214.64809"
       id="guide3874" />
    <sodipodi:guide
       orientation="0,1"
       position="880.82113,208.70287"
       id="guide3876" />
    <sodipodi:guide
       orientation="0,1"
       position="880.82113,202.99267"
       id="guide3878" />
    <sodipodi:guide
       position="902.9375,205.84777"
       orientation="0,-3.0625"
       id="guide3886" />
  </sodipodi:namedview>
  <metadata
     id="metadata7">
    <rdf:RDF>
      <cc:Work
         rdf:about="">
        <dc:format>image/svg+xml</dc:format>
        <dc:type
           rdf:resource="http://purl.org/dc/dcmitype/StillImage" />
        <dc:title />
      </cc:Work>
    </rdf:RDF>
  </metadata>
  <g
     inkscape:label="Layer 1"
     inkscape:groupmode="layer"
     id="layer1"
     transform="translate(-7.3362829,-318.24409)">
    <path
       style="fill:#000000"
       d="m 322.84375,426.09375 c -11.82032,0.10432 -24.64289,3.67857 -36.59375,10.875 -30.73851,18.50976 -64.59953,56.20024 -82.8125,92.1875 -17.64791,34.87077 -26.18303,62.24691 -27.34375,87.75 -0.67126,14.74867 0.54698,21.54254 5.71875,32.15625 6.00345,12.32052 16.4294,20.55735 30.25,23.90625 23.51663,5.69837 51.15555,-6.40401 81.09375,-35.5 32.32882,-31.41936 56.14449,-69.60685 67.0625,-107.46875 11.12401,-38.57627 10.88511,-71.26112 -0.6875,-87.375 -7.93355,-11.04679 -21.48994,-16.66538 -36.6875,-16.53125 z M 325,452.96875 c 4.11061,-0.0582 5.27999,0.3581 6.96875,2.4375 1.74872,2.15324 1.96171,3.40157 1.4375,9 -1.29954,13.87893 -7.60659,30.71008 -22.65625,60.5 -16.34323,32.35044 -27.42372,50.5507 -46.09375,75.65625 -17.69743,23.79769 -31.4108,37.99143 -41.4375,42.875 -5.00893,2.43962 -7.5764,2.4851 -10.375,0.21875 -3.32733,-2.69453 -4.30896,-8.89869 -2.5,-15.84375 3.30833,-12.70154 7.36105,-22.11231 22.1875,-51.34375 22.36923,-44.10256 28.46886,-54.69158 44.8125,-78.09375 22.44838,-32.14344 36.1753,-45.24371 47.65625,-45.40625 z"
       id="path3038"
       inkscape:connector-curvature="0" />
    <path
       style="fill:#000000"
       d="m 158.75,425.53125 c -7.52913,0.10364 -14.50351,1.66131 -22.8125,4.96875 -34.41582,13.69945 -74.363697,54.86406 -97.03125,99.96875 -12.815467,25.50066 -20.012096,45.22571 -24.78125,67.9375 -2.137458,10.17906 -2.427512,32.25313 -0.5,38.84375 5.265351,18.00346 16.946543,30.28343 33.03125,34.71875 7.107916,1.95998 19.68301,1.71576 28.46875,-0.53125 16.87475,-4.31583 37.729,-18.04149 57.59375,-37.90625 31.89284,-31.89284 53.79315,-68.42455 64.5625,-107.71875 7.96317,-29.05531 10.1809,-56.68788 5.71875,-71.03125 -5.58184,-17.94258 -18.63645,-27.7013 -38.9375,-29.09375 -1.82293,-0.12503 -3.57501,-0.18017 -5.3125,-0.15625 z m 2.125,26.875 c 9.16459,0 10.85798,5.24188 6.9375,21.59375 -5.25897,21.93455 -28.03883,68.45181 -49.5625,101.125 -23.933577,36.33145 -44.9275,61.39588 -56.21875,67.15625 -7.420752,3.78578 -13.245947,2.05317 -14.875,-4.4375 -1.073251,-4.27617 0.233776,-13.37585 3.1875,-22.4375 2.548575,-7.81871 29.64675,-62.78972 40.1875,-81.5 6.63227,-11.77256 22.26958,-35.37141 32.09375,-48.46875 16.93718,-22.58025 29.02689,-33.03125 38.25,-33.03125 z"
       id="path3034"
       inkscape:connector-curvature="0" />
    <path
       style="font-size:644.19567871px;font-style:normal;font-variant:normal;font-weight:normal;font-stretch:normal;line-height:125%;letter-spacing:0px;word-spacing:0px;fill:#000000;fill-opacity:1;stroke:none;font-family:'007 GoldenEye';-inkscape-font-specification:'007 GoldenEye'"
       d="m 444.13134,539.6763 c -8.33939,3.07026 -16.95666,8.99081 -25.85184,17.76168 -8.70999,8.77152 -15.10346,18.74875 -19.18038,29.93173 -5.00364,13.37636 -5.65225,26.20422 -1.94584,38.48364 3.70629,12.06064 13.62078,18.09084 29.7435,18.09061 12.23089,-3.06968 23.16462,-12.49872 32.80127,-28.28713 9.6364,-16.00717 14.73263,-31.24711 15.28871,-45.71988 0.18519,-21.92768 -10.09994,-32.01455 -30.85542,-30.26065 m 77.27754,42.75961 c -5.00376,16.88483 -12.87975,32.34407 -23.62803,46.37772 -14.82555,19.29688 -33.44998,32.89222 -55.87332,40.78614 -22.42354,7.67494 -44.1057,6.03038 -65.04656,-4.93388 -14.45481,-9.64807 -22.88676,-23.13378 -25.29589,-40.45713 -3.89167,-27.62901 -0.18531,-54.38115 11.11908,-80.2565 11.48967,-25.87469 26.87104,-48.24123 46.14414,-67.09969 19.27297,-18.85767 40.67716,-32.89157 64.21262,-42.10176 23.72053,-9.20932 46.0513,-11.0732 66.9924,-5.59164 l 2.50179,7.23624 c -1.48274,7.89451 -2.22401,11.95118 -2.22381,12.17004 -0.74147,3.94746 -1.5754,7.12702 -2.50179,9.53868 -25.01808,-6.3587 -49.10938,-3.39842 -72.27395,8.88083 -22.97951,12.0608 -39.10215,33.44059 -48.36796,64.13942 12.78685,-8.77085 27.14897,-14.6914 43.08639,-17.76168 15.93721,-3.06956 31.0406,-1.31532 45.31022,5.26272 11.11889,5.26307 17.32703,14.36318 18.62444,27.30037 1.48236,12.93783 0.55577,25.10785 -2.77977,36.51012"
       id="path3182"
       inkscape:connector-curvature="0" />
    <text
       xml:space="preserve"
       style="font-size:137.74765015px;font-style:normal;font-variant:normal;font-weight:bold;font-stretch:normal;line-height:125%;letter-spacing:0px;word-spacing:0px;fill:#000000;fill-opacity:1;stroke:none;font-family:'007 GoldenEye';-inkscape-font-specification:'007 GoldenEye Bold'"
       x="46.820396"
       y="339.80252"
       id="text5355"
       sodipodi:linespacing="125%"
       transform="scale(0.71851165,1.3917659)"><tspan
         sodipodi:role="line"
         id="tspan5357"
         x="46.820396"
         y="339.80252"
         style="font-size:141.13095093px;font-weight:bold;-inkscape-font-specification:'007 GoldenEye Bold'">HackPittsburgh</tspan></text>
    <g
       id="g3918"
       transform="translate(-23.079542,0)">
      <g
         style="fill:#000000;fill-opacity:1"
         transform="matrix(0.45510563,0,0,0.45510563,737.86662,581.48095)"
         id="g3246">
        <path
           style="fill:#000000;fill-opacity:1"
           d="m 439.39324,-294.63782 c 10.39878,-14.77033 15.47721,-34.46296 6.61318,-51.21583 -7.74315,-20.01121 -22.49144,-41.75564 -13.56936,-63.77704 7.34878,-18.11154 33.1675,-22.63437 45.59152,-7.07001 15.31495,13.06161 8.90593,39.48231 -10.47713,44.21009 -18.65104,7.92691 -30.48413,-19.08692 -15.67388,-30.37428 12.78601,-12.37706 28.27866,7.78452 15.68051,19.04832 6.90729,-17.01885 -19.0092,-24.12328 -17.00747,-4.74065 0.17575,20.44143 28.91995,16.01163 30.36316,-1.58337 5.83875,-19.9598 -24.85633,-36.6088 -37.00779,-18.73197 -13.00243,18.65347 -0.75017,40.89516 7.60955,58.63424 10.93031,19.62382 3.03472,42.71239 -12.29015,57.41269 -5.24734,6.5321 -0.58384,-0.25457 0.16786,-1.81219 z"
           id="path3213"
           inkscape:connector-curvature="0" />
        <path
           style="fill:#000000;fill-opacity:1"
           d="m 430.44895,-295.01657 c 9.13329,-28.43587 -12.10165,-53.26542 -22.67323,-78.02292 -9.21592,-17.40028 -10.68873,-38.76629 -0.78318,-56.27258 19.43752,-38.07646 62.94775,-59.64509 104.59968,-61.03424 25.07596,-0.85307 49.47947,20.59717 46.8192,46.69821 -0.094,20.94388 -20.00641,46.35037 -42.72425,37.78656 -23.57514,-9.56312 -30.23455,-48.02262 -7.44485,-61.97304 18.0313,-8.06419 41.18059,20.07579 24.91104,34.24545 -12.45375,14.13091 -19.92761,-18.35712 -14.50596,-12.12559 8.93233,21.21872 21.66054,-16.85622 0.53572,-15.45988 -22.19921,-1.80879 -25.64687,30.42478 -11.0856,42.07488 17.92365,19.17184 48.17225,-1.68463 45.59608,-25.05046 0.0884,-26.83653 -29.90947,-41.48119 -53.72115,-39.32816 -42.05941,-0.21518 -83.30102,34.04091 -85.58259,76.92428 -1.85057,34.92809 30.02629,63.67112 21.63545,99.00259 -1.32668,4.36229 -2.56503,8.96897 -5.57636,12.5349 z"
           id="path3211"
           inkscape:connector-curvature="0" />
        <path
           style="fill:#000000;fill-opacity:1"
           d="m 422,-299.95632 c -4.72733,-35.3919 -41.17875,-56.17688 -46.67237,-91.5283 -4.91206,-25.93111 5.32606,-53.09615 25.27458,-70.17428 21.89225,-19.94504 52.25957,-33.67499 63.48936,-62.88792 6.05238,-22.17498 -20.92619,-42.63183 -41.23744,-35.467 -13.50993,6.26303 -8.91817,32.28768 7.74966,28.32576 14.26162,-4.51631 -0.66889,-27.26663 -4.35026,-11.29028 -1.215,-20.27455 26.77262,1.08726 12.04534,12.01496 -13.64319,15.64024 -41.1497,-1.34077 -31.80631,-20.6425 7.26494,-21.15973 35.64501,-19.15063 49.0538,-5.35495 19.76031,14.45909 16.40734,43.23911 -0.2469,58.67525 -22.62346,25.90879 -57.67128,43.37902 -67.1326,78.88625 -8.56737,27.06018 2.94542,55.40073 19.29035,76.97413 9.34605,11.99047 18.51205,36.29197 14.54279,42.46888 z"
           id="path3207"
           inkscape:connector-curvature="0" />
      </g>
      <g
         transform="matrix(1.2112347,0,0,1.2112347,-143.8104,-114.72855)"
         id="g3891">
        <path
           inkscape:connector-curvature="0"
           style="fill:#000000;fill-opacity:1;stroke:none"
           d="m 607.78125,132.34375 c -11.8214,0 -21.34375,9.52235 -21.34375,21.34375 l 0,46.125 c 0,11.82141 9.52235,21.34375 21.34375,21.34375 l 9.40625,0 0,0.0625 c 7.81949,0.64799 13.96875,7.16947 13.96875,15.15625 0,3.04977 -0.89456,5.89878 -2.4375,8.28125 -6.76893,21.71727 -22.86443,51.08589 -23.5625,78.125 -0.0834,3.23115 0.75596,5.5625 3.84375,5.5625 l 41.9375,0 c 3.08779,0 6.35712,-2.4747 7.3125,-5.5625 l 21.5625,-69.71875 29.15625,0 c 2.86358,0 5.21875,-2.35517 5.21875,-5.21875 l 0,-26.6875 8.03125,0 c 11.82141,0 21.34375,-9.52234 21.34375,-21.34375 l 0,-20 63.03125,0 c 3.0878,0 5.5625,-2.50595 5.5625,-5.59375 l 0,-4.8125 c 0,-3.0878 -2.4747,-5.59375 -5.5625,-5.59375 l -63.03125,0 0,-8.71875 63.03125,0 c 3.0878,0 5.5625,-2.4747 5.5625,-5.5625 l 0,-4.84375 c 0,-3.0878 -2.4747,-5.5625 -5.5625,-5.5625 l -68.78125,0 c -3.89089,-4.16763 -9.41818,-6.78125 -15.59375,-6.78125 l -114.4375,0 z m 90.96875,88.8125 12.4375,0 0,26.6875 c 0,1.25348 -0.96527,2.21875 -2.21875,2.21875 l -10.71875,0 c 0.31243,-0.54479 0.5,-1.16887 0.5,-1.84375 l 0,-4.84375 c -3.4691,-0.79806 -6.125,-5.20325 -6.125,-10.5625 0,-5.35925 2.6559,-9.79569 6.125,-10.59375 l 0,-1.0625 z"
           transform="translate(7.3362829,323.11428)"
           id="rect3021" />
        <path
           style="fill:none;stroke:#000000;stroke-width:3;stroke-linecap:round;stroke-linejoin:round;stroke-miterlimit:4;stroke-opacity:1;stroke-dasharray:none"
           d="m 808.73537,171.67553 14.16356,0 18.44224,-18.44224 39.47996,0"
           id="path3870"
           inkscape:connector-curvature="0"
           transform="translate(7.3362829,323.11428)"
           sodipodi:nodetypes="cccc" />
        <path
           style="fill:none;stroke:#000000;stroke-width:3;stroke-linecap:round;stroke-linejoin:round;stroke-miterlimit:4;stroke-opacity:1;stroke-dasharray:none"
           d="m 810.59325,147.52309 70.22788,0"
           id="path3872"
           inkscape:connector-curvature="0"
           transform="translate(7.3362829,323.11428)"
           sodipodi:nodetypes="cc" />
        <path
           style="fill:#000000;fill-opacity:1;stroke:#000000;stroke-width:3;stroke-linecap:round;stroke-linejoin:round;stroke-miterlimit:4;stroke-opacity:1;stroke-dasharray:none"
           d="m 880.82113,147.52309 10.65538,2.8551 -10.65538,2.8551 z"
           id="path3888"
           inkscape:connector-curvature="0"
           transform="translate(7.3362829,323.11428)" />
      </g>
    </g>
  </g>
</svg>
