<?xml version="1.0" encoding="UTF-8" standalone="no"?>
<!-- Created with Inkscape (http://www.inkscape.org/) -->

<svg
   xmlns:dc="http://purl.org/dc/elements/1.1/"
   xmlns:cc="http://creativecommons.org/ns#"
   xmlns:rdf="http://www.w3.org/1999/02/22-rdf-syntax-ns#"
   xmlns:svg="http://www.w3.org/2000/svg"
   xmlns="http://www.w3.org/2000/svg"
   xmlns:sodipodi="http://sodipodi.sourceforge.net/DTD/sodipodi-0.dtd"
   xmlns:inkscape="http://www.inkscape.org/namespaces/inkscape"
   sodipodi:docname="pppwrs_006_soldering_iron_logo.svg"
   inkscape:version="0.48.3.1 r9886"
   version="1.1"
   id="svg2"
   height="356.72043"
   width="828.61469"
   inkscape:export-filename="/home/matthew/repo/HackPittsburghMedia/pppwrs_006_soldering_iron_logo.png"
   inkscape:export-xdpi="90"
   inkscape:export-ydpi="90">
  <defs
     id="defs4" />
  <sodipodi:namedview
     id="base"
     pagecolor="#ffffff"
     bordercolor="#666666"
     borderopacity="1.0"
     inkscape:pageopacity="1"
     inkscape:pageshadow="2"
     inkscape:zoom="0.6728097"
     inkscape:cx="493.49889"
     inkscape:cy="-40.876339"
     inkscape:document-units="px"
     inkscape:current-layer="layer1"
     showgrid="false"
     inkscape:window-width="1280"
     inkscape:window-height="996"
     inkscape:window-x="1280"
     inkscape:window-y="0"
     inkscape:window-maximized="1"
     showguides="false"
     inkscape:guide-bbox="true"
     fit-margin-top="5"
     fit-margin-left="5"
     fit-margin-right="5"
     fit-margin-bottom="5">
    <sodipodi:guide
       orientation="-0.02119667,0.99977533"
       position="442.53872,532.59751"
       id="guide3136" />
    <sodipodi:guide
       position="453.66372,228.9594"
       orientation="0,34.5"
       id="guide4021" />
  </sodipodi:namedview>
  <metadata
     id="metadata7">
    <rdf:RDF>
      <cc:Work
         rdf:about="">
        <dc:format>image/svg+xml</dc:format>
        <dc:type
           rdf:resource="http://purl.org/dc/dcmitype/StillImage" />
        <dc:title></dc:title>
      </cc:Work>
    </rdf:RDF>
  </metadata>
  <g
     inkscape:label="Layer 1"
     inkscape:groupmode="layer"
     id="layer1"
     transform="translate(-7.3362829,-323.11428)">
    <path
       style="fill:#000000"
       d="m 322.84375,426.09375 c -11.82032,0.10432 -24.64289,3.67857 -36.59375,10.875 -30.73851,18.50976 -64.59953,56.20024 -82.8125,92.1875 -17.64791,34.87077 -26.18303,62.24691 -27.34375,87.75 -0.67126,14.74867 0.54698,21.54254 5.71875,32.15625 6.00345,12.32052 16.4294,20.55735 30.25,23.90625 23.51663,5.69837 51.15555,-6.40401 81.09375,-35.5 32.32882,-31.41936 56.14449,-69.60685 67.0625,-107.46875 11.12401,-38.57627 10.88511,-71.26112 -0.6875,-87.375 -7.93355,-11.04679 -21.48994,-16.66538 -36.6875,-16.53125 z M 325,452.96875 c 4.11061,-0.0582 5.27999,0.3581 6.96875,2.4375 1.74872,2.15324 1.96171,3.40157 1.4375,9 -1.29954,13.87893 -7.60659,30.71008 -22.65625,60.5 -16.34323,32.35044 -27.42372,50.5507 -46.09375,75.65625 -17.69743,23.79769 -31.4108,37.99143 -41.4375,42.875 -5.00893,2.43962 -7.5764,2.4851 -10.375,0.21875 -3.32733,-2.69453 -4.30896,-8.89869 -2.5,-15.84375 3.30833,-12.70154 7.36105,-22.11231 22.1875,-51.34375 22.36923,-44.10256 28.46886,-54.69158 44.8125,-78.09375 22.44838,-32.14344 36.1753,-45.24371 47.65625,-45.40625 z"
       id="path3038"
       inkscape:connector-curvature="0" />
    <path
       style="fill:#000000"
       d="m 158.75,425.53125 c -7.52913,0.10364 -14.50351,1.66131 -22.8125,4.96875 -34.41582,13.69945 -74.363697,54.86406 -97.03125,99.96875 -12.815467,25.50066 -20.012096,45.22571 -24.78125,67.9375 -2.137458,10.17906 -2.427512,32.25313 -0.5,38.84375 5.265351,18.00346 16.946543,30.28343 33.03125,34.71875 7.107916,1.95998 19.68301,1.71576 28.46875,-0.53125 16.87475,-4.31583 37.729,-18.04149 57.59375,-37.90625 31.89284,-31.89284 53.79315,-68.42455 64.5625,-107.71875 7.96317,-29.05531 10.1809,-56.68788 5.71875,-71.03125 -5.58184,-17.94258 -18.63645,-27.7013 -38.9375,-29.09375 -1.82293,-0.12503 -3.57501,-0.18017 -5.3125,-0.15625 z m 2.125,26.875 c 9.16459,0 10.85798,5.24188 6.9375,21.59375 -5.25897,21.93455 -28.03883,68.45181 -49.5625,101.125 -23.933577,36.33145 -44.9275,61.39588 -56.21875,67.15625 -7.420752,3.78578 -13.245947,2.05317 -14.875,-4.4375 -1.073251,-4.27617 0.233776,-13.37585 3.1875,-22.4375 2.548575,-7.81871 29.64675,-62.78972 40.1875,-81.5 6.63227,-11.77256 22.26958,-35.37141 32.09375,-48.46875 16.93718,-22.58025 29.02689,-33.03125 38.25,-33.03125 z"
       id="path3034"
       inkscape:connector-curvature="0" />
    <g
       id="g3170"
       transform="matrix(0.72130989,0,0,0.72130989,111.18829,324.21577)">
      <path
         inkscape:connector-curvature="0"
         id="path4063"
         d="m 728.2735,142.69854 c -1.21819,2.87136 -0.9025,6.1193 -1.62209,9.12426 -1.27454,0.35978 -2.35249,0.23569 -3.54832,0.30414 -0.94941,2.81728 -1.43328,5.62058 -1.6221,8.51598 l -150.24667,3.1428 c -3.56341,0.0506 -7.34139,-0.30431 -10.44221,0.20276 -1.56658,0.25629 -4.03621,0.68514 -5.06903,1.31795 -3.29061,2.01937 -3.86885,10.07256 -3.44694,13.48362 0.65003,5.25272 3.49158,6.21511 7.90769,6.79251 l 161.29716,4.96765 c 0.18885,2.8954 0.67275,5.69869 1.6221,8.51597 1.19583,0.0685 2.27378,-0.0556 3.54832,0.30415 0.71959,3.00495 0.4039,6.25289 1.62209,9.12425 4.72262,-0.17161 9.69322,0.32231 14.29467,-0.30414 0.7377,-4.74961 0.29117,-10.7832 0.30414,-16.2209 0.006,-2.9696 0.002,-5.79109 0,-8.71874 l 0,-15.30848 c 0.002,-2.92764 0.006,-5.74914 0,-8.71873 -0.013,-5.4377 0.43356,-11.4713 -0.30414,-16.22091 -4.60145,-0.62632 -9.57205,-0.13285 -14.29467,-0.30414 z"
         style="fill:#000000;fill-opacity:1;fill-rule:evenodd;stroke:#000000;stroke-width:2.87382722;stroke-miterlimit:4;stroke-opacity:1;stroke-dasharray:none"
         sodipodi:nodetypes="cccccccccccccccccccc" />
      <path
         id="path4035"
         d="m 954.68968,171.43595 c -0.25726,0.21152 -0.15117,0.51174 -0.37175,0.73315 -5.5066,1.48243 -10.5223,2.54065 -15.43409,3.62216 -4.84998,1.06792 -9.71674,0.85273 -14.57328,0.98202 -9.69199,0.25856 -19.10703,0.67884 -28.98835,0.80115 -0.99414,2.42788 -0.98655,5.31435 -3.71572,6.91549 -1.74079,1.02162 -6.0745,0.7675 -8.81489,0.83758 -43.50123,1.10896 -88.3759,2.05185 -130.71749,3.01783 -1.22286,3.31539 1.6691,9.32258 -3.48821,10.48276 -0.53234,2.1568 0.67842,4.80661 -1.56769,6.50491 -0.99859,-2.25075 -0.43841,-4.80716 -0.44409,-7.17545 -0.0412,-16.15342 -0.0688,-32.82277 -0.22807,-48.71118 -0.01,-1.01825 -0.4391,-2.59839 0.39683,-3.44383 1.24557,0.58834 0.32442,1.83728 0.79573,2.75532 6.50131,-0.0545 2.21623,10.93218 3.54703,14.40588 40.91012,-0.0467 81.9605,-0.6755 122.91828,-0.90006 -0.91911,-5.91038 11.19736,-5.07961 11.71321,-0.36776 1.91193,0.48565 4.50111,-0.95224 6.20742,0.63329 1.40635,1.30741 1.76406,3.65467 3.03662,5.67865 19.9495,0.50256 40.64738,-1.74216 59.50395,2.83921 l 0.2245,0.38888 z m -157.76484,-4.73349 c -1.18766,-1.91153 -3.87673,-1.45657 -5.38446,-0.10608 1.23324,1.84866 3.83284,1.47633 5.38446,0.10608 z m -0.38528,17.7132 c -1.04835,-1.20658 -3.28291,-1.0483 -4.42895,0.17194 0.98616,1.43604 3.23558,1.22497 4.42895,-0.17194 z m -6.53342,-9.63983 c -0.66162,-1.11668 -1.7781,-1.22662 -2.73689,-0.90866 -3.64496,1.20846 -1.75604,6.83435 1.83066,5.02683 0.81316,-0.40974 1.59263,-1.23613 1.38442,-2.63133 -0.0925,-0.61805 -0.25758,-1.11463 -0.47819,-1.48684 z m -6.14983,-7.71813 -0.2245,-0.38888 c -1.22935,-1.34767 -3.73347,-1.09348 -5.14498,0.30885 1.3503,1.66053 3.21628,1.41615 5.36951,0.0801 z m -1.1911,17.69451 c -1.09936,-1.34085 -2.62299,-1.12184 -4.3413,-0.15507 0.9122,1.71215 3.19455,1.37806 4.3413,0.15507 z m -5.99087,-9.53828 c -1.85463,-3.3926 -7.31238,0.87541 -4.14849,3.95066 1.06925,1.03967 5.18283,0.42012 4.58873,-2.64932 -0.10155,-0.52475 -0.24851,-0.95039 -0.44024,-1.30134 z m -6.42328,-8.25161 -0.23942,-0.4148 c -1.23568,-1.32408 -3.64896,-1.24265 -5.10407,0.31988 1.33939,1.70111 3.21125,1.35045 5.34355,0.095 z m -0.47291,18.04037 c -1.04556,-1.21705 -3.19165,-1.30455 -4.40306,0.15702 1.06305,1.30095 3.1959,1.08197 4.40306,-0.15702 z m -6.18623,-9.21811 c -1.38688,-3.20535 -6.15826,-0.32601 -4.60076,2.44887 1.44943,2.58334 5.51523,1.31967 4.84531,-1.72591 -0.0594,-0.26959 -0.15215,-0.50927 -0.24461,-0.72296 z"
         style="fill:none;stroke:#000000;stroke-width:2.87382722;stroke-miterlimit:4;stroke-opacity:1;stroke-dasharray:none"
         inkscape:connector-curvature="0" />
    </g>
    <g
       transform="translate(72,340)"
       id="g3174">
      <path
         inkscape:connector-curvature="0"
         style="fill:#000000"
         d="m 481.27628,572.40902 c 0.33992,-0.55 0.11492,-1 -0.5,-1 -0.61492,0 -0.83992,-0.45 -0.5,-1 0.33992,-0.55 0.18129,-1 -0.3525,-1 -2.44337,0 0.0769,-3.89653 5.94065,-9.18467 l 6.41185,-5.78243 28.28212,-0.0165 c 21.90052,-0.0127 29.03541,-0.3312 31.62059,-1.41135 2.21533,-0.92563 9.05831,-7.90645 20.34029,-20.75 l 17.00182,-19.35505 -16.09861,-0.27586 c -18.40224,-0.31533 -17.39474,-0.75051 -22.34895,9.65349 -2.26404,4.75456 -2.48673,6.17388 -1.92202,12.25 0.56992,6.13203 0.44945,6.87197 -1.11826,6.86863 -4.80248,-0.0102 -12.87267,-8.27174 -15.31801,-15.68118 -3.06402,-9.28407 1.19649,-22.05764 11.52886,-34.56508 l 5.57616,-6.75 52.37102,0 c 48.91354,0 52.42247,0.11553 53.1505,1.75 1.91649,4.30266 1.27063,5.97476 -4.52187,11.70681 l -5.81376,5.7531 -13.36494,2.45497 c -7.35072,1.35023 -14.35317,3.09747 -15.561,3.88276 -1.20784,0.78528 -12.96984,13.92081 -26.13777,29.19007 -13.16794,15.26926 -25.22971,28.50334 -26.80394,29.40906 -7.66005,4.40717 -12.08116,4.85323 -48.10275,4.85323 -22.6637,0 -34.16692,-0.34074 -33.75948,-1 z"
         id="path3176" />
      <path
         inkscape:connector-curvature="0"
         style="fill:#000000"
         d="m 557.64421,477.25245 c -1.45211,-3.06615 -1.37088,-3.37411 2.83528,-10.75 4.6685,-8.18665 10.19859,-21.81032 12.92581,-31.84343 l 1.69888,-6.25 100.40748,0 c 79.86233,0 100.66747,0.25999 101.67811,1.27064 0.69885,0.69885 1.81797,2.29334 2.48694,3.54331 2.80692,5.24478 -4.40791,19.41385 -15.37062,30.18605 l -5.59727,5.5 -43.71627,0.5 -43.71627,0.5 -3,5.21658 -3,5.21657 -53.06857,0.0334 -53.06858,0.0334 -1.49492,-3.15657 z"
         id="path3178" />
    </g>
    <path
       style="font-size:644.19567871px;font-style:normal;font-variant:normal;font-weight:normal;font-stretch:normal;line-height:125%;letter-spacing:0px;word-spacing:0px;fill:#000000;fill-opacity:1;stroke:none;font-family:'007 GoldenEye';-inkscape-font-specification:'007 GoldenEye'"
       d="m 456.50648,880.62873 c -9.43656,2.93611 -19.18756,8.59798 -29.25303,16.98563 -9.85593,8.38826 -17.09054,17.92956 -21.70385,28.62393 -5.66194,12.79191 -6.39588,25.05929 -2.20184,36.80219 4.19391,11.53368 15.4128,17.3004 33.6567,17.30018 13.84004,-2.93556 26.21227,-11.95262 37.11675,-27.05119 10.90421,-15.30777 16.67093,-29.88184 17.30017,-43.72226 0.20955,-20.9696 -11.42874,-30.61575 -34.9149,-28.93848 m 87.44453,40.89133 c -5.66207,16.14709 -14.57427,30.93087 -26.73664,44.35136 -16.77608,18.45374 -37.85082,31.45507 -63.22428,39.00408 -25.37368,7.3396 -49.90845,5.7669 -73.60439,-4.7183 -16.35655,-9.22652 -25.89785,-22.12301 -28.62393,-38.68946 -4.40368,-26.42182 -0.2097,-52.00509 12.58195,-76.74988 13.00131,-24.74415 30.40632,-46.13344 52.21508,-64.16793 21.80861,-18.03372 46.02884,-31.45445 72.66074,-40.26222 26.84132,-8.80694 52.11003,-10.58938 75.80623,-5.34733 l 2.83094,6.92007 c -1.67782,7.54958 -2.51661,11.42901 -2.51639,11.6383 -0.83902,3.77499 -1.78266,6.81562 -2.83094,9.12191 -28.30957,-6.08087 -55.57043,-3.24993 -81.78265,8.49281 -26.0028,11.53383 -44.24661,31.97948 -54.73147,61.337 14.46914,-8.38763 30.72081,-14.0495 48.75504,-16.98563 18.03398,-2.93544 35.12444,-1.25785 51.27144,5.03278 12.58175,5.03311 19.60666,13.73561 21.07476,26.10754 1.67739,12.37255 0.62889,24.01083 -3.14549,34.9149"
       id="path3182"
       inkscape:connector-curvature="0" />
    <path
       style="fill:#000000"
       d="m 400.75,-103.3001 c 0.6875,-0.27741 1.8125,-0.27741 2.5,0 0.6875,0.27741 0.125,0.50439 -1.25,0.50439 -1.375,0 -1.9375,-0.22698 -1.25,-0.50439 z"
       id="path3223"
       inkscape:connector-curvature="0" />
    <g
       id="g3246"
       transform="matrix(0.40922008,0,0,0.40922008,602.35622,560.31468)"
       style="fill:#000000;fill-opacity:1">
      <path
         inkscape:connector-curvature="0"
         id="path3213"
         d="m 439.39324,-294.63782 c 10.39878,-14.77033 15.47721,-34.46296 6.61318,-51.21583 -7.74315,-20.01121 -22.49144,-41.75564 -13.56936,-63.77704 7.34878,-18.11154 33.1675,-22.63437 45.59152,-7.07001 15.31495,13.06161 8.90593,39.48231 -10.47713,44.21009 -18.65104,7.92691 -30.48413,-19.08692 -15.67388,-30.37428 12.78601,-12.37706 28.27866,7.78452 15.68051,19.04832 6.90729,-17.01885 -19.0092,-24.12328 -17.00747,-4.74065 0.17575,20.44143 28.91995,16.01163 30.36316,-1.58337 5.83875,-19.9598 -24.85633,-36.6088 -37.00779,-18.73197 -13.00243,18.65347 -0.75017,40.89516 7.60955,58.63424 10.93031,19.62382 3.03472,42.71239 -12.29015,57.41269 -5.24734,6.5321 -0.58384,-0.25457 0.16786,-1.81219 z"
         style="fill:#000000;fill-opacity:1" />
      <path
         inkscape:connector-curvature="0"
         id="path3211"
         d="m 430.44895,-295.01657 c 9.13329,-28.43587 -12.10165,-53.26542 -22.67323,-78.02292 -9.21592,-17.40028 -10.68873,-38.76629 -0.78318,-56.27258 19.43752,-38.07646 62.94775,-59.64509 104.59968,-61.03424 25.07596,-0.85307 49.47947,20.59717 46.8192,46.69821 -0.094,20.94388 -20.00641,46.35037 -42.72425,37.78656 -23.57514,-9.56312 -30.23455,-48.02262 -7.44485,-61.97304 18.0313,-8.06419 41.18059,20.07579 24.91104,34.24545 -12.45375,14.13091 -19.92761,-18.35712 -14.50596,-12.12559 8.93233,21.21872 21.66054,-16.85622 0.53572,-15.45988 -22.19921,-1.80879 -25.64687,30.42478 -11.0856,42.07488 17.92365,19.17184 48.17225,-1.68463 45.59608,-25.05046 0.0884,-26.83653 -29.90947,-41.48119 -53.72115,-39.32816 -42.05941,-0.21518 -83.30102,34.04091 -85.58259,76.92428 -1.85057,34.92809 30.02629,63.67112 21.63545,99.00259 -1.32668,4.36229 -2.56503,8.96897 -5.57636,12.5349 z"
         style="fill:#000000;fill-opacity:1" />
      <path
         inkscape:connector-curvature="0"
         id="path3207"
         d="m 422,-299.95632 c -4.72733,-35.3919 -41.17875,-56.17688 -46.67237,-91.5283 -4.91206,-25.93111 5.32606,-53.09615 25.27458,-70.17428 21.89225,-19.94504 52.25957,-33.67499 63.48936,-62.88792 6.05238,-22.17498 -20.92619,-42.63183 -41.23744,-35.467 -13.50993,6.26303 -8.91817,32.28768 7.74966,28.32576 14.26162,-4.51631 -0.66889,-27.26663 -4.35026,-11.29028 -1.215,-20.27455 26.77262,1.08726 12.04534,12.01496 -13.64319,15.64024 -41.1497,-1.34077 -31.80631,-20.6425 7.26494,-21.15973 35.64501,-19.15063 49.0538,-5.35495 19.76031,14.45909 16.40734,43.23911 -0.2469,58.67525 -22.62346,25.90879 -57.67128,43.37902 -67.1326,78.88625 -8.56737,27.06018 2.94542,55.40073 19.29035,76.97413 9.34605,11.99047 18.51205,36.29197 14.54279,42.46888 z"
         style="fill:#000000;fill-opacity:1" />
    </g>
    <path
       style="font-size:medium;font-style:normal;font-variant:normal;font-weight:normal;font-stretch:normal;text-indent:0;text-align:start;text-decoration:none;line-height:normal;letter-spacing:normal;word-spacing:normal;text-transform:none;direction:ltr;block-progression:tb;writing-mode:lr-tb;text-anchor:start;baseline-shift:baseline;color:#000000;fill:#000000;fill-opacity:1;stroke:none;stroke-width:8.59410286;marker:none;visibility:visible;display:inline;overflow:visible;enable-background:accumulate;font-family:Sans;-inkscape-font-specification:Sans"
       d="m 410.74139,498.61138 c -3.61978,4.18023 -7.02216,8.46128 -10.22855,12.817 -25.65116,34.84578 -38.72871,73.76253 -42.67381,94.45605 -8.05979,42.27658 22.52534,70.59893 67.77932,68.87577 48.50586,-1.84698 98.06496,-49.76532 109.66362,-94.77524 11.28345,-43.7867 -17.58033,-75.31719 -64.28514,-68.66718 -39.40792,5.61106 -80.3033,37.17807 -97.50878,73.53193 6.37843,-20.04322 17.88715,-46.68876 35.25249,-70.27868 11.86354,-16.11599 26.33282,-30.75963 43.59619,-41.34815 17.26338,-10.58851 37.47469,-17.34172 61.77177,-17.34172 2.64313,0.15601 6.21151,-2.27325 7.32293,-4.98525 1.11142,-2.712 -0.46265,-5.14908 -3.23027,-5.00131 -26.18409,10e-6 -49.32719,7.49356 -69.03918,19.58394 -14.784,9.0678 -27.56121,20.59214 -38.42059,33.13284 z m 7.56484,72.51389 c 11.37848,-12.81231 27.60694,-22.61834 43.33683,-24.98446 24.91917,-3.74838 40.79859,11.99125 37.46171,34.49182 -1.30751,-0.8243 -3.48356,-0.64082 -5.40777,0.45597 -1.92422,1.0968 -3.50688,3.05576 -3.93313,4.8683 -5.23905,21.45328 -29.16116,42.13273 -51.94456,45.60969 -24.08122,3.67503 -39.17286,-12.58187 -33.6174,-35.08043 2.19636,-8.89481 7.27724,-17.67351 14.10432,-25.36089 z"
       id="path4028"
       inkscape:connector-curvature="0"
       sodipodi:nodetypes="sssssscsscscsssscscsss" />
    <path
       sodipodi:nodetypes="cssssssssssssscc"
       inkscape:connector-curvature="0"
       id="path4116"
       d="m 499.14586,580.46057 c -4.79667,29.69521 -33.80611,56.7908 -62.95572,59.51556 -29.35182,2.74366 -47.29331,-15.10135 -40.58775,-42.25756 7.05032,-28.55236 38.61958,-55.8448 68.84346,-60.39112 31.71129,-4.77006 51.44755,16.5433 44.07265,46.13683 -7.72293,30.99014 -41.99821,60.58912 -74.79182,65.46123 -34.2803,5.09296 -55.60204,-17.98525 -47.55759,-50.0161 8.39531,-33.4279 45.37694,-65.33365 80.74021,-70.53133 36.84933,-5.4161 59.75673,19.42714 51.04252,53.89536 -9.06749,35.8656 -48.75571,70.07833 -86.68859,75.60144 -39.41841,5.73938 -63.91158,-20.86902 -54.52747,-57.77464 9.73951,-38.30326 52.13452,-74.82316 92.63702,-80.67154 41.98748,-6.06282 68.06652,22.3109 58.01236,61.65389 -10.41142,40.74095 -55.51335,79.56809 -98.58539,85.74166 -44.55662,6.38632 -72.22162,-23.75274 -61.49729,-65.53316 l 7.78382,-19.95638"
       style="fill:none;stroke:#ffffff;stroke-width:1.07705736;stroke-linecap:round;stroke-linejoin:round;stroke-miterlimit:4;stroke-opacity:1;stroke-dasharray:none" />
    <text
       xml:space="preserve"
       style="font-size:122.25611115px;font-style:normal;font-variant:normal;font-weight:bold;font-stretch:normal;line-height:125%;letter-spacing:0px;word-spacing:0px;fill:#000000;fill-opacity:1;stroke:none;font-family:'007 GoldenEye';-inkscape-font-specification:'007 GoldenEye Bold'"
       x="23.194927"
       y="330.55688"
       id="text5355"
       sodipodi:linespacing="125%"
       transform="scale(0.71851165,1.3917659)"><tspan
         sodipodi:role="line"
         id="tspan5357"
         x="23.194927"
         y="330.55688"
         style="font-size:125.25892639px;font-weight:bold;-inkscape-font-specification:'007 GoldenEye Bold'">HackPittsburgh</tspan></text>
  </g>
</svg>
