<?xml version="1.0" encoding="UTF-8" standalone="no"?>
<!-- Created with Inkscape (http://www.inkscape.org/) -->

<svg
   xmlns:dc="http://purl.org/dc/elements/1.1/"
   xmlns:cc="http://creativecommons.org/ns#"
   xmlns:rdf="http://www.w3.org/1999/02/22-rdf-syntax-ns#"
   xmlns:svg="http://www.w3.org/2000/svg"
   xmlns="http://www.w3.org/2000/svg"
   xmlns:xlink="http://www.w3.org/1999/xlink"
   xmlns:sodipodi="http://sodipodi.sourceforge.net/DTD/sodipodi-0.dtd"
   xmlns:inkscape="http://www.inkscape.org/namespaces/inkscape"
   sodipodi:docname="aperture_science.svg"
   inkscape:version="0.48.1 r9760"
   version="1.1"
   id="svg27345"
   height="1000"
   width="3200">
  <sodipodi:namedview
     id="base"
     pagecolor="#ffffff"
     bordercolor="#666666"
     borderopacity="1.0"
     inkscape:pageopacity="0.0"
     inkscape:pageshadow="2"
     inkscape:zoom="0.4596875"
     inkscape:cx="1600"
     inkscape:cy="500"
     inkscape:document-units="px"
     inkscape:current-layer="svg27345"
     showgrid="false"
     inkscape:window-width="1600"
     inkscape:window-height="823"
     inkscape:window-x="0"
     inkscape:window-y="24"
     inkscape:window-maximized="1"
     showguides="true"
     inkscape:snap-global="true"
     inkscape:snap-bbox="true" />
  <defs
     id="defs27347">
    <inkscape:path-effect
       back_thickness="0.25"
       front_thickness="1"
       stroke_width_bottom="1"
       stroke_width_top="1"
       fat_output="false"
       bottom_smth_variation="0;1"
       top_smth_variation="0;1"
       scale_tb="2"
       scale_tf="2"
       scale_bb="2"
       scale_bf="2"
       top_tgt_variation="0;1"
       bottom_tgt_variation="0;1"
       top_edge_variation="0;1"
       bottom_edge_variation="0;1"
       bender="999.7303,506.71875 , 5,0"
       do_bend="true"
       growth="0"
       dist_rdm="0;1"
       direction="999.7303,501.71875 , 59.329005,0"
       is_visible="true"
       id="path-effect5843"
       effect="rough_hatches" />
    <inkscape:path-effect
       back_thickness="0.25"
       front_thickness="1"
       stroke_width_bottom="1"
       stroke_width_top="1"
       fat_output="false"
       bottom_smth_variation="0;1"
       top_smth_variation="0;1"
       scale_tb="2"
       scale_tf="2"
       scale_bb="2"
       scale_bf="2"
       top_tgt_variation="0;1"
       bottom_tgt_variation="0;1"
       top_edge_variation="0;1"
       bottom_edge_variation="0;1"
       bender="2542.9803,505.93747 , 5,0"
       do_bend="true"
       growth="0"
       dist_rdm="0;1"
       direction="2542.9803,500.93747 , 53.817046,0"
       is_visible="true"
       id="path-effect5841"
       effect="rough_hatches" />
    <inkscape:path-effect
       effect="rough_hatches"
       id="path-effect5725"
       is_visible="true"
       direction="1771.4145,500.93747 , 53.817046,0"
       dist_rdm="0;1"
       growth="0"
       do_bend="true"
       bender="1771.4145,505.93747 , 5,0"
       bottom_edge_variation="0;1"
       top_edge_variation="0;1"
       bottom_tgt_variation="0;1"
       top_tgt_variation="0;1"
       scale_bf="2"
       scale_bb="2"
       scale_tf="2"
       scale_tb="2"
       top_smth_variation="0;1"
       bottom_smth_variation="0;1"
       fat_output="false"
       stroke_width_top="1"
       stroke_width_bottom="1"
       front_thickness="1"
       back_thickness="0.25" />
    <inkscape:path-effect
       effect="rough_hatches"
       id="path-effect5723"
       is_visible="true"
       direction="1288.1065,501.17135 , 54.475168,0"
       dist_rdm="0;1"
       growth="0"
       do_bend="true"
       bender="1288.1065,506.17135 , 5,0"
       bottom_edge_variation="0;1"
       top_edge_variation="0;1"
       bottom_tgt_variation="0;1"
       top_tgt_variation="0;1"
       scale_bf="2"
       scale_bb="2"
       scale_tf="2"
       scale_tb="2"
       top_smth_variation="0;1"
       bottom_smth_variation="0;1"
       fat_output="false"
       stroke_width_top="1"
       stroke_width_bottom="1"
       front_thickness="1"
       back_thickness="0.25" />
    <inkscape:path-effect
       back_thickness="0.25"
       front_thickness="1"
       stroke_width_bottom="1"
       stroke_width_top="1"
       fat_output="false"
       bottom_smth_variation="0;1"
       top_smth_variation="0;1"
       scale_tb="2"
       scale_tf="2"
       scale_bb="2"
       scale_bf="2"
       top_tgt_variation="0;1"
       bottom_tgt_variation="0;1"
       top_edge_variation="0;1"
       bottom_edge_variation="0;1"
       bender="2777.0394,505.66755 , 5,0"
       do_bend="true"
       growth="0"
       dist_rdm="0;1"
       direction="2777.0394,500.66755 , 48.06685,0"
       is_visible="true"
       id="path-effect5613"
       effect="rough_hatches" />
    <inkscape:path-effect
       back_thickness="0.25"
       front_thickness="1"
       stroke_width_bottom="1"
       stroke_width_top="1"
       fat_output="false"
       bottom_smth_variation="0;1"
       top_smth_variation="0;1"
       scale_tb="2"
       scale_tf="2"
       scale_bb="2"
       scale_bf="2"
       top_tgt_variation="0;1"
       bottom_tgt_variation="0;1"
       top_edge_variation="0;1"
       bottom_edge_variation="0;1"
       bender="2538.0407,-274.3125 , 5,0"
       do_bend="true"
       growth="0"
       dist_rdm="0;1"
       direction="2538.0407,-279.3125 , 54.035946,0"
       is_visible="true"
       id="path-effect5611"
       effect="rough_hatches" />
    <inkscape:path-effect
       back_thickness="0.25"
       front_thickness="1"
       stroke_width_bottom="1"
       stroke_width_top="1"
       fat_output="false"
       bottom_smth_variation="0;1"
       top_smth_variation="0;1"
       scale_tb="2"
       scale_tf="2"
       scale_bb="2"
       scale_bf="2"
       top_tgt_variation="0;1"
       bottom_tgt_variation="0;1"
       top_edge_variation="0;1"
       bottom_edge_variation="0;1"
       bender="2272.2953,507.18757 , 5,0"
       do_bend="true"
       growth="0"
       dist_rdm="0;1"
       direction="2272.2953,502.18757 , 59.164591,13.343885"
       is_visible="true"
       id="path-effect5609"
       effect="rough_hatches" />
    <inkscape:path-effect
       back_thickness="0.25"
       front_thickness="1"
       stroke_width_bottom="1"
       stroke_width_top="1"
       fat_output="false"
       bottom_smth_variation="0;1"
       top_smth_variation="0;1"
       scale_tb="2"
       scale_tf="2"
       scale_bb="2"
       scale_bf="2"
       top_tgt_variation="0;1"
       bottom_tgt_variation="0;1"
       top_edge_variation="0;1"
       bottom_edge_variation="0;1"
       bender="2021.0008,505.8868 , 5,0"
       do_bend="true"
       growth="0"
       dist_rdm="0;1"
       direction="2021.0008,500.8868 , -0.21682204,-49.563003"
       is_visible="true"
       id="path-effect5607"
       effect="rough_hatches" />
    <inkscape:path-effect
       back_thickness="0.25"
       front_thickness="1"
       stroke_width_bottom="1"
       stroke_width_top="1"
       fat_output="false"
       bottom_smth_variation="0;1"
       top_smth_variation="0;1"
       scale_tb="2"
       scale_tf="2"
       scale_bb="2"
       scale_bf="2"
       top_tgt_variation="0;1"
       bottom_tgt_variation="0;1"
       top_edge_variation="0;1"
       bottom_edge_variation="0;1"
       bender="1771.4145,-274.06253 , 5,0"
       do_bend="true"
       growth="0"
       dist_rdm="0;1"
       direction="1771.4145,-279.06253 , 53.817046,0"
       is_visible="true"
       id="path-effect5605"
       effect="rough_hatches" />
    <inkscape:path-effect
       back_thickness="0.25"
       front_thickness="1"
       stroke_width_bottom="1"
       stroke_width_top="1"
       fat_output="false"
       bottom_smth_variation="0;1"
       top_smth_variation="0;1"
       scale_tb="2"
       scale_tf="2"
       scale_bb="2"
       scale_bf="2"
       top_tgt_variation="0;1"
       bottom_tgt_variation="0;1"
       top_edge_variation="0;1"
       bottom_edge_variation="0;1"
       bender="1532.806,505.66755 , 5,0"
       do_bend="true"
       growth="0"
       dist_rdm="0;1"
       direction="1532.806,500.66755 , 48.066875,0"
       is_visible="true"
       id="path-effect5603"
       effect="rough_hatches" />
    <inkscape:path-effect
       back_thickness="0.25"
       front_thickness="1"
       stroke_width_bottom="1"
       stroke_width_top="1"
       fat_output="false"
       bottom_smth_variation="0;1"
       top_smth_variation="0;1"
       scale_tb="2"
       scale_tf="2"
       scale_bb="2"
       scale_bf="2"
       top_tgt_variation="0;1"
       bottom_tgt_variation="0;1"
       top_edge_variation="0;1"
       bottom_edge_variation="0;1"
       bender="1288.1065,-273.82863 , 5,0"
       do_bend="true"
       growth="0"
       dist_rdm="0;1"
       direction="1288.1065,-278.82863 , 54.475168,0"
       is_visible="true"
       id="path-effect5601"
       effect="rough_hatches" />
    <inkscape:path-effect
       back_thickness="0.25"
       front_thickness="1"
       stroke_width_bottom="1"
       stroke_width_top="1"
       fat_output="false"
       bottom_smth_variation="0;1"
       top_smth_variation="0;1"
       scale_tb="2"
       scale_tf="2"
       scale_bb="2"
       scale_bf="2"
       top_tgt_variation="0;1"
       bottom_tgt_variation="0;1"
       top_edge_variation="0;1"
       bottom_edge_variation="0;1"
       bender="999.7303,-273.28125 , 5,0"
       do_bend="true"
       growth="0"
       dist_rdm="0;1"
       direction="999.7303,-278.28125 , 59.329005,0"
       is_visible="true"
       id="path-effect5599"
       effect="rough_hatches" />
    <inkscape:path-effect
       effect="rough_hatches"
       id="path-effect3411"
       is_visible="true"
       direction="1265.3681,325.67405 , 42.312563,-42.312563"
       dist_rdm="0;1"
       growth="0"
       do_bend="true"
       bender="1268.9036,329.20958 , 3.5355339,-3.5355339"
       bottom_edge_variation="0;1"
       top_edge_variation="0;1"
       bottom_tgt_variation="0;1"
       top_tgt_variation="0;1"
       scale_bf="2"
       scale_bb="2"
       scale_tf="2"
       scale_tb="2"
       top_smth_variation="0;1"
       bottom_smth_variation="0;1"
       fat_output="false"
       stroke_width_top="1"
       stroke_width_bottom="1"
       front_thickness="1"
       back_thickness="0.25" />
    <inkscape:path-effect
       back_thickness="0.25"
       front_thickness="1"
       stroke_width_bottom="1"
       stroke_width_top="1"
       fat_output="false"
       bottom_smth_variation="0;1"
       top_smth_variation="0;1"
       scale_tb="2"
       scale_tf="2"
       scale_bb="2"
       scale_bf="2"
       top_tgt_variation="0;1"
       bottom_tgt_variation="0;1"
       top_edge_variation="0;1"
       bottom_edge_variation="0;1"
       bender="1565.1009,685.72221 , 5,0"
       do_bend="true"
       growth="0"
       dist_rdm="0;1"
       direction="1565.1009,680.72221 , 72.2855,0"
       is_visible="true"
       id="path-effect3331"
       effect="rough_hatches" />
    <inkscape:path-effect
       back_thickness="0.25"
       front_thickness="1"
       stroke_width_bottom="1"
       stroke_width_top="1"
       fat_output="false"
       bottom_smth_variation="0;1"
       top_smth_variation="0;1"
       scale_tb="2"
       scale_tf="2"
       scale_bb="2"
       scale_bf="2"
       top_tgt_variation="0;1"
       bottom_tgt_variation="0;1"
       top_edge_variation="0;1"
       bottom_edge_variation="0;1"
       bender="1418.6159,708.06271 , 5,0"
       do_bend="true"
       growth="0"
       dist_rdm="0;1"
       direction="1418.6159,703.06271 , 59.9985,0"
       is_visible="true"
       id="path-effect3329"
       effect="rough_hatches" />
    <inkscape:path-effect
       back_thickness="0.25"
       front_thickness="1"
       stroke_width_bottom="1"
       stroke_width_top="1"
       fat_output="false"
       bottom_smth_variation="0;1"
       top_smth_variation="0;1"
       scale_tb="2"
       scale_tf="2"
       scale_bb="2"
       scale_bf="2"
       top_tgt_variation="0;1"
       bottom_tgt_variation="0;1"
       top_edge_variation="0;1"
       bottom_edge_variation="0;1"
       bender="1223.9409,632.10621 , 5,0"
       do_bend="true"
       growth="0"
       dist_rdm="0;1"
       direction="1223.9409,627.10621 , 38.297,0"
       is_visible="true"
       id="path-effect3327"
       effect="rough_hatches" />
    <inkscape:path-effect
       back_thickness="0.25"
       front_thickness="1"
       stroke_width_bottom="1"
       stroke_width_top="1"
       fat_output="false"
       bottom_smth_variation="0;1"
       top_smth_variation="0;1"
       scale_tb="2"
       scale_tf="2"
       scale_bb="2"
       scale_bf="2"
       top_tgt_variation="0;1"
       bottom_tgt_variation="0;1"
       top_edge_variation="0;1"
       bottom_edge_variation="0;1"
       bender="1202.2384,487.53621 , 5,0"
       do_bend="true"
       growth="0"
       dist_rdm="0;1"
       direction="1202.2384,482.53621 , 46.91375,0"
       is_visible="true"
       id="path-effect3325"
       effect="rough_hatches" />
    <inkscape:path-effect
       back_thickness="0.25"
       front_thickness="1"
       stroke_width_bottom="1"
       stroke_width_top="1"
       fat_output="false"
       bottom_smth_variation="0;1"
       top_smth_variation="0;1"
       scale_tb="2"
       scale_tf="2"
       scale_bb="2"
       scale_bf="2"
       top_tgt_variation="0;1"
       bottom_tgt_variation="0;1"
       top_edge_variation="0;1"
       bottom_edge_variation="0;1"
       bender="1276.7439,290.55721 , 5,0"
       do_bend="true"
       growth="0"
       dist_rdm="0;1"
       direction="1276.7439,285.55721 , 72.1855,0"
       is_visible="true"
       id="path-effect3323"
       effect="rough_hatches" />
    <inkscape:path-effect
       back_thickness="0.25"
       front_thickness="1"
       stroke_width_bottom="1"
       stroke_width_top="1"
       fat_output="false"
       bottom_smth_variation="0;1"
       top_smth_variation="0;1"
       scale_tb="2"
       scale_tf="2"
       scale_bb="2"
       scale_bf="2"
       top_tgt_variation="0;1"
       bottom_tgt_variation="0;1"
       top_edge_variation="0;1"
       bottom_edge_variation="0;1"
       bender="1425.9569,268.60571 , 5,0"
       do_bend="true"
       growth="0"
       dist_rdm="0;1"
       direction="1425.9569,263.60571 , 42.435873,5.6843419e-14"
       is_visible="true"
       id="path-effect3321"
       effect="rough_hatches" />
    <inkscape:path-effect
       back_thickness="0.25"
       front_thickness="1"
       stroke_width_bottom="1"
       stroke_width_top="1"
       fat_output="false"
       bottom_smth_variation="0;1"
       top_smth_variation="0;1"
       scale_tb="2"
       scale_tf="2"
       scale_bb="2"
       scale_bf="2"
       top_tgt_variation="0;1"
       bottom_tgt_variation="0;1"
       top_edge_variation="0;1"
       bottom_edge_variation="0;1"
       bender="1638.5034,490.08971 , 5,0"
       do_bend="true"
       growth="0"
       dist_rdm="0;1"
       direction="1638.5034,485.08971 , 47.39225,0"
       is_visible="true"
       id="path-effect3319"
       effect="rough_hatches" />
    <inkscape:path-effect
       effect="rough_hatches"
       id="path-effect3287"
       is_visible="true"
       direction="1619.0354,337.96521 , 37.97775,0"
       dist_rdm="0;1"
       growth="0"
       do_bend="true"
       bender="1619.0354,342.96521 , 5,0"
       bottom_edge_variation="0;1"
       top_edge_variation="0;1"
       bottom_tgt_variation="0;1"
       top_tgt_variation="0;1"
       scale_bf="2"
       scale_bb="2"
       scale_tf="2"
       scale_tb="2"
       top_smth_variation="0;1"
       bottom_smth_variation="0;1"
       fat_output="false"
       stroke_width_top="1"
       stroke_width_bottom="1"
       front_thickness="1"
       back_thickness="0.25" />
    <inkscape:perspective
       id="perspective27353"
       inkscape:persp3d-origin="372.04724 : 350.78739 : 1"
       inkscape:vp_z="744.09448 : 526.18109 : 1"
       inkscape:vp_y="0 : 1000 : 0"
       inkscape:vp_x="0 : 526.18109 : 1"
       sodipodi:type="inkscape:persp3d" />
  </defs>
  <metadata
     id="metadata27350">
    <rdf:RDF>
      <cc:Work
         rdf:about="">
        <dc:format>image/svg+xml</dc:format>
        <dc:type
           rdf:resource="http://purl.org/dc/dcmitype/StillImage" />
        <dc:title />
      </cc:Work>
    </rdf:RDF>
  </metadata>
  <g
     transform="translate(0,-52.36218)"
     id="layer1"
     inkscape:groupmode="layer"
     inkscape:label="Layer 1" />
  <eggbot
     id="eggbot8241"
     node="0"
     layer="0"
     serialport="/dev/ttyACM0"
     lastpath="0"
     lastpathnc="0"
     totaldeltax="0"
     totaldeltay="0" />
  <g
     id="g3393"
     transform="translate(-634.12142,16.383419)" />
  <g
     id="g6359"
     transform="translate(-44.79909,0)">
    <path
       inkscape:connector-curvature="0"
       id="path5973"
       d="m 2680.9057,608.32885 c 0,-0.91717 11.5166,-47.72019 25.5925,-104.00667 l 25.5924,-102.33901 70.5413,0 70.5412,0 -2.1461,8.66238 c -1.1804,4.76431 -3.0795,12.20609 -4.2202,16.53728 l -2.074,7.8749 -44.5398,0.87321 -44.5398,0.87322 -3.343,11.72662 c -1.8387,6.44963 -4.2135,17.7509 -5.2775,25.11393 l -1.9345,13.38732 39.8027,0 c 21.8914,0 39.7753,1.06311 39.7418,2.36247 -0.033,1.29936 -1.8959,9.44988 -4.1389,18.11226 l -4.0781,15.74979 -41.4124,0.87805 -41.4125,0.87808 -3.3416,11.72175 c -1.838,6.44699 -4.2123,17.74608 -5.2762,25.10911 l -1.9345,13.38732 46.1626,0 46.1625,0 -2.1461,8.66238 c -1.1804,4.76431 -3.0805,12.20609 -4.2224,16.53728 l -2.0761,7.8749 -73.0117,0.84554 c -40.1564,0.46506 -73.0116,0.0951 -73.0116,-0.82211 z"
       style="fill:none;stroke:#cc0000;stroke-width:8;stroke-miterlimit:4;stroke-dasharray:none" />
    <path
       sodipodi:nodetypes="ccccssccscccccsssscccscccccc"
       inkscape:connector-curvature="0"
       style="fill:none;stroke:#cc0000;stroke-width:8;stroke-miterlimit:4;stroke-dasharray:none"
       d="m 2520.097,490.0625 c 10e-5,-1.79517 3.05,-15.43541 6.7813,-30.3125 l 6.7813,-27.03125 22.1874,1.5625 c 19.1124,1.36748 23.1956,2.77447 29.4376,10.03125 13.2552,15.41014 7.7922,34.09723 -12.8126,43.875 -10.3035,4.88942 -40.5472,6.6764 -49.7123,3.89083 l -6.2251,35.89042 c 14.6993,0 28.6801,6.47019 33.125,15.3125 2.3005,4.57648 7.3768,21.44334 11.2812,37.46875 l 7.0938,29.125 27.8437,0 27.8125,0 -4.75,-16.53125 c -12.8861,-44.98147 -17.5423,-55.77838 -28.1875,-65.125 -12.6522,-11.1088 -13.697,-16 -3.4375,-16 11.6872,0 44.173,-17.77536 52.125,-28.53125 16.0433,-21.69965 14.7614,-44.26998 -3.5312,-62 -17.3743,-16.83982 -30.9968,-19.7029 -93.375,-19.6875 l -55.5313,0 -24.9687,98.4375 c -13.7415,54.13234 -25.6336,100.95702 -26.4063,104.0625 -1.2791,5.14048 0.9453,5.55758 24.7187,4.71875 l 26.0938,-0.90625 8.4375,-31.5 c 4.6359,-17.32477 9.4138,-35.39194 10.5937,-40.15625 1.5898,-6.41886 3.6386,-8.41093 9.6305,-8.65979 z"
       id="path5975" />
    <path
       inkscape:connector-curvature="0"
       id="path5961"
       d="m 2204.3255,608.65664 c -20.1288,-7.4654 -36.3917,-20.17438 -43.7853,-34.2168 -10.7518,-20.42052 -8.7958,-43.76199 9.4362,-112.60747 l 15.4325,-58.27422 25.6764,-0.91488 c 14.122,-0.50319 25.6763,-0.0486 25.6763,1.01015 0,1.05877 -7.0874,29.50419 -15.7498,63.21203 -16.7684,65.2507 -18.3753,78.4014 -11.2611,92.15878 6.071,11.73989 17.2599,16.2089 40.5465,16.19485 22.443,-0.0126 36.5994,-6.82143 45.8644,-22.05648 3.1862,-5.2393 14.0093,-41.39801 24.0514,-80.35271 l 18.2582,-70.82672 26.0767,0 26.0766,0 -17.1308,66.13889 c -19.4733,75.18256 -24.1244,88.41367 -37.9996,108.09861 -7.2966,10.35171 -15.5642,16.84175 -31.3618,24.61891 -19.6527,9.67493 -24.2393,10.63233 -54.6493,11.40735 -22.6697,0.57773 -36.989,-0.56073 -45.1575,-3.59029 z"
       style="fill:none;stroke:#cc0000;stroke-width:8;stroke-miterlimit:4;stroke-dasharray:none" />
    <path
       inkscape:connector-curvature="0"
       id="path5971"
       d="m 1967.7265,530.34396 c 11.0116,-43.74505 20.0587,-82.72578 20.1048,-86.62385 0.082,-6.92617 -0.706,-7.08741 -34.6259,-7.08741 l -34.7095,0 2.1461,-8.66238 c 1.1804,-4.76431 3.0808,-12.20609 4.2231,-16.53728 l 2.0768,-7.87489 98.2819,-0.83247 98.2819,-0.83247 -2.1574,8.70737 c -6.6998,27.0398 -2.2123,24.35724 -42.3873,25.33849 l -36.0845,0.88135 -21.5397,86.53 -21.5398,86.52998 -26.0457,0 -26.0458,0 20.021,-79.53644 z"
       style="fill:none;stroke:#cc0000;stroke-width:8;stroke-miterlimit:4;stroke-dasharray:none" />
    <path
       id="path5969"
       d="m 1748.5312,490.0625 c 1e-4,-1.79517 3.05,-15.43541 6.7813,-30.3125 l 6.7813,-27.03125 22.1874,1.5625 c 19.1124,1.36748 23.1956,2.77447 29.4376,10.03125 13.2552,15.41014 7.7922,34.09723 -12.8126,43.875 -10.3035,4.88942 -40.5472,6.6764 -49.7123,3.89083 l -6.2251,35.89042 c 14.6993,0 28.6801,6.47019 33.125,15.3125 2.3005,4.57648 7.3768,21.44334 11.2812,37.46875 l 7.0938,29.125 27.8437,0 27.8125,0 -4.75,-16.53125 c -12.8861,-44.98147 -17.5423,-55.77838 -28.1875,-65.125 -12.6522,-11.1088 -13.697,-16 -3.4375,-16 11.6872,0 44.173,-17.77536 52.125,-28.53125 16.0433,-21.69965 14.7614,-44.26998 -3.5312,-62 -17.3743,-16.83982 -30.9968,-19.7029 -93.375,-19.6875 l -55.5313,0 -24.9687,98.4375 c -13.7415,54.13234 -25.6336,100.95702 -26.4063,104.0625 -1.2791,5.14048 0.9453,5.55758 24.7187,4.71875 l 26.0938,-0.90625 8.4375,-31.5 c 4.6359,-17.32477 9.4138,-35.39194 10.5937,-40.15625 1.5898,-6.41886 3.6386,-8.41093 9.6305,-8.65979 z"
       style="fill:none;stroke:#cc0000;stroke-width:8;stroke-miterlimit:4;stroke-dasharray:none"
       inkscape:connector-curvature="0"
       sodipodi:nodetypes="ccccssccscccccsssscccscccccc" />
    <path
       id="path5967"
       d="m 1436.6723,608.32885 c 0,-0.91717 11.5167,-47.72019 25.5925,-104.00667 l 25.5925,-102.33901 70.5412,0 70.5413,0 -2.1462,8.66238 c -1.1804,4.76431 -3.0795,12.20609 -4.2201,16.53728 l -2.074,7.8749 -44.5398,0.87321 -44.5398,0.87322 -3.3431,11.72662 c -1.8386,6.44963 -4.2135,17.7509 -5.2774,25.11393 l -1.9345,13.38732 39.8026,0 c 21.8914,0 39.7753,1.06311 39.7419,2.36247 -0.033,1.29936 -1.896,9.44988 -4.1389,18.11226 l -4.0782,15.74979 -41.4124,0.87805 -41.4124,0.87808 -3.3417,11.72175 c -1.8379,6.44699 -4.2122,17.74608 -5.2761,25.10911 l -1.9345,13.38732 46.1625,0 46.1626,0 -2.1462,8.66238 c -1.1804,4.76431 -3.0805,12.20609 -4.2223,16.53728 l -2.0762,7.8749 -73.0116,0.84554 c -40.1564,0.46506 -73.0117,0.0951 -73.0117,-0.82211 z"
       style="fill:none;stroke:#cc0000;stroke-width:8;stroke-miterlimit:4;stroke-dasharray:none"
       inkscape:connector-curvature="0" />
    <path
       id="path5965"
       d="m 1260.1562,502.78125 2.1563,-8.65625 c 1.1799,-4.76431 5.1257,-20.01518 8.7813,-33.875 l 6.6562,-25.1875 18.8125,0.8125 c 31.0084,1.3412 42.4687,8.73588 42.4687,27.46875 0,13.97618 -8.9603,26.90992 -23.0624,33.3125 -8.711,3.9549 -20.406,6.0168 -34.5,6.0625 l -18.4549,0.0541 -11.1189,34.66078 20.855,-0.0274 c 68.4329,-0.0525 113.8202,-23.94948 123.0312,-64.78125 6.263,-27.76344 -11.0655,-55.96284 -40.3437,-65.6875 -10.7438,-3.5685 -22.8292,-4.68201 -54.9687,-4.4375 -4.5914,0.0349 -9.5984,0.10114 -15.0626,0.1875 l -54.6562,0.875 -25.8125,103.15625 -25.7813,103.15625 26.0626,0 26.0937,0 8.8125,-36.21875 8.8438,-36.21875 z"
       style="fill:none;stroke:#cc0000;stroke-width:8;stroke-miterlimit:4;stroke-dasharray:none"
       inkscape:connector-curvature="0"
       sodipodi:nodetypes="cccccssccccsssccccccccc" />
    <path
       sodipodi:nodetypes="ccccccccccssccccccscccc"
       inkscape:connector-curvature="0"
       id="path5963"
       d="m 1060.1875,564.21875 3.1875,22.03125 3.1875,22.0625 25.9687,0.90625 c 25.2901,0.89034 25.995,0.70879 25.8438,-6.3125 -0.085,-3.96812 -7.5493,-50.4407 -16.5938,-103.28125 l -16.4687,-96.0625 -32.9687,0 -32.9688,0 -67.0625,97.65625 c -36.8804,53.70679 -68.47201,100.12441 -70.21875,103.15625 -2.92373,5.07474 -0.97167,5.5 24.8125,5.5 l 28.03125,0 14.0625,-22.84375 14.09375,-22.8125 48.53125,0 46.1678,0 -7.7456,-37.9582 c -3.3394,1.48615 -11.2376,1.7082 -29.4222,1.7082 -17.4692,0 -31.29627,-1.13616 -30.71875,-2.53125 2.23237,-5.39291 51.49655,-81.94056 52.24995,-81.1875 1.0813,1.08093 10.2188,70.86396 10.2188,78.03125 z"
       style="fill:none;stroke:#cc0000;stroke-width:8;stroke-miterlimit:4;stroke-dasharray:none" />
    <path
       inkscape:connector-curvature="0"
       style="fill:none;stroke:#cc0000;stroke-width:8;stroke-miterlimit:4;stroke-dasharray:none"
       d="m 2381.939,401.98317 c 0,0 -1.2731,8.29108 -3.56,21.24292 -2.287,12.95183 -5.6029,30.56443 -9.6613,49.20747 -4.0583,18.64303 -8.8625,38.31651 -13.9586,55.3901 -5.0961,17.07359 -10.4756,31.5473 -15.5561,39.79081 -5.0804,8.2435 -5.123,2.0133 -2.5936,-11.96897 2.5294,-13.98228 7.5837,-35.71663 12.6665,-58.48142 5.0828,-22.76479 10.1879,-46.56002 13.1884,-64.66405 3.0006,-18.10403 3.9312,-30.51686 0.8225,-30.51686 -3.1087,0 -7.0394,11.87814 -11.5556,29.81055 -4.5163,17.93241 -9.6499,41.91907 -15.0611,66.13612 -5.4113,24.21705 -11.1013,48.66448 -16.3789,67.51841 -5.2776,18.85392 -10.1132,32.11435 -13.676,33.95739 -3.5628,1.84305 -1.3078,-13.47918 3.1746,-35.54681 2.2412,-11.03381 5.0343,-23.75398 7.9513,-36.85801 2.917,-13.10403 5.9573,-26.59193 8.7373,-39.16122 5.5598,-25.13857 10.0678,-46.60268 10.8308,-53.97246 0.3814,-3.68489 -0.1669,-3.8462 -2.017,0.81856 -1.85,4.66476 -4.9959,14.15558 -9.9223,29.77495 -9.8528,31.23874 -17.0178,55.79417 -22.2889,75.09379 -5.2711,19.29963 -8.655,33.34347 -11.1342,43.55903 -2.4792,10.21555 -4.0586,16.60283 -5.8218,20.58935 -1.7632,3.98653 -3.7133,5.57229 -6.9743,6.18481 -6.5221,1.22505 -3.6548,-10.29519 -0.9578,-21.35232 2.6969,-11.05713 5.2291,-21.65115 -1.7261,-18.57368 -6.9551,3.07748 -9.4686,13.52098 -11.8498,23.24167 -2.3813,9.72069 -4.625,18.71857 -10.8888,18.90479 -6.2639,0.18622 -3.95,-9.09578 -1.6663,-18.41386 2.2836,-9.31808 4.5368,-18.67223 -1.6908,-18.63031 -6.2275,0.0419 -8.4884,9.42741 -10.7718,18.74334 -2.2833,9.31593 -4.5886,18.56229 -10.7471,18.32593 -6.1585,-0.23635 -3.8917,-9.32962 -1.5628,-18.83576 2.3289,-9.50614 4.7168,-19.42515 -1.0472,-21.31297 -5.764,-1.88782 -8.1799,8.18704 -10.6404,18.25886 -2.4606,10.07182 -4.9657,20.14059 -10.7112,18.24057 -5.7454,-1.90001 -7.6261,5.71685 -4.7619,-5.8746 1.4321,-5.79572 4.0611,-16.39352 7.8245,-35.38404 1.8817,-9.49527 4.0432,-21.08871 6.4373,-35.22917 2.3942,-14.14045 5.022,-30.82792 7.7927,-50.51123 2.7707,-19.68332 4.3127,-32.52155 5,-39.93249 0.6872,-7.41095 0.5128,-9.39461 -0.2993,-7.36877 -1.6242,4.05167 -5.8203,24.14134 -11.2756,48.92665 -2.7276,12.39266 -5.7696,25.95923 -8.9173,39.28192 -3.1477,13.3227 -6.4007,26.40151 -9.501,37.81866 -6.2007,22.8343 -11.7714,39.02192 -14.4372,37.22053 -2.6657,-1.80138 -0.985,-14.89874 2.6778,-33.52649 3.6627,-18.62776 9.2787,-42.78592 14.6203,-66.70892 5.3415,-23.923 10.4099,-47.61084 13.321,-65.29796 2.9112,-17.68712 3.6964,-29.37352 0.5716,-29.29364 -3.1249,0.0799 -7.0522,11.92368 -11.4782,29.4192 -4.4261,17.49551 -9.3821,40.64275 -14.4382,63.32953 -5.0561,22.68678 -10.2097,44.91311 -14.6897,60.56679 -4.48,15.65368 -8.25,24.73472 -10.4891,21.13094 -2.239,-3.60378 -0.3697,-17.7792 3.1617,-36.26094 3.5315,-18.48175 8.7007,-41.26983 13.2643,-62.09893 4.5637,-20.82911 8.533,-39.69924 9.9673,-50.3451 1.4343,-10.64586 0.3801,-13.06744 -5.2327,-0.99944 -11.2258,24.13599 -18.461,50.35485 -22.971,70.53971 -4.5101,20.18485 -6.2507,34.33571 -6.2507,34.33571"
       id="path5537"
       inkscape:path-effect="#path-effect5609"
       inkscape:original-d="m 2204.3255,608.65664 c -20.1288,-7.4654 -36.3917,-20.17438 -43.7853,-34.2168 -10.7518,-20.42052 -8.7958,-43.76199 9.4362,-112.60747 l 15.4325,-58.27422 25.6764,-0.91488 c 14.122,-0.50319 25.6763,-0.0486 25.6763,1.01015 0,1.05877 -7.0874,29.50419 -15.7498,63.21203 -16.7684,65.2507 -18.3753,78.4014 -11.2611,92.15878 6.071,11.73989 17.2599,16.2089 40.5465,16.19485 22.443,-0.0126 36.5994,-6.82143 45.8644,-22.05648 3.1862,-5.2393 14.0093,-41.39801 24.0514,-80.35271 l 18.2582,-70.82672 26.0767,0 26.0766,0 -17.1308,66.13889 c -19.4733,75.18256 -24.1244,88.41367 -37.9996,108.09861 -7.2966,10.35171 -15.5642,16.84175 -31.3618,24.61891 -19.6527,9.67493 -24.2393,10.63233 -54.6493,11.40735 -22.6697,0.57773 -36.989,-0.56073 -45.1575,-3.59029 z" />
    <path
       style="fill:none;stroke:#cc0000;stroke-width:8;stroke-miterlimit:4;stroke-dasharray:none"
       d="m 1107.6817,534.52169 c 0,0 1.3602,18.80553 1.072,37.57353 -0.2883,18.768 -2.2244,37.49847 -8.1537,37.34832 -2.9646,-0.0751 -4.2634,-7.30336 -4.7741,-19.04969 -0.5107,-11.74634 -0.2445,-28.01072 -0.084,-46.15799 0.1599,-18.14728 0.2089,-38.17744 -0.623,-57.45532 -0.8319,-19.27789 -2.5429,-37.8035 -5.7685,-52.94168 -1.6128,-7.56909 -2.7885,-10.50766 -3.6101,-9.85589 -0.8217,0.65178 -1.2928,4.8939 -1.5503,11.6862 -0.5148,13.58459 -0.2045,37.3699 -0.1561,63.03455 0.048,25.66464 -0.1801,53.20863 -1.2504,74.3106 -1.0703,21.10197 -2.9321,35.76192 -5.896,35.65848 -2.964,-0.10344 -4.1152,-12.97455 -4.5415,-32.22303 -0.4262,-19.24849 -0.1659,-44.87434 -0.1705,-70.48727 -0,-25.61293 -0.2739,-51.21293 -1.3364,-70.4097 -1.0626,-19.19677 -2.8799,-31.9903 -5.8464,-31.9903 -2.9664,0 -4.1332,12.34229 -4.5758,29.66336 -0.4425,17.32106 -0.1953,39.62091 -0.13,59.53604 0.065,19.91512 -0.035,37.44552 -0.8336,45.22768 -0.3994,3.89109 -0.9692,5.34511 -1.788,3.44164 -0.8188,-1.90347 -1.8836,-7.16444 -3.3265,-16.70335 -5.7715,-38.15561 -6.143,-68.44695 -6.4901,-89.19939 -0.3471,-20.75244 -0.6547,-31.96598 -6.5876,-31.96598 -5.9329,0 -5.6843,10.02022 -5.4517,22.25525 0.2325,12.23503 0.4327,26.68488 -5.4058,35.54415 -2.9192,4.42963 -4.419,2.68944 -5.2157,-2.24124 -0.7968,-4.93067 -0.8994,-13.05184 -1.0345,-21.38418 -0.27,-16.66466 -0.6875,-34.17398 -6.4946,-28.69332 -5.8071,5.48067 -5.4272,22.99718 -5.1833,41.47254 0.244,18.47535 0.342,37.90956 -5.5713,47.22561 -2.9566,4.65803 -4.4413,2.30792 -5.2003,-3.57346 -0.7589,-5.88138 -0.8036,-15.29402 -0.8866,-24.76104 -0.083,-9.46701 -0.2045,-18.98841 -1.03549,-25.0873 -0.83102,-6.09888 -2.36044,-8.77526 -5.26046,-4.55225 -2.90003,4.22301 -4.23285,14.11273 -4.85627,26.57187 -0.62342,12.45914 -0.5449,27.4877 -0.55039,41.98839 -0.005,14.50068 -0.0934,28.47349 -0.93331,38.82113 -0.8399,10.34763 -2.42121,17.0701 -5.38766,17.0701 -2.96645,0 -4.35285,-6.72252 -4.99999,-16.53932 -0.64715,-9.81681 -0.56559,-22.7279 -0.54856,-35.10505 0.017,-12.37715 -0.0287,-24.22035 -0.81727,-31.90138 -0.78862,-7.68103 -2.30596,-11.19988 -5.23932,-6.92833 -5.86672,8.5431 -5.75767,29.09369 -5.83756,49.57644 -0.0799,20.48274 -0.34796,40.89764 -6.40868,49.16935 -3.03036,4.13586 -4.46168,1.09963 -5.1097,-5.51083 -0.64803,-6.61047 -0.52484,-16.79516 -0.44534,-26.95623 0.0795,-10.16107 0.11541,-20.29852 -0.61626,-26.8145 -0.73168,-6.51597 -2.2187,-9.41047 -5.18658,-5.08564 -5.93575,8.64966 -6.00155,30.62917 -6.26268,51.59907 -0.26112,20.9699 -0.70397,40.93019 -6.74363,45.54143 -6.03966,4.61124 -5.56316,-15.3499 -5.27749,-34.26723 0.14284,-9.45866 0.24471,-18.65637 -0.44316,-24.3911 -0.68788,-5.73473 -2.15508,-8.00649 -5.15897,-3.61324 -6.00777,8.78649 -6.20192,25.50733 -6.46229,40.03141 -0.26036,14.52408 -0.56605,26.8514 -6.49893,26.85086 -5.93289,-5.4e-4 -5.63994,-12.33181 -5.44852,-22.42415 0.19141,-10.09234 0.31196,-17.94576 -5.77188,-8.99063 -12.16767,17.91027 -0.67026,32.46091 -12.48065,30.14611 -11.81039,-2.3148 -5.88118,-2.18394 -5.88118,-2.18394 m 167.24152,-79.61722 c 0,0 1.4391,9.35353 1.3539,18.70706 -0.085,9.35353 -1.6949,18.70706 -7.6278,18.70706 -5.9329,0 -5.8098,-9.11248 -5.7258,-18.20868 0.084,-9.09619 0.1289,-18.17609 -5.8043,-18.11094 -5.9332,0.0652 -5.9786,9.14507 -6.0624,18.20868 -0.084,9.06361 -0.2062,18.11094 -6.1391,18.11094 -5.9329,0 -5.8109,-9.02171 -5.7268,-18.10392 0.084,-9.08222 0.1297,-18.22493 -5.8021,-18.46692 -5.9317,-0.242 -7.4592,8.90071 -7.5436,18.10392 -0.0844,9.20321 1.2738,18.46692 1.2738,18.46692"
       id="path5535"
       inkscape:connector-curvature="0"
       sodipodi:nodetypes="ccccccccccssccccccscccc"
       inkscape:path-effect="#path-effect5843"
       inkscape:original-d="m 1060.1875,564.21875 3.1875,22.03125 3.1875,22.0625 25.9687,0.90625 c 25.2901,0.89034 25.995,0.70879 25.8438,-6.3125 -0.085,-3.96812 -7.5493,-50.4407 -16.5938,-103.28125 l -16.4687,-96.0625 -32.9687,0 -32.9688,0 -67.0625,97.65625 c -36.8804,53.70679 -68.47201,100.12441 -70.21875,103.15625 -2.92373,5.07474 -0.97167,5.5 24.8125,5.5 l 28.03125,0 14.0625,-22.84375 14.09375,-22.8125 48.53125,0 46.1678,0 -7.7456,-37.9582 c -3.3394,1.48615 -11.2376,1.7082 -29.4222,1.7082 -17.4692,0 -31.29627,-1.13616 -30.71875,-2.53125 2.23237,-5.39291 51.49655,-81.94056 52.24995,-81.1875 1.0813,1.08093 10.2188,70.86396 10.2188,78.03125 z" />
    <path
       inkscape:original-d="m 1260.1562,502.78125 2.1563,-8.65625 c 1.1799,-4.76431 5.1257,-20.01518 8.7813,-33.875 l 6.6562,-25.1875 18.8125,0.8125 c 31.0084,1.3412 42.4687,8.73588 42.4687,27.46875 0,13.97618 -8.9603,26.90992 -23.0624,33.3125 -8.711,3.9549 -20.406,6.0168 -34.5,6.0625 l -18.4549,0.0541 -11.1189,34.66078 20.855,-0.0274 c 68.4329,-0.0525 113.8202,-23.94948 123.0312,-64.78125 6.263,-27.76344 -11.0655,-55.96284 -40.3437,-65.6875 -10.7438,-3.5685 -22.8292,-4.68201 -54.9687,-4.4375 -4.5914,0.0349 -9.5984,0.10114 -15.0626,0.1875 l -54.6562,0.875 -25.8125,103.15625 -25.7813,103.15625 26.0626,0 26.0937,0 8.8125,-36.21875 8.8438,-36.21875 z"
       inkscape:path-effect="#path-effect5723"
       sodipodi:nodetypes="cccccssccccsssccccccccc"
       inkscape:connector-curvature="0"
       style="fill:none;stroke:#cc0000;stroke-width:8;stroke-miterlimit:4;stroke-dasharray:none"
       d="m 1386.7319,429.6905 c 0,0 1.6195,14.16519 1.7905,29.98001 0.1709,15.81483 -1.1259,33.27929 -6.5632,39.87784 -5.4374,6.59855 -5.4302,-12.91632 -5.6436,-34.97592 -0.1066,-11.02979 -0.2691,-22.69577 -1.1103,-32.05184 -0.8411,-9.35607 -2.3545,-16.40224 -5.1165,-18.19241 -2.762,-1.79018 -4.0052,3.39956 -4.5217,12.29046 -0.5165,8.8909 -0.3176,21.48296 -0.1813,34.49745 0.1363,13.0145 0.2087,26.45141 -0.4525,37.03202 -0.6612,10.58061 -2.0473,18.3049 -4.7755,19.89415 -2.7281,1.58924 -4.0636,-4.52417 -4.751,-14.62471 -0.6875,-10.10054 -0.7405,-24.18822 -0.8784,-38.54751 -0.1378,-14.3593 -0.3614,-28.99021 -1.2543,-40.17722 -0.8928,-11.18701 -2.4429,-18.93012 -5.1804,-19.51382 -2.7375,-0.5837 -3.9222,6.56275 -4.3881,17.66817 -0.4658,11.10542 -0.2266,26.1698 -0.078,41.42197 0.1486,15.25217 0.2058,30.69212 -0.4769,42.54868 -0.6827,11.85656 -2.0929,20.12972 -4.8213,21.04831 -5.4567,1.83718 -5.3906,-10.77373 -5.3928,-22.52014 -0,-11.74641 -0.061,-22.62831 -5.4858,-17.33314 -5.4252,5.29518 -5.3985,16.157 -5.4163,25.95256 -0.018,9.79556 -0.073,18.52486 -5.5274,19.55502 -5.454,1.03016 -5.3944,-8.04739 -5.3729,-17.04683 0.022,-8.99944 0.01,-17.92078 -5.4397,-16.57821 -5.4456,1.34257 -5.436,10.25374 -5.4616,18.94325 -0.026,8.68951 -0.085,17.15737 -5.5355,17.61334 -5.4507,0.45597 -5.3896,-8.07247 -5.3624,-16.68246 0.027,-8.60999 0.02,-17.30152 -5.4275,-17.17174 -5.4474,0.12979 -5.4405,8.80913 -5.4685,17.4642 -0.028,8.65507 -0.091,17.28586 -5.5383,17.31853 -5.4477,0.0327 -5.3725,-11.10795 -5.3495,-19.77137 0.023,-8.66342 0.025,-14.84963 -5.4372,-4.90812 -5.4626,9.94151 -6.8625,16.12313 -6.8852,19.81938 -0.023,3.69624 1.329,4.9071 1.329,4.9071 m 75.1414,-134.43796 c 0,0 1.6327,11.37208 1.8332,21.99466 0.2005,10.62258 -1.0229,20.49566 -6.5148,17.49769 -5.4919,-2.99797 -5.649,-12.95891 -5.8331,-22.18446 -0.1842,-9.22554 -0.3902,-17.71567 -5.839,-17.77203 -5.4489,-0.0564 -5.2376,8.71719 -5.064,17.37272 0.1735,8.65553 0.3104,17.19304 -5.1456,16.66461 -5.4561,-0.52843 -5.5955,-9.05783 -5.7651,-17.43839 -0.1696,-8.38056 -0.3682,-16.61229 -5.8141,-16.54538 -5.4459,0.0669 -5.2463,8.36572 -5.08,16.58893 0.1663,8.22322 0.2999,16.37084 -5.1515,16.1354 -5.4514,-0.23544 -5.5861,-8.37842 -5.7497,-16.44075 -0.1637,-8.06233 -0.3556,-16.044 -5.801,-15.95683 -5.4454,0.0872 -5.1189,12.97184 -4.819,30.76403 0.2998,17.7922 0.537,40.49192 -4.8541,60.20923 -2.6956,9.85866 -4.0641,9.11306 -4.7603,2.45188 -0.6962,-6.66118 -0.7458,-19.23792 -0.8834,-33.04155 -0.1376,-13.80363 -0.3685,-28.83415 -1.2735,-40.40286 -0.9049,-11.5687 -2.4687,-19.67561 -5.1914,-19.63202 -2.7227,0.0436 -3.8875,7.83425 -4.3299,20.24363 -0.4425,12.40938 -0.1761,29.43748 -0.027,47.95595 0.1494,18.51846 0.1776,38.52729 -0.5981,56.89813 -0.7756,18.37084 -2.3504,35.10369 -5.2668,47.07019 -1.4582,5.98326 -2.5111,7.55373 -3.2462,5.77887 -0.7351,-1.77487 -1.1557,-6.89507 -1.3917,-14.29318 -0.472,-14.79621 -0.2389,-38.70402 -0.2529,-63.18395 -0.014,-24.47992 -0.2794,-49.53195 -1.2346,-66.61658 -0.9552,-17.08463 -2.5369,-26.20186 -5.1097,-18.8122 -2.5728,7.38967 -3.6329,23.05824 -4.1094,42.4044 -0.4764,19.34615 -0.385,42.36991 -0.4826,64.46995 -0.098,22.10005 -0.3803,43.27639 -1.3447,58.92771 -0.9645,15.65133 -2.5871,25.77764 -5.3108,25.77764 -2.7238,0 -3.8376,-9.80345 -4.258,-23.83435 -0.4205,-14.0309 -0.1694,-32.28926 -0.049,-49.19908 0.1206,-16.90983 0.1177,-32.47112 -0.5842,-41.10789 -0.7019,-8.63676 -2.0669,-10.34901 -4.7656,0.43926 -2.6987,10.78827 -4.0758,23.28878 -4.8333,35.97115 -0.7575,12.68237 -0.8957,25.54659 -1.0644,37.06228 -0.3375,23.03138 -0.7882,40.66863 -6.2357,40.66863 -5.4475,0 -6.5255,-11.7762 -6.3061,-23.55241 0.2194,-11.7762 1.7363,-23.55241 1.7363,-23.55241"
       id="path5531" />
    <path
       inkscape:connector-curvature="0"
       style="fill:none;stroke:#cc0000;stroke-width:8;stroke-miterlimit:4;stroke-dasharray:none"
       d="m 1628.9398,401.98335 c 0,0 4.8066,-1.8e-4 -4.8067,-1.8e-4 -4.8067,0 -4.6078,8.24755 -4.4402,16.51866 0.1677,8.2711 0.3039,16.56576 -4.5012,16.65996 -4.8052,0.0942 -4.9409,-8.20045 -5.1093,-16.51866 -0.1683,-8.3182 -0.3694,-16.65996 -5.1761,-16.65996 -4.8067,0 -4.6055,8.34176 -4.4363,16.70707 0.1692,8.36531 0.3062,16.75417 -4.4989,16.84837 -4.8052,0.0942 -4.9417,-8.29465 -5.1116,-16.70706 -0.1699,-8.41242 -0.3732,-16.84838 -5.1799,-16.84838 -4.8067,0 -4.6033,8.43596 -4.4325,16.89548 0.1707,8.45951 0.3085,16.94258 -4.4966,17.03679 -4.8052,0.0942 -4.9426,-8.38886 -5.114,-16.89548 -0.1714,-8.50662 -0.377,-17.03679 -5.1837,-17.03679 -4.8067,0 -4.601,8.53017 -4.4287,17.08389 0.1723,8.55372 0.3109,17.131 -4.4943,17.2252 -4.8051,0.0942 -4.9433,-8.48306 -5.1162,-17.08389 -0.1729,-8.60082 -0.3808,-17.2252 -5.1875,-17.2252 -4.8067,0 -4.5987,8.62438 -4.425,17.27231 0.1738,8.64793 0.3132,17.31941 -4.492,17.41361 -4.8051,0.0942 -4.944,-8.57727 -5.1185,-17.2723 -0.1744,-8.69504 -0.3846,-17.41362 -5.1913,-17.41362 -4.8067,0 -5.6273,15.80155 -5.3625,31.60311 0.2649,15.80155 1.6153,31.6031 1.6153,31.6031 m 67.4481,58.0776 c 0,0 1.2377,-8.77212 1.2377,-17.60861 0,-8.83649 -1.2383,-17.73735 -6.046,-17.99483 -4.8078,-0.25748 -4.7697,8.66886 -4.769,17.68505 6e-4,9.0162 -0.037,18.12224 -4.844,18.22416 -4.8071,0.10193 -4.7689,-8.99368 -4.7694,-18.12766 -5e-4,-9.13398 -0.04,-18.30634 -4.8468,-18.35792 -4.8069,-0.0516 -4.7671,9.12077 -4.7666,18.33151 6e-4,9.21073 -0.038,18.45984 -4.8457,18.56177 -4.8071,0.10192 -4.7675,-9.13518 -4.7677,-18.39777 -10e-5,-9.26258 -0.04,-18.55065 -4.847,-18.55065 -4.8067,0 -4.7664,9.28807 -4.7663,18.60161 0,9.31355 -0.04,18.65258 -4.8475,18.75451 -4.8071,0.10193 -4.7662,-9.2371 -4.7659,-18.60162 3e-4,-9.36451 -0.04,-18.7545 -4.8471,-18.7545 -4.8067,0 -4.7659,9.38999 -4.7663,18.80547 -4e-4,9.41547 -0.042,18.85643 -4.8492,18.95836 -2.4036,0.051 -3.5625,-7.59935 -4.1633,-19.10348 -0.6008,-11.50414 -0.6571,-26.86209 -0.8079,-42.22642 -0.1508,-15.36433 -0.396,-30.73503 -1.2233,-42.26464 -0.8274,-11.52962 -2.223,-19.21815 -4.6263,-19.21815 -2.4034,0 -3.6862,8.64473 -4.3399,21.61182 -0.6538,12.96709 -0.6959,30.25655 -0.5571,47.546 0.1388,17.28946 0.4586,34.57891 0.7197,47.546 0.2612,12.96709 0.4811,21.61182 0.4811,21.61182 m 76.4838,34.93205 c 0,0 1.0681,8.25993 0.9024,16.53377 -0.1656,8.27385 -1.5651,16.56161 -6.3731,16.61729 -4.8081,0.0557 -4.61,-8.23208 -4.4436,-16.53377 0.1664,-8.30168 0.3009,-16.61729 -4.5057,-16.61729 -4.8067,0 -4.9412,8.31561 -5.1082,16.64513 -0.167,8.32953 -0.3666,16.67298 -5.1746,16.72866 -4.808,0.0557 -4.6082,-8.28777 -4.4405,-16.64513 0.1677,-8.35737 0.3032,-16.72866 -4.5035,-16.72866 -4.8067,0 -4.9421,8.37129 -5.1104,16.7565 -0.1683,8.3852 -0.3697,16.78433 -5.1777,16.84001 -4.808,0.0557 -4.6064,-8.34344 -4.4373,-16.75649 0.169,-8.41305 0.3053,-16.84002 -4.5013,-16.84002 -4.8067,0 -4.943,8.42697 -5.1127,16.86786 -0.1696,8.44089 -0.3728,16.8957 -5.1808,16.95138 -4.808,0.0557 -4.6046,-8.39913 -4.4342,-16.86786 0.1703,-8.46873 0.3076,-16.95138 -4.4991,-16.95138 -4.8067,0 -4.9439,8.48539 -5.1149,16.98069 -0.171,8.4953 -0.3758,17.0005 -5.1834,17.04011 -2.4038,0.0198 -3.2601,-13.2817 -3.5365,-33.06652 -0.2764,-19.78483 -0.014,-46.05298 -0.023,-71.9665 -0.01,-25.91351 -0.2862,-51.47238 -1.1915,-69.83863 -0.9053,-18.36625 -2.3928,-29.53989 -4.731,-26.68294 -2.3383,2.85695 -3.2095,16.88767 -3.5317,36.3269 -0.3221,19.43922 -0.1243,44.28696 -0.1649,68.77796 -0.041,24.49101 -0.3179,48.62527 -1.2277,66.63756 -0.9099,18.01228 -2.4195,29.90257 -4.8229,29.90563 -2.4034,0.003 -3.3202,-11.1545 -3.6341,-27.31226 -0.3139,-16.15776 -0.054,-37.31573 0.035,-57.31349 0.089,-19.99776 0.012,-38.83532 -0.6725,-50.35225 -0.6847,-11.51694 -1.9356,-15.71326 -4.2575,-6.42854 -2.3218,9.28471 -3.4393,22.76623 -4.0403,37.76445 -0.6009,14.99823 -0.6892,31.51317 -0.8566,46.86472 -0.3349,30.70311 -0.9935,56.75268 -5.7991,56.70799 -2.4028,-0.0224 -3.4422,-6.55803 -3.8558,-15.72075 -0.4136,-9.16272 -0.2107,-20.95247 -0.073,-31.48296 0.1381,-10.53049 0.2161,-19.80172 -0.3536,-23.9274 -0.5697,-4.12567 -1.7684,-3.10578 -4.2639,6.94596 -4.991,20.10348 -5.2765,36.17532 -5.4972,47.13738 -0.2206,10.96206 -0.3713,16.81434 -5.17,16.47869 -9.5972,-0.67128 -4.7929,-0.57434 -4.7929,-0.57434"
       id="path5527"
       inkscape:path-effect="#path-effect5603"
       inkscape:original-d="m 1436.6723,608.32885 c 0,-0.91717 11.5167,-47.72019 25.5925,-104.00667 l 25.5925,-102.33901 70.5412,0 70.5413,0 -2.1462,8.66238 c -1.1804,4.76431 -3.0795,12.20609 -4.2201,16.53728 l -2.074,7.8749 -44.5398,0.87321 -44.5398,0.87322 -3.3431,11.72662 c -1.8386,6.44963 -4.2135,17.7509 -5.2774,25.11393 l -1.9345,13.38732 39.8026,0 c 21.8914,0 39.7753,1.06311 39.7419,2.36247 -0.033,1.29936 -1.896,9.44988 -4.1389,18.11226 l -4.0782,15.74979 -41.4124,0.87805 -41.4124,0.87808 -3.3417,11.72175 c -1.8379,6.44699 -4.2122,17.74608 -5.2761,25.10911 l -1.9345,13.38732 46.1625,0 46.1626,0 -2.1462,8.66238 c -1.1804,4.76431 -3.0805,12.20609 -4.2223,16.53728 l -2.0762,7.8749 -73.0116,0.84554 c -40.1564,0.46506 -73.0117,0.0951 -73.0117,-0.82211 z" />
    <path
       inkscape:original-d="m 1748.5312,490.0625 c 1e-4,-1.79517 3.05,-15.43541 6.7813,-30.3125 l 6.7813,-27.03125 22.1874,1.5625 c 19.1124,1.36748 23.1956,2.77447 29.4376,10.03125 13.2552,15.41014 7.7922,34.09723 -12.8126,43.875 -10.3035,4.88942 -40.5472,6.6764 -49.7123,3.89083 l -6.2251,35.89042 c 14.6993,0 28.6801,6.47019 33.125,15.3125 2.3005,4.57648 7.3768,21.44334 11.2812,37.46875 l 7.0938,29.125 27.8437,0 27.8125,0 -4.75,-16.53125 c -12.8861,-44.98147 -17.5423,-55.77838 -28.1875,-65.125 -12.6522,-11.1088 -13.697,-16 -3.4375,-16 11.6872,0 44.173,-17.77536 52.125,-28.53125 16.0433,-21.69965 14.7614,-44.26998 -3.5312,-62 -17.3743,-16.83982 -30.9968,-19.7029 -93.375,-19.6875 l -55.5313,0 -24.9687,98.4375 c -13.7415,54.13234 -25.6336,100.95702 -26.4063,104.0625 -1.2791,5.14048 0.9453,5.55758 24.7187,4.71875 l 26.0938,-0.90625 8.4375,-31.5 c 4.6359,-17.32477 9.4138,-35.39194 10.5937,-40.15625 1.5898,-6.41886 3.6386,-8.41093 9.6305,-8.65979 z"
       inkscape:path-effect="#path-effect5725"
       sodipodi:nodetypes="ccccssccscccccsssscccscccccc"
       inkscape:connector-curvature="0"
       style="fill:none;stroke:#cc0000;stroke-width:8;stroke-miterlimit:4;stroke-dasharray:none"
       d="m 1868.8052,426.51023 c 0,0 1.5774,12.39832 1.7468,26.13331 0.1694,13.73499 -1.0829,28.80664 -6.4409,34.1533 -5.358,5.34666 -5.4063,-11.54209 -5.6255,-30.58953 -0.1096,-9.52372 -0.2622,-19.58712 -1.0799,-27.68059 -0.8177,-8.09348 -2.2959,-14.21704 -5.0223,-15.86109 -5.4526,-3.28809 -4.9787,17.62998 -4.7022,40.09891 0.1383,11.23446 0.2306,22.85664 -0.3973,32.03461 -0.6278,9.17797 -1.9693,15.91174 -4.6589,17.36939 -2.6896,1.45765 -4.0325,-3.77447 -4.7379,-12.47156 -0.7054,-8.6971 -0.7836,-20.85917 -0.9257,-33.26144 -0.1421,-12.40226 -0.3487,-25.04471 -1.2096,-34.70256 -0.8609,-9.65784 -2.3672,-16.33109 -5.0689,-16.79495 -2.7017,-0.46386 -3.8943,5.77592 -4.3758,15.43539 -0.4814,9.65948 -0.2621,22.73866 -0.1103,35.95359 0.1517,13.21494 0.2353,26.56564 -0.4071,36.76817 -0.6423,10.20252 -2.0012,17.25687 -4.6928,17.87911 -5.3831,1.24448 -5.3711,-8.43569 -5.3961,-17.27588 -0.025,-8.84019 -0.078,-16.8404 -5.4337,-12.23601 -2.6778,2.3022 -3.9661,11.89337 -4.6397,24.778 -0.6736,12.88463 -0.7447,29.06271 -0.9053,44.53873 -0.1606,15.47603 -0.4081,30.25 -1.2794,40.32639 -0.8713,10.07639 -2.3491,15.45521 -4.9653,12.14094 -2.6162,-3.31427 -3.7664,-12.08285 -4.2464,-23.34232 -0.48,-11.25947 -0.2966,-25.00983 -0.187,-38.28762 0.1097,-13.2778 0.1468,-26.08305 -0.5254,-35.45231 -0.6722,-9.36926 -2.0444,-15.30253 -4.7337,-14.83639 -2.6893,0.46615 -4.0156,5.50133 -4.6848,12.46414 -0.6693,6.96281 -0.6862,15.85324 -0.7276,24.02989 -0.041,8.17666 -0.1056,15.63953 -0.8178,19.74722 -0.7123,4.10768 -2.0646,4.86019 -4.7054,-0.38391 -5.2815,-10.48818 -5.2055,-24.00522 -5.1895,-34.88087 0.016,-10.87565 -0.014,-19.1099 -5.3956,-19.0325 -5.3814,0.0774 -5.3539,9.7892 -5.368,19.1666 -0.014,9.37739 -0.067,18.42038 -5.4416,17.16019 -5.3748,-1.2602 -6.673,-10.52922 -6.6644,-19.48318 0.01,-8.95397 1.3267,-17.59289 1.3267,-17.59289 m 96.0239,100.00438 c 0,0 4.9993,17.34811 -5.7641,17.34811 -5.3817,0 -5.1384,-9.80549 -4.8994,-22.48523 0.239,-12.67974 0.4552,-28.23372 -4.8155,-39.73071 -2.6353,-5.74849 -3.9905,-4.73424 -4.7092,0.0207 -0.7186,4.7549 -0.8112,13.25046 -0.9481,22.46457 -0.1369,9.21412 -0.3201,19.1468 -1.1535,26.77594 -0.8333,7.62915 -2.3103,12.95477 -5.0012,12.95477 -5.3817,0 -6.2168,-21.21616 -5.9148,-42.43233 0.302,-21.21616 1.741,-42.43233 1.741,-42.43233 m -1.1839,-122.00822 c 0,0 1.6271,11.94717 1.8279,22.76977 0.2007,10.8226 -1.0112,20.52064 -6.4596,16.02236 -5.4485,-4.49828 -5.6088,-14.29792 -5.7845,-23.00893 -0.1757,-8.71101 -0.3603,-16.33339 -5.7455,-16.47715 -5.3851,-0.14375 -5.1857,8.16879 -5.0195,16.40234 0.1662,8.23356 0.2998,16.38812 -5.0895,15.92841 -5.3893,-0.45972 -5.5248,-8.60667 -5.6883,-16.64296 -0.1636,-8.03628 -0.3544,-15.96191 -5.7365,-15.97896 -5.3821,-0.0171 -5.1998,7.54149 -5.0388,15.39659 0.1609,7.85509 0.2984,16.00673 -5.064,17.17583 -5.3624,1.1691 -5.4943,-6.97826 -5.6638,-15.41789 C 1760.8605,410.7319 1760.6511,402 1755.2694,402 c -5.3817,0 -5.0576,12.51525 -4.7407,31.39151 0.3169,18.87625 0.5904,44.11352 -4.7738,69.55755 -2.682,12.72201 -4.0405,12.7737 -4.7088,5.69511 -0.6682,-7.0786 -0.6829,-21.28748 -0.8086,-37.08662 -0.1257,-15.79914 -0.3706,-33.18852 -1.2953,-46.62813 C 1738.0176,411.48982 1736.4334,402 1733.7426,402 c -2.6909,0 -3.8282,8.16878 -4.2532,21.09246 -0.4249,12.92368 -0.1525,30.60227 -0.01,49.62188 0.1463,19.0196 0.1621,39.38023 -0.6141,57.66801 -0.7762,18.28778 -2.3377,34.5027 -5.2016,45.23089 -1.4319,5.36409 -2.4624,6.42921 -3.1818,4.2476 -0.7195,-2.18162 -1.1312,-7.60997 -1.364,-15.23281 -0.4656,-15.24569 -0.249,-39.26934 -0.277,-63.65305 -0.028,-24.3837 -0.3035,-49.12744 -1.2495,-65.81331 -0.473,-8.34293 -1.1048,-14.67139 -1.9286,-17.93313 -0.8238,-3.26175 -1.8364,-3.45679 -3.1017,0.46713 -2.5306,7.84784 -3.5741,23.691 -4.0444,43.04719 -0.4703,19.35618 -0.3819,42.22539 -0.4778,64.12531 -0.096,21.89992 -0.3722,42.83055 -1.3216,58.30959 -0.9494,15.47903 -2.5493,25.50647 -5.2424,25.6 -2.6931,0.0935 -3.7959,-9.60244 -4.2128,-23.54279 -0.4169,-13.94035 -0.1697,-32.12508 -0.051,-49.00906 0.1183,-16.88398 0.1144,-32.4672 -0.5804,-41.20456 -0.6948,-8.73735 -2.0453,-10.62882 -4.7093,-0.12929 -2.664,10.49953 -4.0198,22.89515 -4.7645,35.58605 -0.7448,12.69091 -0.8791,25.67709 -1.0464,37.35777 -0.3346,23.36134 -0.7938,41.50061 -6.1781,41.61139 -2.6922,0.0554 -3.9273,-4.46471 -4.4689,-10.56129 -0.5416,-6.09659 -0.394,-13.76966 -0.2885,-20.02022 0.1055,-6.25056 0.1728,-11.07861 -0.4941,-11.48514 -0.667,-0.40654 -2.0558,3.60843 -4.9491,15.04392 -2.8933,11.43549 -4.7416,18.68909 -5.8532,23.13703 -1.1116,4.44794 -1.4901,6.09022 -1.4953,6.30307 -0.011,0.42569 1.4619,-4.86637 1.4619,-4.86637"
       id="path5525" />
    <path
       inkscape:connector-curvature="0"
       style="fill:none;stroke:#cc0000;stroke-width:8;stroke-miterlimit:4;stroke-dasharray:none"
       d="m 1924.6912,412.09403 c 0,0 197.6842,-5.82172 195.323,4.1023 -2.3613,9.92402 -196.6352,0.86034 -199.1142,10.78477 -2.479,9.92443 230.6776,-1.00917 157.4651,9.22463 -73.2126,10.23379 -89.9447,0.39355 -91.234,10.31258 -1.2892,9.91902 53.3923,-0.23355 50.9219,9.69056 -2.4704,9.9241 -52.586,0.2301 -54.8497,10.15319 -2.2638,9.92309 52.3793,-0.2291 49.909,9.6948 -2.4703,9.9239 -52.1818,0.22833 -54.5496,10.15168 -2.3678,9.92334 52.0793,-0.22779 49.609,9.69591 -2.4703,9.9237 -51.979,0.22745 -54.4112,10.15088 -2.4322,9.92342 51.9409,-0.22718 49.4707,9.69632 -2.4702,9.9235 -51.9035,0.22711 -54.3897,10.15057 -2.4861,9.92347 51.9195,-0.22707 49.4493,9.69622 -2.4702,9.9233 -51.9413,0.22727 -54.4392,10.15059 -2.4979,9.92332 51.969,-0.22728 49.4988,9.69581 -2.4701,9.9231 -51.9967,0.22751 -54.4946,10.15063 -2.4979,9.92312 52.0245,-0.22753 49.5544,9.69537 -2.4701,9.92289 -52.0523,0.22774 -54.5501,10.15066 -2.4978,9.92293 52.08,-0.22776 49.6099,9.69494 -2.47,9.9227 -53.3594,5.18934 -53.3594,5.18934"
       id="path5521"
       inkscape:path-effect="#path-effect5607"
       inkscape:original-d="m 1967.7265,530.34396 c 11.0116,-43.74505 20.0587,-82.72578 20.1048,-86.62385 0.082,-6.92617 -0.706,-7.08741 -34.6259,-7.08741 l -34.7095,0 2.1461,-8.66238 c 1.1804,-4.76431 3.0808,-12.20609 4.2231,-16.53728 l 2.0768,-7.87489 98.2819,-0.83247 98.2819,-0.83247 -2.1574,8.70737 c -6.6998,27.0398 -2.2123,24.35724 -42.3873,25.33849 l -36.0845,0.88135 -21.5397,86.53 -21.5398,86.52998 -26.0457,0 -26.0458,0 20.021,-79.53644 z" />
    <path
       inkscape:connector-curvature="0"
       style="fill:none;stroke:#cc0000;stroke-width:8;stroke-miterlimit:4;stroke-dasharray:none"
       d="m 2863.5597,401.98317 c 0,0 1.4006,8.24755 1.5683,16.51866 0.1676,8.2711 -0.8978,16.56575 -5.703,16.65996 -4.8051,0.0942 -4.9409,-8.20045 -5.1092,-16.51866 -0.1684,-8.3182 -0.3694,-16.65996 -5.1761,-16.65996 -4.8067,0 -4.6055,8.34176 -4.4363,16.70707 0.1692,8.36531 0.3062,16.75417 -4.4989,16.84837 -4.8052,0.0942 -4.9418,-8.29465 -5.1116,-16.70706 -0.1699,-8.41242 -0.3733,-16.84838 -5.18,-16.84838 -4.8067,0 -4.6032,8.43596 -4.4325,16.89548 0.1708,8.45951 0.3086,16.94258 -4.4966,17.03679 -4.8051,0.0942 -4.9425,-8.38886 -5.1139,-16.89548 -0.1714,-8.50662 -0.377,-17.03679 -5.1837,-17.03679 -4.8067,0 -4.601,8.53017 -4.4287,17.08389 0.1723,8.55372 0.3109,17.131 -4.4943,17.2252 -4.8052,0.0942 -4.9433,-8.48306 -5.1162,-17.08389 -0.173,-8.60082 -0.3809,-17.2252 -5.1875,-17.2252 -4.8067,0 -4.5987,8.62438 -4.425,17.27231 0.1738,8.64792 0.3132,17.3194 -4.492,17.41361 -4.8051,0.0942 -4.944,-8.57727 -5.1185,-17.2723 -0.1744,-8.69504 -0.3846,-17.41362 -5.1913,-17.41362 -4.8067,0 -5.6273,15.80148 -5.3625,31.60297 0.2649,15.80148 1.6153,31.60296 1.6153,31.60296 m 67.4475,22.73192 c 0,0 1.2381,8.81101 1.2383,17.6475 2e-4,8.83649 -1.2377,17.69846 -6.0448,17.80039 -4.8071,0.10192 -4.7699,-8.85538 -4.7703,-17.87157 -3e-4,-9.01619 -0.039,-18.09128 -4.846,-18.22493 -4.8072,-0.13366 -4.768,8.94143 -4.7673,18.07541 6e-4,9.13398 -0.038,18.32686 -4.8448,18.42878 -4.8072,0.10192 -4.7682,-9.08289 -4.7686,-18.29362 -4e-4,-9.21074 -0.04,-18.44739 -4.847,-18.44917 -4.8067,-0.002 -4.7667,9.23488 -4.7664,18.49746 3e-4,9.26259 -0.039,18.5511 -4.8465,18.65303 -4.8071,0.10192 -4.7669,-9.18615 -4.7668,-18.49969 0,-9.31355 -0.04,-18.65258 -4.8471,-18.65258 -4.8067,0 -4.7662,9.33903 -4.7663,18.70354 -1e-4,9.36451 -0.041,18.7545 -4.8483,18.85643 -4.8072,0.10193 -5.9672,-9.28806 -5.9667,-18.70354 4e-4,-9.41547 1.1612,-18.85643 1.1612,-18.85643 m 57.158,88.19883 c 0,0 1.0681,8.25993 0.9024,16.53377 -0.1656,8.27385 -1.5651,16.56161 -6.3732,16.6173 -4.808,0.0557 -4.6099,-8.23209 -4.4435,-16.53378 0.1664,-8.30168 0.3009,-16.61729 -4.5058,-16.61729 -4.8066,0 -4.9411,8.31561 -5.1081,16.64513 -0.167,8.32953 -0.3666,16.67298 -5.1746,16.72866 -4.808,0.0557 -4.6082,-8.28777 -4.4405,-16.64513 0.1677,-8.35737 0.3032,-16.72866 -4.5035,-16.72866 -4.8067,0 -4.9421,8.37129 -5.1104,16.7565 -0.1683,8.3852 -0.3697,16.78433 -5.1777,16.84001 -4.808,0.0557 -4.6064,-8.34344 -4.4373,-16.75649 0.169,-8.41305 0.3053,-16.84002 -4.5013,-16.84002 -4.8067,0 -4.943,8.42697 -5.1127,16.86786 -0.1696,8.44089 -0.3728,16.8957 -5.1808,16.95138 -4.808,0.0557 -4.6046,-8.39913 -4.4342,-16.86786 0.1704,-8.46873 0.3076,-16.95138 -4.4991,-16.95138 -4.8067,0 -4.9439,8.48539 -5.1149,16.98069 -0.171,8.4953 -0.3757,17.0005 -5.1834,17.04011 -2.4038,0.0198 -3.2601,-13.28168 -3.5364,-33.0665 -0.2764,-19.78481 -0.014,-46.05295 -0.023,-71.96646 -0.01,-25.91352 -0.2862,-51.4724 -1.1915,-69.83869 -0.9053,-18.36629 -2.3927,-29.53999 -4.731,-26.68315 -2.3382,2.85685 -3.2095,16.88752 -3.5317,36.32675 -0.3221,19.43923 -0.1242,44.28701 -0.1649,68.77806 -0.041,24.49106 -0.3178,48.62539 -1.2277,66.63772 -0.9098,18.01234 -2.4195,29.90267 -4.8229,29.90573 -2.4034,0.003 -3.3202,-11.15452 -3.6341,-27.31232 -0.3139,-16.15779 -0.053,-37.3158 0.035,-57.31361 0.089,-19.9978 0.012,-38.83539 -0.6726,-50.35234 -0.6846,-11.51696 -1.9355,-15.71328 -4.2574,-6.42853 -2.3219,9.28474 -3.4394,22.76628 -4.0404,37.76454 -0.6009,14.99826 -0.6891,31.51322 -0.8565,46.8648 -0.3349,30.70316 -0.9935,56.75277 -5.7991,56.70808 -2.4028,-0.0224 -3.4423,-6.55804 -3.8558,-15.72079 -0.4136,-9.16274 -0.2108,-20.95252 -0.073,-31.48305 0.1381,-10.53053 0.2161,-19.8018 -0.3535,-23.9275 -0.5697,-4.12571 -1.7685,-3.10586 -4.264,6.94586 -4.9909,20.10343 -5.2765,36.17535 -5.4971,47.13751 -0.2207,10.96215 -0.3714,16.81454 -5.17,16.47892 -9.5973,-0.67125 -4.793,-0.57468 -4.793,-0.57468 m 76.8778,-206.14884 c 0,0 0.4822,7.20089 1.002,18.24286 0.5198,11.04197 1.0652,25.92502 1.223,41.28935 0.1577,15.36432 -0.074,31.20992 -0.975,44.17699 -0.9014,12.96707 -2.4636,23.05561 -4.8911,26.90581 -2.4274,3.8502 -3.8757,-2.38814 -4.742,-13.91139 -0.8664,-11.52324 -1.1745,-28.33139 -1.3056,-45.62082 -0.131,-17.28942 -0.087,-35.06012 -0.04,-48.50847 0.047,-13.44834 0.1158,-22.57433 0.1158,-22.57433"
       id="path5515"
       inkscape:path-effect="#path-effect5613"
       inkscape:original-d="m 2680.9057,608.32885 c 0,-0.91717 11.5166,-47.72019 25.5925,-104.00667 l 25.5924,-102.33901 70.5413,0 70.5412,0 -2.1461,8.66238 c -1.1804,4.76431 -3.0795,12.20609 -4.2202,16.53728 l -2.074,7.8749 -44.5398,0.87321 -44.5398,0.87322 -3.343,11.72662 c -1.8387,6.44963 -4.2135,17.7509 -5.2775,25.11393 l -1.9345,13.38732 39.8027,0 c 21.8914,0 39.7753,1.06311 39.7418,2.36247 -0.033,1.29936 -1.8959,9.44988 -4.1389,18.11226 l -4.0781,15.74979 -41.4124,0.87805 -41.4125,0.87808 -3.3416,11.72175 c -1.838,6.44699 -4.2123,17.74608 -5.2762,25.10911 l -1.9345,13.38732 46.1626,0 46.1625,0 -2.1461,8.66238 c -1.1804,4.76431 -3.0805,12.20609 -4.2224,16.53728 l -2.0761,7.8749 -73.0117,0.84554 c -40.1564,0.46506 -73.0116,0.0951 -73.0116,-0.82211 z" />
    <g
       id="g5496">
      <g
         transform="translate(-690.50698,11.5123)"
         id="g4183"
         inkscape:transform-center-x="-8.6562898"
         inkscape:transform-center-y="-218.4461">
        <path
           inkscape:transform-center-y="-225.48764"
           id="path3214"
           d="m 1544.7929,360.58007 c 0,0 0.947,4.1518 0.9695,3.34356 0.011,-0.40411 -0.2065,-2.04824 -0.8974,-6.07135 -0.6909,-4.02311 -1.8517,-10.4252 -3.774,-20.34526 -1.9223,-9.92006 -2.936,-13.61628 -3.4656,-13.66952 -0.5295,-0.0532 -0.5861,3.53651 -0.6722,8.18838 -0.1722,9.30373 -0.4981,22.85593 -4.6724,20.00973 -4.1743,-2.84621 -3.8313,-16.45904 -3.568,-35.14981 0.2634,-18.69078 0.4135,-42.45949 -3.9473,-65.61747 -2.1803,-11.57899 -3.2531,-11.42626 -3.7406,-4.77282 -0.4875,6.65345 -0.4295,19.80762 -0.4805,34.23152 -0.051,14.42389 -0.2189,30.11752 -0.9341,41.84988 -0.7153,11.73236 -1.9538,19.50346 -4.0457,18.0823 -2.0919,-1.42116 -2.9311,-11.45772 -3.2683,-25.75758 -0.3372,-14.29986 -0.1942,-32.86301 -0.2214,-51.33735 -0.027,-18.47433 -0.2241,-36.85985 -0.9818,-50.80444 -0.7578,-13.94458 -2.0537,-23.44824 -4.1921,-24.15886 -2.1384,-0.71061 -2.9769,8.08247 -3.2772,21.58304 -0.3002,13.50056 -0.089,31.7086 -0.043,49.82791 0.045,18.1193 -0.075,36.14986 -0.7614,49.29547 -0.6866,13.14561 -1.9122,21.40625 -4.0089,19.98572 -2.0966,-1.42052 -2.9765,-11.09861 -3.3631,-24.84706 -0.3866,-13.74845 -0.2999,-31.56726 -0.3693,-49.26922 -0.069,-17.70197 -0.2943,-35.28709 -1.0651,-48.56818 -0.7707,-13.28108 -2.0663,-22.25812 -4.2001,-22.74392 -2.1338,-0.4858 -2.9697,8.00548 -3.2595,20.92684 -0.2898,12.92137 -0.057,30.2728 0.025,47.50731 0.082,17.23451 0.014,34.35209 -0.6274,46.80574 -0.6413,12.45365 -1.831,20.24336 -3.9324,18.82213 -2.1013,-1.42123 -3.0213,-10.63035 -3.4542,-23.66569 -0.4328,-13.03533 -0.3962,-29.89688 -0.4985,-46.62298 -0.1024,-16.7261 -0.3431,-33.31674 -1.1171,-45.81026 -0.7739,-12.49352 -2.0621,-20.88992 -4.1926,-21.22752 -2.1304,-0.33761 -2.9714,7.72123 -3.2596,19.91043 -0.2882,12.1892 -0.044,28.50877 0.066,44.69262 0.1105,16.18386 0.088,32.23201 -0.5118,43.87837 -0.6,11.64636 -1.756,18.89093 -3.862,17.46765 -2.106,-1.42329 -3.0641,-10.08993 -3.5387,-22.30413 -0.4747,-12.21419 -0.4814,-27.97594 -0.6088,-43.58943 -0.1274,-15.61349 -0.3748,-31.07872 -1.1449,-42.69988 -0.77,-11.62116 -2.0462,-19.39825 -4.1742,-19.63547 -2.1281,-0.23721 -2.9793,7.30271 -3.2724,18.65686 -0.293,11.35414 -0.046,26.52251 0.086,41.5422 0.1319,15.01968 0.149,29.89067 -0.4146,40.65007 -0.5636,10.7594 -1.6889,17.40719 -3.7997,15.98048 -2.1107,-1.42672 -3.1036,-9.50034 -3.6151,-20.81887 -0.5115,-11.31854 -0.5547,-25.88199 -0.7,-40.28837 -0.1453,-14.40638 -0.3922,-28.65569 -1.1533,-39.34593 -0.761,-10.69025 -2.0221,-17.82143 -4.1484,-17.99156 -2.1264,-0.17013 -2.9914,6.79097 -3.2942,17.23883 -0.3027,10.44787 -0.058,24.38252 0.089,38.15949 0.1468,13.77696 0.1964,27.39625 -0.336,37.21341 -0.5325,9.81715 -1.631,15.83218 -3.7464,14.40063 -2.1155,-1.43156 -3.1394,-8.87624 -3.6823,-19.23802 -0.543,-10.36178 -0.6155,-23.64064 -0.7717,-36.74057 -0.1563,-13.09992 -0.3956,-26.0209 -1.1415,-35.6669 -0.7459,-9.64599 -1.9866,-16.01701 -4.1084,-16.01701 -2.1218,0 -3.0034,6.37106 -3.3219,15.83779 -0.3185,9.46673 -0.086,22.02913 0.067,34.41179 0.1529,12.38266 0.2265,24.5856 -0.2811,33.33341 -0.5075,8.7478 -1.583,14.04048 -3.7033,12.60264 -2.1203,-1.43785 -3.1712,-8.17756 -3.7391,-17.46948 -0.568,-9.29193 -0.6612,-21.13607 -0.8197,-32.78277 -0.1584,-11.6467 -0.3815,-23.09596 -1.1061,-31.59812 -0.7245,-8.50217 -1.941,-14.05725 -4.059,-13.91558 -2.118,0.14167 -3.0205,5.83846 -3.3604,14.21361 -0.34,8.37515 -0.1266,19.42865 0.024,30.28375 0.1509,10.85509 0.2399,21.51177 -0.2495,29.09327 -0.4895,7.5815 -1.547,12.08782 -3.6721,10.64219 -2.1251,-1.44562 -3.1982,-7.39777 -3.7839,-15.49781 -0.5858,-8.10004 -0.6902,-18.34797 -0.8419,-28.38514 -0.3034,-20.07435 -0.8194,-39.30568 -5.0503,-38.82489 -2.1154,0.24039 -3.0424,5.16847 -3.4092,12.33444 -0.3667,7.16596 -0.1796,16.56981 -0.039,25.76174 0.2817,18.38386 0.3634,35.92004 -3.8967,33.01014 -4.2602,-2.90991 -4.3806,-20.44693 -4.6554,-37.0836 -0.2747,-16.63667 -0.6875,-32.37299 -4.9132,-31.68151 -4.2258,0.69148 -3.8277,16.42801 -3.581,31.25872 0.2468,14.83072 0.3591,28.75562 -3.9112,25.82385 -4.2703,-2.93177 -4.414,-16.85749 -4.6448,-29.82142 -0.2308,-12.96392 -0.5353,-24.96605 -4.7562,-24.05065 -4.2209,0.9154 -3.9295,12.91775 -3.7327,23.95199 0.1968,11.03425 0.3126,21.1004 -3.9681,18.14341 -4.2806,-2.95699 -4.4197,-13.0239 -4.5912,-22.06357 -0.1716,-9.03967 -0.3659,-17.05211 -4.5823,-15.90016 -4.2163,1.15194 -4.0322,9.16461 -3.9003,16.14285 0.1319,6.97824 0.2212,12.92207 -4.0701,9.93634 -4.2914,-2.98573 -4.3948,-8.93018 -4.4919,-13.77829 -0.097,-4.84812 -0.1827,-8.59989 -4.3953,-7.20025 -8.4253,2.79927 0.3045,15.00803 -8.3004,8.97171 -8.605,-6.03633 -4.3347,-4.51834 -4.3347,-4.51834"
           clip-rule="evenodd"
           inkscape:connector-curvature="0"
           style="fill:none;stroke:#3465a4;stroke-width:4;stroke-miterlimit:4;stroke-dasharray:none"
           inkscape:path-effect="#path-effect3321"
           inkscape:original-d="m 1411.5949,176.05521 c 6.17,0 12.34,0 18.51,0 30.459,2.092 59.437,5.668 82.977,14.68 11.181,56.479 21.314,114 32.553,170.421 -79.708,-54.544 -160.55,-107.955 -239.356,-163.4 30.616,-11.722 64.949,-19.728 105.316,-21.701 z" />
        <path
           style="fill:none;stroke:#3465a4;stroke-width:4;stroke-linecap:round;stroke-linejoin:round;stroke-miterlimit:4;stroke-dasharray:none"
           inkscape:connector-curvature="0"
           clip-rule="evenodd"
           d="m 1411.5949,176.05521 c 6.17,0 12.34,0 18.51,0 30.459,2.092 59.437,5.668 82.977,14.68 11.181,56.479 21.314,114 32.553,170.421 -79.708,-54.544 -160.55,-107.955 -239.356,-163.4 30.616,-11.722 64.949,-19.728 105.316,-21.701 z"
           id="path4181"
           inkscape:transform-center-y="-225.48764" />
      </g>
      <use
         x="0"
         y="0"
         xlink:href="#g4183"
         inkscape:transform-center-x="-202.62699"
         inkscape:transform-center-y="-140.7794"
         id="use4187"
         transform="matrix(0.70710678,0.70710678,-0.70710678,0.70710678,566.44504,-367.51931)"
         width="3200"
         height="1000" />
      <use
         x="0"
         y="0"
         xlink:href="#g4183"
         inkscape:transform-center-x="-140.7794"
         inkscape:transform-center-y="202.62699"
         id="use4209"
         transform="matrix(-0.70710678,0.70710678,-0.70710678,-0.70710678,1594.3769,339.58747)"
         width="3200"
         height="1000" />
      <use
         x="0"
         y="0"
         xlink:href="#g4183"
         inkscape:transform-center-x="8.6562898"
         inkscape:transform-center-y="218.4461"
         id="use4211"
         transform="matrix(-1,0,0,-1,1453.7151,1000)"
         width="3200"
         height="1000" />
      <use
         x="0"
         y="0"
         xlink:href="#g4183"
         inkscape:transform-center-x="202.62696"
         inkscape:transform-center-y="140.77945"
         id="use4213"
         transform="matrix(-0.70710678,-0.70710678,0.70710678,-0.70710678,887.27013,1367.5194)"
         width="3200"
         height="1000" />
      <use
         x="0"
         y="0"
         xlink:href="#g4183"
         inkscape:transform-center-x="218.4461"
         inkscape:transform-center-y="-8.6562413"
         id="use4215"
         transform="matrix(0,-1,1,0,226.85757,1226.8576)"
         width="3200"
         height="1000" />
      <use
         x="0"
         y="0"
         xlink:href="#g4183"
         inkscape:transform-center-x="140.7794"
         inkscape:transform-center-y="-202.62701"
         id="use4217"
         transform="matrix(0.70710678,-0.70710678,0.70710678,0.70710678,-140.66174,660.41251)"
         width="3200"
         height="1000" />
    </g>
    <path
       id="path5839"
       d="m 2640.371,426.51023 c 0,0 1.5774,12.39832 1.7468,26.13331 0.1694,13.73499 -1.0829,28.80664 -6.4409,34.1533 -5.358,5.34666 -5.4063,-11.54209 -5.6255,-30.58953 -0.1096,-9.52372 -0.2622,-19.58712 -1.0799,-27.68059 -0.8177,-8.09348 -2.2959,-14.21704 -5.0223,-15.86109 -5.4526,-3.28809 -4.9787,17.62998 -4.7022,40.09891 0.1383,11.23446 0.2306,22.85664 -0.3973,32.03461 -0.6278,9.17797 -1.9693,15.91174 -4.6589,17.36939 -2.6896,1.45765 -4.0325,-3.77447 -4.7379,-12.47156 -0.7054,-8.6971 -0.7836,-20.85917 -0.9257,-33.26144 -0.1421,-12.40226 -0.3487,-25.04471 -1.2096,-34.70256 -0.8609,-9.65784 -2.3672,-16.33109 -5.0689,-16.79495 -2.7017,-0.46386 -3.8943,5.77592 -4.3758,15.43539 -0.4814,9.65948 -0.2621,22.73866 -0.1103,35.95359 0.1517,13.21494 0.2353,26.56564 -0.4071,36.76817 -0.6423,10.20252 -2.0012,17.25687 -4.6928,17.87911 -5.3831,1.24448 -5.3711,-8.43569 -5.3961,-17.27588 -0.025,-8.84019 -0.078,-16.8404 -5.4337,-12.23601 -2.6778,2.3022 -3.9661,11.89337 -4.6397,24.778 -0.6736,12.88463 -0.7447,29.06271 -0.9053,44.53873 -0.1606,15.47603 -0.4081,30.25 -1.2794,40.32639 -0.8713,10.07639 -2.3491,15.45521 -4.9653,12.14094 -2.6162,-3.31427 -3.7664,-12.08285 -4.2464,-23.34232 -0.48,-11.25947 -0.2966,-25.00983 -0.187,-38.28762 0.1097,-13.2778 0.1468,-26.08305 -0.5254,-35.45231 -0.6722,-9.36926 -2.0444,-15.30253 -4.7337,-14.83639 -2.6893,0.46615 -4.0156,5.50133 -4.6848,12.46414 -0.6693,6.96281 -0.6862,15.85324 -0.7276,24.02989 -0.041,8.17666 -0.1056,15.63953 -0.8178,19.74722 -0.7123,4.10768 -2.0646,4.86019 -4.7054,-0.38391 -5.2815,-10.48818 -5.2055,-24.00522 -5.1895,-34.88087 0.016,-10.87565 -0.014,-19.1099 -5.3956,-19.0325 -5.3814,0.0774 -5.3539,9.7892 -5.368,19.1666 -0.014,9.37739 -0.067,18.42038 -5.4416,17.16019 -5.3748,-1.2602 -6.673,-10.52922 -6.6644,-19.48318 0.01,-8.95397 1.3267,-17.59289 1.3267,-17.59289 m 96.0239,100.00438 c 0,0 4.9993,17.34811 -5.7641,17.34811 -5.3817,0 -5.1384,-9.80549 -4.8994,-22.48523 0.239,-12.67974 0.4552,-28.23372 -4.8155,-39.73071 -2.6353,-5.74849 -3.9905,-4.73424 -4.7092,0.0207 -0.7186,4.7549 -0.8112,13.25046 -0.9481,22.46457 -0.1369,9.21412 -0.3201,19.1468 -1.1535,26.77594 -0.8333,7.62915 -2.3103,12.95477 -5.0012,12.95477 -5.3817,0 -6.2168,-21.21616 -5.9148,-42.43233 0.302,-21.21616 1.741,-42.43233 1.741,-42.43233 m -1.1839,-122.00822 c 0,0 1.6271,11.94717 1.8279,22.76977 0.2007,10.8226 -1.0112,20.52064 -6.4596,16.02236 -5.4485,-4.49828 -5.6088,-14.29792 -5.7845,-23.00893 -0.1757,-8.71101 -0.3603,-16.33339 -5.7455,-16.47715 -5.3851,-0.14375 -5.1857,8.16879 -5.0195,16.40234 0.1662,8.23356 0.2998,16.38812 -5.0895,15.92841 -5.3893,-0.45972 -5.5248,-8.60667 -5.6883,-16.64296 -0.1636,-8.03628 -0.3544,-15.96191 -5.7365,-15.97896 -5.3821,-0.0171 -5.1998,7.54149 -5.0388,15.39659 0.1609,7.85509 0.2984,16.00673 -5.064,17.17583 -5.3624,1.1691 -5.4943,-6.97826 -5.6638,-15.41789 C 2532.4263,410.7319 2532.2169,402 2526.8352,402 c -5.3817,0 -5.0576,12.51525 -4.7407,31.39151 0.3169,18.87625 0.5904,44.11352 -4.7738,69.55755 -2.682,12.72201 -4.0405,12.7737 -4.7088,5.69511 -0.6682,-7.0786 -0.6829,-21.28748 -0.8086,-37.08662 -0.1257,-15.79914 -0.3706,-33.18852 -1.2953,-46.62813 C 2509.5834,411.48982 2507.9992,402 2505.3084,402 c -2.6909,0 -3.8282,8.16878 -4.2532,21.09246 -0.4249,12.92368 -0.1525,30.60227 -0.01,49.62188 0.1463,19.0196 0.1621,39.38023 -0.6141,57.66801 -0.7762,18.28778 -2.3377,34.5027 -5.2016,45.23089 -1.4319,5.36409 -2.4624,6.42921 -3.1818,4.2476 -0.7195,-2.18162 -1.1312,-7.60997 -1.364,-15.23281 -0.4656,-15.24569 -0.249,-39.26934 -0.277,-63.65305 -0.028,-24.3837 -0.3035,-49.12744 -1.2495,-65.81331 -0.473,-8.34293 -1.1048,-14.67139 -1.9286,-17.93313 -0.8238,-3.26175 -1.8364,-3.45679 -3.1017,0.46713 -2.5306,7.84784 -3.5741,23.691 -4.0444,43.04719 -0.4703,19.35618 -0.3819,42.22539 -0.4778,64.12531 -0.096,21.89992 -0.3722,42.83055 -1.3216,58.30959 -0.9494,15.47903 -2.5493,25.50647 -5.2424,25.6 -2.6931,0.0935 -3.7959,-9.60244 -4.2128,-23.54279 -0.4169,-13.94035 -0.1697,-32.12508 -0.051,-49.00906 0.1183,-16.88398 0.1144,-32.4672 -0.5804,-41.20456 -0.6948,-8.73735 -2.0453,-10.62882 -4.7093,-0.12929 -2.664,10.49953 -4.0198,22.89515 -4.7645,35.58605 -0.7448,12.69091 -0.8791,25.67709 -1.0464,37.35777 -0.3346,23.36134 -0.7938,41.50061 -6.1781,41.61139 -2.6922,0.0554 -3.9273,-4.46471 -4.4689,-10.56129 -0.5416,-6.09659 -0.394,-13.76966 -0.2885,-20.02022 0.1055,-6.25056 0.1728,-11.07861 -0.4941,-11.48514 -0.667,-0.40654 -2.0558,3.60843 -4.9491,15.04392 -2.8933,11.43549 -4.7416,18.68909 -5.8532,23.13703 -1.1116,4.44794 -1.4901,6.09022 -1.4953,6.30307 -0.01,0.42569 1.4619,-4.86637 1.4619,-4.86637"
       style="fill:none;stroke:#cc0000;stroke-width:8;stroke-miterlimit:4;stroke-dasharray:none"
       inkscape:connector-curvature="0"
       sodipodi:nodetypes="ccccssccscccccsssscccscccccc"
       inkscape:path-effect="#path-effect5841"
       inkscape:original-d="m 2520.097,490.0625 c 10e-5,-1.79517 3.05,-15.43541 6.7813,-30.3125 l 6.7813,-27.03125 22.1874,1.5625 c 19.1124,1.36748 23.1956,2.77447 29.4376,10.03125 13.2552,15.41014 7.7922,34.09723 -12.8126,43.875 -10.3035,4.88942 -40.5472,6.6764 -49.7123,3.89083 l -6.2251,35.89042 c 14.6993,0 28.6801,6.47019 33.125,15.3125 2.3005,4.57648 7.3768,21.44334 11.2812,37.46875 l 7.0938,29.125 27.8437,0 27.8125,0 -4.75,-16.53125 c -12.8861,-44.98147 -17.5423,-55.77838 -28.1875,-65.125 -12.6522,-11.1088 -13.697,-16 -3.4375,-16 11.6872,0 44.173,-17.77536 52.125,-28.53125 16.0433,-21.69965 14.7614,-44.26998 -3.5312,-62 -17.3743,-16.83982 -30.9968,-19.7029 -93.375,-19.6875 l -55.5313,0 -24.9687,98.4375 c -13.7415,54.13234 -25.6336,100.95702 -26.4063,104.0625 -1.2791,5.14048 0.9453,5.55758 24.7187,4.71875 l 26.0938,-0.90625 8.4375,-31.5 c 4.6359,-17.32477 9.4138,-35.39194 10.5937,-40.15625 1.5898,-6.41886 3.6386,-8.41093 9.6305,-8.65979 z" />
    <g
       transform="translate(0,680)"
       id="g6345">
      <path
         inkscape:connector-curvature="0"
         style="fill:none;stroke:#3465a4;stroke-width:3.95320511"
         d="m 1092.3753,-23.241471 0,83.017307 m 0,-83.017307 3.9532,0 0,79.064102 m 0,0 43.4852,0 0,3.953205 m -47.4384,0 47.4384,0"
         id="path6217" />
      <path
         inkscape:connector-curvature="0"
         style="fill:none;stroke:#3465a4;stroke-width:3.95320511"
         d="m 1273.8455,-23.241471 -31.6256,83.017307 m 31.6256,-71.157692 -27.6724,71.157692 -3.9532,0 m 31.6256,-71.157692 27.6724,71.157692 3.9532,0 m -31.6256,-83.017307 31.6256,83.017307 m -51.3916,-23.719231 39.532,0 m -43.4852,3.953205 47.4384,0"
         id="path6219" />
      <path
         inkscape:connector-curvature="0"
         style="fill:none;stroke:#3465a4;stroke-width:3.95320511"
         d="m 1407.8772,-23.241471 0,83.017307 m 3.9532,-79.064102 0,75.110897 m -3.9532,-79.064102 31.6256,0 11.8596,3.953205 3.9532,3.953205 3.9532,7.9064102 0,11.8596153 -3.9532,7.9064105 -3.9532,3.953205 -11.8596,3.953205 m -27.6724,-39.532051 27.6724,0 11.8596,3.953205 3.9532,7.9064102 0,11.8596153 -3.9532,7.9064105 -11.8596,3.953205 m -27.6724,0 27.6724,0 11.8596,3.953205 3.9532,3.953205 3.9532,7.90641 0,11.859615 -3.9532,7.906411 -3.9532,3.953205 -11.8596,3.953205 -31.6256,0 m 3.9532,-39.532051 27.6724,0 11.8596,3.953205 3.9532,7.90641 0,11.859615 -3.9532,7.906411 -11.8596,3.953205 -27.6724,0"
         id="path6221" />
      <path
         inkscape:connector-curvature="0"
         style="fill:none;stroke:#3465a4;stroke-width:3.95320511"
         d="m 1585.3943,-23.241471 -7.9064,3.953205 -7.9064,7.90641 -3.9532,7.9064103 -3.9532,11.8596153 0,19.7660254 3.9532,11.859615 3.9532,7.906411 7.9064,7.90641 7.9064,3.953205 15.8128,0 7.9064,-3.953205 7.9064,-7.90641 3.9532,-7.906411 3.9532,-11.859615 0,-19.7660254 -3.9532,-11.8596153 -3.9532,-7.9064103 -7.9064,-7.90641 -7.9064,-3.953205 -15.8128,0 m 3.9532,3.953205 -11.8596,3.953205 -7.9064,11.8596153 -3.9532,11.8596153 0,19.7660254 3.9532,11.859615 7.9064,11.859616 11.8596,3.953205 7.9064,0 11.8596,-3.953205 7.9064,-11.859616 3.9532,-11.859615 0,-19.7660254 -3.9532,-11.8596153 -7.9064,-11.8596153 -11.8596,-3.953205 -7.9064,0"
         id="path6223" />
      <path
         inkscape:connector-curvature="0"
         style="fill:none;stroke:#3465a4;stroke-width:3.95320511"
         d="m 1727.3324,-23.241471 0,83.017307 m 3.9532,-79.064102 0,79.064102 -3.9532,0 m 0,-83.017307 31.6256,0 11.8596,3.953205 3.9532,3.953205 3.9532,7.9064102 0,11.8596153 -3.9532,7.9064105 -3.9532,3.953205 -11.8596,3.953205 -27.6724,0 m 0,-39.532051 27.6724,0 11.8596,3.953205 3.9532,7.9064102 0,11.8596153 -3.9532,7.9064105 -11.8596,3.953205 -27.6724,0 m 19.766,3.953205 23.7192,39.532051 3.9532,0 m -23.7192,-39.532051 23.7192,39.532051"
         id="path6225" />
      <path
         inkscape:connector-curvature="0"
         style="fill:none;stroke:#3465a4;stroke-width:3.95320511"
         d="m 1912.7559,-23.241471 -31.6256,83.017307 m 31.6256,-71.157692 -27.6724,71.157692 -3.9532,0 m 31.6256,-71.157692 27.6724,71.157692 3.9532,0 m -31.6256,-83.017307 31.6256,83.017307 m -51.3916,-23.719231 39.532,0 m -43.4852,3.953205 47.4384,0"
         id="path6227" />
      <path
         inkscape:connector-curvature="0"
         style="fill:none;stroke:#3465a4;stroke-width:3.95320511"
         d="m 2070.5068,-19.288266 0,79.064102 m 3.9532,-79.064102 0,79.064102 -3.9532,0 m -23.7192,-83.017307 51.3916,0 0,3.953205 m -51.3916,-3.953205 0,3.953205 51.3916,0"
         id="path6229" />
      <path
         inkscape:connector-curvature="0"
         style="fill:none;stroke:#3465a4;stroke-width:3.95320511"
         d="m 2224.3047,-23.241471 -7.9064,3.953205 -7.9064,7.90641 -3.9532,7.9064103 -3.9532,11.8596153 0,19.7660254 3.9532,11.859615 3.9532,7.906411 7.9064,7.90641 7.9064,3.953205 15.8128,0 7.9064,-3.953205 7.9064,-7.90641 3.9532,-7.906411 3.9532,-11.859615 0,-19.7660254 -3.9532,-11.8596153 -3.9532,-7.9064103 -7.9064,-7.90641 -7.9064,-3.953205 -15.8128,0 m 3.9532,3.953205 -11.8596,3.953205 -7.9064,11.8596153 -3.9532,11.8596153 0,19.7660254 3.9532,11.859615 7.9064,11.859616 11.8596,3.953205 7.9064,0 11.8596,-3.953205 7.9064,-11.859616 3.9532,-11.859615 0,-19.7660254 -3.9532,-11.8596153 -7.9064,-11.8596153 -11.8596,-3.953205 -7.9064,0"
         id="path6231" />
      <path
         inkscape:connector-curvature="0"
         style="fill:none;stroke:#3465a4;stroke-width:3.95320511"
         d="m 2366.243,-23.241471 0,83.017307 m 3.9532,-79.064102 0,79.064102 -3.9532,0 m 0,-83.017307 31.6256,0 11.8596,3.953205 3.9532,3.953205 3.9532,7.9064102 0,11.8596153 -3.9532,7.9064105 -3.9532,3.953205 -11.8596,3.953205 -27.6724,0 m 0,-39.532051 27.6724,0 11.8596,3.953205 3.9532,7.9064102 0,11.8596153 -3.9532,7.9064105 -11.8596,3.953205 -27.6724,0 m 19.766,3.953205 23.7192,39.532051 3.9532,0 m -23.7192,-39.532051 23.7192,39.532051"
         id="path6233" />
      <path
         inkscape:connector-curvature="0"
         style="fill:none;stroke:#3465a4;stroke-width:3.95320511"
         d="m 2520.0408,-23.241471 0,83.017307 3.9532,0 m -3.9532,-83.017307 3.9532,0 0,83.017307"
         id="path6235" />
      <path
         inkscape:connector-curvature="0"
         style="fill:none;stroke:#3465a4;stroke-width:3.95320511"
         d="m 2626.4004,-23.241471 0,83.017307 m 3.9532,-79.064102 0,75.110897 m -3.9532,-79.064102 47.4384,0 m -43.4852,3.953205 43.4852,0 0,-3.953205 m -43.4852,39.532051 23.7192,0 0,3.953205 m -23.7192,0 23.7192,0 m -23.7192,35.578846 43.4852,0 0,3.953205 m -47.4384,0 47.4384,0"
         id="path6237" />
      <path
         inkscape:connector-curvature="0"
         style="fill:none;stroke:#3465a4;stroke-width:3.95320511"
         d="m 2831.59,-11.381856 -7.9064,-7.90641 -11.8596,-3.953205 -15.8128,0 -11.8596,3.953205 -7.9064,7.90641 0,7.9064103 3.9532,7.9064102 3.9532,3.9532051 7.9064,3.9532054 19.766,7.90641 7.9064,3.953205 3.9532,3.953205 3.9532,7.90641 0,11.859616 -3.9532,3.953205 -11.8596,3.953205 -15.8128,0 -7.9064,-3.953205 -3.9532,-3.953205 -7.9064,0 m 55.3448,-59.298077 -7.9064,0 -3.9532,-3.953205 -7.9064,-3.953205 -15.8128,0 -11.8596,3.953205 -3.9532,3.953205 0,7.9064103 3.9532,7.9064102 7.9064,3.9532051 19.766,7.9064104 7.9064,3.953205 7.9064,7.90641 3.9532,7.90641 0,11.859616 -7.9064,7.90641 -11.8596,3.953205 -15.8128,0 -11.8596,-3.953205 -7.9064,-7.90641"
         id="path6239" />
    </g>
  </g>
</svg>
