<?xml version="1.0" encoding="UTF-8" standalone="no"?>
<!-- Created with Inkscape (http://www.inkscape.org/) -->

<svg
   xmlns:dc="http://purl.org/dc/elements/1.1/"
   xmlns:cc="http://creativecommons.org/ns#"
   xmlns:rdf="http://www.w3.org/1999/02/22-rdf-syntax-ns#"
   xmlns:svg="http://www.w3.org/2000/svg"
   xmlns="http://www.w3.org/2000/svg"
   xmlns:sodipodi="http://sodipodi.sourceforge.net/DTD/sodipodi-0.dtd"
   xmlns:inkscape="http://www.inkscape.org/namespaces/inkscape"
   sodipodi:docname="apple_crossbones.svg"
   inkscape:version="0.48.1 r9760"
   version="1.1"
   id="svg27345"
   height="1000"
   width="3200">
  <sodipodi:namedview
     id="base"
     pagecolor="#ffffff"
     bordercolor="#666666"
     borderopacity="1.0"
     inkscape:pageopacity="0.0"
     inkscape:pageshadow="2"
     inkscape:zoom="1.8156325"
     inkscape:cx="2319.0149"
     inkscape:cy="499.99999"
     inkscape:document-units="px"
     inkscape:current-layer="layer1"
     showgrid="false"
     inkscape:window-width="1600"
     inkscape:window-height="823"
     inkscape:window-x="0"
     inkscape:window-y="24"
     inkscape:window-maximized="1" />
  <defs
     id="defs27347">
    <inkscape:path-effect
       effect="rough_hatches"
       id="path-effect5083"
       is_visible="true"
       direction="1695.845,248.67296 , -1.029676,15.460801"
       dist_rdm="0;1"
       growth="0"
       do_bend="true"
       bender="1691.678,248.6729 , -1.3754869e-08,4.1672983"
       bottom_edge_variation="0;1"
       top_edge_variation="0;1"
       bottom_tgt_variation="0;1"
       top_tgt_variation="0;1"
       scale_bf="2"
       scale_bb="2"
       scale_tf="2"
       scale_tb="2"
       top_smth_variation="0;1"
       bottom_smth_variation="0;1"
       fat_output="false"
       stroke_width_top="1"
       stroke_width_bottom="1"
       front_thickness="1"
       back_thickness="0.25" />
    <inkscape:path-effect
       effect="rough_hatches"
       id="path-effect5081"
       is_visible="true"
       direction="1657.8167,440.15169 , -3.0890296,13.358087"
       dist_rdm="0;1"
       growth="0"
       do_bend="true"
       bender="1653.6496,440.15163 , -1.3754869e-08,4.1672983"
       bottom_edge_variation="0;1"
       top_edge_variation="0;1"
       bottom_tgt_variation="0;1"
       top_tgt_variation="0;1"
       scale_bf="2"
       scale_bb="2"
       scale_tf="2"
       scale_tb="2"
       top_smth_variation="0;1"
       bottom_smth_variation="0;1"
       fat_output="false"
       stroke_width_top="1"
       stroke_width_bottom="1"
       front_thickness="1"
       back_thickness="0.25" />
    <inkscape:path-effect
       back_thickness="0.25"
       front_thickness="1"
       stroke_width_bottom="1"
       stroke_width_top="1"
       fat_output="false"
       bottom_smth_variation="0;1"
       top_smth_variation="0;1"
       scale_tb="2"
       scale_tf="2"
       scale_bb="2"
       scale_bf="2"
       top_tgt_variation="0;1"
       bottom_tgt_variation="0;1"
       top_edge_variation="0;1"
       bottom_edge_variation="0;1"
       bender="1654.4331,742.00198 , -1.3754869e-08,4.1672983"
       do_bend="true"
       growth="0"
       dist_rdm="0;1"
       direction="1658.6001,742.00201 , 6.7110214e-08,19.194766"
       is_visible="true"
       id="path-effect5049"
       effect="rough_hatches" />
    <inkscape:path-effect
       effect="rough_hatches"
       id="path-effect4990"
       is_visible="true"
       direction="1600,547.36218 , 35.619301,2.4710425"
       dist_rdm="0;1"
       growth="0"
       do_bend="true"
       bender="1600,552.36218 , 5,0"
       bottom_edge_variation="0;1"
       top_edge_variation="0;1"
       bottom_tgt_variation="0;1"
       top_tgt_variation="0;1"
       scale_bf="2"
       scale_bb="2"
       scale_tf="2"
       scale_tb="2"
       top_smth_variation="0;1"
       bottom_smth_variation="0;1"
       fat_output="false"
       stroke_width_top="1"
       stroke_width_bottom="1"
       front_thickness="1"
       back_thickness="0.25" />
    <inkscape:perspective
       id="perspective27353"
       inkscape:persp3d-origin="372.04724 : 350.78739 : 1"
       inkscape:vp_z="744.09448 : 526.18109 : 1"
       inkscape:vp_y="0 : 1000 : 0"
       inkscape:vp_x="0 : 526.18109 : 1"
       sodipodi:type="inkscape:persp3d" />
  </defs>
  <metadata
     id="metadata27350">
    <rdf:RDF>
      <cc:Work
         rdf:about="">
        <dc:format>image/svg+xml</dc:format>
        <dc:type
           rdf:resource="http://purl.org/dc/dcmitype/StillImage" />
        <dc:title />
      </cc:Work>
    </rdf:RDF>
  </metadata>
  <g
     transform="translate(0,-52.36218)"
     id="layer1"
     inkscape:groupmode="layer"
     inkscape:label="Layer 1">
    <g
       id="g5221"
       transform="translate(664.58186,-6.8684635)">
      <path
         id="path5016"
         style="fill:none;stroke:#000000;stroke-width:1;stroke-opacity:1"
         d="m 1835.8485,915.31919 c 0,0 -13.3866,1.98779 -18.8769,-1.82527 -5.4903,-3.81305 24.0254,-0.1212 29.8642,-3.99275 5.8389,-3.87155 -34.9722,0.17769 -38.4285,-3.64582 -3.4564,-3.82351 11.3156,-0.0522 7.6984,-3.87421 -3.6173,-3.82198 -11.1049,0.0504 -13.8362,-3.77682 -2.7314,-3.82723 10.664,-0.0473 8.4296,-3.87615 -2.2344,-3.82882 -11.1456,0.0488 -13.3895,-3.78083 -2.2438,-3.82965 11.175,-0.0481 9.1353,-3.87804 -2.0397,-3.82996 -11.3743,0.0483 -13.2066,-3.78323 -1.8323,-3.83157 11.1711,-0.0467 9.2428,-3.87742 -1.9283,-3.83067 -11.0569,0.0458 -12.5305,-3.7874 -1.4736,-3.83316 10.602,-0.0433 8.7701,-3.87456 -1.8319,-3.83128 -10.2252,0.0413 -11.8896,-3.79122 -1.6644,-3.83256 10.0528,-0.0401 8.3361,-3.87199 -1.7167,-3.83194 -9.9903,0.0394 -11.9106,-3.79237 -1.9202,-3.83177 10.169,-0.0395 8.6685,-3.87245 -1.5005,-3.83296 -10.4691,0.0403 -13.0215,-3.78946 -2.5523,-3.82973 12.0884,-0.0457 10.1164,-3.87698 -1.972,-3.83125 -12.9922,0.0486 -17.2912,-3.77575 -4.299,-3.82432 14.6535,-0.0527 10.3614,-3.87578 -4.2921,-3.82306 -14.7076,0.0517 -19.4549,-3.77238 -4.7473,-3.82405 15.1187,-0.0505 10.3897,-3.87314 -4.7289,-3.82268 -15.1501,0.0492 -20.1331,-3.77555 -4.983,-3.82471 15.3912,-0.0471 10.4289,-3.87033 -4.9623,-3.82327 -15.4171,0.0456 -20.5671,-3.7801 -5.15,-3.82575 15.5995,-0.0431 10.4732,-3.86739 -5.1263,-3.82425 -15.6252,0.0417 -20.9143,-3.78534 -5.2892,-3.827 15.7857,-0.0389 10.5253,-3.86434 -5.2604,-3.82546 -15.8147,0.0374 -21.2341,-3.79102 -5.4194,-3.82839 15.9731,-0.0344 10.5901,-3.86123 -5.3829,-3.8268 -16.0081,0.0329 -21.5627,-3.79704 -5.5547,-3.82989 16.1806,-0.0298 10.6742,-3.85801 -5.5063,-3.82827 -16.2251,0.0281 -21.9354,-3.80337 -5.7104,-3.83151 16.4318,-0.0249 10.7884,-3.85471 -5.6434,-3.82983 -16.4902,0.0232 -22.4041,-3.81001 -5.914,-3.83323 16.7668,-0.0198 10.9525,-3.85128 -5.8142,-3.83149 -16.8432,0.0181 -23.0792,-3.81703 -6.236,-3.83511 17.2804,-0.0144 11.2143,-3.84768 -6.0662,-3.83325 -17.5275,0.0127 -24.1416,-3.8247 -6.6141,-3.83737 18.1356,-0.009 11.555,-3.84366 -6.5805,-3.83517 -21.4783,-1.91382 -21.4783,-1.91382 m -161.4953,153.17195 c 0,0 -13.2306,1.8552 -21.1264,-2.02598 -7.8958,-3.88118 26.5727,0.13217 31.2125,-3.68618 4.6398,-3.81834 -37.8203,-0.1885 -41.9256,-4.05068 -4.1052,-3.86218 16.9871,0.0924 11.6585,-3.77496 -5.3286,-3.8673 -15.6926,-0.0869 -19.1201,-3.94598 -3.4276,-3.85909 14.0603,0.08 10.1939,-3.78057 -3.8665,-3.86052 -13.2573,-0.0762 -18.1459,-3.94497 -4.8887,-3.8688 14.4678,0.0855 10.6197,-3.77575 -3.8481,-3.86126 -13.0169,-0.0739 -29.664,-4.0237 -16.6472,-3.94979 26.2298,0.16511 20.6955,-3.70737 -5.5344,-3.87248 -38.1701,-0.25163 -45.2598,-4.14285 -7.0898,-3.89121 24.3211,0.17226 13.9574,-3.73889 -10.3637,-3.91115 -20.4239,-0.14823 -23.0577,-4.0073 -2.6337,-3.85906 14.0539,0.10466 10.2366,-3.76231 -3.8172,-3.86697 -12.6995,-0.0955 -13.7075,-3.94227 -1.008,-3.84675 10.0365,0.0762 8.3613,-3.77528 -1.6752,-3.85151 -9.3051,-0.071 -9.5638,-3.91195 -0.2587,-3.84096 7.9213,0.0607 7.7469,-3.77962 -0.1744,-3.84027 -7.9613,-0.061 -7.8688,-3.89923 0.092,-3.83824 7.6816,0.0589 8.9362,-3.77064 1.2546,-3.82953 -8.9403,-0.0683 -8.2466,-3.90192 0.6938,-3.83357 9.4342,0.072 12.4196,-3.74488 2.9854,-3.81688 -11.9006,-0.09 -9.4063,-3.90979 2.4943,-3.81983 12.1613,0.0916 17.9532,-3.70598 5.7919,-3.79756 -15.385,-0.11309 -10.9482,-3.91893 4.4369,-3.80584 16.3576,0.12035 28.5086,-3.63796 12.151,-3.75832 -24.2744,-0.16867 -16.0749,-3.94938 8.1995,-3.78072 28.0112,0.19191 45.3033,-3.54695 17.2921,-3.73886 -37.3569,-0.23374 -23.6217,-3.98378 13.7352,-3.75003 43.4555,0.25612 55.7622,-3.52308 12.3067,-3.77919 -41.5431,-0.22097 -21.5806,-3.95049 19.9625,-3.72953 32.8683,0.16517 39.6737,-3.64431 6.8055,-3.80948 -21.5025,-0.0988 -13.2168,-3.89872 8.2856,-3.7999 19.8133,0.0882 25.5522,-3.72798 5.7389,-3.81615 -17.6568,-0.0741 -11.3231,-3.88579 6.3336,-3.81171 17.0149,0.0695 22.9448,-3.7479 5.93,-3.8174 -16.6781,-0.0642 -10.7952,-3.87989 5.8829,-3.81573 16.7341,0.0625 22.8512,-3.7563 6.117,-3.81886 -17.0332,-0.0597 -11.1662,-3.87745 5.8669,-3.81778 17.2835,0.0586 23.5546,-3.76198 6.2712,-3.82061 -17.6866,-0.0558 -11.6807,-3.87511 6.006,-3.81935 17.9443,0.0545 24.3964,-3.76794 6.452,-3.82245 -18.3952,-0.0514 -12.2372,-3.87242 6.1579,-3.82102 18.8316,0.0503 25.2434,-3.77468 6.4119,-3.82498 -19.1142,-0.0464 -12.6923,-3.86896 6.4219,-3.82259 19.1108,0.0439 24.8765,-3.78455 5.7656,-3.82842 -18.1325,-0.0373 -11.6406,-3.86217 6.4919,-3.82491 17.5102,0.0338 22.2748,-3.79796 4.7647,-3.83172 -14.3809,-0.0248 -12.351,-3.85991 2.03,-3.83514 19.3094,0.031 15.8453,-3.81287 -3.4641,-3.84386 -16.9834,-0.0274 -24.5428,-3.88244 -7.5595,-3.85505 20.3945,0.0381 13.3784,-3.81308 -7.0162,-3.85117 -21.0604,-0.042 -29.8201,-3.90374 -8.7598,-3.86178 22.7166,0.0527 14.4839,-3.80427 -8.2327,-3.85694 -23.2637,-0.0574 -32.7399,-3.92604 -9.4762,-3.86866 24.4853,0.0692 15.4312,-3.79403 -9.0541,-3.86328 -24.8927,-0.0744 -35.0666,-3.95103 -10.1738,-3.87665 26.0177,0.088 16.2054,-3.78272 -9.8123,-3.87069 -26.2894,-0.0932 -37.5248,-3.98076 -11.2355,-3.88754 27.7551,0.11049 17.0097,-3.76962 -10.7454,-3.88011 -35.0053,-2.07132 -35.0053,-2.07132 m 367.1333,218.64367 c 0,0 -19.7296,2.02893 -13.8195,-1.84198 5.9102,-3.87091 16.0506,-0.0903 19.9332,-3.9525 3.8827,-3.86219 -14.3172,0.083 -10.0264,-3.7804 4.2907,-3.86338 13.7204,-0.0803 20.1443,-3.95955 6.4239,-3.87929 -16.0495,0.0974 -10.9057,-3.7722 5.1438,-3.86963 16.6327,-0.10105 28.7785,-4.02257 12.1458,-3.92152 -24.2372,0.15719 -16.1317,-3.73307 8.1056,-3.89026 28.5494,-0.19188 35.262,-4.08019 6.7126,-3.88831 -21.6033,0.15321 -12.7715,-3.74741 8.8319,-3.90062 19.1541,-0.13894 22.0781,-4.00019 2.9239,-3.86124 -13.7614,0.10241 -9.6414,-3.7668 4.1201,-3.86921 12.4018,-0.0933 13.4808,-3.94059 1.079,-3.84729 -9.4811,0.0721 -7.8736,-3.77895 1.6075,-3.85102 8.877,-0.0678 9.0318,-3.90793 0.1548,-3.84015 -7.4474,0.0571 -7.8968,-3.77851 -0.4494,-3.83557 8.0753,-0.0618 7.5527,-3.89672 -0.5226,-3.8349 -8.0014,0.0612 -10.4168,-3.75972 -2.4155,-3.82094 9.9417,-0.0755 8.4477,-3.90297 -1.494,-3.82745 -10.8331,0.082 -15.3323,-3.72429 -4.4993,-3.8063 13.9144,-0.10365 10.9624,-3.92024 -2.952,-3.81659 -15.3773,0.11375 -22.3962,-3.6766 -7.0189,-3.79035 19.5687,-0.14066 14.3687,-3.94144 -5.1999,-3.80078 -21.1439,0.15041 -31.8945,-3.61957 -10.7507,-3.76998 26.8949,-0.18193 18.1616,-3.96026 -8.7332,-3.77832 -28.3409,0.18984 -46.3999,-3.54805 -18.059,-3.73789 37.9469,-0.23033 23.7409,-3.97999 -14.206,-3.74967 -41.9482,0.23943 -51.461,-3.55394 -9.5127,-3.79337 33.9798,-0.1764 19.1831,-3.93621 -14.7967,-3.75982 -28.1563,0.13974 -34.8849,-3.67003 -6.7285,-3.80978 21.7067,-0.10007 13.8801,-3.90194 -7.8265,-3.80186 -20.5086,0.0916 -26.6091,-3.72313 -6.1005,-3.81475 18.9805,-0.0799 12.3625,-3.89021 -6.618,-3.81032 -18.4262,0.0753 -24.5356,-3.74155 -6.1094,-3.81688 17.9635,-0.069 11.71,-3.88326 -6.2536,-3.81423 -17.8216,0.0664 -23.991,-3.75246 -6.1693,-3.81886 17.7663,-0.0619 11.6234,-3.87877 -6.1428,-3.81688 -17.7927,0.0599 -24.0139,-3.76101 -6.2212,-3.82093 17.8711,-0.0559 11.6961,-3.87483 -6.175,-3.81896 -17.915,0.0539 -24.1965,-3.76912 -6.2816,-3.82303 18.0223,-0.0498 11.812,-3.87092 -6.2104,-3.82108 -18.1104,0.0479 -24.4427,-3.77729 -6.3322,-3.82522 18.2364,-0.0438 11.9733,-3.86699 -6.2631,-3.8232 -18.3262,0.0417 -24.1677,-3.78663 -5.8414,-3.82836 17.9133,-0.0366 11.5233,-3.86179 -6.39,-3.82522 -17.4576,0.0335 -22.4703,-3.798 -5.0127,-3.83145 14.8985,-0.0255 12.8282,-3.86054 -2.0703,-3.83508 -20.2089,0.0321 -15.7747,-3.81308 4.4343,-3.84521 17.3934,-0.028 25.2355,-3.8838 7.8421,-3.85577 -20.238,0.0382 -12.9024,-3.81372 7.3356,-3.85193 20.8303,-0.0421 29.4942,-3.90375 8.6639,-3.86169 -22.0879,0.0519 -13.7643,-3.80557 8.3236,-3.85748 22.4383,-0.056 31.6058,-3.92379 9.1675,-3.86776 -23.2646,0.0664 -14.2726,-3.79705 8.992,-3.86349 23.4209,-0.0705 33.1261,-3.94526 9.7051,-3.87477 -24.1385,0.082 -14.5279,-3.78841 9.6107,-3.87036 24.1144,-0.0856 34.817,-3.97034 10.7025,-3.88474 -25.2413,0.10032 -14.8678,-3.77854 10.3735,-3.87887 26.0081,-0.10781 37.9486,-4.00585 11.9405,-3.89804 -27.7543,0.12821 -15.899,-3.76394 11.8552,-3.89215 48.3719,-0.2494 37.8653,-4.02966 -10.5066,-3.78027 -17.5203,-1.82607 -17.5203,-1.82607 M 1507.1454,903.9651 c 0,0 -15.8485,1.84838 -11.412,-1.97014 4.4365,-3.81852 13.033,0.0576 15.3215,-3.7718 2.2884,-3.82943 -11.0922,-0.0479 -8.8313,-3.87683 2.2609,-3.82897 11.0831,0.0472 12.7275,-3.78508 1.6444,-3.8323 -10.5322,-0.0442 -8.8649,-3.87598 1.6673,-3.83178 10.4918,0.0436 11.6987,-3.79058 1.207,-3.83416 -10.0422,-0.0413 -8.7144,-3.87461 1.3278,-3.83335 9.9114,0.0404 10.7879,-3.79513 0.8764,-3.83554 -9.4578,-0.0382 -8.4401,-3.87295 1.0177,-3.83473 9.0591,0.0364 10.2868,-3.7978 1.2277,-3.83422 -9.3337,-0.0372 -8.3012,-3.87192 1.0326,-3.83473 9.5563,0.0378 11.5596,-3.79359 2.0034,-3.83142 -10.6062,-0.0414 -9.0865,-3.87429 1.5198,-3.83284 10.9935,0.0426 13.9836,-3.78556 2.9901,-3.82815 -12.5543,-0.0476 -9.7683,-3.87565 2.786,-3.8281 12.9756,0.0484 17.2017,-3.77619 4.2261,-3.82459 -14.3201,-0.0514 -10.3035,-3.87552 4.0166,-3.8241 14.5648,0.0511 19.1575,-3.77343 4.5926,-3.82452 -15.067,-0.0503 -10.5819,-3.87383 4.4851,-3.82348 15.1848,0.0494 19.9817,-3.77582 4.7968,-3.82519 -15.4944,-0.0476 -10.8655,-3.87184 4.629,-3.82421 15.6663,0.0467 20.6133,-3.77947 4.9471,-3.82616 -15.9723,-0.0447 -11.0817,-3.8694 4.8906,-3.82473 16.03,0.0433 21.107,-3.78403 5.0769,-3.8273 -16.2102,-0.0407 -11.1317,-3.86631 5.0785,-3.82565 16.208,0.039 21.4121,-3.78953 5.2041,-3.82856 -16.331,-0.0361 -11.0988,-3.86291 5.2322,-3.82682 16.3002,0.0344 21.6442,-3.79555 5.344,-3.82991 -16.4115,-0.0312 -11.0377,-3.85939 5.3738,-3.82814 16.3752,0.0295 21.8946,-3.80186 5.5194,-3.83136 -16.5225,-0.0263 -11.0025,-3.85585 5.5199,-3.8296 16.5046,0.0245 22.2884,-3.80837 5.7838,-3.83289 -16.7736,-0.0212 -11.0815,-3.85236 5.692,-3.83115 16.886,0.0196 23.057,-3.81507 6.1711,-3.83462 -17.3793,-0.0161 -11.4425,-3.84888 5.9369,-3.83281 17.6142,0.0143 23.79,-3.82258 6.1758,-3.83683 -17.9165,-0.0102 -11.4703,-3.84479 6.4463,-3.8346 20.7358,-1.9117 20.7358,-1.9117 m 11.7942,-3.8401 c 0,0 -22.0194,-0.001 -22.0194,-0.001 m 262.6757,-54.64907 c 0,0 -9.082,1.98622 -21.0687,-1.77313 -11.9867,-3.75936 26.8632,-0.18855 31.4548,-4.06218 4.5915,-3.87364 -42.2385,0.29396 -49.7212,-3.49927 -7.4827,-3.79324 23.3378,-0.14921 13.8699,-3.9265 -9.4679,-3.77729 -21.2137,0.13239 -28.4244,-3.66555 -7.2107,-3.79794 19.6125,-0.11649 12.9186,-3.91486 -6.6939,-3.79837 -23.7374,-1.78373 -23.7374,-1.78373 m -179.7672,19.69193 c 0,0 -3.8644,1.91988 -3.1959,-1.91912 0.6685,-3.839 7.2668,-2.7e-4 15.4168,-3.8434 8.15,-3.84312 -17.6002,0.005 -11.228,-3.83503 6.3722,-3.84014 19.378,-0.008 27.5361,-3.85508 8.1582,-3.84699 -20.4796,0.015 -12.7318,-3.82876 7.7477,-3.84373 20.8575,-0.0181 29.1752,-3.86927 8.3177,-3.85111 -21.5338,0.0257 -13.4577,-3.8219 8.076,-3.84761 21.7807,-0.0292 30.2693,-3.88469 8.4887,-3.85551 -22.1677,0.0371 -13.7804,-3.81483 8.3873,-3.85196 22.2666,-0.0406 30.9155,-3.90075 8.6489,-3.86013 -22.5255,0.0488 -13.9236,-3.80769 8.6019,-3.85653 22.5546,-0.0523 31.4343,-3.91753 8.8797,-3.86519 -22.8413,0.0611 -14.0021,-3.80041 8.8393,-3.86148 23.1758,-0.0658 31.6983,-3.93434 8.5226,-3.86852 -22.7055,0.0724 -13.9764,-3.7933 8.729,-3.86569 22.5497,-0.0758 29.4644,-3.94182 6.9148,-3.86605 -20.6263,0.0755 -12.941,-3.79067 7.6852,-3.86618 19.7773,-0.0753 25.2487,-3.93766 5.4713,-3.86235 -17.5518,0.0711 -11.4973,-3.79171 6.0545,-3.86282 16.8964,-0.0704 21.5745,-3.93076 4.678,-3.86032 -15.6167,0.0682 -10.7587,-3.79148 4.858,-3.85963 15.4004,-0.0687 19.7128,-3.92849 4.3124,-3.85977 -14.917,0.0691 -10.5937,-3.78944 4.3232,-3.85849 14.8613,-0.0701 19.1863,-3.93102 4.325,-3.86092 -14.9315,0.0728 -10.717,-3.78621 4.2146,-3.85904 15.0318,-0.0746 19.5089,-3.93746 4.4772,-3.86283 -15.3001,0.0785 -10.8677,-3.78272 4.4324,-3.86119 15.3211,-0.0799 20.0789,-3.94554 4.7578,-3.86559 -15.6573,0.0844 -10.9428,-3.77941 4.7145,-3.86386 15.62,-0.0856 21.0302,-3.95646 5.4102,-3.87083 -16.3403,0.0928 -11.21,-3.77472 5.1304,-3.86751 15.1905,-0.0865 25.1089,-3.98789 9.9184,-3.90139 -20.0653,0.121 -14.1266,-3.75291 5.9387,-3.8739 40.6724,-0.26278 34.1683,-4.057 -6.5042,-3.79422 -24.2675,-1.76112 -24.2675,-1.76112 m -211.4102,131.18099 c 0,0 0.4777,1.92038 -7.5042,-1.92 -7.982,-3.84039 7.8363,5.2e-4 8.5004,-3.83848 0.6642,-3.839 -16.4824,-0.002 -24.472,-3.846 -7.9897,-3.84409 22.973,0.008 14.6752,-3.83264 -8.2978,-3.84075 -22.6611,-0.0114 -30.666,-3.85926 -8.0049,-3.84781 22.3682,0.0185 14.0617,-3.82625 -8.3064,-3.84476 -22.0603,-0.0215 -30.319,-3.87348 -8.2587,-3.852 22.013,0.0287 13.697,-3.82005 -8.316,-3.84878 -21.9585,-0.0319 -30.4451,-3.88837 -8.4867,-3.85648 22.1437,0.0397 13.6698,-3.81344 -8.4739,-3.85309 -22.1486,-0.043 -30.8812,-3.9043 -8.7326,-3.86135 22.4087,0.0513 13.7531,-3.80644 -8.6555,-3.85769 -22.4378,-0.0547 -31.6021,-3.92186 -9.1643,-3.8672 22.9608,0.0643 14.0695,-3.79846 -8.8913,-3.86273 -23.6421,-0.0702 -32.3392,-3.9406 -8.6971,-3.87037 23.5564,0.0784 14.0331,-3.79112 -9.5233,-3.86948 -22.7962,-0.08 -29.1004,-3.94451 -6.3041,-3.86449 19.3587,0.0736 12.6201,-3.79016 -6.7386,-3.86377 -18.7458,-0.0738 -23.4294,-3.93322 -4.6836,-3.85939 16.8958,0.0699 11.855,-3.78926 -5.0409,-3.85922 -16.4608,-0.0698 -20.5512,-3.92769 -4.0904,-3.85783 15.582,0.0687 11.195,-3.7891 -4.3871,-3.85777 -15.2586,-0.0686 -19.1466,-3.92642 -3.888,-3.8578 14.7865,0.0687 10.6834,-3.78884 -4.1032,-3.85756 -14.5198,-0.0687 -18.4558,-3.92761 -3.9359,-3.85892 14.4063,0.0703 10.3548,-3.78799 -4.0516,-3.85829 -14.2744,-0.0708 -18.466,-3.93202 -4.1916,-3.8612 14.4151,0.0738 10.1678,-3.78648 -4.2472,-3.86025 -14.3197,-0.0744 -18.977,-3.9393 -4.6574,-3.86486 14.7374,0.0791 10.2644,-3.78338 -4.4731,-3.86251 -14.7629,-0.0804 -20.5721,-3.95341 -5.8093,-3.87301 16.1356,0.0911 11.2853,-3.77465 -4.8503,-3.86579 -21.8149,-2.04712 -21.8149,-2.04712 m -12.673,122.76601 c 0,0 -20.1144,1.78318 -28.5358,-2.11778 -8.4215,-3.90097 36.2358,0.2486 43.7806,-3.54439 7.5448,-3.79298 -31.617,-0.20385 -16.5539,-3.94379 15.063,-3.73994 23.5251,0.14704 28.9671,-3.66071 5.4421,-3.80776 -17.5281,-0.10451 -12.0339,-3.91005 2.7472,-1.90277 19.5174,-1.80324 34.0312,-1.7293 14.5138,0.0739 26.7712,0.12656 20.4926,-1.82117 -12.557,-3.89546 -50.0889,-0.26046 -40.5017,-4.045 9.5871,-3.78455 18.519,-1.81936 18.519,-1.81936 m 442.3001,18.62868 c 0,0 -13.8638,2.02358 -10.3186,-1.8416 3.5452,-3.86518 11.434,-0.0865 12.2658,-3.93188 0.8319,-3.8454 -9.2558,0.0705 -8.8272,-3.77164 0.4285,-3.84216 9.6078,-0.0734 9.5304,-3.91172 -0.077,-3.83836 -9.1893,0.0702 -9.913,-3.76332 -0.7237,-3.83353 9.8176,-0.0749 9.0889,-3.90819 -0.7287,-3.83331 -9.8451,0.0749 -11.2788,-3.75339 -1.4337,-3.82831 10.5448,-0.0799 9.2538,-3.90888 -1.2911,-3.82903 -10.7037,0.0807 -12.6604,-3.74391 -1.9566,-3.82462 11.3719,-0.0851 9.5281,-3.91005 -1.8437,-3.82494 -11.5104,0.0856 -13.8576,-3.73641 -2.3471,-3.82206 11.9881,-0.0883 9.6118,-3.90949 -2.3764,-3.82118 -12.0268,0.0879 -14.1432,-3.7361 -2.1165,-3.82399 11.6854,-0.0845 9.6971,-3.90884 -1.9883,-3.82435 -11.9109,0.0855 -13.1032,-3.74516 -1.1922,-3.83064 11.0797,-0.079 9.9927,-3.91003 -1.087,-3.83107 -11.1144,0.0789 -11.2321,-3.75926 -0.1177,-3.83814 10.2044,-0.0722 9.8708,-3.9088 -0.3336,-3.83654 -9.9221,0.0702 -9.6107,-3.77091 0.3114,-3.84112 9.3176,-0.0659 9.3103,-3.90482 -0.01,-3.8389 -8.9714,0.0635 -8.5719,-3.77822 0.3995,-3.84173 8.5925,-0.0609 8.6716,-3.90041 0.079,-3.83952 -8.252,0.0585 -8.0095,-3.78211 0.2424,-3.84065 8.0895,-0.0574 8.0391,-3.89601 -0.05,-3.83859 -7.7462,0.055 -7.9207,-3.78272 -0.1745,-3.83774 7.8744,-0.0559 7.6811,-3.89346 -0.1933,-3.83756 -7.7368,0.0549 -9.0031,-3.77524 -1.2664,-3.83016 8.8365,-0.0625 8.3984,-3.89831 -0.4382,-3.83581 -9.6346,0.0681 -12.648,-3.75035 -3.0134,-3.81839 12.7444,-0.0892 10.417,-3.91159 -2.3274,-3.82237 -18.5629,-1.79222 -18.5629,-1.79222 m -466.5963,115.08264 c 0,0 -21.3712,1.76434 -24.1012,-2.09551 -2.7301,-3.85985 12.2078,0.0914 8.8243,-3.77254 -3.3834,-3.86398 -11.4099,-0.0863 -12.3048,-3.93218 -0.8948,-3.84589 9.4228,0.0718 9.2639,-3.76836 -0.1588,-3.84014 -10.1853,-0.0777 -9.8062,-3.91375 0.3792,-3.83601 9.7486,0.0744 10.8244,-3.75655 1.0757,-3.83093 -10.3461,-0.0787 -9.0688,-3.90776 1.2773,-3.8291 10.1841,0.0772 11.9713,-3.74862 1.7872,-3.82578 -10.6742,-0.0803 -8.9032,-3.90574 1.7711,-3.82544 10.7105,0.0801 12.9797,-3.74236 2.2692,-3.82249 -11.2078,-0.083 -9.0183,-3.90555 2.1896,-3.8225 11.4024,0.0839 13.7507,-3.73835 2.3483,-3.82224 -11.576,-0.0842 -8.9148,-3.90355 2.6612,-3.81933 11.3656,0.082 13.0528,-3.74516 1.6872,-3.82715 -9.8925,-0.0706 -7.8656,-3.89488 2.027,-3.82431 9.5576,0.0677 9.977,-3.76832 0.4194,-3.83604 -8.1148,-0.0572 -8.1962,-3.89677 -0.081,-3.83953 8.5162,0.06 8.2182,-3.78098 -0.2981,-3.84102 -8.421,-0.0594 -9.2065,-3.90403 -0.7855,-3.84461 8.8621,0.0627 8.4003,-3.77948 -0.4618,-3.84216 -9.2887,-0.0659 -9.8247,-3.90871 -0.536,-3.84284 9.3501,0.0665 9.0703,-3.77445 -0.2799,-3.84091 -9.6018,-0.0684 -9.7215,-3.90818 -0.1197,-3.83982 9.4269,0.0672 9.4274,-3.77178 5e-4,-3.83895 -9.5496,-0.0681 -9.2611,-3.90492 0.2884,-3.83686 9.2304,0.0657 9.6868,-3.77002 0.4565,-3.83577 -9.4109,-0.0669 -8.658,-3.90043 0.7528,-3.83352 9.0235,0.064 10.3819,-3.76549 1.3583,-3.82955 -9.6681,-0.0683 -8.2611,-3.89716 1.4069,-3.82887 8.941,0.0632 13.5379,-3.7446 4.597,-3.80782 -12.3311,-0.0856 -9.4803,-3.90447 2.8507,-3.81886 48.4461,0.30834 40.3397,-3.57825 -8.1064,-3.8866 -33.4587,-2.13237 -33.4587,-2.13237"
         inkscape:connector-curvature="0"
         sodipodi:nodetypes="csssccccsscssscsscccssccssssssssccssssssccsssscsssscsccssssscscscccsccsscsccscscsssscscscc"
         inkscape:path-effect="#path-effect5049"
         inkscape:original-d="m 1655.4819,702.37571 -40.8204,-19.64006 c -22.7403,-10.94117 -55.4832,-25.6645 -72.7619,-32.71851 -28.3662,-11.58049 -34.0256,-15.44368 -58.2995,-39.79522 -29.3923,-29.48657 -45.4889,-38.75376 -58.6325,-33.75647 -10.1135,3.84564 -13.3278,16.81804 -10.2569,41.39746 2.0872,16.70738 1.4237,19.54126 -8.0204,34.26031 -16.9341,26.3912 -13.0175,40.27076 11.3642,40.27076 10.0006,2.3e-4 17.4392,-2.6918 27.4191,-9.92162 8.2312,-5.96303 17.8001,-9.92154 23.9837,-9.92151 24.2455,1.4e-4 139.6718,46.49127 137.9151,55.54938 -0.5431,2.80032 -15.1246,13.24004 -32.4035,23.19925 -17.2784,9.95928 -42.1316,25.3318 -55.2288,34.16116 -20.7459,13.98576 -28.0799,16.88079 -56.9405,22.47562 -18.2202,3.53236 -39.6073,9.28887 -47.5276,12.79203 -35.7285,15.80561 -23.2199,53.56107 17.7451,53.56108 8.1816,-2e-5 13.6678,3.5024 25.9036,16.53608 17.8463,19.01023 27.9361,21.09816 39.9833,8.27358 l 10e-5,3.5e-4 c 4.3733,-4.6552 10.039,-17.52451 12.9775,-29.47967 5.0226,-20.43104 6.1966,-22.03582 31.6715,-43.29053 27.0502,-22.56903 82.2488,-60.78798 98.1377,-67.94906 4.8675,-2.19378 12.5203,-3.06762 17.0062,-1.94145 17.7605,4.45784 131.195,84.89446 131.2185,93.04728 0.016,5.3397 19.8599,45.77446 25.5638,52.08844 8.6541,9.57977 19.7895,6.93357 36.5875,-8.69492 9.0706,-8.43875 20.3963,-15.50551 27.1405,-16.93424 17.4133,-3.68883 29.6187,-10.94965 33.7871,-20.09962 8.2939,-18.20431 -19.5197,-37.51039 -66.9207,-46.45142 -23.3153,-4.39759 -32.3867,-8.19848 -57.6208,-24.14277 -16.4718,-10.40766 -42.9699,-26.72872 -58.8847,-36.26917 -15.9146,-9.54015 -28.9355,-18.82563 -28.9355,-20.63412 0,-8.27399 115.5794,-55.79737 135.7025,-55.79742 5.2316,1.9e-4 17.3899,4.65135 27.0187,10.33708 42.7549,25.2442 63.7926,8.68785 39.2111,-30.85905 -9.9034,-15.93222 -10.4036,-18.21729 -8.2965,-37.89612 1.7776,-16.59887 1.1185,-22.65753 -3.1784,-29.21605 -10.2036,-15.57386 -23.3552,-9.59784 -67.9674,30.884 -20.557,18.65378 -31.581,25.6585 -58.2164,36.99096 -18.0717,7.68878 -49.9671,22.04744 -70.8784,31.90817 l -38.0209,17.92875 1.7821,-10.23419 25.5554,-12.67821 c 14.0556,-6.97297 44.1572,-20.67886 66.8922,-30.45755 35.9955,-15.48199 44.5418,-20.751 66.1388,-40.77529 27.181,-25.20152 50.9811,-41.76271 60.017,-41.76262 9.9551,-10e-6 22.426,7.3075 24.8433,14.5574 1.2727,3.81657 2.0579,16.95297 1.7448,29.1918 -0.5004,19.56402 0.6259,24.13704 9.3239,37.85335 11.8758,18.72785 13.474,39.80483 3.6893,48.66041 -12.606,11.40919 -26.6475,10.33039 -54.1619,-4.16133 l -25.4855,-13.42351 -24.3076,7.93537 c -29.3521,9.58232 -94.8714,37.95298 -94.8714,41.08049 0,1.23188 4.8367,5.04459 10.7475,8.47249 5.911,3.42866 29.7795,18.07097 53.0411,32.54024 35.5337,22.10305 46.0856,27.03049 66.0204,30.82907 55.1816,10.5154 75.2214,23.63431 75.2213,49.24382 0,17.38842 -8.585,25.60095 -34.6981,33.19275 -10.2457,2.97861 -20.9922,9.05025 -26.761,15.11855 -11.416,12.00894 -24.7208,19.4721 -34.7142,19.4719 -10.5567,-1e-5 -27.9495,-20.29743 -36.109,-42.13948 -3.9127,-10.47401 -9.6046,-21.83937 -12.6489,-25.25642 -11.7051,-13.1395 -76.3606,-59.72535 -109.888,-79.17743 l -15.0664,-8.74122 -24.6171,15.29377 c -29.0738,18.0623 -83.8147,59.52654 -96.1067,72.79765 -4.7618,5.14108 -9.6284,14.52049 -10.8145,20.84316 -6.6535,35.46975 -26.7187,52.68957 -50.2897,43.1587 l -10e-5,-2.5e-4 c -3.8111,-1.54085 -11.996,-8.64226 -18.188,-15.78035 -9.4047,-10.84215 -14.4922,-13.6155 -30.9035,-16.84732 -26.6732,-5.25295 -34.919,-13.40087 -34.919,-34.50508 -2e-4,-13.76959 1.5073,-17.69423 9.7539,-25.39835 10.2846,-9.60791 32.7798,-17.08105 71.0248,-23.59505 19.5189,-3.32428 27.9588,-7.23107 57.0585,-26.41126 18.783,-12.38067 41.5855,-26.55677 50.672,-31.50264 9.0866,-4.94592 16.5212,-10.03709 16.521,-11.31379 10e-5,-5.25364 -83.9688,-39.47062 -112.7088,-45.92857 -10.8702,-2.44268 -14.2606,-1.70247 -23.5273,5.13452 -30.3875,22.42091 -68.7942,16.11097 -68.7941,-11.30251 -10e-5,-8.31654 7.3732,-24.3926 16.651,-36.30498 4.7736,-6.12924 5.2434,-9.89482 2.6662,-21.36626 -3.945,-17.55933 -0.6431,-37.82313 7.488,-45.95503 7.8059,-7.8067 25.996,-8.18481 40.3245,-0.83869 5.821,2.98458 23.2323,17.63868 38.6923,32.56503 22.2686,21.50004 32.5884,28.89575 49.6667,35.59393 11.8567,4.65063 42.7682,18.27268 68.6922,30.27198 l 46.5974,21.56821 z" />
      <path
         inkscape:original-d="m 1657.3923,314.78096 c -8.7307,0.0945 -17.4941,-2.54255 -32.8355,-7.90298 -29.4227,-10.28059 -46.8602,-8.97862 -71.9888,5.37394 -18.9475,10.82306 -30.1602,23.93595 -40.9998,47.95202 -10.6871,23.67828 -10.6516,72.7988 0.078,107.30193 11.3461,36.48703 29.0717,67.86838 51.691,91.51335 17.5684,18.36506 21.5319,20.93138 32.3273,20.93154 6.7669,-2.3e-4 20.1321,-2.97594 29.7005,-6.61295 l 10e-5,-4e-5 c 22.4948,-8.55046 50.2733,-8.55086 71.9616,4e-5 30.9184,12.18786 47.6093,7.38992 69.1655,-19.88298 14.0929,-17.82995 31.2555,-46.73674 34.8862,-58.75709 1.8808,-6.22694 -0.7261,-10.235 -15.0119,-23.07999 -22.7738,-20.47711 -29.3585,-35.46572 -29.4113,-66.94706 -0.037,-21.46472 1.2727,-27.0955 9.7207,-41.82629 5.3693,-9.36236 13.7744,-20.17871 18.6781,-24.03642 l 8.9158,-7.01358 -7.9614,-8.53077 c -22.2394,-23.82921 -59.9745,-30.19245 -97.6492,-16.46656 -14.0593,5.1222 -22.4367,7.77858 -30.7209,7.976 l 0.3562,-6.56117 21.7388,-8.41852 c 41.9499,-16.24557 85.1508,-9.94107 112.3679,16.39828 13.298,12.86925 13.5098,19.04592 0.9703,28.31752 -22.6292,16.7319 -34.5409,53.28772 -26.6031,81.64132 4.4966,16.06204 23.5196,40.20011 37.6351,47.75513 11.6142,6.21631 11.0617,14.42097 -2.8243,41.93579 -14.304,28.34339 -33.2122,53.38736 -47.6573,63.12275 -18.0272,12.14966 -30.6117,12.79459 -59.3135,3.04023 -31.5162,-10.71069 -37.2739,-10.74653 -64.7558,-0.4014 -24.5645,9.24668 -35.3883,10.03728 -49.9223,3.64701 -23.7608,-10.44719 -58.0504,-58.7484 -72.7093,-102.4205 -23.1023,-68.82553 -13.7204,-134.34739 23.9898,-167.54388 27.312,-24.04289 61.4694,-29.01772 102.7729,-14.96844 l 23.7956,8.09412 z"
         inkscape:path-effect="#path-effect5081"
         sodipodi:nodetypes="cscscsccccsssccccssccssssssssssssscc"
         inkscape:connector-curvature="0"
         d="m 1587.5718,588.00953 c 0,0 -4.0188,0.46283 9.4722,0.8311 6.7455,0.18413 1.6792,-1.0089 -5.7904,-2.77467 -7.4696,-1.76577 -17.3425,-4.11173 -20.2104,-6.2017 -2.8678,-2.08997 6.2962,0.0946 16.8799,2.59944 10.5837,2.50483 22.587,5.32493 25.3978,4.57703 2.8108,-0.74791 -9.1164,-3.54206 -22.2343,-6.64323 -13.1179,-3.10116 -27.4264,-6.51467 -29.3782,-8.38806 -3.9036,-3.74678 20.6587,4.91724 15.9921,0.99436 -4.6667,-3.92287 -19.8411,-4.7283 -23.0695,-8.3157 -3.2284,-3.58741 18.6338,4.44744 14.9674,0.7597 -3.6664,-3.68774 -18.1753,-4.34231 -21.0058,-7.83585 -2.8305,-3.49355 17.343,4.14889 13.9197,0.51704 -3.4233,-3.63185 -16.7401,-4.00822 -19.2899,-7.43557 -2.5498,-3.42735 15.8776,3.80624 12.8712,0.27234 -3.0064,-3.5339 -15.4152,-3.69835 -17.7463,-7.07406 -2.3311,-3.37571 14.7491,3.5423 12.0736,0.0863 -2.6755,-3.45597 -14.4011,-3.46121 -16.5502,-6.79389 -2.1491,-3.33269 13.8811,3.33939 11.4747,-0.0531 -2.4065,-3.39246 -13.6215,-3.27908 -15.6118,-6.57418 -1.9904,-3.2951 13.21,3.1828 11.0289,-0.15637 -2.1811,-3.33916 -13.0178,-3.13838 -14.8648,-6.39944 -1.847,-3.26105 12.6872,3.06109 10.6991,-0.23232 -1.988,-3.29341 -12.5451,-3.02851 -14.2587,-6.25783 -1.7136,-3.22932 12.2734,2.96505 10.4537,-0.28838 -1.8197,-3.25342 -12.1667,-2.94081 -13.7534,-6.13982 -1.5867,-3.19902 11.9359,2.8869 10.2652,-0.33107 -1.6707,-3.21796 -11.8516,-2.86789 -13.315,-6.03739 -1.4633,-3.1695 11.646,2.81984 10.1088,-0.36629 -1.5372,-3.18613 -11.5721,-2.80321 -12.9135,-5.94343 -1.3414,-3.14022 11.3778,2.75763 9.9614,-0.39963 -1.4163,-3.15725 -11.303,-2.74065 -12.5218,-5.85136 -1.2188,-3.11072 11.1066,2.69438 9.8006,-0.43646 -1.306,-3.13084 -11.0198,-2.67437 -12.1137,-5.75492 -1.0939,-3.08055 10.8088,2.62431 9.6043,-0.48219 -1.2045,-3.10649 -10.691,-2.59664 -11.6758,-5.65082 -0.9848,-3.05418 10.4722,2.54453 9.3618,-0.53937 -1.1104,-3.08391 -10.3463,-2.51475 -11.2429,-5.54762 -0.8966,-3.03286 10.1333,2.46389 9.1105,-0.59893 -1.0227,-3.06281 -10.0069,-2.43389 -10.8172,-5.44584 -0.8103,-3.01196 9.7905,2.38205 8.8592,-0.65872 -0.9313,-3.04076 -9.6694,-2.3532 -10.3949,-5.34459 -0.7255,-2.99138 9.4661,2.30444 8.6832,-0.70039 -0.783,-3.00482 -9.4086,-2.29096 -10.0506,-5.26205 -0.6419,-2.9711 9.2703,2.25786 8.6125,-0.7166 -0.6577,-2.97446 -9.2543,-2.25447 -9.8138,-5.20548 -0.5594,-2.95101 9.1579,2.23145 8.6079,-0.71687 -0.55,-2.94832 -9.1672,-2.23412 -9.6448,-5.16519 -0.4776,-2.93108 9.0961,2.21718 8.6415,-0.70795 -0.4545,-2.92512 -9.119,-2.22312 -9.5152,-5.13435 -0.3962,-2.91122 9.0616,2.20944 8.6939,-0.69457 -0.3678,-2.90402 -9.0901,-2.21665 -9.405,-5.10807 -0.315,-2.89141 9.0379,2.2042 8.7509,-0.68017 -0.287,-2.88437 -9.0659,-2.21125 -9.2995,-5.08281 -0.2337,-2.87157 9.0129,2.19853 8.8026,-0.66717 -0.2102,-2.8657 -9.0363,-2.20441 -9.1884,-5.05604 -0.152,-2.85162 8.9784,2.19039 8.8424,-0.65723 -0.1361,-2.84762 -8.9945,-2.19442 -9.0642,-5.02595 -0.07,-2.83152 8.9282,2.17833 8.8654,-0.65144 -0.063,-2.82978 -8.9353,-2.18012 -8.9219,-4.99132 0.013,-2.8112 8.859,2.1615 8.8698,-0.65034 0.011,-2.81184 -8.8565,-2.1609 -8.7587,-4.95148 0.098,-2.79058 8.7692,2.13956 8.8555,-0.65391 0.086,-2.79347 -8.7579,-2.13672 -8.574,-4.90629 0.1838,-2.76958 8.6597,2.11269 8.8248,-0.66158 0.165,-2.77428 -8.6413,-2.10806 -8.3695,-4.85616 0.2717,-2.74809 8.5337,2.08169 8.783,-0.67209 0.2492,-2.75379 -8.5116,-2.07608 -8.1496,-4.80214 0.3621,-2.72606 8.3976,2.04807 8.7388,-0.68332 0.3413,-2.73138 -8.3771,-2.04283 -7.9219,-4.74617 0.4552,-2.70335 8.2615,2.01438 8.7062,-0.69185 0.4446,-2.70623 -8.2515,-2.01161 -7.6998,-4.69143 0.5517,-2.67983 8.1419,1.98459 8.7067,-0.69245 0.5647,-2.67705 -8.1556,-1.98751 -7.5034,-4.64287 0.6522,-2.65536 8.0642,1.96489 8.7742,-0.67688 0.71,-2.64177 -8.1227,-1.97863 -7.3653,-4.60842 0.7574,-2.62978 8.0689,1.96511 8.9644,-0.63165 0.8956,-2.59676 -8.2078,-1.99831 -7.3396,-4.60119 0.8682,-2.60288 8.2322,2.00372 9.3662,-0.53524 1.134,-2.53896 -8.4989,-2.06785 -7.5134,-4.64227 0.9856,-2.57442 8.6513,2.10427 9.8773,-0.41258 1.226,-2.51686 -8.8928,-2.16209 -7.7819,-4.70618 1.1108,-2.5441 9.0051,2.18867 10.3304,-0.30436 1.3253,-2.49302 -9.2209,-2.24004 -7.9753,-4.75158 1.2455,-2.51155 9.2972,2.25775 10.7464,-0.20557 1.4491,-2.46332 -9.5024,-2.30634 -8.1107,-4.78265 1.3917,-2.4763 9.5556,2.31833 11.1588,-0.10805 1.6032,-2.42638 -9.7691,-2.3687 -8.2173,-4.80648 1.5518,-2.43778 9.8155,2.37892 11.6095,-0.002 1.794,-2.38071 -10.0601,-2.43656 -8.3309,-4.83175 1.7292,-2.39518 10.1192,2.44971 12.1469,0.12486 2.0276,-2.32485 -10.4208,-2.52075 -8.4925,-4.86823 1.9283,-2.34748 10.5141,2.54199 12.8222,0.28405 2.3081,-2.25795 -10.8978,-2.63245 -8.7424,-4.92565 2.1555,-2.29319 11.0451,2.66648 13.6794,0.48612 2.6343,-2.18037 -11.5292,-2.78055 -9.1098,-5.0108 2.4195,-2.23025 11.7406,2.82968 14.7371,0.73511 2.9965,-2.09457 -12.3173,-2.96525 -9.6183,-5.12913 2.6991,-2.16388 12.6145,3.03458 15.9888,1.02902 3.3743,-2.00556 -13.3003,-3.19538 -10.2666,-5.28002 3.0337,-2.08465 13.6359,3.27337 17.3591,1.34926 3.7232,-1.92411 -14.3423,-3.43785 -10.866,-5.41788 3.4763,-1.98004 14.5418,3.48265 18.8408,1.69341 4.299,-1.78923 -15.3944,-3.68042 -11.2936,-5.5131 4.1009,-1.83267 15.441,3.6883 21.0318,2.20264 5.5907,-1.48567 -16.994,-4.05001 -11.914,-5.65208 5.08,-1.60207 15.9608,3.80445 27.6784,3.7598 11.7176,-0.0446 -22.7844,-5.40524 -15.8196,-6.56429 3.4823,-0.57953 23.9629,4.28065 43.5939,8.87611 19.6311,4.59547 38.4126,8.93122 38.4969,7.54345 0.084,-1.38777 -19.0951,-5.81911 -36.5354,-9.89893 -17.4404,-4.07982 -33.1417,-7.79607 -26.1011,-7.54115 14.0812,0.50984 41.3185,8.27693 41.3185,8.27693 m -36.4147,278.54988 c 0,0 18.9001,5.84782 23.7362,4.16362 4.8361,-1.68419 -19.6902,-4.61646 -13.6036,-6.00155 6.0866,-1.38509 18.3429,4.29472 23.0266,2.57127 4.6837,-1.72345 -16.9862,-3.96768 -11.9694,-5.60857 5.0169,-1.6409 16.5681,3.86556 21.7594,2.25616 5.1913,-1.60939 -17.1318,-3.9879 -11.9291,-5.58952 5.2027,-1.60163 16.3229,3.79704 24.619,2.8997 8.2961,-0.89734 -19.5519,-4.53205 -12.668,-5.74855 3.4419,-0.60825 25.5015,4.50551 47.4098,9.50552 21.9083,5.00001 43.6655,9.88721 46.5025,9.11656 2.837,-0.77064 -19.1403,-5.69865 -40.3604,-10.53082 -21.22,-4.83217 -41.6827,-9.56212 -35.8164,-9.61618 5.8663,-0.054 16.3366,2.00168 25.3403,4.05977 9.0038,2.05809 16.541,4.12148 16.541,4.12148 m 22.2144,13.47061 c 0,0 -30.9465,-7.01439 -30.9465,-7.01439 m 27.6047,-2.18272 c 0,0 20.7977,6.08322 24.6135,4.12207 3.8158,-1.96116 -17.1707,-3.85068 -11.4053,-5.37042 5.7654,-1.51974 15.1572,3.39482 18.3487,1.29223 3.1916,-2.10259 -12.9176,-2.88771 -9.3067,-4.89398 3.6109,-2.00628 12.4735,2.78574 15.1145,0.5591 2.6411,-2.22664 -11.5758,-2.58173 -8.7543,-4.76617 2.8215,-2.18443 11.3745,2.53482 13.7025,0.23756 2.3281,-2.29725 -10.9089,-2.42833 -8.504,-4.70682 2.4049,-2.27849 10.823,2.40751 12.9514,0.0651 2.1284,-2.3424 -10.5604,-2.34675 -8.4112,-4.68304 2.1492,-2.3363 10.5347,2.33954 12.5174,-0.0359 1.9826,-2.3754 -10.3762,-2.30223 -8.3977,-4.67717 1.9785,-2.37495 10.3774,2.30111 12.2447,-0.10043 1.8673,-2.40153 -10.2708,-2.27556 -8.413,-4.67792 1.8577,-2.40235 10.2784,2.27596 12.0492,-0.14743 1.7709,-2.42339 -10.1947,-2.25564 -8.4258,-4.67826 1.7688,-2.42261 10.1954,2.25457 11.8824,-0.18783 1.6869,-2.44241 -10.1154,-2.23518 -8.4162,-4.67372 1.6991,-2.43854 10.1022,2.23111 11.7138,-0.22837 1.6115,-2.45947 -10.0157,-2.21039 -8.3756,-4.66245 1.64,-2.45206 9.9865,2.20284 11.5286,-0.27234 1.5421,-2.47517 -9.8891,-2.17983 -8.3023,-4.6441 1.5867,-2.46426 9.844,2.16883 11.3208,-0.32109 1.4767,-2.48992 -9.7342,-2.1432 -8.1984,-4.61911 1.5358,-2.4759 9.6749,2.12912 11.089,-0.37489 1.4142,-2.50401 -9.5529,-2.10097 -8.0686,-4.58859 1.4843,-2.48762 9.4826,2.08454 10.8358,-0.43317 1.3533,-2.5177 -9.3508,-2.0543 -7.9216,-4.55441 1.4292,-2.50011 9.2748,2.0367 10.5679,-0.49448 1.293,-2.53118 -9.1374,-2.00533 -7.7714,-4.51966 1.3659,-2.51434 9.0635,1.98827 10.3096,-0.55346 1.2461,-2.54172 -8.941,-1.96029 -7.6541,-4.49228 1.2869,-2.53199 8.9035,1.95127 10.0876,-0.60427 1.1841,-2.55553 -8.7947,-1.92642 -7.6198,-4.48323 1.1749,-2.5568 8.8096,1.92893 9.8964,-0.64808 1.0869,-2.57701 -8.7037,-1.90485 -7.727,-4.50528 0.9768,-2.60044 8.8246,1.93061 9.7503,-0.68176 0.9257,-2.61237 -8.5744,-1.87512 -8.4462,-4.66151 0.1282,-2.7864 9.3956,2.05428 10.0289,-0.62202 0.6332,-2.6763 -9.8332,-2.14943 -11.8794,-5.41241 -2.0463,-3.26299 12.5785,2.75045 12.5888,-0.0618 0.01,-2.81223 -14.8002,-3.23708 -18.3949,-6.84119 -3.5948,-3.6041 18.7022,4.09387 16.8517,0.87547 -1.8505,-3.21839 -20.5527,-4.50278 -24.6414,-8.21801 -4.0886,-3.71523 22.1037,4.85116 15.4919,0.58854 -6.6117,-4.26263 -19.6225,-4.31322 -23.1118,-7.89859 -3.4893,-3.58538 17.1505,3.77754 13.3664,0.13121 -3.784,-3.64633 -16.8569,-3.71706 -19.6266,-7.14487 -2.7696,-3.42782 15.9062,3.51233 12.9099,0.0375 -2.9963,-3.47482 -15.669,-3.46314 -17.7588,-6.74124 -2.0899,-3.27811 14.7808,3.27036 12.2777,-0.0969 -2.5032,-3.36727 -14.352,-3.17783 -15.8696,-6.32943 -1.5176,-3.15161 13.3717,2.96324 11.273,-0.31549 -2.0986,-3.27873 -12.7755,-2.8328 -13.8452,-5.88516 -1.0698,-3.05236 11.7446,2.60594 10.0383,-0.58654 -1.7062,-3.19247 -11.0957,-2.46307 -11.8284,-5.4406 -0.7328,-2.97752 10.1129,2.24603 8.8426,-0.85018 -1.2703,-3.09621 -9.5659,-2.12524 -10.0491,-5.04729 -0.4832,-2.92205 8.787,1.95286 8.0125,-1.03351 -0.7744,-2.98637 -8.4887,-1.88699 -8.7879,-4.76809 -0.2992,-2.88109 8.0218,1.78356 7.5497,-1.13576 -0.4722,-2.91932 -7.8438,-1.7442 -8.0069,-4.59502 -0.1632,-2.85082 7.5399,1.67683 7.3175,-1.18703 -0.2223,-2.86387 -7.4769,-1.66296 -7.5391,-4.49129 -0.062,-2.82834 7.3202,1.62817 7.314,-1.18769 -0.01,-2.81586 -7.3692,-1.63907 -7.3648,-4.45258 0,-2.81351 7.3608,1.63722 7.5485,-1.13558 0.1877,-2.7728 -7.5487,-1.67896 -7.4903,-4.48043 0.058,-2.80148 7.6794,1.70794 8.0464,-1.02505 0.3669,-2.73299 -7.9961,-1.77824 -7.8334,-4.55648 0.1628,-2.77824 8.2011,1.82367 8.7387,-0.87147 0.5376,-2.69515 -8.5882,-1.90949 -8.2392,-4.64626 0.3491,-2.73676 8.7771,1.95117 9.4814,-0.70703 0.7044,-2.65819 -9.1436,-2.03224 -8.5091,-4.70549 0.6345,-2.67326 9.2131,2.04723 10.0848,-0.57396 0.8717,-2.62118 -9.449,-2.09898 -8.4842,-4.69884 0.9648,-2.59986 9.355,2.07746 10.3991,-0.50564 1.0442,-2.58311 -9.4208,-2.09121 -8.1904,-4.6322 1.2305,-2.54099 9.2329,2.04874 10.46,-0.49407 1.227,-2.5428 -9.2164,-2.044 -7.8315,-4.55096 1.3849,-2.50696 9.0559,2.00759 10.4832,-0.49119 1.4273,-2.49878 -9.1126,-2.01893 -7.603,-4.49856 1.5096,-2.47963 9.0261,1.99889 10.6807,-0.45003 1.6546,-2.44892 -9.1684,-2.02898 -7.5103,-4.47609 1.6582,-2.44712 9.1583,2.02575 11.0827,-0.36414 1.9244,-2.38989 -9.4256,-2.08321 -7.6252,-4.49932 1.8003,-2.41611 9.5385,2.10704 11.8019,-0.20882 2.2635,-2.31586 -10.0089,-2.20889 -8.0352,-4.58728 1.9736,-2.37838 10.278,2.26696 13.0037,0.0518 2.7258,-2.21513 -11.0658,-2.43804 -8.7726,-4.74664 2.2931,-2.30859 11.7114,2.57826 14.2477,0.32032 2.5363,-2.25793 -11.8253,-2.60031 -9.0299,-4.7993 2.7954,-2.199 11.6402,2.55742 13.146,0.0729 1.5059,-2.48456 -9.7154,-2.1324 -8.189,-4.61143 1.5264,-2.47903 9.7626,2.14161 9.637,-0.70039 -0.1257,-2.84201 -10.5256,-2.30896 -13.8313,-5.85109 -3.3058,-3.54212 13.6897,3.00577 11.6948,-0.2459 -1.9949,-3.25167 -14.7135,-3.23264 -19.0076,-6.99491 -4.2941,-3.76228 16.9287,3.72513 13.5064,0.15911 -3.4222,-3.56603 -17.1394,-3.77329 -25.2711,-8.39049 -8.1318,-4.6172 21.978,4.85331 17.1971,0.98573 -2.3905,-1.93379 -23.0825,-6.4986 -42.1546,-10.76594 -19.0721,-4.26734 -36.5244,-8.22657 -32.4354,-8.70798 4.0889,-0.48142 21.6952,3.49557 37.2105,6.96096 15.5153,3.4654 28.9395,6.42997 24.6643,4.07655 -4.2751,-2.35342 -16.0514,-5.31745 -26.7589,-7.71086 -10.7075,-2.39341 -20.3462,-4.21317 -20.3462,-4.21317 m -68.2125,23.84912 c 0,0 -0.8374,1.21391 -0.6865,-1.56573 0.1509,-2.77964 5.5839,1.28939 11.4547,-0.17514 5.8709,-1.46453 -12.8715,-2.96609 -9.5852,-5.02233 3.2862,-2.05624 15.2766,3.51621 20.2172,1.83345 4.9406,-1.68276 -16.2972,-3.74323 -11.7378,-5.50889 4.5594,-1.76567 16.5851,3.80474 21.4381,2.09805 4.8531,-1.70669 -16.8787,-3.86372 -12.3137,-5.63154 4.565,-1.76782 17.0927,3.90838 22.9273,2.42064 5.8347,-1.48774 -18.4699,-4.21288 -13.405,-5.87006 5.0649,-1.65718 19.0073,4.33074 26.8955,3.30118 7.8882,-1.02956 -21.8987,-4.97342 -15.8049,-6.40106 6.0939,-1.42765 30.2185,5.43224 30.2185,5.43224 m -70.9169,14.78935 c 0,0 -8.3506,-1.92847 -16.7012,-3.86844 -8.3506,-1.93998 -16.7012,-3.89145 -16.7012,-3.89145"
         style="fill:none;stroke:#000000;stroke-width:1;stroke-opacity:1"
         id="path5012" />
      <path
         inkscape:original-d="m 1660.3239,284.19704 c 3.104,2.38631 9.1541,1.77731 18.231,-1.674 22.0188,-8.37239 42.9993,-36.38915 47.2751,-63.13081 2.1622,-13.52282 2.0043,-13.84044 -5.6997,-11.45432 -26.4301,8.18576 -44.7858,23.9997 -55.6065,47.90592 -6.8143,15.05522 -8.4463,24.23608 -4.6968,27.92107 l -11.0184,6.52073 c -3.6755,-9.57935 5.7641,-40.85262 16.6329,-55.10369 16.4896,-21.62109 35.5136,-33.45036 54.1943,-33.69815 l 15.7198,-0.2086 -0.808,15.77049 c -1.0601,20.69004 -7.2948,34.93078 -22.846,52.17884 -19.9558,22.13363 -56.832,34.63848 -62.7224,21.47202 z"
         inkscape:path-effect="#path-effect5083"
         sodipodi:nodetypes="cssssccsscsscc"
         inkscape:connector-curvature="0"
         d="m 1671.083,294.42215 c 0,0 -5.4613,-0.0994 -10.7474,-0.63237 -5.2862,-0.53301 -10.3972,-1.49537 -9.6967,-2.97025 0.7005,-1.47489 6.909,-0.78406 13.6913,-0.12979 6.7823,0.65428 14.1383,1.25964 17.1337,-0.0604 2.9954,-1.32003 -5.2066,-1.94474 -12.3465,-2.59619 -3.57,-0.32573 -6.8744,-0.65179 -8.3809,-0.99715 -1.5065,-0.34536 -1.2151,-0.69798 2.4067,-1.12036 14.4873,-1.68952 24.1988,2.05777 28.8401,-0.74055 2.3207,-1.39916 -1.8272,-1.66711 -5.8248,-1.95745 -3.9975,-0.29033 -7.8447,-0.59868 -4.9226,-1.92369 2.922,-1.325 6.7612,-1.04348 10.3455,-0.80439 3.5843,0.23909 6.9138,0.43705 8.8164,-1.00729 1.9026,-1.44435 -1.4915,-1.63307 -4.8644,-1.8435 -3.3729,-0.21043 -6.7247,-0.44208 -4.7374,-1.86075 1.9873,-1.41867 5.3358,-1.20224 8.5799,-1.01346 3.2441,0.18878 6.3836,0.35056 7.953,-1.12468 1.5695,-1.47524 -1.5843,-1.62732 -4.7348,-1.79958 -3.1504,-0.17225 -6.2975,-0.36462 -4.7148,-1.82286 1.5828,-1.45825 4.718,-1.2777 7.786,-1.12024 3.068,0.15745 6.0687,0.29229 7.3826,-1.20381 1.3139,-1.49611 -1.6925,-1.62279 -4.6959,-1.76812 -3.0034,-0.14533 -6.0038,-0.30924 -4.6782,-1.79126 1.3256,-1.48202 4.3278,-1.32684 7.2916,-1.19189 2.9638,0.13495 5.8891,0.24996 7.0609,-1.25866 1.1718,-1.50862 -1.7563,-1.61633 -4.6942,-1.74251 -2.9379,-0.12618 -5.8857,-0.271 -4.7533,-1.76942 1.1324,-1.49843 4.0815,-1.36091 6.9987,-1.24278 2.9172,0.11814 5.8026,0.21715 6.8076,-1.30256 1.0051,-1.51971 -1.8818,-1.61251 -4.7768,-1.72333 -2.8951,-0.11081 -5.7985,-0.23979 -4.8264,-1.7504 0.9721,-1.5106 3.8759,-1.38786 6.7427,-1.28412 2.8668,0.10373 5.6966,0.18878 6.5207,-1.34021 0.824,-1.52899 -2.0066,-1.60908 -4.8357,-1.70625 -2.8292,-0.0972 -5.657,-0.21138 -4.8273,-1.73145 0.8297,-1.52007 3.6571,-1.41114 6.4376,-1.32053 2.7806,0.0906 5.5143,0.1633 6.1568,-1.37302 0.6424,-1.53632 -2.0917,-1.60538 -4.8123,-1.69004 -2.7206,-0.0847 -5.4277,-0.18471 -4.7313,-1.71238 0.6965,-1.52767 3.4025,-1.43197 6.0527,-1.35333 2.6502,0.0786 5.2445,0.14073 5.7177,-1.40112 0.4731,-1.54185 -2.1213,-1.60149 -4.6923,-1.6749 -2.5711,-0.0734 -5.1188,-0.16029 -4.5523,-1.69424 0.5665,-1.53394 3.1128,-1.45049 5.5986,-1.38236 2.4859,0.0681 4.9113,0.12151 5.2363,-1.42437 0.3249,-1.54589 -2.1003,-1.59777 -4.498,-1.66156 -2.3977,-0.0638 -4.7679,-0.13916 -4.3328,-1.67846 0.435,-1.53931 2.8036,-1.46646 5.1138,-1.40697 2.3102,0.0595 4.562,0.10614 4.7634,-1.44266 0.2015,-1.5488 -2.0498,-1.59465 -4.277,-1.65082 -2.2273,-0.0562 -4.4305,-0.12241 -4.133,-1.6665 0.5951,-3.08818 8.8071,0.21954 9.0113,-2.88228 0.2041,-3.10181 -8.4478,-0.2069 -7.9942,-3.29979 0.4537,-3.09289 8.1758,0.19753 8.3347,-2.90525 0.159,-3.10277 -7.605,-0.17996 -7.9657,-3.29602 -0.3607,-3.11605 8.1247,0.19325 8.2837,-2.90958 0.04,-0.7757 -2.3945,-1.20759 -5.7506,-1.48713 -3.3562,-0.27955 -7.6342,-0.413 -11.282,-0.5508 -3.6479,-0.1378 -6.6656,-0.27568 -7.5009,-0.5082 -0.8354,-0.23252 0.5114,-0.54488 5.5927,-1.11881 10.1624,-1.14786 14.9572,-1.46437 17.2114,-1.41689 2.2542,0.0475 1.9678,0.42756 1.9678,0.42756 m -84.7907,87.64643 c 0,0 -1.9226,1.33659 -2.3213,-1.81476 -0.3987,-3.15134 4.5215,0.51541 8.9836,-2.1253 2.2311,-1.32036 -0.092,-1.55811 -2.9391,-1.86405 -2.8471,-0.30594 -6.2183,-0.68929 -6.0833,-2.22683 0.135,-1.53754 2.6754,-1.24826 5.1414,-0.98073 2.466,0.26752 4.8576,0.51409 4.6946,-1.05568 -0.1629,-1.56978 -2.5496,-1.81719 -4.8241,-2.06426 -2.2745,-0.24707 -4.4368,-0.49265 -4.1508,-2.01323 0.5718,-3.04117 8.7811,0.95177 9.3954,-2.0909 0.3072,-1.52133 -1.897,-1.7475 -4.0809,-1.98195 -2.1838,-0.23445 -4.3474,-0.47695 -3.959,-1.98651 0.7769,-3.01912 8.6854,0.92931 9.6832,-2.07567 0.499,-1.5025 -1.727,-1.72646 -3.9594,-1.96181 -2.2324,-0.23536 -4.4712,-0.48218 -3.9978,-1.98314 0.9468,-3.00193 8.9678,0.94149 10.1855,-2.04423 0.6089,-1.49286 -1.7009,-1.7194 -4.0242,-1.95885 -2.3233,-0.23945 -4.6602,-0.492 -4.1057,-1.98529 0.5546,-1.4933 2.8911,-1.2435 5.2615,-1.00219 2.3704,0.24131 4.7746,0.47387 5.4644,-1.01296 0.6899,-1.48683 -1.7151,-1.71572 -4.1319,-1.95824 -2.4169,-0.24252 -4.8455,-0.49883 -4.2031,-1.98435 0.6424,-1.48553 3.0696,-1.23263 5.5396,-0.98838 2.47,0.24425 4.9827,0.47953 5.7961,-0.99813 0.8134,-1.47765 -1.7013,-1.70848 -4.2315,-1.95437 -2.5303,-0.24588 -5.0761,-0.50705 -4.325,-1.98345 0.751,-1.4764 3.2951,-1.2194 5.8918,-0.9715 2.5968,0.2479 5.2462,0.48631 6.2079,-0.98134 0.9617,-1.46765 -1.6927,-1.70074 -4.3596,-1.94996 -2.6669,-0.24921 -5.3463,-0.51475 -4.4345,-1.97807 0.9117,-1.46332 3.5886,-1.20315 6.3234,-0.95323 2.7348,0.24992 5.5274,0.48915 6.6706,-0.96765 1.1432,-1.45679 -1.6433,-1.68837 -4.4307,-1.93628 -2.7874,-0.2479 -5.5756,-0.51215 -4.4357,-1.95819 1.1398,-1.44604 3.9244,-1.18889 6.7672,-0.94329 2.8428,0.24559 5.7438,0.47923 7.1165,-0.96579 1.3727,-1.44502 -1.5306,-1.66987 -4.457,-1.91419 -2.9264,-0.24432 -5.876,-0.50853 -4.5957,-1.94816 1.2802,-1.43963 4.2239,-1.18378 7.2666,-0.93862 3.0428,0.24515 6.1846,0.47894 7.861,-0.95333 1.6764,-1.43226 -1.4693,-1.65429 -4.6669,-1.90077 -3.1976,-0.24648 -6.4472,-0.51848 -4.9785,-1.95023 1.4687,-1.43174 4.7078,-1.17025 8.1063,-0.91989 3.3986,0.25035 6.9566,0.48845 9.0631,-0.93016 2.1065,-1.41862 -1.4592,-1.63986 -5.115,-1.8934 -3.6558,-0.25354 -7.4017,-0.54158 -5.6556,-1.96264 1.746,-1.42105 5.4693,-1.1475 9.4531,-0.88774 3.9839,0.25977 8.2282,0.5038 11.0166,-0.90087 2.7884,-1.40468 -1.4761,-1.62202 -5.8803,-1.8845 -4.4043,-0.26247 -8.9484,-0.57429 -6.7194,-1.97803 2.229,-1.40375 6.702,-1.11548 11.6542,-0.84705 4.9522,0.26844 10.3836,0.51335 14.5293,-0.88065 4.1457,-1.39401 -0.5086,-1.94313 -6.1993,-2.19982 -5.6907,-0.25669 -12.4179,-0.25611 -12.4179,-0.25611"
         style="fill:none;stroke:#000000;stroke-width:1;stroke-opacity:1"
         id="path6264" />
      <path
         sodipodi:nodetypes="csssccccsscssscsscccssccssssssssccssssssccsssscsssscsccssssscscscccsccsscsccscscsssscscscc"
         inkscape:connector-curvature="0"
         d="m 1655.4819,702.37571 -40.8204,-19.64006 c -22.7403,-10.94117 -55.4832,-25.6645 -72.7619,-32.71851 -28.3662,-11.58049 -34.0256,-15.44368 -58.2995,-39.79522 -29.3923,-29.48657 -45.4889,-38.75376 -58.6325,-33.75647 -10.1135,3.84564 -13.3278,16.81804 -10.2569,41.39746 2.0872,16.70738 1.4237,19.54126 -8.0204,34.26031 -16.9341,26.3912 -13.0175,40.27076 11.3642,40.27076 10.0006,2.3e-4 17.4392,-2.6918 27.4191,-9.92162 8.2312,-5.96303 17.8001,-9.92154 23.9837,-9.92151 24.2455,1.4e-4 139.6718,46.49127 137.9151,55.54938 -0.5431,2.80032 -15.1246,13.24004 -32.4035,23.19925 -17.2784,9.95928 -42.1316,25.3318 -55.2288,34.16116 -20.7459,13.98576 -28.0799,16.88079 -56.9405,22.47562 -18.2202,3.53236 -39.6073,9.28887 -47.5276,12.79203 -35.7285,15.80561 -23.2199,53.56107 17.7451,53.56108 8.1816,-2e-5 13.6678,3.5024 25.9036,16.53608 17.8463,19.01023 27.9361,21.09816 39.9833,8.27358 l 10e-5,3.5e-4 c 4.3733,-4.6552 10.039,-17.52451 12.9775,-29.47967 5.0226,-20.43104 6.1966,-22.03582 31.6715,-43.29053 27.0502,-22.56903 82.2488,-60.78798 98.1377,-67.94906 4.8675,-2.19378 12.5203,-3.06762 17.0062,-1.94145 17.7605,4.45784 131.195,84.89446 131.2185,93.04728 0.016,5.3397 19.8599,45.77446 25.5638,52.08844 8.6541,9.57977 19.7895,6.93357 36.5875,-8.69492 9.0706,-8.43875 20.3963,-15.50551 27.1405,-16.93424 17.4133,-3.68883 29.6187,-10.94965 33.7871,-20.09962 8.2939,-18.20431 -19.5197,-37.51039 -66.9207,-46.45142 -23.3153,-4.39759 -32.3867,-8.19848 -57.6208,-24.14277 -16.4718,-10.40766 -42.9699,-26.72872 -58.8847,-36.26917 -15.9146,-9.54015 -28.9355,-18.82563 -28.9355,-20.63412 0,-8.27399 115.5794,-55.79737 135.7025,-55.79742 5.2316,1.9e-4 17.3899,4.65135 27.0187,10.33708 42.7549,25.2442 63.7926,8.68785 39.2111,-30.85905 -9.9034,-15.93222 -10.4036,-18.21729 -8.2965,-37.89612 1.7776,-16.59887 1.1185,-22.65753 -3.1784,-29.21605 -10.2036,-15.57386 -23.3552,-9.59784 -67.9674,30.884 -20.557,18.65378 -31.581,25.6585 -58.2164,36.99096 -18.0717,7.68878 -49.9671,22.04744 -70.8784,31.90817 l -38.0209,17.92875 1.7821,-10.23419 25.5554,-12.67821 c 14.0556,-6.97297 44.1572,-20.67886 66.8922,-30.45755 35.9955,-15.48199 44.5418,-20.751 66.1388,-40.77529 27.181,-25.20152 50.9811,-41.76271 60.017,-41.76262 9.9551,-10e-6 22.426,7.3075 24.8433,14.5574 1.2727,3.81657 2.0579,16.95297 1.7448,29.1918 -0.5004,19.56402 0.6259,24.13704 9.3239,37.85335 11.8758,18.72785 13.474,39.80483 3.6893,48.66041 -12.606,11.40919 -26.6475,10.33039 -54.1619,-4.16133 l -25.4855,-13.42351 -24.3076,7.93537 c -29.3521,9.58232 -94.8714,37.95298 -94.8714,41.08049 0,1.23188 4.8367,5.04459 10.7475,8.47249 5.911,3.42866 29.7795,18.07097 53.0411,32.54024 35.5337,22.10305 46.0856,27.03049 66.0204,30.82907 55.1816,10.5154 75.2214,23.63431 75.2213,49.24382 0,17.38842 -8.585,25.60095 -34.6981,33.19275 -10.2457,2.97861 -20.9922,9.05025 -26.761,15.11855 -11.416,12.00894 -24.7208,19.4721 -34.7142,19.4719 -10.5567,-1e-5 -27.9495,-20.29743 -36.109,-42.13948 -3.9127,-10.47401 -9.6046,-21.83937 -12.6489,-25.25642 -11.7051,-13.1395 -76.3606,-59.72535 -109.888,-79.17743 l -15.0664,-8.74122 -24.6171,15.29377 c -29.0738,18.0623 -83.8147,59.52654 -96.1067,72.79765 -4.7618,5.14108 -9.6284,14.52049 -10.8145,20.84316 -6.6535,35.46975 -26.7187,52.68957 -50.2897,43.1587 l -10e-5,-2.5e-4 c -3.8111,-1.54085 -11.996,-8.64226 -18.188,-15.78035 -9.4047,-10.84215 -14.4922,-13.6155 -30.9035,-16.84732 -26.6732,-5.25295 -34.919,-13.40087 -34.919,-34.50508 -2e-4,-13.76959 1.5073,-17.69423 9.7539,-25.39835 10.2846,-9.60791 32.7798,-17.08105 71.0248,-23.59505 19.5189,-3.32428 27.9588,-7.23107 57.0585,-26.41126 18.783,-12.38067 41.5855,-26.55677 50.672,-31.50264 9.0866,-4.94592 16.5212,-10.03709 16.521,-11.31379 10e-5,-5.25364 -83.9688,-39.47062 -112.7088,-45.92857 -10.8702,-2.44268 -14.2606,-1.70247 -23.5273,5.13452 -30.3875,22.42091 -68.7942,16.11097 -68.7941,-11.30251 -10e-5,-8.31654 7.3732,-24.3926 16.651,-36.30498 4.7736,-6.12924 5.2434,-9.89482 2.6662,-21.36626 -3.945,-17.55933 -0.6431,-37.82313 7.488,-45.95503 7.8059,-7.8067 25.996,-8.18481 40.3245,-0.83869 5.821,2.98458 23.2323,17.63868 38.6923,32.56503 22.2686,21.50004 32.5884,28.89575 49.6667,35.59393 11.8567,4.65063 42.7682,18.27268 68.6922,30.27198 l 46.5974,21.56821 z"
         style="fill:none;stroke:#000000;stroke-width:1;stroke-opacity:1"
         id="path5077" />
      <path
         id="path5113"
         style="fill:none;stroke:#000000;stroke-width:1;stroke-opacity:1"
         d="m 1657.3923,314.78096 c -8.7307,0.0945 -17.4941,-2.54255 -32.8355,-7.90298 -29.4227,-10.28059 -46.8602,-8.97862 -71.9888,5.37394 -18.9475,10.82306 -30.1602,23.93595 -40.9998,47.95202 -10.6871,23.67828 -10.6516,72.7988 0.078,107.30193 11.3461,36.48703 29.0717,67.86838 51.691,91.51335 17.5684,18.36506 21.5319,20.93138 32.3273,20.93154 6.7669,-2.3e-4 20.1321,-2.97594 29.7005,-6.61295 l 10e-5,-4e-5 c 22.4948,-8.55046 50.2733,-8.55086 71.9616,4e-5 30.9184,12.18786 47.6093,7.38992 69.1655,-19.88298 14.0929,-17.82995 31.2555,-46.73674 34.8862,-58.75709 1.8808,-6.22694 -0.7261,-10.235 -15.0119,-23.07999 -22.7738,-20.47711 -29.3585,-35.46572 -29.4113,-66.94706 -0.037,-21.46472 1.2727,-27.0955 9.7207,-41.82629 5.3693,-9.36236 13.7744,-20.17871 18.6781,-24.03642 l 8.9158,-7.01358 -7.9614,-8.53077 c -22.2394,-23.82921 -59.9745,-30.19245 -97.6492,-16.46656 -14.0593,5.1222 -22.4367,7.77858 -30.7209,7.976 l 0.3562,-6.56117 21.7388,-8.41852 c 41.9499,-16.24557 85.1508,-9.94107 112.3679,16.39828 13.298,12.86925 13.5098,19.04592 0.9703,28.31752 -22.6292,16.7319 -34.5409,53.28772 -26.6031,81.64132 4.4966,16.06204 23.5196,40.20011 37.6351,47.75513 11.6142,6.21631 11.0617,14.42097 -2.8243,41.93579 -14.304,28.34339 -33.2122,53.38736 -47.6573,63.12275 -18.0272,12.14966 -30.6117,12.79459 -59.3135,3.04023 -31.5162,-10.71069 -37.2739,-10.74653 -64.7558,-0.4014 -24.5645,9.24668 -35.3883,10.03728 -49.9223,3.64701 -23.7608,-10.44719 -58.0504,-58.7484 -72.7093,-102.4205 -23.1023,-68.82553 -13.7204,-134.34739 23.9898,-167.54388 27.312,-24.04289 61.4694,-29.01772 102.7729,-14.96844 l 23.7956,8.09412 z"
         inkscape:connector-curvature="0"
         sodipodi:nodetypes="cscscsccccsssccccssccssssssssssssscc" />
      <path
         id="path5115"
         style="fill:none;stroke:#000000;stroke-width:1;stroke-opacity:1"
         d="m 1660.3239,284.19704 c 3.104,2.38631 9.1541,1.77731 18.231,-1.674 22.0188,-8.37239 42.9993,-36.38915 47.2751,-63.13081 2.1622,-13.52282 2.0043,-13.84044 -5.6997,-11.45432 -26.4301,8.18576 -44.7858,23.9997 -55.6065,47.90592 -6.8143,15.05522 -8.4463,24.23608 -4.6968,27.92107 l -11.0184,6.52073 c -3.6755,-9.57935 5.7641,-40.85262 16.6329,-55.10369 16.4896,-21.62109 35.5136,-33.45036 54.1943,-33.69815 l 15.7198,-0.2086 -0.808,15.77049 c -1.0601,20.69004 -7.2948,34.93078 -22.846,52.17884 -19.9558,22.13363 -56.832,34.63848 -62.7224,21.47202 z"
         inkscape:connector-curvature="0"
         sodipodi:nodetypes="cssssccsscsscc" />
    </g>
  </g>
  <eggbot
     id="eggbot6273"
     node="0"
     layer="12345"
     serialport="/dev/ttyACM0" />
</svg>
