<?xml version="1.0" encoding="UTF-8" standalone="no"?>
<!-- Created with Inkscape (http://www.inkscape.org/) -->

<svg
   xmlns:dc="http://purl.org/dc/elements/1.1/"
   xmlns:cc="http://creativecommons.org/ns#"
   xmlns:rdf="http://www.w3.org/1999/02/22-rdf-syntax-ns#"
   xmlns:svg="http://www.w3.org/2000/svg"
   xmlns="http://www.w3.org/2000/svg"
   xmlns:xlink="http://www.w3.org/1999/xlink"
   xmlns:sodipodi="http://sodipodi.sourceforge.net/DTD/sodipodi-0.dtd"
   xmlns:inkscape="http://www.inkscape.org/namespaces/inkscape"
   width="3200"
   height="1000"
   id="svg27345"
   version="1.1"
   inkscape:version="0.47 r22583"
   sodipodi:docname="awesome_face.svg">
  <defs
     id="defs27347" />
  <sodipodi:namedview
     id="base"
     pagecolor="#ffffff"
     bordercolor="#666666"
     borderopacity="1.0"
     inkscape:pageopacity="0.0"
     inkscape:pageshadow="2"
     inkscape:zoom="0.65669131"
     inkscape:cx="1874.3693"
     inkscape:cy="420.46385"
     inkscape:document-units="px"
     inkscape:current-layer="layer1"
     showgrid="false"
     inkscape:window-width="1280"
     inkscape:window-height="973"
     inkscape:window-x="0"
     inkscape:window-y="24"
     inkscape:window-maximized="1"
     inkscape:snap-global="false"
     showguides="true" />
  <metadata
     id="metadata27350">
    <rdf:RDF>
      <cc:Work
         rdf:about="">
        <dc:format>image/svg+xml</dc:format>
        <dc:type
           rdf:resource="http://purl.org/dc/dcmitype/StillImage" />
        <dc:title></dc:title>
      </cc:Work>
    </rdf:RDF>
  </metadata>
  <g
     inkscape:label="Layer 1"
     inkscape:groupmode="layer"
     id="layer1"
     transform="translate(0,-52.36218)">
    <g
       id="g23825"
       style="stroke:#204a87">
      <path
         d="m 1367.6562,591.78125 10.1876,7.75 a 5.3232786,5.3232786 0 0 1 2.0937,4.4375 l -0.25,6.09375 c 16.5069,103.0004 78.9073,184.26744 184.3125,202.5625 42.5621,2.39842 84.3042,-3.30258 122.3125,-22.65625 33.5519,-20.72369 61.1775,-42.40583 78.8125,-68.625 17.6665,-26.26589 25.6403,-57.05358 19.7188,-97.71875 -0.01,-0.03 0.01,-0.0638 0,-0.0937 -2.3115,-11.03093 -5.0718,-21.80399 -9.3438,-31.75 l -210,0 -197.8438,0 z"
         inkscape:href="#path23303"
         id="path23307"
         style="fill:none;stroke:#204a87;stroke-width:5;stroke-linecap:round;stroke-linejoin:round;stroke-miterlimit:4;stroke-dasharray:none"
         xlink:href="#path23303"
         inkscape:original="M 1351.9375 586.46875 L 1352.2188 603.28125 L 1374.625 603.75 L 1374.3438 610.4375 C 1391.0117 715.40813 1455.331 799.3077 1563.3438 817.9375 C 1606.7432 820.42741 1649.6681 814.63959 1688.8438 794.65625 C 1756.7702 752.74842 1802.3356 706.3281 1790.125 622.75 C 1787.5394 610.37055 1784.4829 597.95231 1779.0625 586.46875 L 1565.5 586.46875 L 1351.9375 586.46875 z "
         inkscape:radius="-5.3227463"
         sodipodi:type="inkscape:offset" />
      <path
         d="m 1382.8125,597.0625 a 10.592616,10.592616 0 0 1 2.4063,7.125 L 1385,609.71875 c 16.3453,101.05093 76.8441,179.73801 179.6875,197.6875 41.6945,2.29768 82.2341,-3.35135 119.0625,-22.0625 33.1494,-20.4976 60.0726,-41.77037 77,-66.9375 16.9471,-25.19638 24.6062,-54.26984 18.9375,-93.6875 -2.0381,-9.73697 -4.3578,-19.05991 -7.6875,-27.65625 l -206.5,0 -182.6875,0 z"
         inkscape:href="#path23303"
         id="path23309"
         style="fill:none;stroke:#204a87;stroke-width:5;stroke-linecap:round;stroke-linejoin:round;stroke-miterlimit:4;stroke-dasharray:none"
         xlink:href="#path23303"
         inkscape:original="M 1351.9375 586.46875 L 1352.2188 603.28125 L 1374.625 603.75 L 1374.3438 610.4375 C 1391.0117 715.40813 1455.331 799.3077 1563.3438 817.9375 C 1606.7432 820.42741 1649.6681 814.63959 1688.8438 794.65625 C 1756.7702 752.74842 1802.3356 706.3281 1790.125 622.75 C 1787.5394 610.37055 1784.4829 597.95231 1779.0625 586.46875 L 1565.5 586.46875 L 1351.9375 586.46875 z "
         inkscape:radius="-10.591557"
         sodipodi:type="inkscape:offset" />
      <path
         sodipodi:nodetypes="cccccccccc"
         id="path23303"
         d="m 1374.625,603.73718 -0.2812,6.6875 c 16.668,104.97063 80.9872,188.8702 189,207.5 43.3995,2.48991 86.3244,-3.29791 125.5,-23.28125 67.9264,-41.90783 113.4918,-88.32815 101.2812,-171.90625 -2.5856,-12.37945 -5.6421,-24.79769 -11.0625,-36.28125 l -213.5625,0 -213.5625,0 0.2799,16.81084 22.4076,0.47041 z"
         style="fill:none;stroke:#204a87;stroke-width:5;stroke-linecap:round;stroke-linejoin:round;stroke-miterlimit:4;stroke-dasharray:none" />
      <g
         id="g23776"
         style="stroke:#204a87">
        <path
           style="fill:none;stroke:#204a87;stroke-width:1;stroke-miterlimit:4;stroke-dasharray:none;stroke-opacity:1"
           d="m 1457.1461,462.79798 25.2191,-25.2191"
           id="path23770" />
        <path
           style="fill:none;stroke:#204a87;stroke-width:1;stroke-miterlimit:4;stroke-dasharray:none;stroke-opacity:1"
           d="m 1477.5748,428.24125 -33.3122,33.31222"
           id="path23766" />
        <path
           style="fill:none;stroke:#204a87;stroke-width:1;stroke-miterlimit:4;stroke-dasharray:none;stroke-opacity:1"
           d="m 1434.5423,457.14565 37.531,-37.53095"
           id="path23762" />
        <path
           style="fill:none;stroke:#204a87;stroke-width:1;stroke-miterlimit:4;stroke-dasharray:none;stroke-opacity:1"
           d="m 1465.853,411.70699 -38.2497,38.24967"
           id="path23758" />
        <path
           style="fill:none;stroke:#204a87;stroke-width:1;stroke-miterlimit:4;stroke-dasharray:none;stroke-opacity:1"
           d="m 1422.6643,440.76766 36.0934,-36.09345"
           id="path23754" />
        <path
           style="fill:none;stroke:#204a87;stroke-width:1;stroke-miterlimit:4;stroke-dasharray:none;stroke-opacity:1"
           d="m 1450.6313,398.6727 -29.7185,29.7185"
           id="path23750" />
        <path
           style="fill:none;stroke:#204a87;stroke-width:1;stroke-miterlimit:4;stroke-dasharray:none;stroke-opacity:1"
           d="m 1448.7197,462.55918 -27.406,-27.40603"
           id="path23745" />
        <path
           style="fill:none;stroke:#204a87;stroke-width:1;stroke-miterlimit:4;stroke-dasharray:none;stroke-opacity:1"
           d="m 1421.9402,421.65169 40.2497,40.24969"
           id="path23741" />
        <path
           style="fill:none;stroke:#204a87;stroke-width:1;stroke-miterlimit:4;stroke-dasharray:none;stroke-opacity:1"
           d="M 1471.8789,457.46235 1426.348,411.93148"
           id="path23737" />
        <path
           style="fill:none;stroke:#204a87;stroke-width:1;stroke-miterlimit:4;stroke-dasharray:none;stroke-opacity:1"
           d="m 1432.912,404.36747 45.9683,45.96836"
           id="path23733" />
        <path
           style="fill:none;stroke:#204a87;stroke-width:1;stroke-miterlimit:4;stroke-dasharray:none;stroke-opacity:1"
           d="m 1484.1631,441.4906 -43.2184,-43.21839"
           id="path23729" />
        <path
           sodipodi:type="inkscape:offset"
           inkscape:radius="-5.2390361"
           inkscape:original="M 1412.6875 376.65625 C 1395.1851 376.69125 1378.1006 381.6618 1364.8438 394.3125 C 1350.4546 408.78346 1339.3511 430.77635 1334.125 455.15625 C 1330.4474 479.95912 1330.1435 507.78047 1341.6562 530.78125 C 1342.2081 531.14135 1376.8028 531.33483 1418.5312 531.21875 L 1494.4062 531 L 1500.0625 512.375 C 1503.9534 494.87434 1503.1728 476.13852 1500.4375 458.53125 C 1495.0527 434.27918 1484.0414 413.80554 1468.4375 399.09375 C 1457.8812 389.14101 1446.351 382.46748 1433.2188 378.71875 C 1426.4399 377.37363 1419.5363 376.64254 1412.6875 376.65625 z "
           xlink:href="#path23332"
           style="fill:none;stroke:#204a87;stroke-width:5;stroke-miterlimit:4;stroke-dasharray:none;stroke-opacity:1"
           id="path23334"
           inkscape:href="#path23332"
           d="m 1412.6875,381.90625 c -16.473,0.0329 -32.0127,4.59019 -44.125,16.09375 -0.02,0.0204 -0.042,0.0421 -0.062,0.0625 -0.011,0.0103 -0.02,0.0209 -0.031,0.0312 -13.3659,13.48793 -24.0966,34.49793 -29.1563,57.84375 -0,0.0304 0,0.0634 0,0.0937 -3.4398,23.26154 -3.5701,48.73353 5.875,69.6875 0.8896,0.0236 1.6615,0.041 2.9375,0.0625 3.9365,0.0664 9.6068,0.11688 16.5625,0.15625 13.9115,0.0788 32.9917,0.0893 53.8437,0.0312 l 72,-0.21875 4.4063,-14.5 c 3.6778,-16.54208 2.9996,-34.61908 0.3437,-51.78125 -0.01,-0.0426 -0.022,-0.0824 -0.031,-0.125 -5.2171,-23.24552 -15.7388,-42.60861 -30.4062,-56.4375 -9.9771,-9.40661 -20.6427,-15.56547 -32.9063,-19.09375 -6.3881,-1.25216 -12.8637,-1.91903 -19.25,-1.90625 z" />
        <path
           sodipodi:type="inkscape:offset"
           inkscape:radius="-10.528563"
           inkscape:original="M 1412.6875 376.65625 C 1395.1851 376.69125 1378.1006 381.6618 1364.8438 394.3125 C 1350.4546 408.78346 1339.3511 430.77635 1334.125 455.15625 C 1330.4474 479.95912 1330.1435 507.78047 1341.6562 530.78125 C 1342.2081 531.14135 1376.8028 531.33483 1418.5312 531.21875 L 1494.4062 531 L 1500.0625 512.375 C 1503.9534 494.87434 1503.1728 476.13852 1500.4375 458.53125 C 1495.0527 434.27918 1484.0414 413.80554 1468.4375 399.09375 C 1457.8812 389.14101 1446.351 382.46748 1433.2188 378.71875 C 1426.4399 377.37363 1419.5363 376.64254 1412.6875 376.65625 z "
           xlink:href="#path23332"
           style="fill:none;stroke:#204a87;stroke-width:5;stroke-miterlimit:4;stroke-dasharray:none;stroke-opacity:1"
           id="path23336"
           inkscape:href="#path23332"
           d="m 1412.7188,387.1875 c -15.4313,0.0309 -29.4499,4.21492 -40.4063,14.5625 -0.036,0.0359 -0.058,0.089 -0.094,0.125 -0.028,0.0261 -0.066,0.0364 -0.094,0.0625 -12.3876,12.5519 -22.756,32.66388 -27.625,55.0625 -3.1612,21.52726 -3.266,44.59081 4.1875,63.5 3.8856,0.0632 9.284,0.11806 16.0313,0.15625 13.889,0.0786 32.9414,0.0892 53.7812,0.0312 l 68.0938,-0.1875 3.1874,-10.40625 c 0.01,-0.0411 0.022,-0.0838 0.031,-0.125 3.4288,-15.52772 2.8109,-32.85065 0.25,-49.5 -5.0251,-22.35143 -15.061,-40.72395 -28.8437,-53.71875 -9.3912,-8.8542 -19.178,-14.47749 -30.5626,-17.78125 -5.9922,-1.15847 -12.016,-1.7931 -17.9374,-1.78125 z" />
        <path
           style="fill:none;stroke:#204a87;stroke-width:5;stroke-miterlimit:4;stroke-dasharray:none;stroke-opacity:1"
           d="m 1412.6875,376.64343 c -17.5024,0.035 -34.5868,5.00555 -47.8437,17.65625 -14.3891,14.47096 -25.4927,36.46385 -30.7188,60.84375 -3.6776,24.80287 -3.9816,52.62422 7.5312,75.625 0.5519,0.3601 35.1465,0.55358 76.875,0.4375 l 75.875,-0.21875 5.6563,-18.625 c 3.8909,-17.50066 3.1103,-36.23648 0.375,-53.84375 -5.3848,-24.25207 -16.3961,-44.72571 -32,-59.4375 -10.5563,-9.95274 -22.0864,-16.62627 -35.2187,-20.375 -6.7788,-1.34512 -13.6825,-2.07621 -20.5313,-2.0625 z"
           id="path23332" />
        <path
           style="fill:none;stroke:#204a87;stroke-width:5;stroke-miterlimit:4;stroke-dasharray:none;stroke-opacity:1"
           d="m 1410.7216,391.07451 c 11.0198,-0.3069 27.9251,3.69484 28.5628,7.00549 0.1671,0.86695 -1.6754,2.69417 -4.7977,4.76629 -16.0715,12.89023 -18.4654,33.81641 -4.9577,49.96612 12.0116,13.02523 34.4364,13.34299 46.7304,0.63977 5.8566,-6.05165 6.6031,-5.33314 9.6596,9.08475 3.4035,16.05541 2.2282,47.16529 -1.9831,52.2373 -1.511,1.81989 -130.9092,1.88236 -132.4191,0.064 -3.9604,-4.76989 -6.1133,-37.6792 -3.4544,-52.97304 7.8041,-34.26785 22.0688,-66.39926 60.5482,-70.66271 0.6757,-0.0601 1.3763,-0.10749 2.111,-0.12795 z"
           id="path2392" />
      </g>
      <path
         d="m 1636.2188,738.40625 c -5.1178,-0.0693 -10.4552,0.41596 -16.375,1.8125 -24.9674,5.89035 -38.8921,19.31377 -47.3126,32.25 12.9196,1.63655 29.6785,1.85105 51.4063,-3.0625 19.3866,-4.38408 35.8312,-12.15422 48.9063,-19.71875 -9.6653,-6.1049 -21.6056,-11.07795 -36.625,-11.28125 z"
         inkscape:href="#path23319"
         id="path23321"
         style="fill:none;stroke:#204a87;stroke-width:5;stroke-miterlimit:4;stroke-dasharray:none"
         xlink:href="#path23319"
         inkscape:original="M 1636.2812 733.15625 C 1630.7661 733.0816 1624.9623 733.62998 1618.625 735.125 C 1587.8191 742.39279 1572.2941 761.01543 1564 776.5625 C 1578.1242 779.18167 1598.256 780.60038 1625.0938 774.53125 C 1648.8341 769.16262 1668.4951 758.90826 1682.6875 750 C 1671.5459 741.55616 1656.2936 733.42713 1636.2812 733.15625 z "
         inkscape:radius="-5.2439828"
         sodipodi:type="inkscape:offset" />
      <path
         d="m 1636.2812,733.15625 c -5.5152,-0.0747 -11.3189,0.47373 -17.6562,1.96875 -30.8059,7.26779 -46.3309,25.89043 -54.625,41.4375 14.1242,2.61917 34.2561,4.03788 61.0938,-2.03125 23.7404,-5.36863 43.4013,-15.62299 57.5937,-24.53125 -11.1416,-8.44384 -26.394,-16.57287 -46.4063,-16.84375 z"
         inkscape:href="#path23317"
         id="path23319"
         style="fill:none;stroke:#204a87;stroke-width:5;stroke-miterlimit:4;stroke-dasharray:none"
         xlink:href="#path23317"
         inkscape:original="M 1636.3438 727.90625 C 1630.4169 727.82603 1624.1564 728.43882 1617.4062 730.03125 C 1580.6882 738.69385 1564.0185 763.16475 1556.25 780.4375 C 1570.8332 783.87932 1594.3766 786.86417 1626.25 779.65625 C 1654.3765 773.29575 1677.2681 760.25668 1691.8438 750.46875 C 1680.0306 740.23952 1661.5009 728.24677 1636.3438 727.90625 z "
         inkscape:radius="-5.2475977"
         sodipodi:type="inkscape:offset" />
      <path
         d="m 1636.3438,727.90625 c -5.9268,-0.0802 -12.1875,0.53257 -18.9376,2.125 -36.7181,8.6626 -53.3877,33.1335 -61.1562,50.40625 14.5832,3.44182 38.1266,6.42667 70,-0.78125 28.1265,-6.3605 51.0182,-19.39957 65.5938,-29.1875 -11.8131,-10.22923 -30.3428,-22.22198 -55.5,-22.5625 z"
         inkscape:href="#path23315"
         id="path23317"
         style="fill:none;stroke:#204a87;stroke-width:5;stroke-miterlimit:4;stroke-dasharray:none"
         xlink:href="#path23315"
         inkscape:original="M 1636.4062 722.65625 C 1630.0561 722.5703 1623.3447 723.24901 1616.1875 724.9375 C 1573.3265 735.04933 1555.8579 766.17287 1548.9688 784.125 C 1563.1655 788.12834 1590.3342 793.16479 1627.4062 784.78125 C 1660.129 777.38134 1686.3535 761.07715 1700.5 751 C 1688.8583 739.76742 1667.0028 723.07039 1636.4062 722.65625 z "
         inkscape:radius="-5.241333"
         sodipodi:type="inkscape:offset" />
      <path
         d="m 1636.4062,722.65625 c -6.3502,-0.086 -13.0615,0.59276 -20.2187,2.28125 -42.861,10.11183 -60.3295,41.23537 -67.2187,59.1875 14.1968,4.00334 41.3653,9.03979 78.4374,0.65625 32.7227,-7.39991 58.9473,-23.7041 73.0938,-33.78125 -11.6417,-11.23258 -33.4973,-27.92961 -64.0938,-28.34375 z"
         inkscape:href="#path23313"
         id="path23315"
         style="fill:none;stroke:#204a87;stroke-width:5;stroke-miterlimit:4;stroke-dasharray:none"
         xlink:href="#path23313"
         inkscape:original="M 1636.4688 717.53125 C 1629.693 717.43954 1622.5477 718.18813 1615 719.96875 C 1565.6728 731.6061 1547.9292 770.32677 1542.25 787.625 C 1555.044 791.77801 1586.0862 799.37982 1628.5312 789.78125 C 1666.0948 781.28662 1695.8677 761.1549 1708.5938 751.59375 C 1698.0818 740.46663 1672.8381 718.02353 1636.4688 717.53125 z "
         inkscape:radius="-5.1176271"
         sodipodi:type="inkscape:offset" />
      <path
         d="m 1636.4688,717.53125 c -6.7757,-0.0917 -13.9211,0.65688 -21.4688,2.4375 -49.3272,11.63735 -67.0708,50.35802 -72.75,67.65625 12.794,4.15301 43.8361,11.75482 86.2812,2.15625 37.5635,-8.49463 67.3366,-28.62635 80.0626,-38.1875 -10.5119,-11.12712 -35.7556,-33.57022 -72.125,-34.0625 z"
         inkscape:href="#path23311"
         id="path23313"
         style="fill:none;stroke:#204a87;stroke-width:5;stroke-miterlimit:4;stroke-dasharray:none"
         xlink:href="#path23311"
         inkscape:original="M 1636.5312 712.25 C 1629.3228 712.15243 1621.7399 712.93492 1613.7812 714.8125 C 1556.7588 728.26532 1539.5537 776.74775 1535.625 791.125 C 1545.2996 794.70902 1580.9627 805.95616 1629.6875 794.9375 C 1672.9774 785.14789 1706.9749 759.88133 1716.5938 752.25 C 1708.698 743.088 1679.7129 712.83449 1636.5312 712.25 z "
         inkscape:radius="-5.287755"
         sodipodi:type="inkscape:offset" />
      <path
         d="m 1636.5312,712.25 c -7.2085,-0.0976 -14.7914,0.68492 -22.75,2.5625 -57.0225,13.45282 -74.2275,61.93525 -78.1562,76.3125 9.6746,3.58402 45.3377,14.83116 94.0625,3.8125 43.2899,-9.78961 77.2875,-35.05617 86.9063,-42.6875 -7.8957,-9.162 -36.881,-39.41551 -80.0626,-40 z"
         inkscape:href="#path23261"
         id="path23311"
         style="fill:none;stroke:#204a87;stroke-width:5;stroke-miterlimit:4;stroke-dasharray:none"
         xlink:href="#path23261"
         inkscape:original="M 1636.5938 706.96875 C 1628.9593 706.86541 1620.9389 707.68009 1612.5625 709.65625 C 1542.4315 726.20163 1529.3125 794.46875 1529.3125 794.46875 C 1529.3125 794.46875 1572.4165 813.30653 1630.8438 800.09375 C 1683.2876 788.23407 1724.25 752.96875 1724.25 752.96875 C 1724.25 752.96875 1690.0347 707.69211 1636.5938 706.96875 z "
         inkscape:radius="-5.284997"
         sodipodi:type="inkscape:offset" />
      <path
         d="m 1636.0938,743.65625 c -4.6761,-0.0633 -9.6195,0.42726 -15.0938,1.71875 -18.3431,4.32752 -30.756,13.20377 -39.0938,22.65625 11.5869,0.47761 25.2452,-0.22252 40.8438,-3.75 13.8401,-3.12981 26.9764,-8.61639 38.5312,-14.46875 -7.6263,-3.48309 -16.0977,-6.03321 -25.1874,-6.15625 z"
         inkscape:href="#path23261"
         id="path23323"
         style="fill:none;stroke:#204a87;stroke-width:5;stroke-miterlimit:4;stroke-dasharray:none"
         xlink:href="#path23261"
         inkscape:original="M 1636.5938 706.96875 C 1628.9593 706.86541 1620.9389 707.68009 1612.5625 709.65625 C 1542.4315 726.20163 1529.3125 794.46875 1529.3125 794.46875 C 1529.3125 794.46875 1572.4165 813.30653 1630.8438 800.09375 C 1683.2876 788.23407 1724.25 752.96875 1724.25 752.96875 C 1724.25 752.96875 1690.0347 707.69211 1636.5938 706.96875 z "
         inkscape:radius="-36.705753"
         sodipodi:type="inkscape:offset" />
      <path
         d="m 1636.0312,749.21875 c -4.2293,-0.0572 -8.7452,0.3744 -13.7812,1.5625 -10.6862,2.52111 -19.0933,6.69476 -25.8438,11.5625 7.7317,-0.46134 16.0088,-1.40721 25.125,-3.46875 8.6678,-1.96013 17.0679,-4.96796 25.0313,-8.34375 -3.4151,-0.77561 -6.9323,-1.26379 -10.5313,-1.3125 z"
         inkscape:href="#path23261"
         id="path23325"
         style="fill:none;stroke:#204a87;stroke-width:5;stroke-miterlimit:4;stroke-dasharray:none"
         xlink:href="#path23261"
         inkscape:original="M 1636.5938 706.96875 C 1628.9593 706.86541 1620.9389 707.68009 1612.5625 709.65625 C 1542.4315 726.20163 1529.3125 794.46875 1529.3125 794.46875 C 1529.3125 794.46875 1572.4165 813.30653 1630.8438 800.09375 C 1683.2876 788.23407 1724.25 752.96875 1724.25 752.96875 C 1724.25 752.96875 1690.0347 707.69211 1636.5938 706.96875 z "
         inkscape:radius="-42.248703"
         sodipodi:type="inkscape:offset" />
      <path
         d="m 1636,751.625 c -4.0355,-0.0546 -8.3416,0.35676 -13.1875,1.5 -6.2245,1.46848 -11.5975,3.53586 -16.375,5.9375 4.6599,-0.60556 9.4721,-1.38011 14.5625,-2.53125 5.4782,-1.23884 10.8409,-2.94708 16.0938,-4.84375 -0.3669,-0.0141 -0.7255,-0.0575 -1.0938,-0.0625 z"
         inkscape:href="#path23261"
         id="path23327"
         style="fill:none;stroke:#204a87;stroke-width:5;stroke-miterlimit:4;stroke-dasharray:none"
         xlink:href="#path23261"
         inkscape:original="M 1636.5938 706.96875 C 1628.9593 706.86541 1620.9389 707.68009 1612.5625 709.65625 C 1542.4315 726.20163 1529.3125 794.46875 1529.3125 794.46875 C 1529.3125 794.46875 1572.4165 813.30653 1630.8438 800.09375 C 1683.2876 788.23407 1724.25 752.96875 1724.25 752.96875 C 1724.25 752.96875 1690.0347 707.69211 1636.5938 706.96875 z "
         inkscape:radius="-44.653664"
         sodipodi:type="inkscape:offset" />
      <path
         d="m 1724.2449,752.9537 c 0,0 -40.9714,35.28833 -93.4152,47.14801 -58.4272,13.21278 -101.5291,-5.62901 -101.5291,-5.62901 0,0 13.1386,-68.27606 83.2696,-84.82144 67.0109,-15.80931 111.6747,43.30244 111.6747,43.30244 z"
         id="path23261"
         style="fill:none;stroke:#204a87;stroke-width:5;stroke-miterlimit:4;stroke-dasharray:none" />
      <path
         transform="matrix(1.5694117,0,0,1.5694117,-519.37039,-123.21166)"
         d="m 1555.0331,430.4631 a 204.60962,204.60962 0 1 1 -409.2193,0 204.60962,204.60962 0 1 1 409.2193,0 z"
         sodipodi:ry="204.60962"
         sodipodi:rx="204.60962"
         sodipodi:cy="430.4631"
         sodipodi:cx="1350.4235"
         id="path23291"
         style="opacity:1;fill:none;stroke:#204a87;stroke-width:3.18590718000000006;stroke-miterlimit:4;stroke-dasharray:none"
         sodipodi:type="arc" />
      <path
         sodipodi:type="arc"
         style="opacity:1;fill:none;stroke:#204a87;stroke-width:3.24427485000000004;stroke-miterlimit:4;stroke-dasharray:none"
         id="path23293"
         sodipodi:cx="1350.4235"
         sodipodi:cy="430.4631"
         sodipodi:rx="204.60962"
         sodipodi:ry="204.60962"
         d="m 1555.0331,430.4631 a 204.60962,204.60962 0 1 1 -409.2193,0 204.60962,204.60962 0 1 1 409.2193,0 z"
         transform="matrix(1.5411764,0,0,1.5411764,-481.24079,-111.05741)" />
      <path
         transform="matrix(1.5129411,0,0,1.5129411,-443.11119,-98.903157)"
         d="m 1555.0331,430.4631 a 204.60962,204.60962 0 1 1 -409.2193,0 204.60962,204.60962 0 1 1 409.2193,0 z"
         sodipodi:ry="204.60962"
         sodipodi:rx="204.60962"
         sodipodi:cy="430.4631"
         sodipodi:cx="1350.4235"
         id="path23295"
         style="opacity:1;fill:none;stroke:#204a87;stroke-width:3.30482124999999982;stroke-miterlimit:4;stroke-dasharray:none"
         sodipodi:type="arc" />
      <path
         sodipodi:type="arc"
         style="opacity:1;fill:none;stroke:#204a87;stroke-width:3.36767054000000021;stroke-miterlimit:4;stroke-dasharray:none"
         id="path23297"
         sodipodi:cx="1350.4235"
         sodipodi:cy="430.4631"
         sodipodi:rx="204.60962"
         sodipodi:ry="204.60962"
         d="m 1555.0331,430.4631 a 204.60962,204.60962 0 1 1 -409.2193,0 204.60962,204.60962 0 1 1 409.2193,0 z"
         transform="matrix(1.4847058,0,0,1.4847058,-404.98159,-86.748904)" />
      <g
         transform="translate(282.27675,0)"
         id="g23793"
         style="stroke:#204a87">
        <path
           id="path23795"
           d="m 1457.1461,462.79798 25.2191,-25.2191"
           style="fill:none;stroke:#204a87;stroke-width:1;stroke-miterlimit:4;stroke-opacity:1;stroke-dasharray:none" />
        <path
           id="path23797"
           d="m 1477.5748,428.24125 -33.3122,33.31222"
           style="fill:none;stroke:#204a87;stroke-width:1;stroke-miterlimit:4;stroke-opacity:1;stroke-dasharray:none" />
        <path
           id="path23799"
           d="m 1434.5423,457.14565 37.531,-37.53095"
           style="fill:none;stroke:#204a87;stroke-width:1;stroke-miterlimit:4;stroke-opacity:1;stroke-dasharray:none" />
        <path
           id="path23801"
           d="m 1465.853,411.70699 -38.2497,38.24967"
           style="fill:none;stroke:#204a87;stroke-width:1;stroke-miterlimit:4;stroke-opacity:1;stroke-dasharray:none" />
        <path
           id="path23803"
           d="m 1422.6643,440.76766 36.0934,-36.09345"
           style="fill:none;stroke:#204a87;stroke-width:1;stroke-miterlimit:4;stroke-opacity:1;stroke-dasharray:none" />
        <path
           id="path23805"
           d="m 1450.6313,398.6727 -29.7185,29.7185"
           style="fill:none;stroke:#204a87;stroke-width:1;stroke-miterlimit:4;stroke-opacity:1;stroke-dasharray:none" />
        <path
           id="path23807"
           d="m 1448.7197,462.55918 -27.406,-27.40603"
           style="fill:none;stroke:#204a87;stroke-width:1;stroke-miterlimit:4;stroke-opacity:1;stroke-dasharray:none" />
        <path
           id="path23809"
           d="m 1421.9402,421.65169 40.2497,40.24969"
           style="fill:none;stroke:#204a87;stroke-width:1;stroke-miterlimit:4;stroke-opacity:1;stroke-dasharray:none" />
        <path
           id="path23811"
           d="M 1471.8789,457.46235 1426.348,411.93148"
           style="fill:none;stroke:#204a87;stroke-width:1;stroke-miterlimit:4;stroke-opacity:1;stroke-dasharray:none" />
        <path
           id="path23813"
           d="m 1432.912,404.36747 45.9683,45.96836"
           style="fill:none;stroke:#204a87;stroke-width:1;stroke-miterlimit:4;stroke-opacity:1;stroke-dasharray:none" />
        <path
           id="path23815"
           d="m 1484.1631,441.4906 -43.2184,-43.21839"
           style="fill:none;stroke:#204a87;stroke-width:1;stroke-miterlimit:4;stroke-opacity:1;stroke-dasharray:none" />
        <path
           d="m 1412.6875,381.90625 c -16.473,0.0329 -32.0127,4.59019 -44.125,16.09375 -0.02,0.0204 -0.042,0.0421 -0.062,0.0625 -0.011,0.0103 -0.02,0.0209 -0.031,0.0312 -13.3659,13.48793 -24.0966,34.49793 -29.1563,57.84375 -0,0.0304 0,0.0634 0,0.0937 -3.4398,23.26154 -3.5701,48.73353 5.875,69.6875 0.8896,0.0236 1.6615,0.041 2.9375,0.0625 3.9365,0.0664 9.6068,0.11688 16.5625,0.15625 13.9115,0.0788 32.9917,0.0893 53.8437,0.0312 l 72,-0.21875 4.4063,-14.5 c 3.6778,-16.54208 2.9996,-34.61908 0.3437,-51.78125 -0.01,-0.0426 -0.022,-0.0824 -0.031,-0.125 -5.2171,-23.24552 -15.7388,-42.60861 -30.4062,-56.4375 -9.9771,-9.40661 -20.6427,-15.56547 -32.9063,-19.09375 -6.3881,-1.25216 -12.8637,-1.91903 -19.25,-1.90625 z"
           inkscape:href="#path23332"
           id="path23817"
           style="fill:none;stroke:#204a87;stroke-width:5;stroke-miterlimit:4;stroke-opacity:1;stroke-dasharray:none"
           xlink:href="#path23332"
           inkscape:original="M 1412.6875 376.65625 C 1395.1851 376.69125 1378.1006 381.6618 1364.8438 394.3125 C 1350.4546 408.78346 1339.3511 430.77635 1334.125 455.15625 C 1330.4474 479.95912 1330.1435 507.78047 1341.6562 530.78125 C 1342.2081 531.14135 1376.8028 531.33483 1418.5312 531.21875 L 1494.4062 531 L 1500.0625 512.375 C 1503.9534 494.87434 1503.1728 476.13852 1500.4375 458.53125 C 1495.0527 434.27918 1484.0414 413.80554 1468.4375 399.09375 C 1457.8812 389.14101 1446.351 382.46748 1433.2188 378.71875 C 1426.4399 377.37363 1419.5363 376.64254 1412.6875 376.65625 z "
           inkscape:radius="-5.2390361"
           sodipodi:type="inkscape:offset" />
        <path
           d="m 1412.7188,387.1875 c -15.4313,0.0309 -29.4499,4.21492 -40.4063,14.5625 -0.036,0.0359 -0.058,0.089 -0.094,0.125 -0.028,0.0261 -0.066,0.0364 -0.094,0.0625 -12.3876,12.5519 -22.756,32.66388 -27.625,55.0625 -3.1612,21.52726 -3.266,44.59081 4.1875,63.5 3.8856,0.0632 9.284,0.11806 16.0313,0.15625 13.889,0.0786 32.9414,0.0892 53.7812,0.0312 l 68.0938,-0.1875 3.1874,-10.40625 c 0.01,-0.0411 0.022,-0.0838 0.031,-0.125 3.4288,-15.52772 2.8109,-32.85065 0.25,-49.5 -5.0251,-22.35143 -15.061,-40.72395 -28.8437,-53.71875 -9.3912,-8.8542 -19.178,-14.47749 -30.5626,-17.78125 -5.9922,-1.15847 -12.016,-1.7931 -17.9374,-1.78125 z"
           inkscape:href="#path23332"
           id="path23819"
           style="fill:none;stroke:#204a87;stroke-width:5;stroke-miterlimit:4;stroke-opacity:1;stroke-dasharray:none"
           xlink:href="#path23332"
           inkscape:original="M 1412.6875 376.65625 C 1395.1851 376.69125 1378.1006 381.6618 1364.8438 394.3125 C 1350.4546 408.78346 1339.3511 430.77635 1334.125 455.15625 C 1330.4474 479.95912 1330.1435 507.78047 1341.6562 530.78125 C 1342.2081 531.14135 1376.8028 531.33483 1418.5312 531.21875 L 1494.4062 531 L 1500.0625 512.375 C 1503.9534 494.87434 1503.1728 476.13852 1500.4375 458.53125 C 1495.0527 434.27918 1484.0414 413.80554 1468.4375 399.09375 C 1457.8812 389.14101 1446.351 382.46748 1433.2188 378.71875 C 1426.4399 377.37363 1419.5363 376.64254 1412.6875 376.65625 z "
           inkscape:radius="-10.528563"
           sodipodi:type="inkscape:offset" />
        <path
           id="path23821"
           d="m 1412.6875,376.64343 c -17.5024,0.035 -34.5868,5.00555 -47.8437,17.65625 -14.3891,14.47096 -25.4927,36.46385 -30.7188,60.84375 -3.6776,24.80287 -3.9816,52.62422 7.5312,75.625 0.5519,0.3601 35.1465,0.55358 76.875,0.4375 l 75.875,-0.21875 5.6563,-18.625 c 3.8909,-17.50066 3.1103,-36.23648 0.375,-53.84375 -5.3848,-24.25207 -16.3961,-44.72571 -32,-59.4375 -10.5563,-9.95274 -22.0864,-16.62627 -35.2187,-20.375 -6.7788,-1.34512 -13.6825,-2.07621 -20.5313,-2.0625 z"
           style="fill:none;stroke:#204a87;stroke-width:5;stroke-miterlimit:4;stroke-opacity:1;stroke-dasharray:none" />
        <path
           id="path23823"
           d="m 1410.7216,391.07451 c 11.0198,-0.3069 27.9251,3.69484 28.5628,7.00549 0.1671,0.86695 -1.6754,2.69417 -4.7977,4.76629 -16.0715,12.89023 -18.4654,33.81641 -4.9577,49.96612 12.0116,13.02523 34.4364,13.34299 46.7304,0.63977 5.8566,-6.05165 6.6031,-5.33314 9.6596,9.08475 3.4035,16.05541 2.2282,47.16529 -1.9831,52.2373 -1.511,1.81989 -130.9092,1.88236 -132.4191,0.064 -3.9604,-4.76989 -6.1133,-37.6792 -3.4544,-52.97304 7.8041,-34.26785 22.0688,-66.39926 60.5482,-70.66271 0.6757,-0.0601 1.3763,-0.10749 2.111,-0.12795 z"
           style="fill:none;stroke:#204a87;stroke-width:5;stroke-miterlimit:4;stroke-opacity:1;stroke-dasharray:none" />
      </g>
    </g>
  </g>
</svg>
