<?xml version="1.0" encoding="UTF-8" standalone="no"?>
<!-- Created with Inkscape (http://www.inkscape.org/) -->

<svg
   xmlns:dc="http://purl.org/dc/elements/1.1/"
   xmlns:cc="http://creativecommons.org/ns#"
   xmlns:rdf="http://www.w3.org/1999/02/22-rdf-syntax-ns#"
   xmlns:svg="http://www.w3.org/2000/svg"
   xmlns="http://www.w3.org/2000/svg"
   xmlns:sodipodi="http://sodipodi.sourceforge.net/DTD/sodipodi-0.dtd"
   xmlns:inkscape="http://www.inkscape.org/namespaces/inkscape"
   width="3200"
   height="1000"
   id="svg27345"
   version="1.1"
   inkscape:version="0.48+devel r"
   sodipodi:docname="batman.svg">
  <sodipodi:namedview
     id="base"
     pagecolor="#ffffff"
     bordercolor="#666666"
     borderopacity="1.0"
     inkscape:pageopacity="0.0"
     inkscape:pageshadow="2"
     inkscape:zoom="0.65393657"
     inkscape:cx="1639.6342"
     inkscape:cy="448.94763"
     inkscape:document-units="px"
     inkscape:current-layer="layer1"
     showgrid="false"
     inkscape:window-width="1280"
     inkscape:window-height="973"
     inkscape:window-x="0"
     inkscape:window-y="24"
     inkscape:window-maximized="1" />
  <defs
     id="defs27347">
    <inkscape:path-effect
       back_thickness="0.25"
       front_thickness="1"
       stroke_width_bottom="1"
       stroke_width_top="1"
       fat_output="false"
       bottom_smth_variation="0;1"
       top_smth_variation="0;1"
       scale_tb="2"
       scale_tf="2"
       scale_bb="2"
       scale_bf="2"
       top_tgt_variation="0;1"
       bottom_tgt_variation="0;1"
       top_edge_variation="0;1"
       bottom_edge_variation="0;1"
       bender="1600,552.36218 , 5,0"
       do_bend="true"
       growth="0"
       dist_rdm="0;1"
       direction="1599.2354,540.48078 , 42.691137,-28.290205"
       is_visible="true"
       id="path-effect4240"
       effect="rough_hatches" />
    <inkscape:perspective
       sodipodi:type="inkscape:persp3d"
       inkscape:vp_x="0 : 526.18109 : 1"
       inkscape:vp_y="0 : 1000 : 0"
       inkscape:vp_z="744.09448 : 526.18109 : 1"
       inkscape:persp3d-origin="372.04724 : 350.78739 : 1"
       id="perspective27353" />
    <inkscape:perspective
       sodipodi:type="inkscape:persp3d"
       inkscape:vp_x="0 : 0.5 : 1"
       inkscape:vp_y="0 : 1000 : 0"
       inkscape:vp_z="1 : 0.5 : 1"
       inkscape:persp3d-origin="0.5 : 0.33333333 : 1"
       id="perspective3947" />
    <inkscape:perspective
       id="perspective3960"
       inkscape:persp3d-origin="372.04724 : 350.78739 : 1"
       inkscape:vp_z="744.09448 : 526.18109 : 1"
       inkscape:vp_y="0 : 1000 : 0"
       inkscape:vp_x="0 : 526.18109 : 1"
       sodipodi:type="inkscape:persp3d" />
  </defs>
  <metadata
     id="metadata27350">
    <rdf:RDF>
      <cc:Work
         rdf:about="">
        <dc:format>image/svg+xml</dc:format>
        <dc:type
           rdf:resource="http://purl.org/dc/dcmitype/StillImage" />
        <dc:title />
      </cc:Work>
    </rdf:RDF>
  </metadata>
  <g
     inkscape:label="Layer 1"
     inkscape:groupmode="layer"
     id="layer1"
     transform="translate(0,-52.36218)">
    <path
       inkscape:original-d="m 1599.4867,809.85585 c -8.8337,-31.06606 -35.5938,-74.29623 -59.2319,-95.68748 -27.8765,-25.22681 -52.3484,-28.5096 -71.7758,-9.62837 -8.3339,8.09966 -17.4734,23.85219 -22.0727,38.04395 l -2.3752,7.32909 -9.7904,-15.02984 c -11.847,-18.18725 -44.5822,-51.09519 -59.72,-60.03523 -36.0842,-21.3106 -67.167,-21.45699 -87.5899,-0.41253 -10.4862,10.80533 -14.3521,19.8698 -15.3941,36.09485 -1.2159,18.93417 4.086,35.69856 17.743,56.1022 6.5346,9.76279 9.5415,15.78945 7.8779,15.78945 -4.9475,0 -30.6476,-10.01978 -48.162,-18.77707 -37.7138,-18.85714 -76.9167,-51.48166 -102.2651,-85.10488 -16.7645,-22.23711 -34.1339,-57.55103 -40.2824,-81.89852 -6.5562,-25.96214 -8.0362,-54.37142 -4.0267,-77.29559 16.1719,-92.46192 93.8499,-161.97911 239.0934,-213.97423 23.7722,-8.51012 71.393,-23.49813 74.6597,-23.49813 0.6687,0 -2.2344,4.54826 -6.4514,10.10723 -20.9108,27.56557 -36.5935,88.24134 -33.9611,131.39396 3.4448,56.47122 27.6079,85.92957 70.5652,86.02951 19.8183,0.046 33.4291,-5.25568 44.8571,-17.47311 20.756,-22.18989 27.7971,-51.11845 33.0869,-135.93792 1.5848,-25.41246 3.4143,-50.6928 4.0655,-56.17854 l 1.1839,-9.97407 7.9769,11.86607 c 14.9075,22.17585 37.6138,34.07209 65.0333,34.07209 14.5915,0 31.9569,-4.89518 43.6861,-12.31475 8.3478,-5.28061 22.6026,-20.3372 25.709,-27.15505 4.8692,-10.68677 5.5663,-6.22703 9.329,59.68425 5.4927,96.21594 16.9004,130.94512 48.2688,146.94745 11.1115,5.6684 14.3286,6.40883 27.8456,6.40883 35.867,0 58.2501,-19.35665 69.3637,-59.98475 4.7503,-17.36589 4.739,-58.517 -0.022,-80.85782 -6.2152,-29.16412 -17.6495,-56.5482 -30.8116,-73.79146 -3.7747,-4.94535 -6.382,-8.99154 -5.7938,-8.99154 0.5881,0 13.3608,3.99432 28.3838,8.87628 170.2844,55.33705 252.3408,116.61906 277.0026,206.87323 3.9416,14.42527 4.4193,20.31372 4.284,52.81396 -0.1767,42.48101 -2.7903,55.4682 -17.0464,84.7082 -21.2686,43.62256 -54.9017,74.37191 -133.6537,122.19407 -19.4377,11.80353 -35.6922,21.10998 -36.1212,20.68099 -0.429,-0.42897 2.6783,-8.57114 6.9051,-18.09369 10.3714,-23.36572 14.2716,-39.28308 12.8822,-52.5758 -2.504,-23.95742 -13.093,-39.58905 -30.8021,-45.47109 -38.3319,-12.73183 -112.7361,26.59897 -131.4106,69.46498 l -5.2645,12.08437 -6.3027,-13.15141 c -16.985,-35.44177 -43.6964,-46.46847 -75.8707,-31.3201 -36.5326,17.20039 -71.3012,67.27018 -76.3108,109.89413 -0.6561,5.58187 -1.7341,10.14883 -2.3957,10.14883 -0.6616,0 -2.8657,-5.84775 -4.898,-12.995 z"
       inkscape:path-effect="#path-effect4240"
       style="fill:none;stroke:#000000;stroke-width:4;stroke-miterlimit:4;stroke-opacity:1;stroke-dasharray:none"
       d="m 2044.256,413.3167 c 0,0 9.5827,12.05328 20.4554,28.36763 10.8728,16.31435 23.0311,36.88977 28.2151,53.93408 5.184,17.0443 -11.4836,-8.05811 -32.3873,-39.44704 -20.9037,-31.38893 -46.0744,-69.06438 -57.635,-77.16614 -11.5606,-8.10175 12.7333,28.21211 39.8299,68.883 27.0967,40.6709 56.9722,85.69883 57.0117,95.02521 0.039,9.32638 -29.6606,-35.49856 -61.9267,-83.95612 -32.2661,-48.45756 -67.1233,-100.54774 -76.7512,-105.75182 -9.6278,-5.20409 25.312,46.96295 62.3427,102.56692 18.5153,27.80198 37.5573,56.4632 51.8976,79.24188 14.3403,22.77868 23.9844,39.67483 23.7394,43.94666 -0.49,8.54366 -39.5065,-50.44883 -80.8639,-112.58344 -20.6787,-31.06731 -41.9376,-62.92014 -59.1458,-87.50925 -17.2083,-24.58911 -30.3579,-41.91449 -34.7784,-43.92688 -4.4204,-2.0124 4.3157,13.30619 19.8097,37.62079 15.494,24.3146 37.7357,57.6252 60.3501,91.59682 22.6144,33.97162 45.6008,68.60425 62.6908,95.56291 17.09,26.95866 28.2923,46.24334 27.3847,49.51906 -0.9075,3.27573 -13.0091,-12.7283 -30.9596,-38.6818 -17.9505,-25.9535 -41.7626,-61.85648 -66.0649,-98.37867 -24.3023,-36.52218 -49.0955,-73.66358 -68.8805,-102.09391 -19.785,-28.43034 -34.5508,-48.14962 -38.7479,-49.82756 -4.1972,-1.67795 6.3597,16.34143 24.4222,44.48518 18.0625,28.14375 43.6175,66.41188 69.4513,105.23142 25.8339,38.81954 51.9461,78.19051 71.2627,108.53994 19.3166,30.34942 31.8495,51.67732 30.5814,54.41073 -1.2681,2.73341 -15.0626,-15.85853 -35.355,-45.37516 -20.2923,-29.51664 -47.0979,-69.95797 -74.3505,-110.92336 -27.2527,-40.96538 -54.953,-82.45482 -76.8749,-114.06766 -21.922,-31.61284 -38.0515,-53.34909 -42.1024,-54.80809 -4.051,-1.45901 8.0335,18.82263 28.2791,50.21834 20.2456,31.39571 48.6362,73.90547 77.2431,116.90271 28.6069,42.99724 57.4294,86.48195 78.7103,119.82753 21.281,33.34559 35.0352,56.55206 33.5722,58.99283 -1.4629,2.44076 -16.6744,-18.32343 -38.9898,-50.92411 -22.3153,-32.60069 -51.753,-77.03787 -81.6202,-121.9431 -29.8672,-44.90523 -60.1646,-90.27851 -84.008,-124.75139 -23.8434,-34.47287 -41.2158,-58.04535 -45.163,-59.34897 -3.9471,-1.30362 9.4799,20.96374 31.6549,55.23155 22.175,34.26782 53.079,80.53611 84.1413,127.23433 31.0623,46.69823 62.2824,93.8264 85.2927,129.81401 23.0104,35.9876 37.8286,60.83463 36.1634,62.97058 -1.6652,2.13595 -18.9684,-21.8275 -43.9107,-58.42313 -24.9424,-36.59562 -57.5472,-85.82343 -89.7364,-134.21618 -32.1893,-48.39276 -63.9615,-95.95047 -86.9967,-129.20591 -23.0352,-33.25545 -37.3071,-52.20862 -34.4627,-43.39231 2.8444,8.8163 19.9424,36.58372 43.7841,73.39383 23.8417,36.81011 54.4147,82.66292 84.2949,127.65001 29.8802,44.98709 59.0687,89.10847 80.3103,122.45572 21.2416,33.34726 34.5507,55.92039 32.7229,57.81099 -1.8278,1.89059 -16.6871,-18.37277 -37.9551,-49.44649 -21.2681,-31.07372 -48.9618,-72.95781 -76.4035,-114.30867 -27.4417,-41.35087 -54.6306,-82.1685 -74.7145,-111.10933 -20.0839,-28.94082 -33.0443,-46.00483 -31.9989,-39.84844 1.0454,6.15639 15.04,29.37496 35.2545,60.84664 20.2144,31.47167 46.639,71.19645 72.6055,110.36526 25.9665,39.1688 51.4757,77.78163 69.9902,107.0294 18.5145,29.24778 30.0457,49.1305 28.0973,50.8391 -1.9485,1.70859 -15.4811,-16.54947 -34.7467,-44.6157 -19.2655,-28.06622 -44.2776,-65.94062 -69.1412,-103.46471 -24.8636,-37.52408 -49.5783,-74.69786 -68.107,-101.36284 -18.5286,-26.66498 -30.8567,-42.82117 -30.918,-38.31009 -0.061,4.51109 12.1978,25.17698 30.4376,53.73696 18.2399,28.55998 42.4516,65.01405 66.3445,101.10148 23.893,36.08742 47.4677,71.80821 64.5463,98.90163 17.0787,27.09341 27.671,45.55946 25.6359,47.13741 -2.035,1.57796 -14.6454,-15.28717 -32.5147,-41.25707 -17.8693,-25.96989 -41.0091,-61.04455 -64.0663,-95.88567 -23.0573,-34.84112 -46.0316,-69.44869 -63.4486,-94.4844 -17.417,-25.0357 -29.2644,-40.49955 -30.0401,-37.05323 -0.7757,3.44633 10.2906,22.35553 27.1466,48.87357 16.8561,26.51803 39.4939,60.64491 61.9024,94.52659 22.4086,33.88168 44.5882,67.51816 60.6288,93.05542 16.0405,25.53726 25.9507,42.97529 23.8538,44.46006 -2.0969,1.48477 -14.1113,-14.48231 -31.0792,-39.10178 -16.968,-24.61947 -38.8998,-57.89133 -60.7994,-91.01611 -21.8996,-33.12477 -43.7667,-66.10246 -60.4962,-90.13361 -16.7296,-24.03114 -28.3108,-39.11573 -29.6117,-36.45431 -1.3008,2.66143 8.9756,20.40677 24.944,45.61634 15.9684,25.20957 37.6211,57.88338 59.1093,90.40175 21.4881,32.51837 42.812,64.8813 58.2166,89.46912 15.4045,24.58781 24.8977,41.40051 22.7564,42.81843 -2.1414,1.41791 -13.7732,-13.97516 -30.169,-37.74104 -16.3957,-23.76589 -37.565,-55.90459 -58.7519,-87.97794 -21.1869,-32.07335 -42.3914,-64.08135 -58.7563,-87.58583 -16.3648,-23.50447 -27.8802,-38.50543 -29.6619,-36.56471 -1.7817,1.94073 7.9493,18.88194 23.3706,43.28768 15.4214,24.40575 36.5254,56.27603 57.5232,88.0749 20.9977,31.79888 41.8893,63.52634 56.9764,87.64645 15.087,24.12011 24.3773,40.63287 22.2036,42.00233 -8.6947,5.47782 -33.839,-51.5313 -34.047,-33.14618 -0.208,18.38512 25.3485,38.61829 16.5591,43.95471 -8.7895,5.33643 -17.7988,-27.1363 -22.09,-14.94744 -4.2913,12.18886 13.3049,20.29067 4.4279,25.49635 -8.877,5.20568 -8.9692,-13.68845 -13.7656,-2.25563 -4.7963,11.43282 0.3634,9.93344 0.3634,9.93344 m -246.225,-482.4703 c 0,0 5.7819,-0.54977 7.2705,19.99004 1.4887,20.53981 -10.0795,-15.02384 -17.2238,-7.35823 -7.1443,7.66561 18.5751,27.69347 19.7782,47.84915 0.6016,10.07784 -6.0709,0.10539 -13.9721,-11.69227 -7.9012,-11.79767 -17.0357,-25.42054 -21.3176,-22.64356 -4.2818,2.77699 4.8141,16.34351 15.2507,31.93426 10.4366,15.59074 22.2114,33.20569 23.3303,44.07954 1.1189,10.87385 -10.6654,-6.77882 -24.0308,-26.76237 -13.3653,-19.98355 -28.3201,-42.29798 -33.4249,-40.74768 -5.1048,1.55031 9.4574,23.2759 26.2724,48.42707 16.815,25.15117 35.8748,53.7279 39.8922,68.98048 4.0174,15.25258 -14.9726,-13.27471 -36.5299,-45.55782 -21.5572,-32.28311 -45.7021,-68.32205 -51.6923,-68.09278 -2.9951,0.11463 9.843,21.55139 30.5731,53.72213 20.73,32.17074 49.3363,75.07546 77.9309,118.12602 28.5946,43.05056 57.1773,86.24696 78.0317,119.00104 20.8545,32.75409 33.9957,55.06586 31.7672,56.34719 -2.2285,1.28132 -17.5699,-19.7096 -39.6433,-51.99077 -22.0734,-32.28117 -50.8957,-75.85259 -80.0356,-119.73228 -29.1399,-43.87969 -58.5979,-88.06765 -81.7614,-121.58188 -23.1636,-33.51424 -40.0167,-56.35476 -43.8827,-57.53958 -3.866,-1.18481 9.1232,20.47031 30.5754,53.71563 21.4523,33.24532 51.3498,78.08084 81.3538,123.25684 30.0041,45.176 60.1143,90.69247 82.1828,125.29968 22.0686,34.60721 36.1124,58.30517 34.0528,59.84414 -2.0595,1.53896 -18.4439,-21.05293 -42.2588,-55.98598 -23.815,-34.93306 -55.0803,-82.20727 -86.8456,-130.03292 -31.7653,-47.82566 -64.0315,-96.20277 -89.6359,-133.34161 -25.6044,-37.13885 -44.529,-63.03944 -49.5285,-65.91206 -4.9994,-2.87263 8.93,20.15258 32.4287,56.4217 23.4986,36.26912 56.5434,85.78214 89.8332,135.88515 33.2898,50.103 66.8235,100.79599 91.5376,139.42503 24.7142,38.62904 40.6297,65.19413 38.7721,67.04135 -1.8576,1.84722 -19.0593,-22.00578 -43.9334,-58.56499 -24.8742,-36.55921 -57.4433,-85.82462 -89.9634,-134.80223 -32.5202,-48.9776 -64.9907,-97.6674 -89.4299,-133.07536 -24.4391,-35.40797 -40.8232,-57.53411 -41.1134,-53.3844 -0.2902,4.14971 15.7897,30.41651 39.8805,67.62797 24.0907,37.21146 56.1757,85.36759 87.9754,133.29595 31.7998,47.92837 63.3147,95.62898 86.4679,131.92941 23.1532,36.30043 37.962,61.20068 36.4189,63.52833 -1.5431,2.32764 -17.8889,-20.24171 -41.6465,-55.14367 -23.7576,-34.90196 -54.9481,-82.13652 -86.1157,-129.13926 -31.1677,-47.00275 -62.3122,-93.7737 -85.7572,-127.74843 -23.4451,-33.97473 -39.1687,-55.15325 -39.4419,-50.97115 -0.2732,4.1821 16.2159,31.10583 40.4189,68.55103 24.203,37.4452 56.1024,85.41187 86.7488,131.67986 30.6465,46.26799 60.0428,90.8373 79.4495,121.48777 19.4067,30.65047 28.847,47.3821 19.5952,37.97474 -9.2518,-9.40736 -27.959,-35.54303 -50.9181,-69.20234 -22.959,-33.65932 -50.1793,-74.84229 -76.3767,-114.34426 -26.1973,-39.50197 -51.3696,-77.32294 -70.0968,-104.25827 -18.7272,-26.93532 -30.9956,-42.98499 -31.3681,-38.94436 -0.3724,4.04063 12.0819,24.97574 30.7212,54.10546 18.6392,29.12971 43.4538,66.45403 67.854,103.27307 24.4002,36.81905 48.3868,73.13281 65.491,100.24143 17.1042,27.10861 27.3371,45.01207 24.2641,45.0105 -3.0729,-0.002 -16.3752,-17.90066 -34.6883,-44.51372 -18.313,-26.61307 -41.6477,-61.94011 -64.7433,-96.79762 -23.0956,-34.8575 -45.9516,-69.24546 -63.1876,-93.98035 -17.2361,-24.73489 -28.8401,-39.81671 -29.4075,-36.06193 -0.5674,3.75478 10.483,22.61999 27.1776,48.86587 16.6946,26.24587 39.0256,59.87241 61.0607,93.14983 22.0351,33.27743 43.7746,66.20575 59.3837,91.05519 15.6091,24.84944 25.0962,41.62001 22.6569,42.58192 -2.4394,0.96191 -14.3593,-14.83811 -30.9673,-38.87731 -16.608,-24.03921 -37.9137,-56.31761 -59.0925,-88.31246 -21.1788,-31.99485 -42.2302,-63.70614 -58.2278,-86.61115 -15.9975,-22.905 -26.931,-37.00372 -27.8513,-33.77339 -0.9203,3.23032 9.0926,20.56533 24.4571,44.84199 15.3644,24.27665 36.0735,55.49493 56.5801,86.49179 20.5065,30.99686 40.8107,61.7723 55.4494,85.16325 14.6387,23.39094 23.619,39.3974 21.506,40.85632 -2.113,1.45891 -13.2028,-13.08564 -28.7745,-35.56731 -15.5717,-22.48167 -35.6339,-52.90047 -55.665,-83.19005 -20.0311,-30.28958 -40.031,-60.44995 -55.3866,-82.41477 -15.3556,-21.96482 -26.058,-35.73409 -27.4716,-33.24148 -1.4137,2.49261 7.8738,18.75715 22.446,41.86528 14.5722,23.10813 34.4225,53.05985 54.1648,82.92682 19.7423,29.86697 39.3767,59.64919 53.5952,82.41832 14.2185,22.76913 23.0277,38.52517 21.1477,40.33978 -1.8801,1.81461 -12.5704,-12.13146 -27.6989,-33.9569 -15.1286,-21.82544 -34.7039,-51.53026 -54.33,-81.23312 -19.6262,-29.70286 -39.3032,-59.40378 -54.5478,-81.22142 -15.2445,-21.81765 -26.048,-35.75203 -27.9034,-33.92183 -1.8554,1.83021 7.091,17.59531 21.4137,40.34608 14.3227,22.75078 34.0152,52.48723 53.68,82.26013 19.6649,29.77291 39.3021,59.58227 53.5927,82.47887 14.2905,22.89659 23.241,38.88042 21.5616,41.00227 -1.6794,2.12184 -12.3029,-11.73427 -27.4794,-33.65078 -15.1764,-21.91652 -34.9145,-51.89342 -54.8004,-82.01316 -19.8859,-30.11974 -39.9197,-60.38231 -55.5984,-82.87015 -15.6788,-22.48783 -26.994,-37.20093 -29.4155,-36.22174 -2.4214,0.9792 6.4705,16.6702 21.0417,39.80845 14.5713,23.13825 34.8144,53.72374 55.1229,84.49194 20.3085,30.7682 40.6823,61.7191 55.5993,85.58815 14.917,23.86906 24.3842,40.65626 22.9126,43.09706 -1.4716,2.44081 -12.4109,-11.91108 -28.2159,-34.80394 -15.8049,-22.89286 -36.4852,-54.32671 -57.4156,-86.04983 -20.9303,-31.72312 -42.111,-63.73552 -58.8189,-87.7855 -16.7078,-24.04998 -28.9339,-40.13753 -31.9217,-40.01096 -2.9879,0.12658 6.2473,16.33595 21.6644,40.75695 15.4172,24.42099 37.0076,57.0536 58.7593,90.02662 21.7516,32.97303 43.6641,66.28648 59.8234,92.06916 16.1592,25.78268 26.5732,44.03459 25.3679,46.88454 -1.2054,2.84995 -12.7821,-12.49287 -29.7555,-37.18861 -16.9734,-24.69575 -39.3548,-58.74443 -62.1445,-93.30619 -22.7897,-34.56177 -45.9884,-69.63663 -64.4819,-96.38475 -18.4936,-26.74811 -32.2719,-45.16948 -36.1773,-46.42427 -3.9055,-1.25478 5.9568,15.89248 22.8538,42.54384 16.897,26.65137 40.8172,62.80684 65.0583,99.56847 24.2412,36.76164 48.8026,74.12943 67.1052,103.20545 18.3027,29.07601 30.3566,49.86024 29.6357,53.45475 -2.8835,14.37805 -17.5967,-17.50238 -17.5967,-17.50238 m 203.7794,-287.19692 c 0,0 29.6231,42.27071 57.3023,84.10749 27.6791,41.83677 53.4169,83.23961 46.1296,81.50387 -7.2874,-1.73574 -34.0519,-42.35554 -60.3785,-82.14657 -26.3265,-39.79102 -52.2107,-78.75327 -57.3054,-77.17392 -5.0948,1.57936 20.9484,40.78941 46.7654,79.81548 25.8169,39.02607 51.4086,77.86815 45.8205,78.71158 -5.5882,0.84343 -31.1861,-38.01163 -57.0138,-77.05715 -25.8276,-39.04552 -51.8858,-78.28148 -57.9755,-78.19986 -6.0896,0.0816 19.9906,39.3497 46.2359,79.02829 26.2452,39.67859 52.6533,79.7677 47.6448,81.49139 -5.0084,1.7237 -30.8932,-37.58258 -58.1107,-78.73698 -27.2176,-41.1544 -55.7778,-84.15692 -65.6881,-89.82571 -9.9103,-5.66878 17.5246,37.9193 47.2996,82.92458 29.7749,45.00528 61.8806,91.42775 61.8806,91.42775 M 1415.6184,281.93648 c 0,0 3.5322,-3.88859 -2.6272,5.23445 -6.1594,9.12303 -2.6812,-3.9912 -12.8994,-0.91062 -10.2182,3.08058 6.4068,9.53701 0.9821,19.76358 -5.4247,10.22657 -11.191,-16.66912 -21.3085,-13.43751 -10.1174,3.2316 15.9165,23.71194 11.5732,35.56317 -4.3434,11.85123 -21.6927,-32.33472 -31.7314,-28.98464 -10.0387,3.35009 27.3836,40.82834 24.0159,54.15216 -1.6839,6.66192 -10.1874,-6.04388 -19.5199,-19.96975 -9.3325,-13.92587 -19.497,-29.07181 -24.4452,-27.29019 -4.9482,1.78162 5.2021,16.90702 16.3033,33.47736 11.1012,16.57035 23.1509,34.58563 22.0619,42.14702 -1.089,7.56139 -13.1278,-10.45409 -26.1383,-29.88653 -13.0105,-19.43243 -26.9974,-40.28182 -31.8709,-38.38826 -4.8736,1.89357 9.0371,22.62989 24.1629,45.22968 15.1259,22.59979 31.4626,47.06306 31.5569,56.41051 0.094,9.34746 -16.2241,-15.11653 -33.8111,-41.41374 -17.5871,-26.29722 -36.4506,-54.42766 -41.2436,-52.41313 -4.7929,2.01454 14.7917,33.51521 35.5091,64.51224 20.7173,30.99704 42.5694,61.49044 42.5694,61.49044 m -92.3708,-119.82903 c 0,0 17.405,25.37099 42.9888,63.08373 25.5837,37.71275 59.3243,87.76724 92.0802,137.13426 32.7559,49.36701 64.5282,98.04654 86.4158,133.00935 21.8876,34.96281 33.9147,56.2089 27.2281,50.70903 -6.6867,-5.49986 -25.7104,-32.11607 -50.7258,-68.87734 -25.0155,-36.76127 -56.0379,-83.6676 -86.6363,-129.7477 -30.5985,-46.0801 -60.7716,-91.33398 -83.8982,-124.79034 -23.1265,-33.45637 -39.1888,-55.11522 -41.5169,-54.00528 -2.3281,1.10994 11.595,24.16393 33.5066,58.10779 21.9116,33.94385 51.7954,78.77757 81.4528,123.44695 29.6575,44.66938 59.0889,89.17442 80.2816,122.46093 21.1927,33.28651 34.1637,55.35449 30.9571,55.14973 -3.2066,-0.20475 -19.3849,-22.47774 -42.0704,-55.69782 -22.6855,-33.22007 -51.8947,-77.38722 -81.1024,-121.38028 -29.2076,-43.99307 -58.4133,-87.81205 -80.908,-120.33579 -22.4947,-32.52373 -38.2611,-53.75222 -40.5373,-52.56429 -2.2763,1.18793 11.235,23.63881 32.5678,56.72954 21.3328,33.09073 50.4716,76.82129 79.5095,120.56858 29.0379,43.7473 57.9748,87.51131 79.0789,120.66892 21.1041,33.15762 34.3909,55.70883 32.1883,57.03053 -2.2027,1.3217 -17.6901,-19.90813 -39.8968,-52.41664 -22.2068,-32.5085 -51.1504,-76.29569 -80.2109,-120.08868 -29.0604,-43.793 -58.2377,-87.59182 -80.7269,-120.1236 -22.4891,-32.53178 -38.2728,-53.79652 -40.491,-52.52136 -2.2182,1.27515 11.352,23.82526 32.7767,57.07089 21.4246,33.24563 50.6883,77.18679 79.9156,121.24403 29.2272,44.05724 58.4179,88.23057 79.8724,121.94056 21.4545,33.70999 35.188,56.95664 33.5645,59.1605 -1.6235,2.20387 -16.9769,-18.83929 -39.3053,-51.55786 -22.3284,-32.71856 -51.6503,-77.11255 -81.1578,-121.61034 -29.5074,-44.49778 -59.2006,-89.09938 -82.0787,-122.23317 -22.8781,-33.13379 -38.923,-54.79978 -41.0759,-53.42636 -2.1529,1.37342 11.7368,24.4128 33.6248,58.37314 21.8879,33.96034 51.7581,78.84163 81.6263,123.89888 29.8683,45.05725 59.7344,90.29045 81.7971,124.9546 22.0628,34.66414 36.3376,58.75924 35.0915,61.54027 -1.2461,2.78104 -16.7623,-18.53348 -39.5459,-51.97677 -22.7837,-33.4433 -52.8547,-79.01537 -83.1564,-124.74944 -30.3016,-45.73407 -60.8342,-91.63014 -84.3362,-125.72143 -23.502,-34.0913 -39.9542,-56.37781 -42.033,-54.89277 -2.0788,1.48504 12.5154,25.59156 34.8642,60.26629 22.3487,34.67474 52.4346,79.91768 81.422,123.67557 28.9873,43.75789 56.8785,86.03071 75.033,114.76521 18.1544,28.73449 26.5944,43.93066 16.6888,33.53522 -9.9057,-10.39543 -28.2696,-35.98761 -50.4389,-68.42761 -22.1692,-32.44001 -48.1517,-71.72785 -73.2218,-109.51464 -25.07,-37.78678 -49.226,-74.0725 -67.6238,-100.50827 -18.3979,-26.43576 -31.0264,-43.02156 -33.0203,-41.40851 -1.9939,1.61305 9.0053,20.3614 26.3042,47.46087 17.299,27.09947 40.8876,62.55006 64.1166,97.56757 23.229,35.01751 46.099,69.60195 62.0761,94.96913 15.9772,25.36717 25.0726,41.51709 20.7809,39.66556 -4.2916,-1.85153 -17.6819,-19.8537 -35.5201,-45.70536 -17.8382,-25.85167 -40.1334,-59.55284 -62.194,-92.80237 -22.0606,-33.24953 -43.8863,-66.04743 -60.6819,-90.09256 -16.7956,-24.04513 -28.5513,-39.33749 -30.4468,-37.57595 -1.8955,1.76155 7.98,18.84189 23.6158,43.45878 15.6358,24.61689 37.0241,56.77033 58.1896,88.67807 21.1655,31.90773 42.1085,63.56977 56.9474,87.20386 14.8389,23.63408 23.5822,39.24021 20.3758,39.03614 -3.2064,-0.20407 -15.1572,-16.0152 -31.4312,-39.49609 -16.2741,-23.48089 -36.8798,-54.63155 -57.3643,-85.51468 -20.4845,-30.88313 -40.8477,-61.49873 -56.5448,-83.90952 -15.6972,-22.41078 -26.7194,-36.61675 -28.4992,-34.6806 -1.7799,1.93614 7.4667,18.08813 22.1453,41.28348 14.6786,23.19534 34.7823,53.43404 54.7473,83.54361 19.965,30.10956 39.7915,60.08999 53.9973,82.76879 14.2057,22.67881 22.7978,38.05599 20.3209,38.95905 -2.4768,0.90306 -13.5457,-13.57228 -28.8941,-35.65921 -15.3484,-22.08692 -34.9844,-51.78544 -54.5692,-81.32872 -19.5847,-29.54328 -39.118,-58.93134 -54.1752,-80.39735 -15.0571,-21.46601 -25.6297,-35.00997 -27.2714,-32.86507 -1.6417,2.1449 7.2899,17.83871 21.4577,40.28467 14.1679,22.44596 33.5656,51.64407 52.8841,80.79757 19.3186,29.1535 38.5581,58.26238 52.4844,80.52989 13.9263,22.26751 22.5458,37.69365 20.6514,39.48165 -1.8944,1.78801 -12.4075,-11.85181 -27.237,-33.1673 -14.8294,-21.31549 -33.9833,-50.30666 -53.1361,-79.22136 -19.1528,-28.9147 -38.3044,-57.75294 -53.0455,-78.76257 -14.7411,-21.00963 -25.0634,-34.19065 -26.5367,-31.79093 -1.4732,2.39972 7.3479,17.94265 21.3005,40.0857 13.9527,22.14305 33.031,50.88623 52.0989,79.68645 19.0679,28.80021 38.1253,57.65747 52.1076,80.02867 13.9822,22.37121 22.8951,38.25637 21.7023,41.1124 -1.1928,2.85603 -11.2969,-10.17551 -25.8933,-31.15939 -14.5963,-20.98387 -33.6936,-49.92008 -52.8518,-78.87339 -19.1583,-28.95331 -38.3776,-57.92373 -53.1326,-78.97602 -14.755,-21.05228 -25.037,-34.18645 -26.2994,-31.46725 -1.2624,2.7192 7.6969,18.48616 21.8496,40.95474 14.1527,22.46858 33.4931,51.63878 53.0183,81.16445 19.5252,29.52567 39.2349,59.40682 54.1976,83.2973 14.9628,23.89047 25.1836,41.79028 25.7656,47.35327 0.5821,5.56298 -9.0524,-6.77749 -23.9262,-28.22149 -14.8737,-21.444 -34.9977,-51.99153 -55.3788,-82.84266 -20.3811,-30.85112 -41.0196,-62.00583 -56.8219,-84.6642 -15.8022,-22.65837 -26.758,-36.8204 -27.7466,-33.68615 -0.9887,3.13426 10.5856,22.85231 28.1978,50.57751 17.6122,27.7252 41.2531,63.45754 64.4455,98.62039 23.1925,35.16285 45.9372,69.7562 61.8708,95.2034 15.9335,25.4472 25.0665,41.74824 21.0634,40.32649 -4.0031,-1.42175 -17.1484,-19.15502 -34.7001,-44.72166 -17.5517,-25.56664 -39.5189,-58.96664 -61.1243,-91.72185 -21.6055,-32.7552 -42.8485,-64.86561 -58.8481,-87.85305 -15.9996,-22.98745 -26.7452,-36.85194 -27.337,-33.11531 -0.5918,3.73663 9.5632,21.34702 24.8019,45.51979 15.2388,24.17277 35.555,54.90793 55.3243,84.89411 39.5387,59.97238 76.8689,116.94886 67.7688,112.43857 -4.55,-2.25515 -16.1708,-17.64548 -31.0631,-39.15095 -14.8923,-21.50547 -33.0619,-49.12607 -50.6774,-75.84177 -35.2309,-53.43139 -68.2557,-103.24315 -67.795,-93.27491 0.4607,9.96824 33.5806,59.99615 63.4677,105.35128 29.887,45.35513 56.5697,86.03748 44.7009,77.3146 -11.8687,-8.72289 -39.3767,-50.60073 -62.4055,-85.53333 -23.0289,-34.9326 -41.5406,-62.91995 -35.092,-43.86183 6.4485,19.05812 20.0777,42.04722 32.0818,60.2718 12.0041,18.22458 22.3887,31.68463 22.3887,31.68463"
       id="path4238"
       inkscape:connector-curvature="0" />
  </g>
  <eggbot
     serialport="/dev/ttyACM0"
     layer="12345"
     node="0"
     id="eggbot4432" />
</svg>
