<?xml version="1.0" encoding="UTF-8" standalone="no"?>
<!-- Generator: Adobe Illustrator 12.0.1, SVG Export Plug-In  -->

<svg
   xmlns:dc="http://purl.org/dc/elements/1.1/"
   xmlns:cc="http://creativecommons.org/ns#"
   xmlns:rdf="http://www.w3.org/1999/02/22-rdf-syntax-ns#"
   xmlns:svg="http://www.w3.org/2000/svg"
   xmlns="http://www.w3.org/2000/svg"
   xmlns:sodipodi="http://sodipodi.sourceforge.net/DTD/sodipodi-0.dtd"
   xmlns:inkscape="http://www.inkscape.org/namespaces/inkscape"
   sodipodi:docname="International_Biohazard_Warning_Symbol.svg"
   inkscape:version="0.48+devel r"
   sodipodi:version="0.32"
   id="svg2"
   xml:space="preserve"
   enable-background="new 0.001 0 331 314"
   viewBox="0.001 0 3200 1000"
   height="1000"
   width="3200"
   version="1.0"><sodipodi:namedview
   inkscape:window-height="825"
   inkscape:window-width="1440"
   inkscape:pageshadow="2"
   inkscape:pageopacity="0.0"
   borderopacity="1.0"
   bordercolor="#666666"
   pagecolor="#ffffff"
   id="base"
   inkscape:zoom="0.4046875"
   inkscape:cx="1600"
   inkscape:cy="500"
   inkscape:window-x="0"
   inkscape:window-y="24"
   inkscape:current-layer="svg2"
   showgrid="false"
   inkscape:window-maximized="1" /><metadata
   id="metadata9"><rdf:RDF><cc:Work
       rdf:about=""><dc:format>image/svg+xml</dc:format><dc:type
         rdf:resource="http://purl.org/dc/dcmitype/StillImage" /></cc:Work></rdf:RDF></metadata>
<defs
   id="defs4"><inkscape:path-effect
     back_thickness="0.25"
     front_thickness="1"
     stroke_width_bottom="1"
     stroke_width_top="1"
     fat_output="false"
     bottom_smth_variation="0;1"
     top_smth_variation="0;1"
     scale_tb="2"
     scale_tf="2"
     scale_bb="2"
     scale_bf="2"
     top_tgt_variation="0;1"
     bottom_tgt_variation="0;1"
     top_edge_variation="0;1"
     bottom_edge_variation="0;1"
     bender="1600.1726,507.3314 , 5,0"
     do_bend="true"
     growth="0"
     dist_rdm="0;1"
     direction="1600.1726,502.3314 , 107.55586,0"
     is_visible="true"
     id="path-effect4328"
     effect="rough_hatches" /><inkscape:path-effect
     back_thickness="0.25"
     front_thickness="1"
     stroke_width_bottom="1"
     stroke_width_top="1"
     fat_output="false"
     bottom_smth_variation="0;1"
     top_smth_variation="0;1"
     scale_tb="2"
     scale_tf="2"
     scale_bb="2"
     scale_bf="2"
     top_tgt_variation="0;1"
     bottom_tgt_variation="0;1"
     top_edge_variation="0;1"
     bottom_edge_variation="0;1"
     bender="1231.691,-36.4996 , 5,0"
     do_bend="true"
     growth="0"
     dist_rdm="0;1"
     direction="1231.691,-41.4996 , 89.255033,2.9090909"
     is_visible="true"
     id="path-effect4326"
     effect="rough_hatches" /><inkscape:path-effect
     back_thickness="0.25"
     front_thickness="1"
     stroke_width_bottom="1"
     stroke_width_top="1"
     fat_output="false"
     bottom_smth_variation="0;1"
     top_smth_variation="0;1"
     scale_tb="2"
     scale_tf="2"
     scale_bb="2"
     scale_bf="2"
     top_tgt_variation="0;1"
     bottom_tgt_variation="0;1"
     top_edge_variation="0;1"
     bottom_edge_variation="0;1"
     bender="1967.5222,-38.18621 , 5,0"
     do_bend="true"
     growth="0"
     dist_rdm="0;1"
     direction="1967.5222,-43.18621 , 95.467655,-8.7272727"
     is_visible="true"
     id="path-effect4324"
     effect="rough_hatches" /><inkscape:path-effect
     back_thickness="0.25"
     front_thickness="1"
     stroke_width_bottom="1"
     stroke_width_top="1"
     fat_output="false"
     bottom_smth_variation="0;1"
     top_smth_variation="0;1"
     scale_tb="2"
     scale_tf="2"
     scale_bb="2"
     scale_bf="2"
     top_tgt_variation="0;1"
     bottom_tgt_variation="0;1"
     top_edge_variation="0;1"
     bottom_edge_variation="0;1"
     bender="1344.2041,340.1896 , 5,0"
     do_bend="true"
     growth="0"
     dist_rdm="0;1"
     direction="1344.2041,335.1896 , 69.810506,0"
     is_visible="true"
     id="path-effect4322"
     effect="rough_hatches" /><inkscape:path-effect
     back_thickness="0.25"
     front_thickness="1"
     stroke_width_bottom="1"
     stroke_width_top="1"
     fat_output="false"
     bottom_smth_variation="0;1"
     top_smth_variation="0;1"
     scale_tb="2"
     scale_tf="2"
     scale_bb="2"
     scale_bf="2"
     top_tgt_variation="0;1"
     bottom_tgt_variation="0;1"
     top_edge_variation="0;1"
     bottom_edge_variation="0;1"
     bender="1855.3159,337.6989 , 5,0"
     do_bend="true"
     growth="0"
     dist_rdm="0;1"
     direction="1855.3159,332.6989 , 69.287536,0"
     is_visible="true"
     id="path-effect4320"
     effect="rough_hatches" /><inkscape:path-effect
     back_thickness="0.25"
     front_thickness="1"
     stroke_width_bottom="1"
     stroke_width_top="1"
     fat_output="false"
     bottom_smth_variation="0;1"
     top_smth_variation="0;1"
     scale_tb="2"
     scale_tf="2"
     scale_bb="2"
     scale_bf="2"
     top_tgt_variation="0;1"
     bottom_tgt_variation="0;1"
     top_edge_variation="0;1"
     bottom_edge_variation="0;1"
     bender="1599.2165,-133.3231 , 5,0"
     do_bend="true"
     growth="0"
     dist_rdm="0;1"
     direction="1599.2165,-138.3231 , 1.3109636,-66.909091"
     is_visible="true"
     id="path-effect4318"
     effect="rough_hatches" /></defs>

<g
   transform="matrix(0.51822578,0,0,0.51822578,771.0716,448.17746)"
   id="g6422"><path
     style="fill:none;stroke:#000000;stroke-width:7.71864319;stroke-miterlimit:4;stroke-opacity:1;stroke-dasharray:none"
     d="m 2105.9985,-26.10126 c -17.3536,-10.02356 -35.4041,-18.84865 -53.9816,-26.38811 -10.1142,-4.10094 -20.394,-7.82709 -30.787,-11.15665 2.3173,-10.67291 4.2383,-21.43734 5.741,-32.25406 5.1486,-36.97821 5.5058,-74.62755 1.0803,-111.70164 -7.4877,-62.73874 -28.9183,-123.53815 -62.4102,-177.10316 -66.583,-106.48939 -178.7628,-180.35864 -303.0561,-198.64074 0,9.91897 0,19.84665 0,29.76997 0,5.53474 0,11.06949 0,16.60423 0,5.99235 19.9932,7.95348 25.5643,9.77079 42.7175,13.95889 81.9852,38.15489 113.6869,70.0298 61.0337,61.37467 91.5854,148.61883 81.7151,234.66452 -8.8728,78.24039 -50.6843,150.34463 -113.7957,197.34639 -38.6579,28.78504 -84.4375,47.52037 -132.2078,53.9398 -3.0186,0.40531 -23.8699,1.5079 -23.8699,3.11602 0,3.94405 0,7.88375 0,11.82344 0,14.7477 0,29.49541 0,44.24311 0,4.55418 0,9.11272 0,13.6669 0,4.39293 10.4583,4.66313 14.2261,6.15359 19.5663,7.76172 35.4825,23.52049 43.4362,43.03156 3.7852,9.2914 5.7192,19.29753 5.7192,29.32544 0,3.32085 -4.4081,25.69956 -3.624,26.15716 10.2274,5.9008 20.4505,11.8103 30.678,17.7155 9.9008,5.7222 19.8059,11.4443 29.7067,17.1621 1.9427,1.1287 32.8995,-39.1137 38.1134,-44.40873 31.6581,-32.21048 71.1131,-56.82049 114.0527,-70.83604 161.4136,-52.70647 335.5156,48.65783 370.3535,214.90067 9.0688,44.6571 7.3439,91.332 -5.1486,135.1742 -2.9968,10.4855 5.8194,10.8908 14.8011,16.0813 8.594,4.9638 17.175,9.9233 25.769,14.8871 77.943,-196.6316 -2.8269,-427.40439 -185.7626,-533.07446"
     id="path4185"
     inkscape:connector-curvature="0" /><path
     style="fill:none;stroke:#000000;stroke-width:7.71864319;stroke-miterlimit:4;stroke-opacity:1;stroke-dasharray:none"
     d="m 2130.6307,638.6 c -74.8591,45.5898 -164.393,58.786 -248.1292,29.8092 -83.7145,-28.8417 -150.3454,-96.5443 -178.2052,-180.5809 -15.6287,-47.1805 -18.791,-98.366 -8.9425,-147.0848 5.1703,-25.5209 13.8732,-50.3052 25.7428,-73.4727 -2.0559,-4.9726 -20.6814,-11.9498 -25.2158,-14.569 -11.0159,-6.3715 -22.0491,-12.7387 -33.065,-19.1058 -5.092,-2.9417 -3.5413,-3.5605 -8.3719,1.3249 -9.0514,9.1475 -20.3417,16.0071 -32.6512,19.7507 -21.8488,6.6417 -46.0584,3.1727 -65.15,-9.3698 -2.5133,-1.6517 -16.0686,-14.5734 -17.1837,-13.9328 -4.2556,2.458 -8.5069,4.9203 -12.7625,7.3739 -11.8871,6.8639 -23.7784,13.7323 -35.6655,20.6049 -3.9333,2.2706 -7.8709,4.5455 -11.8042,6.816 -4.0292,2.3229 5.2836,15.1705 6.9431,18.9141 21.6049,48.6404 29.1405,102.9942 21.7182,155.6963 -11.0812,78.6718 -55.4453,151.3688 -121.1702,196.1915 -70.8822,48.3354 -160.5119,63.0264 -243.0067,38.7694 -41.4892,-12.2418 -80.0295,-33.8142 -112.0012,-62.9741 -2.6962,-2.4579 -15.9597,-17.8811 -18.3249,-16.5083 -4.2426,2.4492 -8.4808,4.8984 -12.719,7.3477 -9.56103,5.5304 -19.13076,11.0433 -28.69614,16.5693 109.12634,137.9198 297.53284,196.3571 465.51064,144.4264 45.0566,-13.9284 87.7915,-35.3221 126.0182,-62.9523 10.0924,-7.2954 19.8756,-15.0222 29.3016,-23.1588 6.3987,-5.526 6.6731,-10.3416 13.9212,-4.0617 4.7478,4.114 9.5871,8.1322 14.5136,12.0457 21.0037,16.6696 43.5668,31.3781 67.2756,43.9119 77.5292,40.9833 166.7886,57.4481 253.8178,46.7534 111.8923,-13.7454 216.0399,-71.8297 286.0466,-160.3116 -12.1396,-7.0077 -24.2706,-14.0199 -36.4103,-21.0276 -9.6481,-5.5696 -10.981,1.9742 -18.8955,9.5006 -13.0457,12.3943 -27.2805,23.564 -42.4387,33.3043"
     id="path4183"
     inkscape:connector-curvature="0" /><path
     style="fill:none;stroke:#000000;stroke-width:7.71864319;stroke-miterlimit:4;stroke-opacity:1;stroke-dasharray:none"
     d="M 976.08621,258.8772 C 1066.4912,99.80332 1289.7051,67.70179 1421.9826,193.77634 c 4.0596,3.87432 42.2732,47.60756 40.8881,48.40506 9.4042,-5.4345 18.804,-10.8647 28.217,-16.2948 10.5498,-6.0882 21.0995,-12.1895 31.6537,-18.2778 5.8237,-3.3644 0.8712,-8.15826 -0.2004,-14.25955 -2.2258,-12.62533 -1.2152,-25.78669 2.8531,-37.94134 6.1722,-18.4172 19.3355,-34.12368 36.3406,-43.48045 2.069,-1.14181 23.0118,-8.8338 23.0118,-8.49823 0,-4.17503 0,-8.35006 0,-12.52073 0,-13.71048 0,-27.40789 0,-41.11837 0,-5.10766 0,-10.21095 0,-15.31861 0,-7.46973 -12.0657,-4.32756 -18.0593,-5.00742 -157.1666,-17.82885 -271.032,-165.13155 -251.2828,-321.34649 8.9077,-70.41766 45.0653,-136.12861 99.1995,-181.89268 33.1651,-28.03545 72.6419,-48.36148 114.7627,-58.92544 10.7458,-2.69764 6.4727,-13.98068 6.4727,-24.33981 0,-8.76843 0,-17.53251 0,-26.29658 -164.9896,24.26572 -304.7374,146.26547 -351.3664,306.42883 -12.0874,41.53674 -17.8153,84.86465 -17.1184,128.10976 0.4443,27.63015 3.5152,55.21236 9.1952,82.25853 2.1169,10.08893 -2.2215,7.72686 -10.7633,10.77751 -6.1068,2.17467 -12.1658,4.48881 -18.1724,6.93368 -14.2043,5.79187 -28.0994,12.34205 -41.6112,19.60259 -76.083,40.90047 -138.94185,104.3583 -178.78452,181.05157 -57.28336,110.29833 -64.45304,242.89693 -18.62112,358.51213 12.13531,-7.0078 24.27062,-14.0243 36.41029,-21.0277 8.79004,-5.0728 5.30103,-5.2776 2.4349,-16.3166 -4.94821,-19.0361 -7.91017,-38.5863 -8.82925,-58.2238 -3.35398,-53.7437 10.81986,-109.3178 37.47311,-155.8924"
     id="path4181"
     inkscape:connector-curvature="0" /><path
     style="fill:none;stroke:#000000;stroke-width:7.71864319;stroke-miterlimit:4;stroke-opacity:1;stroke-dasharray:none"
     d="m 1716.7408,440.748 c 4.125,25.5078 12.0047,50.388 23.2862,73.6209 3.868,7.9404 11.6126,30.2363 20.6902,26.1572 9.4521,-4.2535 18.7431,-8.8688 27.8336,-13.85 37.5603,-20.5919 71.7099,-47.3199 100.7632,-78.807 58.0456,-62.9218 94.5474,-144.191 102.7494,-229.4435 2.265,-23.54232 2.4262,-47.28943 0.4748,-70.86657 -0.71,-8.59411 2.0864,-12.83016 -7.7621,-13.08728 -6.4771,-0.17433 -12.9716,-0.1046 -19.4487,0.19611 -12.8976,0.60577 -25.7516,2.15724 -38.414,4.63263 -12.6493,2.47102 -25.1287,5.87031 -37.2814,10.1543 -9.3912,3.31648 -5.4492,7.50459 -4.9918,16.36454 0.3267,6.61555 0.4356,13.22238 0.3005,19.84228 -0.4399,23.28079 -3.698,46.50059 -9.7439,68.98389 -22.0622,81.9099 -81.2186,151.1813 -158.456,186.1025"
     id="path4179"
     inkscape:connector-curvature="0" /><path
     style="fill:none;stroke:#000000;stroke-width:7.71864319;stroke-miterlimit:4;stroke-opacity:1;stroke-dasharray:none"
     d="m 1432.4322,-51.97076 c 73.413,-52.89387 169.9335,-67.87254 255.913,-39.58868 20.3679,6.69835 39.9603,15.71955 58.3114,26.81083 7.9101,4.78516 16.3779,15.38834 24.0093,8.86431 9.2648,-7.90989 17.9851,-16.46478 26.0652,-25.5775 14.8838,-16.7742 27.6333,-35.43545 37.8346,-55.39976 -18.8433,-14.02862 -38.9323,-26.37503 -59.9709,-36.83003 -82.0897,-40.81331 -177.7217,-51.55594 -266.8853,-30.37573 -42.3647,10.07149 -82.9653,27.25535 -119.7241,50.59716 -8.2412,5.23404 -16.2864,10.77751 -24.1181,16.61296 5.5711,10.9126 11.9088,21.44169 18.9391,31.47832 13.9822,19.96867 30.7259,37.998 49.6258,53.40812"
     id="path4177"
     inkscape:connector-curvature="0" /><path
     style="fill:none;stroke:#000000;stroke-width:7.71864319;stroke-miterlimit:4;stroke-opacity:1;stroke-dasharray:none"
     d="m 1206.7573,138.19354 c -9.4434,89.48416 12.0569,180.79446 60.964,256.34156 22.2408,34.359 49.8306,65.2141 81.4756,91.1621 15.8508,13.0001 32.7122,24.7712 50.3837,35.1565 8.8815,5.2166 17.9721,10.0889 27.237,14.6039 4.6476,2.2662 9.3476,4.4365 14.078,6.511 8.2804,3.6346 10.9418,-7.9492 14.6007,-14.787 12.2137,-22.7883 21.0604,-47.3504 26.1959,-72.6969 1.4722,-7.2475 4.9917,-11.3964 -2.4262,-14.8349 -4.652,-2.1529 -9.2474,-4.4409 -13.7731,-6.8378 -9.0166,-4.7939 -17.7805,-10.0628 -26.2351,-15.7806 -35.1036,-23.7601 -64.7928,-55.3256 -86.341,-91.8419 -21.1998,-35.9323 -34.3152,-76.4361 -38.2136,-117.9772 -1.0454,-11.16541 -1.4636,-22.40051 -1.1805,-33.61382 0.1612,-6.46737 0.5619,-12.94346 1.1413,-19.3934 -6.4249,-2.37951 -12.9412,-4.50624 -19.5315,-6.38457 -28.6526,-8.14087 -58.6555,-11.40942 -88.3752,-9.62697"
     id="path6"
     inkscape:connector-curvature="0" /><path
     inkscape:connector-curvature="0"
     id="path4306"
     d="m 2317.3656,409.5472 c 0,0 -1.1348,-40.43759 -5.3851,-88.52029 -4.2502,-48.0827 -11.6243,-103.8105 -23.9885,-134.39091 -12.3643,-30.5804 -6.2926,37.01077 0.7184,116.18832 7.011,79.17754 14.9275,169.94147 6.6723,185.70656 -8.2553,15.76509 -16.0114,-73.59656 -24.6118,-170.86143 -8.6004,-97.26486 -18.071,-202.43294 -29.1279,-218.28068 -11.057,-15.847743 -5.3241,47.60703 0.023,107.44935 5.3472,59.84232 10.3188,116.07217 -1.9931,85.77458 -12.3119,-30.29758 -17.298,-86.32338 -21.8955,-137.52656 -4.5976,-51.20319 -8.8016,-97.583765 -19.4266,-108.590923 -10.6249,-11.007158 -6.223,37.481696 -1.8973,85.553033 4.3256,48.07133 8.5758,95.72514 -2.1826,83.0479 -10.7584,-12.67725 -15.0128,-60.25737 -19.2029,-106.7196 -4.1902,-46.462219 -8.3146,-91.806539 -18.6881,-100.0121754 -10.3734,-8.20563624 -6.2247,37.3416894 -2.1085,82.9112724 4.1162,45.569583 8.1997,91.161423 -2.1544,83.044823 -10.354,-8.1166 -14.4406,-53.67207 -18.5193,-98.760305 -4.0786,-45.088233 -8.1487,-89.709229 -18.3454,-95.956887 -10.1968,-6.247658 -6.1161,38.438855 -2.0521,83.312853 4.0641,44.873999 8.1112,89.935479 -2.0094,84.437759 -10.1205,-5.49772 -14.1698,-50.536298 -18.2364,-95.393405 -4.0666,-44.857108 -8.1504,-89.532742 -18.2134,-94.304566 -10.0629,-4.771824 -5.9728,39.9329496 -1.8898,84.930992 4.0829,44.998042 8.1583,90.289349 -1.7922,86.690599 -9.9504,-3.59875 -14.0273,-48.878009 -18.1376,-94.145719 -4.1103,-45.267711 -8.2539,-90.523875 -18.2059,-94.076438 -9.9519,-3.552562 -5.8041,41.718163 -1.6566,87.367434 4.1475,45.64927 8.2941,91.677083 -1.5161,89.638703 -9.8102,-2.03838 -20.2682,-118.13001411 -31.336,-238.29247 -5.5338,-60.08122 -11.2133,-121.18016 -16.9407,-169.54899 -5.7274,-48.36883 -11.4967,-84.00757 -17.174,-93.1684 -5.6773,-9.16083 -5.5792,17.31885 -2.5757,62.1711 3.0035,44.85226 8.9018,108.0771 14.8422,172.40661 5.9404,64.329512 11.9221,129.76369 15.1944,179.034617 3.2723,49.270927 3.8445,82.378603 -0.9979,82.055113 -4.8424,-0.32349 -10.2493,-33.670073 -16.0148,-83.885533 -5.7655,-50.21546 -11.8988,-117.299797 -18.1641,-185.098797 -6.2652,-67.79899 -12.6628,-136.31265 -18.8553,-189.38675 -6.1924,-53.07411 -12.1712,-90.70865 -17.5572,-96.74942 -5.3861,-6.04078 -4.7889,25.55359 -1.2072,76.36403 3.5817,50.81044 10.136,120.83695 16.6916,191.66046 6.5555,70.82351 13.1117,142.444023 16.8174,196.442469 3.7056,53.998447 4.5716,90.374831 -0.2115,90.710071 -4.783,0.33524 -10.4293,-35.681489 -16.5863,-90.174238 -6.1569,-54.492749 -12.8357,-127.461512 -19.6479,-201.030332 -6.8121,-73.56882 -13.758,-147.73769 -20.3273,-204.63065 -6.5693,-56.89296 -12.7516,-96.51002 -17.9898,-100.9752 -5.2382,-4.46518 -4.2907,30.68639 -0.2712,85.98726 4.0194,55.30087 11.0976,130.75104 18.1553,206.88305 7.0577,76.13201 14.0943,152.945876 18.1674,210.974132 4.0731,58.028255 5.1949,97.270908 0.4708,98.260498 -9.4482,1.97918 -16.9347,-81.085114 -24.0458,-158.855177 -7.1111,-77.770063 -13.8309,-150.245893 -21.3153,-127.089793 -7.4844,23.15611 -0.7999,95.624276 5.3531,163.1399815 6.153,67.5157055 11.7836,130.0789585 2.4582,133.4252285 -9.3253,3.34628 -15.033,-60.069714 -20.5873,-121.0847551 -5.5542,-61.0150409 -10.9494,-119.6291249 -19.3855,-106.6790209 -8.4361,12.950104 -3.0569,71.552612 2.0841,128.139702 5.1409,56.58709 10.0469,111.158764 0.8597,116.047194 -9.1872,4.88843 -14.103,-49.826305 -18.9731,-103.494678 -4.8701,-53.668374 -9.6925,-106.290383 -18.4882,-97.216491 -8.7957,9.073892 -3.9845,61.6698774 0.7277,113.677564 4.7122,52.007685 9.3264,103.427075 0.3025,110.147765 -9.0238,6.7207 -13.6371,-44.75103 -18.2966,-96.243367 -4.6595,-51.492335 -9.3653,-103.005278 -18.3857,-96.367011 -9.0205,6.638266 -4.3396,57.937803 0.3686,110.034008 4.7081,52.0962 9.4423,104.98907 0.6942,114.81401 -8.7481,9.82493 -13.4751,-43.09539 -18.3627,-97.26604 -4.8877,-54.170662 -9.9385,-109.5916528 -19.1256,-104.7680558 -9.1871,4.8235969 -3.9301,62.5541048 1.2108,119.6110058 5.1409,57.0569 10.1671,113.4402 0.7303,115.56938 -9.4368,2.12917 -14.4625,-54.26723 -19.5146,-110.36519 -5.0521,-56.097967 -10.1299,-111.897498 -19.4542,-108.574584 -9.3242,3.322915 -4.4325,57.12361 0.2059,108.628024 4.6384,51.50441 9.0274,100.71253 -1.1224,94.85031 -10.1498,-5.86222 -14.5459,-55.07564 -18.8047,-102.33207 -4.2588,-47.256431 -8.3772,-92.555883 -17.8251,-90.590182 -9.4479,1.9657 -6.9266,29.720085 -4.6463,54.938483 2.2803,25.218399 4.3218,47.900809 -6.0415,39.722559 -20.7265,-16.35651 -10.2187,-112.9323163 -25.3833,-67.834265 -15.1647,45.098052 -4.8574,52.735635 -4.8574,52.735635 m 644.4641,319.17247 c 0,0 5.9866,68.62209 5.9866,68.62209 m -265.3304,-805.83384 c 0,0 5.5762,59.49185 11.0928,118.9837 5.5166,59.49185 10.9737,118.983701 10.9737,118.983701 M 1861.5175,-368.97296 c 0,0 -0.7191,-33.18787 -4.0265,-68.08596 -3.3073,-34.89808 -9.2047,-71.50638 -19.484,-78.34721 -10.2794,-6.84084 -7.4682,22.60701 -4.8567,50.09383 2.6115,27.48682 5.0258,53.01261 -5.9912,38.32765 -22.0341,-29.36991 -9.7025,-102.01217 -29.9614,-112.52943 -20.2589,-10.51726 8.0415,84.38632 -12.9054,66.57025 -20.9469,-17.81608 -7.3486,-77.03384 -27.3602,-84.9529 -20.0116,-7.91907 6.4455,67.4827 -13.9403,55.59949 -20.3858,-11.8832 -6.0683,-63.48516 -25.8645,-69.14883 -19.7963,-5.66367 5.4916,57.40444 -14.5034,49.63498 -19.9949,-7.76946 -5.2909,-55.27759 -24.8918,-58.90096 -19.6009,-3.62337 -4.8291,50.09409 -4.8291,50.09409"
     style="fill:none;stroke:#000000;stroke-width:7.71864319;stroke-miterlimit:4;stroke-opacity:1;stroke-dasharray:none"
     inkscape:path-effect="#path-effect4324"
     inkscape:original-d="m 2105.9985,-26.10126 c -17.3536,-10.02356 -35.4041,-18.84865 -53.9816,-26.38811 -10.1142,-4.10094 -20.394,-7.82709 -30.787,-11.15665 2.3173,-10.67291 4.2383,-21.43734 5.741,-32.25406 5.1486,-36.97821 5.5058,-74.62755 1.0803,-111.70164 -7.4877,-62.73874 -28.9183,-123.53815 -62.4102,-177.10316 -66.583,-106.48939 -178.7628,-180.35864 -303.0561,-198.64074 0,9.91897 0,19.84665 0,29.76997 0,5.53474 0,11.06949 0,16.60423 0,5.99235 19.9932,7.95348 25.5643,9.77079 42.7175,13.95889 81.9852,38.15489 113.6869,70.0298 61.0337,61.37467 91.5854,148.61883 81.7151,234.66452 -8.8728,78.24039 -50.6843,150.34463 -113.7957,197.34639 -38.6579,28.78504 -84.4375,47.52037 -132.2078,53.9398 -3.0186,0.40531 -23.8699,1.5079 -23.8699,3.11602 0,3.94405 0,7.88375 0,11.82344 0,14.7477 0,29.49541 0,44.24311 0,4.55418 0,9.11272 0,13.6669 0,4.39293 10.4583,4.66313 14.2261,6.15359 19.5663,7.76172 35.4825,23.52049 43.4362,43.03156 3.7852,9.2914 5.7192,19.29753 5.7192,29.32544 0,3.32085 -4.4081,25.69956 -3.624,26.15716 10.2274,5.9008 20.4505,11.8103 30.678,17.7155 9.9008,5.7222 19.8059,11.4443 29.7067,17.1621 1.9427,1.1287 32.8995,-39.1137 38.1134,-44.40873 31.6581,-32.21048 71.1131,-56.82049 114.0527,-70.83604 161.4136,-52.70647 335.5156,48.65783 370.3535,214.90067 9.0688,44.6571 7.3439,91.332 -5.1486,135.1742 -2.9968,10.4855 5.8194,10.8908 14.8011,16.0813 8.594,4.9638 17.175,9.9233 25.769,14.8871 77.943,-196.6316 -2.8269,-427.40439 -185.7626,-533.07446" /><path
     inkscape:connector-curvature="0"
     id="path4308"
     d="m 2225.0567,614.90685 c 0,0 10.7868,-6.21306 -10.826,18.3793 -21.6128,24.59236 0.1013,-27.24979 -21.3887,-34.31014 -10.7449,-3.53017 -10.7858,11.11096 -10.8563,28.94285 -0.071,17.83189 -0.1772,38.85453 -10.9839,48.08738 -10.8067,9.23285 -10.7091,-7.69969 -10.628,-24.8758 0.081,-17.17612 0.1447,-34.5958 -10.6427,-26.33725 -10.7874,8.25856 -10.8604,25.63924 -10.9503,42.73293 -0.09,17.09368 -0.1962,33.90036 -10.9987,41.0109 -10.8026,7.11055 -10.6875,-9.80333 -10.5884,-27.15239 0.099,-17.34906 0.1809,-35.13329 -10.6002,-29.76345 -10.781,5.36984 -10.8687,23.13303 -10.9768,40.9174 -0.108,17.78436 -0.2366,35.58989 -11.0326,41.04441 -10.7961,5.45452 -10.6608,-12.36755 -10.5433,-30.68365 0.1176,-18.31609 0.2159,-37.1262 -10.5582,-33.64778 -10.774,3.47843 -10.8762,22.27635 -11.0025,41.2194 -0.1262,18.94305 -0.2769,38.03124 -11.0652,42.09023 -10.7882,4.05898 -10.6319,-15.03655 -10.4961,-34.70343 0.1359,-19.66688 0.2496,-39.90511 -10.516,-38.13153 -10.7656,1.77357 -10.8811,22.00467 -11.0256,42.49629 -0.1445,20.49162 -0.3186,41.24374 -11.0981,44.05935 -10.7796,2.81562 -10.601,-17.93751 -10.4466,-39.36109 0.1544,-21.42357 0.2825,-43.51758 -10.4738,-43.38374 -10.7564,0.13384 -10.8839,22.22405 -11.0468,44.69543 -0.1629,22.47138 -0.3622,45.32393 -11.1324,46.98247 -10.7702,1.65854 -10.5675,-21.18948 -10.3944,-44.83568 0.173,-23.6462 0.3141,-48.0906 -10.4328,-49.62482 -10.7469,-1.53423 -10.8843,22.90752 -11.0656,47.87021 -0.1813,24.96269 -0.4081,50.44631 -11.1686,50.99583 -10.7605,0.54952 -10.5316,-24.92371 -10.3399,-51.36476 0.1917,-26.44104 0.343,-53.84989 -10.3947,-57.17159 -10.7378,-3.3217 -10.8816,24.08626 -11.0808,52.1924 -0.1992,28.10614 -0.4564,56.91045 -11.2073,56.38143 -10.7508,-0.52902 -10.493,-29.3053 -10.2834,-59.29232 0.2097,-29.98702 0.3668,-61.1848 -10.363,-66.5568 -10.7297,-5.37201 -10.8737,25.82724 -11.0893,57.96644 -0.2156,32.1392 -0.5073,65.21834 -11.2487,63.60611 -10.7414,-1.61224 -10.4509,-34.64057 -10.225,-69.26788 0.2259,-34.62731 0.3808,-70.85359 -10.3432,-78.86173 -10.7241,-8.00814 -10.8566,28.22234 -11.0854,65.76978 -0.2288,37.54745 -0.5613,76.41186 -11.2936,73.67162 -10.7322,-2.74024 -10.4032,-41.46555 -10.165,-82.51777 0.2383,-41.05222 0.3754,-84.43135 -10.3484,-96.47925 -10.7238,-12.04789 -10.8205,31.33901 -11.0546,76.74722 -0.2341,45.40821 -0.6198,92.83773 -11.3434,88.87509 -10.7236,-3.96264 -10.346,-50.62958 -10.1039,-101.78808 0.242,-51.1585 0.3261,-106.80856 -10.4184,-128.73745 -5.3722,-10.96445 -8.0598,-2.53086 -9.4236,16.11983 -1.3637,18.65069 -1.416,47.51849 -1.523,77.42246 -0.107,29.90398 -0.2698,60.84414 -1.7584,83.63955 -1.4886,22.79541 -4.293,37.44607 -9.6508,34.77106 -5.3578,-2.675 -7.7969,-34.09404 -8.9195,-79.91305 -1.1227,-45.81902 -0.9561,-106.03802 -0.9933,-166.31297 -0.037,-60.27494 -0.2783,-120.60582 -1.903,-166.64861 -1.6247,-46.04278 -4.606,-77.79746 -10.0111,-80.92001 -5.405,-3.12254 -7.8218,25.51398 -8.8796,70.00753 -1.0577,44.49356 -0.7895,104.84416 -0.7277,165.14979 0.062,60.30563 -0.083,120.56629 -1.6215,164.87998 -1.5389,44.31369 -4.4386,72.6804 -9.7933,69.19812 -5.3546,-3.48228 -7.8229,-34.66902 -8.9863,-79.32798 -1.1634,-44.65897 -1.0471,-102.79017 -1.1161,-160.16137 -0.069,-57.3712 -0.3218,-113.98241 -1.9287,-155.6014 -1.607,-41.61899 -4.5402,-68.24576 -9.896,-65.64809 -5.3558,2.59767 -7.7854,31.76549 -8.8759,73.80729 -1.0905,42.04179 -0.865,96.95756 -0.8064,151.05112 0.059,54.09356 -0.048,107.36491 -1.5364,146.11788 -1.4883,38.75297 -4.332,62.98755 -9.6873,59.00757 -5.3553,-3.97998 -7.8752,-32.22626 -9.0882,-72.39933 -1.2131,-40.17306 -1.1385,-92.27291 -1.2135,-143.96002 -0.075,-51.68711 -0.2992,-102.96149 -1.8784,-141.4836 -1.5793,-38.52212 -4.4931,-64.29198 -9.8764,-64.97007 -5.3834,-0.67808 -7.8411,25.54158 -8.9426,65.50424 -1.1016,39.96266 -0.8708,93.66831 -0.8044,147.96221 0.066,54.29391 -0.033,109.17605 -1.5359,151.4917 -1.5031,42.31564 -4.3884,72.06478 -9.7914,76.09267 -5.4029,4.02788 -7.9103,-21.82572 -9.0825,-63.06164 -1.1722,-41.23592 -1.0386,-97.85416 -1.0916,-155.35554 -0.053,-57.50139 -0.2942,-115.88592 -1.9159,-160.65443 -1.6218,-44.7685 -4.598,-75.92099 -10.0025,-78.95828 -5.4045,-3.03729 -7.8249,25.07101 -8.8822,69.13595 -1.0574,44.06494 -0.7834,104.08654 -0.7162,164.87584 0.067,60.7893 -0.074,122.34631 -1.6285,169.48209 -1.5545,47.13578 -4.4936,79.85034 -9.8937,82.95473 -5.4001,3.10438 -7.8598,-25.74006 -8.9863,-70.55966 -1.1265,-44.81961 -0.9532,-105.61437 -0.9895,-166.41063 -0.036,-60.79626 -0.2823,-121.59401 -1.8984,-166.41958 -1.616,-44.82557 -4.5686,-73.67897 -9.9205,-70.58652 -21.4076,12.3698 -10.376,50.2714 -10.376,50.2714 m 214.7841,-43.98548 c 0,0 0.2853,37.78675 0.2853,37.78675 m -214.3819,201.18342 c 0,0 0.6819,15.06726 1.3334,37.815 0.6514,22.74773 1.2649,53.17594 1.1522,83.89786 -0.1126,30.72191 -0.9517,61.73752 -3.1234,85.66006 -2.1716,23.92253 -5.6689,40.75199 -11.0653,43.10159 -5.3963,2.34961 -7.9813,-10.23039 -9.1897,-29.91684 -1.2084,-19.68645 -1.0475,-46.47937 -0.9294,-72.55561 0.2363,-52.1525 0.295,-101.43832 -10.4886,-85.27244 -10.7836,16.16589 -10.9043,65.44333 -11.1528,111.52374 -0.2484,46.08042 -0.6093,88.96381 -11.3933,92.34158 -10.784,3.37778 -10.418,-39.80932 -10.1791,-81.34231 0.2389,-41.533 0.3612,-81.41189 -10.4285,-71.41771 -10.7896,9.99418 -10.9428,49.86661 -11.1812,87.77858 -0.2384,37.91198 -0.554,73.8635 -11.3285,76.01586 -10.7745,2.15235 -10.4566,-33.89837 -10.2287,-68.82797 0.2279,-34.9296 0.3717,-68.73806 -10.4137,-62.10118 -10.7853,6.63688 -10.9466,40.44096 -11.1695,72.83985 -0.2228,32.39888 -0.5018,63.39257 -11.2666,64.40867 -10.7647,1.0161 -10.4855,-30.01482 -10.2737,-60.21082 0.2118,-30.196 0.3599,-59.55708 -10.4183,-55.20131 -10.7783,4.35577 -10.9366,33.7148 -11.1411,61.96764 -0.2044,28.25285 -0.4513,55.39951 -11.2062,55.33055 -10.755,-0.069 -10.5097,-27.23315 -10.3164,-53.75554 0.1933,-26.52238 0.337,-52.40295 -10.4327,-49.90467 -10.7697,2.49829 -10.9189,28.37897 -11.1038,53.35046 -0.1848,24.97149 -0.4023,49.03379 -11.1477,47.8953 -10.7454,-1.1385 -10.5307,-25.2077 -10.3569,-48.78445 0.1739,-23.57674 0.3083,-46.66103 -10.4521,-45.82971 -10.7605,0.83133 -10.8972,23.91805 -11.0621,46.23993 -0.1648,22.32188 -0.3556,43.87892 -11.0917,41.65087 -10.736,-2.22804 -10.5493,-23.78436 -10.395,-44.98053 0.1542,-21.19617 0.2769,-42.0322 -10.4741,-42.81967 -10.751,-0.78747 -10.8733,20.05385 -11.0185,40.24739 -0.1452,20.19355 -0.3115,39.73932 -11.0388,36.36075 -10.7273,-3.37856 -10.5659,-22.91613 -10.4307,-42.22821 0.1352,-19.31209 0.2447,-38.39868 -10.4969,-40.8753 -10.7416,-2.47662 -10.8485,16.61931 -10.9749,35.17329 -0.1264,18.55398 -0.2707,36.56601 -10.9898,31.92161 -10.7191,-4.6444 -10.5807,-22.64387 -10.4637,-40.57124 0.1171,-17.92737 0.2129,-35.78263 -10.5199,-40.13861 -10.7329,-4.35599 -10.8241,13.5151 -10.9326,30.94818 -0.1086,17.43308 -0.2333,34.42817 -10.9452,28.3202 -10.7118,-6.10798 -10.5944,-23.06642 -10.4946,-40.15263 0.1,-17.0862 0.1817,-34.30016 -10.5442,-40.91916 -10.7258,-6.619 -10.8005,10.62275 -10.8918,27.54116 -0.091,16.91842 -0.1984,33.51351 -10.9046,25.60119 -10.7062,-7.91232 -10.6088,-24.31716 -10.5258,-41.30485 0.083,-16.98768 0.1509,-34.5582 -10.5697,-44.80186 -10.7206,-10.24366 -10.7766,7.3809 -10.8511,24.97924 -0.075,17.59835 -0.1675,35.17048 -10.8708,24.82196 -21.40672,-20.69703 0.2549,-62.81924 -21.2985,-50.37593 -21.55343,12.44331 -10.81423,16.03294 -10.81423,16.03294"
     style="fill:none;stroke:#000000;stroke-width:7.71864319;stroke-miterlimit:4;stroke-opacity:1;stroke-dasharray:none"
     inkscape:path-effect="#path-effect4328"
     inkscape:original-d="m 2130.6307,638.6 c -74.8591,45.5898 -164.393,58.786 -248.1292,29.8092 -83.7145,-28.8417 -150.3454,-96.5443 -178.2052,-180.5809 -15.6287,-47.1805 -18.791,-98.366 -8.9425,-147.0848 5.1703,-25.5209 13.8732,-50.3052 25.7428,-73.4727 -2.0559,-4.9726 -20.6814,-11.9498 -25.2158,-14.569 -11.0159,-6.3715 -22.0491,-12.7387 -33.065,-19.1058 -5.092,-2.9417 -3.5413,-3.5605 -8.3719,1.3249 -9.0514,9.1475 -20.3417,16.0071 -32.6512,19.7507 -21.8488,6.6417 -46.0584,3.1727 -65.15,-9.3698 -2.5133,-1.6517 -16.0686,-14.5734 -17.1837,-13.9328 -4.2556,2.458 -8.5069,4.9203 -12.7625,7.3739 -11.8871,6.8639 -23.7784,13.7323 -35.6655,20.6049 -3.9333,2.2706 -7.8709,4.5455 -11.8042,6.816 -4.0292,2.3229 5.2836,15.1705 6.9431,18.9141 21.6049,48.6404 29.1405,102.9942 21.7182,155.6963 -11.0812,78.6718 -55.4453,151.3688 -121.1702,196.1915 -70.8822,48.3354 -160.5119,63.0264 -243.0067,38.7694 -41.4892,-12.2418 -80.0295,-33.8142 -112.0012,-62.9741 -2.6962,-2.4579 -15.9597,-17.8811 -18.3249,-16.5083 -4.2426,2.4492 -8.4808,4.8984 -12.719,7.3477 -9.56103,5.5304 -19.13076,11.0433 -28.69614,16.5693 109.12634,137.9198 297.53284,196.3571 465.51064,144.4264 45.0566,-13.9284 87.7915,-35.3221 126.0182,-62.9523 10.0924,-7.2954 19.8756,-15.0222 29.3016,-23.1588 6.3987,-5.526 6.6731,-10.3416 13.9212,-4.0617 4.7478,4.114 9.5871,8.1322 14.5136,12.0457 21.0037,16.6696 43.5668,31.3781 67.2756,43.9119 77.5292,40.9833 166.7886,57.4481 253.8178,46.7534 111.8923,-13.7454 216.0399,-71.8297 286.0466,-160.3116 -12.1396,-7.0077 -24.2706,-14.0199 -36.4103,-21.0276 -9.6481,-5.5696 -10.981,1.9742 -18.8955,9.5006 -13.0457,12.3943 -27.2805,23.564 -42.4387,33.3043" /><path
     inkscape:connector-curvature="0"
     id="path4310"
     d="m 1570.1364,29.551563 c 0,0 6.4407,74.566287 -11.7996,85.503707 -18.2403,10.93742 2.8753,-85.822841 -14.8773,-89.369236 -17.7525,-3.546394 -2.7255,82.100786 -23.0499,153.459356 -10.1622,35.67929 -8.8024,-3.56487 -7.1413,-52.48353 1.6612,-48.918665 3.6026,-107.511843 -5.2327,-110.53061 -8.8353,-3.018768 -10.5175,47.971565 -12.3151,101.03256 -1.7976,53.061 -3.7141,108.19266 -12.8324,113.45654 -9.1183,5.26389 -7.1953,-49.85501 -5.243,-107.39528 1.9522,-57.540276 3.929,-117.501927 -4.8605,-121.9235486 -8.7895,-4.4216215 -10.7759,55.9847956 -12.7738,114.9707286 -1.9979,58.98594 -4.004,116.5514 -12.5878,106.44785 -8.5838,-10.10354 -6.5894,-67.64572 -4.6826,-124.188328 1.9067,-56.54261 3.7274,-112.085652 -5.0078,-118.190922 -8.7351,-6.10527 -10.5386,49.066961 -12.3801,103.868789 -1.8415,54.801831 -3.7201,109.233251 -12.3937,101.646371 -8.6736,-7.58687 -6.8036,-61.97052 -4.9767,-116.541062 1.8269,-54.570543 3.6104,-109.327982 -5.0538,-117.66245 -8.6642,-8.334468 -10.4409,46.4637314 -12.2918,101.968511 -1.8509,55.504781 -3.7774,111.716141 -12.5238,106.207991 -8.7464,-5.50815 -6.8283,-61.59296 -4.9115,-119.2645 1.9169,-57.671541 3.8299,-116.92981 -4.7238,-128.784872 -8.5538,-11.855058 -10.454,47.425079 -12.4799,108.689997 -2.026,61.264918 -4.1824,124.514615 -12.9839,120.598665 -8.8016,-3.91595 -6.669,-66.493141 -4.4689,-133.2359933 2.2001,-66.7428527 4.4601,-137.6513667 -3.8238,-158.2299767 -8.2838,-20.57861 -10.5147,50.34231 -12.9802,125.759789 -2.4656,75.417478 -5.179,155.331511 -14.0259,152.739151 -4.4235,-1.29619 -5.3129,-40.660327 -4.5055,-98.7162 0.8073,-58.055872 3.2992,-134.80348 5.6862,-210.86659 2.3869,-76.06312 4.6693,-151.44175 5.1927,-206.75967 0.5234,-55.31791 -0.6991,-90.57512 -5.2875,-86.39539 -4.5884,4.17973 -7.9576,43.61834 -10.7643,100.38081 -2.8066,56.76247 -5.0611,130.8488 -7.3739,204.32394 -2.3128,73.475137 -4.6836,146.339094 -7.6014,200.656832 -2.9178,54.317739 -6.3714,90.089258 -10.8149,89.379528 -4.4434,-0.70974 -5.4334,-37.205688 -4.7604,-91.215469 0.673,-54.009782 2.9983,-125.533395 5.2273,-196.298461 2.229,-70.76506 4.3621,-140.77157 4.7692,-191.74714 0.407,-50.97558 -0.9003,-82.92022 -5.5245,-77.56154 -4.6243,5.35868 -7.9449,42.66267 -10.6522,95.59437 -2.7073,52.93169 -4.8097,121.4911 -6.9564,189.36061 -2.1466,67.869517 -4.3372,135.049139 -7.1187,185.221267 -2.7814,50.172129 -6.1445,83.336763 -10.6066,83.176303 -4.4621,-0.16045 -5.5601,-33.524458 -5.0347,-83.022011 0.5254,-49.497552 2.6651,-115.128652 4.7143,-179.823309 2.0493,-64.69465 4.0087,-128.45285 4.2744,-174.20461 0.2657,-45.75176 -1.152,-73.49707 -5.8369,-66.16594 -4.685,7.33113 -7.957,42.40735 -10.55,90.92178 -2.593,48.51443 -4.5134,110.46706 -6.4596,171.551 -1.9461,61.08395 -3.9177,121.2992116 -6.5322,166.338902 -2.6145,45.03969 -5.8647,74.903808 -10.3451,75.285468 -4.4804,0.38166 -5.7036,-29.312887 -5.3576,-73.28473 0.346,-43.97184298 2.2536,-102.220984 4.0654,-158.94851 3.6236,-113.45506 6.8517,-220.82368 -2.8442,-195.7146 -9.6958,25.10908 -12.9795,132.47289 -16.2558,234.032495 -3.2762,101.559606 -6.528,197.315015 -15.5272,199.207305 -8.9991,1.89228 -7.4659,-43.285283 -5.9803,-88.047607 1.4856,-44.762324 2.9243,-89.109407 -6.1261,-85.556156 -9.0504,3.553252 -10.4916,47.8900894 -11.962,92.123474 -1.4705,44.233386 -2.9702,88.363319 -12.0119,91.502759 -9.0418,3.13945 -7.5397,-40.997846 -6.0819,-84.777946 1.4579,-43.7801003 2.8722,-87.203009 -6.2118,-82.634801 -9.0839,4.568209 -10.501,47.971667 -11.9499,91.387702 -1.449,43.416035 -2.9297,86.844645 -12.0224,91.463165 -9.0926,4.61852 -7.6081,-38.82387 -6.1644,-81.981048 1.4437,-43.15718 2.8471,-86.02915 -6.2767,-80.269787 -9.1238,5.759362 -10.5301,48.592692 -11.9736,91.622811 -1.4436,43.030114 -2.9246,86.257024 -12.0843,92.803544 -9.1597,6.54651 -7.6732,-36.70123 -6.2232,-79.781375 1.4499,-43.080145 2.8634,-85.9926929 -6.3097,-78.775786 -9.1731,7.216907 -10.5887,50.038293 -12.054,93.418891 -1.4654,43.38059 -2.9811,87.3204 -12.2431,96.77415 -9.262,9.45374 -7.7377,-34.52439 -6.2428,-78.58261 1.4949,-44.058226 2.9604,-88.19655 -6.2784,-79.063203 -9.23888,9.133347 -10.69972,52.948467 -12.24595,98.303803 -1.54623,45.35534 -3.17957,92.2509 -12.64971,107.54511 -9.47013,15.29422 -7.82091,-31.68611 -6.17985,-79.49394 1.64105,-47.80783 3.27222,-96.443155 -6.06567,-84.458924 -9.33789,11.984231 -13.46418,68.050894 -15.30215,121.121504 -1.83797,53.07061 -1.3829,103.14517 -1.3829,103.14517 m 582.35633,-893.84911 c 0,0 7.6598,45.20604 -10.3826,51.26813 -18.0425,6.06208 1.4162,-50.14449 -16.563,-46.2531 -17.9792,3.89139 -1.4606,51.65693 -19.5473,59.2461 -18.0868,7.58917 1.5686,-55.36896 -16.4593,-49.75936 -18.0278,5.60959 -1.6245,57.25566 -19.8069,68.13527 -18.1824,10.87962 1.7798,-62.54742 -16.3012,-55.07709 -18.081,7.47032 -1.8748,65.75246 -20.1875,81.0557 -18.3127,15.30324 2.1075,-73.61853 -16.0335,-64.07051 -18.1411,9.54801 -2.2634,78.86877 -20.7889,101.28835 -9.2628,11.20979 -8.5899,-11.73831 -7.8879,-35.99368 0.7019,-24.25537 1.4315,-49.818 -7.6744,-43.83727 -18.2117,11.96148 -2.8807,99.59755 -21.9349,139.41664 -9.527,19.90955 -10.8633,-10.11104 -9.8357,-45.10901 1.0276,-34.99797 4.4116,-74.97333 4.4116,-74.97333 M 947.0882,471.61675 c 0,0 8.50973,11.54035 -9.75156,22.10925 -9.13064,5.28445 -5.56948,-90.84923 -2.26556,-183.94891 3.30392,-93.09967 6.3612,-183.16533 -3.16786,-165.74485 -9.52907,17.42049 -12.85586,114.30074 -15.97016,201.32748 -3.11429,87.02674 -5.98666,164.19996 -14.10844,142.20639 -8.12179,-21.99358 -5.14746,-103.17211 -2.85937,-167.49112 2.28809,-64.319 3.93282,-111.77846 -6.59361,-66.33389 C 871.31877,344.63025 879.1726,373.783 879.1726,373.783"
     style="fill:none;stroke:#000000;stroke-width:7.71864319;stroke-miterlimit:4;stroke-opacity:1;stroke-dasharray:none"
     inkscape:path-effect="#path-effect4326"
     inkscape:original-d="M 976.08621,258.8772 C 1066.4912,99.80332 1289.7051,67.70179 1421.9826,193.77634 c 4.0596,3.87432 42.2732,47.60756 40.8881,48.40506 9.4042,-5.4345 18.804,-10.8647 28.217,-16.2948 10.5498,-6.0882 21.0995,-12.1895 31.6537,-18.2778 5.8237,-3.3644 0.8712,-8.15826 -0.2004,-14.25955 -2.2258,-12.62533 -1.2152,-25.78669 2.8531,-37.94134 6.1722,-18.4172 19.3355,-34.12368 36.3406,-43.48045 2.069,-1.14181 23.0118,-8.8338 23.0118,-8.49823 0,-4.17503 0,-8.35006 0,-12.52073 0,-13.71048 0,-27.40789 0,-41.11837 0,-5.10766 0,-10.21095 0,-15.31861 0,-7.46973 -12.0657,-4.32756 -18.0593,-5.00742 -157.1666,-17.82885 -271.032,-165.13155 -251.2828,-321.34649 8.9077,-70.41766 45.0653,-136.12861 99.1995,-181.89268 33.1651,-28.03545 72.6419,-48.36148 114.7627,-58.92544 10.7458,-2.69764 6.4727,-13.98068 6.4727,-24.33981 0,-8.76843 0,-17.53251 0,-26.29658 -164.9896,24.26572 -304.7374,146.26547 -351.3664,306.42883 -12.0874,41.53674 -17.8153,84.86465 -17.1184,128.10976 0.4443,27.63015 3.5152,55.21236 9.1952,82.25853 2.1169,10.08893 -2.2215,7.72686 -10.7633,10.77751 -6.1068,2.17467 -12.1658,4.48881 -18.1724,6.93368 -14.2043,5.79187 -28.0994,12.34205 -41.6112,19.60259 -76.083,40.90047 -138.94185,104.3583 -178.78452,181.05157 -57.28336,110.29833 -64.45304,242.89693 -18.62112,358.51213 12.13531,-7.0078 24.27062,-14.0243 36.41029,-21.0277 8.79004,-5.0728 5.30103,-5.2776 2.4349,-16.3166 -4.94821,-19.0361 -7.91017,-38.5863 -8.82925,-58.2238 -3.35398,-53.7437 10.81986,-109.3178 37.47311,-155.8924" /><path
     id="path4312"
     d="m 1980.0336,134.38755 c 0,0 2.1239,30.97674 2.4225,67.28259 0.2987,36.30586 -1.2609,77.94083 -8.1423,99.2573 -3.4406,10.65824 -5.1795,5.56345 -6.0825,-8.05885 -0.903,-13.6223 -0.9852,-35.7721 -1.1327,-59.22388 -0.1476,-23.45179 -0.3629,-48.20555 -1.4238,-67.03577 -1.061,-18.83021 -2.9571,-31.73688 -6.4186,-31.49448 -3.4614,0.2424 -5.0279,13.23026 -5.6915,32.98036 -0.6635,19.75009 -0.4337,46.26242 -0.2752,73.55372 0.1585,27.29131 0.2447,55.3616 -0.5967,78.22763 -0.8415,22.86604 -2.603,40.52781 -6.0788,47.00209 -3.4758,6.47427 -5.1764,-4.7136 -6.0375,-25.09895 -0.861,-20.38534 -0.9014,-49.96817 -1.0411,-80.2838 -0.1398,-30.31563 -0.3803,-61.36406 -1.4732,-84.68063 -1.093,-23.31657 -3.0225,-38.90127 -6.4795,-38.28944 -3.457,0.61184 -4.9853,16.77662 -5.6199,40.98117 -0.6345,24.20455 -0.3899,56.44887 -0.2532,89.21975 0.1367,32.77089 0.1645,66.06836 -0.7388,92.37921 -0.9034,26.31085 -2.7252,45.63509 -6.2111,50.45954 -3.4859,4.82444 -5.1382,-9.67624 -5.9455,-34.07843 -0.8074,-24.40219 -0.7925,-58.70589 -0.9055,-93.48748 -0.1129,-34.7816 -0.3548,-70.04109 -1.4597,-96.35486 -1.1049,-26.31377 -3.0523,-43.68183 -6.505,-42.68056 -3.4528,1.00128 -4.9599,19.35821 -5.5855,46.5698 -0.6255,27.21158 -0.3877,63.27782 -0.2854,99.6977 0.1024,36.41987 0.068,73.19338 -0.8934,101.81953 -0.9619,28.62614 -2.8351,49.10491 -6.3246,52.93529 -3.4895,3.83039 -5.11,-11.20438 -5.8709,-34.91022 -0.7609,-23.70584 -0.6835,-56.08276 -0.7088,-86.93666 -0.025,-30.85391 -0.1495,-60.1848 -1.113,-77.79861 -0.9634,-17.61381 -2.7371,-23.51053 -6.1057,-7.49607 -3.3687,16.01445 -4.9959,37.91892 -5.8083,61.96364 -0.8125,24.04472 -0.8121,50.22968 -0.8685,74.8051 -0.1127,49.15085 -0.4646,91.86354 -7.445,98.13985 -3.4902,3.13815 -5.1353,-6.65941 -5.8912,-22.72853 -0.756,-16.06912 -0.6329,-38.4098 -0.5626,-60.35788 0.1406,-43.89617 0.056,-86.22195 -6.8569,-73.6641 -3.4565,6.27892 -5.1747,19.99614 -6.058,37.20296 -0.8832,17.20682 -0.9349,37.90325 -1.0263,58.14058 -0.1827,40.47468 -0.5456,79.11302 -7.5244,84.32548 -6.9789,5.21246 -6.5962,-33.61569 -6.3955,-71.58638 0.2006,-37.97068 0.2286,-75.0839 -6.7111,-66.44159 -6.9397,8.64231 -7.0108,45.74636 -7.2346,81.77399 -0.2238,36.02762 -0.5926,70.97884 -7.5681,75.31549 -6.9754,4.33665 -6.591,-30.67406 -6.3557,-65.13968 0.2353,-34.46563 0.3268,-68.38617 -6.6221,-61.86919 -6.9489,6.51698 -7.0697,40.43184 -7.3198,73.61214 -0.2501,33.18029 -0.6245,65.62602 -7.5952,69.20472 -6.9707,3.57871 -6.5841,-28.89408 -6.3262,-60.99918 0.258,-32.1051 0.3905,-63.84251 -6.5609,-58.79302 -6.9514,5.04948 -7.1231,39.41323 -7.3945,70.4678 -0.2714,31.05457 -0.6164,58.79998 -7.4485,50.61278 -6.8322,-8.18719 -6.5252,-35.94728 -6.324,-60.68406 0.2011,-24.73678 0.3129,-46.45025 -6.6376,-42.54419 -6.9505,3.90605 -7.0865,25.95472 -7.2078,41.0401 -0.1213,15.08538 -0.1855,23.20747 -6.9228,-0.73966 -6.7373,-23.94712 -8.44,-31.34136 -8.4315,-32.74882 0.01,-1.40746 1.7128,3.17186 1.7128,3.17186"
     style="fill:none;stroke:#000000;stroke-width:7.71864319;stroke-miterlimit:4;stroke-opacity:1;stroke-dasharray:none"
     inkscape:path-effect="#path-effect4320"
     inkscape:original-d="m 1716.7408,440.748 c 4.125,25.5078 12.0047,50.388 23.2862,73.6209 3.868,7.9404 11.6126,30.2363 20.6902,26.1572 9.4521,-4.2535 18.7431,-8.8688 27.8336,-13.85 37.5603,-20.5919 71.7099,-47.3199 100.7632,-78.807 58.0456,-62.9218 94.5474,-144.191 102.7494,-229.4435 2.265,-23.54232 2.4262,-47.28943 0.4748,-70.86657 -0.71,-8.59411 2.0864,-12.83016 -7.7621,-13.08728 -6.4771,-0.17433 -12.9716,-0.1046 -19.4487,0.19611 -12.8976,0.60577 -25.7516,2.15724 -38.414,4.63263 -12.6493,2.47102 -25.1287,5.87031 -37.2814,10.1543 -9.3912,3.31648 -5.4492,7.50459 -4.9918,16.36454 0.3267,6.61555 0.4356,13.22238 0.3005,19.84228 -0.4399,23.28079 -3.698,46.50059 -9.7439,68.98389 -22.0622,81.9099 -81.2186,151.1813 -158.456,186.1025"
     inkscape:connector-curvature="0" /><path
     inkscape:connector-curvature="0"
     id="path4314"
     d="m 1520.1686,-206.81118 c 0,0 37.3879,-0.94031 80.5673,-0.0948 43.1794,0.84556 92.1577,3.47699 115.2951,10.62048 23.1375,7.14349 -33.332,6.03771 -99.6905,4.7381 -66.3585,-1.29962 -142.6083,-2.79307 -159.0823,3.57505 -16.474,6.36812 58.8649,7.84387 141.5922,9.46422 82.7272,1.62035 172.8441,3.38531 185.8504,10.33183 13.0064,6.94652 -76.8053,5.18736 -172.6738,3.30943 -95.8686,-1.87794 -197.7956,-3.87465 -209.0584,2.59677 -11.2627,6.47142 91.2416,8.47963 198.239,10.57576 106.9973,2.09614 218.4883,4.2802 225.1242,11.10333 6.636,6.82313 -106.4028,4.60852 -221.6282,2.35097 -115.2254,-2.25756 -232.6379,-4.55805 -234.7796,2.09333 -2.1417,6.65138 112.7956,8.90359 227.2212,11.1457 114.4256,2.2421 228.3395,4.47409 224.0772,11.085 -4.2623,6.61092 -116.7758,4.40616 -227.0707,2.24478 -110.2949,-2.16138 -218.3704,-4.27937 -213.7886,2.5051 4.5819,6.78446 49.8268,7.67133 88.5989,8.43118 38.7721,0.759855 71.0704,1.392697 49.689,7.669113 -21.3815,6.276416 -53.7051,5.643021 -79.1639,5.144035 -25.4587,-0.498986 -44.0511,-0.863562 -38.0293,5.950491 6.0218,6.814054 25.569,7.197384 40.8013,7.495963 15.2322,0.298579 26.1487,0.512406 14.8395,6.987456 -11.3092,6.475049 -20.2456,7.97429 -26.3424,7.85477 -6.0968,-0.119521 -9.3622,-1.857805 -9.3622,-1.857805 m 249.061,-35.295118 c 0,0 35.5735,-0.976632 69.7769,-0.306299 34.2033,0.670332 67.043,2.987629 61.5383,9.575487 -5.5047,6.587857 -31.4558,6.079355 -52.5151,5.666579 -21.0593,-0.412776 -37.2257,-0.729826 -23.2256,6.240936 14.0001,6.970761 30.2491,7.289463 41.1674,7.503491 10.9183,0.214029 16.5049,0.323383 9.1091,6.875448 -7.3959,6.552066 -11.1968,8.152062 -13.1361,8.114043 -1.9393,-0.03802 -2.0251,-1.714055 -2.0251,-1.714055"
     style="fill:none;stroke:#000000;stroke-width:7.71864319;stroke-miterlimit:4;stroke-opacity:1;stroke-dasharray:none"
     inkscape:path-effect="#path-effect4318"
     inkscape:original-d="m 1432.4322,-51.97076 c 73.413,-52.89387 169.9335,-67.87254 255.913,-39.58868 20.3679,6.69835 39.9603,15.71955 58.3114,26.81083 7.9101,4.78516 16.3779,15.38834 24.0093,8.86431 9.2648,-7.90989 17.9851,-16.46478 26.0652,-25.5775 14.8838,-16.7742 27.6333,-35.43545 37.8346,-55.39976 -18.8433,-14.02862 -38.9323,-26.37503 -59.9709,-36.83003 -82.0897,-40.81331 -177.7217,-51.55594 -266.8853,-30.37573 -42.3647,10.07149 -82.9653,27.25535 -119.7241,50.59716 -8.2412,5.23404 -16.2864,10.77751 -24.1181,16.61296 5.5711,10.9126 11.9088,21.44169 18.9391,31.47832 13.9822,19.96867 30.7259,37.998 49.6258,53.40812" /><path
     id="path4316"
     d="m 1470.8356,435.57349 c 0,0 1.6864,10.65244 1.5786,25.29405 -0.1078,14.64161 -2.0161,33.27238 -9.1625,49.22905 -7.1464,15.95666 -6.927,-3.48312 -6.715,-27.98038 0.212,-24.49726 0.3793,-54.052 -6.58,-58.32524 -6.9592,-4.27324 -7.1065,26.15569 -7.3695,56.86563 -0.2631,30.70993 -0.6444,61.70087 -7.5872,58.55164 -6.9428,-3.14923 -6.5721,-34.12045 -6.3154,-65.68243 0.2566,-31.56198 0.3952,-63.71471 -6.5643,-69.22697 -6.9595,-5.51226 -7.0745,26.63519 -7.3193,59.19304 -0.2448,32.55786 -0.6232,65.52612 -7.5606,61.65548 -6.9374,-3.87063 -6.5725,-36.80242 -6.3369,-70.56074 0.2355,-33.75832 0.3359,-68.34317 -6.6281,-75.51994 -6.9641,-7.17676 -7.0312,27.41519 -7.2492,62.63655 -0.2181,35.22136 -0.5934,71.07213 -7.5267,66.413 -6.9334,-4.65913 -6.5751,-40.41739 -6.3707,-77.46157 0.2043,-37.04418 0.2455,-75.37426 -6.7324,-85.17704 -6.9779,-9.80277 -6.9678,28.53833 -7.1437,67.93265 -0.1759,39.39432 -0.5499,79.84185 -7.4807,74.25193 -6.9308,-5.58992 -6.5788,-45.62786 -6.4249,-88.22984 0.077,-21.30099 0.1097,-43.24299 -0.7658,-61.84051 -0.8756,-18.59752 -2.6563,-33.85055 -6.1683,-41.7736 -3.5119,-7.92305 -5.2303,-0.58857 -6.0753,14.65892 -0.845,15.2475 -0.8308,38.40801 -0.8778,62.137 -0.047,23.729 -0.1559,48.02649 -1.1332,65.54794 -0.9773,17.52146 -2.8108,28.26688 -6.2761,24.89175 -6.9304,-6.75026 -6.5543,-56.44896 -6.5231,-113.97976 0.016,-28.7654 -0.051,-59.48883 -1.06,-87.78074 -1.0088,-28.29191 -2.9569,-54.1523 -6.624,-73.19164 -3.6671,-19.03933 -5.3405,-12.21011 -6.0319,8.48391 -0.6914,20.69403 -0.4414,55.25286 -0.326,91.67274 0.1153,36.41989 0.091,74.70083 -0.8695,102.83908 -0.9599,28.13825 -2.8255,46.1338 -6.2925,41.98292 -3.467,-4.15089 -5.0939,-24.06831 -5.8971,-51.65927 -0.8033,-27.59097 -0.798,-62.85549 -0.918,-97.70057 -0.12,-34.84509 -0.3644,-69.27075 -1.4767,-95.184 -1.1123,-25.91324 -3.0757,-43.31409 -6.5757,-44.10954 -3.5,-0.79545 -5.0353,15.82843 -5.6714,40.87862 -0.636,25.05018 -0.3912,58.52666 -0.2639,91.4364 0.1274,32.90974 0.1385,65.25273 -0.7683,88.03593 -0.9068,22.78321 -2.7105,36.00662 -6.1831,30.67721 -3.4726,-5.32941 -5.1538,-23.88147 -6.0166,-48.73734 -0.8627,-24.85588 -0.9175,-56.01557 -1.0666,-86.56026 -0.1491,-30.54469 -0.3914,-60.47438 -1.4865,-82.87025 -1.0951,-22.39587 -3.0304,-37.25791 -6.5259,-37.66731 -3.4956,-0.40941 -5.0553,14.10235 -5.7114,35.62252 -0.6562,21.52016 -0.4223,50.04874 -0.2753,77.67296 0.1471,27.62423 0.209,54.34411 -0.6472,72.2469 -0.8563,17.90278 -2.6136,26.98847 -6.1021,19.34431 -3.4885,-7.64416 -5.2343,-24.37379 -6.1588,-45.17083 -0.9244,-20.79705 -1.0325,-45.66151 -1.1936,-69.57534 -0.3221,-47.82766 -0.8758,-91.85281 -7.8578,-91.93107 -3.491,-0.0391 -5.0833,12.02316 -5.7783,28.80074 -0.6951,16.77757 -0.5014,38.27041 -0.3677,57.09239 0.1337,18.82197 0.2122,34.97308 -0.6324,41.06716 -0.8446,6.09408 -2.5943,2.13115 -6.2084,-19.27496 -7.2282,-42.81221 -9.2099,-63.1735 -9.3085,-72.83175 -0.099,-9.65824 1.655,-8.61343 1.655,-8.61343"
     style="fill:none;stroke:#000000;stroke-width:7.71864319;stroke-miterlimit:4;stroke-opacity:1;stroke-dasharray:none"
     inkscape:path-effect="#path-effect4322"
     inkscape:original-d="m 1206.7573,138.19354 c -9.4434,89.48416 12.0569,180.79446 60.964,256.34156 22.2408,34.359 49.8306,65.2141 81.4756,91.1621 15.8508,13.0001 32.7122,24.7712 50.3837,35.1565 8.8815,5.2166 17.9721,10.0889 27.237,14.6039 4.6476,2.2662 9.3476,4.4365 14.078,6.511 8.2804,3.6346 10.9418,-7.9492 14.6007,-14.787 12.2137,-22.7883 21.0604,-47.3504 26.1959,-72.6969 1.4722,-7.2475 4.9917,-11.3964 -2.4262,-14.8349 -4.652,-2.1529 -9.2474,-4.4409 -13.7731,-6.8378 -9.0166,-4.7939 -17.7805,-10.0628 -26.2351,-15.7806 -35.1036,-23.7601 -64.7928,-55.3256 -86.341,-91.8419 -21.1998,-35.9323 -34.3152,-76.4361 -38.2136,-117.9772 -1.0454,-11.16541 -1.4636,-22.40051 -1.1805,-33.61382 0.1612,-6.46737 0.5619,-12.94346 1.1413,-19.3934 -6.4249,-2.37951 -12.9412,-4.50624 -19.5315,-6.38457 -28.6526,-8.14087 -58.6555,-11.40942 -88.3752,-9.62697"
     inkscape:connector-curvature="0" /></g><eggbot
   id="eggbot6355"
   totaldeltay="0"
   totaldeltax="0"
   lastpathnc="0"
   lastpath="0"
   node="0"
   layer="0"
   serialport="/dev/ttyACM0" /></svg>