<?xml version="1.0" encoding="UTF-8" standalone="no"?>
<svg
   xmlns:dc="http://purl.org/dc/elements/1.1/"
   xmlns:cc="http://creativecommons.org/ns#"
   xmlns:rdf="http://www.w3.org/1999/02/22-rdf-syntax-ns#"
   xmlns:svg="http://www.w3.org/2000/svg"
   xmlns="http://www.w3.org/2000/svg"
   xmlns:sodipodi="http://sodipodi.sourceforge.net/DTD/sodipodi-0.dtd"
   xmlns:inkscape="http://www.inkscape.org/namespaces/inkscape"
   sodipodi:docname="cubeses-5stripes.svg"
   inkscape:version="0.48.1 r9760"
   version="1.1"
   id="svg2"
   height="1200"
   width="3200">
  <sodipodi:namedview
     pagecolor="#ffffff"
     bordercolor="#666666"
     borderopacity="1"
     objecttolerance="10"
     gridtolerance="10"
     guidetolerance="10"
     inkscape:pageopacity="0"
     inkscape:pageshadow="2"
     inkscape:window-width="1600"
     inkscape:window-height="823"
     id="namedview16"
     showgrid="false"
     inkscape:zoom="0.4596875"
     inkscape:cx="1600"
     inkscape:cy="600"
     inkscape:window-x="0"
     inkscape:window-y="24"
     inkscape:window-maximized="1"
     inkscape:current-layer="layer1" />
  <metadata
     id="metadata20">
    <rdf:RDF>
      <cc:Work
         rdf:about="">
        <dc:format>image/svg+xml</dc:format>
        <dc:type
           rdf:resource="http://purl.org/dc/dcmitype/StillImage" />
      </cc:Work>
    </rdf:RDF>
  </metadata>
  <defs
     id="defs18" />
  <g
     style="display:inline"
     inkscape:label="3-CYAN"
     id="layer3"
     inkscape:groupmode="layer">
    <path
       style="stroke:#00cbff;stroke-opacity:1;fill:none"
       inkscape:connector-curvature="0"
       id="path10"
       d="m 200,549.5 0,101 25,12 0,-100 25,12 0,101 25,12 0,-100 25,12 0,101 5,3 90,-45 0,-22 -90,45 0,-23 90,-45 0,-22 -90,45 0,-23 90,-45 0,-22 -90,45 -10,0 -90,-45 33,-17 90,45 33,-16 -90,-45 34,-17 90,45 5,8 0,101 25,12 0,-100 25,12 0,101 25,12 0,-100 25,12 0,101 5,3 90,-45 0,-22 -90,45 0,-23 90,-45 0,-22 -90,45 0,-23 90,-45 0,-22 -90,45 -10,0 -90,-45 33,-17 90,45 33,-16 -90,-45 34,-17 90,45 5,8 0,101 25,12 0,-100 25,12 0,101 25,12 0,-100 25,12 0,101 5,3 90,-45 0,-22 -90,45 0,-23 90,-45 0,-22 -90,45 0,-23 90,-45 0,-22 -90,45 -10,0 -90,-45 33,-17 90,45 33,-16 -90,-45 34,-17 90,45 5,8 0,101 25,12 0,-100 25,12 0,101 25,12 0,-100 25,12 0,101 5,3 90,-45 0,-22 -90,45 0,-23 90,-45 0,-22 -90,45 0,-23 90,-45 0,-22 -90,45 -10,0 -90,-45 33,-17 90,45 33,-16 -90,-45 34,-17 90,45 5,8 0,101 25,12 0,-100 25,12 0,101 25,12 0,-100 25,12 0,101 5,3 90,-45 0,-22 -90,45 0,-23 90,-45 0,-22 -90,45 0,-23 90,-45 0,-22 -90,45 -10,0 -90,-45 33,-17 90,45 33,-16 -90,-45 34,-17 90,45 5,8 0,101 25,12 0,-100 25,12 0,101 25,12 0,-100 25,12 0,101 5,3 90,-45 0,-22 -90,45 0,-23 90,-45 0,-22 -90,45 0,-23 90,-45 0,-22 -90,45 -10,0 -90,-45 33,-17 90,45 33,-16 -90,-45 34,-17 90,45 5,8 0,101 25,12 0,-100 25,12 0,101 25,12 0,-100 25,12 0,101 5,3 90,-45 0,-22 -90,45 0,-23 90,-45 0,-22 -90,45 0,-23 90,-45 0,-22 -90,45 -10,0 -90,-45 33,-17 90,45 33,-16 -90,-45 34,-17 90,45 5,8 0,101 25,12 0,-100 25,12 0,101 25,12 0,-100 25,12 0,101 5,3 90,-45 0,-22 -90,45 0,-23 90,-45 0,-22 -90,45 0,-23 90,-45 0,-22 -90,45 -10,0 -90,-45 33,-17 90,45 33,-16 -90,-45 34,-17 90,45 5,8 0,101 25,12 0,-100 25,12 0,101 25,12 0,-100 25,12 0,101 5,3 90,-45 0,-22 -90,45 0,-23 90,-45 0,-22 -90,45 0,-23 90,-45 0,-22 -90,45 -10,0 -90,-45 33,-17 90,45 33,-16 -90,-45 34,-17 90,45 5,8 0,101 25,12 0,-100 25,12 0,101 25,12 0,-100 25,12 0,101 5,3 90,-45 0,-22 -90,45 0,-23 90,-45 0,-22 -90,45 0,-23 90,-45 0,-22 -90,45 -10,0 -90,-45 33,-17 90,45 33,-16 -90,-45 34,-17 90,45 5,8 0,101 25,12 0,-100 25,12 0,101 25,12 0,-100 25,12 0,101 5,3 90,-45 0,-22 -90,45 0,-23 90,-45 0,-22 -90,45 0,-23 90,-45 0,-22 -90,45 -10,0 -90,-45 33,-17 90,45 33,-16 -90,-45 34,-17 90,45 5,8 0,101 25,12 0,-100 25,12 0,101 25,12 0,-100 25,12 0,101 5,3 90,-45 0,-22 -90,45 0,-23 90,-45 0,-22 -90,45 0,-23 90,-45 0,-22 -90,45 -10,0 -90,-45 33,-17 90,45 33,-16 -90,-45 34,-17 90,45 5,8 0,101 25,12 0,-100 25,12 0,101 25,12 0,-100 25,12 0,101 5,3 90,-45 0,-22 -90,45 0,-23 90,-45 0,-22 -90,45 0,-23 90,-45 0,-22 -90,45 -10,0 -90,-45 33,-17 90,45 33,-16 -90,-45 34,-17 90,45 5,8 0,101 25,12 0,-100 25,12 0,101 25,12 0,-100 25,12 0,101 5,3 90,-45 0,-22 -90,45 0,-23 90,-45 0,-22 -90,45 0,-23 90,-45 0,-22 -90,45 -10,0 -90,-45 33,-17 90,45 33,-16 -90,-45 34,-17 90,45 5,8 0,101 25,12 0,-100 25,12 0,101 25,12 0,-100 25,12 0,101 5,3 90,-45 0,-22 -90,45 0,-23 90,-45 0,-22 -90,45 0,-23 90,-45 0,-22 -90,45 -10,0 -90,-45 33,-17 90,45 33,-16 -90,-45 34,-17 90,45 5,8 0,101 25,12 0,-100 25,12 0,101 25,12 0,-100 25,12 0,101 5,3 90,-45 0,-22 -90,45 0,-23 90,-45 0,-22 -90,45 0,-23 90,-45 0,-22 -90,45 -10,0 -90,-45 33,-17 90,45 33,-16 -90,-45 34,-17 90,45" />
  </g>
  <g
     style="display:inline"
     inkscape:label="2-YELLOW"
     id="layer2"
     inkscape:groupmode="layer">
    <path
       style="fill:none;stroke:#ffcc00;stroke-opacity:1"
       inkscape:connector-curvature="0"
       id="path8"
       d="m 100,387.5 0,101 25,13 0,-101 25,12 0,101 25,13 0,-101 25,12 0,101 5,3 90,-45 0,-22 -90,45 0,-23 90,-45 0,-22 -90,45 0,-22 90,-45 0,-23 -90,45 -10,0 -90,-45 33,-16 90,45 33,-17 -90,-45 34,-17 90,45 5,8 0,101 25,13 0,-101 25,12 0,101 25,13 0,-101 25,12 0,101 5,3 90,-45 0,-22 -90,45 0,-23 90,-45 0,-22 -90,45 0,-22 90,-45 0,-23 -90,45 -10,0 -90,-45 33,-16 90,45 33,-17 -90,-45 34,-17 90,45 5,8 0,101 25,13 0,-101 25,12 0,101 25,13 0,-101 25,12 0,101 5,3 90,-45 0,-22 -90,45 0,-23 90,-45 0,-22 -90,45 0,-22 90,-45 0,-23 -90,45 -10,0 -90,-45 33,-16 90,45 33,-17 -90,-45 34,-17 90,45 5,8 0,101 25,13 0,-101 25,12 0,101 25,13 0,-101 25,12 0,101 5,3 90,-45 0,-22 -90,45 0,-23 90,-45 0,-22 -90,45 0,-22 90,-45 0,-23 -90,45 -10,0 -90,-45 33,-16 90,45 33,-17 -90,-45 34,-17 90,45 5,8 0,101 25,13 0,-101 25,12 0,101 25,13 0,-101 25,12 0,101 5,3 90,-45 0,-22 -90,45 0,-23 90,-45 0,-22 -90,45 0,-22 90,-45 0,-23 -90,45 -10,0 -90,-45 33,-16 90,45 33,-17 -90,-45 34,-17 90,45 5,8 0,101 25,13 0,-101 25,12 0,101 25,13 0,-101 25,12 0,101 5,3 90,-45 0,-22 -90,45 0,-23 90,-45 0,-22 -90,45 0,-22 90,-45 0,-23 -90,45 -10,0 -90,-45 33,-16 90,45 33,-17 -90,-45 34,-17 90,45 5,8 0,101 25,13 0,-101 25,12 0,101 25,13 0,-101 25,12 0,101 5,3 90,-45 0,-22 -90,45 0,-23 90,-45 0,-22 -90,45 0,-22 90,-45 0,-23 -90,45 -10,0 -90,-45 33,-16 90,45 33,-17 -90,-45 34,-17 90,45 5,8 0,101 25,13 0,-101 25,12 0,101 25,13 0,-101 25,12 0,101 5,3 90,-45 0,-22 -90,45 0,-23 90,-45 0,-22 -90,45 0,-22 90,-45 0,-23 -90,45 -10,0 -90,-45 33,-16 90,45 33,-17 -90,-45 34,-17 90,45 5,8 0,101 25,13 0,-101 25,12 0,101 25,13 0,-101 25,12 0,101 5,3 90,-45 0,-22 -90,45 0,-23 90,-45 0,-22 -90,45 0,-22 90,-45 0,-23 -90,45 -10,0 -90,-45 33,-16 90,45 33,-17 -90,-45 34,-17 90,45 5,8 0,101 25,13 0,-101 25,12 0,101 25,13 0,-101 25,12 0,101 5,3 90,-45 0,-22 -90,45 0,-23 90,-45 0,-22 -90,45 0,-22 90,-45 0,-23 -90,45 -10,0 -90,-45 33,-16 90,45 33,-17 -90,-45 34,-17 90,45 5,8 0,101 25,13 0,-101 25,12 0,101 25,13 0,-101 25,12 0,101 5,3 90,-45 0,-22 -90,45 0,-23 90,-45 0,-22 -90,45 0,-22 90,-45 0,-23 -90,45 -10,0 -90,-45 33,-16 90,45 33,-17 -90,-45 34,-17 90,45 5,8 0,101 25,13 0,-101 25,12 0,101 25,13 0,-101 25,12 0,101 5,3 90,-45 0,-22 -90,45 0,-23 90,-45 0,-22 -90,45 0,-22 90,-45 0,-23 -90,45 -10,0 -90,-45 33,-16 90,45 33,-17 -90,-45 34,-17 90,45 5,8 0,101 25,13 0,-101 25,12 0,101 25,13 0,-101 25,12 0,101 5,3 90,-45 0,-22 -90,45 0,-23 90,-45 0,-22 -90,45 0,-22 90,-45 0,-23 -90,45 -10,0 -90,-45 33,-16 90,45 33,-17 -90,-45 34,-17 90,45 5,8 0,101 25,13 0,-101 25,12 0,101 25,13 0,-101 25,12 0,101 5,3 90,-45 0,-22 -90,45 0,-23 90,-45 0,-22 -90,45 0,-22 90,-45 0,-23 -90,45 -10,0 -90,-45 33,-16 90,45 33,-17 -90,-45 34,-17 90,45 5,8 0,101 25,13 0,-101 25,12 0,101 25,13 0,-101 25,12 0,101 5,3 90,-45 0,-22 -90,45 0,-23 90,-45 0,-22 -90,45 0,-22 90,-45 0,-23 -90,45 -10,0 -90,-45 33,-16 90,45 33,-17 -90,-45 34,-17 90,45 5,8 0,101 25,13 0,-101 25,12 0,101 25,13 0,-101 25,12 0,101 5,3 90,-45 0,-22 -90,45 0,-23 90,-45 0,-22 -90,45 0,-22 90,-45 0,-23 -90,45 -10,0 -90,-45 33,-16 90,45 33,-17 -90,-45 34,-17 90,45" />
    <path
       style="fill:none;stroke:#ffc500;stroke-opacity:1"
       inkscape:connector-curvature="0"
       id="path12"
       d="m 300,711.5 0,101 25,12 0,-101 25,13 0,101 25,12 0,-101 25,13 0,101 5,3 90,-45 0,-23 -90,45 0,-22 90,-45 0,-22 -90,45 0,-23 90,-45 0,-22 -90,45 -10,0 -90,-45 33,-17 90,45 33,-16 -90,-45 34,-17 90,45 5,8 0,101 25,12 0,-101 25,13 0,101 25,12 0,-101 25,13 0,101 5,3 90,-45 0,-23 -90,45 0,-22 90,-45 0,-22 -90,45 0,-23 90,-45 0,-22 -90,45 -10,0 -90,-45 33,-17 90,45 33,-16 -90,-45 34,-17 90,45 5,8 0,101 25,12 0,-101 25,13 0,101 25,12 0,-101 25,13 0,101 5,3 90,-45 0,-23 -90,45 0,-22 90,-45 0,-22 -90,45 0,-23 90,-45 0,-22 -90,45 -10,0 -90,-45 33,-17 90,45 33,-16 -90,-45 34,-17 90,45 5,8 0,101 25,12 0,-101 25,13 0,101 25,12 0,-101 25,13 0,101 5,3 90,-45 0,-23 -90,45 0,-22 90,-45 0,-22 -90,45 0,-23 90,-45 0,-22 -90,45 -10,0 -90,-45 33,-17 90,45 33,-16 -90,-45 34,-17 90,45 5,8 0,101 25,12 0,-101 25,13 0,101 25,12 0,-101 25,13 0,101 5,3 90,-45 0,-23 -90,45 0,-22 90,-45 0,-22 -90,45 0,-23 90,-45 0,-22 -90,45 -10,0 -90,-45 33,-17 90,45 33,-16 -90,-45 34,-17 90,45 5,8 0,101 25,12 0,-101 25,13 0,101 25,12 0,-101 25,13 0,101 5,3 90,-45 0,-23 -90,45 0,-22 90,-45 0,-22 -90,45 0,-23 90,-45 0,-22 -90,45 -10,0 -90,-45 33,-17 90,45 33,-16 -90,-45 34,-17 90,45 5,8 0,101 25,12 0,-101 25,13 0,101 25,12 0,-101 25,13 0,101 5,3 90,-45 0,-23 -90,45 0,-22 90,-45 0,-22 -90,45 0,-23 90,-45 0,-22 -90,45 -10,0 -90,-45 33,-17 90,45 33,-16 -90,-45 34,-17 90,45 5,8 0,101 25,12 0,-101 25,13 0,101 25,12 0,-101 25,13 0,101 5,3 90,-45 0,-23 -90,45 0,-22 90,-45 0,-22 -90,45 0,-23 90,-45 0,-22 -90,45 -10,0 -90,-45 33,-17 90,45 33,-16 -90,-45 34,-17 90,45 5,8 0,101 25,12 0,-101 25,13 0,101 25,12 0,-101 25,13 0,101 5,3 90,-45 0,-23 -90,45 0,-22 90,-45 0,-22 -90,45 0,-23 90,-45 0,-22 -90,45 -10,0 -90,-45 33,-17 90,45 33,-16 -90,-45 34,-17 90,45 5,8 0,101 25,12 0,-101 25,13 0,101 25,12 0,-101 25,13 0,101 5,3 90,-45 0,-23 -90,45 0,-22 90,-45 0,-22 -90,45 0,-23 90,-45 0,-22 -90,45 -10,0 -90,-45 33,-17 90,45 33,-16 -90,-45 34,-17 90,45 5,8 0,101 25,12 0,-101 25,13 0,101 25,12 0,-101 25,13 0,101 5,3 90,-45 0,-23 -90,45 0,-22 90,-45 0,-22 -90,45 0,-23 90,-45 0,-22 -90,45 -10,0 -90,-45 33,-17 90,45 33,-16 -90,-45 34,-17 90,45 5,8 0,101 25,12 0,-101 25,13 0,101 25,12 0,-101 25,13 0,101 5,3 90,-45 0,-23 -90,45 0,-22 90,-45 0,-22 -90,45 0,-23 90,-45 0,-22 -90,45 -10,0 -90,-45 33,-17 90,45 33,-16 -90,-45 34,-17 90,45 5,8 0,101 25,12 0,-101 25,13 0,101 25,12 0,-101 25,13 0,101 5,3 90,-45 0,-23 -90,45 0,-22 90,-45 0,-22 -90,45 0,-23 90,-45 0,-22 -90,45 -10,0 -90,-45 33,-17 90,45 33,-16 -90,-45 34,-17 90,45 5,8 0,101 25,12 0,-101 25,13 0,101 25,12 0,-101 25,13 0,101 5,3 90,-45 0,-23 -90,45 0,-22 90,-45 0,-22 -90,45 0,-23 90,-45 0,-22 -90,45 -10,0 -90,-45 33,-17 90,45 33,-16 -90,-45 34,-17 90,45 5,8 0,101 25,12 0,-101 25,13 0,101 25,12 0,-101 25,13 0,101 5,3 90,-45 0,-23 -90,45 0,-22 90,-45 0,-22 -90,45 0,-23 90,-45 0,-22 -90,45 -10,0 -90,-45 33,-17 90,45 33,-16 -90,-45 34,-17 90,45 5,8 0,101 25,12 0,-101 25,13 0,101 25,12 0,-101 25,13 0,101 5,3 90,-45 0,-23 -90,45 0,-22 90,-45 0,-22 -90,45 0,-23 90,-45 0,-22 -90,45 -10,0 -90,-45 33,-17 90,45 33,-16 -90,-45 34,-17 90,45" />
  </g>
  <g
     style="display:inline"
     inkscape:label="1-RED"
     id="layer1"
     inkscape:groupmode="layer">
    <path
       style="fill:none;stroke:#ff00ff;stroke-opacity:1"
       inkscape:connector-curvature="0"
       id="path6"
       d="m 0,226.5 0,100 25,13 0,-101 25,13 0,100 25,13 0,-101 25,13 0,100 5,3 90,-45 0,-22 -90,45 0,-22 90,-45 0,-23 -90,45 0,-22 90,-45 0,-23 -90,45 -10,0 -90,-45 33,-16 90,45 33,-17 -90,-45 34,-17 90,45 5,9 0,100 25,13 0,-101 25,13 0,100 25,13 0,-101 25,13 0,100 5,3 90,-45 0,-22 -90,45 0,-22 90,-45 0,-23 -90,45 0,-22 90,-45 0,-23 -90,45 -10,0 -90,-45 33,-16 90,45 33,-17 -90,-45 34,-17 90,45 5,9 0,100 25,13 0,-101 25,13 0,100 25,13 0,-101 25,13 0,100 5,3 90,-45 0,-22 -90,45 0,-22 90,-45 0,-23 -90,45 0,-22 90,-45 0,-23 -90,45 -10,0 -90,-45 33,-16 90,45 33,-17 -90,-45 34,-17 90,45 5,9 0,100 25,13 0,-101 25,13 0,100 25,13 0,-101 25,13 0,100 5,3 90,-45 0,-22 -90,45 0,-22 90,-45 0,-23 -90,45 0,-22 90,-45 0,-23 -90,45 -10,0 -90,-45 33,-16 90,45 33,-17 -90,-45 34,-17 90,45 5,9 0,100 25,13 0,-101 25,13 0,100 25,13 0,-101 25,13 0,100 5,3 90,-45 0,-22 -90,45 0,-22 90,-45 0,-23 -90,45 0,-22 90,-45 0,-23 -90,45 -10,0 -90,-45 33,-16 90,45 33,-17 -90,-45 34,-17 90,45 5,9 0,100 25,13 0,-101 25,13 0,100 25,13 0,-101 25,13 0,100 5,3 90,-45 0,-22 -90,45 0,-22 90,-45 0,-23 -90,45 0,-22 90,-45 0,-23 -90,45 -10,0 -90,-45 33,-16 90,45 33,-17 -90,-45 34,-17 90,45 5,9 0,100 25,13 0,-101 25,13 0,100 25,13 0,-101 25,13 0,100 5,3 90,-45 0,-22 -90,45 0,-22 90,-45 0,-23 -90,45 0,-22 90,-45 0,-23 -90,45 -10,0 -90,-45 33,-16 90,45 33,-17 -90,-45 34,-17 90,45 5,9 0,100 25,13 0,-101 25,13 0,100 25,13 0,-101 25,13 0,100 5,3 90,-45 0,-22 -90,45 0,-22 90,-45 0,-23 -90,45 0,-22 90,-45 0,-23 -90,45 -10,0 -90,-45 33,-16 90,45 33,-17 -90,-45 34,-17 90,45 5,9 0,100 25,13 0,-101 25,13 0,100 25,13 0,-101 25,13 0,100 5,3 90,-45 0,-22 -90,45 0,-22 90,-45 0,-23 -90,45 0,-22 90,-45 0,-23 -90,45 -10,0 -90,-45 33,-16 90,45 33,-17 -90,-45 34,-17 90,45 5,9 0,100 25,13 0,-101 25,13 0,100 25,13 0,-101 25,13 0,100 5,3 90,-45 0,-22 -90,45 0,-22 90,-45 0,-23 -90,45 0,-22 90,-45 0,-23 -90,45 -10,0 -90,-45 33,-16 90,45 33,-17 -90,-45 34,-17 90,45 5,9 0,100 25,13 0,-101 25,13 0,100 25,13 0,-101 25,13 0,100 5,3 90,-45 0,-22 -90,45 0,-22 90,-45 0,-23 -90,45 0,-22 90,-45 0,-23 -90,45 -10,0 -90,-45 33,-16 90,45 33,-17 -90,-45 34,-17 90,45 5,9 0,100 25,13 0,-101 25,13 0,100 25,13 0,-101 25,13 0,100 5,3 90,-45 0,-22 -90,45 0,-22 90,-45 0,-23 -90,45 0,-22 90,-45 0,-23 -90,45 -10,0 -90,-45 33,-16 90,45 33,-17 -90,-45 34,-17 90,45 5,9 0,100 25,13 0,-101 25,13 0,100 25,13 0,-101 25,13 0,100 5,3 90,-45 0,-22 -90,45 0,-22 90,-45 0,-23 -90,45 0,-22 90,-45 0,-23 -90,45 -10,0 -90,-45 33,-16 90,45 33,-17 -90,-45 34,-17 90,45 5,9 0,100 25,13 0,-101 25,13 0,100 25,13 0,-101 25,13 0,100 5,3 90,-45 0,-22 -90,45 0,-22 90,-45 0,-23 -90,45 0,-22 90,-45 0,-23 -90,45 -10,0 -90,-45 33,-16 90,45 33,-17 -90,-45 34,-17 90,45 5,9 0,100 25,13 0,-101 25,13 0,100 25,13 0,-101 25,13 0,100 5,3 90,-45 0,-22 -90,45 0,-22 90,-45 0,-23 -90,45 0,-22 90,-45 0,-23 -90,45 -10,0 -90,-45 33,-16 90,45 33,-17 -90,-45 34,-17 90,45 5,9 0,100 25,13 0,-101 25,13 0,100 25,13 0,-101 25,13 0,100 5,3 90,-45 0,-22 -90,45 0,-22 90,-45 0,-23 -90,45 0,-22 90,-45 0,-23 -90,45 -10,0 -90,-45 33,-16 90,45 33,-17 -90,-45 34,-17 90,45" />
    <path
       style="fill:none;stroke:#ff00ff;stroke-opacity:1"
       inkscape:connector-curvature="0"
       id="path14"
       d="m 400,873.5 0,100 25,13 0,-101 25,13 0,100 25,13 0,-101 25,13 0,100 5,4 90,-45 0,-23 -90,45 0,-22 90,-45 0,-23 -90,45 0,-22 90,-45 0,-22 -90,45 -10,0 -90,-45 33,-17 90,45 33,-17 -90,-45 34,-16 90,45 5,8 0,100 25,13 0,-101 25,13 0,100 25,13 0,-101 25,13 0,100 5,4 90,-45 0,-23 -90,45 0,-22 90,-45 0,-23 -90,45 0,-22 90,-45 0,-22 -90,45 -10,0 -90,-45 33,-17 90,45 33,-17 -90,-45 34,-16 90,45 5,8 0,100 25,13 0,-101 25,13 0,100 25,13 0,-101 25,13 0,100 5,4 90,-45 0,-23 -90,45 0,-22 90,-45 0,-23 -90,45 0,-22 90,-45 0,-22 -90,45 -10,0 -90,-45 33,-17 90,45 33,-17 -90,-45 34,-16 90,45 5,8 0,100 25,13 0,-101 25,13 0,100 25,13 0,-101 25,13 0,100 5,4 90,-45 0,-23 -90,45 0,-22 90,-45 0,-23 -90,45 0,-22 90,-45 0,-22 -90,45 -10,0 -90,-45 33,-17 90,45 33,-17 -90,-45 34,-16 90,45 5,8 0,100 25,13 0,-101 25,13 0,100 25,13 0,-101 25,13 0,100 5,4 90,-45 0,-23 -90,45 0,-22 90,-45 0,-23 -90,45 0,-22 90,-45 0,-22 -90,45 -10,0 -90,-45 33,-17 90,45 33,-17 -90,-45 34,-16 90,45 5,8 0,100 25,13 0,-101 25,13 0,100 25,13 0,-101 25,13 0,100 5,4 90,-45 0,-23 -90,45 0,-22 90,-45 0,-23 -90,45 0,-22 90,-45 0,-22 -90,45 -10,0 -90,-45 33,-17 90,45 33,-17 -90,-45 34,-16 90,45 5,8 0,100 25,13 0,-101 25,13 0,100 25,13 0,-101 25,13 0,100 5,4 90,-45 0,-23 -90,45 0,-22 90,-45 0,-23 -90,45 0,-22 90,-45 0,-22 -90,45 -10,0 -90,-45 33,-17 90,45 33,-17 -90,-45 34,-16 90,45 5,8 0,100 25,13 0,-101 25,13 0,100 25,13 0,-101 25,13 0,100 5,4 90,-45 0,-23 -90,45 0,-22 90,-45 0,-23 -90,45 0,-22 90,-45 0,-22 -90,45 -10,0 -90,-45 33,-17 90,45 33,-17 -90,-45 34,-16 90,45 5,8 0,100 25,13 0,-101 25,13 0,100 25,13 0,-101 25,13 0,100 5,4 90,-45 0,-23 -90,45 0,-22 90,-45 0,-23 -90,45 0,-22 90,-45 0,-22 -90,45 -10,0 -90,-45 33,-17 90,45 33,-17 -90,-45 34,-16 90,45 5,8 0,100 25,13 0,-101 25,13 0,100 25,13 0,-101 25,13 0,100 5,4 90,-45 0,-23 -90,45 0,-22 90,-45 0,-23 -90,45 0,-22 90,-45 0,-22 -90,45 -10,0 -90,-45 33,-17 90,45 33,-17 -90,-45 34,-16 90,45 5,8 0,100 25,13 0,-101 25,13 0,100 25,13 0,-101 25,13 0,100 5,4 90,-45 0,-23 -90,45 0,-22 90,-45 0,-23 -90,45 0,-22 90,-45 0,-22 -90,45 -10,0 -90,-45 33,-17 90,45 33,-17 -90,-45 34,-16 90,45 5,8 0,100 25,13 0,-101 25,13 0,100 25,13 0,-101 25,13 0,100 5,4 90,-45 0,-23 -90,45 0,-22 90,-45 0,-23 -90,45 0,-22 90,-45 0,-22 -90,45 -10,0 -90,-45 33,-17 90,45 33,-17 -90,-45 34,-16 90,45 5,8 0,100 25,13 0,-101 25,13 0,100 25,13 0,-101 25,13 0,100 5,4 90,-45 0,-23 -90,45 0,-22 90,-45 0,-23 -90,45 0,-22 90,-45 0,-22 -90,45 -10,0 -90,-45 33,-17 90,45 33,-17 -90,-45 34,-16 90,45 5,8 0,100 25,13 0,-101 25,13 0,100 25,13 0,-101 25,13 0,100 5,4 90,-45 0,-23 -90,45 0,-22 90,-45 0,-23 -90,45 0,-22 90,-45 0,-22 -90,45 -10,0 -90,-45 33,-17 90,45 33,-17 -90,-45 34,-16 90,45 5,8 0,100 25,13 0,-101 25,13 0,100 25,13 0,-101 25,13 0,100 5,4 90,-45 0,-23 -90,45 0,-22 90,-45 0,-23 -90,45 0,-22 90,-45 0,-22 -90,45 -10,0 -90,-45 33,-17 90,45 33,-17 -90,-45 34,-16 90,45 5,8 0,100 25,13 0,-101 25,13 0,100 25,13 0,-101 25,13 0,100 5,4 90,-45 0,-23 -90,45 0,-22 90,-45 0,-23 -90,45 0,-22 90,-45 0,-22 -90,45 -10,0 -90,-45 33,-17 90,45 33,-17 -90,-45 34,-16 90,45" />
  </g>
  <eggbot
     id="eggbot3785"
     totaldeltay="0"
     totaldeltax="0"
     lastpathnc="0"
     lastpath="0"
     node="0"
     layer="0"
     serialport="/dev/ttyACM0" />
</svg>
