<?xml version="1.0" encoding="UTF-8" standalone="no"?>
<!-- Created with Inkscape (http://www.inkscape.org/) -->

<svg
   xmlns:dc="http://purl.org/dc/elements/1.1/"
   xmlns:cc="http://creativecommons.org/ns#"
   xmlns:rdf="http://www.w3.org/1999/02/22-rdf-syntax-ns#"
   xmlns:svg="http://www.w3.org/2000/svg"
   xmlns="http://www.w3.org/2000/svg"
   xmlns:sodipodi="http://sodipodi.sourceforge.net/DTD/sodipodi-0.dtd"
   xmlns:inkscape="http://www.inkscape.org/namespaces/inkscape"
   width="3200"
   height="1000"
   id="svg27345"
   version="1.1"
   inkscape:version="0.48.1 r9760"
   sodipodi:docname="guy_fawkes_mask.svg">
  <sodipodi:namedview
     id="base"
     pagecolor="#ffffff"
     bordercolor="#666666"
     borderopacity="1.0"
     inkscape:pageopacity="0.0"
     inkscape:pageshadow="2"
     inkscape:zoom="0.21787746"
     inkscape:cx="1930.1942"
     inkscape:cy="117.9765"
     inkscape:document-units="px"
     inkscape:current-layer="svg27345"
     showgrid="false"
     inkscape:window-width="1152"
     inkscape:window-height="787"
     inkscape:window-x="0"
     inkscape:window-y="24"
     inkscape:window-maximized="1" />
  <defs
     id="defs27347">
    <inkscape:path-effect
       back_thickness="0.25"
       front_thickness="1"
       stroke_width_bottom="1"
       stroke_width_top="1"
       fat_output="false"
       bottom_smth_variation="0;1"
       top_smth_variation="0;1"
       scale_tb="2"
       scale_tf="2"
       scale_bb="2"
       scale_bf="2"
       top_tgt_variation="0;1"
       bottom_tgt_variation="0;1"
       top_edge_variation="0;1"
       bottom_edge_variation="0;1"
       bender="1739.4497,328.81746 , 5,0"
       do_bend="true"
       growth="0"
       dist_rdm="0;1"
       direction="1739.4497,323.81746 , 24.544264,0"
       is_visible="true"
       id="path-effect12929"
       effect="rough_hatches" />
    <inkscape:path-effect
       effect="rough_hatches"
       id="path-effect12827"
       is_visible="true"
       direction="1823.3086,329.53607 , 20.689471,0"
       dist_rdm="0;1"
       growth="0"
       do_bend="true"
       bender="1823.3086,334.53607 , 5,0"
       bottom_edge_variation="0;1"
       top_edge_variation="0;1"
       bottom_tgt_variation="0;1"
       top_tgt_variation="0;1"
       scale_bf="2"
       scale_bb="2"
       scale_tf="2"
       scale_tb="2"
       top_smth_variation="0;1"
       bottom_smth_variation="0;1"
       fat_output="false"
       stroke_width_top="1"
       stroke_width_bottom="1"
       front_thickness="1"
       back_thickness="0.25" />
    <inkscape:path-effect
       back_thickness="0.25"
       front_thickness="1"
       stroke_width_bottom="1"
       stroke_width_top="1"
       fat_output="false"
       bottom_smth_variation="0;1"
       top_smth_variation="0;1"
       scale_tb="2"
       scale_tf="2"
       scale_bb="2"
       scale_bf="2"
       top_tgt_variation="0;1"
       bottom_tgt_variation="0;1"
       top_edge_variation="0;1"
       bottom_edge_variation="0;1"
       bender="1757.6305,234.91969 , 5,0"
       do_bend="true"
       growth="0"
       dist_rdm="0;1"
       direction="1757.6305,229.91969 , 21.789084,0.94280904"
       is_visible="true"
       id="path-effect12727"
       effect="rough_hatches" />
    <inkscape:path-effect
       effect="rough_hatches"
       id="path-effect12631"
       is_visible="true"
       direction="1599.9999,754.99788 , 0.70999866,19.327585"
       dist_rdm="0;1"
       growth="0"
       do_bend="true"
       bender="1599.9999,759.99788 , 5,0"
       bottom_edge_variation="0;1"
       top_edge_variation="0;1"
       bottom_tgt_variation="0;1"
       top_tgt_variation="0;1"
       scale_bf="2"
       scale_bb="2"
       scale_tf="2"
       scale_tb="2"
       top_smth_variation="0;1"
       bottom_smth_variation="0;1"
       fat_output="false"
       stroke_width_top="1"
       stroke_width_bottom="1"
       front_thickness="1"
       back_thickness="0.25" />
    <inkscape:path-effect
       back_thickness="0.25"
       front_thickness="1"
       stroke_width_bottom="1"
       stroke_width_top="1"
       fat_output="false"
       bottom_smth_variation="0;1"
       top_smth_variation="0;1"
       scale_tb="2"
       scale_tf="2"
       scale_bb="2"
       scale_bf="2"
       top_tgt_variation="0;1"
       bottom_tgt_variation="0;1"
       top_edge_variation="0;1"
       bottom_edge_variation="0;1"
       bender="1600,617.7179 , 5,0"
       do_bend="true"
       growth="0"
       dist_rdm="0;1"
       direction="1600,612.7179 , -0.19108734,13.670731"
       is_visible="true"
       id="path-effect12539"
       effect="rough_hatches" />
    <inkscape:path-effect
       back_thickness="0.25"
       front_thickness="1"
       stroke_width_bottom="1"
       stroke_width_top="1"
       fat_output="false"
       bottom_smth_variation="0;1"
       top_smth_variation="0;1"
       scale_tb="2"
       scale_tf="2"
       scale_bb="2"
       scale_bf="2"
       top_tgt_variation="0;1"
       bottom_tgt_variation="0;1"
       top_edge_variation="0;1"
       bottom_edge_variation="0;1"
       bender="1539.0851,517.33234 , 11.599663,0.47140452"
       do_bend="true"
       growth="0"
       dist_rdm="0;1"
       direction="1539.0851,512.33234 , 14.381423,0"
       is_visible="true"
       id="path-effect12367"
       effect="rough_hatches" />
    <inkscape:path-effect
       back_thickness="0.25"
       front_thickness="1"
       stroke_width_bottom="1"
       stroke_width_top="1"
       fat_output="false"
       bottom_smth_variation="0;1"
       top_smth_variation="0;1"
       scale_tb="2"
       scale_tf="2"
       scale_bb="2"
       scale_bf="2"
       top_tgt_variation="0;1"
       bottom_tgt_variation="0;1"
       top_edge_variation="0;1"
       bottom_edge_variation="0;1"
       bender="1660.9149,517.33234 , 5,0"
       do_bend="true"
       growth="0"
       dist_rdm="0;1"
       direction="1660.9149,512.33234 , 21.45247,-1.8856181"
       is_visible="true"
       id="path-effect12363"
       effect="rough_hatches" />
    <inkscape:path-effect
       effect="rough_hatches"
       id="path-effect12283"
       is_visible="true"
       direction="1600,589.53523 , 41.84548,0.94280904"
       dist_rdm="0;1"
       growth="0"
       do_bend="true"
       bender="1600,594.53523 , 5,0"
       bottom_edge_variation="0;1"
       top_edge_variation="0;1"
       bottom_tgt_variation="0;1"
       top_tgt_variation="0;1"
       scale_bf="2"
       scale_bb="2"
       scale_tf="2"
       scale_tb="2"
       top_smth_variation="0;1"
       bottom_smth_variation="0;1"
       fat_output="false"
       stroke_width_top="1"
       stroke_width_bottom="1"
       front_thickness="1"
       back_thickness="0.25" />
    <inkscape:path-effect
       back_thickness="0.25"
       front_thickness="1"
       stroke_width_bottom="1"
       stroke_width_top="1"
       fat_output="false"
       bottom_smth_variation="0;1"
       top_smth_variation="0;1"
       scale_tb="2"
       scale_tf="2"
       scale_bb="2"
       scale_bf="2"
       top_tgt_variation="0;1"
       bottom_tgt_variation="0;1"
       top_edge_variation="0;1"
       bottom_edge_variation="0;1"
       bender="1600,414.86532 , 5,0"
       do_bend="true"
       growth="0"
       dist_rdm="0;1"
       direction="1600,409.86532 , 22.483763,-0.94280903"
       is_visible="true"
       id="path-effect11437"
       effect="rough_hatches" />
    <inkscape:path-effect
       effect="rough_hatches"
       id="path-effect11363"
       is_visible="true"
       direction="1460.5503,323.81746 , 37.743616,0"
       dist_rdm="0;1"
       growth="0"
       do_bend="true"
       bender="1460.5503,328.81746 , 5,0"
       bottom_edge_variation="0;1"
       top_edge_variation="0;1"
       bottom_tgt_variation="0;1"
       top_tgt_variation="0;1"
       scale_bf="2"
       scale_bb="2"
       scale_tf="2"
       scale_tb="2"
       top_smth_variation="0;1"
       bottom_smth_variation="0;1"
       fat_output="false"
       stroke_width_top="1"
       stroke_width_bottom="1"
       front_thickness="1"
       back_thickness="0.25" />
    <inkscape:path-effect
       effect="rough_hatches"
       id="path-effect11359"
       is_visible="true"
       direction="1376.6914,329.5362 , 36.717225,0"
       dist_rdm="0;1"
       growth="0"
       do_bend="true"
       bender="1376.6914,334.5362 , 5,0"
       bottom_edge_variation="0;1"
       top_edge_variation="0;1"
       bottom_tgt_variation="0;1"
       top_tgt_variation="0;1"
       scale_bf="2"
       scale_bb="2"
       scale_tf="2"
       scale_tb="2"
       top_smth_variation="0;1"
       bottom_smth_variation="0;1"
       fat_output="false"
       stroke_width_top="1"
       stroke_width_bottom="1"
       front_thickness="1"
       back_thickness="0.25" />
    <inkscape:path-effect
       effect="rough_hatches"
       id="path-effect11352"
       is_visible="true"
       direction="1096.0634,318.19853 , 12.221233,0"
       dist_rdm="0;1"
       growth="0"
       do_bend="true"
       bender="1096.0634,323.19853 , 5,0"
       bottom_edge_variation="0;1"
       top_edge_variation="0;1"
       bottom_tgt_variation="0;1"
       top_tgt_variation="0;1"
       scale_bf="2"
       scale_bb="2"
       scale_tf="2"
       scale_tb="2"
       top_smth_variation="0;1"
       bottom_smth_variation="0;1"
       fat_output="false"
       stroke_width_top="1"
       stroke_width_bottom="1"
       front_thickness="1"
       back_thickness="0.25" />
    <inkscape:path-effect
       effect="rough_hatches"
       id="path-effect11349"
       is_visible="true"
       direction="1096.0695,318.34387 , 39.255174,0"
       dist_rdm="0;1"
       growth="0"
       do_bend="true"
       bender="1096.0695,323.34387 , 5,0"
       bottom_edge_variation="0;1"
       top_edge_variation="0;1"
       bottom_tgt_variation="0;1"
       top_tgt_variation="0;1"
       scale_bf="2"
       scale_bb="2"
       scale_tf="2"
       scale_tb="2"
       top_smth_variation="0;1"
       bottom_smth_variation="0;1"
       fat_output="false"
       stroke_width_top="1"
       stroke_width_bottom="1"
       front_thickness="1"
       back_thickness="0.25" />
    <inkscape:path-effect
       back_thickness="0.25"
       front_thickness="1"
       stroke_width_bottom="1"
       stroke_width_top="1"
       fat_output="false"
       bottom_smth_variation="0;1"
       top_smth_variation="0;1"
       scale_tb="2"
       scale_tf="2"
       scale_bb="2"
       scale_bf="2"
       top_tgt_variation="0;1"
       bottom_tgt_variation="0;1"
       top_edge_variation="0;1"
       bottom_edge_variation="0;1"
       bender="1096.0634,323.19853 , 5,0"
       do_bend="true"
       growth="0"
       dist_rdm="0;1"
       direction="1096.0634,318.19853 , 12.221233,0"
       is_visible="true"
       id="path-effect11270"
       effect="rough_hatches" />
    <inkscape:path-effect
       effect="rough_hatches"
       id="path-effect11212"
       is_visible="true"
       direction="1096.0634,318.19853 , 39.316625,0"
       dist_rdm="0;1"
       growth="0"
       do_bend="true"
       bender="1096.0634,323.19853 , 5,0"
       bottom_edge_variation="0;1"
       top_edge_variation="0;1"
       bottom_tgt_variation="0;1"
       top_tgt_variation="0;1"
       scale_bf="2"
       scale_bb="2"
       scale_tf="2"
       scale_tb="2"
       top_smth_variation="0;1"
       bottom_smth_variation="0;1"
       fat_output="false"
       stroke_width_top="1"
       stroke_width_bottom="1"
       front_thickness="1"
       back_thickness="0.25" />
    <inkscape:path-effect
       back_thickness="0.25"
       front_thickness="1"
       stroke_width_bottom="1"
       stroke_width_top="1"
       fat_output="false"
       bottom_smth_variation="0;1"
       top_smth_variation="0;1"
       scale_tb="2"
       scale_tf="2"
       scale_bb="2"
       scale_bf="2"
       top_tgt_variation="0;1"
       bottom_tgt_variation="0;1"
       top_edge_variation="0;1"
       bottom_edge_variation="0;1"
       bender="1442.3695,234.91969 , 5,0"
       do_bend="true"
       growth="0"
       dist_rdm="0;1"
       direction="1442.3695,229.91969 , 34.880607,0.94280904"
       is_visible="true"
       id="path-effect11153"
       effect="rough_hatches" />
    <inkscape:perspective
       sodipodi:type="inkscape:persp3d"
       inkscape:vp_x="0 : 526.18109 : 1"
       inkscape:vp_y="0 : 1000 : 0"
       inkscape:vp_z="744.09448 : 526.18109 : 1"
       inkscape:persp3d-origin="372.04724 : 350.78739 : 1"
       id="perspective27353" />
    <inkscape:perspective
       id="perspective2948"
       inkscape:persp3d-origin="0.5 : 0.33333333 : 1"
       inkscape:vp_z="1 : 0.5 : 1"
       inkscape:vp_y="0 : 1000 : 0"
       inkscape:vp_x="0 : 0.5 : 1"
       sodipodi:type="inkscape:persp3d" />
    <inkscape:perspective
       id="perspective2911"
       inkscape:persp3d-origin="0.5 : 0.33333333 : 1"
       inkscape:vp_z="1 : 0.5 : 1"
       inkscape:vp_y="0 : 1000 : 0"
       inkscape:vp_x="0 : 0.5 : 1"
       sodipodi:type="inkscape:persp3d" />
    <inkscape:perspective
       id="perspective2897"
       inkscape:persp3d-origin="0.5 : 0.33333333 : 1"
       inkscape:vp_z="1 : 0.5 : 1"
       inkscape:vp_y="0 : 1000 : 0"
       inkscape:vp_x="0 : 0.5 : 1"
       sodipodi:type="inkscape:persp3d" />
    <inkscape:perspective
       id="perspective12"
       inkscape:persp3d-origin="372.04724 : 350.78739 : 1"
       inkscape:vp_z="744.09448 : 526.18109 : 1"
       inkscape:vp_y="0 : 1000 : 0"
       inkscape:vp_x="0 : 526.18109 : 1"
       sodipodi:type="inkscape:persp3d" />
    <inkscape:perspective
       id="perspective13"
       inkscape:persp3d-origin="376.56 : 223.84001 : 1"
       inkscape:vp_z="753.12 : 335.76001 : 1"
       inkscape:vp_y="0 : 1000 : 0"
       inkscape:vp_x="0 : 335.76001 : 1"
       sodipodi:type="inkscape:persp3d" />
    <inkscape:perspective
       sodipodi:type="inkscape:persp3d"
       inkscape:vp_x="0 : 526.18109 : 1"
       inkscape:vp_y="0 : 1000 : 0"
       inkscape:vp_z="744.09448 : 526.18109 : 1"
       inkscape:persp3d-origin="372.04724 : 350.78739 : 1"
       id="perspective10" />
  </defs>
  <metadata
     id="metadata27350">
    <rdf:RDF>
      <cc:Work
         rdf:about="">
        <dc:format>image/svg+xml</dc:format>
        <dc:type
           rdf:resource="http://purl.org/dc/dcmitype/StillImage" />
        <dc:title />
      </cc:Work>
    </rdf:RDF>
  </metadata>
  <g
     inkscape:label="Layer 1"
     inkscape:groupmode="layer"
     id="layer1"
     transform="translate(0,-52.36218)" />
  <eggbot
     serialport="/dev/ttyACM0"
     layer="0"
     node="0"
     id="eggbot8241"
     lastpath="0"
     lastpathnc="0"
     totaldeltax="0"
     totaldeltay="0" />
  <g
     id="g13037"
     transform="translate(0,1.2151719)">
    <path
       style="fill:none;stroke:#3465a4;stroke-width:2.80175948"
       d="m 1600.0111,558.78502 c 5.8484,0 6.4598,-0.40449 17.1104,13.3313 6.2343,8.04024 19.7161,25.18507 26.8662,35.48773 l 107.1008,-0.39463 c 13.345,-0.60302 14.8169,-2.1383 20.3394,-6.10184 10.0948,-7.24518 19.5144,-19.49671 41.6199,-54.15747 6.6786,-10.47189 15.2029,-23.68493 18.9429,-29.35555 5.6829,-9.13197 3.6059,-10.60744 18.6091,-13.60008 -10.866,26.94147 -24.7577,58.68708 -34.0609,72.79689 -18.301,27.75616 -47.4544,57.51356 -105.2186,76.07547 44.9329,-7.78939 59.1643,-21.46672 89.0988,-45.90027 -20.34,41.98767 -48.6989,79.94392 -74.9219,118.27218 58.9415,-62.70203 115.4601,-132.20519 145.6545,-213.80672 5.2315,-15.99199 11.1691,-37.91873 10.4733,-38.61455 -11.1042,12.43261 -24.6025,26.23461 -53.2468,26.89661 -43.3388,1.00158 -76.7137,-12.22707 -108.0114,-35.88238 -3.2968,2.40301 -7.3051,4.50293 -7.3768,9.41077 -0.067,4.60579 4.987,9.68501 14.8751,15.26976 16.2368,9.17041 57.9124,20.00549 76.9255,20.00549 2.4078,0 4.3714,0.22666 4.3714,0.51605 0,0.28945 -11.1724,14.49603 -24.8323,31.54129 -20.964,26.15958 -25.3941,31.16825 -28.4144,32.20914 -7.0084,2.4152 -46.1639,0.82074 -67.2112,-2.73217 -10.0933,-1.7038 -14.6028,-3.57426 -20.0055,-8.31792 -9.7893,-9.99141 -17.2345,-22.32753 -27.2305,-31.84485 -11.0843,4.18305 -22.8592,8.53161 -41.4681,8.74292 -14.5205,0.16502 -28.077,-3.74909 -41.4681,-8.74292 -9.996,9.51732 -17.4412,21.85344 -27.2306,31.84485 -5.4027,4.74366 -9.9122,6.61412 -20.0055,8.31792 -21.0472,3.55291 -60.2027,5.14737 -67.2111,2.73217 -3.0204,-1.04089 -7.4505,-6.04956 -28.4145,-32.20914 -13.6599,-17.04526 -24.8323,-31.25184 -24.8323,-31.54129 0,-0.28942 1.9637,-0.51605 4.3715,-0.51605 19.0131,0 60.6886,-10.83508 76.9255,-20.00549 9.8881,-5.58475 14.9423,-10.66397 14.8751,-15.26976 -0.072,-4.90784 -4.08,-7.00776 -7.3769,-9.41077 -31.2977,23.65531 -64.6725,36.88396 -108.0115,35.88238 -28.6443,-0.662 -42.1424,-14.464 -53.2466,-26.89661 -0.6959,0.69582 5.2418,22.62256 10.4733,38.61455 30.1943,81.60153 86.7129,151.10469 145.6544,213.80672 -26.223,-38.32826 -54.5819,-76.28451 -74.9219,-118.27218 29.9345,24.43355 44.1659,38.11088 89.0988,45.90027 -57.7642,-18.56191 -86.9175,-48.31931 -105.2185,-76.07547 -9.3033,-14.10981 -23.195,-45.85542 -34.0611,-72.79689 15.0034,2.99264 12.9262,4.46811 18.6093,13.60008 3.7398,5.67062 12.2642,18.88366 18.9429,29.35555 22.1054,34.66076 31.525,46.91229 41.6199,54.15747 5.5225,3.96354 6.9944,5.49882 20.3394,6.10184 l 107.1007,0.39463 c 7.1501,-10.30266 20.6319,-27.44749 26.8662,-35.48773 10.6506,-13.73579 11.2843,-13.3313 17.1327,-13.3313 z"
       id="path11151"
       inkscape:connector-curvature="0" />
    <path
       inkscape:connector-curvature="0"
       style="fill:none;stroke:#3465a4;stroke-width:8;stroke-miterlimit:4;stroke-dasharray:none"
       d="m 1551.6551,319.65842 c 0,0 0.7084,2.8956 0.725,2.60517 0.017,-0.29044 -0.6318,-3.76691 -3.4666,-16.51105 -1.4175,-6.37208 -2.17,-8.97548 -2.5845,-9.42727 -0.4146,-0.45179 -0.4959,1.24803 -0.6063,3.48239 -0.2208,4.46874 -0.5654,11.07566 -3.839,6.88428 -6.5471,-8.38276 1.2078,-24.50346 -5.1784,-40.1945 -3.1931,-7.84552 -3.4808,0.10714 -3.8488,9.07254 -0.3681,8.9654 -0.837,18.94354 -4.1521,15.14898 -3.315,-3.79455 -2.5295,-21.35582 -1.9598,-38.64537 0.5696,-17.28954 0.9285,-34.30738 -2.5074,-37.01506 -3.436,-2.70769 -3.7658,14.31013 -4.2867,31.156 -0.521,16.84587 -1.2284,33.51979 -4.5787,30.1243 -3.3504,-3.3955 -2.6847,-20.06595 -2.2135,-36.46049 0.4711,-16.39453 0.753,-32.51314 -2.6993,-34.80493 -3.4522,-2.2918 -3.7111,13.82702 -4.1416,29.76927 -0.4305,15.94225 -1.028,31.70791 -4.408,28.70981 -3.38,-2.99811 -2.8175,-18.76137 -2.4288,-34.2557 0.3888,-15.49432 0.6087,-30.71971 -2.8553,-32.64206 -3.464,-1.92235 -3.6661,13.30343 -4.0216,28.35839 -0.3555,15.05496 -0.8603,29.93909 -4.2648,27.33344 -3.4046,-2.60565 -2.9287,-17.48807 -2.6074,-32.11547 0.3213,-14.62739 0.4923,-28.99975 -2.9802,-30.58527 -3.4725,-1.58553 -3.6299,12.78737 -3.9245,27.00148 -0.2947,14.21411 -0.723,28.26943 -4.1476,26.04875 -3.4246,-2.22068 -3.0198,-16.27478 -2.7527,-30.0917 0.2672,-13.81691 0.4005,-27.39664 -3.0781,-28.66858 -3.4785,-1.27193 -3.6018,12.30843 -3.8481,25.7455 -0.2462,13.43707 -0.6124,26.73084 -4.0534,24.88573 -3.441,-1.84512 -3.0933,-15.13804 -2.8687,-28.21339 0.2246,-13.07535 0.3297,-25.93314 -3.1533,-26.908 -3.4829,-0.97487 -3.5808,11.88362 -3.7894,24.61576 -0.2087,12.73213 -0.5256,25.33791 -3.9798,23.85761 -3.4541,-1.48029 -3.1515,-14.08549 -2.9595,-26.49292 0.1921,-12.40743 0.2766,-24.61709 -3.2093,-25.30631 -3.486,-0.68922 -3.566,11.52052 -3.7463,23.62147 -0.1803,12.10095 -0.4588,24.09311 -3.9238,22.96871 -3.4649,-1.12439 -3.1969,-13.11619 -3.0289,-24.92964 0.168,-11.81344 0.2387,-23.44853 -3.2495,-23.85948 -3.4881,-0.41095 -3.5566,11.22578 -3.7164,22.77046 -0.1599,11.54469 -0.4095,22.99733 -3.8834,22.21822 -3.4738,-0.77912 -4.1034,-12.26578 -3.9522,-23.55766 0.1511,-11.29187 1.0858,-22.38897 1.0858,-22.38897 m 131.5719,64.09438 c 0,0 3.0368,14.95577 -3.9727,15.80819 -3.5048,0.42621 -3.3392,-4.48503 -3.1667,-10.30079 0.1725,-5.81575 0.3465,-12.53601 -3.0667,-15.72783 -3.4132,-3.19182 -4.432,3.1273 -4.6297,10.24436 -0.1977,7.11707 0.4162,15.03209 0.4162,15.03209 m -12.5661,-63.39207 c 0,0 3.461,2.66234 -3.4921,0.13836 -6.9531,-2.52397 0.034,-2.88227 -6.9064,-7.60846 -6.941,-4.72619 -0.047,5.09198 -7.0085,3.01497 -6.9614,-2.07701 0.066,-7.73497 -6.8927,-11.74942 -6.9591,-4.01445 -0.069,9.67737 -7.0363,7.99795 -6.9673,-1.67942 0.076,-12.0108 -6.895,-15.34383 -3.4856,-1.66651 -3.494,1.75035 -3.5118,5.41964 -0.018,3.66928 -0.047,7.59099 -3.5325,6.93417 -6.9717,-1.31366 0.072,-15.68869 -6.9065,-18.33899 -3.4894,-1.32516 -3.4913,2.93153 -3.5068,7.3988 -0.015,4.46727 -0.046,9.14514 -3.5335,8.66234 -3.4875,-0.48279 -3.458,-5.16191 -3.4435,-9.96284 0.014,-4.80092 0.013,-9.72365 -3.4781,-10.69365 -3.4913,-0.97 -3.4862,3.95266 -3.4986,9.04006 -0.012,5.0874 -0.044,10.33954 -3.5324,10.02851 -3.4888,-0.31104 -3.4583,-5.56532 -3.4468,-10.88879 0.011,-5.32347 0,-10.71612 -3.4884,-11.3039 -3.4917,-0.58777 -3.481,4.8043 -3.4909,10.30977 -0.01,5.50546 -0.041,11.12431 -3.5312,10.99008 -3.4899,-0.13423 -3.4587,-5.75635 -3.4493,-11.38556 0.01,-5.62921 -0,-11.2655 -3.4941,-11.42808 -3.491,-0.16257 -3.4777,5.47239 -3.4867,11.16237 -0.01,5.68998 -0.041,11.43498 -3.5315,11.49245 -3.4909,0.0575 -3.4591,-5.69243 -3.4499,-11.37485 0.01,-5.68241 -0,-11.29733 -3.4937,-10.96987 -3.4899,0.32747 -3.4565,17.10004 -3.6132,33.67834 -0.1566,16.57829 -0.4987,32.96231 -3.98,32.51267 -3.4813,-0.44965 -3.1472,-16.84123 -2.9976,-32.89141 0.1495,-16.05017 0.1221,-31.75894 -3.3673,-30.84296 -3.4894,0.91599 -3.4752,16.62401 -3.6257,32.07376 -0.1505,15.44976 -0.4604,30.64126 -3.9486,30.52423 -3.4882,-0.11704 -3.183,-15.32089 -3.0369,-30.0803 0.146,-14.75941 0.1423,-29.07439 -3.349,-27.41369 -3.4913,1.66071 -3.508,15.9737 -3.6583,29.93082 -0.1502,13.95712 -0.4275,27.55837 -3.923,27.79556 -3.4954,0.23718 -3.2199,-13.38643 -3.0735,-26.40058 0.1463,-13.01415 0.1756,-25.41884 -3.3241,-22.7438 -3.4997,2.67503 -3.5567,15.07607 -3.7077,26.9673 -0.151,11.89123 -0.3889,23.27265 -3.8928,23.90846 -3.504,0.6358 -3.2655,-10.79428 -3.1224,-21.32594 0.1432,-10.53165 0.2071,-20.16488 -3.3178,-15.93537 -3.5248,4.22952 -3.6224,13.85635 -3.7633,22.70412 -0.1409,8.84777 -0.3185,16.91648 -3.8338,18.02974 -3.5153,1.11326 -3.3342,-7.1095 -3.2178,-13.80031 0.1163,-6.69081 0.1908,-11.84967 -3.4142,-4.60861 -7.21,14.48211 -3.9291,22.32041 -3.9291,22.32041"
       id="path11149"
       inkscape:path-effect="#path-effect11153"
       inkscape:original-d="m 1421.1649,149.78506 c -37.3949,0.373 -71.2849,21.4777 -88.3703,77.89693 30.3184,-16.0515 69.4322,-15.71734 103.0025,-4.1893 44.7622,15.37126 83.0539,50.62967 116.1472,96.56667 -3.6818,-26.65961 -14.7635,-54.33261 -21.8269,-68.63792 6.5271,1.06105 15.7323,4.2434 19.793,-0.75894 4.3852,-5.40219 0.9378,-10.89022 -3.4001,-15.42153 -35.0262,-36.58837 -82.2591,-60.41714 -133.3294,-62.44506 32.9944,-1.52654 74.5766,3.94667 111.5632,18.73049 -30.2422,-24.14802 -68.4506,-42.09173 -103.5792,-41.74134 z" />
    <path
       style="fill:none;stroke:#3465a4;stroke-width:2.80175948"
       d="m 1778.835,149.78506 c -35.1285,-0.35039 -73.3369,17.59332 -103.5792,41.74134 36.9866,-14.78382 78.5688,-20.25703 111.5632,-18.73049 -51.0703,2.02792 -98.3032,25.85669 -133.3294,62.44506 -4.3378,4.53131 -7.7852,10.01934 -3.4,15.42153 4.0607,5.00234 13.2658,1.81999 19.793,0.75894 -7.0635,14.30531 -18.1451,41.97831 -21.8269,68.63792 33.0933,-45.937 71.3849,-81.19541 116.1471,-96.56667 33.5704,-11.52804 72.6843,-11.8622 103.0025,4.1893 -17.0854,-56.41923 -50.9754,-77.52393 -88.3703,-77.89693 z"
       id="path11147"
       inkscape:connector-curvature="0" />
    <path
       style="fill:none;stroke:#3465a4;stroke-width:2.80175948"
       d="m 1442.7793,284.93592 c -16.7322,0.1653 -30.76,2.64842 -41.3467,7.25541 -20.9081,9.09857 -33.7393,44.00631 -52.4879,45.83958 -16.8427,1.64691 -26.5332,-21.70203 -33.6662,-34.12165 4.4554,14.08526 11.9389,28.56985 21.4018,38.76633 -9.6677,6.15165 -20.0135,12.36335 -27.0784,21.43228 12.5463,-8.56672 25.0951,-17.0217 36.9448,-15.66439 -13.9724,7.67419 -33.7278,18.3457 -43.2897,35.70022 16.6279,-16.35225 36.7224,-31.21407 60.9271,-29.90197 6.9923,0.37905 9.0908,0.95702 17.5465,4.97861 21.369,12.24615 44.7483,12.54869 68.3952,12.29471 l 0,-14.48045 c -16.8106,-0.0426 -33.589,-2.10538 -50.0593,-5.40361 -6.9249,-1.76054 -18.8444,-7.42043 -21.25,-10.07863 -1.6362,-1.80778 -1.6146,-2.10387 0.4856,-7.07327 5.4486,-12.89254 14.2918,-23.17621 25.3788,-30.11448 13.5594,-8.48552 29.6842,-10.03686 45.2931,-9.59289 0.05,9.5e-4 0.102,-0.002 0.1519,0 l 0,-9.71437 c -0.079,-0.003 -0.2312,-0.0283 -0.3036,-0.0303 -1.2423,-0.0339 -2.4579,-0.0807 -3.6733,-0.0911 -1.1394,-0.008 -2.2541,-0.0112 -3.3696,0 l 0,-1.1e-4 z"
       id="path11145"
       inkscape:connector-curvature="0" />
    <path
       style="fill:none;stroke:#3465a4;stroke-width:2.80175948"
       d="m 1753.851,284.93592 c -1.2154,0.0112 -2.431,0.0574 -3.6733,0.091 -0.073,0.002 -0.2241,0.028 -0.3036,0.0303 l 0,9.71435 c 0.05,-0.002 0.102,9.8e-4 0.1519,0 15.6089,-0.44397 31.7337,1.10739 45.2931,9.59291 11.087,6.93825 19.9302,17.22192 25.3788,30.11449 2.1001,4.9694 2.1217,5.26549 0.4857,7.07327 -2.4056,2.65817 -14.3252,8.31806 -21.2501,10.07863 -16.4703,3.29823 -33.2487,5.36105 -50.0593,5.40361 l 0,14.48045 c 23.647,0.25384 47.0262,-0.0485 68.3951,-12.29474 8.4559,-4.02156 10.5544,-4.59956 17.5465,-4.97859 24.2049,-1.31209 44.2993,13.54973 60.9272,29.90198 -9.5619,-17.35452 -29.3174,-28.02603 -43.2896,-35.70025 11.8498,-1.35728 24.3983,7.0977 36.9449,15.66439 -7.0649,-9.06893 -17.4108,-15.28063 -27.0787,-21.43226 9.4631,-10.19647 16.9465,-24.68109 21.4019,-38.76635 -7.1332,12.41962 -16.8235,35.76858 -33.6663,34.12165 -18.7486,-1.83324 -31.5796,-36.74101 -52.4878,-45.83956 -10.5868,-4.60699 -24.6145,-7.09007 -41.3467,-7.2554 -1.1155,-0.0112 -2.2303,-0.008 -3.3697,0 l 0,8e-5 z"
       id="path11143"
       inkscape:connector-curvature="0" />
    <path
       style="fill:none;stroke:#3465a4;stroke-width:2.80175948"
       d="m 1460.9027,286.39308 0,9.44112 c 25.2754,4.00472 54.2056,18.38644 60.8664,31.78414 -19.6894,-13.69144 -42.4861,-24.77131 -66.8165,-24.4073 -15.7949,0.23619 -35.5333,4.27391 -50.9396,12.81079 -7.775,4.30829 -18.764,13.97515 -18.943,16.96975 -0.703,11.76613 51.9865,18.20847 70.9148,17.39476 22.1683,-0.94434 44.5078,-1.98393 64.2361,-11.6572 -11.234,15.22552 -37.7896,17.45409 -59.3182,18.09295 l 0,14.41976 c 33.7793,-1.91195 75.2829,-17.20754 75.1344,-37.00561 -0.2275,-30.31577 -51.2229,-43.80537 -75.1344,-47.84316 z"
       id="path11141"
       inkscape:connector-curvature="0" />
    <path
       inkscape:connector-curvature="0"
       style="fill:none;stroke:#3465a4;stroke-width:2.80175948"
       d="m 1814.3275,331.48678 c 0,0 2.4571,1.86073 -2.5017,6.00276 -2.4793,2.07101 -2.4432,-0.27303 -2.4196,-3.66081 0.024,-3.38777 0.015,-7.81929 -2.4537,-9.92323 -2.4688,-2.10395 -2.4257,2.15509 -2.4412,7.14527 -0.015,4.99019 -0.1124,10.71151 -2.5825,11.53213 -2.4702,0.82062 -2.3498,-4.90842 -2.3274,-11.21024 0.022,-6.30182 -0.072,-13.17641 -2.5514,-14.64689 -2.4792,-1.47048 -2.3464,5.39154 -2.3532,12.76112 -0.01,7.36959 -0.1754,15.24672 -2.6427,15.80646 -2.4672,0.55975 -2.2771,-7.29597 -2.2665,-15.54812 0.01,-4.12607 -0.03,-8.35126 -0.3864,-11.67317 -0.3564,-3.32192 -1.0288,-5.74056 -2.2681,-6.25356 -2.4786,-1.026 -2.2585,7.61888 -2.2538,16.62415 0,4.50263 -0.044,9.09536 -0.4108,12.61438 -0.3666,3.51902 -1.0465,5.96433 -2.279,6.17212 -1.2325,0.20778 -1.7833,-2.02852 -2.0275,-5.52312 -0.2443,-3.49459 -0.1903,-8.24747 -0.1915,-13.07282 -0,-4.82536 -0.058,-9.72319 -0.437,-13.5077 -0.3788,-3.7845 -1.072,-6.45568 -2.3098,-6.82771 -1.2378,-0.37204 -1.7792,1.92678 -2.0099,5.59394 -0.2308,3.66716 -0.161,8.70266 -0.153,13.80398 0.01,5.10132 -0.046,10.26845 -0.4247,14.19889 -0.3782,3.93044 -1.0712,6.62418 -2.3027,6.77869 -1.2314,0.15452 -1.7684,-2.38415 -2.0015,-6.29523 -0.2331,-3.91108 -0.1726,-9.19456 -0.1797,-14.52966 -0.01,-5.3351 -0.082,-10.72182 -0.4797,-14.83938 -0.3973,-4.11756 -1.1071,-6.96595 -2.3426,-7.22439 -1.2354,-0.25844 -1.7586,2.33156 -1.972,6.36852 -0.2134,4.03697 -0.1281,9.5209 -0.1157,15.05032 0.012,5.52942 -0.048,11.10434 -0.4356,15.32328 -0.3871,4.21894 -1.0901,7.0819 -2.3203,7.18742 -1.2303,0.10551 -1.7565,-2.65183 -1.9813,-6.85688 -0.2248,-4.20506 -0.1596,-9.85784 -0.1715,-15.54322 -0.012,-5.68538 -0.101,-11.40336 -0.5117,-15.73882 -0.4106,-4.33546 -1.1318,-7.2884 -2.3643,-7.4437 -1.2326,-0.15529 -1.7423,2.64303 -1.9434,6.93075 -0.201,4.28773 -0.1055,10.06486 -0.09,15.86718 0.015,5.80233 -0.05,11.62985 -0.443,16.01836 -0.393,4.38851 -1.1018,7.33801 -2.3304,7.38428 -1.2286,0.0463 -1.7478,-2.8573 -1.9677,-7.24174 -0.2199,-4.38444 -0.1525,-10.24974 -0.1677,-16.12691 -0.015,-5.87717 -0.1128,-11.76621 -0.5307,-16.19812 -0.418,-4.43191 -1.1443,-7.40669 -2.3732,-7.45535 -1.2289,-0.0487 -1.7311,2.87816 -1.9262,7.29266 -0.1951,4.4145 -0.095,10.31667 -0.079,16.21869 0.016,5.90202 -0.051,11.80389 -0.4445,16.21778 -0.394,4.4139 -1.1028,7.33982 -2.3286,7.28995 -1.2257,-0.0499 -1.7431,-3.02668 -1.9634,-7.458 -0.2203,-4.43131 -0.1554,-10.31713 -0.1728,-16.18503 -0.017,-5.86791 -0.1168,-11.71789 -0.5339,-16.07752 -0.417,-4.35963 -1.1395,-7.22892 -2.3634,-7.13543 -1.224,0.0935 -1.7264,3.05655 -1.9241,7.44437 -0.1977,4.38782 -0.1021,10.20039 -0.087,15.99289 0.015,5.7925 -0.049,11.56493 -0.4397,15.87246 -0.3904,4.30754 -1.0946,7.15017 -2.3199,7.08308 -1.2252,-0.0671 -1.747,-2.97652 -1.9714,-7.28815 -0.2244,-4.31163 -0.1626,-10.02545 -0.1779,-15.70131 -0.015,-5.67586 -0.1074,-11.31375 -0.5148,-15.47354 -0.4075,-4.15978 -1.1184,-6.84144 -2.3377,-6.60483 -1.2193,0.2366 -1.73,3.15556 -1.9389,7.39448 -0.2089,4.23892 -0.1261,9.7978 -0.1161,15.31428 0.01,5.51648 -0.052,10.99055 -0.4369,15.05983 -0.3845,4.06928 -1.0804,6.73378 -2.3048,6.63112 -1.2243,-0.10267 -1.7538,-2.86958 -1.9846,-6.939 -0.2308,-4.06942 -0.1728,-9.44136 -0.1825,-14.75407 -0.01,-5.31272 -0.087,-10.56621 -0.4771,-14.39876 -0.3904,-3.83254 -1.0836,-6.24413 -2.2997,-5.87304 -1.2161,0.37109 -1.7423,3.15452 -1.9696,7.11086 -0.2272,3.95635 -0.1636,9.0856 -0.1613,14.14835 0,5.06275 -0.056,10.05898 -0.4319,13.74928 -0.3756,3.6903 -1.0593,6.07465 -2.2822,5.91365 -1.2229,-0.16101 -1.7637,-2.70615 -2.0041,-6.40218 -0.2404,-3.69602 -0.1883,-8.54293 -0.1907,-13.30746 -0,-4.76453 -0.059,-9.44668 -0.4275,-12.81321 -0.3684,-3.36653 -1.0398,-5.41742 -2.2545,-4.91944 -1.2147,0.49799 -1.762,3.04774 -2.0123,6.57694 -0.2503,3.52919 -0.2094,8.03783 -0.2151,12.45358 -0.011,8.83151 -0.2297,17.29151 -2.672,16.80143 -1.2212,-0.24504 -1.777,-2.48237 -2.0305,-5.66188 -0.2535,-3.17951 -0.2103,-7.30121 -0.2061,-11.315 0.01,-8.02758 -0.1522,-15.62353 -2.5832,-14.3871 -2.431,1.23644 -2.3062,8.83664 -2.329,15.94787 -0.023,7.11122 -0.1747,13.73347 -2.6138,13.01401 -2.4391,-0.71947 -2.31,-7.34098 -2.2939,-13.41644 0.016,-6.07545 -0.061,-11.60485 -2.4989,-10.14009 -2.4377,1.46476 -2.3917,6.99974 -2.4168,11.91184 -0.025,4.9121 -0.1051,9.20133 -2.5426,8.17459 -2.4375,-1.02673 -2.995,-4.89491 -2.9782,-8.50641 0.017,-3.6115 0.6123,-6.96632 0.6123,-6.96632 m 52.8041,-37.98995 c 0,0 0.7413,2.20183 0.8616,4.53774 0.1203,2.3359 -0.382,4.80589 -2.8128,5.34221 -2.4308,0.53632 -2.5333,-1.82381 -2.6507,-4.17883 -0.1175,-2.35502 -0.2498,-4.70494 -2.6733,-4.14823 -2.4234,0.55672 -2.2945,2.90748 -2.1788,5.30473 0.1157,2.39725 0.2178,4.84098 -2.2066,5.58364 -2.4243,0.74265 -2.5212,-1.702 -2.6351,-4.16219 -0.1139,-2.4602 -0.2451,-4.93595 -2.664,-4.25551 -2.4189,0.68044 -2.2921,3.1553 -2.1795,5.69735 0.1126,2.54205 0.2103,5.1513 -2.2101,6.10054 -2.4204,0.94923 -2.511,-1.66206 -2.6214,-4.30378 -0.1104,-2.64172 -0.2413,-5.31387 -2.6559,-4.48637 -2.4147,0.82751 -2.2898,3.49611 -2.1812,6.25523 0.1085,2.75912 0.1998,5.60876 -2.2191,6.79835 -2.4189,1.18958 -2.5003,-1.66395 -2.6052,-4.55969 -0.1049,-2.89574 -0.2343,-5.83368 -2.6449,-4.8129 -2.4106,1.02079 -2.2893,3.94791 -2.1879,7.00384 0.1014,3.05594 0.1817,6.24068 -2.2384,7.77671 -2.42,1.53603 -2.486,-1.65696 -2.5809,-4.90721 -0.095,-3.25026 -0.2202,-6.55778 -2.6269,-5.25081 -2.4068,1.30696 -2.294,4.55836 -2.2054,8.06385 0.089,3.50548 0.1509,7.26505 -2.2757,9.58835 -2.4266,2.3233 -2.4628,-1.45947 -2.5387,-5.36709 -0.076,-3.90761 -0.1958,-7.94008 -2.5993,-6.11616 -1.2017,0.91197 -1.7216,4.23167 -1.9582,8.63912 -0.2366,4.40746 -0.1979,9.90267 -0.225,15.16566 -0.054,10.52598 -0.3822,20.12305 -2.779,18.23137 -1.1984,-0.94585 -1.724,-3.85649 -1.9565,-7.58285 -0.2326,-3.72637 -0.1772,-8.26847 -0.1663,-12.47724 0.011,-4.20877 -0.02,-8.08421 -0.3558,-10.47726 -0.3354,-2.39304 -0.9654,-3.30369 -2.1683,-1.58288 -2.4057,3.44162 -2.9764,9.63524 -3.0118,14.96845 -0.035,5.33322 0.4817,9.80604 0.4817,9.80604 m 68.3322,13.28655 c 0,0 0.4731,3.61963 0.3001,7.17427 -0.1731,3.55465 -0.991,7.04431 -3.4303,6.78437 -2.4393,-0.25993 -2.237,-3.76678 -2.0697,-7.24922 0.1673,-3.48244 0.2999,-6.94048 -2.1483,-7.10281 -2.4482,-0.16232 -2.5797,3.29515 -2.7408,6.6891 -0.1611,3.39395 -0.3504,6.72438 -2.7815,6.30798 -2.431,-0.4164 -2.2461,-3.74325 -2.093,-7.0399 0.1531,-3.29665 0.275,-6.5631 -2.1685,-6.85873 -2.4436,-0.29563 -2.5632,2.97124 -2.7086,6.16911 -0.1455,3.19787 -0.3154,6.32674 -2.7393,5.75512 -2.4238,-0.57162 -2.2596,-3.69493 -2.1228,-6.80039 0.1367,-3.10546 0.2462,-6.19305 -2.1908,-6.69325 -2.4371,-0.50019 -2.5427,2.589 -2.6715,5.61765 -0.1288,3.02864 -0.2797,5.99673 -2.6971,5.25433 -2.4175,-0.74239 -2.2734,-3.69952 -2.1526,-6.67887 0.1209,-2.97934 0.2183,-5.98089 -2.2103,-6.81213 -2.4286,-0.83124 -2.5192,2.17406 -2.633,5.1486 -0.1137,2.97455 -0.25,5.91835 -2.6614,4.96413 -2.4113,-0.95421 -2.2838,-3.86731 -2.1757,-6.90865 0.1082,-3.04135 0.1955,-6.21095 -2.2224,-7.67818 -2.4179,-1.46722 -2.4918,1.71179 -2.5943,4.94139 -0.1026,3.22959 -0.235,6.50977 -2.6401,5.24488 -2.405,-1.2649 -2.8734,-5.23465 -2.7759,-8.88818 0.097,-3.65353 0.7662,-6.99083 0.7662,-6.99083"
       id="path11139"
       inkscape:path-effect="#path-effect12929"
       inkscape:original-d="m 1739.0973,286.39308 c -23.9115,4.03779 -74.907,17.52739 -75.1344,47.84316 -0.1485,19.79807 41.355,35.09366 75.1344,37.00561 l 0,-14.41976 c -21.5286,-0.63886 -48.0843,-2.86743 -59.3182,-18.09295 19.7283,9.67327 42.0677,10.71286 64.2361,11.6572 18.9282,0.81371 71.6177,-5.62863 70.9147,-17.39476 -0.179,-2.9946 -11.1679,-12.66146 -18.9429,-16.96975 -15.4064,-8.53688 -35.1448,-12.57449 -50.9397,-12.81079 -24.3304,-0.36401 -47.1271,10.71586 -66.8165,24.4073 6.6608,-13.3977 35.591,-27.77942 60.8665,-31.78414 l 0,-9.44112 z" />
    <path
       inkscape:connector-curvature="0"
       style="fill:none;stroke:#3465a4;stroke-width:3;stroke-miterlimit:4;stroke-dasharray:none"
       d="m 1697.9352,465.70078 c 0,0 0.8001,7.3727 1.0407,15.71252 0.2406,8.33982 -0.083,17.64675 -2.2401,21.51521 -4.3142,7.73691 -2.2229,1.20139 -2.2229,1.20139 m -1.3202,-45.71308 c 0,0 2.8559,19.05172 -1.8322,13.09373 -4.6882,-5.958 -0.5238,-16.26647 -5.2281,-21.94955 -4.7042,-5.68309 0.5496,16.33636 -4.1095,11.6325 -4.659,-4.70385 -0.5903,-17.21808 -5.333,-23.57074 -2.3713,-3.17632 -2.192,1.55063 -2.0131,6.49669 0.179,4.94606 0.3563,10.11124 -1.9757,7.81135 -4.664,-4.59977 -0.7487,-20.57325 -5.5599,-28.20087 -2.4056,-3.8138 -2.1654,2.07583 -1.9236,8.34876 0.2418,6.27292 0.4825,12.92913 -1.853,10.64848 -2.3355,-2.28065 -2.5784,-8.87561 -2.8674,-16.16594 -0.2889,-7.29033 -0.6258,-15.27601 -3.099,-20.33809 -2.4732,-5.06208 -2.129,2.66938 -1.7655,11.45476 0.3636,8.78537 0.7367,18.62466 -1.5477,17.77824 -2.2844,-0.84642 -2.6407,-10.32011 -3.1266,-21.84054 -0.486,-11.52043 -1.112,-25.08759 -3.806,-34.12094 -1.3469,-4.51668 -1.6419,0.74559 -1.4313,11.29126 0.2106,10.54566 0.908,26.3747 1.543,42.99157 0.6351,16.61686 1.2049,34.02154 1.3183,47.71846 0.1134,13.69692 -0.2164,23.68609 -1.3,25.47194 -1.0837,1.78585 -1.9157,-10.54797 -2.7635,-29.64045 -0.8477,-19.09248 -1.7502,-44.94362 -2.8473,-70.1924 -1.0971,-25.24878 -2.3854,-49.89521 -3.6102,-66.57826 -1.2248,-16.68306 -2.34,-25.40275 -3.0683,-18.79806 -0.7284,6.6047 -0.6278,20.17284 -0.1683,36.8099 0.4594,16.63707 1.2682,36.34307 2.0639,55.22349 0.7957,18.88041 1.5808,36.93523 2.1518,50.26996 0.571,13.33472 0.9423,21.94934 0.9423,21.94934 m 0.1861,6.82178 c 0,0 0.6991,5.09419 0.8336,10.58117 0.1346,5.48698 -0.2967,11.36675 -2.5145,12.93792 -4.4356,3.14233 -0.2897,-12.51961 -4.7189,-9.3551 -4.4293,3.1645 0.2807,12.40081 -4.1813,14.43365 -4.462,2.03285 -0.2511,-11.37644 -4.7147,-9.57778 -4.4635,1.79866 0.2518,11.57874 -4.2246,12.96786 -4.4764,1.38912 -0.24,-11.20954 -4.7229,-10.23174 -4.4828,0.97779 0.2488,11.74309 -4.2431,12.3844 -4.4919,0.64131 -0.2402,-11.42554 -4.7363,-11.04076 -4.4962,0.38478 0.2426,11.59348 -4.2606,11.67084 -4.5031,0.0774 -0.2358,-11.29248 -4.7428,-11.39794 -4.5069,-0.10546 0.2402,11.49866 -4.2689,11.27333 -4.5092,-0.22533 -0.2377,-11.36482 -4.7565,-12.00377 -4.5188,-0.63894 0.2495,11.88228 -4.2768,10.79934 -4.5264,-1.08295 -0.2412,-11.4085 -4.7761,-12.75005 -4.5349,-1.34154 0.25,11.67507 -4.2887,10.02 -4.5387,-1.65507 -0.2442,-11.29028 -4.8053,-13.71559 -4.5611,-2.4253 0.2681,12.11574 -4.2897,9.6287 -4.5578,-2.48704 -2.5743,-14.14221 -2.5743,-14.14221 m 1.0581,-186.96116 c 0,0 0.7357,2.63806 1.3935,13.94822 0.3289,5.65508 0.6366,13.47818 0.7881,24.22357 0.1515,10.74539 0.1485,24.41305 -0.1938,41.75726 -0.3424,17.3442 -0.7777,21.10977 -1.2143,17.39748 -0.4367,-3.7123 -0.9104,-14.90244 -1.5032,-27.46966 -0.5928,-12.56722 -1.3113,-26.51152 -2.0926,-35.7321 -0.7813,-9.22058 -1.6026,-13.71746 -2.3767,-7.38983 -0.774,6.32762 -0.8919,17.09395 -0.687,29.68416 0.2048,12.59021 0.7287,27.0043 1.2985,40.62744 1.1396,27.24627 2.4511,51.32873 2.4511,51.32873 m -8.2741,-92.35409 c 0,0 0.5958,8.92788 1.343,22.25176 0.7473,13.32389 1.6303,31.04377 2.2626,48.62778 0.6323,17.58401 1.0144,35.03215 0.9316,47.81254 -0.083,12.78038 -0.614,20.89301 -1.7648,19.80602 -1.1508,-1.087 -1.9064,-9.81894 -2.5209,-22.14193 -0.6145,-12.32299 -1.0994,-28.23702 -1.6496,-43.68817 -0.5502,-15.45115 -1.1642,-30.43943 -1.9028,-40.91091 -0.7386,-10.47149 -1.5875,-16.42619 -2.5924,-13.81019 -2.0097,5.232 -1.5444,15.60277 -1.1602,24.86601 0.3842,9.26324 0.6927,17.41896 -1.5292,18.22085 -2.2219,0.80189 -2.533,-7.40812 -2.8356,-14.82286 -0.3026,-7.41474 -0.5905,-14.03422 -2.6725,-10.05126 -2.0819,3.98295 -1.7963,10.83296 -1.5449,17.2159 0.2515,6.38294 0.4702,12.29882 -1.7048,14.41353 -2.175,2.11471 -2.3904,-3.82309 -2.6072,-9.46329 -0.2167,-5.6402 -0.4328,-10.98278 -2.5531,-7.67762 -4.2407,6.61031 0.8118,21.41196 -3.5428,25.71207 -4.3547,4.30011 -0.7006,-19.14577 -4.9892,-13.38404 -4.2885,5.76173 0.6336,17.65693 -3.7265,22.01197 -4.3601,4.35503 -0.5642,-16.29669 -4.8841,-11.07114 -4.3199,5.22556 0.5202,15.29495 -3.8299,20.21633 -4.3502,4.92138 -0.4981,-15.25131 -4.8029,-9.23204 -4.3048,6.01927 -1.6809,18.18754 -1.6809,18.18754 m 44.4166,-19.94303 c 0,0 0.3801,11.329 0.7097,22.65801 0.3296,11.329 0.6088,22.65801 0.6088,22.65801 m -45.0286,0.73277 c 0,0 2.4375,7.48266 -2.281,-1.16385 -2.3592,-4.32326 -3.1318,-12.38104 -3.3309,-19.35801 -0.199,-6.97697 0.1795,-12.87313 0.1795,-12.87313"
       id="path11137"
       inkscape:path-effect="#path-effect11437"
       inkscape:original-d="m 1562.3569,302.08781 c -0.1023,58.91865 -9.281,100.01923 -46.6289,145.22951 -8.2844,10.02837 -18.1061,20.91822 -18.5483,34.60737 -0.3325,10.29296 4.4823,19.605 10.6858,28.53589 -3.6235,-8.77259 -6.0272,-17.34883 -5.009,-26.89658 0.8939,-8.38166 6.7816,-14.24129 23.9519,-31.14663 16.519,-16.26402 19.6278,-20.14286 22.6163,-16.90907 1.3219,1.43044 1.125,9.67775 -0.7286,24.65019 -2.67,21.56618 -1.7452,36.33963 2.8536,45.44493 4.7221,9.34953 17.1538,16.98541 34.0609,20.94654 3.6463,0.85431 8.8968,1.09288 14.3894,1.09288 5.4926,0 10.743,-0.23843 14.3893,-1.09288 16.9071,-3.96113 29.3389,-11.59701 34.061,-20.94654 4.5987,-9.1053 5.5235,-23.87875 2.8536,-45.44493 -1.8536,-14.97244 -2.0505,-23.21975 -0.7286,-24.65019 2.9885,-3.23379 6.0973,0.64505 22.6162,16.90907 17.1704,16.90534 23.0581,22.76497 23.952,31.14663 1.0182,9.54775 -1.3856,18.12399 -5.009,26.89658 6.2035,-8.93089 11.0183,-18.24293 10.6858,-28.53589 -0.4423,-13.68915 -10.264,-24.579 -18.5483,-34.60737 -37.348,-45.21028 -46.5268,-86.31086 -46.6289,-145.22951 -6.4709,30.94171 -5.56,77.19697 -4.3715,117.05791 0.7502,25.15954 2.746,41.64955 5.4036,56.88964 2.5192,14.44601 2.1523,25.43773 -2.9143,29.56806 -9.6016,7.82722 -23.0078,10.64526 -35.7609,10.6554 -12.7531,0.0112 -26.1545,-2.79686 -35.761,-10.6554 -5.0603,-4.13957 -5.4335,-15.12205 -2.9143,-29.56806 2.6577,-15.24009 4.6535,-31.7301 5.4036,-56.88964 1.1885,-39.86094 2.0994,-86.1162 -4.3714,-117.05791 z" />
    <path
       style="fill:none;stroke:#3465a4;stroke-width:2.80175948"
       d="m 1530.937,508.88201 c -1.3869,0.0471 -2.689,0.24572 -3.8554,0.60714 -2.1964,0.68069 -2.3887,4.10853 0.3643,7.74112 3.1366,3.72758 6.486,5.504 13.7216,7.28576 7.0815,1.74384 10.984,1.80607 11.4447,-0.45535 1.7406,-8.54506 -11.967,-15.50886 -21.6752,-15.17867 z"
       id="path11135"
       inkscape:connector-curvature="0" />
    <path
       style="fill:none;stroke:#3465a4;stroke-width:2.80175948"
       d="m 1669.0629,508.88201 c -9.7082,-0.33019 -23.4158,6.63361 -21.6751,15.17867 0.4606,2.26142 4.3632,2.19919 11.4447,0.45535 7.2355,-1.78176 10.585,-3.55818 13.7215,-7.28576 2.753,-3.63259 2.5607,-7.06043 0.3643,-7.74112 -1.1663,-0.36145 -2.4685,-0.55993 -3.8554,-0.60714 z"
       id="path11133"
       inkscape:connector-curvature="0" />
    <path
       style="fill:none;stroke:#3465a4;stroke-width:2.80175948"
       d="m 1523.3477,611.55053 c -1.5817,1.43906 -4.004,2.78416 -2.7625,4.73573 1.3506,2.12309 14.66,5.38425 33.4538,6.28398 30.5491,1.46246 61.37,2.02208 91.922,0 18.7845,-1.24328 32.1031,-4.16089 33.4538,-6.28398 1.2415,-1.95157 -1.1809,-3.29667 -2.7625,-4.73573 l -153.3046,0 z"
       id="path11131"
       inkscape:connector-curvature="0" />
    <path
       style="fill:none;stroke:#3465a4;stroke-width:2.80175948"
       d="m 1561.8104,669.77588 c 11.6992,13.73336 18.3961,20.88874 18.3359,31.35914 -0.1115,19.63347 -8.6168,21.9619 -7.7412,53.2164 0.7032,25.0969 4.7683,41.44867 7.1037,57.37538 5.5576,37.90033 12.046,38.49309 20.4912,38.49309 8.4452,0 14.9336,-0.59276 20.4912,-38.49309 2.3354,-15.92671 6.4005,-32.27848 7.1036,-57.37538 0.8756,-31.2545 -7.6297,-33.58293 -7.7411,-53.2164 -0.06,-10.4704 6.6367,-17.62578 18.3358,-31.35914 l -76.3791,0 z"
       id="path2954"
       inkscape:connector-curvature="0" />
    <path
       id="path11355"
       d="m 1421.1649,149.78506 c -37.3949,0.373 -71.2849,21.4777 -88.3703,77.89693 30.3184,-16.0515 69.4322,-15.71734 103.0025,-4.1893 44.7622,15.37126 83.0539,50.62967 116.1472,96.56667 -3.6818,-26.65961 -14.7635,-54.33261 -21.8269,-68.63792 6.5271,1.06105 15.7323,4.2434 19.793,-0.75894 4.3852,-5.40219 0.9378,-10.89022 -3.4001,-15.42153 -35.0262,-36.58837 -82.2591,-60.41714 -133.3294,-62.44506 32.9944,-1.52654 74.5766,3.94667 111.5632,18.73049 -30.2422,-24.14802 -68.4506,-42.09173 -103.5792,-41.74134 z"
       style="fill:none;stroke:#3465a4;stroke-width:2.80175948"
       inkscape:connector-curvature="0" />
    <path
       inkscape:original-d="m 1442.7793,284.93592 c -16.7322,0.1653 -30.76,2.64842 -41.3467,7.25541 -20.9081,9.09857 -33.7393,44.00631 -52.4879,45.83958 -16.8427,1.64691 -26.5332,-21.70203 -33.6662,-34.12165 4.4554,14.08526 11.9389,28.56985 21.4018,38.76633 -9.6677,6.15165 -20.0135,12.36335 -27.0784,21.43228 12.5463,-8.56672 25.0951,-17.0217 36.9448,-15.66439 -13.9724,7.67419 -33.7278,18.3457 -43.2897,35.70022 16.6279,-16.35225 36.7224,-31.21407 60.9271,-29.90197 6.9923,0.37905 9.0908,0.95702 17.5465,4.97861 21.369,12.24615 44.7483,12.54869 68.3952,12.29471 l 0,-14.48045 c -16.8106,-0.0426 -33.589,-2.10538 -50.0593,-5.40361 -6.9249,-1.76054 -18.8444,-7.42043 -21.25,-10.07863 -1.6362,-1.80778 -1.6146,-2.10387 0.4856,-7.07327 5.4486,-12.89254 14.2918,-23.17621 25.3788,-30.11448 13.5594,-8.48552 29.6842,-10.03686 45.2931,-9.59289 0.05,9.5e-4 0.102,-0.002 0.1519,0 l 0,-9.71437 c -0.079,-0.003 -0.2312,-0.0283 -0.3036,-0.0303 -1.2423,-0.0339 -2.4579,-0.0807 -3.6733,-0.0911 -1.1394,-0.008 -2.2541,-0.0112 -3.3696,0 l 0,-1.1e-4 z"
       inkscape:path-effect="#path-effect11359"
       id="path11357"
       d="m 1442.7828,284.93592 c 0,0 1.0392,2.40519 1.1504,4.85084 0.1112,2.44565 -0.7061,4.93176 -4.3713,5.09359 -3.6652,0.16183 -3.7656,-2.33877 -3.8772,-4.80801 -0.1115,-2.46923 -0.2338,-4.9071 -3.8912,-4.61978 -3.6574,0.28732 -3.5372,2.70759 -3.4243,5.24215 0.1129,2.53456 0.2175,5.18342 -3.4255,5.92793 -3.6431,0.74451 -3.7438,-1.91533 -3.8587,-4.57703 -0.1149,-2.6617 -0.244,-5.32527 -3.8805,-4.58823 -3.6364,0.73704 -3.5121,3.36928 -3.3929,6.24326 0.1192,2.87399 0.2317,5.98971 -3.3826,7.6937 -3.6144,1.70399 -3.7164,-1.44815 -3.8392,-4.64817 -0.1229,-3.20001 -0.2675,-6.4479 -3.8736,-4.9354 -3.606,1.51251 -3.4713,4.72401 -3.3441,8.36596 0.1271,3.64195 0.2443,7.71434 -3.3505,10.94862 -3.5948,3.23428 -3.684,-0.84526 -3.7993,-4.8606 -0.1153,-4.01534 -0.2548,-7.96648 -3.8104,-4.47538 -3.5556,3.49109 -3.4513,7.07714 -3.354,11.60745 0.097,4.53031 0.1908,10.00487 -3.4524,17.27299 -1.8216,3.63407 -2.7455,4.11452 -3.2056,2.92891 -0.4601,-1.1856 -0.4664,-4.03728 -0.491,-7.06748 -0.049,-6.0604 -0.1782,-12.8349 -3.7763,-8.4232 -3.5981,4.41171 -3.5052,13.69274 -3.5492,21.78418 -0.044,8.09144 -0.1957,14.99329 -3.8604,14.64664 -3.6647,-0.34665 -3.5353,-7.07735 -3.4931,-13.03855 0.042,-5.96121 0.019,-11.15293 -3.6482,-8.42163 -3.6677,2.7313 -3.6808,7.91603 -3.7334,12.57262 -0.053,4.65659 -0.1382,8.78505 -3.8228,9.4038 -3.6846,0.61876 -3.5953,-3.49409 -3.5388,-7.89651 0.056,-4.40241 0.075,-9.0944 -3.5953,-9.63391 -3.6701,-0.53952 -3.6755,1.97307 -3.6984,4.84361 -0.023,2.87054 -0.067,6.09902 -3.7522,6.99126 -7.3703,1.7845 0.094,-7.28084 -7.3093,-2.47169 -7.4038,4.80916 -0.057,4.49693 -7.4942,8.84639 -3.7185,2.17473 -3.6944,1.04078 -3.6772,0.25131 0.017,-0.78946 0.033,-1.23444 -3.7249,2.31824 -3.7575,3.55269 -4.7141,4.68988 -4.7213,4.9389 -0.01,0.24902 0.9292,-0.39013 0.9292,-0.39013 m 132.3347,-5.92858 c 0,0 0.8345,3.6663 0.7241,7.32598 -0.1105,3.65968 -1.1659,7.31274 -4.8366,7.28626 -3.6707,-0.0265 -3.5327,-3.6951 -3.4205,-7.43038 0.1122,-3.73528 0.1976,-7.53723 -3.4676,-7.83035 -3.6653,-0.29312 -3.7483,3.51906 -3.8612,7.3413 -0.113,3.82224 -0.2559,7.65455 -3.9183,7.4017 -3.6623,-0.25285 -3.521,-4.08672 -3.4082,-7.98355 0.1128,-3.89683 0.1963,-7.8566 -3.4651,-8.36126 -3.6614,-0.50466 -3.7409,3.46662 -3.851,7.40098 -0.1101,3.93437 -0.25,7.83181 -3.8987,7.17946 -3.6488,-0.65234 -3.5141,-4.54949 -3.4098,-8.45832 0.1043,-3.90883 0.178,-7.82933 -3.4811,-8.52838 -3.6592,-0.69904 -3.728,3.23528 -3.8235,7.03111 -0.095,3.79583 -0.2149,7.45317 -3.8472,6.20016 -3.6324,-1.25301 -3.5212,-4.94935 -3.4354,-8.75191 0.086,-3.80256 0.1452,-7.71133 -3.5046,-9.38919 -3.6499,-1.67785 -3.6951,2.17383 -3.7681,5.99352 -0.073,3.8197 -0.1731,7.60741 -3.7997,5.80161 -3.6265,-1.8058 -4.4396,-6.49041 -4.3799,-10.72357 0.06,-4.23316 0.9984,-8.01487 0.9984,-8.01487 m -36.8452,11.0483 c 0,0 3.5823,4.82627 -3.8438,8.08137 -7.4261,3.25511 0.1493,-6.17944 -7.3094,-1.37734 -7.4587,4.80209 -0.1081,4.6366 -7.6313,9.91178 -3.7616,2.63759 -3.7154,1.27675 -3.677,0.15325 0.039,-1.12349 0.073,-2.00964 -3.7269,1.57733 -7.6006,7.17394 -3.9544,7.16158 -3.9544,7.16158 m 22.9424,-44.68486 c 0,0 0.9217,3.10057 0.9169,4.89216 -0,1.79159 -0.9127,2.2742 -4.5861,-2.96174 -3.6735,-5.23593 -3.6931,-6.313 -3.7044,-7.6957 -0.011,-1.3827 -0.01,-3.07104 -3.7954,-9.52953 -3.7868,-6.45848 -4.744,-7.20156 -4.7228,-6.33001 0.021,0.87154 0.9936,3.3577 0.9936,3.3577"
       style="fill:none;stroke:#3465a4;stroke-width:8;stroke-miterlimit:4;stroke-dasharray:none"
       inkscape:connector-curvature="0" />
    <path
       inkscape:original-d="m 1460.9027,286.39308 0,9.44112 c 25.2754,4.00472 54.2056,18.38644 60.8664,31.78414 -19.6894,-13.69144 -42.4861,-24.77131 -66.8165,-24.4073 -15.7949,0.23619 -35.5333,4.27391 -50.9396,12.81079 -7.775,4.30829 -18.764,13.97515 -18.943,16.96975 -0.703,11.76613 51.9865,18.20847 70.9148,17.39476 22.1683,-0.94434 44.5078,-1.98393 64.2361,-11.6572 -11.234,15.22552 -37.7896,17.45409 -59.3182,18.09295 l 0,14.41976 c 33.7793,-1.91195 75.2829,-17.20754 75.1344,-37.00561 -0.2275,-30.31577 -51.2229,-43.80537 -75.1344,-47.84316 z"
       inkscape:path-effect="#path-effect11363"
       id="path11361"
       d="m 1529.6412,316.96474 c 0,0 1.0655,6.93082 1.0359,14.62187 -0.03,7.69106 -1.1803,16.14235 -5.0473,19.18329 -1.9336,1.52048 -2.8183,-0.14237 -3.2025,-3.57381 -0.3842,-3.43143 -0.2818,-8.63146 -0.2494,-14.18534 0.032,-5.55389 -0.01,-11.46164 -0.5615,-16.30852 -0.5534,-4.84688 -1.6113,-8.6329 -3.5386,-9.94332 -3.8547,-2.62083 -3.7312,1.12854 -3.6429,4.81704 0.088,3.68849 0.1437,7.3161 -3.6815,4.45174 -3.8253,-2.86437 -3.9101,-6.43919 -4.0125,-9.71511 -0.1024,-3.27592 -0.2207,-6.25295 -4.0656,-7.92173 -3.8449,-1.66878 -3.7116,1.3679 -3.6032,4.36141 0.1084,2.99351 0.193,5.94387 -3.6376,4.10245 -3.8305,-1.84142 -3.9306,-4.77717 -4.0443,-7.55086 -0.1137,-2.77369 -0.2399,-5.38531 -4.0741,-6.57846 -3.8341,-1.19316 -3.6995,1.42772 -3.5836,4.0287 0.1158,2.60097 0.2132,5.18204 -3.6109,3.90925 -3.8241,-1.27279 -3.9309,-3.84901 -4.0494,-6.32329 -0.1185,-2.47427 -0.2479,-4.84661 -4.0706,-5.71162 -3.8226,-0.86502 -3.6879,1.50465 -3.567,3.90306 0.1209,2.39841 0.2274,4.82557 -3.5805,4.07553 -7.6158,-1.50009 -3.9514,-3.73981 -3.9514,-3.73981 m 53.714,29.99298 c 0,0 0.981,4.26603 0.9624,8.86549 -0.019,4.59947 -1.044,9.53236 -4.8439,10.86608 -3.7998,1.33372 -3.6772,-4.23615 -3.6494,-10.64278 0.028,-6.40662 -0.067,-13.65001 -3.8766,-15.66331 -3.8094,-2.0133 -3.659,5.21291 -3.6655,13.12695 -0,3.95703 -0.045,8.086 -0.5701,11.31798 -0.5253,3.23198 -1.529,5.56696 -3.4253,5.93598 -3.7927,0.73803 -3.5642,-7.86814 -3.5536,-17.01442 0.01,-4.57314 -0.039,-9.28131 -0.5745,-13.024 -0.5352,-3.74269 -1.5549,-6.5199 -3.4613,-7.23111 -1.9064,-0.71121 -2.787,1.35166 -3.1879,4.85779 -0.4009,3.50613 -0.3326,8.45552 -0.3253,13.51737 0.01,5.06184 -0.047,10.23613 -0.5911,14.19206 -0.544,3.95593 -1.5687,6.69349 -3.4611,6.88187 -1.8924,0.18837 -2.7581,-2.36165 -3.1545,-6.31673 -0.3965,-3.95508 -0.3342,-9.31522 -0.342,-14.74707 -0.01,-5.43184 -0.086,-10.9354 -0.6536,-15.17732 -0.5673,-4.24191 -1.6141,-7.2222 -3.5141,-7.60749 -1.8999,-0.3853 -2.7494,2.20713 -3.1212,6.3186 -0.3719,4.11148 -0.2784,9.74201 -0.262,15.43293 0.016,5.69091 -0.045,11.44221 -0.5997,15.79523 -0.5548,4.35301 -1.5918,7.30775 -3.4819,7.40552 -1.89,0.0978 -2.7419,-2.75982 -3.1291,-7.10343 -0.3871,-4.34361 -0.3217,-10.17322 -0.3379,-16.01945 -0.016,-5.84623 -0.114,-11.70907 -0.6968,-16.11915 -0.5827,-4.41008 -1.6384,-7.36738 -3.5268,-7.40254 -1.8884,-0.0352 -2.7204,2.89764 -3.0805,7.31453 -0.3602,4.41689 -0.2608,10.31786 -0.2445,16.21905 0.016,5.90119 -0.051,11.8026 -0.61,16.22036 -0.5592,4.41776 -1.5983,7.35187 -3.4845,7.31847 -1.8862,-0.0334 -2.7337,-2.99741 -3.1188,-7.40979 -0.3851,-4.41238 -0.3196,-10.27315 -0.3354,-16.10008 -0.016,-5.82693 -0.1125,-11.62004 -0.6903,-15.89709 -0.5779,-4.27706 -1.6243,-7.03808 -3.5033,-6.80083 -1.8791,0.23724 -2.7143,3.23261 -3.083,7.58096 -0.3687,4.34835 -0.2815,10.04967 -0.2708,15.69882 0.011,5.64916 -0.054,11.24613 -0.6069,15.38579 -0.5524,4.13966 -1.5806,6.822 -3.4626,6.64186 -1.882,-0.18013 -2.7378,-3.04326 -3.1318,-7.20673 -0.394,-4.16348 -0.3361,-9.6273 -0.3478,-15.00883 -0.012,-5.38152 -0.092,-10.68074 -0.6495,-14.51502 -0.5573,-3.83427 -1.5804,-6.2036 -3.4531,-5.72533 -1.8727,0.47826 -2.7267,3.32632 -3.1183,7.31079 -0.3917,3.98448 -0.3287,9.10537 -0.3262,14.12932 0,5.02394 -0.055,9.95094 -0.5926,13.54762 -0.5377,3.59668 -1.5466,5.86304 -3.426,5.56571 -1.8795,-0.29733 -2.7527,-2.86459 -3.1626,-6.49929 -0.4099,-3.6347 -0.3636,-8.33684 -0.3677,-12.90393 -0.01,-9.13419 -0.2325,-17.7282 -3.9703,-16.16212 -1.8689,0.78303 -2.753,3.32659 -3.1777,6.672 -0.4247,3.3454 -0.3943,7.49265 -0.4017,11.48308 -0.015,7.98085 -0.1914,15.3344 -3.9452,14.39124 -3.7537,-0.94315 -3.6108,-8.36238 -3.6028,-14.85592 0.01,-6.49354 -0.081,-12.0614 -3.8231,-9.30181 -3.7421,2.75958 -3.7112,8.51634 -3.7396,12.98455 -0.028,4.46821 -0.085,7.64788 -3.8268,5.25329 -7.4834,-4.78918 -3.7095,-8.07752 -3.7095,-8.07752 m 128.1588,13.9781 c 0,0 0.8805,2.97334 0.7764,6.36716 -0.1041,3.39383 -1.1989,7.20814 -5.0456,8.89009 -3.8467,1.68194 -3.7109,-1.35001 -3.5969,-4.44375 0.114,-3.09374 0.2046,-6.24927 -3.613,-4.81449 -3.8176,1.43478 -3.9203,4.57284 -4.045,7.63024 -0.1246,3.05741 -0.2704,6.03416 -4.1011,7.14631 -3.8308,1.11215 -3.6734,-1.90636 -3.5364,-5.04365 0.1371,-3.13728 0.2512,-6.39333 -3.5459,-5.75624 -3.7971,0.63709 -3.9162,3.88881 -4.0654,7.15665 -0.1491,3.26784 -0.3284,6.5518 -4.1418,7.25335 -3.8135,0.70156 -3.6263,-2.59827 -3.4648,-6.00834 0.1615,-3.41006 0.295,-6.93036 -3.4893,-6.66975 -3.7843,0.26061 -3.9554,4.59445 -4.13,8.12883 -0.1745,3.53438 -0.3309,6.26929 -3.9466,3.33206 -7.2314,-5.87448 -3.2684,-10.89349 -3.2684,-10.89349"
       style="fill:none;stroke:#3465a4;stroke-width:8;stroke-miterlimit:4;stroke-dasharray:none"
       inkscape:connector-curvature="0" />
    <path
       inkscape:original-d="m 1600.0111,558.78502 c 5.8484,0 6.4598,-0.40449 17.1104,13.3313 6.2343,8.04024 19.7161,25.18507 26.8662,35.48773 l 107.1008,-0.39463 c 13.345,-0.60302 14.8169,-2.1383 20.3394,-6.10184 10.0948,-7.24518 19.5144,-19.49671 41.6199,-54.15747 6.6786,-10.47189 15.2029,-23.68493 18.9429,-29.35555 5.6829,-9.13197 3.6059,-10.60744 18.6091,-13.60008 -10.866,26.94147 -24.7577,58.68708 -34.0609,72.79689 -18.301,27.75616 -47.4544,57.51356 -105.2186,76.07547 44.9329,-7.78939 59.1643,-21.46672 89.0988,-45.90027 -20.34,41.98767 -48.6989,79.94392 -74.9219,118.27218 58.9415,-62.70203 115.4601,-132.20519 145.6545,-213.80672 5.2315,-15.99199 11.1691,-37.91873 10.4733,-38.61455 -11.1042,12.43261 -24.6025,26.23461 -53.2468,26.89661 -43.3388,1.00158 -76.7137,-12.22707 -108.0114,-35.88238 -3.2968,2.40301 -7.3051,4.50293 -7.3768,9.41077 -0.067,4.60579 4.987,9.68501 14.8751,15.26976 16.2368,9.17041 57.9124,20.00549 76.9255,20.00549 2.4078,0 4.3714,0.22666 4.3714,0.51605 0,0.28945 -11.1724,14.49603 -24.8323,31.54129 -20.964,26.15958 -25.3941,31.16825 -28.4144,32.20914 -7.0084,2.4152 -46.1639,0.82074 -67.2112,-2.73217 -10.0933,-1.7038 -14.6028,-3.57426 -20.0055,-8.31792 -9.7893,-9.99141 -17.2345,-22.32753 -27.2305,-31.84485 -11.0843,4.18305 -22.8592,8.53161 -41.4681,8.74292 -14.5205,0.16502 -28.077,-3.74909 -41.4681,-8.74292 -9.996,9.51732 -17.4412,21.85344 -27.2306,31.84485 -5.4027,4.74366 -9.9122,6.61412 -20.0055,8.31792 -21.0472,3.55291 -60.2027,5.14737 -67.2111,2.73217 -3.0204,-1.04089 -7.4505,-6.04956 -28.4145,-32.20914 -13.6599,-17.04526 -24.8323,-31.25184 -24.8323,-31.54129 0,-0.28942 1.9637,-0.51605 4.3715,-0.51605 19.0131,0 60.6886,-10.83508 76.9255,-20.00549 9.8881,-5.58475 14.9423,-10.66397 14.8751,-15.26976 -0.072,-4.90784 -4.08,-7.00776 -7.3769,-9.41077 -31.2977,23.65531 -64.6725,36.88396 -108.0115,35.88238 -28.6443,-0.662 -42.1424,-14.464 -53.2466,-26.89661 -0.6959,0.69582 5.2418,22.62256 10.4733,38.61455 30.1943,81.60153 86.7129,151.10469 145.6544,213.80672 -26.223,-38.32826 -54.5819,-76.28451 -74.9219,-118.27218 29.9345,24.43355 44.1659,38.11088 89.0988,45.90027 -57.7642,-18.56191 -86.9175,-48.31931 -105.2185,-76.07547 -9.3033,-14.10981 -23.195,-45.85542 -34.0611,-72.79689 15.0034,2.99264 12.9262,4.46811 18.6093,13.60008 3.7398,5.67062 12.2642,18.88366 18.9429,29.35555 22.1054,34.66076 31.525,46.91229 41.6199,54.15747 5.5225,3.96354 6.9944,5.49882 20.3394,6.10184 l 107.1007,0.39463 c 7.1501,-10.30266 20.6319,-27.44749 26.8662,-35.48773 10.6506,-13.73579 11.2843,-13.3313 17.1327,-13.3313 z"
       inkscape:path-effect="#path-effect12283"
       id="path12281"
       d="m 1879.1023,475.60834 c 0,0 1.0536,-1.28797 1.0415,0.99968 -0.012,2.28765 -1.0795,8.15091 -5.3886,22.45339 -4.3091,14.30248 -4.273,9.73622 -4.2075,2.38258 0.065,-7.35364 0.1342,-17.49466 -4.074,-14.34168 -4.2081,3.15298 -4.276,12.69661 -4.3897,23.75473 -0.1137,11.05813 -0.2777,23.63075 -4.6034,32.84171 -4.3256,9.21095 -4.1205,-3.40803 -3.939,-17.9765 0.1815,-14.56847 0.3168,-31.08644 -3.8813,-29.67346 -8.3963,2.82595 -0.059,6.99778 -8.4735,11.19818 -8.4143,4.2004 0.078,-8.49929 -8.3011,-7.86029 -8.3789,0.63901 -0.1547,17.00216 -8.7005,30.23373 -4.2729,6.61579 -4.17,-0.81245 -4.0644,-9.93769 0.1057,-9.12524 0.2018,-19.94747 -3.9834,-20.11968 -4.1851,-0.1722 -4.2757,10.68878 -4.4269,23.24863 -0.1511,12.55985 -0.3721,26.81856 -4.6709,33.44182 -4.2988,6.62327 -4.0998,-4.64522 -3.9313,-16.22455 0.1685,-11.57933 0.3034,-23.4695 -3.9473,-18.08961 -4.2508,5.37989 -4.4046,17.34252 -4.6001,29.40567 -0.1956,12.06314 -0.4332,24.22679 -4.739,30.00873 -4.3058,5.78193 -4.0471,-6.3847 -3.8276,-18.66833 0.2195,-12.28364 0.3986,-24.68428 -3.868,-19.37038 -4.2666,5.3139 -4.4668,17.79202 -4.6992,29.7772 -0.2325,11.98517 -0.4948,23.47739 -4.7594,26.81948 -4.2646,3.34209 -3.994,-8.08692 -3.7676,-19.11962 0.2263,-11.03269 0.412,-21.66908 -3.8637,-16.74176 -4.2757,4.92732 -4.4765,15.42961 -4.6797,24.79407 -0.2031,9.36445 -0.4043,17.59107 -4.6001,17.96707 -4.1958,0.37599 -3.9911,-8.01752 -3.8063,-16.44905 0.1848,-8.43153 0.3496,-16.90108 -3.8415,-16.67717 -4.191,0.2239 -4.3547,8.60837 -4.5376,16.94072 -0.183,8.33235 -0.385,16.61258 -4.5721,16.62801 -4.187,0.0154 -3.9843,-8.29288 -3.8011,-16.63679 0.1832,-8.34391 0.3468,-16.72342 -3.8374,-16.85041 -4.1842,-0.12699 -4.3474,8.25252 -4.5319,16.66764 -0.1846,8.41512 -0.3907,16.86584 -4.5778,16.88127 -4.187,0.0154 -3.9806,-8.43703 -3.7937,-16.96829 0.187,-8.53127 0.3542,-17.14134 -3.8266,-17.44115 -4.1809,-0.29981 -4.3472,8.31026 -4.537,16.99914 -0.1899,8.68889 -0.4038,17.45658 -4.5909,17.47201 -4.187,0.0154 -3.973,-8.74611 -3.7789,-17.6375 0.1941,-8.89139 0.3676,-17.91262 -3.8094,-18.41658 -4.1771,-0.50395 -4.3489,8.51728 -4.5476,17.66836 -0.1988,9.15108 -0.4252,18.432 -4.6123,18.44743 -4.187,0.0154 -3.9618,-9.1878 -3.7558,-18.69024 0.2061,-9.50243 0.3914,-19.30408 -3.7732,-20.48549 -4.1646,-1.18142 -4.3457,8.62023 -4.5621,18.72109 -0.2164,10.10085 -0.47,20.50092 -4.6571,20.51635 -4.187,0.0154 -3.9346,-10.2406 -3.6917,-21.66763 0.2429,-11.42702 0.4701,-24.02504 -3.6369,-28.69359 -4.1071,-4.66855 -4.3127,7.92947 -4.5913,21.69848 -0.2786,13.76902 -0.6412,28.70902 -4.8282,28.72445 -4.1871,0.0154 -3.8135,-15.1586 -3.4889,-31.53074 0.3245,-16.37215 0.5902,-33.94242 -3.5289,-38.71947 -4.119,-4.77706 -4.3702,13.72897 -4.7156,32.05195 -0.3453,18.32298 -0.7823,36.46291 -4.8401,30.95367 -4.0579,-5.50925 -3.6711,-22.92929 -3.3928,-38.63005 0.2782,-15.70075 0.4617,-29.68222 -3.7435,-28.31431 -4.2053,1.36792 -4.4017,15.38045 -4.6197,27.7376 -0.218,12.35714 -0.4436,23.05891 -4.5239,17.80529 -4.0804,-5.25362 -3.8762,-15.94831 -3.7235,-25.17216 0.1528,-9.22385 0.2601,-16.97687 -3.9355,-16.34715 -4.1956,0.62971 -4.2979,7.75 -4.4013,14.12227 -0.1035,6.37227 -0.2049,11.99652 -4.3499,9.63415 -8.29,-4.72475 0.36,-22.50105 -8.0115,-22.62972 -8.3715,-0.12867 -0.2575,16.94768 -8.8011,26.31098 -4.2718,4.68164 -4.147,-1.93863 -4.0131,-9.94401 0.1339,-8.00538 0.2689,-17.39587 -3.9057,-18.25466 -4.1746,-0.85878 -4.3057,8.72314 -4.4957,19.91745 -0.19,11.19431 -0.4472,24.00101 -4.753,29.59178 -4.3058,5.59077 -4.0208,-7.23369 -3.7568,-21.81125 0.264,-14.57756 0.49,-30.90822 -3.6776,-32.32985 -4.1677,-1.42162 -4.3933,15.86982 -4.7272,34.05116 -0.3338,18.18135 -0.7852,37.25261 -5.0235,39.39062 -4.2382,2.138 -3.7894,-16.3266 -3.4508,-34.00467 0.3385,-17.67807 0.5766,-34.56962 -3.6886,-29.28551 -4.2652,5.2841 -4.5261,21.63729 -4.8301,36.6656 -0.304,15.02831 -0.6417,28.73173 -4.828,28.71631 -4.1863,-0.0154 -3.8618,-13.36716 -3.6054,-25.7776 0.2564,-12.41045 0.4527,-23.87962 -3.8004,-20.12993 -4.2531,3.74969 -4.4652,15.21886 -4.6913,25.74675 -0.2262,10.52789 -0.4618,20.1145 -4.648,20.09908 -4.1863,-0.0154 -3.9449,-9.91567 -3.736,-19.60676 0.2089,-9.6911 0.3865,-19.17306 -3.8157,-18.35192 -4.2022,0.82113 -4.3826,10.30309 -4.5841,19.57591 -0.2015,9.27282 -0.4231,18.33649 -4.6094,18.32107 -4.1863,-0.0154 -3.9645,-9.10943 -3.7689,-18.09185 0.1955,-8.98241 0.3653,-17.85322 -3.8297,-17.42227 -4.1949,0.43096 -4.3661,9.30178 -4.5576,18.061 -0.1915,8.75922 -0.4027,17.40684 -4.589,17.39142 -4.1863,-0.0154 -3.9753,-8.66626 -3.7874,-17.25103 0.1878,-8.58477 0.3528,-17.10347 -3.8387,-16.85462 -4.1915,0.24886 -4.3573,8.76756 -4.5427,17.22018 -0.1854,8.45263 -0.3901,16.83919 -4.5764,16.82377 -4.1863,-0.0154 -3.9818,-8.39736 -3.7983,-16.76083 0.1835,-8.36346 0.3462,-16.70845 -3.8416,-16.64998 -4.1878,0.0585 -4.3507,8.40345 -4.5335,16.72997 -0.1828,8.32652 -0.3855,16.63456 -4.5718,16.61914 -4.1863,-0.0154 -3.9871,-8.17096 -3.8032,-16.54445 0.184,-8.37349 0.3517,-16.96494 -3.8178,-17.85219 -4.1695,-0.88725 -4.3378,7.85981 -4.5269,16.54156 -0.189,8.68175 -0.3984,17.29819 -4.5574,16.14969 -4.1589,-1.14849 -3.9352,-10.43132 -3.719,-20.66667 0.2161,-10.23536 0.4205,-21.42324 -3.6806,-26.38186 -4.1011,-4.95861 -4.285,6.07794 -4.5074,17.31814 -0.2224,11.2402 -0.4853,22.68406 -4.5787,18.54006 -4.0934,-4.14399 -3.8433,-15.608 -3.6266,-27.32108 0.2168,-11.71308 0.399,-23.67523 -3.7142,-28.81553 -4.1132,-5.14029 -4.2759,6.71163 -4.4741,18.38728 -0.1982,11.67564 -0.4302,23.17501 -4.5028,17.32961 -4.0727,-5.84541 -3.861,-17.3371 -3.6872,-28.68284 0.1737,-11.34574 0.3101,-22.54554 -3.8174,-27.80714 -4.1275,-5.26161 -4.2469,5.89861 -4.396,16.7815 -0.1491,10.88288 -0.3253,21.48843 -4.4105,15.11748 -4.0853,-6.37094 -3.9043,-18.83551 -3.7788,-29.68216 0.1255,-10.84664 0.2028,-20.07537 -3.9848,-19.97463 -4.1875,0.10074 -4.2693,9.31515 -4.3539,16.92364 -0.085,7.60848 -0.1621,13.61102 -4.2717,7.28801 -8.2191,-12.64602 0.249,-23.82434 -8.116,-24.7976 -8.365,-0.97325 -0.083,9.01781 -8.4326,6.55294 -8.3499,-2.46487 0.067,-7.39048 -8.2797,-10.72076 -4.1734,-1.66514 -4.2896,12.89196 -4.4378,25.56937 -0.1483,12.67741 -0.3087,23.47512 -4.3687,14.2912 -4.0601,-9.18393 -3.9345,-19.9418 -3.8459,-29.27372 0.089,-9.33193 0.1429,-17.2379 -4.0212,-20.71802 -8.3283,-6.96025 -4.3311,18.47009 -4.3311,18.47009 m 519.0075,13.73987 c 0,0 0.9245,11.22186 0.7311,24.34077 -0.1934,13.11892 -1.5152,28.13488 -5.8535,35.7231 -4.3382,7.58821 -4.0831,-4.74538 -3.8746,-16.63488 0.2085,-11.88949 0.3758,-23.33489 -3.956,-13.97027 -4.3317,9.36461 -4.5318,20.78332 -4.7476,31.51707 -0.2159,10.73375 -0.4463,20.78254 -4.7927,27.40731 -4.3465,6.62477 -4.1018,-3.25321 -3.8817,-13.17538 0.2202,-9.92216 0.4154,-19.8885 -3.9016,-13.44044 -4.3171,6.44806 -4.5309,16.39984 -4.7676,26.23483 -0.2366,9.83499 -0.4958,19.55319 -4.8487,25.53411 -4.353,5.98091 -4.0745,-3.80476 -3.8136,-13.93327 0.2609,-10.12851 0.5011,-20.59987 -3.7935,-15.99033 -8.5892,9.21908 -0.2065,8.73022 -8.7586,15.68392 -8.5522,6.95371 0.1696,-6.58373 -8.3825,0.35665 -8.5522,6.94038 -0.1749,6.75714 -8.7135,12.73854 -8.5386,5.98141 0.1617,-5.86638 -8.3603,-0.47186 -8.522,5.39451 -0.1802,6.47364 -8.676,10.67862 -8.4958,4.20499 0.1543,-5.32556 -8.343,-1.04672 -8.4973,4.27884 -0.1514,5.17702 -8.6071,7.91091 -8.4557,2.73389 0.1102,-3.65896 -8.3665,-0.22662 -8.4766,3.43233 -0.088,2.90211 -8.5169,4.71726 -8.4293,1.81515 -4.1891,0.0791 -4.1891,0.0791 m 86.7273,-152.37679 c 0,0 4.0926,10.1764 -4.2744,9.534 -8.367,-0.64241 0.091,-9.89211 -8.2691,-11.51842 -8.36,-1.6263 -0.097,10.77176 -8.4548,9.17559 -8.3581,-1.59617 0.095,-10.78845 -8.2584,-13.40725 -8.3535,-2.6188 -0.099,11.79698 -8.4534,9.64286 -8.3539,-2.15411 0.1003,-12.2507 -8.2483,-15.96078 -8.3486,-3.71008 -0.1056,13.82773 -8.4563,11.09158 -8.3506,-2.73616 0.1084,-14.79588 -8.2386,-19.66568 -8.347,-4.86981 -0.1128,17.09764 -8.4574,13.17751 -8.3445,-3.92013 0.112,-18.27718 -8.2399,-23.86686 -8.3518,-5.58968 -4.2702,16.53155 -4.2702,16.53155 m 73.1028,137.97757 c 0,0 3.6049,21.09448 -5.1125,32.13909 -8.7175,11.04461 0.7135,-23.7272 -8.092,-9.23205 -8.8054,14.49515 -0.6258,20.25185 -9.3546,30.62019 -8.7289,10.36834 0.5508,-16.25844 -8.2692,-3.05927 -8.82,13.19918 -0.4598,13.40929 -9.2005,23.27217 -8.7407,9.86289 0.3828,-10.16078 -8.4706,2.5969 -8.8534,12.75767 -0.2701,7.25149 -9.0237,16.73921 -8.7536,9.48772 -4.2845,2.42963 -4.2845,2.42963 M 1485.5865,468.84284 c 0,0 4.1682,5.06343 -4.2514,12.76908 -8.4197,7.70564 0.09,-18.92825 -8.3075,-13.04051 -8.3975,5.88774 -0.1097,19.92022 -8.5102,23.51726 -8.4004,3.59703 0.1118,-17.62761 -8.2881,-12.92829 -8.3999,4.69932 -0.1119,16.4151 -8.5074,19.0409 -8.3955,2.62579 0.1069,-14.34837 -8.2907,-10.81639 -8.3975,3.53198 -0.1049,13.42861 -8.497,15.49189 -8.3922,2.06328 0.099,-11.972 -8.2931,-9.53014 -8.3922,2.44185 -0.099,11.6157 -8.4869,13.08518 -8.3875,1.46947 0.095,-10.65768 -8.2909,-9.19887 -8.3855,1.45881 -0.098,10.78324 -8.475,11.15558 -8.377,0.37235 -4.0997,-9.41527 -4.0997,-9.41527 m 89.1235,151.79754 c 0,0 4.1302,1.83715 -4.1872,0.0161 -8.3173,-1.82109 0.043,-1.36843 -8.2292,-4.73662 -8.2721,-3.36819 -0.089,2.9692 -8.3811,0.25773 -8.2918,-2.71146 0.1087,-3.60275 -8.1442,-7.75799 -8.253,-4.15525 -0.1487,5.10997 -8.403,1.01959 -8.2542,-4.09038 0.1497,-5.14016 -8.0808,-10.31085 -8.2306,-5.17068 -0.1717,6.20017 -8.3869,0.48992 -8.2153,-5.71025 0.156,-5.60572 -8.048,-12.1442 -8.2039,-6.53847 -0.1628,6.2985 -8.3644,-0.34529 -8.2015,-6.6438 0.1603,-6.10188 -8.0118,-14.58247 -8.1722,-8.48059 -4.2958,4.53395 -4.2958,4.53395 m 71.6422,113.68517 c 0,0 3.9669,5.43696 -4.0559,-3.2074 -8.0228,-8.64436 0.1113,-2.51974 -7.8225,-13.9321 -7.9338,-11.41236 -0.2003,5.29851 -8.2332,-3.66439 -8.033,-8.96291 0.2978,-7.69201 -7.6646,-19.38748 -7.9623,-11.69546 -0.3683,10.43797 -8.4107,1.06047 -8.0423,-9.37749 0.4472,-12.67978 -7.5311,-25.17476 -7.9784,-12.49498 -0.5111,15.81486 -8.5624,5.89985 -8.0514,-9.91502 0.5831,-18.25662 -7.3987,-32.37482 -3.9908,-7.0591 -4.1442,-1.43802 -4.3164,4.62044 -0.1721,6.05846 -0.3662,12.55428 -4.3963,7.24467 -4.0302,-5.30962 -4.8336,-13.91357 -4.6417,-21.19013 0.1919,-7.27656 1.3827,-13.22571 1.3827,-13.22571 m -7.9375,-18.90575 c 0,0 0.813,10.68478 0.5859,19.92394 -0.2272,9.23915 -1.4843,17.03267 -5.5192,11.25013 -4.035,-5.78254 -3.812,-14.64799 -3.603,-23.83575 0.209,-9.18776 0.4034,-18.69784 -3.6491,-25.76963 -4.0525,-7.0718 -4.2268,2.45344 -4.4277,12.13511 -0.2009,9.68167 -0.4299,19.51977 -4.4705,13.0737 -4.0406,-6.44606 -3.8263,-16.40695 -3.6274,-27.03754 0.1988,-10.63058 0.3811,-21.93086 -3.6763,-31.05568 -4.0575,-9.12483 -4.2082,2.20417 -4.3985,13.95225 -0.1904,11.74807 -0.4253,23.91522 -4.4733,16.46669 -4.0481,-7.44852 -4.8441,-22.20033 -4.6704,-35.09 0.1738,-12.88967 1.3272,-23.91722 1.3272,-23.91722"
       style="fill:none;stroke:#3465a4;stroke-width:8;stroke-miterlimit:4;stroke-dasharray:none"
       inkscape:connector-curvature="0" />
    <path
       id="path12359"
       d="m 1562.3569,302.08781 c -0.1023,58.91865 -9.281,100.01923 -46.6289,145.22951 -8.2844,10.02837 -18.1061,20.91822 -18.5483,34.60737 -0.3325,10.29296 4.4823,19.605 10.6858,28.53589 -3.6235,-8.77259 -6.0272,-17.34883 -5.009,-26.89658 0.8939,-8.38166 6.7816,-14.24129 23.9519,-31.14663 16.519,-16.26402 19.6278,-20.14286 22.6163,-16.90907 1.3219,1.43044 1.125,9.67775 -0.7286,24.65019 -2.67,21.56618 -1.7452,36.33963 2.8536,45.44493 4.7221,9.34953 17.1538,16.98541 34.0609,20.94654 3.6463,0.85431 8.8968,1.09288 14.3894,1.09288 5.4926,0 10.743,-0.23843 14.3893,-1.09288 16.9071,-3.96113 29.3389,-11.59701 34.061,-20.94654 4.5987,-9.1053 5.5235,-23.87875 2.8536,-45.44493 -1.8536,-14.97244 -2.0505,-23.21975 -0.7286,-24.65019 2.9885,-3.23379 6.0973,0.64505 22.6162,16.90907 17.1704,16.90534 23.0581,22.76497 23.952,31.14663 1.0182,9.54775 -1.3856,18.12399 -5.009,26.89658 6.2035,-8.93089 11.0183,-18.24293 10.6858,-28.53589 -0.4423,-13.68915 -10.264,-24.579 -18.5483,-34.60737 -37.348,-45.21028 -46.5268,-86.31086 -46.6289,-145.22951 -6.4709,30.94171 -5.56,77.19697 -4.3715,117.05791 0.7502,25.15954 2.746,41.64955 5.4036,56.88964 2.5192,14.44601 2.1523,25.43773 -2.9143,29.56806 -9.6016,7.82722 -23.0078,10.64526 -35.7609,10.6554 -12.7531,0.0112 -26.1545,-2.79686 -35.761,-10.6554 -5.0603,-4.13957 -5.4335,-15.12205 -2.9143,-29.56806 2.6577,-15.24009 4.6535,-31.7301 5.4036,-56.88964 1.1885,-39.86094 2.0994,-86.1162 -4.3714,-117.05791 z"
       style="fill:none;stroke:#3465a4;stroke-width:3;stroke-miterlimit:4;stroke-dasharray:none"
       inkscape:connector-curvature="0" />
    <path
       id="path12361"
       d="m 1674.1256,510.39593 c 0,0 0.3892,-0.45502 0.5148,-0.0774 0.063,0.18881 0.064,0.58579 -0.1224,1.35189 -0.1866,0.7661 -0.5526,1.90132 -1.3653,3.56662 -0.4064,0.83265 -0.7582,1.35614 -1.0331,1.63522 -0.275,0.27907 -0.4755,0.31372 -0.6248,0.16869 -0.2987,-0.29007 -0.4015,-1.2989 -0.6261,-2.5086 -0.2246,-1.20971 -0.5855,-2.6203 -1.2006,-3.71391 -0.6151,-1.09361 -1.4614,-1.87024 -2.5203,-1.81202 -1.0589,0.0582 -1.297,0.82733 -1.2116,1.97602 0.085,1.14868 0.4769,2.67695 0.7308,4.25348 0.254,1.57654 0.3683,3.20134 0.1013,4.54311 -0.2669,1.34177 -0.9019,2.40051 -2.0258,2.8449 -1.124,0.44438 -1.5828,-0.16684 -1.7946,-1.31134 -0.2118,-1.1445 -0.2154,-2.82228 -0.3951,-4.511 -0.1797,-1.68872 -0.5364,-3.38838 -1.123,-4.57665 -0.5866,-1.18826 -1.3657,-1.86513 -2.3328,-1.50827 -0.9671,0.35686 -1.1817,1.38346 -1.1498,2.73621 0.032,1.35276 0.2947,3.03166 0.3935,4.69313 0.099,1.66146 0.035,3.30549 -0.3648,4.5885 -0.3995,1.283 -1.1169,2.20497 -2.2381,2.42233 -1.1212,0.21736 -1.5089,-0.50517 -1.6321,-1.65962 -0.1232,-1.15445 -0.013,-2.74084 -0.044,-4.25118 -0.032,-1.51035 -0.2008,-2.94466 -0.6017,-3.79498 -0.4008,-0.85032 -0.992,-1.11664 -1.9377,-0.29101 -0.9458,0.82564 -1.4867,1.89208 -1.8261,3.02733 -0.3395,1.13525 -0.4791,2.33931 -0.5474,3.44016 -0.1367,2.20171 0.015,3.9906 0.015,3.9906"
       style="fill:none;stroke:#3465a4;stroke-width:2.80175948"
       inkscape:path-effect="#path-effect12363"
       inkscape:original-d="m 1669.0629,508.88201 c -9.7082,-0.33019 -23.4158,6.63361 -21.6751,15.17867 0.4606,2.26142 4.3632,2.19919 11.4447,0.45535 7.2355,-1.78176 10.585,-3.55818 13.7215,-7.28576 2.753,-3.63259 2.5607,-7.06043 0.3643,-7.74112 -1.1663,-0.36145 -2.4685,-0.55993 -3.8554,-0.60714 z"
       inkscape:connector-curvature="0" />
    <path
       id="path12365"
       d="m 1550.7562,525.63694 c 0,0 0.6219,-0.30426 1.1673,-1.21905 0.2727,-0.4574 0.5204,-1.06766 0.5859,-1.87192 0.066,-0.80426 -0.049,-1.80242 -0.5856,-3.03907 -0.2683,-0.61833 -0.5244,-0.98233 -0.7186,-1.14447 -0.1942,-0.16214 -0.3303,-0.12258 -0.4315,0.0633 -0.2022,0.37169 -0.2844,1.3277 -0.5865,2.41835 -0.3022,1.09066 -0.8464,2.31506 -1.5649,3.24011 -0.7185,0.92504 -1.5664,1.55255 -2.2391,1.45905 -0.6727,-0.0935 -0.5164,-0.79117 -0.1283,-1.82547 0.3881,-1.0343 0.9724,-2.40668 1.2597,-3.84539 0.2872,-1.4387 0.2719,-2.94396 -0.1275,-4.22728 -0.3993,-1.28331 -1.1582,-2.34369 -2.087,-2.88163 -0.4643,-0.26896 -0.732,-0.27311 -0.8487,-0.0756 -0.1167,0.1975 -0.087,0.59646 -0,1.13172 0.082,0.53526 0.2134,1.2067 0.304,1.94935 0.091,0.74265 0.1388,1.55644 0.093,2.37794 -0.046,0.8215 -0.1865,1.6507 -0.4215,2.42627 -0.235,0.77557 -0.5636,1.49756 -0.9402,2.10649 -0.7533,1.21786 -1.6667,1.98478 -2.3035,1.82796 -0.6368,-0.15683 -0.3838,-1.07591 -0.01,-2.39261 0.377,-1.31671 0.8219,-3.03331 0.8133,-4.77524 -0,-0.87096 -0.1123,-1.74787 -0.3252,-2.58128 -0.2128,-0.83342 -0.5295,-1.62332 -0.9127,-2.3187 -0.7664,-1.39075 -1.7821,-2.40278 -2.6227,-2.62306 -0.4202,-0.11014 -0.5872,0.0332 -0.5838,0.3657 0,0.33254 0.1731,0.85414 0.3937,1.49925 0.2206,0.64511 0.4895,1.41363 0.7072,2.24066 0.2177,0.82703 0.3829,1.71252 0.4418,2.59342 0.059,0.8809 0.011,1.75722 -0.1413,2.56813 -0.1527,0.81092 -0.4092,1.55649 -0.7232,2.17775 -0.314,0.62126 -0.6828,1.11831 -1.0442,1.43283 -0.3613,0.31453 -0.7112,0.44668 -1.0205,0.3368 -0.6185,-0.21977 -0.4553,-1.18631 -0.2369,-2.52654 0.1091,-0.67012 0.2285,-1.43381 0.2846,-2.24373 0.056,-0.80991 0.048,-1.66609 -0.058,-2.51958 -0.2117,-1.70698 -0.8516,-3.40469 -1.6902,-4.68121 -0.8387,-1.27652 -1.8152,-2.12938 -2.521,-2.13935 -0.7058,-0.01 -0.4375,0.83879 0.027,2.08053 0.2321,0.62086 0.508,1.33976 0.7438,2.09902 0.2359,0.75926 0.4309,1.55885 0.5404,2.34267 0.219,1.56765 0.063,3.07094 -0.3418,4.08081 -0.2025,0.50493 -0.4575,0.88692 -0.7289,1.09315 -0.2715,0.20623 -0.5559,0.23684 -0.8547,0.0375 -0.5975,-0.39865 -0.67,-1.33223 -0.7245,-2.5001 -0.054,-1.16788 -0.1177,-2.57112 -0.4251,-3.89806 -0.3074,-1.32694 -0.8493,-2.57719 -1.4638,-3.42291 -0.6146,-0.84571 -1.2556,-1.28503 -1.7821,-0.99097 -0.5265,0.29405 -0.6058,0.9191 -0.5234,1.68741 0.082,0.7683 0.318,1.67953 0.523,2.55007 0.205,0.87055 0.3819,1.70053 0.4938,2.3123 0.1118,0.61178 0.172,1.0059 0.172,1.0059"
       style="fill:none;stroke:#3465a4;stroke-width:2.80175948"
       inkscape:path-effect="#path-effect12367"
       inkscape:original-d="m 1530.937,508.88201 c -1.3869,0.0471 -2.689,0.24572 -3.8554,0.60714 -2.1964,0.68069 -2.3887,4.10853 0.3643,7.74112 3.1366,3.72758 6.486,5.504 13.7216,7.28576 7.0815,1.74384 10.984,1.80607 11.4447,-0.45535 1.7406,-8.54506 -11.967,-15.50886 -21.6752,-15.17867 z"
       inkscape:connector-curvature="0" />
    <path
       inkscape:connector-curvature="0"
       id="path12537"
       d="m 1569.602,623.2282 c 0,0 5.3037,0.41815 16.0476,0.56917 5.372,0.0755 12.1071,0.0842 20.2236,-0.0595 8.1166,-0.14372 17.618,-0.43988 28.4834,-0.97415 21.7308,-1.06855 -3.0028,-1.41505 -34.2509,-1.85311 -15.6241,-0.21903 -32.8836,-0.46096 -46.8203,-0.82748 -13.9367,-0.36652 -24.5472,-0.85763 -26.9236,-1.57504 -2.3765,-0.71741 5.2765,-0.95202 18.2528,-0.94156 12.9764,0.0105 31.2608,0.266 50.0634,0.52891 18.8027,0.26292 38.123,0.5332 53.2055,0.57313 15.0825,0.0399 25.9415,-0.15046 27.7514,-0.80892 1.8099,-0.65846 -7.1064,-1.12447 -21.4233,-1.49504 -14.3168,-0.37058 -34.0367,-0.64572 -53.8755,-0.92245 -19.8388,-0.27672 -39.7966,-0.55503 -54.6129,-0.93194 -14.8163,-0.3769 -24.4886,-0.85241 -23.7993,-1.52353 0.6892,-0.67111 10.8329,-0.95497 25.7025,-1.00325 14.8695,-0.0483 34.4555,0.13902 53.9517,0.41021 38.9925,0.54238 77.5871,1.42032 77.5871,1.42032"
       style="fill:none;stroke:#3465a4;stroke-width:2.80175948"
       inkscape:path-effect="#path-effect12539"
       inkscape:original-d="m 1523.3477,611.55053 c -1.5817,1.43906 -4.004,2.78416 -2.7625,4.73573 1.3506,2.12309 14.66,5.38425 33.4538,6.28398 30.5491,1.46246 61.37,2.02208 91.922,0 18.7845,-1.24328 32.1031,-4.16089 33.4538,-6.28398 1.2415,-1.95157 -1.1809,-3.29667 -2.7625,-4.73573 l -153.3046,0 z" />
    <path
       inkscape:original-d="m 1561.8104,669.77588 c 11.6992,13.73336 18.3961,20.88874 18.3359,31.35914 -0.1115,19.63347 -8.6168,21.9619 -7.7412,53.2164 0.7032,25.0969 4.7683,41.44867 7.1037,57.37538 5.5576,37.90033 12.046,38.49309 20.4912,38.49309 8.4452,0 14.9336,-0.59276 20.4912,-38.49309 2.3354,-15.92671 6.4005,-32.27848 7.1036,-57.37538 0.8756,-31.2545 -7.6297,-33.58293 -7.7411,-53.2164 -0.06,-10.4704 6.6367,-17.62578 18.3358,-31.35914 l -76.3791,0 z"
       inkscape:path-effect="#path-effect12631"
       id="path12629"
       d="m 1591.501,848.20971 c 0,0 16.275,1.33626 19.3092,-2.6421 3.0343,-3.97835 -21.6398,0.79425 -23.5842,-3.00152 -1.9443,-3.79577 26.257,-0.96357 27.629,-4.88127 1.3721,-3.9177 -29.4574,1.08124 -30.6073,-2.74401 -1.1498,-3.82526 31.9334,-1.17201 32.8733,-5.07419 0.94,-3.90219 -33.9963,1.24794 -34.8386,-2.58894 -0.8423,-3.83688 35.7635,-1.3127 36.4929,-5.2075 0.7294,-3.89479 -37.3246,1.37024 -37.9987,-2.47315 -0.6741,-3.84339 38.7212,-1.42139 39.3236,-5.31187 0.6023,-3.89048 -39.9871,1.46809 -40.5643,-2.37918 -0.5773,-3.84728 41.1381,-1.51025 41.7775,-5.40243 0.6394,-3.89218 -42.3568,1.55523 -43.0064,-2.28972 -0.6496,-3.84496 43.656,-1.60284 44.3286,-5.49658 0.6726,-3.89374 -44.9873,1.65196 -45.6471,-2.19296 -0.6597,-3.84491 46.3272,-1.70105 46.9615,-5.59373 0.6342,-3.89267 -47.6276,1.74906 -48.2352,-2.0981 -0.6076,-3.84717 48.8739,-1.79474 49.4217,-5.68458 0.5477,-3.88983 -50.033,1.83755 -50.5483,-2.01334 -0.5153,-3.85088 51.0981,-1.87657 51.5335,-5.76262 0.4354,-3.88606 -52.0504,1.9118 -52.4526,-1.94358 -0.4022,-3.85537 52.8884,-1.9425 53.2018,-5.82441 0.3135,-3.88191 -53.6043,1.96905 -53.8863,-1.89108 -0.2819,-3.86012 54.1993,-1.99082 54.391,-5.8686 0.1917,-3.87778 -54.6725,2.00846 -54.8352,-1.85638 -0.1628,-3.86484 55.0365,-2.02175 55.0909,-5.89483 0.054,-3.87308 -55.2686,2.03054 -55.2757,-1.84037 -0.01,-3.8709 55.339,-2.03303 55.1677,-5.89816 -0.1713,-3.86512 -55.185,2.02764 -54.9468,-1.85261 0.2381,-3.88025 54.7876,-2.01296 54.3059,-5.86701 -0.4818,-3.85405 -54.0812,1.98726 -53.5014,-1.90588 0.5798,-3.89314 53.0257,-1.9484 52.1505,-5.78832 -0.8753,-3.83993 -51.5713,1.8952 -50.5763,-2.01354 0.995,-3.90875 49.6589,-1.82484 48.5044,-5.65484 -1.1545,-3.82999 -47.4427,1.74364 -46.2717,-2.17192 1.171,-3.91555 45.0416,-1.65529 44.1412,-5.49496 -0.9005,-3.83967 -42.9095,1.57718 -42.166,-2.32301 0.7434,-3.90019 41.2634,-1.51658 40.9342,-5.37757 -0.3293,-3.861 -40.2057,1.47793 -40.038,-2.40144 0.1676,-3.87936 39.5659,-1.45431 40.0566,-5.34578 0.4907,-3.89147 -39.7441,1.46109 -40.6656,-2.37857 -0.9214,-3.83967 41.1545,-1.51284 43.1377,-5.45952 1.9832,-3.94669 -44.1019,1.62142 -46.3529,-2.16969 -2.2511,-3.79112 48.4321,-1.78053 51.4867,-5.76697 3.0547,-3.98643 -53.8239,1.97902 -56.8299,-1.78466 -3.0059,-3.76368 59.9578,-2.20446 63.3611,-6.20408 3.4033,-3.99962 -66.4164,2.44221 -69.6227,-1.31442 -3.2064,-3.75664 37.1626,-3.30384 37.1626,-3.30384"
       style="fill:none;stroke:#3465a4;stroke-width:2.80175948"
       inkscape:connector-curvature="0" />
    <path
       inkscape:connector-curvature="0"
       id="path12725"
       d="m 1863.8208,225.97509 c 0,0 2.3035,-2.59439 -1.7028,-12.63495 -2.0031,-5.02028 -2.1047,-2.13209 -2.248,1.79837 -0.1432,3.93046 -0.338,8.90319 -2.4876,8.05197 -2.1496,-0.85121 -1.9564,-5.78443 -1.7575,-11.42173 0.1989,-5.63729 0.4003,-11.97865 -1.6731,-15.64613 -2.0734,-3.66749 -2.2555,2.67574 -2.4916,9.77446 -0.2361,7.09873 -0.5358,14.95295 -2.6942,14.30748 -2.1583,-0.64547 -1.8594,-8.4797 -1.5885,-16.84571 0.271,-8.36601 0.509,-17.2638 -1.6033,-20.03641 -2.1124,-2.7726 -2.3301,6.12652 -2.6224,15.60252 -0.2924,9.47601 -0.6684,19.52889 -2.8339,19.06381 -2.1656,-0.46508 -1.7899,-10.5063 -1.4742,-20.96248 0.3158,-10.45618 0.5665,-21.32733 -1.5695,-23.45228 -2.136,-2.12494 -2.3675,8.74716 -2.6964,20.07479 -0.3289,11.32762 -0.7631,23.11077 -2.9349,22.8079 -2.1719,-0.30287 -1.7372,-12.07856 -1.3914,-24.18545 0.3458,-12.1069 0.5976,-24.545 -1.5536,-26.17268 -2.1512,-1.62768 -2.386,10.81109 -2.7405,23.61838 -0.3546,12.80728 -0.8357,25.98308 -3.013,25.82943 -2.1774,-0.15365 -1.695,-13.32438 -1.3273,-26.76403 0.3677,-13.43965 0.6159,-27.14823 -1.5455,-28.37759 -2.1614,-1.22935 -2.3953,12.47968 -2.7695,26.49269 -0.3743,14.01301 -0.8951,28.33 -3.0776,28.31654 -2.1824,-0.0135 -1.6594,-14.32683 -1.2739,-28.86179 0.3855,-14.53497 0.629,-29.29152 -1.5395,-30.19131 -2.1685,-0.8998 -2.4004,13.85702 -2.7917,28.86903 -0.3913,15.01202 -0.9473,30.27923 -3.1347,30.40023 -2.1874,0.121 -1.6279,-15.14356 -1.2263,-30.59336 0.4017,-15.4498 0.6416,-31.08484 -1.5321,-31.7048 -2.1736,-0.61996 -2.4046,15.01517 -2.8122,30.86844 -0.4076,15.85327 -0.9965,31.92469 -3.1888,32.17729 -2.1923,0.25261 -1.5985,-15.8168 -1.1806,-32.04365 0.4179,-16.22686 0.6565,-32.61115 -1.5211,-32.98831 -2.1775,-0.37716 -2.4099,16.00705 -2.8345,32.58159 -0.4245,16.57455 -1.0456,33.33943 -3.2429,33.72362 -2.1973,0.3842 -1.5699,-16.37915 -1.1344,-33.27917 0.4354,-16.90003 0.6758,-33.93673 -1.5049,-34.09924 -2.1807,-0.16252 -2.2595,5.48874 -2.361,11.17076 -0.1014,5.68201 -0.2259,11.39478 -2.408,11.35529 -2.1821,-0.0395 -2.0579,-5.75107 -1.9563,-11.44517 0.1015,-5.69411 0.1804,-11.37073 -2.003,-11.34032 -2.1834,0.0304 -2.2625,5.70741 -2.3638,11.3861 -0.1014,5.6787 -0.225,11.35909 -2.4088,11.39633 -2.1838,0.0372 -2.0601,-5.64225 -1.9593,-11.2794 0.1008,-5.63715 0.1791,-11.23198 -2.0068,-11.02546 -2.1859,0.20652 -2.2651,5.80158 -2.3654,11.37233 -0.1003,5.57074 -0.2215,11.11719 -2.4068,11.22648 -2.1854,0.10929 -2.064,-5.43644 -1.9648,-10.91709 0.099,-5.48064 0.1769,-10.89621 -2.0114,-10.52658 -2.1883,0.36963 -2.2676,5.78532 -2.366,11.15324 -0.098,5.36793 -0.2155,10.6881 -2.4025,10.86668 -2.1869,0.17858 -2.0693,-5.14105 -1.9725,-10.37462 0.097,-5.23357 0.1735,-10.38108 -2.0174,-9.85825 -2.1909,0.52283 -2.2697,5.67038 -2.3652,10.74886 -0.096,5.07848 -0.2072,10.08789 -2.3957,10.33444 -2.1885,0.24655 -2.0762,-4.76248 -1.9829,-9.66596 0.093,-4.90347 0.1685,-9.70139 -2.0251,-9.03262 -2.1937,0.66877 -2.2714,5.46666 -2.3629,10.17596 -0.091,4.7093 -0.1962,9.33001 -2.3864,9.64442 -2.1901,0.3144 -2.0847,-4.30607 -1.996,-8.80269 0.089,-4.49663 0.1614,-8.8694 -2.0353,-8.05959 -2.1967,0.80981 -2.2722,5.18249 -2.3584,9.44853 -0.086,4.26603 -0.1824,8.42543 -2.3743,8.80868 -2.1919,0.38325 -2.0949,-3.77605 -2.0124,-7.79412 0.083,-4.01806 0.1517,-7.89489 -2.0485,-6.9467 -4.4004,1.89639 -0.3228,15.50667 -4.7104,16.41495 -4.3876,0.90828 0.3102,-14.51877 -4.0983,-12.34633 -4.4084,2.17244 -0.2893,13.25367 -4.6811,14.31005 -4.3919,1.05639 0.2729,-12.1385 -4.145,-9.68569 -4.4178,2.45281 -0.2468,10.74081 -4.6434,11.95409 -4.3967,1.21328 0.2259,-9.50301 -4.203,-6.75947 -4.429,2.74353 -0.1935,7.97108 -4.5957,9.35297 -4.4021,1.38189 0.1671,-6.61229 -4.275,-3.5599 -4.4421,3.0524 -0.127,4.93962 -4.5355,6.50542 -4.4085,1.56581 0.094,-3.45752 -4.3641,-0.0672 -4.4581,3.39031 -2.2524,2.51502 -2.2524,2.51502 m 105.2256,-17.70696 c 0,0 0.2986,11.29979 -0.042,22.72928 -0.3401,11.42948 -1.321,22.98865 -3.5236,23.5074 -2.2026,0.51874 -1.7637,-11.01229 -1.4147,-22.61782 0.3489,-11.60554 0.6066,-23.28558 -1.5813,-23.06486 -2.1878,0.22072 -2.4465,11.90024 -2.8035,23.68951 -0.357,11.78928 -0.8141,23.68833 -3.0226,24.34811 -2.2085,0.65979 -1.7453,-11.23936 -1.3778,-23.22096 0.3675,-11.98161 0.6379,-24.04567 -1.5526,-23.71574 -2.1904,0.32994 -2.4626,12.39393 -2.8399,24.57758 -0.3773,12.18366 -0.8616,24.48698 -3.0767,25.29557 -2.2151,0.80859 -1.723,-11.49486 -1.3331,-23.89021 0.3898,-12.39534 0.6759,-24.88258 -1.5173,-24.44154 -2.1931,0.44104 -2.482,12.9279 -2.8836,25.54444 -0.4016,12.61655 -0.9182,25.36278 -3.1404,26.32256 -2.2223,0.95979 -1.6963,-11.78663 -1.2798,-24.63431 0.4164,-12.84769 0.7215,-25.79664 -1.4747,-25.24194 -2.1961,0.5547 -2.505,13.50324 -2.9354,26.59243 -0.4304,13.08919 -0.9846,26.31903 -3.2149,27.43631 -2.2303,1.11729 -1.6647,-12.11278 -1.2169,-25.45425 0.4478,-13.34147 0.7756,-26.79433 -1.4239,-26.12262 -2.1995,0.67172 -2.5323,14.12412 -2.9965,27.72903 -0.4641,13.60491 -1.0624,27.36232 -3.3017,28.64405 -2.2394,1.28172 -1.6277,-12.47599 -1.1432,-26.35588 0.4845,-13.87989 0.8393,-27.88196 -1.3639,-27.08894 -2.2033,0.79302 -2.5644,14.79458 -3.0681,28.96135 -0.5036,14.16677 -1.1529,28.49875 -3.4026,29.9526 -2.2497,1.45386 -1.5846,-12.8785 -1.0572,-27.34438 0.5273,-14.46588 0.914,-29.06528 -1.2936,-28.14551 -2.2076,0.91977 -2.602,15.51861 -3.1516,30.29613 -0.5497,14.77753 -1.258,29.73375 -3.5194,31.3683 -2.2615,1.63455 -1.5346,-13.32215 -0.9576,-28.42414 0.5771,-15.10199 1.001,-30.34926 -1.2116,-29.29585 -2.2126,1.05342 -2.6458,16.30005 -3.2488,31.73955 -0.6029,15.4395 -1.3793,31.07186 -3.6543,32.89673 -2.275,1.82487 -1.477,-13.8081 -0.8423,-29.59835 0.6346,-15.79025 1.1021,-31.73779 -1.1164,-30.54203 -2.2184,1.19576 -2.697,17.14257 -3.3616,33.29695 -0.6646,16.15439 -1.5194,32.51636 -3.8099,34.54244 -2.2905,2.02609 -1.4107,-14.33666 -0.7096,-30.86863 0.7011,-16.53198 1.2192,-33.23317 -1.0061,-31.88398 -2.2254,1.34919 -2.7568,18.04955 -3.4925,34.97255 -0.7357,16.923 -1.6803,34.06863 -3.9888,36.30835 -2.3084,2.23972 -1.3348,-14.90692 -0.5571,-32.23427 0.3888,-8.66368 0.7345,-17.37253 0.6948,-23.72585 -0.04,-6.35332 -0.4572,-10.35111 -1.574,-9.59267 -2.2336,1.51689 -2.8262,19.02398 -3.6437,36.76877 -0.4087,8.87239 -0.8664,17.80421 -1.5229,24.82638 -0.6565,7.02217 -1.5067,12.1347 -2.6712,13.36852 -1.1646,1.23382 -1.4746,-2.64523 -1.3851,-9.10459 0.09,-6.45936 0.5695,-15.49904 1.0022,-24.58649 0.4328,-9.08745 0.8182,-18.22268 0.805,-24.87314 -0.013,-6.65046 -0.4164,-10.81615 -1.5382,-9.96453 -1.1218,0.85162 -1.8434,5.86866 -2.4022,12.99992 -0.5587,7.13127 -0.9607,16.37677 -1.4163,25.68532 -0.4557,9.30856 -0.9652,18.68017 -1.6658,26.06366 -0.7007,7.38349 -1.5869,12.77886 -2.7635,14.13493 -1.1767,1.35607 -1.4621,-2.68369 -1.3322,-9.44627 0.1299,-6.76259 0.6649,-16.24801 1.148,-25.78328 0.4831,-9.53527 0.914,-19.12038 0.9312,-26.08237 0.017,-6.96198 -0.3696,-11.30082 -1.4976,-10.34354 -2.2559,1.91455 -2.5655,9.86021 -2.8995,17.43246 -0.334,7.57225 -0.6892,14.77108 -2.8929,15.19198 -2.2038,0.4209 -1.8484,-6.78047 -1.5461,-13.54699 0.3023,-6.76653 0.5564,-13.09821 -1.7149,-10.93793 -2.2714,2.16027 -2.5406,8.57289 -2.8062,14.36507 -0.2657,5.79217 -0.5236,10.96391 -2.6906,10.64242 -2.1671,-0.32149 -1.9057,-5.6396 -1.6994,-10.12084 0.2063,-4.48123 0.3643,-8.12559 -1.9527,-5.09957 -4.6339,6.05205 -2.6885,10.9492 -2.6885,10.9492 m 16.8884,11.50042 c 0,0 0.071,9.17456 -0.5104,19.09314 -0.5813,9.91857 -1.8235,20.58117 -4.2051,23.55723 -2.3816,2.97606 -1.7447,-6.49806 -1.2326,-14.80894 0.5122,-8.31088 0.9215,-15.45851 -1.711,-7.82948 -5.2651,15.25806 -1.818,28.58427 -6.6475,35.11025 -4.8296,6.52598 -1.8614,-4.57861 -1.8614,-4.57861"
       style="fill:none;stroke:#3465a4;stroke-width:2.80175948"
       inkscape:path-effect="#path-effect12727"
       inkscape:original-d="m 1778.835,149.78506 c -35.1285,-0.35039 -73.3369,17.59332 -103.5792,41.74134 36.9866,-14.78382 78.5688,-20.25703 111.5632,-18.73049 -51.0703,2.02792 -98.3032,25.85669 -133.3294,62.44506 -4.3378,4.53131 -7.7852,10.01934 -3.4,15.42153 4.0607,5.00234 13.2658,1.81999 19.793,0.75894 -7.0635,14.30531 -18.1451,41.97831 -21.8269,68.63792 33.0933,-45.937 71.3849,-81.19541 116.1471,-96.56667 33.5704,-11.52804 72.6843,-11.8622 103.0025,4.1893 -17.0854,-56.41923 -50.9754,-77.52393 -88.3703,-77.89693 z" />
    <path
       inkscape:original-d="m 1753.851,284.93592 c -1.2154,0.0112 -2.431,0.0574 -3.6733,0.091 -0.073,0.002 -0.2241,0.028 -0.3036,0.0303 l 0,9.71435 c 0.05,-0.002 0.102,9.8e-4 0.1519,0 15.6089,-0.44397 31.7337,1.10739 45.2931,9.59291 11.087,6.93825 19.9302,17.22192 25.3788,30.11449 2.1001,4.9694 2.1217,5.26549 0.4857,7.07327 -2.4056,2.65817 -14.3252,8.31806 -21.2501,10.07863 -16.4703,3.29823 -33.2487,5.36105 -50.0593,5.40361 l 0,14.48045 c 23.647,0.25384 47.0262,-0.0485 68.3951,-12.29474 8.4559,-4.02156 10.5544,-4.59956 17.5465,-4.97859 24.2049,-1.31209 44.2993,13.54973 60.9272,29.90198 -9.5619,-17.35452 -29.3174,-28.02603 -43.2896,-35.70025 11.8498,-1.35728 24.3983,7.0977 36.9449,15.66439 -7.0649,-9.06893 -17.4108,-15.28063 -27.0787,-21.43226 9.4631,-10.19647 16.9465,-24.68109 21.4019,-38.76635 -7.1332,12.41962 -16.8235,35.76858 -33.6663,34.12165 -18.7486,-1.83324 -31.5796,-36.74101 -52.4878,-45.83956 -10.5868,-4.60699 -24.6145,-7.09007 -41.3467,-7.2554 -1.1155,-0.0112 -2.2303,-0.008 -3.3697,0 l 0,8e-5 z"
       inkscape:path-effect="#path-effect12827"
       id="path12825"
       d="m 1893.8739,379.54392 c 0,0 1.9056,3.57772 -2.0655,-0.0756 -3.9712,-3.65331 0.1341,-2.83358 -3.8432,-7.00237 -3.9773,-4.16879 -0.129,3.33821 -4.1426,0.12155 -4.0135,-3.21666 0.1591,-4.21314 -3.8785,-7.43767 -4.0376,-3.22453 -0.1363,4.21333 -4.1859,1.50711 -4.0496,-2.70622 0.1458,-4.69722 -3.9243,-7.39729 -4.0701,-2.70008 -0.1265,4.68593 -4.205,2.54117 -4.0785,-2.14477 0.1336,-5.21924 -3.9565,-7.61278 -4.0901,-2.39354 -0.123,5.46488 -4.2238,3.91441 -4.1008,-1.55046 -1.9194,-7.4149 -1.9194,-7.4149 m 32.7944,13.32452 c 0,0 2.0292,1.42133 -2.0299,-1.33387 -4.0591,-2.7552 0.044,-1.32581 -4.0067,-5.04038 -4.0507,-3.71456 -0.052,2.24952 -4.1312,-0.2889 -4.079,-2.53842 0.076,-3.33599 -4.0129,-6.24558 -4.089,-2.90958 -0.067,3.66747 -4.167,1.64625 -4.1005,-2.02122 0.077,-4.50777 -4.0318,-7.13207 -4.1083,-2.6243 -0.069,5.06503 -4.1895,3.90184 -2.0601,-0.5816 -2.0071,-4.3129 -1.9821,-7.6674 0.025,-3.3545 0.027,-6.33221 -2.0437,-5.40662 -2.0707,0.92559 -2.5976,3.9016 -2.6215,6.64622 -0.024,2.74461 0.4575,5.25783 0.4575,5.25783 m 24.5822,-39.767 c 0,0 0.5036,-0.52018 0.5198,0.0991 0.016,0.61927 -0.4471,2.378 -2.4284,6.93583 -1.9814,4.55782 -2.0029,3.78659 -2.0206,2.70889 -0.018,-1.0777 -0.038,-2.46187 -2.055,0.87009 -2.0171,3.33195 -2.0064,4.67237 -1.9939,5.98592 0.013,1.31354 0.027,2.6002 -2.0308,5.82464 -2.0574,3.22443 -2.0627,1.95966 -2.0675,0.43094 -0,-1.52872 -0.014,-3.32138 -2.0733,-1.15272 -4.1192,4.33733 -2.0733,9.41831 -2.0733,9.41831 m -12.4066,-1.60805 c 0,0 0.5,4.61376 0.4422,9.11034 -0.058,4.49659 -0.6714,8.87601 -2.7303,8.40733 -2.0589,-0.46868 -1.9691,-4.75404 -1.9162,-9.09575 0.053,-4.34171 0.068,-8.73978 -1.9994,-9.43388 -2.0671,-0.69409 -2.075,3.70382 -2.1247,8.23581 -0.05,4.532 -0.1437,9.19806 -2.2095,9.04025 -2.0658,-0.15781 -1.9704,-4.83477 -1.9194,-9.89803 0.051,-5.06326 0.051,-10.51283 -2.0215,-12.21586 -2.0729,-1.70303 -2.0496,3.75145 -2.0939,9.6653 -0.044,5.91386 -0.1688,12.28707 -2.2404,12.4215 -2.0717,0.13443 -1.9378,-6.26502 -1.8913,-13.30204 0.046,-7.03702 -0.01,-14.71161 -2.105,-17.12744 -2.095,-2.41584 -1.9905,5.21961 -2.0161,13.63065 -0.026,8.41104 -0.2106,17.59767 -2.2944,18.2842 -2.0838,0.68652 -1.8701,-8.53658 -1.8426,-18.58508 0.014,-5.02425 -0.016,-10.25486 -0.3264,-14.55629 -0.3104,-4.30143 -0.8973,-7.67368 -1.9595,-8.98123 -2.1243,-2.6151 -1.9858,3.43265 -1.9181,9.12052 0.068,5.68786 0.078,11.01583 -2.0106,6.96115 -2.0886,-4.05468 -2.1473,-9.41321 -2.2425,-14.32317 -0.095,-4.90995 -0.2236,-9.37133 -2.3631,-11.63169 -2.1395,-2.26036 -1.9899,2.29119 -1.8805,6.78867 0.1093,4.49748 0.1798,8.94088 -1.9331,6.46421 -2.1129,-2.47667 -2.2073,-6.93354 -2.3301,-11.15881 -0.1229,-4.22526 -0.2721,-8.21893 -2.4015,-9.76922 -2.1294,-1.55028 -1.9677,2.46815 -1.8386,6.448 0.1291,3.97985 0.2266,7.92113 -1.8869,6.21656 -2.1134,-1.70457 -2.2249,-5.62139 -2.3567,-9.32185 -0.1317,-3.70046 -0.2816,-7.18456 -2.3873,-8.0237 -2.1056,-0.83914 -1.9506,2.6502 -1.8226,6.05479 0.128,3.40458 0.2306,6.72443 -1.876,5.54629 -2.1066,-1.17813 -2.2177,-4.49051 -2.3432,-7.64779 -0.1254,-3.15728 -0.2639,-6.15946 -2.3588,-6.71719 -2.0949,-0.55773 -1.9533,2.45384 -1.8317,5.41503 0.1216,2.96119 0.2239,5.87202 -1.8723,5.1128 -2.0961,-0.75922 -2.2032,-3.66626 -2.3224,-6.47414 -0.1192,-2.80787 -0.2496,-5.51659 -2.3361,-5.87916 -2.0865,-0.36258 -1.9542,2.35205 -1.8377,5.04224 0.1165,2.69019 0.2174,5.35594 -1.8692,4.89563 -2.0865,-0.46031 -2.1901,-3.12383 -2.305,-5.72588 -0.1148,-2.60205 -0.2404,-5.14264 -2.32,-5.35711 -2.0795,-0.21447 -1.9529,2.3302 -1.8396,4.86843 0.1133,2.53824 0.2133,5.07005 -1.8652,4.82988 -2.0785,-0.24017 -2.1797,-2.77053 -2.2922,-5.26471 -0.1124,-2.49417 -0.2356,-4.95216 -2.3094,-5.04759 -2.0737,-0.0954 -1.9499,2.36562 -1.8382,4.8314 0.1117,2.46577 0.2112,4.93628 -1.8608,4.85977 -2.0721,-0.0765 -2.172,-2.54682 -2.2833,-4.99615 -0.1113,-2.44932 -0.2337,-4.87766 -2.3023,-4.8702 -2.0685,0.007 -2.4628,2.44905 -2.352,4.88878 0.1108,2.43973 0.7267,4.8776 0.7267,4.8776 m 66.9816,47.56851 c 0,0 0.4888,3.74619 0.4256,7.76257 -0.063,4.01638 -0.6825,8.30294 -2.7787,9.38367 -2.0963,1.08074 -1.9942,-2.81116 -1.9222,-6.7098 0.072,-3.89865 0.1137,-7.80405 -1.9675,-6.75032 -2.0811,1.05372 -2.1317,4.98373 -2.2119,8.87252 -0.08,3.8888 -0.1895,7.73638 -2.2846,8.62526 -2.0951,0.88888 -1.9788,-2.96102 -1.8919,-6.8333 0.087,-3.87229 0.144,-7.76698 -1.9372,-6.96769 -2.0812,0.79929 -2.1447,4.69072 -2.2373,8.54227 -0.093,3.85155 -0.2138,7.66323 -2.3035,8.30303 -2.0898,0.63979 -1.9638,-3.16109 -1.866,-7.02206 0.098,-3.86097 0.1666,-7.78202 -1.9095,-7.38257 -2.0761,0.39945 -2.1476,4.3177 -2.2506,8.24587 -0.103,3.92817 -0.2376,7.86626 -2.3218,8.3054 -2.0842,0.43913 -1.9459,-3.4987 -1.8386,-7.46104 0.1073,-3.96233 0.1832,-7.94918 -1.8924,-7.60808 -2.0755,0.3411 -2.1541,4.3255 -2.2644,8.29472 -0.1102,3.96922 -0.2519,7.92327 -2.331,8.20366 -2.079,0.28039 -1.9352,-3.67339 -1.823,-7.62764 0.1121,-3.95425 0.1925,-7.90898 -1.8821,-7.63047 -2.0747,0.2785 -2.1575,4.23105 -2.2708,8.1536 -0.1133,3.92255 -0.2568,7.8151 -2.3316,7.97359 -2.0748,0.15849 -1.9303,-3.73379 -1.8168,-7.61278 0.1135,-3.879 0.1962,-7.74471 -1.8773,-7.5331 -2.0736,0.21161 -2.158,4.07536 -2.2715,7.90361 -0.1134,3.82824 -0.2553,7.62099 -2.3269,7.69059 -2.0715,0.0696 -1.9293,-3.72286 -1.8167,-7.49765 0.1126,-3.77478 0.1959,-7.53188 -1.8762,-7.39155 -2.0721,0.14034 -2.1566,3.89562 -2.2685,7.61855 -0.1119,3.72294 -0.2508,7.41353 -2.3201,7.4245 -2.0694,0.011 -1.9306,-3.67934 -1.8199,-7.35625 0.1108,-3.67691 0.1939,-7.34043 -1.8766,-7.27589 -2.0704,0.0645 -2.6711,3.72152 -2.7811,7.36235 -0.11,3.64083 0.2709,7.26553 0.2709,7.26553"
       style="fill:none;stroke:#3465a4;stroke-width:2.80175948"
       inkscape:connector-curvature="0" />
    <path
       id="path12931"
       d="m 1739.0973,286.39308 c -23.9115,4.03779 -74.907,17.52739 -75.1344,47.84316 -0.1485,19.79807 41.355,35.09366 75.1344,37.00561 l 0,-14.41976 c -21.5286,-0.63886 -48.0843,-2.86743 -59.3182,-18.09295 19.7283,9.67327 42.0677,10.71286 64.2361,11.6572 18.9282,0.81371 71.6177,-5.62863 70.9147,-17.39476 -0.179,-2.9946 -11.1679,-12.66146 -18.9429,-16.96975 -15.4064,-8.53688 -35.1448,-12.57449 -50.9397,-12.81079 -24.3304,-0.36401 -47.1271,10.71586 -66.8165,24.4073 6.6608,-13.3977 35.591,-27.77942 60.8665,-31.78414 l 0,-9.44112 z"
       style="fill:none;stroke:#3465a4;stroke-width:2.80175948"
       inkscape:connector-curvature="0" />
  </g>
</svg>
