<?xml version="1.0" encoding="UTF-8" standalone="no"?>
<!-- Created with Inkscape (http://www.inkscape.org/) -->
<svg xmlns:dc="http://purl.org/dc/elements/1.1/" xmlns:cc="http://creativecommons.org/ns#" xmlns:rdf="http://www.w3.org/1999/02/22-rdf-syntax-ns#" xmlns:svg="http://www.w3.org/2000/svg" xmlns="http://www.w3.org/2000/svg" xmlns:sodipodi="http://sodipodi.sourceforge.net/DTD/sodipodi-0.dtd" xmlns:inkscape="http://www.inkscape.org/namespaces/inkscape" width="211.82617" height="250" id="svg2" version="1.1" inkscape:version="0.47 r22583" sodipodi:docname="Клён.svg">
  <defs id="defs4">
    <inkscape:perspective sodipodi:type="inkscape:persp3d" inkscape:vp_x="0 : 526.18109 : 1" inkscape:vp_y="0 : 1000 : 0" inkscape:vp_z="744.09448 : 526.18109 : 1" inkscape:persp3d-origin="372.04724 : 350.78739 : 1" id="perspective10"/>
    <inkscape:perspective id="perspective13" inkscape:persp3d-origin="376.56 : 223.84001 : 1" inkscape:vp_z="753.12 : 335.76001 : 1" inkscape:vp_y="0 : 1000 : 0" inkscape:vp_x="0 : 335.76001 : 1" sodipodi:type="inkscape:persp3d"/>
    <inkscape:perspective id="perspective12" inkscape:persp3d-origin="372.04724 : 350.78739 : 1" inkscape:vp_z="744.09448 : 526.18109 : 1" inkscape:vp_y="0 : 1000 : 0" inkscape:vp_x="0 : 526.18109 : 1" sodipodi:type="inkscape:persp3d"/>
    <inkscape:perspective id="perspective2897" inkscape:persp3d-origin="0.5 : 0.33333333 : 1" inkscape:vp_z="1 : 0.5 : 1" inkscape:vp_y="0 : 1000 : 0" inkscape:vp_x="0 : 0.5 : 1" sodipodi:type="inkscape:persp3d"/>
    <inkscape:perspective id="perspective2911" inkscape:persp3d-origin="0.5 : 0.33333333 : 1" inkscape:vp_z="1 : 0.5 : 1" inkscape:vp_y="0 : 1000 : 0" inkscape:vp_x="0 : 0.5 : 1" sodipodi:type="inkscape:persp3d"/>
    <inkscape:perspective id="perspective2948" inkscape:persp3d-origin="0.5 : 0.33333333 : 1" inkscape:vp_z="1 : 0.5 : 1" inkscape:vp_y="0 : 1000 : 0" inkscape:vp_x="0 : 0.5 : 1" sodipodi:type="inkscape:persp3d"/>
  </defs>
  <sodipodi:namedview id="base" pagecolor="#ffffff" bordercolor="#666666" borderopacity="1.0" inkscape:pageopacity="0.0" inkscape:pageshadow="2" inkscape:zoom="0.91396213" inkscape:cx="91.774831" inkscape:cy="169.56128" inkscape:document-units="px" inkscape:current-layer="layer1" showgrid="false" inkscape:window-width="1280" inkscape:window-height="904" inkscape:window-x="-4" inkscape:window-y="-4" inkscape:window-maximized="1" showguides="true" inkscape:guide-bbox="true" showborder="false" inkscape:snap-object-midpoints="true" inkscape:object-paths="true" inkscape:snap-center="true" inkscape:snap-global="true"/>
  <metadata id="metadata7">
    <rdf:RDF>
      <cc:Work rdf:about="">
        <dc:format>image/svg+xml</dc:format>
        <dc:type rdf:resource="http://purl.org/dc/dcmitype/StillImage"/>
        <dc:title/>
      </cc:Work>
    </rdf:RDF>
  </metadata>
  <g inkscape:label="Layer 1" inkscape:groupmode="layer" id="layer1" transform="translate(1028.49, -486.779)">
    <path style="fill:#000000;stroke:none" d="m -922.57567,632.76042 c 2.08742,0 2.30564,-0.14437 6.10704,4.75819 2.22514,2.86971 7.03705,8.98902 9.58906,12.66623 l 38.22623,-0.14085 c 4.76308,-0.21523 5.28843,-0.7632 7.25951,-2.17786 3.60305,-2.58594 6.96507,-6.95874 14.85492,-19.32981 2.38372,-3.73761 5.42622,-8.45359 6.7611,-10.47754 2.02832,-3.25937 1.28698,-3.78599 6.64191,-4.85412 -3.87827,9.61591 -8.83646,20.94651 -12.15697,25.98256 -6.53196,9.90669 -16.93733,20.52766 -37.55445,27.15275 16.03739,-2.78018 21.11683,-7.66187 31.80101,-16.38266 -7.25972,14.98618 -17.38153,28.53347 -26.74102,42.21354 21.03732,-22.37952 41.20985,-47.18649 51.9868,-76.31159 1.8672,-5.70784 3.98646,-13.5339 3.73811,-13.78225 -3.96331,4.43743 -8.78108,9.36362 -19.00477,9.5999 -15.46842,0.35748 -27.38054,-4.36407 -38.55127,-12.80709 -1.1767,0.85768 -2.60734,1.60718 -2.63293,3.35888 -0.024,1.64389 1.77994,3.45676 5.3092,5.45006 5.79523,3.27309 20.67001,7.14033 27.45613,7.14033 0.8594,0 1.56026,0.0809 1.56026,0.18419 0,0.10331 -3.98764,5.1739 -8.86311,11.25767 -7.48245,9.33684 -9.06362,11.12453 -10.14165,11.49604 -2.50143,0.86203 -16.47675,0.29294 -23.98891,-0.97516 -3.60248,-0.60812 -5.212,-1.27572 -7.14033,-2.96882 -3.49399,-3.56612 -6.15133,-7.96911 -9.71908,-11.36602 -3.95621,1.49301 -8.15889,3.04509 -14.80074,3.12051 -5.18262,0.0589 -10.02121,-1.33812 -14.80074,-3.12051 -3.56775,3.39691 -6.22509,7.7999 -9.71909,11.36602 -1.92833,1.6931 -3.53785,2.3607 -7.14033,2.96882 -7.51216,1.2681 -21.48747,1.83719 -23.9889,0.97516 -1.07804,-0.37151 -2.65921,-2.1592 -10.14166,-11.49604 -4.87547,-6.08377 -8.86311,-11.15436 -8.86311,-11.25767 0,-0.1033 0.70087,-0.18419 1.56026,-0.18419 6.78612,0 21.6609,-3.86724 27.45614,-7.14033 3.52925,-1.9933 5.3332,-3.80617 5.30919,-5.45006 -0.0256,-1.7517 -1.45622,-2.5012 -2.63292,-3.35888 -11.17073,8.44302 -23.08285,13.16457 -38.55132,12.80709 -10.2237,-0.23628 -15.0414,-5.16247 -19.0047,-9.5999 -0.2484,0.24835 1.8709,8.07441 3.7381,13.78225 10.7769,29.1251 30.94946,53.93207 51.98678,76.31159 -9.35949,-13.68007 -19.48129,-27.22736 -26.74102,-42.21354 10.68418,8.72079 15.76362,13.60248 31.80102,16.38266 -20.61712,-6.62509 -31.02249,-17.24606 -37.55445,-27.15275 -3.32053,-5.03605 -8.27873,-16.36665 -12.15703,-25.98256 5.355,1.06813 4.6136,1.59475 6.642,4.85412 1.3348,2.02395 4.3773,6.73993 6.76106,10.47754 7.88985,12.37107 11.25187,16.74387 14.85492,19.32981 1.97108,1.41466 2.49644,1.96263 7.25952,2.17786 l 38.22622,0.14085 c 2.55201,-3.67721 7.36392,-9.79652 9.58906,-12.66623 3.8014,-4.90256 4.02758,-4.75819 6.11495,-4.75819 z m -63.83351,-145.97968 c -13.34694,0.13313 -25.44292,7.66579 -31.54102,27.80286 10.8212,-5.72908 24.78164,-5.60981 36.76353,-1.49524 15.97646,5.48629 29.64346,18.07067 41.45509,34.46644 -1.31412,-9.51531 -5.26936,-19.39232 -7.79044,-24.49815 2.32965,0.37871 5.61516,1.51455 7.06449,-0.27088 1.56516,-1.92814 0.33473,-3.88692 -1.21354,-5.50423 -12.5015,-13.05907 -29.3598,-21.564 -47.58774,-22.2878 11.77632,-0.54485 26.61777,1.40864 39.81898,6.68526 -10.79402,-8.61888 -24.43132,-15.02332 -36.96935,-14.89826 z m 127.65911,0 c -12.53803,-0.12506 -26.17532,6.27938 -36.96935,14.89826 13.20121,-5.27662 28.04266,-7.23011 39.81899,-6.68526 -18.22795,0.7238 -35.08625,9.22873 -47.58775,22.2878 -1.54826,1.61731 -2.7787,3.57609 -1.21353,5.50423 1.44933,1.78543 4.73483,0.64959 7.06448,0.27088 -2.52108,5.10583 -6.47632,14.98284 -7.79043,24.49815 11.81163,-16.39577 25.47862,-28.98015 41.45508,-34.46644 11.98189,-4.11457 25.94238,-4.23384 36.76349,1.49524 -6.09809,-20.13707 -18.19404,-27.66973 -31.54098,-27.80286 z m -119.94452,48.23785 c -5.97204,0.059 -10.97881,0.94527 -14.75741,2.58959 -7.4625,3.24745 -12.0422,15.70667 -18.7339,16.361 -6.0115,0.58781 -9.4702,-7.74586 -12.0161,-12.17865 1.5902,5.02729 4.2612,10.19711 7.6387,13.83642 -3.4506,2.19564 -7.1432,4.41271 -9.6648,7.64958 4.478,-3.05762 8.9569,-6.07536 13.1863,-5.59091 -4.987,2.73906 -12.0381,6.54792 -15.4509,12.74207 5.9348,-5.83642 13.1069,-11.14088 21.746,-10.67257 2.4957,0.13529 3.2447,0.34158 6.2627,1.77696 7.62698,4.37088 15.97147,4.47886 24.4115,4.38821 l 0,-5.16834 c -6.00001,-0.0152 -11.98853,-0.75145 -17.86708,-1.92865 -2.47163,-0.62837 -6.72592,-2.64849 -7.58452,-3.59725 -0.584,-0.64523 -0.5763,-0.75091 0.1733,-2.52458 1.94472,-4.60159 5.10103,-8.27202 9.05816,-10.74842 4.8396,-3.02864 10.59487,-3.58234 16.16596,-3.42388 0.0178,3.4e-4 0.0364,-7e-4 0.0542,0 l 0,-3.46724 c -0.0283,-10e-4 -0.0825,-0.0101 -0.10835,-0.0108 -0.4434,-0.0121 -0.87726,-0.0288 -1.31105,-0.0325 -0.40668,-0.003 -0.80456,-0.004 -1.20269,0 l 0,-4e-5 z m 111.02724,0 c -0.43379,0.004 -0.86765,0.0205 -1.31105,0.0325 -0.0259,7e-4 -0.08,0.01 -0.10835,0.0108 l 0,3.46723 c 0.0178,-6.9e-4 0.0364,3.5e-4 0.0542,0 5.5711,-0.15846 11.32636,0.39525 16.16596,3.42389 3.95714,2.47639 7.11345,6.14682 9.05815,10.74842 0.74957,1.77367 0.75728,1.87935 0.17336,2.52458 -0.85862,0.94875 -5.11294,2.96887 -7.58457,3.59725 -5.87855,1.1772 -11.86707,1.91346 -17.86708,1.92865 l 0,5.16834 c 8.44004,0.0906 16.78452,-0.0173 24.41148,-4.38822 3.01806,-1.43537 3.76705,-1.64167 6.26268,-1.77695 8.63918,-0.46831 15.81122,4.83615 21.74604,10.67257 -3.41283,-6.19415 -10.46392,-10.00301 -15.45085,-12.74208 4.2294,-0.48444 8.70821,2.5333 13.18632,5.59091 -2.52162,-3.23687 -6.21424,-5.45394 -9.66491,-7.64957 3.37758,-3.63931 6.04853,-8.80914 7.63874,-13.83643 -2.54595,4.43279 -6.0046,12.76647 -12.01612,12.17865 -6.69171,-0.65432 -11.27133,-13.11355 -18.73388,-16.36099 -3.7786,-1.64432 -8.78537,-2.53058 -14.75741,-2.58959 -0.39813,-0.004 -0.79601,-0.003 -1.20269,0 l 0,3e-5 z m -104.55869,0.52009 0,3.36971 c 9.02129,1.42936 19.347,6.56246 21.72437,11.34435 -7.02752,-4.88673 -15.16407,-8.84134 -23.84805,-8.71142 -5.63749,0.0843 -12.68249,1.52544 -18.18129,4.57241 -2.77506,1.53771 -6.69724,4.98799 -6.7611,6.05682 -0.25092,4.19955 18.55495,6.49894 25.31079,6.20851 7.91229,-0.33705 15.88565,-0.7081 22.92706,-4.16067 -4.00962,5.43427 -13.48781,6.22969 -21.17178,6.45771 l 0,5.14668 c 12.05649,-0.68241 26.86988,-6.14169 26.81687,-13.20799 -0.0812,-10.82026 -18.28241,-15.63495 -26.81687,-17.07611 z m 99.29283,0 c -8.53445,1.44116 -26.73569,6.25585 -26.81686,17.07611 -0.053,7.0663 14.76038,12.52558 26.81686,13.20799 l 0,-5.14668 c -7.68397,-0.22802 -17.16216,-1.02344 -21.17178,-6.45771 7.04141,3.45257 15.01477,3.82362 22.92707,4.16067 6.75583,0.29043 25.5617,-2.00896 25.31079,-6.20851 -0.0639,-1.06883 -3.98605,-4.51911 -6.7611,-6.05682 -5.4988,-3.04697 -12.54381,-4.48807 -18.1813,-4.57241 -8.68397,-0.12992 -16.82053,3.82469 -23.84805,8.71142 2.37737,-4.78189 12.70309,-9.91499 21.72437,-11.34435 l 0,-3.36971 z m -63.08193,5.60174 c -0.0365,21.02916 -3.31256,35.69872 -16.64271,51.83511 -2.95685,3.57931 -6.46241,7.4661 -6.62025,12.35201 -0.11868,3.67375 1.59982,6.99739 3.81396,10.18499 -1.29328,-3.1311 -2.15122,-6.19212 -1.78779,-9.59989 0.31903,-2.99157 2.42047,-5.08298 8.54889,-11.11681 5.89591,-5.80493 7.0055,-7.18936 8.07215,-6.03516 0.47181,0.51055 0.40155,3.45417 -0.26005,8.79811 -0.95295,7.69737 -0.62288,12.97029 1.0185,16.22014 1.68541,3.33702 6.12253,6.06241 12.15698,7.47621 1.30145,0.30492 3.17542,0.39007 5.13584,0.39007 1.96041,0 3.83438,-0.0851 5.13583,-0.39007 6.03445,-1.4138 10.47157,-4.13919 12.15698,-7.47621 1.64138,-3.24985 1.97145,-8.52277 1.0185,-16.22014 -0.66159,-5.34394 -0.73185,-8.28756 -0.26004,-8.79811 1.06665,-1.1542 2.17623,0.23023 8.07215,6.03516 6.12841,6.03383 8.22985,8.12524 8.54889,11.11681 0.36342,3.40777 -0.49452,6.46879 -1.78779,9.59989 2.21413,-3.1876 3.93263,-6.51124 3.81395,-10.18499 -0.15784,-4.88591 -3.6634,-8.7727 -6.62024,-12.35201 -13.33016,-16.13639 -16.60626,-30.80595 -16.64271,-51.83511 -2.30956,11.04367 -1.98445,27.55303 -1.56026,41.78014 0.26775,8.97991 0.98009,14.8655 1.92865,20.30497 0.89914,5.15605 0.7682,9.0792 -1.04017,10.55339 -3.42698,2.79368 -8.21191,3.79949 -12.76374,3.80311 -4.55183,0.004 -9.33501,-0.99825 -12.76375,-3.80311 -1.80611,-1.47749 -1.93931,-5.39734 -1.04017,-10.55339 0.94856,-5.43947 1.6609,-11.32506 1.92865,-20.30497 0.4242,-14.22711 0.74931,-30.73647 -1.56025,-41.78014 z m -11.21433,73.80869 c -0.49501,0.0168 -0.95978,0.0877 -1.37606,0.2167 -0.78394,0.24295 -0.85257,1.46641 0.13002,2.76295 1.11949,1.33044 2.31498,1.96448 4.89747,2.60042 2.52752,0.62241 3.92041,0.64462 4.08483,-0.16252 0.62127,-3.04989 -4.27122,-5.5354 -7.73626,-5.41755 z m 49.29969,0 c -3.46504,-0.11785 -8.35752,2.36766 -7.73626,5.41755 0.16442,0.80714 1.55732,0.78493 4.08484,0.16252 2.58249,-0.63594 3.77797,-1.26998 4.89746,-2.60042 0.9826,-1.29654 0.91397,-2.52 0.13002,-2.76295 -0.41627,-0.12901 -0.88105,-0.19985 -1.37606,-0.2167 z m -52.00846,36.6443 c -0.56454,0.51363 -1.42911,0.99372 -0.986,1.69027 0.48206,0.75777 5.23244,1.92174 11.94028,2.24287 10.90354,0.52198 21.90412,0.72172 32.80867,0 6.70453,-0.44375 11.45822,-1.4851 11.94028,-2.24287 0.44312,-0.69655 -0.42146,-1.17664 -0.98599,-1.69027 l -54.71724,0 z m 13.72806,20.78171 c 4.17564,4.90169 6.56588,7.45558 6.5444,11.19266 -0.0398,7.00755 -3.07548,7.83861 -2.76295,18.99392 0.25097,8.95755 1.70186,14.7938 2.53541,20.47834 1.98361,13.52733 4.29944,13.7389 7.3137,13.7389 3.01426,0 5.33008,-0.21157 7.31369,-13.7389 0.83356,-5.68454 2.28445,-11.52079 2.53541,-20.47834 0.31253,-11.15531 -2.72318,-11.98637 -2.76295,-18.99392 -0.0215,-3.73708 2.36877,-6.29097 6.5444,-11.19266 l -27.26111,0 z" id="path2954" sodipodi:nodetypes="csssccscccccscsssssssccccscssssssccsccccsccssccscszccsccssccccccssccscccsscccccsccccssssccsscccccssssccccscccccsssccccsssccccsccsccccsssccccsccssssssssssssscsscsssssssccscssccsccscccccssccccscszccccc"/>
  </g>
</svg>