<?xml version="1.0" encoding="UTF-8" standalone="no"?>
<!-- Created with Inkscape (http://www.inkscape.org/) -->

<svg
   xmlns:dc="http://purl.org/dc/elements/1.1/"
   xmlns:cc="http://creativecommons.org/ns#"
   xmlns:rdf="http://www.w3.org/1999/02/22-rdf-syntax-ns#"
   xmlns:svg="http://www.w3.org/2000/svg"
   xmlns="http://www.w3.org/2000/svg"
   xmlns:sodipodi="http://sodipodi.sourceforge.net/DTD/sodipodi-0.dtd"
   xmlns:inkscape="http://www.inkscape.org/namespaces/inkscape"
   width="3200"
   height="1600"
   id="svg3542"
   sodipodi:version="0.32"
   inkscape:version="0.48+devel r"
   sodipodi:docname="heart.svg"
   inkscape:output_extension="org.inkscape.output.svg.inkscape"
   version="1.1">
  <sodipodi:namedview
     id="base"
     pagecolor="#ffffff"
     bordercolor="#666666"
     borderopacity="1.0"
     inkscape:pageopacity="0.0"
     inkscape:pageshadow="2"
     inkscape:zoom="0.3540625"
     inkscape:cx="1600"
     inkscape:cy="800"
     inkscape:document-units="px"
     inkscape:current-layer="layer1"
     showguides="true"
     inkscape:guide-bbox="true"
     inkscape:window-width="1278"
     inkscape:window-height="968"
     inkscape:window-x="0"
     inkscape:window-y="24"
     showgrid="false"
     inkscape:window-maximized="0" />
  <defs
     id="defs3544">
    <inkscape:path-effect
       back_thickness="0.25"
       front_thickness="1"
       stroke_width_bottom="1"
       stroke_width_top="1"
       fat_output="false"
       bottom_smth_variation="0;1"
       top_smth_variation="0;1"
       scale_tb="2"
       scale_tf="2"
       scale_bb="2"
       scale_bf="2"
       top_tgt_variation="0;1"
       bottom_tgt_variation="0;1"
       top_edge_variation="0;1"
       bottom_edge_variation="0;1230413631"
       bender="1600,252.36217 , 5,0"
       do_bend="true"
       growth="0"
       dist_rdm="0;1"
       direction="1600,247.36217 , 113.89759,0"
       is_visible="true"
       id="path-effect3071"
       effect="rough_hatches" />
  </defs>
  <metadata
     id="metadata3547">
    <rdf:RDF>
      <cc:Work
         rdf:about="">
        <dc:format>image/svg+xml</dc:format>
        <dc:type
           rdf:resource="http://purl.org/dc/dcmitype/StillImage" />
      </cc:Work>
    </rdf:RDF>
  </metadata>
  <g
     transform="translate(0,547.63782)"
     id="layer1"
     inkscape:groupmode="layer"
     inkscape:label="Calque 1">
    <path
       inkscape:connector-curvature="0"
       sodipodi:nodetypes="cccsccc"
       id="path2361"
       d="m 1344.545,-267.00636 c -327.7869,-5.89656 -631.11599,507.01172 252.614,1038.78742 0.9689,-1.74466 4.6952,-1.74466 5.6639,0 912.2375,-548.93032 559.6348,-1077.6804 220.8959,-1036.52046 -132.0541,16.0456 -194.3709,89.37664 -223.7278,152.44618 -29.3567,-63.06954 -91.674,-136.40058 -223.7276,-152.44618 -10.5858,-1.28678 -21.1446,-2.07641 -31.7184,-2.26696 z"
       style="fill:none;stroke:#000000;stroke-width:3.79973006;stroke-linecap:butt;stroke-linejoin:round;stroke-miterlimit:4;stroke-opacity:1;stroke-dasharray:none" />
    <path
       inkscape:original-d="m 1344.545,-267.00636 c -327.7869,-5.89656 -631.11599,507.01172 252.614,1038.78742 0.9689,-1.74466 4.6952,-1.74466 5.6639,0 912.2375,-548.93032 559.6348,-1077.6804 220.8959,-1036.52046 -132.0541,16.0456 -194.3709,89.37664 -223.7278,152.44618 -29.3567,-63.06954 -91.674,-136.40058 -223.7276,-152.44618 -10.5858,-1.28678 -21.1446,-2.07641 -31.7184,-2.26696 z"
       inkscape:path-effect="#path-effect3071"
       style="fill:none;stroke:#000000;stroke-width:3.79973006;stroke-linecap:butt;stroke-linejoin:round;stroke-miterlimit:4;stroke-opacity:1;stroke-dasharray:none"
       d="m 2170.3591,-33.590956 c 0,0 2.9592,40.8198213 3.0489,90.262817 0.09,49.442999 -2.7006,107.509169 -14.0732,142.001859 -11.3726,34.4927 -11.3809,-33.35205 -11.5075,-114.566456 -0.1267,-81.2144041 -0.4156,-175.798458 -11.8693,-194.784354 -11.4536,-18.9859 -11.1164,74.215814 -10.939,177.243108 0.089,51.513642 0.1388,105.483692 -1.27,149.114872 -1.4089,43.63118 -4.272,76.9235 -9.9716,87.0817 -11.3993,20.31641 -11.3189,-92.11091 -11.4998,-212.516451 -0.09,-60.202771 -0.2423,-122.400099 -1.816,-170.996294 -1.5738,-48.596195 -4.5614,-83.591255 -10.279,-89.389495 -5.7176,-5.79825 -8.443,23.34823 -9.712,70.826441 -1.269,47.478208 -1.0929,113.288143 -0.986,180.816813 0.1069,67.528666 0.1436,136.776076 -1.2903,191.129216 -1.434,54.35315 -4.3293,93.81204 -10.0332,101.76367 -5.7039,7.95163 -8.5058,-23.528 -9.9071,-75.46824 -1.4013,-51.94025 -1.4164,-124.3411 -1.5202,-198.2319 -0.1039,-73.8908 -0.2975,-149.27155 -1.9137,-207.17159 -1.6163,-57.90004 -4.6428,-98.31937 -10.3547,-102.28734 -5.7118,-3.96796 -8.3932,32.46536 -9.6198,89.76909 -1.2265,57.303739 -1.0132,135.477891 -0.898,214.991594 0.1152,79.513706 0.1314,160.366956 -1.3311,223.028896 -1.4624,62.66193 -4.3903,107.13256 -10.0964,113.881 -5.7062,6.74844 -8.478,-30.96255 -9.8518,-91.4951 -1.3738,-60.53254 -1.3678,-143.88664 -1.477,-228.42443 -0.1092,-84.537789 -0.3344,-170.259263 -1.9849,-235.52655 -1.6504,-65.26729 -4.7097,-110.08039 -10.4168,-112.80144 -5.7072,-2.72105 -8.3521,39.36218 -9.5448,104.38991 -1.1928,65.027736 -0.952,152.999983 -0.8354,242.05698 0.1165,89.057 0.108,179.19875 -1.3847,248.5655 -1.4927,69.36674 -4.4527,117.95848 -10.1604,123.91546 -5.7076,5.95697 -8.4489,-36.67256 -9.7932,-104.07561 -1.3443,-67.40305 -1.3135,-159.57961 -1.4219,-252.71672 -0.1083,-93.137105 -0.3567,-187.234747 -2.034,-258.47994 -1.6772,-71.2452 -4.7632,-119.63795 -10.4662,-121.36527 -5.7029,-1.72732 -8.3176,44.93301 -9.4842,116.23154 -1.1666,71.298528 -0.9068,167.235256 -0.7946,264.06073 0.1123,96.82547 0.076,194.53969 -1.4476,269.3932 -1.5238,74.85351 -4.5151,126.84631 -10.2238,132.22895 -5.7087,5.38264 -8.4199,-41.22523 -9.7338,-114.21794 -1.314,-72.99271 -1.2557,-172.37026 -1.3581,-272.52699 -0.1023,-100.156725 -0.3659,-201.092626 -2.0629,-277.20203 -1.6969,-76.10941 -4.8037,-127.39233 -10.5026,-128.24308 -5.699,-0.85075 -8.2897,49.57815 -9.4375,126.00878 -1.1477,76.43063 -0.8768,178.862992 -0.7739,282.01916 0.1029,103.15617 0.037,207.03615 -1.5179,286.36202 -1.5551,79.32586 -4.5765,134.09761 -10.2859,139.03732 -5.7094,4.93972 -8.3916,-44.89192 -9.675,-122.41896 -1.2834,-77.52705 -1.1958,-182.74952 -1.2873,-288.59147 -0.091,-105.841958 -0.3626,-212.303401 -2.0722,-292.30841 -1.7096,-80.005 -4.831,-133.55357 -10.5259,-133.56977 -5.695,-0.0162 -8.2681,53.51393 -9.4043,134.10471 -1.1362,80.590786 -0.862,188.242226 -0.7731,296.46865 0.089,108.22642 -0.01,217.02782 -1.5944,299.91853 -1.586,82.89071 -4.6356,139.87073 -10.3456,144.45439 -5.71,4.58365 -8.3648,-47.80979 -9.618,-128.92837 -1.2532,-81.11859 -1.1348,-190.96232 -1.2109,-301.27927 -0.076,-110.316943 -0.347,-221.107098 -2.0619,-304.11852 -1.7149,-83.01143 -4.8446,-138.24413 -10.5357,-137.44615 -5.691,0.79797 -8.253,56.82702 -9.385,140.68978 -1.1321,83.86276 -0.8626,195.559228 -0.7924,307.69203 0.07,112.1328 -0.059,224.70194 -1.6755,310.31005 -1.6163,85.6081 -4.6919,144.25517 -10.4024,148.54382 -5.7104,4.28866 -8.3398,-50.07606 -9.5635,-133.93714 -1.2238,-83.86109 -1.0738,-197.21853 -1.1303,-310.91533 -0.056,-113.696797 -0.3197,-227.732944 -2.0329,-312.95143 -1.7131,-85.21848 -4.845,-141.6193 -10.5325,-140.04545 -5.6875,1.57386 -8.2447,59.54732 -9.3799,145.87464 -1.1352,86.327313 -0.8778,201.008478 -0.8302,315.99774 0.048,114.98925 -0.1147,230.28661 -1.76,317.84629 -1.6454,87.55969 -4.7448,147.38171 -10.4555,151.42032 -5.7108,4.0386 -8.317,-51.75598 -9.5126,-137.55557 -1.1955,-85.7996 -1.0135,-201.6042 -1.0464,-317.58565 -0.033,-115.98145 -0.2808,-232.139738 -1.9845,-318.646707 -1.7037,-86.506973 -4.8303,-143.362613 -10.5133,-140.738763 -5.6829,2.62384 -8.2423,62.10239 -9.3889,150.083233 -1.1467,87.98083927 -0.9105,204.463967 -0.8901,321.096957 0.02,116.633 -0.1755,233.41586 -1.8481,321.99618 -1.6725,88.58032 -4.7924,148.95808 -10.5034,152.78088 -5.711,3.8228 -8.2974,-52.75473 -9.4667,-139.50944 -1.1694,-86.7547 -0.9554,-203.68659 -0.9598,-320.5725 -0,-116.88591 -0.2273,-233.725856 -1.9112,-320.29668 -1.684,-86.57082 -4.7951,-142.87253 -10.472,-138.68197 -5.6769,4.19057 -8.2478,64.68209 -9.4172,153.289292 -1.1693,88.607205 -0.9666,205.330098 -0.9797,321.983388 -0.013,116.6533 -0.2423,233.23701 -1.9392,321.56585 -1.6969,88.32884 -4.8321,148.40281 -10.5433,152.03664 -5.7113,3.63384 -8.2827,-52.86977 -9.4291,-139.23074 -1.1464,-86.36097 -0.9012,-202.57929 -0.8709,-318.37489 0.03,-115.7956 -0.154,-231.168477 -1.8034,-315.838541 -1.6494,-84.670069 -4.7295,-138.637319 -10.3972,-131.621679 -5.6676,7.01564 -8.2635,68.091981 -9.4729,155.92982 -1.2093,87.837839 -1.0593,202.43718 -1.1155,316.4988 -0.056,114.06163 -0.318,227.58555 -2.0327,313.27255 -1.7147,85.687 -4.854,143.53709 -10.5617,146.25106 -5.7078,2.71397 -8.2877,-49.66737 -9.4255,-130.35619 -1.1379,-80.68882 -0.8619,-189.68512 -0.7777,-300.20108 0.084,-110.51596 -0.025,-222.55158 -1.6317,-309.319032 -1.6064,-86.767455 -4.6847,-148.266748 -10.4133,-157.710048 -5.7285,-9.4433 -8.3691,42.040895 -9.5941,124.3586326 -1.225,82.3177374 -1.0687,195.4690174 -1.1203,309.3598874 -0.052,113.89086 -0.3116,228.52131 -2.0218,313.7974 -1.7103,85.27608 -4.8379,141.19779 -10.5165,137.67118 -5.6785,-3.52661 -8.2336,-62.90721 -9.3738,-150.33401 -1.1402,-87.42679 -0.8945,-202.89976 -0.8609,-318.61109 0.034,-115.71134 -0.1452,-231.661043 -1.8053,-320.041291 -1.6602,-88.380249 -4.7733,-149.191039 -10.4905,-154.624569 -5.7172,-5.43352 -8.3145,49.94441 -9.4935,135.836266 -1.179,85.891859 -0.9739,202.297644 -0.9863,318.919834 -0.012,116.62219 -0.2423,233.46078 -1.9327,320.21824 -1.6903,86.75746 -4.8072,143.4338 -10.4859,139.73148 -5.6787,-3.70232 -8.2452,-64.04352 -9.4071,-152.68202 -1.162,-88.63849 -0.9492,-205.57428 -0.9532,-322.46579 -0,-116.8915 -0.2251,-233.738712 -1.916,-322.200051 -1.6909,-88.461339 -4.822,-148.536809 -10.5317,-151.884809 -5.7097,-3.34801 -8.2843,53.38027 -9.4366,140.112094 -1.1523,86.7318217 -0.9157,203.467186 -0.8966,320.133346 0.019,116.66615 -0.1794,233.26311 -1.8452,319.7181 -1.6657,86.455 -4.7652,142.76805 -10.4441,138.8664 -5.6789,-3.90166 -8.2634,-64.10038 -9.4511,-152.3329 -1.1877,-88.23253 -1.0081,-204.49885 -1.0424,-320.53571 -0.034,-116.03686 -0.2823,-231.844253 -1.99,-319.158912 -1.7078,-87.314658 -4.8455,-146.136588 -10.5499,-148.202508 -5.7044,-2.06592 -8.2689,54.69113 -9.4067,140.73061 -1.1379,86.039485 -0.8813,201.361405 -0.8364,316.42522 0.045,115.06382 -0.1217,229.86953 -1.7603,314.8766 -1.6386,85.00708 -4.7166,140.21551 -10.3958,136.08476 -5.6792,-4.13074 -8.2857,-63.46131 -9.5015,-150.20639 -1.2158,-86.74507 -1.0692,-200.90466 -1.1283,-314.69346 -0.059,-113.788803 -0.3235,-227.206814 -2.0383,-312.46873 -1.7149,-85.26192 -4.8512,-142.36775 -10.5516,-143.53218 -5.7004,-1.16443 -8.2634,54.77834 -9.3958,139.07259 -1.1324,84.294245 -0.8645,196.939977 -0.7981,309.18148 0.066,112.2415 -0.069,224.07877 -1.6784,306.75611 -1.6099,82.67733 -4.6636,136.19472 -10.3432,131.79645 -5.6796,-4.39827 -8.3109,-62.31637 -9.5562,-146.74557 -1.2454,-84.4292 -1.1313,-195.3695 -1.2109,-305.81218 -0.08,-110.442666 -0.3524,-220.387705 -2.0669,-302.82638 -1.7145,-82.43867 -4.8431,-137.37098 -10.54,-137.78819 -5.6968,-0.41721 -8.265,54.09974 -9.399,135.81504 -1.1341,81.715296 -0.8619,190.62894 -0.778,299.00511 0.084,108.37617 -0.02,216.21488 -1.5999,295.78029 -1.5802,79.56541 -4.6077,130.85754 -10.2878,126.14056 -5.6801,-4.71698 -8.3384,-60.72403 -9.6142,-142.05434 -1.2758,-81.3303 -1.1935,-187.98386 -1.2894,-293.99383 -0.096,-106.009975 -0.3697,-211.37637 -2.0765,-290.13236 -1.7067,-78.75599 -4.821,-130.90157 -10.5138,-130.46992 -5.6928,0.43165 -8.2723,53.01151 -9.4152,131.31933 -1.1429,78.307824 -0.8744,182.343608 -0.7774,285.68711 0.097,103.3435 0.023,205.99472 -1.5266,281.53341 -1.5499,75.5387 -4.5493,123.96487 -10.23,118.85827 -5.6808,-5.10661 -8.3681,-58.64053 -9.6749,-135.98921 -1.3068,-77.34867 -1.2549,-178.51209 -1.3626,-278.87767 -0.1076,-100.365578 -0.3742,-199.933321 -2.0658,-274.09064 -1.6916,-74.15733 -4.7852,-122.90423 -10.474,-121.62814 -5.6888,1.2761 -8.286,51.30304 -9.445,125.27566 -1.159,73.972623 -0.9018,171.890927 -0.7963,268.94976 0.1055,97.05883 0.06,193.25818 -1.4595,263.7929 -1.5194,70.53472 -4.4894,115.40481 -10.1709,109.80511 -5.6816,-5.59971 -8.3994,-56.07289 -9.7374,-128.49586 -1.3379,-72.42298 -1.3146,-166.79575 -1.4292,-260.19462 -0.1145,-93.398868 -0.3661,-185.823841 -2.0354,-254.35123 -1.6693,-68.52738 -4.736,-113.15718 -10.4207,-110.9657 -5.6848,2.19147 -8.3056,49.01916 -9.4877,117.63706 -1.1821,68.617887 -0.9438,159.025977 -0.8348,248.37825 0.109,89.35227 0.09,177.64872 -1.3999,242.04334 -1.4895,64.39462 -4.4292,104.88741 -10.112,98.63234 -5.6827,-6.25507 -8.4322,-53.01022 -9.8008,-119.41994 -1.3686,-66.40971 -1.3715,-152.47397 -1.4877,-237.34726 -0.1162,-84.873286 -0.3448,-168.555593 -1.9844,-230.20139 -1.6396,-61.64579 -4.6732,-101.25507 -10.3537,-97.98229 -5.6804,3.27277 -8.3307,46.16667 -9.543,108.217 -1.2123,62.050326 -1.0011,143.257083 -0.8941,223.15556 0.1071,79.89849 0.1109,158.48869 -1.3501,215.30592 -1.4609,56.81723 -4.3702,91.86148 -10.0547,84.66805 -5.6845,-7.19342 -8.4663,-49.44739 -9.8643,-108.48738 -1.3981,-59.03999 -1.4238,-134.866 -1.5356,-209.203498 -0.1118,-74.337502 -0.3086,-147.186499 -1.9107,-200.272472 -1.6021,-53.08597 -4.596,-86.40891 -10.2714,-81.6943 -5.6755,4.71461 -8.3613,42.77928 -9.6114,96.679292 -1.2501,53.900008 -1.0749,123.635356 -0.9766,191.691324 0.098,68.055964 0.1208,134.432554 -1.3142,181.615044 -1.4349,47.18249 -4.3149,75.17088 -10.0023,66.45044 -5.6874,-8.72043 -8.5016,-45.47568 -9.9267,-95.26097 -1.4252,-49.78529 -1.4685,-112.60061 -1.5681,-173.441188 -0.199,-121.681151 -0.6411,-235.463302 -11.9786,-221.308172 -5.6688,7.07756 -8.3964,39.16016 -9.6933,82.552497 -1.297,43.39234 -1.1691,98.09442 -1.0891,150.410948 0.1598,104.633055 0.1229,199.723895 -11.2644,175.710185 -11.3874,-24.01372 -11.4125,-120.29288 -11.5615,-203.694144 -0.1491,-83.401261 -0.3814,-153.924619 -11.6898,-126.426725 -11.3084,27.497895 -14.0004,87.599307 -13.9124,140.826246 0.088,53.226943 2.9661,99.579403 2.9661,99.579403"
       id="path3069"
       sodipodi:nodetypes="cccsccc"
       inkscape:connector-curvature="0" />
  </g>
</svg>
