<?xml version="1.0" encoding="UTF-8" standalone="no"?>
<!-- Created with Inkscape (http://www.inkscape.org/) -->

<svg
   xmlns:dc="http://purl.org/dc/elements/1.1/"
   xmlns:cc="http://creativecommons.org/ns#"
   xmlns:rdf="http://www.w3.org/1999/02/22-rdf-syntax-ns#"
   xmlns:svg="http://www.w3.org/2000/svg"
   xmlns="http://www.w3.org/2000/svg"
   xmlns:sodipodi="http://sodipodi.sourceforge.net/DTD/sodipodi-0.dtd"
   xmlns:inkscape="http://www.inkscape.org/namespaces/inkscape"
   width="3200"
   height="1000"
   id="svg27345"
   version="1.1"
   inkscape:version="0.48+devel r"
   sodipodi:docname="jackolantern2.svg">
  <sodipodi:namedview
     id="base"
     pagecolor="#ffffff"
     bordercolor="#666666"
     borderopacity="1.0"
     inkscape:pageopacity="0.0"
     inkscape:pageshadow="2"
     inkscape:zoom="0.61106058"
     inkscape:cx="1722.0871"
     inkscape:cy="567.60473"
     inkscape:document-units="px"
     inkscape:current-layer="layer1"
     showgrid="false"
     inkscape:window-width="1440"
     inkscape:window-height="825"
     inkscape:window-x="0"
     inkscape:window-y="24"
     inkscape:window-maximized="1" />
  <defs
     id="defs27347">
    <inkscape:path-effect
       back_thickness="0.25"
       front_thickness="1"
       stroke_width_bottom="1"
       stroke_width_top="1"
       fat_output="false"
       bottom_smth_variation="0;1"
       top_smth_variation="0;1"
       scale_tb="2"
       scale_tf="2"
       scale_bb="2"
       scale_bf="2"
       top_tgt_variation="0;1"
       bottom_tgt_variation="0;1"
       top_edge_variation="0;1"
       bottom_edge_variation="0;1"
       bender="1542.72,656.59207 , 5,0"
       do_bend="true"
       growth="0"
       dist_rdm="0;1"
       direction="1542.72,651.59207 , 40.994503,-7.9979827e-09"
       is_visible="true"
       id="path-effect9753"
       effect="rough_hatches" />
    <inkscape:path-effect
       back_thickness="0.25"
       front_thickness="1"
       stroke_width_bottom="1"
       stroke_width_top="1"
       fat_output="false"
       bottom_smth_variation="0;1"
       top_smth_variation="0;1"
       scale_tb="2"
       scale_tf="2"
       scale_bb="2"
       scale_bf="2"
       top_tgt_variation="0;1"
       bottom_tgt_variation="0;1"
       top_edge_variation="0;1"
       bottom_edge_variation="0;1"
       bender="1751.7697,320.89378 , 5,0"
       do_bend="true"
       growth="0"
       dist_rdm="0;1"
       direction="1751.7697,315.89378 , 45.8645,0"
       is_visible="true"
       id="path-effect9751"
       effect="rough_hatches" />
    <inkscape:path-effect
       back_thickness="0.25"
       front_thickness="1"
       stroke_width_bottom="1"
       stroke_width_top="1"
       fat_output="false"
       bottom_smth_variation="0;1"
       top_smth_variation="0;1"
       scale_tb="2"
       scale_tf="2"
       scale_bb="2"
       scale_bf="2"
       top_tgt_variation="0;1"
       bottom_tgt_variation="0;1"
       top_edge_variation="0;1"
       bottom_edge_variation="0;1"
       bender="1524.6705,438.21234 , 5,0"
       do_bend="true"
       growth="0"
       dist_rdm="0;1"
       direction="1524.6705,433.21234 , 28.164671,-3.2729979"
       is_visible="true"
       id="path-effect9749"
       effect="rough_hatches" />
    <inkscape:path-effect
       back_thickness="0.25"
       front_thickness="1"
       stroke_width_bottom="1"
       stroke_width_top="1"
       fat_output="false"
       bottom_smth_variation="0;1"
       top_smth_variation="0;1"
       scale_tb="2"
       scale_tf="2"
       scale_bb="2"
       scale_bf="2"
       top_tgt_variation="0;1"
       bottom_tgt_variation="0;1"
       top_edge_variation="0;1"
       bottom_edge_variation="0;1"
       bender="1304.5765,324.19226 , 5,0"
       do_bend="true"
       growth="0"
       dist_rdm="0;1"
       direction="1304.5765,319.19226 , 39.398775,0"
       is_visible="true"
       id="path-effect9747"
       effect="rough_hatches" />
    <inkscape:perspective
       sodipodi:type="inkscape:persp3d"
       inkscape:vp_x="0 : 526.18109 : 1"
       inkscape:vp_y="0 : 1000 : 0"
       inkscape:vp_z="744.09448 : 526.18109 : 1"
       inkscape:persp3d-origin="372.04724 : 350.78739 : 1"
       id="perspective27353" />
  </defs>
  <metadata
     id="metadata27350">
    <rdf:RDF>
      <cc:Work
         rdf:about="">
        <dc:format>image/svg+xml</dc:format>
        <dc:type
           rdf:resource="http://purl.org/dc/dcmitype/StillImage" />
        <dc:title />
      </cc:Work>
    </rdf:RDF>
  </metadata>
  <g
     inkscape:label="Layer 1"
     inkscape:groupmode="layer"
     id="layer1"
     transform="translate(0,-52.36218)">
    <path
       inkscape:original-d="m 1301.0743,251.52346 -75.2954,143.58656 157.5951,1.75105 -82.2997,-145.33761 z"
       inkscape:path-effect="#path-effect9747"
       id="path4733"
       d="m 1375.9068,383.67431 c 0,0 0.8924,3.28575 0.79,6.56056 -0.1024,3.27481 -1.1995,6.53868 -5.1379,6.49492 -3.9383,-0.0438 -3.7652,-4.95541 -3.5751,-11.54004 0.1902,-6.58464 0.3872,-14.84224 -3.427,-21.57791 -1.907,-3.36784 -2.8998,-2.98735 -3.4376,-0.52358 -0.5379,2.46376 -0.6274,7.01081 -0.747,11.97611 -0.2392,9.93058 -0.6284,21.53414 -4.5668,21.49038 -3.9384,-0.0438 -3.531,-11.64668 -3.2322,-24.96056 0.2987,-13.31387 0.457,-28.33869 -3.4431,-35.22622 -1.9501,-3.44377 -2.9414,-1.40945 -3.4711,3.57778 -0.5297,4.98723 -0.6119,12.92738 -0.7586,21.29526 -0.1468,8.36788 -0.3602,17.16349 -1.0458,23.86167 -0.6857,6.69818 -1.8335,11.29892 -3.8027,11.27704 -1.9692,-0.0219 -2.7892,-4.64432 -3.0775,-11.78599 -0.2883,-7.14167 -0.055,-16.80257 0.1055,-26.90137 0.1601,-10.09879 0.2452,-20.63549 -0.2306,-29.52876 -0.4758,-8.89327 -1.5058,-16.14312 -3.502,-19.6682 -1.9961,-3.52508 -2.9399,0.19967 -3.4039,7.7683 -0.4641,7.56863 -0.4733,18.98113 -0.6018,30.83153 -0.1285,11.8504 -0.3791,24.1387 -1.1203,33.45893 -0.7411,9.32024 -1.9537,15.6724 -3.9229,15.65052 -1.9692,-0.0219 -2.724,-6.39572 -2.9581,-16.16995 -0.234,-9.77424 0.034,-22.94886 0.1578,-36.5723 0.1243,-13.62344 0.1028,-27.6957 -0.4992,-39.26522 -0.602,-11.56951 -1.7705,-20.63628 -3.8161,-24.24872 -2.0456,-3.61245 -2.8925,1.84187 -3.2293,12.05398 -0.3369,10.21211 -0.2026,25.18202 -0.264,40.60074 -0.061,15.41873 -0.3221,31.28627 -1.1085,43.29367 -0.7864,12.00739 -2.067,20.15464 -4.0362,20.13276 -1.9692,-0.0219 -2.6372,-8.69456 -2.8215,-21.67105 -0.1843,-12.97648 0.08,-30.25678 0.1015,-47.49388 0.022,-17.2371 -0.1982,-34.43102 -0.9608,-47.23475 -0.7626,-12.80373 -2.0316,-21.21728 -3.9916,-20.89364 -1.9599,0.32363 -2.654,9.06081 -2.8805,21.98316 -0.2266,12.92236 -0.019,30.0299 -0.048,47.09424 -0.029,17.06435 -0.2949,34.08551 -1.092,46.83511 -0.797,12.7496 -2.0912,21.22765 -4.0603,21.20577 -1.9692,-0.0219 -2.6615,-8.12149 -2.8628,-20.03264 -0.2013,-11.91116 0.057,-27.63385 0.1205,-42.90189 0.063,-15.26804 -0.066,-30.08144 -0.7086,-40.17399 -0.6427,-10.09256 -1.7612,-15.46427 -3.657,-11.84895 -1.8958,3.61531 -2.7032,12.60234 -3.0914,24.04791 -0.3882,11.44556 -0.3708,25.34965 -0.4953,38.7991 -0.1244,13.44944 -0.3883,26.44424 -1.1343,36.0712 -0.746,9.62697 -1.9555,15.8861 -3.9247,15.86422 -1.9692,-0.0219 -2.7311,-6.30312 -2.9802,-15.48082 -0.2492,-9.17769 -0,-21.25184 0.1232,-32.85954 0.1272,-11.60769 0.1394,-22.74894 -0.377,-30.06082 -0.5164,-7.31188 -1.5371,-10.79441 -3.4825,-7.08466 -1.9453,3.70974 -2.8929,10.90201 -3.4084,19.60231 -0.5156,8.7003 -0.6048,18.90864 -0.7628,28.65052 -0.158,9.74189 -0.383,19.01732 -1.0699,25.85181 -0.687,6.83449 -1.8268,11.22804 -3.796,11.20616 -1.9692,-0.0219 -2.8002,-4.43757 -3.1101,-10.81055 -0.31,-6.37298 -0.1079,-14.70324 0.033,-22.55428 0.1411,-7.85103 0.2233,-15.22284 -0.2306,-19.67888 -0.454,-4.45605 -1.4307,-5.99635 -3.4296,-2.18437 -3.998,7.62396 -4.1781,21.4091 -4.4554,33.27731 -0.2774,11.86821 -0.6226,21.81949 -4.561,21.77573 -3.9384,-0.0438 -3.6118,-9.99624 -3.411,-17.9762 0.1004,-3.98997 0.1757,-7.48682 -0.285,-9.00539 -0.4608,-1.51856 -1.452,-1.05884 -3.5093,2.86433 -8.229,15.69265 -0.6715,24.02974 -8.5483,23.94222 -7.8769,-0.0875 -3.9344,-0.16577 -3.9344,-0.16577"
       style="fill:none;stroke:#000000;stroke-width:0.99999994px;stroke-linecap:butt;stroke-linejoin:miter;stroke-opacity:1"
       inkscape:connector-curvature="0" />
    <path
       inkscape:original-d="m 1747.5935,253.27451 -87.5528,134.83128 183.458,0.40727 -95.9052,-135.23855 z"
       inkscape:path-effect="#path-effect9751"
       sodipodi:nodetypes="cccc"
       id="path4735"
       d="m 1834.7407,376.16317 c 0,0 1.0534,3.08492 0.9498,6.16731 -0.1035,3.08238 -1.3639,6.16222 -5.95,6.15204 -4.5861,-0.0102 -4.4106,-4.63336 -4.2184,-10.82658 0.1922,-6.19323 0.3907,-13.9565 -4.0702,-20.24688 -2.2304,-3.1452 -3.385,-2.77697 -4.0041,-0.45579 -0.619,2.32119 -0.7092,6.59534 -0.83,11.262 -0.2415,9.33333 -0.6355,20.2367 -5.2216,20.22652 -4.5861,-0.0102 -4.1732,-10.91311 -3.8715,-23.41664 0.1508,-6.25176 0.2753,-12.90367 -0.2164,-18.79421 -0.4917,-5.89054 -1.5977,-11.0197 -3.8714,-14.22598 -2.2737,-3.20627 -3.4265,-1.28337 -4.037,3.40418 -0.6105,4.68754 -0.6931,12.13975 -0.8412,19.9921 -0.1482,7.85236 -0.364,16.10486 -1.1329,22.393 -0.769,6.28814 -2.0809,10.61192 -4.3739,10.60683 -2.2931,-0.005 -3.2728,-4.33384 -3.6393,-11.02854 -0.3666,-6.6947 -0.1302,-15.75535 0.032,-25.22425 0.1619,-9.4689 0.2473,-19.34604 -0.3097,-27.67372 -0.557,-8.32768 -1.7498,-15.10591 -4.0695,-18.37696 -2.3197,-3.27106 -3.4242,0.23611 -3.9685,7.33651 -0.5444,7.1004 -0.5536,17.79404 -0.6837,28.89592 -0.1301,11.10187 -0.384,22.612 -1.2093,31.34538 -0.8254,8.73339 -2.2029,14.69003 -4.4959,14.68494 -2.293,-0.005 -3.2066,-5.96669 -3.518,-15.11497 -0.3115,-9.14827 -0.04,-21.48323 0.086,-34.23504 0.1263,-12.75182 0.105,-25.92048 -0.5784,-36.73618 -0.6834,-10.8157 -2.0147,-19.27842 -4.3833,-22.61836 -2.3685,-3.33993 -3.3755,1.78287 -3.7925,11.34545 -0.417,9.56259 -0.2831,23.56497 -0.3469,37.9842 -0.064,14.41923 -0.3289,29.25532 -1.2005,40.48533 -0.8716,11.23001 -2.3179,18.85393 -4.6109,18.84884 -2.293,-0.005 -3.1192,-8.09514 -3.3798,-20.21009 -0.2605,-12.11495 0.01,-28.25481 0.034,-44.35952 0.025,-16.1047 -0.1936,-32.17426 -1.0372,-44.14863 -0.8437,-11.97436 -2.2759,-19.85352 -4.56,-19.57742 -2.284,0.27609 -3.1388,8.43134 -3.4455,20.5086 -0.3068,12.07726 -0.1,28.07653 -0.1317,44.04064 -0.032,15.96412 -0.3033,31.89309 -1.1867,43.82976 -0.8833,11.93666 -2.3444,19.88103 -4.6374,19.87594 -2.293,-0.005 -3.1427,-7.57134 -3.4197,-18.70431 -0.2769,-11.13297 -0.012,-25.83267 0.054,-40.10465 0.067,-14.27199 -0.06,-28.11626 -0.7825,-37.5384 -0.7225,-9.42213 -2.002,-14.42212 -4.2206,-11.00553 -2.2185,3.41658 -3.1882,11.83316 -3.6595,22.53587 -0.4713,10.70272 -0.4578,23.69158 -0.587,36.25272 -0.1293,12.56115 -0.3988,24.69459 -1.2302,33.68647 -0.8315,8.99188 -2.2063,14.8422 -4.4993,14.83711 -2.293,-0.005 -3.2134,-5.86067 -3.539,-14.42272 -0.3255,-8.56205 -0.075,-19.83056 0.057,-30.66153 0.1319,-10.83097 0.1479,-21.22439 -0.4469,-28.03624 -0.5948,-6.81185 -1.7759,-10.04214 -4.0456,-6.54684 -2.2696,3.4953 -3.3815,10.22088 -3.9815,18.34284 -0.6,8.12195 -0.6939,17.64027 -0.8565,26.72104 -0.1625,9.08078 -0.392,17.724 -1.1633,24.09576 -0.7714,6.37176 -2.0754,10.47205 -4.3684,10.46696 -2.293,-0.005 -3.2836,-4.11066 -3.6712,-10.04242 -0.3876,-5.93177 -0.1813,-13.68972 -0.036,-20.99957 0.145,-7.30985 0.2308,-14.17161 -0.3019,-18.31097 -0.5327,-4.13936 -1.6703,-5.55632 -3.9948,-1.97661 -4.649,7.15943 -4.8369,19.98673 -5.1205,31.02163 -0.2835,11.0349 -0.6334,20.2774 -5.2195,20.26722 -4.5861,-0.0102 -4.2546,-9.25353 -4.0497,-16.65906 0.1025,-3.70276 0.1796,-6.94607 -0.3614,-8.34605 -0.5409,-1.39998 -1.6944,-0.95662 -4.0779,2.71394 -9.5339,14.68223 -0.6832,22.27081 -9.8553,22.25044 -9.1722,-0.0204 -4.5852,-0.0347 -4.5852,-0.0347"
       style="fill:none;stroke:#000000;stroke-width:0.99999994px;stroke-linecap:butt;stroke-linejoin:miter;stroke-opacity:1"
       inkscape:connector-curvature="0" />
    <path
       inkscape:original-d="m 1528.7116,402.11423 -47.2785,71.79329 86.4747,0.40292 -39.1962,-72.19621 z"
       inkscape:path-effect="#path-effect9749"
       sodipodi:nodetypes="cccc"
       id="path4737"
       d="m 1563.6996,474.29083 c 0,0 0.6883,-0.62604 0.5757,-2.77792 -0.1126,-2.15187 -1.0155,-5.82957 -4.3291,-11.93288 -1.6568,-3.05165 -2.4283,-3.65888 -2.7201,-2.85359 -0.2919,0.80529 -0.1152,3.0231 0.066,5.62154 0.1816,2.59843 0.3652,5.5775 0.1358,7.90529 -0.2294,2.32779 -0.8666,4.0043 -2.2942,3.99765 -2.8551,-0.0133 -3.1462,-6.71756 -3.7858,-15.12489 -0.3199,-4.20367 -0.7281,-8.8331 -1.5349,-13.26482 -0.8068,-4.43173 -2.0112,-8.66573 -3.864,-12.07854 -1.8529,-3.41281 -2.461,-2.59161 -2.4282,0.55947 0.033,3.15109 0.6724,8.63207 1.2379,14.53881 0.5655,5.90675 1.0507,12.23926 0.9994,17.09343 -0.051,4.85416 -0.6173,8.22998 -2.0449,8.22333 -1.4276,-0.007 -2.295,-3.6269 -3.0114,-9.17749 -0.7164,-5.5506 -1.3066,-13.03154 -2.115,-20.75959 -0.8084,-7.72805 -1.8381,-15.70321 -3.158,-22.24224 -1.3199,-6.53902 -2.9113,-11.6419 -4.6825,-13.62541 -1.7712,-1.9835 -1.9129,1.13588 -1.3419,6.93025 0.571,5.79438 1.8048,14.26375 2.8162,22.98023 1.0114,8.71648 1.7958,17.68006 1.9077,24.46287 0.1119,6.7828 -0.4081,11.38482 -1.8356,11.37817 -1.4276,-0.007 -2.3181,-4.15668 -3.0843,-10.26915 -0.7662,-6.11247 -1.4409,-14.18739 -2.2993,-22.04384 -0.8585,-7.85645 -1.897,-15.49443 -3.0346,-20.73302 -1.1376,-5.2386 -2.3341,-8.0778 -3.4807,-6.33669 -1.1465,1.74111 -1.1269,6.32142 -0.6721,12.2121 0.4547,5.89067 1.3292,13.09171 2.0223,20.07429 0.693,6.98257 1.2073,13.74667 1.1678,18.76346 -0.039,5.0168 -0.6121,8.28629 -2.0397,8.27963 -1.4275,-0.007 -2.2846,-3.28298 -2.9431,-8.08118 -0.6585,-4.7982 -1.1389,-11.11828 -1.7233,-17.21242 -0.5845,-6.09414 -1.27,-11.96235 -2.1187,-15.85682 -0.8488,-3.89448 -1.8344,-5.81521 -3.0203,-4.0144 -1.1859,1.80081 -1.41,5.52235 -1.2429,10.09129 0.1671,4.56895 0.7184,9.98529 1.1624,15.17571 0.444,5.19041 0.7827,10.15489 0.6423,13.8201 -0.1405,3.66522 -0.7493,6.03116 -2.1769,6.02451 -1.4276,-0.007 -2.2479,-2.37947 -2.8064,-5.81827 -0.5584,-3.43881 -0.8656,-7.94358 -1.2161,-12.21414 -0.3505,-4.27056 -0.742,-8.3069 -1.356,-10.80882 -0.6141,-2.50192 -1.4353,-3.46943 -2.6649,-1.60233 -1.2296,1.86711 -1.6544,4.70172 -1.7208,7.90297 -0.066,3.20126 0.224,6.76916 0.4618,10.10284 0.4756,6.66736 0.737,12.39784 -2.1181,12.38454 -2.8552,-0.0133 -3.1378,-5.74487 -3.46,-10.50246 -0.1611,-2.37879 -0.3242,-4.51409 -0.7638,-5.56937 -0.4396,-1.05527 -1.1486,-1.03052 -2.4271,0.91078 -5.1137,7.76523 0.9406,15.13444 -4.7697,15.10784 -5.7102,-0.0266 -3.0221,-3.29768 -3.0221,-3.29768"
       style="fill:none;stroke:#000000;stroke-width:0.99999994px;stroke-linecap:butt;stroke-linejoin:miter;stroke-opacity:1"
       inkscape:connector-curvature="0" />
    <path
       inkscape:original-d="m 1139.9772,549.2029 c 0,0 90.153,68.13777 164.5993,89.30385 74.4462,21.16607 191.6109,19.73751 276.6668,15.75949 85.0558,-3.97801 170.0882,-12.58944 231.1393,-35.02111 61.051,-22.43167 133.0802,-82.29961 133.0802,-82.29961 0,0 -31.5053,123.69368 -64.6583,159.89055 -33.1531,36.19686 -108.6962,55.48929 -108.6962,55.48929 l -31.519,-61.28695 -36.7721,73.54434 c 0,0 -107.5584,11.3687 -154.9519,11.64902 -47.3935,0.28032 -128.7192,-8.14692 -128.7192,-8.14692 l -28.0168,-77.04644 -51.3251,73.81005 c 0,0 -60.6618,-28.77682 -96.3136,-63.801 C 1208.8389,666.02327 1139.9772,549.2029 1139.9772,549.2029 z"
       inkscape:path-effect="#path-effect9753"
       sodipodi:nodetypes="czzzczccczccczc"
       id="path4739"
       d="m 1944.4829,537.75098 c 0,0 0.9675,-2.73379 0.9819,-2.05209 0.014,0.68169 -0.9097,4.77886 -4.7647,18.44077 -3.855,13.66191 -3.9198,10.39557 -4.0208,4.49284 -0.101,-5.90272 -0.2644,-14.44184 -4.3044,-11.32547 -4.04,3.11636 -3.8792,11.63726 -3.7172,22.30245 0.162,10.6652 0.3204,23.47468 -3.6733,35.16822 -1.9968,5.84677 -3.0257,5.56747 -3.5696,1.95196 -0.544,-3.6155 -0.6093,-10.56722 -0.6983,-18.06529 -0.1779,-14.99612 -0.4713,-32.17764 -4.5207,-29.22564 -4.0494,2.952 -3.7618,20.16113 -3.5703,39.02259 0.1914,18.86146 0.2723,39.37526 -3.8118,48.9366 -2.0421,4.78067 -3.0677,2.04262 -3.5964,-4.66627 -0.5287,-6.7089 -0.5702,-17.38865 -0.6523,-28.49138 -0.082,-11.10274 -0.2059,-22.62846 -0.826,-31.0293 -0.6201,-8.40084 -1.7287,-13.6768 -3.7576,-12.28002 -4.0576,2.79357 -3.7075,26.73395 -3.5594,51.69138 0.074,12.47872 0.1036,25.2117 -0.412,35.68272 -0.5155,10.47101 -1.5723,18.68008 -3.6363,22.11096 -4.128,6.86176 -3.988,-19.1118 -4.0934,-46.14447 -0.053,-13.51633 -0.1626,-27.29744 -0.78,-37.3713 -0.6175,-10.07386 -1.7322,-16.44048 -3.7647,-15.12781 -2.0326,1.31267 -2.9541,8.97264 -3.3621,19.84596 -0.4081,10.87333 -0.3097,24.96002 -0.2705,39.12612 0.039,14.1661 0.019,28.41162 -0.5398,39.6026 -0.5588,11.19099 -1.6497,19.32744 -3.7148,21.27541 -2.065,1.94798 -3.0335,-4.24013 -3.4911,-14.54184 -0.4576,-10.30171 -0.4158,-24.71703 -0.4379,-39.22347 -0.022,-14.50645 -0.1085,-29.10402 -0.7112,-39.77024 -0.6028,-10.66622 -1.7111,-17.4011 -3.747,-16.18215 -2.036,1.21896 -2.9673,9.15749 -3.3924,20.46648 -0.4251,11.30899 -0.3518,25.98843 -0.3428,40.68918 0.01,14.70076 -0.046,29.42283 -0.6327,40.81708 -0.5866,11.39425 -1.6969,19.46068 -3.7607,20.85016 -2.0639,1.38948 -3.0133,-5.28693 -3.4469,-16.01371 -0.4335,-10.72678 -0.3624,-25.50393 -0.3578,-40.31591 0,-14.81199 -0.057,-29.65881 -0.643,-40.52494 -0.5859,-10.86614 -1.6847,-17.75158 -3.7237,-16.64081 -2.039,1.11077 -2.9824,9.10243 -3.4253,20.53472 -0.4429,11.43229 -0.3936,26.30521 -0.4101,41.17848 -0.017,14.87327 -0.099,29.7469 -0.7062,41.18062 -0.6074,11.43372 -1.7314,19.42752 -3.7944,20.54115 -2.063,1.11363 -2.9986,-5.76576 -3.4133,-16.64992 -0.4147,-10.88416 -0.3195,-25.77308 -0.2916,-40.6785 0.028,-14.90542 -0.011,-29.82735 -0.5811,-40.77751 -0.5698,-10.95015 -1.6593,-17.92855 -3.7009,-16.94693 -2.0417,0.98163 -2.9968,8.93966 -3.4561,20.3831 -0.4593,11.44344 -0.4312,26.37229 -0.4696,41.29557 -0.038,14.92327 -0.1429,29.84097 -0.767,41.2621 -0.624,11.42112 -1.759,19.34568 -3.8212,20.28267 -2.0622,0.937 -2.9867,-6.04939 -3.3858,-17.00468 -0.3991,-10.95529 -0.2837,-25.87949 -0.2356,-40.81811 0.048,-14.93862 0.029,-29.89167 -0.5269,-40.90467 -0.5557,-11.013 -1.6368,-18.08595 -3.6809,-17.26437 -2.044,0.82158 -3.0093,8.7151 -3.4826,20.14368 -0.4733,11.42858 -0.4634,26.39221 -0.5202,41.354 -0.057,14.9618 -0.1804,29.92175 -0.8187,41.34298 -0.6383,11.42123 -1.7825,19.30373 -3.844,20.11061 -2.0614,0.80687 -2.9762,-6.27171 -3.3617,-17.30134 -0.3855,-11.02963 -0.2525,-26.0103 -0.1873,-41.00758 0.065,-14.99729 0.063,-30.01119 -0.4813,-41.10729 -0.5438,-11.0961 -1.6181,-18.2744 -3.6639,-17.60046 -2.0457,0.67393 -3.0191,8.52574 -3.5039,19.96808 -0.4848,11.44233 -0.4899,26.47519 -0.5625,41.51121 -0.073,15.03603 -0.2129,30.07522 -0.8637,41.53023 -0.6509,11.45501 -1.8034,19.32583 -3.8641,20.02511 -2.0606,0.69928 -2.9666,-6.473 -3.3399,-17.58901 -0.3734,-11.116 -0.225,-26.17572 -0.145,-41.25132 0.08,-15.0756 0.091,-30.16707 -0.4423,-41.34657 -0.5338,-11.1795 -1.6023,-18.44703 -3.6492,-17.87474 -2.0468,0.57228 -3.0269,8.41301 -3.5213,19.88899 -0.4945,11.47597 -0.5127,26.58719 -0.5991,41.70047 -0.087,15.11328 -0.2412,30.22861 -0.903,41.7128 -0.6618,11.48419 -1.8214,19.33724 -3.8808,19.92596 -2.0594,0.58872 -2.9575,-6.67614 -3.3203,-17.87391 -0.3628,-11.19777 -0.2011,-26.32845 -0.1084,-41.47139 0.093,-15.14293 0.1163,-30.29812 -0.4089,-41.5449 -0.5252,-11.24677 -1.5885,-18.58514 -3.6362,-18.09443 -2.0476,0.49071 -3.0365,7.84971 -3.5375,18.36918 -0.501,10.51947 -0.5222,24.1994 -0.5936,37.33195 -0.1427,26.26511 -0.4894,50.34071 -4.4888,42.5641 -1.9997,-3.88831 -2.9261,-11.85175 -3.3501,-21.58326 -0.4239,-9.73151 -0.3481,-21.2311 -0.31,-32.1917 0.076,-21.9212 -0.01,-41.68646 -4.1032,-40.8393 -4.0964,0.84716 -4.0342,20.61258 -4.0872,38.2017 -0.053,17.58913 -0.1892,33.00196 -4.2304,25.14395 -4.0413,-7.85801 -3.9591,-23.27202 -3.9455,-36.53789 0.014,-13.26587 -0.027,-24.38359 -4.1241,-23.64901 -4.0971,0.73458 -4.0469,15.83513 -4.0916,32.84515 -0.045,17.01003 -0.2011,35.92954 -4.3873,44.30205 -4.1863,8.37251 -3.9619,-10.54792 -3.8601,-31.4018 0.1019,-20.85387 0.047,-43.64117 -4.0509,-43.00239 -4.0978,0.63878 -4.0324,23.42586 -4.1755,48.17182 -0.072,12.37298 -0.1914,25.23569 -0.8347,36.06444 -0.6433,10.82875 -1.8065,19.62356 -3.9251,23.86073 -2.1185,4.23717 -3.0619,-0.32064 -3.4401,-9.52339 -0.3782,-9.20274 -0.2046,-23.05042 -0.089,-37.39297 0.1156,-14.34256 0.1717,-29.17999 -0.3294,-40.36224 -0.5012,-11.18224 -1.549,-18.70931 -3.5981,-18.43115 -2.0491,0.27817 -3.0512,7.96464 -3.577,19.35085 -0.5257,11.38622 -0.5847,26.47219 -0.7117,41.54937 -0.1271,15.07718 -0.3221,30.14557 -1.0125,41.49663 -0.6903,11.35105 -1.8663,18.98477 -3.9199,19.19261 -2.0537,0.20783 -2.9308,-7.2182 -3.2656,-18.45901 -0.3349,-11.24081 -0.1376,-26.2964 -0.01,-41.34767 0.1291,-15.05127 0.1901,-30.09822 -0.307,-41.32177 -0.4972,-11.22354 -1.5422,-18.62367 -3.5915,-18.38129 -2.0493,0.24238 -3.0542,7.88483 -3.5838,19.22461 -0.5296,11.33978 -0.5933,26.37687 -0.7247,41.40851 -0.1314,15.03165 -0.3305,30.05785 -1.0236,41.37583 -0.6932,11.31799 -1.8708,18.92777 -3.9244,19.12657 -2.0536,0.1988 -2.9289,-7.21231 -3.2609,-18.4276 -0.3319,-11.21529 -0.1307,-26.23476 0,-41.25269 0.1334,-15.01794 0.199,-30.03433 -0.2945,-41.24347 -0.4936,-11.20914 -1.5362,-18.61102 -3.5856,-18.39992 -2.0494,0.2111 -3.0568,7.82409 -3.5898,19.13671 -0.5329,11.31263 -0.6009,26.3249 -0.7365,41.33455 -0.1355,15.00965 -0.3385,30.01669 -1.0346,41.31885 -0.696,11.30216 -1.8755,18.89946 -3.929,19.08962 -2.0534,0.19017 -2.9268,-7.21706 -3.2559,-18.42341 -0.3291,-11.20634 -0.1239,-26.2118 0.014,-41.21807 0.1375,-15.00627 0.2073,-30.01336 -0.2831,-41.22297 -0.4904,-11.20961 -1.531,-18.62174 -3.5805,-18.43811 -2.0494,0.18364 -3.0589,7.77945 -3.5948,19.08116 -0.5359,11.30171 -0.6079,26.30933 -0.7473,41.31658 -0.1395,15.00726 -0.3465,30.01416 -1.0454,41.31444 -0.699,11.30028 -1.8804,18.89393 -3.9337,19.0747 -2.0533,0.18077 -2.9247,-7.23221 -3.2508,-18.4434 -0.3262,-11.21119 -0.1171,-26.22058 0.024,-41.23264 0.1414,-15.01206 0.215,-30.02679 -0.2726,-41.24863 -0.4875,-11.22185 -1.5263,-18.65081 -3.5759,-18.49135 -2.0496,0.15945 -3.0608,7.74794 -3.5994,19.05158 -0.5385,11.30365 -0.614,26.32246 -0.7572,41.34256 -0.1432,15.02011 -0.354,30.04152 -1.0559,41.35037 -0.7019,11.30884 -1.8852,18.90513 -3.9383,19.07499 -2.0532,0.16986 -2.9225,-7.25665 -3.2457,-18.48332 -0.3231,-11.22668 -0.1103,-26.25352 0.035,-41.28432 0.145,-15.03081 0.2221,-30.06557 -0.263,-41.3081 -0.485,-11.24253 -1.5223,-18.69282 -3.5719,-18.55466 -2.0496,0.13815 -3.0624,7.72669 -3.6033,19.04157 -0.5409,11.31487 -0.6197,26.35609 -0.7663,41.3996 -0.1467,15.0435 -0.3612,30.08931 -1.0659,41.41336 -0.7047,11.32405 -1.8899,18.92635 -3.9428,19.08285 -2.0529,0.1565 -2.9201,-7.28937 -3.2405,-18.53875 -0.3203,-11.24937 -0.1039,-26.30226 0.044,-41.35978 0.1484,-15.05752 0.2286,-30.11968 -0.2542,-41.38761 -0.4829,-11.26793 -1.5188,-18.74162 -3.5685,-18.62222 -2.0496,0.11941 -3.0637,7.71267 -3.6067,19.04409 -0.543,11.33142 -0.6247,26.401 -0.7745,41.47305 -0.1498,15.07206 -0.3678,30.14658 -1.0751,41.48787 -0.7074,11.3413 -1.8943,18.94937 -3.9469,19.08852 -2.0526,0.13915 -2.9178,-7.32984 -3.2355,-18.60516 -0.3177,-11.27532 -0.098,-26.35697 0.053,-41.44314 0.1514,-15.08617 0.2344,-30.17687 -0.2465,-41.47028 -0.4809,-11.29341 -1.5157,-18.78954 -3.5654,-18.68657 -2.0497,0.10296 -3.0649,7.70235 -3.6097,19.05069 -0.5448,11.34833 -0.6291,26.44561 -0.7817,41.54437 -0.1526,15.09876 -0.3737,30.19899 -1.0833,41.55322 -0.7096,11.35423 -1.898,18.96246 -3.9501,19.07721 -2.0521,0.11476 -2.9154,-7.3788 -3.2308,-18.67813 -0.3155,-11.29933 -0.093,-26.40443 0.061,-41.51273 0.1538,-15.1083 0.2392,-30.21981 -0.2401,-41.53198 -0.4792,-11.31216 -1.513,-18.82498 -3.5627,-18.73589 -2.0497,0.0891 -3.0659,7.69165 -3.6122,19.05013 -0.5464,11.35848 -0.6328,26.47287 -0.7877,41.58561 -0.1549,15.11274 -0.3783,30.22383 -1.0895,41.57571 -0.7112,11.35188 -1.9004,18.94454 -3.9517,19.02043 -2.0513,0.0759 -2.9132,-7.44084 -3.227,-18.75393 -0.3138,-11.31309 -0.09,-26.42255 0.066,-41.5321 0.1557,-15.10956 0.2428,-30.21921 -0.2351,-41.5327 -0.4779,-11.31349 -1.5108,-18.83082 -3.5605,-18.75573 -2.0497,0.0751 -3.0667,7.66896 -3.6143,19.01767 -0.5476,11.34871 -0.6356,26.45225 -0.7918,41.54669 -0.1563,15.09444 -0.3808,30.17977 -1.0924,41.49207 -0.7115,11.31229 -1.9,18.85154 -3.9498,18.85381 -2.0498,0.002 -2.911,-7.53468 -3.2245,-18.83763 -0.3135,-11.30295 -0.089,-26.37192 0.067,-41.4337 0.1561,-15.06179 0.2441,-30.11639 -0.233,-41.39063 -0.4771,-11.27423 -1.5092,-18.76809 -3.5589,-18.70839 -2.0497,0.0597 -3.0675,7.61217 -3.6158,18.90357 -0.5482,11.29141 -0.6367,26.32174 -0.7927,41.33718 -0.156,15.01544 -0.3795,30.01597 -1.0896,41.24777 -0.71,11.2318 -1.8967,18.69486 -3.9452,18.63535 -2.0485,-0.0595 -2.9105,-7.58203 -3.2254,-18.82966 -0.3149,-11.24764 -0.092,-26.22038 0.063,-41.18033 0.1551,-14.95995 0.243,-29.9071 -0.2338,-41.10356 -0.4767,-11.19645 -1.5081,-18.64221 -3.5579,-18.59936 -2.0497,0.0429 -3.0681,7.53099 -3.6165,18.73298 -0.5485,11.20199 -0.6366,26.11783 -0.7912,41.01609 -0.1545,14.89825 -0.3756,29.77893 -1.083,40.91059 -0.7075,11.13167 -1.8916,18.51431 -3.9393,18.41651 -2.0477,-0.0978 -2.9116,-7.5782 -3.2291,-18.74226 -0.3174,-11.16405 -0.098,-26.01177 0.055,-40.8442 0.1533,-14.83244 0.2403,-29.6496 -0.2364,-40.75255 -0.4768,-11.10295 -1.5077,-18.49168 -3.5575,-18.46727 -2.0497,0.0244 -3.0685,7.43731 -3.6168,18.53511 -0.5482,11.09781 -0.6353,25.88052 -0.7878,40.64456 -0.1524,14.76404 -0.37,29.5094 -1.0743,40.53252 -0.7043,11.02311 -1.8855,18.32397 -3.9326,18.19899 -2.0472,-0.12497 -2.9135,-7.55075 -3.2341,-18.61885 -0.3207,-11.0681 -0.1049,-25.77853 0.046,-40.47281 0.1507,-14.69428 0.2366,-29.37241 -0.2405,-40.37593 -0.4771,-11.00352 -1.5078,-18.33241 -3.5576,-18.32822 -2.0497,0.004 -3.0688,7.33715 -3.6165,18.32508 -0.5477,10.98794 -0.6333,25.63087 -0.7831,40.25503 -0.1497,14.62416 -0.3635,29.22955 -1.0641,40.14241 -0.7007,10.91286 -1.8788,18.1332 -3.9256,17.98725 -2.0467,-0.14595 -2.9158,-7.51217 -3.24,-18.48053 -0.3242,-10.96836 -0.1125,-25.53886 0.035,-40.09337 0.1479,-14.55451 0.2321,-29.09303 -0.2457,-39.99744 -0.4778,-10.90441 -1.5084,-18.1747 -3.5582,-18.19275 -2.0497,-0.0181 -3.0688,7.23411 -3.6156,18.11229 -0.5468,10.87818 -0.6306,25.38239 -0.7773,39.86846 -0.1467,14.48606 -0.3562,28.95397 -1.0531,39.75955 -0.6968,10.80558 -1.8717,17.94883 -3.9182,17.78558 -2.0464,-0.16325 -2.9184,-7.46968 -3.2464,-18.34015 -0.3279,-10.87048 -0.1207,-25.30501 0.024,-39.72446 0.1447,-14.41945 0.2269,-28.82383 -0.2519,-39.63401 -0.4788,-10.81018 -1.5095,-18.02616 -3.5593,-18.06882 -2.0497,-0.0427 -3.0686,7.13062 -3.6142,17.90338 -0.5457,10.77276 -0.6272,25.145 -0.7705,39.50026 -0.1433,14.35526 -0.3483,28.69353 -1.0412,39.39836 -0.693,10.70483 -1.8647,17.77622 -3.9109,17.5977 -2.0461,-0.17852 -2.9211,-7.42834 -3.2529,-18.20701 -0.3319,-10.77868 -0.1292,-25.08623 0.012,-39.38022 0.1412,-14.29399 0.221,-28.57442 -0.2591,-39.29887 -0.4801,-10.72446 -1.5113,-17.89293 -3.561,-17.963 -2.0497,-0.0701 -3.0681,7.02837 -3.6122,17.70335 -0.5442,10.67498 -0.6231,24.92649 -0.7627,39.16256 -0.1397,14.23608 -0.3401,28.45671 -1.029,39.06993 -0.689,10.61322 -1.8575,17.61902 -3.9034,17.42542 -2.0459,-0.19359 -2.9239,-7.39286 -3.2597,-18.08919 -0.3357,-10.69632 -0.1378,-24.88969 -3e-4,-39.07146 0.1374,-14.18178 0.2145,-28.35196 -0.2672,-39.00191 -0.4818,-10.64995 -1.5137,-17.77967 -3.5634,-17.88051 -2.0498,-0.10085 -3.0669,7.5353 -3.6131,18.7101 -0.5463,11.1748 -0.6321,25.88826 -0.7727,39.94205 -0.1405,14.05379 -0.3339,27.44791 -0.9854,35.98403 -0.6515,8.53611 -1.7467,12.21423 -3.7024,6.83601 -1.9557,-5.37822 -2.8307,-14.43441 -3.2046,-25.00193 -0.3738,-10.56752 -0.2488,-22.64637 -0.167,-34.06992 0.1637,-22.84708 0.1466,-43.07293 -3.9529,-43.34441 -4.0996,-0.27149 -4.0993,19.95518 -4.2071,37.50597 -0.054,8.7754 -0.1268,16.88182 -0.6842,21.42253 -0.5573,4.5407 -1.5918,5.51568 -3.5873,0.0282 -3.9909,-10.975 -3.889,-25.84919 -3.8494,-38.06753 0.04,-12.21834 0.029,-21.78083 -4.0705,-22.13241 -4.0996,-0.35158 -4.0903,9.12652 -4.1224,20.18369 -0.032,11.05717 -0.1147,23.69341 -4.2624,29.65811 -4.1476,5.9647 -4.0317,-6.67061 -3.9686,-20.9083 0.063,-14.23769 0.054,-30.07777 -4.0456,-30.5226 -4.0998,-0.44484 -4.0797,15.39519 -4.1641,32.84673 -0.084,17.45155 -0.2899,36.5146 -4.4629,42.51579 -4.173,6.00119 -3.9168,-13.06061 -3.785,-33.76156 0.1318,-20.70095 0.1122,-43.04105 -3.9879,-43.59643 -4.1002,-0.55539 -4.0635,21.78466 -4.2253,45.77315 -0.081,11.99424 -0.2076,24.4006 -0.8499,34.56319 -0.6423,10.16259 -1.7961,18.08141 -3.8956,21.10059 -4.1989,6.03836 -3.7451,-19.59684 -3.5191,-46.914 0.113,-13.65858 0.1724,-27.73765 -0.3233,-38.48825 -0.4958,-10.75061 -1.538,-18.17275 -3.5883,-18.51748 -2.0503,-0.34473 -3.0566,6.89467 -3.5848,17.883 -0.5283,10.98833 -0.5886,25.72558 -0.713,40.37655 -0.1244,14.65097 -0.3128,29.21565 -0.9897,39.85885 -0.6769,10.64319 -1.8318,17.36489 -3.8626,16.32989 -2.0308,-1.035 -2.9097,-8.79108 -3.2578,-19.86978 -0.3481,-11.0787 -0.1732,-25.48004 -0.06,-39.80556 0.113,-14.32551 0.1642,-28.57522 -0.3374,-39.35066 -0.5015,-10.77545 -1.5475,-18.07664 -3.5982,-18.50512 -2.0507,-0.42849 -3.0543,6.44381 -3.5744,16.92269 -0.5202,10.47889 -0.5661,24.56435 -0.6707,38.5622 -0.1045,13.99784 -0.2675,27.90806 -0.9228,38.03646 -0.6554,10.12839 -1.7934,16.47496 -3.8242,15.34549 -2.0307,-1.12947 -2.9267,-8.60453 -3.2966,-19.21538 -0.3698,-10.61085 -0.2206,-24.3575 -0.1277,-38.03014 0.093,-13.67265 0.1296,-27.27129 -0.3804,-37.58614 -0.5101,-10.31485 -1.5595,-17.3459 -3.6108,-17.88337 -2.0513,-0.53746 -3.0518,5.95658 -3.5631,15.92328 -0.5113,9.96669 -0.5421,23.40604 -0.6263,36.7592 -0.084,13.35315 -0.2218,26.62012 -0.8558,36.24204 -0.634,9.62193 -1.7555,15.59881 -3.7867,14.37181 -2.0311,-1.227 -2.9441,-8.43003 -3.3356,-18.58736 -0.3916,-10.15732 -0.2679,-23.26895 -0.1954,-36.31314 0.072,-13.04419 0.094,-26.02094 -0.4254,-35.90853 -0.5195,-9.88759 -1.5734,-16.68602 -3.6257,-17.37355 -2.0523,-0.68753 -3.049,5.42436 -3.5506,14.89472 -0.5016,9.47037 -0.5162,22.29921 -0.5796,35.04558 -0.1269,25.49274 -0.4755,50.65561 -4.539,47.96104 -2.0317,-1.34729 -2.9613,-8.31246 -3.3744,-18.0538 -0.4131,-9.74134 -0.3151,-22.25884 -0.2636,-34.7108 0.103,-24.9039 -0.01,-49.5456 -4.1165,-51.19134 -2.0537,-0.82287 -3.046,4.92811 -3.5371,13.92284 -0.4911,8.99473 -0.4885,21.2332 -0.5306,33.3853 -0.084,24.30421 -0.3695,48.26295 -4.4346,45.23533 -4.065,-3.02763 -3.8075,-26.98864 -3.7481,-50.66091 0.06,-23.67228 -0.075,-47.05582 -4.1856,-48.92848 -4.1107,-1.87267 -3.9639,21.52985 -4.0039,44.5096 -0.04,22.97974 -0.2592,45.53671 -4.3263,41.97293 -4.0671,-3.56378 -3.8791,-26.12238 -3.8651,-48.30717 0.014,-22.18479 -0.1407,-43.99577 -4.2555,-46.06431 -4.1148,-2.06854 -3.9478,19.78266 -3.9424,40.98742 0.01,21.20476 -0.1398,41.76307 -4.2103,37.10876 -4.0705,-4.65432 -3.9632,-25.21382 -3.9963,-45.17024 -0.033,-19.95642 -0.1998,-39.30978 -4.3193,-41.55181 -4.1194,-2.24204 -3.9426,17.08168 -3.8926,35.60651 0.05,18.52484 -0.014,36.2508 -4.0992,30.81322 -4.0848,-5.43757 -4.059,-23.16434 -4.1324,-40.13163 -0.073,-16.96728 -0.2392,-33.17507 -4.3639,-35.57468 -4.1247,-2.39961 -3.9502,13.79707 -3.8666,29.11398 0.083,15.31691 0.088,29.75403 -4.0191,23.83532 -4.1071,-5.91872 -4.1458,-20.35634 -4.2439,-33.95095 -0.098,-13.5946 -0.2503,-26.34619 -4.381,-28.89285 -4.1307,-2.54665 -3.9713,10.19977 -3.8717,22.01412 0.1,11.81435 0.1496,22.69664 -3.9847,16.42173 -4.1343,-6.27491 -4.2118,-17.1573 -4.3146,-27.14316 -0.1028,-9.98585 -0.2275,-19.07517 -4.3649,-21.76394 -4.1373,-2.68876 -4.007,6.39822 -3.9132,14.51429 0.094,8.11606 0.1599,15.26121 -4.0056,8.68878 -8.3309,-13.14486 -0.3555,-28.57805 -8.6453,-34.24694 -8.2897,-5.66888 0.3157,21.10328 -8.0851,7.39872 -8.4008,-13.70456 -0.2039,-13.04892 -8.5117,-19.07645 -8.3078,-6.02754 -4.1322,-1.79456 -4.1322,-1.79456"
       style="fill:none;stroke:#000000;stroke-width:0.99999994px;stroke-linecap:butt;stroke-linejoin:miter;stroke-opacity:1"
       inkscape:connector-curvature="0" />
  </g>
  <eggbot
     serialport="/dev/ttyACM0"
     layer="0"
     node="0"
     lastpath="0"
     lastpathnc="0"
     totaldeltax="0"
     totaldeltay="0"
     id="eggbot3115" />
</svg>
