<?xml version="1.0" encoding="UTF-8" standalone="no"?>
<!-- Created with Inkscape (http://www.inkscape.org/) -->

<svg
   xmlns:dc="http://purl.org/dc/elements/1.1/"
   xmlns:cc="http://creativecommons.org/ns#"
   xmlns:rdf="http://www.w3.org/1999/02/22-rdf-syntax-ns#"
   xmlns:svg="http://www.w3.org/2000/svg"
   xmlns="http://www.w3.org/2000/svg"
   xmlns:sodipodi="http://sodipodi.sourceforge.net/DTD/sodipodi-0.dtd"
   xmlns:inkscape="http://www.inkscape.org/namespaces/inkscape"
   width="3200"
   height="1000"
   id="svg27345"
   version="1.1"
   inkscape:version="0.48+devel r"
   sodipodi:docname="lambda.svg">
  <sodipodi:namedview
     id="base"
     pagecolor="#ffffff"
     bordercolor="#666666"
     borderopacity="1.0"
     inkscape:pageopacity="0.0"
     inkscape:pageshadow="2"
     inkscape:zoom="0.4046875"
     inkscape:cx="1600"
     inkscape:cy="500"
     inkscape:document-units="px"
     inkscape:current-layer="svg27345"
     showgrid="false"
     inkscape:window-width="1440"
     inkscape:window-height="825"
     inkscape:window-x="0"
     inkscape:window-y="24"
     inkscape:window-maximized="1" />
  <defs
     id="defs27347">
    <inkscape:path-effect
       effect="rough_hatches"
       id="path-effect6255"
       is_visible="true"
       direction="1566.0872,474.15667 , -0.61783399,-30.88803"
       dist_rdm="0;1"
       growth="0"
       do_bend="true"
       bender="1566.0872,479.15667 , 5,0"
       bottom_edge_variation="0;1"
       top_edge_variation="0;1"
       bottom_tgt_variation="0;1"
       top_tgt_variation="0;1"
       scale_bf="2"
       scale_bb="2"
       scale_tf="2"
       scale_tb="2"
       top_smth_variation="0;1"
       bottom_smth_variation="0;1"
       fat_output="false"
       stroke_width_top="1"
       stroke_width_bottom="1"
       front_thickness="1"
       back_thickness="0.25" />
    <inkscape:path-effect
       effect="rough_hatches"
       id="path-effect6199"
       is_visible="true"
       direction="1558.7518,495.30068 , 47.201762,-0.87364543"
       dist_rdm="0;1"
       growth="0"
       do_bend="true"
       bender="1558.7518,500.30068 , 5,0"
       bottom_edge_variation="0;1"
       top_edge_variation="0;1"
       bottom_tgt_variation="0;1"
       top_tgt_variation="0;1"
       scale_bf="2"
       scale_bb="2"
       scale_tf="2"
       scale_tb="2"
       top_smth_variation="0;1"
       bottom_smth_variation="0;1"
       fat_output="false"
       stroke_width_top="1"
       stroke_width_bottom="1"
       front_thickness="1"
       back_thickness="0.25" />
    <inkscape:path-effect
       back_thickness="0.25"
       front_thickness="1"
       stroke_width_bottom="1"
       stroke_width_top="1"
       fat_output="false"
       bottom_smth_variation="0;1"
       top_smth_variation="0;1"
       scale_tb="2"
       scale_tf="2"
       scale_bb="2"
       scale_bf="2"
       top_tgt_variation="0;1"
       bottom_tgt_variation="0;1"
       top_edge_variation="0;1"
       bottom_edge_variation="0;1"
       bender="1566.5848,479.6479 , 5,0"
       do_bend="true"
       growth="0"
       dist_rdm="0;1"
       direction="1566.5848,474.6479 , 47.767755,-18.346554"
       is_visible="true"
       id="path-effect6172"
       effect="rough_hatches" />
    <inkscape:perspective
       sodipodi:type="inkscape:persp3d"
       inkscape:vp_x="0 : 526.18109 : 1"
       inkscape:vp_y="0 : 1000 : 0"
       inkscape:vp_z="744.09448 : 526.18109 : 1"
       inkscape:persp3d-origin="372.04724 : 350.78739 : 1"
       id="perspective27353" />
  </defs>
  <metadata
     id="metadata27350">
    <rdf:RDF>
      <cc:Work
         rdf:about="">
        <dc:format>image/svg+xml</dc:format>
        <dc:type
           rdf:resource="http://purl.org/dc/dcmitype/StillImage" />
        <dc:title />
      </cc:Work>
    </rdf:RDF>
  </metadata>
  <g
     inkscape:label="Layer 1"
     inkscape:groupmode="layer"
     id="layer1"
     transform="translate(0,-52.36218)" />
  <eggbot
     serialport="/dev/ttyACM0"
     layer="0"
     node="0"
     id="eggbot8241"
     lastpath="0"
     lastpathnc="0"
     totaldeltax="0"
     totaldeltay="0" />
  <path
     id="path8821"
     d="m 1458.0312,285.25 51.5,0 51.4688,0 60.9375,158.65625 c 33.5199,87.24623 62.0456,158.625 63.375,158.625 1.3293,0 13.5025,-3.72573 27.0625,-8.28125 l 24.6562,-8.28125 3.125,10.90625 c 1.7162,6.00963 5.2431,18.34946 7.8438,27.40625 2.8246,9.83243 3.9361,17.18024 2.7812,18.25 -1.0639,0.98536 -25.0014,8.5642 -53.2187,16.84375 -53.7855,15.78194 -54.7386,16.00854 -56.1563,13.46875 -0.4869,-0.87246 -17.8214,-45.64926 -38.5312,-99.5 -25.5049,-66.31909 -38.5502,-97.69963 -40.4375,-97.28125 -1.5323,0.33972 -27.8619,41.06047 -58.5,90.5 l -55.6875,89.90625 -33.1562,0.5625 -33.1563,0.59375 48.9687,-80.96875 c 26.9253,-44.52506 62.1156,-102.75862 78.2188,-129.4375 16.1035,-26.67886 29.2485,-50.02217 29.1875,-51.84375 -0.061,-1.82155 -4.1366,-14.24724 -9.0313,-27.625 l -8.875,-24.3125 -31.1874,-0.59375 -31.1876,-0.59375 0,-28.5 0,-28.5 z"
     style="fill:none;stroke:#000000;stroke-opacity:1;stroke-width:4;stroke-miterlimit:4;stroke-dasharray:none;fill-opacity:1" />
  <path
     inkscape:original-d="m 1458.0312,285.25 51.5,0 51.4688,0 60.9375,158.65625 c 33.5199,87.24623 62.0456,158.625 63.375,158.625 1.3293,0 13.5025,-3.72573 27.0625,-8.28125 l 24.6562,-8.28125 3.125,10.90625 c 1.7162,6.00963 5.2431,18.34946 7.8438,27.40625 2.8246,9.83243 3.9361,17.18024 2.7812,18.25 -1.0639,0.98536 -25.0014,8.5642 -53.2187,16.84375 -53.7855,15.78194 -54.7386,16.00854 -56.1563,13.46875 -0.4869,-0.87246 -17.8214,-45.64926 -38.5312,-99.5 -25.5049,-66.31909 -38.5502,-97.69963 -40.4375,-97.28125 -1.5323,0.33972 -27.8619,41.06047 -58.5,90.5 l -55.6875,89.90625 -33.1562,0.5625 -33.1563,0.59375 48.9687,-80.96875 c 26.9253,-44.52506 62.1156,-102.75862 78.2188,-129.4375 16.1035,-26.67886 29.2485,-50.02217 29.1875,-51.84375 -0.061,-1.82155 -4.1366,-14.24724 -9.0313,-27.625 l -8.875,-24.3125 -31.1874,-0.59375 -31.1876,-0.59375 0,-28.5 0,-28.5 z"
     inkscape:path-effect="#path-effect6172"
     style="fill:none;stroke:#000000;stroke-width:4;stroke-miterlimit:4;stroke-opacity:1;stroke-dasharray:none"
     d="m 1731.5076,587.82396 c 0,0 6.0762,12.48343 11.0079,25.62668 4.9317,13.14325 8.7168,26.94632 4.2205,29.5856 -4.4962,2.63929 -9.4937,-10.75525 -14.6092,-24.40104 -5.1156,-13.64578 -10.3504,-27.54281 -15.2164,-25.90851 -4.8659,1.6343 0.2701,15.27632 5.3712,28.89079 5.1012,13.61447 10.1676,27.20138 5.2543,28.72546 -4.9132,1.52408 -9.9732,-12.05262 -15.0565,-25.62686 -5.0833,-13.57425 -10.1899,-27.14604 -15.0944,-25.61215 -4.9044,1.53389 0.199,15.10415 5.2722,28.65888 5.0733,13.55472 10.1165,27.0939 5.1832,28.56563 -2.4667,0.73587 -12.3131,-22.0886 -26.0319,-56.73923 -13.7188,-34.65063 -31.3467,-81.12742 -49.2567,-127.69619 -17.9099,-46.56877 -36.1022,-93.22953 -50.5523,-128.24809 -14.4501,-35.01856 -25.1219,-58.39493 -27.8626,-58.39493 -2.7407,0 5.1902,23.37549 18.3051,58.48397 13.1149,35.10849 31.3776,81.94998 49.425,128.88198 18.0474,46.932 35.8792,93.95452 48.5303,129.42508 12.6511,35.47055 20.157,59.38913 17.6857,60.11326 -2.4713,0.72412 -12.4458,-22.47033 -26.3595,-57.66933 -13.9137,-35.199 -31.8043,-82.40256 -49.9841,-129.69662 -18.1799,-47.29407 -36.6491,-94.67866 -51.3104,-130.23972 -14.6612,-35.56107 -25.4771,-59.29862 -28.2178,-59.29862 -2.7407,0 5.3349,23.73823 18.6613,59.39011 13.3263,35.65188 31.8661,83.21742 50.1822,130.87202 18.3162,47.65461 36.4084,95.39829 49.25,131.40646 12.8416,36.00817 20.4693,60.28084 17.9934,60.99342 -2.4759,0.71258 -12.5768,-22.8475 -26.6826,-58.58846 -14.1059,-35.74095 -32.2558,-83.66278 -50.7021,-131.67367 -18.4463,-48.0109 -37.1893,-96.11087 -52.0591,-132.20811 -14.8698,-36.09725 -25.8281,-60.19177 -28.5688,-60.19177 -2.7407,0 5.4857,24.1162 19.027,60.32089 13.5414,36.20468 32.3593,84.49785 50.9349,132.85177 18.5756,48.35392 36.9088,96.76859 49.9041,133.21629 12.9953,36.44771 20.691,60.92844 18.1307,61.41448 -2.5603,0.48604 -10.3732,-16.90175 -20.8486,-43.06943 -10.4753,-26.16768 -23.6343,-61.11525 -36.8112,-95.7488 -13.1769,-34.63354 -26.3711,-68.95306 -36.689,-93.86462 -10.3179,-24.91156 -17.7368,-40.41517 -19.3108,-37.4169 -3.1478,5.99655 3.8702,24.0527 10.7671,41.90284 6.8969,17.85013 13.6735,35.49425 10.1767,40.66671 -3.4968,5.17247 -10.2783,-12.51502 -17.0544,-30.0843 -6.7762,-17.56928 -13.5462,-35.02036 -16.8394,-29.37505 -3.2931,5.6453 3.4695,23.11163 10.1639,40.50216 6.6944,17.39053 13.3207,34.70525 9.8815,40.04732 -3.4392,5.34207 -10.0551,-11.97724 -16.6905,-29.24654 -6.6354,-17.26931 -13.2899,-34.4886 -16.6312,-28.94652 -3.3414,5.54209 3.3011,22.76328 9.8926,39.95114 6.5916,17.18787 13.1323,34.34241 9.711,39.75122 -3.4214,5.40881 -9.9504,-11.7469 -16.5043,-28.86882 -6.554,-17.12192 -13.1327,-34.21005 -16.4815,-28.66607 -3.3488,5.54398 3.2176,22.63264 9.7381,39.69982 6.5205,17.06719 12.9954,34.1129 9.5849,39.57099 -3.4104,5.45809 -9.873,-11.58766 -16.3641,-28.61012 -6.4911,-17.02247 -13.0106,-34.02165 -16.3648,-28.47045 -3.3541,5.5512 3.1535,22.5522 9.6187,39.53935 6.4653,16.98715 12.888,33.96045 9.4839,39.45623 -3.4041,5.49578 -9.8146,-11.47752 -16.2561,-28.43509 -6.4416,-16.95756 -12.9142,-33.89939 -16.2737,-28.34064 -3.3594,5.55874 3.1007,22.50058 9.5187,39.42869 6.418,16.92811 12.7939,33.84251 9.3848,39.34637 -3.4091,5.50386 -9.7727,-11.41053 -16.1672,-28.3093 -6.3945,-16.89876 -12.8198,-33.78189 -16.1845,-28.21551 -3.3647,5.56639 3.0481,22.44952 9.4192,39.31904 6.371,16.86951 12.7003,33.72542 9.2862,39.23734 -3.414,5.51193 -9.731,-11.34396 -16.0788,-28.18434 -6.3477,-16.84038 -12.7261,-33.66524 -16.0961,-28.09125 -3.37,5.574 2.9959,22.39886 9.3203,39.21023 6.3244,16.81137 12.6075,33.60925 9.1884,39.12928 -3.4191,5.52003 -9.6899,-11.27781 -15.9911,-28.06032 -6.3013,-16.78252 -12.6331,-33.54971 -16.0086,-27.96837 -3.3755,5.58133 3.3607,23.45769 9.6377,40.21158 6.2769,16.7539 12.0987,32.38533 7.0238,33.47681 -5.0749,1.09148 -10.8968,-14.53996 -16.3276,-29.04684 -5.4309,-14.50687 -10.4654,-27.88919 -13.846,-22.29946 -3.3806,5.58973 1.5481,18.72227 5.9436,30.48049 4.3955,11.75822 8.261,22.14211 2.814,22.23452 -5.447,0.0924 -9.3143,-10.29148 -12.6797,-19.29893 -3.3655,-9.00745 -6.2248,-16.63846 -9.6105,-11.04028 -6.7714,11.19636 11.3972,30.52681 0.507,30.72183 -10.8903,0.19501 -7.2783,-19.52548 -14.06,-8.31215 -6.7817,11.21334 -2.2754,8.60467 -2.2754,8.60467 M 1493.8412,285.25 c 0,0 7.1482,14.55599 12.8876,29.0857 5.7394,14.52971 10.0703,29.03313 4.5475,28.92798 -5.5228,-0.10514 -11.2242,-14.60856 -16.943,-29.0857 -5.7188,-14.47713 -11.455,-28.92798 -16.9364,-28.92798 -5.4814,0 0.2547,14.45085 5.9528,28.87541 5.6981,14.42457 11.3583,28.82284 5.8356,28.7177 -5.5228,-0.10514 -12.1832,-17.04003 -17.8631,-31.41203 -5.6799,-14.37199 -10.3662,-26.18108 -11.8269,-16.03462 -2.9214,20.29293 18.6444,47.23637 7.5989,47.02608 -11.0455,-0.21028 -9.063,-9.10286 -9.063,-9.10286"
     id="path6170"
     inkscape:connector-curvature="0" />
  <path
     id="path6227"
     style="fill:none;stroke:#000000;stroke-width:3.32631588;stroke-linecap:butt;stroke-linejoin:miter;stroke-miterlimit:4;stroke-opacity:1;stroke-dashoffset:0"
     d="m 1858.9056,479.5967 c -0.2376,161.51694 -131.2457,292.37852 -292.8182,292.37852 -161.7192,0 -292.8186,-131.09932 -292.8186,-292.81854 0,-161.71921 131.0994,-292.81854 292.8186,-292.81854 161.5725,0 292.5806,130.86159 292.8182,292.37852 l 59.305,2.7e-4 c -0.2374,-194.27032 -157.7974,-351.68381 -352.1233,-351.68381 -194.4725,0 -352.1235,157.65108 -352.1235,352.12354 0,194.47248 157.651,352.12356 352.1235,352.12356 194.3259,0 351.8859,-157.41349 352.1233,-351.68384 z"
     inkscape:connector-curvature="0"
     sodipodi:nodetypes="csssccssscc" />
  <path
     sodipodi:nodetypes="csssccssscc"
     inkscape:connector-curvature="0"
     d="m 1587.1302,127.6515 c 0,0 -34.6888,-2.39651 -77.9515,4.64991 -43.2627,7.04642 108.9302,-2.17916 134.236,3.49552 25.3059,5.67469 -171.2081,3.42505 -190.5521,9.99294 -19.3439,6.56789 214.5829,-4.29273 231.0588,1.55857 16.4759,5.85129 -249.8744,4.99876 -264.0164,11.46253 -14.1419,6.46378 280.2105,-5.6056 293.0924,0.31758 12.8819,5.92317 -307.0639,6.1428 -318.5242,12.5529 -11.4602,6.41011 331.2929,-6.62747 342.055,-0.66191 10.7621,5.96555 -353.436,7.07043 -363.1648,13.44587 -9.7289,6.37544 373.8685,-7.47915 383.172,-1.48445 9.3034,5.9947 -164.9457,3.2997 -135.5226,8.8919 29.4231,5.59219 144.7913,-2.8965 153,3.12007 8.2088,6.01657 -126.1002,2.5226 -109.6743,8.37477 16.4258,5.85217 117.8605,-2.35775 125.1999,3.67619 7.3394,6.03393 -109.1419,2.18335 -96.7961,8.1171 12.3458,5.93376 104.1199,-2.08286 110.7411,3.96542 6.6212,6.04827 -98.5265,1.97097 -88.4309,7.94972 10.0956,5.97875 95.0408,-1.90123 101.0508,4.15924 6.01,6.06047 -91.0191,1.8208 -82.4267,7.82959 8.5923,6.00878 88.4282,-1.76895 93.906,4.30214 5.4777,6.07109 -85.3503,1.70738 -77.8697,7.73838 7.4807,6.031 83.3408,-1.66716 88.3465,4.41334 5.0057,6.0805 -80.8891,1.61813 -74.2847,7.66663 6.6043,6.0485 79.2852,-1.58603 83.8657,4.50295 4.5806,6.08897 -77.2772,1.54587 -71.3949,7.60878 5.8823,6.06292 75.9713,-1.51972 80.1642,4.57698 4.1929,6.0967 -74.2932,1.48616 -69.0254,7.56134 5.2678,6.07518 73.2149,-1.46457 77.0504,4.63924 3.8355,6.10382 -71.791,1.43611 -67.0594,7.52198 4.7316,6.08588 70.8921,-1.4181 74.3952,4.69234 3.503,6.11044 -69.67,1.39367 -65.4158,7.48906 4.2542,6.0954 68.9165,-1.37858 72.1077,4.73807 3.1911,6.11665 -67.8585,1.35743 -64.0363,7.46143 3.8223,6.10401 67.2255,-1.34474 70.1221,4.77777 2.8966,6.12251 -66.3038,1.32632 -62.8777,7.43822 3.4261,6.1119 65.7726,-1.31568 68.3892,4.8124 2.6165,6.12809 -64.9663,1.29956 -61.9078,7.41879 3.0585,6.11922 64.5229,-1.29068 66.8717,4.84273 2.3487,6.13341 -63.8158,1.27654 -61.1017,7.40262 2.7141,6.12608 63.4492,-1.26919 65.5407,4.86934 2.0915,6.13852 -62.8287,1.25679 -60.4402,7.38935 2.3886,6.13256 62.5306,-1.25081 64.3737,4.89266 1.843,6.14346 -61.9869,1.23994 -59.9084,7.37867 2.0785,6.13874 61.7505,-1.23519 63.3527,4.91306 1.6022,6.14825 -61.2756,1.22571 -59.4944,7.37036 1.7812,6.14465 61.0958,-1.22209 62.4635,4.93082 1.3677,6.15291 -60.6834,1.21386 -59.189,7.36421 1.4944,6.15036 60.5561,-1.21129 61.6947,4.94617 1.1387,6.15746 -60.2013,1.20421 -58.9851,7.3601 1.2163,6.15589 60.1233,-1.20262 61.0374,4.9593 0.9142,6.16192 -59.8219,1.19661 -58.8769,7.3579 0.945,6.16128 59.7906,-1.19597 60.484,4.97033 0.6935,6.16631 -59.5396,1.19097 -58.8602,7.35753 0.6794,6.16657 59.5533,-1.19121 60.0291,4.97942 0.4758,6.17063 -59.3502,1.18716 -58.932,7.35892 0.4182,6.17177 59.4075,-1.18829 59.6681,4.98661 0.2605,6.17491 -59.2502,1.18516 -59.0899,7.36205 0.1603,6.1769 59.3738,1.90243 59.3738,1.90243 M 1514.2127,190.91896 c 0,0 -150.5339,-0.079 -159.0111,6.27136 -8.4771,6.35036 139.961,-2.79986 119.8345,3.78353 -20.1266,6.5834 -128.284,2.56628 -135.7918,8.89722 -7.5077,6.33094 116.4457,-2.32943 102.6818,4.12664 -13.764,6.45607 -110.1709,2.20393 -116.8918,8.51909 -6.7209,6.31516 103.335,-2.06715 92.4928,4.33045 -10.8421,6.39759 -99.2005,1.98445 -105.2606,8.28637 -6.0601,6.30191 94.5074,-1.89055 85.472,4.47087 -9.0354,6.36142 -91.5223,1.83084 -97.013,8.12134 -5.4908,6.29049 88.0251,-1.76087 80.269,4.57493 -7.7561,6.33579 -85.7523,1.71541 -90.7421,7.99585 -4.9899,6.28044 83.0148,-1.66063 76.2394,4.65552 -6.7755,6.31614 -81.2235,1.6248 -85.7654,7.89625 -4.542,6.27145 79.0089,-1.58048 73.0256,4.71979 -5.9834,6.30026 -77.5629,1.55157 -81.6989,7.81487 -4.1359,6.26329 75.7288,-1.51487 70.4099,4.77208 -5.3189,6.28695 -74.5421,1.49114 -78.3056,7.74695 -3.7636,6.25582 72.9964,-1.4602 68.2507,4.81525 -4.7457,6.27545 -72.0112,1.4405 -75.4298,7.68939 -3.4187,6.24888 70.6914,-1.41409 66.4513,4.85122 -4.24,6.2653 -69.8674,1.39761 -72.9638,7.64002 -3.0965,6.24241 68.7294,-1.37483 64.9434,4.88136 -3.786,6.25619 -68.0377,1.361 -70.8308,7.59731 -2.7932,6.23631 67.0492,-1.34121 63.6769,4.90667 -3.3723,6.24788 -66.4683,1.3296 -68.9741,7.56013 -2.5058,6.23053 65.6054,-1.31232 62.6148,4.92789 -2.9907,6.24022 -65.1191,1.30261 -67.351,7.52763 -2.2319,6.22502 64.3632,-1.28747 61.7285,4.9456 -2.6348,6.23306 -63.9591,1.2794 -65.9286,7.49914 -1.9696,6.21974 63.2962,-1.26613 60.9962,4.96021 -2.2999,6.22634 -62.9646,1.2595 -64.6815,7.47416 -1.7169,6.21465 62.3836,-1.24786 60.4012,4.97209 -1.9824,6.21995 -62.1172,1.24254 -63.5898,7.45228 -1.4725,6.20974 61.609,-1.23236 59.9299,4.9815 -1.6791,6.21385 -61.4016,1.22822 -62.6371,7.43318 -1.2354,6.20497 60.9593,-1.21935 59.5717,4.98864 -1.3876,6.208 -60.8064,1.21631 -61.8108,7.41662 -1.0043,6.20031 60.4243,-1.20865 59.3184,4.99368 -1.1059,6.20233 -60.3221,1.20662 -61.1006,7.40238 -0.7784,6.19576 59.9956,-1.20007 59.1634,4.99675 -0.8322,6.19682 -59.9413,1.199 -60.4982,7.39029 -0.5569,6.1913 59.6667,-1.19348 59.1016,4.99797 -0.5651,6.19145 -59.6581,1.19332 -59.9971,7.38023 -0.339,6.18691 59.4326,-1.1888 59.1293,4.99738 -0.3032,6.18618 -59.468,1.18952 -59.592,7.3721 -0.1241,6.18257 59.2892,-1.18592 59.2435,4.99507 -0.046,6.181 -59.3675,1.1875 -59.2788,7.36579 0.089,6.17829 59.233,-1.18479 59.4433,4.99106 0.2104,6.17584 -59.3548,1.18724 -59.0524,7.36122 0.3023,6.17399 59.2624,-1.18537 59.7313,4.98527 0.4688,6.17065 -59.4292,1.18872 -58.9113,7.35837 0.518,6.16964 59.3796,-1.18771 60.1104,4.97766 0.7308,6.16537 -59.5927,1.19199 -58.8566,7.35723 0.7362,6.16525 59.5867,-1.19184 60.5841,4.96817 0.9973,6.16001 -59.8484,1.19709 -58.8908,7.35788 0.9575,6.16079 59.8873,-1.19785 61.1571,4.95668 1.2698,6.15453 -60.2001,1.20412 -59.0173,7.36037 1.1828,6.15625 60.2861,-1.20582 61.8355,4.94308 1.5495,6.14891 -60.6533,1.21319 -59.2405,7.36481 1.4128,6.15162 60.7888,-1.21587 62.6269,4.92723 1.8381,6.1431 -61.2148,1.22441 -59.5664,7.37128 1.6484,6.14688 61.403,-1.22815 63.5406,4.90893 2.1376,6.13708 -61.8931,1.23797 -60.0025,7.37998 1.8906,6.142 62.1383,-1.24286 64.5887,4.88794 2.4504,6.13079 -62.6992,1.25408 -60.5586,7.39106 2.1406,6.13697 63.0068,-1.26022 65.786,4.86396 2.7792,6.12419 -63.6466,1.27303 -61.2469,7.40479 2.3997,6.13176 64.0234,-1.28054 67.1511,4.83664 3.1277,6.11719 -64.7528,1.29515 -62.0832,7.42148 2.6697,6.12634 65.2076,-1.30422 68.7078,4.80549 3.5002,6.1097 -66.0399,1.32088 -63.0876,7.44153 2.9522,6.12065 66.5837,-1.33174 70.4863,4.76988 3.9025,6.10163 -67.5361,1.35081 -64.2863,7.46547 3.2499,6.11467 68.1836,-1.36373 72.5259,4.72907 4.3424,6.09281 -69.2784,1.38565 -65.7131,7.49397 3.5653,6.10833 70.0487,-1.40103 74.8785,4.68199 4.8298,6.08303 -71.3162,1.4264 -67.414,7.52796 3.9021,6.10156 72.2349,-1.44475 77.6141,4.62725 5.3792,6.07201 -73.7156,1.47438 -69.4509,7.56866 4.2648,6.09427 74.8181,-1.49641 80.8297,4.56291 6.0116,6.05933 -76.5693,1.53145 -71.9104,7.61782 4.6588,6.08636 77.905,-1.55815 84.6638,4.48621 6.7587,6.04435 -80.0104,1.60026 -74.9184,7.67793 5.092,6.07767 81.6519,-1.63307 89.3243,4.39298 7.6723,6.02605 -84.2392,1.68483 -78.6649,7.75283 5.5744,6.06799 86.2968,-1.72598 95.1403,4.27662 8.8435,6.00261 -89.5749,1.79155 -83.455,7.8486 6.1198,6.05706 92.2262,-1.84455 102.6784,4.12585 10.4522,5.9704 -96.5706,1.93144 -89.8218,7.97589 6.7489,6.04445 100.119,-2.00238 113.0451,3.91849 12.9262,5.92088 -106.3129,2.12629 -98.8212,8.15585 7.4917,6.02956 111.2695,-2.2254 128.9548,3.60028 17.6854,5.82567 -121.4875,2.42977 -113.0907,8.44119 8.3968,6.01143 125.3027,-2.50605 164.2137,2.89508 38.9111,5.40114 -155.855,3.11711 -146.3078,9.1055 9.5472,5.98839 385.7646,-7.71528 375.7518,-1.33569 -10.0129,6.3796 -366.27,7.32538 -355.1691,13.28268 11.1009,5.9573 345.2464,-6.90489 333.3716,-0.48808 -11.8748,6.4168 -322.4021,6.44799 -308.9922,12.35907 13.41,5.91108 297.3211,-5.94635 282.4731,0.52988 -14.8479,6.47623 -269.4148,5.38824 -251.9115,11.21742 17.5034,5.82918 237.7737,-4.75539 216.7235,1.84484 -21.0501,6.60024 -201.2375,4.02469 -172.0502,9.62017 29.1874,5.59548 132.646,0.43675 132.646,0.43675 M 1913.317,479.59641 c 0,0 -54.3671,-2.00256 -54.4627,4.17942 -0.096,6.18197 59.3803,-1.18774 59.2146,4.99563 -0.1658,6.18337 -59.3098,1.18633 -59.6637,7.37345 -0.354,6.18712 59.4982,-1.19009 59.117,4.99756 -0.3812,6.18765 -59.4704,1.18954 -60.0871,7.38188 -0.6167,6.19234 59.7063,-1.19424 59.1066,4.99775 -0.5998,6.19198 -59.7225,1.19458 -60.6075,7.39225 -0.8849,6.19768 60.0082,-1.20028 59.1861,4.99613 -0.8221,6.1964 -60.0701,1.20153 -61.2302,7.40467 -1.16,6.20315 60.4088,-1.20828 59.3598,4.99263 -1.0489,6.20091 -60.5187,1.2105 -61.9622,7.41928 -1.4435,6.20879 60.9141,-1.21838 59.633,4.98714 -1.2811,6.20552 -61.0751,1.22162 -62.8122,7.43624 -1.7371,6.21463 61.532,-1.23073 60.0125,4.97953 -1.5195,6.21026 -61.7479,1.23507 -63.7908,7.45578 -2.0429,6.22071 62.2723,-1.24554 60.5071,4.9696 -1.7653,6.21515 -62.5479,1.25107 -64.9114,7.47816 -2.3634,6.22709 63.1473,-1.26304 61.1277,4.95716 -2.0196,6.22021 -63.4887,1.26988 -66.1906,7.50371 -2.702,6.23383 64.1724,-1.28353 61.8883,4.94193 -2.284,6.22546 -64.5873,1.29184 -67.6496,7.53285 -3.0623,6.24101 65.3672,-1.30742 62.8069,4.92353 -2.5603,6.23095 -65.8655,1.3174 -69.3151,7.56612 -3.4495,6.24872 66.7567,-1.33521 63.9063,4.90152 -2.8504,6.23672 -67.3512,1.34711 -71.2214,7.60421 -3.8703,6.25711 68.3732,-1.36753 65.2162,4.87529 -3.157,6.24283 -69.0806,1.3817 -73.4137,7.64803 -4.3332,6.26633 70.2594,-1.40525 66.7762,4.84406 -3.4832,6.24932 -71.1017,1.42212 -75.952,7.69876 -4.8502,6.27664 72.4721,-1.4495 68.6392,4.80678 -3.8329,6.25628 -73.4792,1.46966 -78.918,7.75804 -5.4388,6.28838 75.089,-1.50184 70.878,4.76198 -4.2111,6.26381 -76.3026,1.52611 -82.4268,7.82817 -6.1243,6.30206 78.2205,-1.56446 73.5962,4.70759 -4.6243,6.27205 -79.7,1.59406 -86.6468,7.91254 -6.9467,6.31848 82.0286,-1.64062 76.9473,4.64054 -5.0812,6.28115 -83.8625,1.67731 -91.8363,8.01629 -7.9738,6.33899 86.7629,-1.73529 81.1692,4.55608 -5.5937,6.29137 -89.09,1.78183 -98.4207,8.14794 -9.3307,6.3661 92.8373,-1.85678 86.6589,4.44626 -6.1785,6.30303 -95.8873,1.91779 -107.1734,8.32296 -11.2861,6.40517 101.009,-2.02021 94.149,4.29642 -6.8599,6.31664 -105.1813,2.10366 -119.7529,8.57451 -14.5717,6.47085 112.913,-2.25828 105.2367,4.07465 -7.6762,6.33293 -118.6722,2.37348 -141.2136,9.00369 -22.5413,6.6302 133.5674,-2.67136 124.8776,3.6818 -8.6897,6.35316 -174.7106,6.58391 -174.7106,6.58391"
     style="fill:none;stroke:#000000;stroke-width:3.32631588;stroke-linecap:butt;stroke-linejoin:miter;stroke-miterlimit:4;stroke-opacity:1;stroke-dashoffset:0"
     id="path6253"
     inkscape:path-effect="#path-effect6255"
     inkscape:original-d="m 1858.9056,479.5967 c -0.2376,161.51694 -131.2457,292.37852 -292.8182,292.37852 -161.7192,0 -292.8186,-131.09932 -292.8186,-292.81854 0,-161.71921 131.0994,-292.81854 292.8186,-292.81854 161.5725,0 292.5806,130.86159 292.8182,292.37852 l 59.305,2.7e-4 c -0.2374,-194.27032 -157.7974,-351.68381 -352.1233,-351.68381 -194.4725,0 -352.1235,157.65108 -352.1235,352.12354 0,194.47248 157.651,352.12356 352.1235,352.12356 194.3259,0 351.8859,-157.41349 352.1233,-351.68384 z" />
</svg>
