<?xml version="1.0" encoding="UTF-8" standalone="no"?>
<!-- Generator: Adobe Illustrator 15.0.1, SVG Export Plug-In . SVG Version: 6.00 Build 0)  -->

<svg
   xmlns:dc="http://purl.org/dc/elements/1.1/"
   xmlns:cc="http://creativecommons.org/ns#"
   xmlns:rdf="http://www.w3.org/1999/02/22-rdf-syntax-ns#"
   xmlns:svg="http://www.w3.org/2000/svg"
   xmlns="http://www.w3.org/2000/svg"
   xmlns:sodipodi="http://sodipodi.sourceforge.net/DTD/sodipodi-0.dtd"
   xmlns:inkscape="http://www.inkscape.org/namespaces/inkscape"
   version="1.1"
   id="State_Border_Lines_x5F_line"
   x="0px"
   y="0px"
   width="3200"
   height="800"
   viewBox="0 0 3200 800"
   enable-background="new 0 0 800 600"
   xml:space="preserve"
   inkscape:version="0.48.0 r9654"
   sodipodi:docname="State Border Lines.svgz"><metadata
   id="metadata5167"><rdf:RDF><cc:Work
       rdf:about=""><dc:format>image/svg+xml</dc:format><dc:type
         rdf:resource="http://purl.org/dc/dcmitype/StillImage" /></cc:Work></rdf:RDF></metadata><defs
   id="defs5165">
	
		
	
	
	
	
	
	
	

	
	
	
		
	
	
	
		
	
	
	
		
	
	

	
	
	
	
	
	
	
	

	
	
	
		
	
	
	
		

	
	
	
	
	
		
	
	
	
	

	
	
	
	
	
	
</defs><sodipodi:namedview
   pagecolor="#ffffff"
   bordercolor="#666666"
   borderopacity="1"
   objecttolerance="10"
   gridtolerance="10"
   guidetolerance="10"
   inkscape:pageopacity="0"
   inkscape:pageshadow="2"
   inkscape:window-width="2560"
   inkscape:window-height="1538"
   id="namedview5163"
   showgrid="false"
   inkscape:zoom="0.73952369"
   inkscape:cx="1600"
   inkscape:cy="400"
   inkscape:window-x="-8"
   inkscape:window-y="-8"
   inkscape:window-maximized="1"
   inkscape:current-layer="g5217"
   showguides="true"
   inkscape:guide-bbox="true"><sodipodi:guide
     orientation="1,0"
     position="1600,0"
     id="guide5268" /><sodipodi:guide
     orientation="0,1"
     position="0,400"
     id="guide5270" /></sodipodi:namedview>






<g
   id="g5217"
   transform="matrix(1.6037113,0,0,1.6037113,958.84155,-292.50541)"
   style="stroke-width:0.62355363;stroke-miterlimit:10;stroke-dasharray:none"><line
     stroke-miterlimit="10"
     x1="732.47198"
     y1="374.33401"
     x2="733.297"
     y2="364.78"
     id="line5055"
     style="fill:none;stroke:#000000;stroke-width:0.62355363;stroke-linecap:round;stroke-linejoin:round;stroke-miterlimit:10;stroke-dasharray:none" /><polyline
     stroke-miterlimit="10"
     points="   741.242,368.908 739.651,367.695 739.086,364.628 733.297,364.78 709.909,364.208  "
     id="polyline5057"
     style="fill:none;stroke:#000000;stroke-width:0.62355363;stroke-linecap:round;stroke-linejoin:round;stroke-miterlimit:10;stroke-dasharray:none" /><polyline
     stroke-miterlimit="10"
     points="   712.984,354.525 724.159,354.788 740.289,355.199 743.932,352.943 746.896,352.764  "
     id="polyline5059"
     style="fill:none;stroke:#000000;stroke-width:0.62355363;stroke-linecap:round;stroke-linejoin:round;stroke-miterlimit:10;stroke-dasharray:none" /><polyline
     stroke-miterlimit="10"
     points="   748.467,350.152 744.56,345.713 743.178,318.942  "
     id="polyline5061"
     style="fill:none;stroke:#000000;stroke-width:0.62355363;stroke-linecap:round;stroke-linejoin:round;stroke-miterlimit:10;stroke-dasharray:none" /><polyline
     stroke-miterlimit="10"
     points="   737.387,323 735.597,326.66 736.922,328.907 736.357,330.087 730.04,332.634 730.06,335.981 725.247,343.009 724.362,350.893    722.805,352.841 724.159,354.788  "
     id="polyline5063"
     style="fill:none;stroke:#000000;stroke-width:0.62355363;stroke-linecap:round;stroke-linejoin:round;stroke-miterlimit:10;stroke-dasharray:none" /><polyline
     stroke-miterlimit="10"
     points="   711.887,323.043 711.237,328.497 712.575,331.001 710.583,336.467 711.795,340.27 710.677,342.815 712.408,342.263    713.307,343.593 712.984,354.525 709.909,364.208 709.033,374.695 709.979,375.846 706.583,377.404 707.563,379  "
     id="polyline5065"
     style="fill:none;stroke:#000000;stroke-width:0.62355363;stroke-linecap:round;stroke-linejoin:round;stroke-miterlimit:10;stroke-dasharray:none" /><polyline
     stroke-miterlimit="10"
     points="   681.65,399.701 681.259,397.8 683.214,395.478 692.782,390.672 688.146,386.903 686.134,383.102 688.251,380.679 687.177,378.909    693.182,373.838  "
     id="polyline5067"
     style="fill:none;stroke:#000000;stroke-width:0.62355363;stroke-linecap:round;stroke-linejoin:round;stroke-miterlimit:10;stroke-dasharray:none" /><polyline
     stroke-miterlimit="10"
     points="   702.04,384.354 704.281,378.844 693.182,373.838 689.186,372.121 687.957,367.505 685.343,366.798 683.971,364.912 622.986,364.93    622.977,361.164  "
     id="polyline5069"
     style="fill:none;stroke:#000000;stroke-width:0.62355363;stroke-linecap:round;stroke-linejoin:round;stroke-miterlimit:10;stroke-dasharray:none" /><polyline
     stroke-miterlimit="10"
     points="   612.483,365.231 612.495,383.849 612.5,384 612.5,396.5 627,396.5 626.94,396.61 644.965,396.957 678.042,396.591 680.11,395.099    683.214,395.478  "
     id="polyline5073"
     style="fill:none;stroke:#000000;stroke-width:0.62355363;stroke-linecap:round;stroke-linejoin:round;stroke-miterlimit:10;stroke-dasharray:none" /><polyline
     stroke-miterlimit="10"
     points="   678.042,396.591 679.363,414.143 688.294,414.257  "
     id="polyline5075"
     style="fill:none;stroke:#000000;stroke-width:0.62355363;stroke-linecap:round;stroke-linejoin:round;stroke-miterlimit:10;stroke-dasharray:none" /><line
     stroke-miterlimit="10"
     x1="685.61298"
     y1="420.17099"
     x2="678.68799"
     y2="421.298"
     id="line5077"
     style="fill:none;stroke:#000000;stroke-width:0.62355363;stroke-linecap:round;stroke-linejoin:round;stroke-miterlimit:10;stroke-dasharray:none" /><polyline
     stroke-miterlimit="10"
     points="   661.057,415.922 660.677,414.97 657.587,415.914 656.785,414.519 657.847,412.294 660.674,410.553 660.696,408.427    654.046,404.947 654.896,403.473 653.407,402.378 651.295,402.17 650.652,399.759 648.943,398.918 649.728,398.271    644.965,396.957 641.415,397.986 640.831,399.458 637.848,399.048 636.659,397.659 634.152,400.511 632.087,400.041    626.998,403.827 626.94,396.61  "
     id="polyline5079"
     style="fill:none;stroke:#000000;stroke-width:0.62355363;stroke-linecap:round;stroke-linejoin:round;stroke-miterlimit:10;stroke-dasharray:none" /><polyline
     stroke-miterlimit="10"
     points="   612.495,383.849 610.432,384.632 611.375,388.316 607.493,398.011 602.826,401.254 600.692,401.891 599.516,400.954    597.938,402.923 596.284,402.947 594.562,405.539 595.271,407.703 593.39,408.394 591.484,406.295 588.912,409.619    589.474,412.216 588.005,412.454 587.448,414.351 583.761,414.693  "
     id="polyline5081"
     style="fill:none;stroke:#000000;stroke-width:0.62355363;stroke-linecap:round;stroke-linejoin:round;stroke-miterlimit:10;stroke-dasharray:none" /><line
     stroke-miterlimit="10"
     x1="552.909"
     y1="405.186"
     x2="553.09601"
     y2="369.15399"
     id="line5083"
     style="fill:none;stroke:#000000;stroke-width:0.62355363;stroke-linecap:round;stroke-linejoin:round;stroke-miterlimit:10;stroke-dasharray:none" /><polyline
     stroke-miterlimit="10"
     points="   571.83,368.643 553.096,369.154 553.099,368.263 525.142,368.258  "
     id="polyline5085"
     style="fill:none;stroke:#000000;stroke-width:0.62355363;stroke-linecap:round;stroke-linejoin:round;stroke-miterlimit:10;stroke-dasharray:none" /><polyline
     stroke-miterlimit="10"
     points="   514.516,321.904 512.499,320.837 513.586,318.104 510.387,318.283 511.854,313.736 507.044,311.981 507.412,310.417    479.454,304.651 478.154,302.387 475.338,301.469  "
     id="polyline5087"
     style="fill:none;stroke:#000000;stroke-width:0.62355363;stroke-linecap:round;stroke-linejoin:round;stroke-miterlimit:10;stroke-dasharray:none" /><line
     stroke-miterlimit="10"
     x1="472.259"
     y1="357.867"
     x2="511.577"
     y2="358.09399"
     id="line5089"
     style="fill:none;stroke:#000000;stroke-width:0.62355363;stroke-linecap:round;stroke-linejoin:round;stroke-miterlimit:10;stroke-dasharray:none" /><polyline
     stroke-miterlimit="10"
     points="   515.441,368.988 515.341,401.818 513.59,404.781 515.612,407.301 515.836,410.275 511.023,416.701 509.022,416.996    510.087,418.314 508.271,419.928 508.656,422.076 507.5,421.908 508.466,423.366  "
     id="polyline5091"
     style="fill:none;stroke:#000000;stroke-width:0.62355363;stroke-linecap:round;stroke-linejoin:round;stroke-miterlimit:10;stroke-dasharray:none" /><polyline
     stroke-miterlimit="10"
     points="   492.476,434.229 495.803,431.305 502.499,433.461 502.253,429.104 507.965,427.744 506.636,425.358 508.466,423.366    510.146,423.249 510.329,421.573 514.201,422.9 514.557,420.906 521.069,423.595 525.288,420.593 527.778,422.743 529.529,421.561    530.159,418.898 532.084,418.636 536.036,421.136 537.641,420.17 538.93,416.719 540.948,416.458 544.557,413.172 544.389,410.429    548.021,410.996 552.987,409.651 553.396,408.323 552.099,407.864 551.842,405.925 552.909,405.186 557.965,404.978    561.324,409.355 566.031,409.957 568.899,411.828 570.911,410.783 574.054,412.263 579.595,410.036 580.319,412.379    583.761,414.693 583.054,418.26 585.552,420.789 585.038,421.502 587.771,425.069 592.428,426.994 592.979,429.461    596.448,431.674 600.785,429.778 602.727,431.207 607.242,430.082 607.79,428.497 609.03,429.293 612.613,427.771 613.259,428.544    615.545,427.4 616.638,425.737 615.596,424.847 622.617,416.822 624.557,412.325 629.63,414.738 633.545,408.793 635.36,409.938    641.81,404.311 642.593,400.156 649.784,404.797 651.295,402.17  "
     id="polyline5093"
     style="fill:none;stroke:#000000;stroke-width:0.62355363;stroke-linecap:round;stroke-linejoin:round;stroke-miterlimit:10;stroke-dasharray:none" /><polyline
     stroke-miterlimit="10"
     points="   676.968,440.712 596.46,440.209 568.778,440.036 507.88,438.968 508.121,441.486 489.22,441.462  "
     id="polyline5097"
     style="fill:none;stroke:#000000;stroke-width:0.62355363;stroke-linecap:round;stroke-linejoin:round;stroke-miterlimit:10;stroke-dasharray:none" /><polyline
     stroke-miterlimit="10"
     points="477,462.5    506,462.5 506.089,462.388 542.043,462.535 559.825,462.481 576.637,462.308 586.552,459.319 605.392,460.244 605.278,461.692    606.754,460.819 608.873,463.208 608.659,464.822 624.209,465.029 639.904,478.308  "
     id="polyline5099"
     style="fill:none;stroke:#000000;stroke-width:0.62355363;stroke-linecap:round;stroke-linejoin:round;stroke-miterlimit:10;stroke-dasharray:none" /><polyline
     stroke-miterlimit="10"
     points="   599.849,522.065 592.706,520.424 591.374,521.818 591.497,526.772 589.768,526.978 589.034,524.031 552.314,522.045    550.405,518.018 514.425,518.066 513.927,519.898 517.086,522.556 516.491,524.792 517.634,525.909 515.542,528.055  "
     id="polyline5101"
     style="fill:none;stroke:#000000;stroke-width:0.62355363;stroke-linecap:round;stroke-linejoin:round;stroke-miterlimit:10;stroke-dasharray:none" /><polyline
     stroke-miterlimit="10"
     points="   503.391,526.629 502.31,505.58 507.505,463.826 506.089,462.388  "
     id="polyline5103"
     style="fill:none;stroke:#000000;stroke-width:0.62355363;stroke-linecap:round;stroke-linejoin:round;stroke-miterlimit:10;stroke-dasharray:none" /><polyline
     stroke-miterlimit="10"
     points="   542.043,462.535 547.879,492.102 550.947,498.188 550.337,499.523 551.975,500.454 549.588,502.229 548.487,506.083    549.864,510.469 548.946,515.416 550.405,518.018  "
     id="polyline5105"
     style="fill:none;stroke:#000000;stroke-width:0.62355363;stroke-linecap:round;stroke-linejoin:round;stroke-miterlimit:10;stroke-dasharray:none" /><polyline
     stroke-miterlimit="10"
     points="   607.118,503.434 604.238,502.451 603.27,497.621 600.06,495.324 599.047,490.043 595.437,488.096 592.837,485.361 592.979,483.678    584.317,477.022 579.85,469.622 577.661,469.51 573.395,466.732 576.637,462.308  "
     id="polyline5107"
     style="fill:none;stroke:#000000;stroke-width:0.62355363;stroke-linecap:round;stroke-linejoin:round;stroke-miterlimit:10;stroke-dasharray:none" /><polyline
     stroke-miterlimit="10"
     points="   559.825,462.481 560.263,459.181 563.641,458.502 563.961,456.591 565.945,455.099 571.234,454.482 578.361,451.487 579.24,449.41    583.164,447.48 584.264,449.039 587.071,446.787 591.506,446.718 594.002,443.701 596.046,443.73 596.46,440.209  "
     id="polyline5109"
     style="fill:none;stroke:#000000;stroke-width:0.62355363;stroke-linecap:round;stroke-linejoin:round;stroke-miterlimit:10;stroke-dasharray:none" /><polyline
     stroke-miterlimit="10"
     points="   568.778,440.036 576.252,438.059 577.129,436.503 579.805,436.023 581.984,432.808 592.428,426.994  "
     id="polyline5111"
     style="fill:none;stroke:#000000;stroke-width:0.62355363;stroke-linecap:round;stroke-linejoin:round;stroke-miterlimit:10;stroke-dasharray:none" /><polyline
     stroke-miterlimit="10"
     points="   453.212,299.519 449.389,300.051 449.352,308.302 443.545,310.849 441.386,313.26 441.184,315.234 444.46,317.067 442.872,319.243    442.234,326.686 445.835,329.238 448.819,329.45 453.838,332.046 455.156,334.342 461.289,337.175 463.898,340.262    464.266,344.073 464.42,346.131 466.48,347.481 464.796,350.094 466.381,354.488 471.313,356.092 472.259,357.867 475.69,361.776    478.892,363.338 478.617,367.618 474.745,371.562 466.649,373.084 465.719,375.505 468.025,377.497 467.948,379.48    465.569,383.443 461.724,384.969 461.476,387.489 460.21,390.997 462.184,396.511 471.029,403.102 472.481,408.21 474.897,407.109    479.627,408.838 476.042,415.841 476.241,417.6 482.184,421.131 481.999,422.32 483.325,421.893 487.876,424.889 489.163,429.032    487.818,430.491 489.714,433.891 492.476,434.229 492.797,439.133 491.726,440.518 489.958,439.695 489.22,441.462    488.266,441.982 488.339,440.477 487.148,440.555 487.942,443.187 486.409,443.912 487.595,444.889 485.255,445.02    486.806,446.401 484.845,448.399 486.068,449.739 481.754,452.118 483.205,453.152 480.724,454.609 480.531,456.857    478.808,458.428 480.242,460.412 476.864,462.389 477.762,463.197 476.938,464.409 474.777,463.833 474.859,465.992    473.561,465.329 474.727,466.768 472.996,466.91 473.274,470.337 471.986,471.861 470.521,471.236 469.402,474.069    467.928,474.324 469.068,475.189 467.698,476.783 466.075,476.596 467.415,479.36 465.262,480.724 464.137,480.666    465.484,481.772 464.096,482.36 464.036,484.064 465.2,484.904 465.763,486.752 466.679,486.311 466.032,488.252 464.499,488.435    465.616,489.354 464.994,490.121 464.426,491.374 465.818,490.331 466.413,491.481 465.004,493.642 466.541,494.045    465.214,495.565 467.098,495.184 466.183,496.56 465.707,497.414 467.459,497.91 467.384,499.173 469.019,498.902 467.356,501.421    465.12,503.065 466.245,503.871 463.765,506.708 462.507,506.294 462.229,507.624 461.742,509.391 460.056,510.762    460.813,512.808 459.284,512.409 460.111,514.199 458.226,514.502 459.531,517.231 458.471,518.042 484.86,517.966    483.206,522.752 487.742,529.421  "
     id="polyline5115"
     style="fill:none;stroke:#000000;stroke-width:0.62355363;stroke-linecap:round;stroke-linejoin:round;stroke-miterlimit:10;stroke-dasharray:none" /><polyline
     stroke-miterlimit="10"
     points="   418.993,481.297 419.742,456.784 417.163,441.46 417.16,434.519 417.521,404.507 414.2,403.658 413.462,401.239 410.294,398.957    412.363,396.366 413.767,396.326 412.867,394.336 410.092,394.503 406.138,392.751 405.252,389.376 402.762,388.429    402.832,385.267 401.261,384.612 399.555,382.512 400.655,380.328 400.212,376.41 399.019,376.031 399.75,374.573 398.614,374.038    399.119,372.564 396.709,371.345 397.118,367.789 393.246,362.683 391.87,358.132 392.001,358.357 389.152,354.716    391.966,349.406 389.906,347.402 390.789,345.885 389.716,344.5 392,344.5 391.5,344 391.5,319.09 385.984,314.802    389.878,311.818 390.093,310.199 390.211,310.237 389.708,304.75 386.96,300.579 387.579,296.492 386.385,295.35 386.226,287.14    382.133,279.576 381.733,273.755 382.917,272.051 380.99,267.652  "
     id="polyline5117"
     style="fill:none;stroke:#000000;stroke-width:0.62355363;stroke-linecap:round;stroke-linejoin:round;stroke-miterlimit:10;stroke-dasharray:none" /><line
     stroke-miterlimit="10"
     x1="391.737"
     y1="344.07599"
     x2="464.26599"
     y2="344.073"
     id="line5119"
     style="fill:none;stroke:#000000;stroke-width:0.62355363;stroke-linecap:round;stroke-linejoin:round;stroke-miterlimit:10;stroke-dasharray:none" /><polyline
     stroke-miterlimit="10"
     points="   461.476,387.489 457.185,384.216 402.832,385.267 401.261,384.612  "
     id="polyline5121"
     style="fill:none;stroke:#000000;stroke-width:0.62355363;stroke-linecap:round;stroke-linejoin:round;stroke-miterlimit:10;stroke-dasharray:none" /><polyline
     stroke-miterlimit="10"
     points="   417.163,441.46 479.034,441.478 480.261,444.19 475.912,448.468 484.845,448.399  "
     id="polyline5123"
     style="fill:none;stroke:#000000;stroke-width:0.62355363;stroke-linecap:round;stroke-linejoin:round;stroke-miterlimit:10;stroke-dasharray:none" /><line
     stroke-miterlimit="10"
     x1="464.99399"
     y1="490.121"
     x2="425.13101"
     y2="489.91199"
     id="line5125"
     style="fill:none;stroke:#000000;stroke-width:0.62355363;stroke-linecap:round;stroke-linejoin:round;stroke-miterlimit:10;stroke-dasharray:none" /><polyline
     stroke-miterlimit="10"
     points="   427.969,536.271 426.756,534.548 429.893,531.128 429.326,524.45 432.543,517.598 432.216,515.517 430.104,513.833 429.73,510.902    428.014,509.87 428.185,507.261 425.136,504.189 425.131,489.912 425.124,482.488 420.376,482.59 418.993,481.297 408.83,476.789    407.782,478.028 403.617,477.066 401.171,478.429 397.987,478.012 393.255,480.616 389.293,478.406 387.46,478.698    384.412,476.862 382.251,480.172 381.234,477.423 378.248,478.77 374.856,476.372 372.596,478.236 370.748,477.891 371.05,476.389    369.098,476.194 368.785,474.107 365.236,474.068 363.562,475.381 361.991,474.019 353.819,473.269 351.336,469.869 350.9,471.037    346.815,470.985 342.583,468.448 342.585,441.454 300.991,441.441  "
     id="polyline5129"
     style="fill:none;stroke:#000000;stroke-width:0.62355363;stroke-linecap:round;stroke-linejoin:round;stroke-miterlimit:10;stroke-dasharray:none" /><polyline
     stroke-miterlimit="10"
     points="   300.995,434.487 300.991,441.441 300.125,504.096 250.876,504.091 250.635,505.96 252.122,507.107  "
     id="polyline5131"
     style="fill:none;stroke:#000000;stroke-width:0.62355363;stroke-linecap:round;stroke-linejoin:round;stroke-miterlimit:10;stroke-dasharray:none" /><polyline
     stroke-miterlimit="10"
     points="   217.181,513.391 217.266,434.491 217.212,378.819  "
     id="polyline5133"
     style="fill:none;stroke:#000000;stroke-width:0.62355363;stroke-linecap:round;stroke-linejoin:round;stroke-miterlimit:10;stroke-dasharray:none" /><polyline
     stroke-miterlimit="10"
     points="   286.44,378.818 286.447,351.02 286.388,323.264 286.561,310.092 286.524,267.66  "
     id="polyline5135"
     style="fill:none;stroke:#000000;stroke-width:0.62355363;stroke-linecap:round;stroke-linejoin:round;stroke-miterlimit:10;stroke-dasharray:none" /><line
     stroke-miterlimit="10"
     x1="286.561"
     y1="310.09201"
     x2="390.211"
     y2="310.237"
     id="line5137"
     style="fill:none;stroke:#000000;stroke-width:0.62355363;stroke-linecap:round;stroke-linejoin:round;stroke-miterlimit:10;stroke-dasharray:none" /><polyline
     stroke-miterlimit="10"
     points="   391.87,358.132 380.691,353.041 372.682,352.856 369.821,354.312 363.4,351.054 286.447,351.02  "
     id="polyline5139"
     style="fill:none;stroke:#000000;stroke-width:0.62355363;stroke-linecap:round;stroke-linejoin:round;stroke-miterlimit:10;stroke-dasharray:none" /><polyline
     stroke-miterlimit="10"
     points="   286.388,323.264 189.451,323.197 189.534,330.524 189.555,364.896 189.551,378.853 217.212,378.819 217,378.5 286,378.5    286.44,378.818 314.173,378.808 314.169,392.707 314.296,434.586  "
     id="polyline5141"
     style="fill:none;stroke:#000000;stroke-width:0.62355363;stroke-linecap:round;stroke-linejoin:round;stroke-miterlimit:10;stroke-dasharray:none" /><polyline
     stroke-miterlimit="10"
     points="   314.169,392.707 406.138,392.751 407.597,393.397  "
     id="polyline5143"
     style="fill:none;stroke:#000000;stroke-width:0.62355363;stroke-linecap:round;stroke-linejoin:round;stroke-miterlimit:10;stroke-dasharray:none" /><polyline
     stroke-miterlimit="10"
     points="   417.16,434.519 314.296,434.586 300.995,434.487 217.266,434.491 147.914,434.46  "
     id="polyline5145"
     style="fill:none;stroke:#000000;stroke-width:0.62355363;stroke-linecap:round;stroke-linejoin:round;stroke-miterlimit:10;stroke-dasharray:none" /><polyline
     stroke-miterlimit="10"
     points="   139.833,462.273 104.746,434.857 65.477,406.622 65.522,364.966  "
     id="polyline5149"
     style="fill:none;stroke:#000000;stroke-width:0.62355363;stroke-linecap:round;stroke-linejoin:round;stroke-miterlimit:10;stroke-dasharray:none" /><polyline
     stroke-miterlimit="10"
     points="   7.164,364.901 65.522,364.966 106.712,364.897 148.061,364.997 189.555,364.896  "
     id="polyline5151"
     style="fill:none;stroke:#000000;stroke-width:0.62355363;stroke-linecap:round;stroke-linejoin:round;stroke-miterlimit:10;stroke-dasharray:none" /><polyline
     stroke-miterlimit="10"
     points="   148.061,364.997 147.914,434.46 147.961,445.683 146.557,447.993 142.992,446.332 138.141,447.169 140.718,459.749    139.833,462.273 143.244,469.85 146.783,472.568 142.774,474.785 141.181,477.135 141.329,482.46 138.544,484.523 138.465,485.938    138.789,488.882 141.558,489.877 142.098,492.307 138.624,494.066  "
     id="polyline5153"
     style="fill:none;stroke:#000000;stroke-width:0.62355363;stroke-linecap:round;stroke-linejoin:round;stroke-miterlimit:10;stroke-dasharray:none" /><polyline
     stroke-miterlimit="10"
     points="   9.805,306.088 15.443,305.5 25.312,308.016 27.25,314.043 33.746,315.621 40.449,313.354 47.013,313.381 49.15,314.747    56.767,312.807 59.989,313.441 79.665,309.245 108.448,309.265  "
     id="polyline5155"
     style="fill:none;stroke:#000000;stroke-width:0.62355363;stroke-linecap:round;stroke-linejoin:round;stroke-miterlimit:10;stroke-dasharray:none" /><polyline
     stroke-miterlimit="10"
     points="   106.677,267.638 106.236,304.402 108.186,306.969 107.346,308.059 108.265,309.364 110.112,311.729 113.36,312.743 114.53,314.821    109.202,322.883 109.075,324.854 106.231,326.989 103.729,331.583 104.345,333.289 108.543,334.761 106.642,339.414    106.712,364.897  "
     id="polyline5157"
     style="fill:none;stroke:#000000;stroke-width:0.62355363;stroke-linecap:round;stroke-linejoin:round;stroke-miterlimit:10;stroke-dasharray:none" /><polyline
     stroke-miterlimit="10"
     points="   189.534,330.524 184.88,326.616 183.058,328.166 183.731,329.622 172.358,329.22 171,330.888 165.536,330.369 164.509,332.105    162.456,330.842 160.688,326.366 156.21,325.084 156.249,322.385 153.022,319.683 151.336,314.839 149.575,313.575    144.042,316.822 140.834,315.454 141.797,313.431 140.817,312.451 143.282,310.944 141.359,307.282 142.512,306.957    144.208,300.288 138.042,299.625 130.383,291.847 124.295,289.535 126.108,288.748 124.347,287.793 125.295,287.15    124.809,285.754 120.292,281.836 120.295,267.618  "
     id="polyline5159"
     style="fill:none;stroke:#000000;stroke-width:0.62355363;stroke-linecap:round;stroke-linejoin:round;stroke-miterlimit:10;stroke-dasharray:none" /><polygon
     id="polygon5161"
     points="470.447,286.999 452.119,298.403 453.212,299.519 456.332,299.683 469.232,295.967 470.738,296.934 468.083,301.176 470.783,300.017 475.338,301.469 484.046,297.971 489.266,297.612 495.636,295.287 505.802,289.181 511.554,288.901 512.819,289.907 509.492,290.062 505.674,292.664 502.698,295.875 502.464,298.406 506.667,295.927 510.208,296.649 513.949,298.032 518.019,302.424 522.837,301.98 524.758,303.352 527.056,301.542 528.483,302.794 534.329,300.031 551.072,298.64 549.917,302.574 555.501,302.599 555.992,303.582 562.461,301.96 562.035,306.638 566.976,309.513 569.262,307.885 571.558,309.531 570.325,310.565 566.955,310.131 559.015,310.286 555.006,308.629 553.728,311.124 550.424,309.304 543.166,308.06 541.099,309.813 532.924,310.065 527.998,314.685 526.604,313.779 528.768,310.715 525.699,311.302 523.162,313.927 522.231,311.595 514.516,321.904 513.897,323.559 511.041,324.223 508.26,329.254 509.596,329.771 512.221,328.104 514.218,325.501 517.052,324.519 519.38,320.906 523.117,319.369 516.17,329.541 515.563,334.505 513.737,335.672 512.504,338.775 512.963,341.471 510.069,347.663 512.194,354.096 511.577,358.094 511.265,361.287 515.441,368.988 519.078,370.211 525.142,368.258 528.272,366.067 533.419,356.71 533.301,350.714 529.064,342.303 530.58,339.631 529.408,336.33 532.834,332.33 533.006,327.522 535.301,326.83 535.657,324.498 539.246,323.901 542.79,320.291 541.381,325.581 542.104,326.47 543.1,326.733 545.004,323.962 545.207,319.534 551.56,317.762 549.307,316.707 548.8,315.123 551.168,313.379 550.198,312.662 553.734,311.527 571.669,318.601 574.502,322.875 571.8,322.881 574.348,327.238 573.491,332.428 570.693,333.625 570.109,336.448 565.941,337.734 565.485,341.65 568.908,342.778 574.483,337.472 578.678,336.176 581.628,337.166 583.197,339.464 586.247,351.338 584.82,356.285 583.576,357.296 583.19,355.554 580.841,355.881 579.587,359.507 576.778,360.89 576.263,363.7 571.83,368.643 578.523,371.552 580.434,370.623 585.412,373.516 591.807,371.658 595.593,372.034 601.883,368.225 612.483,365.231 622.977,361.164 635.562,354.029 632.497,349.929 632.551,347.362 641.948,345.784 650.7,346.285 653.571,347.73 664.229,346.673 672.059,343.437 670.964,339.104 673.282,338.082 671.182,337.64 670.029,335.551 684.686,325.49 691.336,322.978 711.887,323.043 737.387,323 738.215,319.873 743.178,318.942 745.005,318.477 746.317,320 747.142,317.258 749.407,317.853 748.202,316.025 754.606,310.803 754.148,306.632 757.409,303.51 758.26,299.595 769.563,289.044 771.556,289.624 771.334,291.812 773.408,292.906 782.664,290.46 788.796,294.455 789.358,310.417 788.428,313.531 793.529,314.793 793.982,316.188 792.781,316.382 793.955,317.929 792.981,319.254 795.023,321.421 797.56,320.92 799.993,324.398 800,325.917 797.138,328.11 795.319,328.71 795.502,327.242 794.126,328.839 792.15,328.44 792.721,330.208 791.627,330.863 791.129,329.767 788.003,329.639 787.922,331.246 785.794,331.328 785.245,332.481 784.174,330.405 782.316,330.293 781.771,330.982 783.512,332.507 781.525,333.945 780.099,333.265 781.006,331.519 779.847,330.362 779.521,331.813 778.101,331.48 778.662,333.907 774.472,332.749 774.604,330.621 772.025,331.083 772.698,332.567 770.029,337.308 768.468,338.258 765.954,337.558 765.123,339.34 763.702,339.039 760.507,341.252 759.945,340.155 757.611,340.722 757.972,339.021 755.508,340.285 755.479,343.136 753.283,343.565 753.567,344.764 750.55,346.501 748.467,350.152 746.896,352.764 747.734,355.361 750.039,355.996 746.396,357.254 744.493,359.225 744.686,360.633 747.603,361.345 749.39,363.744 748.542,365.066 750.73,365.894 750.725,367.452 752.365,368.425 757.91,367.831 756.402,364.78 754.825,364.005 756.896,364.436 759.166,369.403 758.255,371.23 758.032,369.456 748.901,371.647 749.551,368.892 748.293,368.541 743.835,371.905 742.69,371.883 742.532,369.616 741.242,368.908 740.748,369.867 739.941,368.719 738.154,369.235 737.705,373.801 732.472,374.334 717.759,375.064 707.563,379 705.407,381.207 709.942,379.549 721.773,379.063 726.09,377.542 729.038,378.992 715.5,383.555 703.649,385.154 702.04,384.354 699.257,385.855 703.116,386.591 701.415,396.107 691.83,406.746 689.455,407.578 690.5,404.345 687.04,404.125 681.65,399.701 680.778,400.18 683.392,403.107 684.592,407.598 687.706,409.394 688.294,414.257 685.613,420.171 681.775,423.41 677.896,431.694 675.525,432.839 674.916,429.843 677.625,423.447 679.483,422.296 678.688,421.298 676.574,421.508 677.36,418.65 675.896,418.996 676.383,417.116 673.048,417.317 670.507,413.946 671.104,411.797 673.01,411.571 671.691,410.309 670.403,411.233 670.924,409.057 672.436,409.05 671.909,407.434 669.916,408.883 670.104,407.465 670.784,406.15 671.651,406.652 671.257,404.494 672.552,402.167 675.147,400.636 674.726,399.006 667.766,404.021 669.648,406.479 667.396,410.215 670.653,420.059 666.852,417.554 661.057,415.922 661.932,417.634 666.651,418.48 671.84,422.096 670.491,424.938 671.254,425.894 669.156,425.966 671.643,428.354 671.306,430.177 669.424,429.531 669.804,432.092 671.372,433.281 668.466,435.649 675.103,435.492 676.968,440.712 681.473,451.527 678.904,448.352 677.113,442.461 675.645,442.241 677.959,447.402 675.173,445.938 665.472,448.726 678.156,449.272 678.857,453.589 674.192,457.165 666.396,457.187 668.67,458.611 666.298,462.354 668.71,461.236 670.493,462.689 674.647,461.467 667.726,468.15 667.033,467.012 663.285,466.631 653.887,470.226 649.675,474.154 648.012,478.588 645.177,477.438 639.904,478.308 634.283,481.391 628.593,490.064 626.017,489.816 625.607,491.457 619.838,495.487 613.224,497.185 613.441,499.58 610.312,500.032 610.444,501.102 607.118,503.434 607.767,504.513 603.239,508.172 604.05,509.266 602.206,510.496 603.41,510.827 602.278,514.408 599.045,518.295 600.285,518.605 599.849,522.065 602.545,535.615 606.422,543.968 611.755,551.645 611.77,558.124 619.302,576.594 617.593,592.33 617.237,591.204 616.301,591.681 615.506,596.268 613.765,598.262 609.944,599.693 604.621,600 603.5,598.552 604.154,596.385 601.061,590.238 598.586,589.07 596.351,589.801 593.826,582.433 590.572,580.945 589.46,578.131 590.748,578.4 591.126,574.403 588.354,577.671 581.676,566.263 583.055,566.322 585.946,562.692 583.823,562.384 581.809,565.178 580.216,561.581 582.774,553.531 583.188,547.505 580.764,543.692 577.42,543.456 568.729,533.1 564.285,530.608 560.66,530.516 559.353,531.14 559.488,533.391 557.188,533.131 552.023,535.813 545.664,536.769 546.248,534.633 544.938,532.896 533.395,527.143 527.155,526.45 515.542,528.055 512.262,528.441 508.685,522.331 506.983,527.636 503.391,526.629 501.982,527.522 497.168,526.189 487.742,529.421 485.018,531.645 483.479,531.527 483.358,532.652 486.516,533.742 488.333,530.858 489.852,531.198 489.006,532.083 489.912,533.195 491.634,531.999 490.547,533.983 489.694,534.91 489.133,536.174 488.287,537.195 486.085,536.484 485.527,538.217 487.973,540.522 492.364,541.053 495.008,543.407 492.879,545.903 490.998,545.179 490.029,544.828 488.138,542.822 483.273,541.523 483.326,539.268 480.538,539.852 480.984,542.763 477.794,544.701 476.222,541.836 475.272,543.113 474.248,541.9 469.678,545.016 467.929,543.428 463.213,542.279 462.455,541.457 464.307,539.952 459.658,538.685 459.599,537.071 458.121,537.091 458.517,535.547 455.1,535.974 455.08,534.27 451.427,536.182 452.008,537.183 457.551,537.943 456.469,539.19 451.998,537.799 444.411,537.729 436.385,535.057 427.969,536.271 415.003,541.392 418.456,538.356 414.935,538.529 416.168,536.169 415.51,534.948 413.294,536.706 412.238,536.291 411.635,538.138 413.126,538.98 413.417,541.75 414.547,541.984 406.553,547.775 398.139,551.568 394.853,551.78 394.995,550.116 391.252,552.444 392.524,553.71 389.224,555.429 387.27,554.195 387.141,556.531 383.758,558.457 381.549,562.293 380.378,561.489 378.75,562.391 380.636,564.057 378.57,569.147 378.281,570.107 376.452,576.045 380.182,586.318 382.035,587.023 382.11,588.344 378.255,589.93 374.967,587.187 367.605,586.924 359.109,582.563 355.285,582.155 352.718,575.959 350.256,573.404 349.29,565.799 344.812,563.108 343.528,560.102 338.529,555.942 333.236,544.509 327.894,539.508 325.195,538.648 325.257,537.202 324.494,537.846 323.152,535.153 313.846,534.927 310.5,533.637 309.515,535.267 305.606,535.501 302.622,541.059 302.856,542.737 299.413,546.09 297.06,546.191 280.008,536.961 277.696,532.957 277.371,528.69 274.342,523.534 267.83,520.131 252.122,507.107 252,507.5 228.844,507.5 228.842,513.576 217.12,513.686 217.181,513.391 189.124,513.389 137.32,497.192 138.624,494.066 105.292,496.62 104.723,494.744 103.604,494.785 102.664,488.869 100.099,485.575 91.331,479.66 87.477,479.824 85.975,475.828 81.987,476.211 77.532,474.815 71.273,470.467 59.189,470.069 56.636,468.409 56.639,460.52 53.365,459.206 53.268,456.389 47.662,453.021 44.648,448.365 39.109,444.092 38.122,440.243 40.274,439.02 39.637,435.353 35.644,434.77 32.157,431.707 30.789,424.403 32.243,423.221 32.775,426.206 36.224,427.33 33.17,423.34 33.436,421.948 31.822,421.065 34.042,419.567 31.006,418.948 31.71,422.162 30.633,423.569 25.713,420.216 23.576,420.603 24.265,416.856 13.871,407.762 12.184,395.132 5.049,389.119 4.411,386.591 8.486,378.713 7.85,376.809 9.184,372.313 7.951,368.644 6.544,367.889 7.164,364.901 5.22,363.466 4.099,360.368 4.511,356.127 2.249,353.255 8.07,338.068 10.965,313.952 10.214,310.014 11.052,308.278 9.805,306.088 9.237,300.364 10.938,302.488 10.675,300.433 12.342,299.345 8.813,299.031 8.322,297.096 12.059,295.961 8.511,294.791 8.258,296.699 4.246,285.098 0.814,281.935 0,279.263 1.02,276.962 9.84,279.088 19.422,279.941 22.145,279.04 23.715,280.348 27.396,279.5 26.941,280.458 28.273,280.081 28.726,282.469 30.59,282.753 31.324,284.999 30.275,285.407 31.763,286.24 34.68,281.151 32.395,278.401 31.251,279.03 32.894,280.742 30.749,279.658 30.5,278.024 32.583,277.303 30.18,275.308 28.512,275.583 28.412,274.42 30.143,274.755 31.23,275.001 30.087,273.384 31.881,273.102 31.007,271.063 28.548,271.325 26.475,268.417 27.362,267.571 106.677,267.638 120.295,267.618 286.524,267.66 380.99,267.652 409.736,267.677 409.741,262.325 412.454,262.522 414.411,263.206 416.147,270.745 418.277,271.798 427.869,272.818 428.7,274.391 440.26,272.793 444.626,274.01 443.55,275.118 447.101,275.797 448.301,278.487 449.686,278.101 449.788,276.619 452.657,276.56 453.998,278.312 459.526,280.045 459.42,280.941 468.86,278.135 470.715,280.285 479.227,279.99 482.525,281.713 487.203,281.641 "
     stroke-miterlimit="10"
     style="fill:none;stroke:#000000;stroke-width:0.62355363;stroke-linecap:round;stroke-linejoin:round;stroke-miterlimit:10;stroke-dasharray:none"
     transform="translate(0,0.40392484)" /></g>
</svg>