<?xml version="1.0" encoding="UTF-8" standalone="no"?>
<!-- Created with Inkscape (http://www.inkscape.org/) -->

<svg
   xmlns:dc="http://purl.org/dc/elements/1.1/"
   xmlns:cc="http://creativecommons.org/ns#"
   xmlns:rdf="http://www.w3.org/1999/02/22-rdf-syntax-ns#"
   xmlns:svg="http://www.w3.org/2000/svg"
   xmlns="http://www.w3.org/2000/svg"
   xmlns:sodipodi="http://sodipodi.sourceforge.net/DTD/sodipodi-0.dtd"
   xmlns:inkscape="http://www.inkscape.org/namespaces/inkscape"
   sodipodi:docname="pgh_mmf_robot_ping_pong_ball_eggbot.svg"
   inkscape:version="0.48.3.1 r9886"
   version="1.1"
   id="svg27345"
   height="1000"
   width="3200">
  <sodipodi:namedview
     id="base"
     pagecolor="#ffffff"
     bordercolor="#666666"
     borderopacity="1.0"
     inkscape:pageopacity="0.0"
     inkscape:pageshadow="2"
     inkscape:zoom="0.4046875"
     inkscape:cx="1491.2742"
     inkscape:cy="425.86872"
     inkscape:document-units="px"
     inkscape:current-layer="svg27345"
     showgrid="false"
     inkscape:window-width="1535"
     inkscape:window-height="876"
     inkscape:window-x="65"
     inkscape:window-y="24"
     inkscape:window-maximized="1"
     inkscape:snap-page="false" />
  <defs
     id="defs27347">
    <inkscape:perspective
       id="perspective27353"
       inkscape:persp3d-origin="372.04724 : 350.78739 : 1"
       inkscape:vp_z="744.09448 : 526.18109 : 1"
       inkscape:vp_y="0 : 1000 : 0"
       inkscape:vp_x="0 : 526.18109 : 1"
       sodipodi:type="inkscape:persp3d" />
  </defs>
  <metadata
     id="metadata27350">
    <rdf:RDF>
      <cc:Work
         rdf:about="">
        <dc:format>image/svg+xml</dc:format>
        <dc:type
           rdf:resource="http://purl.org/dc/dcmitype/StillImage" />
        <dc:title></dc:title>
      </cc:Work>
    </rdf:RDF>
  </metadata>
  <g
     transform="translate(0,-52.36218)"
     id="layer1"
     inkscape:groupmode="layer"
     inkscape:label="Layer 1" />
  <eggbot
     id="eggbot8241"
     node="0"
     layer="12345"
     serialport="/dev/ttyACM0" />
  <g
     transform="matrix(6.7573814,0,0,6.7607435,-2646.6368,-4491.0524)"
     id="g15605"
     style="stroke-width:0.52526361;stroke-miterlimit:4;stroke-dasharray:none">
    <g
       transform="translate(108.08632,191.92898)"
       id="g15511"
       style="stroke-width:0.52526361;stroke-miterlimit:4;stroke-dasharray:none">
      <path
         style="fill:none;stroke:#000000;stroke-width:0.44384855;stroke-miterlimit:4;stroke-dasharray:none"
         d="m 422.59671,533.13305 c -3.95051,-3.76878 -8.84031,-11.19777 -4,-16 5.35478,-0.4124 4.17312,6.78764 3.1707,10.14652 -1.34514,4.45875 -3.74345,12.27238 -9.80107,10.5383 -4.48345,-1.89572 -2.3049,-8.52652 2.63037,-4.68482"
         id="path14852"
         inkscape:connector-curvature="0" />
      <path
         inkscape:connector-curvature="0"
         style="fill:none;stroke:#000000;stroke-width:0.44384855;stroke-miterlimit:4;stroke-dasharray:none"
         d="m 458.59671,525.13305 c 2.33333,0 4.66667,0 7,0"
         id="path14858" />
      <path
         inkscape:connector-curvature="0"
         style="fill:none;stroke:#000000;stroke-width:0.44384855;stroke-miterlimit:4;stroke-dasharray:none"
         d="m 467.59671,525.13305 c 2.33333,0 4.66667,0 7,0"
         id="path14860" />
      <path
         id="path14870"
         style="fill:none;stroke:#000000;stroke-width:0.44384855;stroke-miterlimit:4;stroke-dasharray:none"
         d="m 520.59671,536.13305 c 3.12602,-0.28588 6.20375,-6.58844 2,-7 -5.5586,1.25182 -2.9918,11.39797 2.63037,8.68482 2.23902,-0.69362 2.78507,-0.63491 4.68481,-2.05445 -2.62266,-5.29046 7.10417,-9.78635 8.68482,-3.63037 -1.57179,-6.17036 -11.26465,-1.65957 -8.68482,3.63037 1.57675,4.25782 8.10829,2.34216 8.13056,-1.96758 1.85142,-5.55426 3.70284,-11.10853 5.55426,-16.66279 l -4,12 c -0.3202,2.48395 -3.07693,9.88659 1.63037,8.68482 2.23902,-0.69362 3.10124,-2.94961 4.36963,-4.68482 m -69,3 c 3.12602,-0.28588 6.20375,-6.58844 2,-7 -5.5586,1.25182 -2.9918,11.39797 2.63037,8.68482 2.23902,-0.69362 3.10124,-2.94961 4.36963,-4.68482 1.15152,-4.67819 7.25574,-4.63859 4.31627,0.73492 -0.31129,1.45927 -0.86536,2.84645 -1.31627,4.26508 l 1,-3 c 1.14039,-3.05516 4.57099,-8.29373 8,-5 -0.44749,2.81716 -2.58989,10.52483 2.8911,7.05445 1.40201,-1.0252 2.4047,-0.0628 3.42408,-1.42408 -2.15838,-5.82118 6.67076,-9.38056 8.68482,-3.63037 -2.0453,-5.82312 -11.26465,-1.65957 -8.68482,3.63037 1.57675,4.25782 8.10829,2.34216 8.13056,-1.96758 1.85142,-5.55426 3.70284,-11.10853 5.55426,-16.66279 l -4,12 c -0.3202,2.48395 -3.07693,9.88659 1.63037,8.68482 2.23902,-0.69362 4.10124,0.0504 5.36963,-1.68482 m -70,-4 c -1.57179,-6.17036 -11.26465,-1.65957 -8.68482,3.63037 1.57675,4.25782 8.10829,2.34216 8.13056,-1.96758 2.5592,-7.79367 0.34221,-1.19341 0.55426,3.1563 2.08706,3.65495 5.99671,-1.89667 7,-3.81909 1.62131,-2.17298 2.84113,-4.55803 4,-7 l 3,-9 c -1.8324,6.69387 -5.20586,13.13765 -6,20 2.80928,3.30115 6.78039,-1.45432 8,-4 1.62131,-2.17298 2.84113,-4.55803 4,-7 l 3,-9 c -1.8324,6.69387 -5.20586,13.13765 -6,20 2.80928,3.30115 6.5177,0.28299 9,-1"
         inkscape:connector-curvature="0"
         sodipodi:nodetypes="ccccccccccccccccccccccccccccccccccccccccc" />
      <path
         inkscape:connector-curvature="0"
         style="fill:none;stroke:#000000;stroke-width:0.44384855;stroke-miterlimit:4;stroke-dasharray:none"
         d="m 574.59671,519.13305 c 2.64504,3.20938 -0.32959,8.09357 -1.31518,11.63037 -1.60386,2.85694 -4.41541,8.41106 -8.18317,6.87128 -1.36581,-4.42666 0.68564,-9.98041 2.88929,-14.08806 2.6713,-5.85269 11.68414,-8.96833 16.60906,-4.41359 4.01888,5.02661 -2.96707,12.02886 -8,8 -0.33333,-0.33333 -0.66667,-0.66667 -1,-1"
         id="path14874" />
      <path
         inkscape:connector-curvature="0"
         style="fill:none;stroke:#000000;stroke-width:0.44384855;stroke-miterlimit:4;stroke-dasharray:none"
         d="m 589.59671,524.13305 c -0.3081,3.17924 2.64272,-0.67318 0,0 z"
         id="path15430" />
      <path
         inkscape:connector-curvature="0"
         style="fill:none;stroke:#000000;stroke-width:0.44384855;stroke-miterlimit:4;stroke-dasharray:none"
         d="m 594.59671,525.13305 c 2.33333,0 4.66667,0 7,0"
         id="path14878" />
      <path
         inkscape:connector-curvature="0"
         style="fill:none;stroke:#000000;stroke-width:0.44384855;stroke-miterlimit:4;stroke-dasharray:none"
         d="m 603.59671,525.13305 c 2.33333,0 4.66667,0 7,0"
         id="path14880" />
      <path
         id="path14892"
         style="fill:none;stroke:#000000;stroke-width:0.44384855;stroke-miterlimit:4;stroke-dasharray:none"
         d="m 586.59671,533.13305 c 3.78263,-7.54422 -0.18855,0.26337 0,4 2.45033,3.21946 5.87089,-2.03924 7,-4 1.62131,-2.17298 2.84113,-4.55803 4,-7 l 3,-9 c -1.8324,6.69387 -5.20586,13.13765 -6,20 2.80928,3.30115 6.78039,-1.45432 8,-4 1.62131,-2.17298 2.84113,-4.55803 4,-7 l 3,-9 c -1.8324,6.69387 -5.20586,13.13765 -6,20 2.80928,3.30115 6.78039,-1.45432 8,-4 3.03769,-5.03277 2.44779,-5.31768 5,0 1.22671,1.82601 1.91837,4.50186 -1,5 l -5.69643,-1.625 c 8.23757,3.47271 10.93148,1.09713 12.69643,-3.375 2.77102,-4.70349 7.0194,-9.27157 7,-15 -3.67204,-2.80056 -4.83385,4.774 -5.19934,7.39538 -0.25143,4.03207 -2.15253,9.18267 0.19934,12.60462 4.35714,-0.15751 6.65856,-5.07705 6,-9 0.52871,3.77307 1.75968,6.89876 6,4 3.78263,-7.54422 -0.18855,0.26337 0,4 3.27253,3.52113 7.49579,-2.38132 9,-5 l 1,-3 c -1.10141,2.49183 -4.2316,10.84746 1.26073,8.36963 1.86221,-0.76359 2.57619,-2.89218 3.73927,-4.36963 3.09771,-5.19941 1.93308,-4.31019 6.49835,-2.50165 1.55717,2.08518 -2.83672,9.47601 2.76238,6.87128 1.86221,-0.76359 2.89137,-0.26181 4.05445,-1.73926 -2.56362,-5.25761 7.15189,-9.79191 8.68482,-3.63037 -1.57179,-6.17036 -11.26465,-1.65957 -8.68482,3.63037 1.085,3.38269 5.89684,2.86709 7.68482,0.36963 l 2,-7 c -1.86243,6.81278 -4.08926,13.56821 -7,20 -4.87288,3.12884 -3.00502,-5.88135 -0.007,-6.9934 3.63588,-3.52523 8.89773,-4.77382 12.0068,-9.0066 2.77122,-4.70349 7.0196,-9.27157 7.0002,-15 -3.68905,-2.80319 -4.79666,4.77976 -5.23173,7.39037 -0.77833,4.17668 -1.2373,8.39699 -1.76827,12.60963 1.14624,-3.67857 3.64118,-10.76608 8.49835,-8.50165 1.89201,2.11659 -3.26981,9.43373 2.13202,8.18647 2.23902,-0.69362 3.10124,-2.94961 4.36963,-4.68482"
         inkscape:connector-curvature="0"
         sodipodi:nodetypes="ccccccccccccccccccccccccccccccccccccccccc" />
    </g>
    <g
       transform="translate(108.08632,191.92898)"
       id="g15522"
       style="stroke-width:0.52526361;stroke-miterlimit:4;stroke-dasharray:none">
      <path
         inkscape:connector-curvature="0"
         style="fill:none;stroke:#000000;stroke-width:0.44384855;stroke-miterlimit:4;stroke-dasharray:none"
         d="m 437.99511,561.50869 c -0.3081,3.17924 2.64272,-0.67318 0,0 z"
         id="path15382" />
      <path
         inkscape:connector-curvature="0"
         style="fill:none;stroke:#000000;stroke-width:0.44384855;stroke-miterlimit:4;stroke-dasharray:none"
         d="m 462.99511,561.50869 c -0.3081,3.17924 2.64272,-0.67318 0,0 z"
         id="path15386" />
      <path
         id="path14902"
         style="fill:none;stroke:#000000;stroke-width:0.44384855;stroke-miterlimit:4;stroke-dasharray:none"
         d="m 406.99511,561.50869 c -4.97049,-0.6743 -2.80354,-8.62965 1.63037,-6.68482 4.8322,2.57706 0.96545,8.98959 0.51497,13.10347 -0.67685,2.53711 -1.43644,5.05277 -2.14534,7.58135 l 2,-7 c 2.40526,-4.66072 2.62273,-11.6953 8,-14 5.77914,0.11903 3.79809,7.09019 2.82907,10.68373 -0.81356,3.47398 -1.86277,6.88317 -2.82907,10.31627 l 2,-7 c 2.40526,-4.66072 2.62273,-11.6953 8,-14 5.76365,0.11488 3.82937,7.09857 2.80638,10.67766 -0.376,3.03672 -4.09285,8.86651 -0.10161,10.32234 2.69856,-0.43812 3.9307,-2.93175 5.29523,-5 3.78263,-7.54422 -0.18855,0.26337 0,4 2.45033,3.21946 5.87089,-2.03924 7,-4 1.15152,-4.67819 7.25574,-4.63859 4.31627,0.73492 -0.31129,1.45927 -0.86536,2.84645 -1.31627,4.26508 l 1,-3 c 1.14039,-3.05516 4.57099,-8.29373 8,-5 -0.44749,2.81716 -2.58989,10.52483 2.8911,7.05445 1.40201,-1.0252 2.08952,-2.69319 3.1089,-4.05445 3.78263,-7.54422 -0.18855,0.26337 0,4 2.45033,3.21946 5.87089,-2.03924 7,-4"
         inkscape:connector-curvature="0"
         sodipodi:nodetypes="ccccccccccccccccccccccc" />
      <path
         id="path14914"
         style="fill:none;stroke:#000000;stroke-width:0.44384855;stroke-miterlimit:4;stroke-dasharray:none"
         d="m 487.99511,561.50869 c -4.97049,-0.6743 -2.80354,-8.62965 1.63037,-6.68482 4.8322,2.57706 0.96545,8.98959 0.51497,13.10347 -0.67685,2.53711 -1.43644,5.05277 -2.14534,7.58135 l 2,-7 c 2.40526,-4.66072 2.62273,-11.6953 8,-14 5.77914,0.11903 3.79809,7.09019 2.82907,10.68373 -0.81356,3.47398 -1.86277,6.88317 -2.82907,10.31627 l 2,-7 c 2.40526,-4.66072 2.62273,-11.6953 8,-14 5.76365,0.11488 3.82937,7.09857 2.80638,10.67766 -0.376,3.03672 -4.09285,8.86651 -0.10161,10.32234 2.69856,-0.43812 4.24588,-0.30138 5.61041,-2.36963 -2.57967,-5.23021 7.06799,-9.82928 8.68482,-3.63037 -1.57179,-6.17036 -11.26465,-1.65957 -8.68482,3.63037 1.57675,4.25782 8.10829,2.34216 8.13056,-1.96758 2.5592,-7.79367 0.34221,-1.19341 0.55426,3.1563 2.08706,3.65495 5.99671,-1.89667 7,-3.81909 2.77102,-4.70349 7.0194,-9.27157 7,-15 -3.68905,-2.80319 -4.79666,4.77976 -5.23173,7.39037 -0.77833,4.17668 -1.2373,8.39699 -1.76827,12.60963 1.14624,-3.67857 3.64118,-10.76608 8.49835,-8.50165 2.43699,3.04642 -2.29552,3.9299 -4.49835,3.50165 3.1641,0.94153 2.66717,5.95676 7.49835,3.94808 0,0 2.63355,0.18255 3.50165,-0.94808 3.12602,-0.28588 6.20375,-6.58844 2,-7 -5.5586,1.25182 -2.9918,11.39797 2.63037,8.68482 2.23902,-0.69362 3.10124,-2.94961 4.36963,-4.68482 3.09771,-5.19941 1.93308,-4.31019 6.49835,-2.50165 1.55717,2.08518 -2.83672,9.47601 2.76238,6.87128 1.86221,-0.76359 2.57619,-2.89218 3.73927,-4.36963"
         inkscape:connector-curvature="0"
         sodipodi:nodetypes="ccccccccccccccccccccccccccccccc" />
      <path
         inkscape:connector-curvature="0"
         style="fill:none;stroke:#000000;stroke-width:0.44384855;stroke-miterlimit:4;stroke-dasharray:none"
         d="m 594.99511,560.50869 c -4.76737,1.44757 -6.84439,-5.89359 -1.32558,-5.89147 4.14027,-1.03302 8.49017,2.6891 12.32558,-0.10853"
         id="path15494" />
      <path
         inkscape:connector-curvature="0"
         style="fill:none;stroke:#000000;stroke-width:0.44384855;stroke-miterlimit:4;stroke-dasharray:none"
         d="m 600.99511,555.50869 c -2.39144,6.51058 -2.78294,14.861 -8.63037,19.31518 -3.28495,2.8486 -8.82379,-2.30895 -5.36963,-5.31518 1.51096,-0.22478 2.72419,0.2087 4,1"
         id="path15492" />
      <path
         inkscape:connector-curvature="0"
         style="fill:none;stroke:#000000;stroke-width:0.44384855;stroke-miterlimit:4;stroke-dasharray:none"
         d="m 593.99511,564.50869 c 3,0 6,0 9,0"
         id="path14918" />
      <path
         inkscape:connector-curvature="0"
         style="fill:none;stroke:#000000;stroke-width:0.44384855;stroke-miterlimit:4;stroke-dasharray:none"
         d="m 623.99511,561.50869 c -0.3081,3.17924 2.64272,-0.67318 0,0 z"
         id="path15498" />
      <path
         id="path14926"
         style="fill:none;stroke:#000000;stroke-width:0.44384855;stroke-miterlimit:4;stroke-dasharray:none"
         d="m 613.99511,569.50869 c -1.57179,-6.17036 -11.26465,-1.65957 -8.68482,3.63037 1.57675,4.25782 8.10829,2.34216 8.13056,-1.96758 2.5592,-7.79367 0.34221,-1.19341 0.55426,3.1563 2.08706,3.65495 5.99671,-1.89667 7,-3.81909 3.78263,-7.54422 -0.18855,0.26337 0,4 2.45033,3.21946 5.87089,-2.03924 7,-4 3.09771,-5.19941 1.93308,-4.31019 6.49835,-2.50165 1.55717,2.08518 -2.83672,9.47601 2.76238,6.87128 1.86221,-0.76359 3.57619,0.10782 4.73927,-1.36963 3.12602,-0.28588 6.20375,-6.58844 2,-7 -5.5586,1.25182 -2.9918,11.39797 2.63037,8.68482 2.23902,-0.69362 3.10124,-2.94961 4.36963,-4.68482"
         inkscape:connector-curvature="0"
         sodipodi:nodetypes="ccccccccccccc" />
      <path
         style="fill:none;stroke:#000000;stroke-width:0.44384855;stroke-miterlimit:4;stroke-dasharray:none"
         d="m 673.99511,558.50869 c 1.19312,4.83589 -3.19365,-2.45056 1.66861,-3.22287 3.61034,-2.07707 11.20785,-0.49733 9.01621,4.85324 -3.7426,7.06699 -14.56601,6.76533 -16.68482,15.36963 m 13,-21 c 5.53588,1.72905 2.32887,8.67058 -1.75922,10.17281 -1.41359,0.9424 -2.82719,1.88479 -4.24078,2.82719 m -6,6 c 3.4819,-3.36724 8.25961,3.46427 12.26073,0.36963 1.14973,-0.19888 1.151,-1.60011 1.73927,-2.36963 m -11,1 c 2.78478,2.02592 7.69129,5.0549 10.22287,1.33139 0.25904,-0.77713 0.51809,-1.55426 0.77713,-2.33139"
         id="path14930"
         inkscape:connector-curvature="0" />
      <path
         style="fill:none;stroke:#000000;stroke-width:0.44384855;stroke-miterlimit:4;stroke-dasharray:none"
         d="m 699.9951,554.50869 c -6.92419,1.65128 -9.45391,10.40125 -8.77713,16.66861 0.78301,6.26216 9.60154,5.03399 11.559,0.15858 2.66985,-4.48855 5.12386,-11.41279 1.21813,-15.82719 -1.26558,-0.81388 -2.48693,-1.23974 -4,-1 z m 0,0 c -6.26066,3.0089 -9.20083,11.57643 -7.33139,18.00582 0.18051,1.36766 1.53646,2.00404 2.33139,2.99418 m 2,0 c 6.26066,-3.0089 9.20083,-11.57643 7.33139,-18.00582 -0.18051,-1.36766 -1.53646,-2.00404 -2.33139,-2.99418"
         id="path14932"
         inkscape:connector-curvature="0" />
      <path
         style="fill:none;stroke:#000000;stroke-width:0.44384855;stroke-miterlimit:4;stroke-dasharray:none"
         d="m 720.9951,558.50869 c -1.66667,5.66667 -3.33333,11.33333 -5,17 m 7,-21 c -2,7 -4,14 -6,21 m 6,-21 c -2.24058,2.52993 -4.89094,4.63758 -8,6 m 7,-3 c -2.27258,1.17109 -4.51239,2.34562 -7,3"
         id="path14934"
         inkscape:connector-curvature="0" />
      <path
         style="fill:none;stroke:#000000;stroke-width:0.44384855;stroke-miterlimit:4;stroke-dasharray:none"
         d="m 736.9951,558.50869 c 1.19312,4.83589 -3.19365,-2.45056 1.66861,-3.22287 3.61034,-2.07707 11.20785,-0.49733 9.01621,4.85324 -0.99892,2.58677 -4.2575,3.59345 -6.68482,4.36963 m 3,-10 c 4.69711,1.34956 3.26349,6.8673 0,9 m -5,1 c 5.11872,-1.16173 9.23633,4.77726 6,9 -3.48932,3.40585 -12.72849,3.05777 -13,-3 0.77434,-2.19436 3.19313,0.22707 1,1 m 8,-7 c 5.41223,1.40368 5.41588,9.58857 0,11"
         id="path14936"
         inkscape:connector-curvature="0" />
    </g>
  </g>
  <g
     id="g16444"
     style="stroke-width:3;stroke-miterlimit:4;stroke-dasharray:none"
     transform="translate(-235.84167,-7.0270506)">
    <path
       style="fill:none;stroke:#eb1f28;stroke-width:3;stroke-linecap:round;stroke-linejoin:round;stroke-miterlimit:4;stroke-opacity:1;stroke-dasharray:none"
       d="m 456.70067,524.02525 c 4.62592,82.61003 62.87668,150.86365 140.48026,170.55744 l 0,-18.51831 c -13.05809,-12.28567 -21.22881,-29.7156 -21.22881,-49.05464 0,-37.18023 30.14948,-67.30839 67.31268,-67.30839 37.1617,0 67.2749,30.12816 67.2749,67.30839 0,17.78347 -6.9146,33.95268 -18.1691,45.99345 l 0,20.82365 c 75.8815,-20.61489 132.5399,-87.88378 137.3828,-169.12133 l -0.1888,0 -145.5797,0 0,1.73846 c 0,9.27276 -7.8388,16.77986 -17.527,16.77986 l -41.6645,0 c -9.6882,0 -17.5647,-7.5071 -17.5647,-16.77986 l 0,-1.73846 -146.82621,0 c -1.30787,0 -2.55096,-0.24187 -3.70182,-0.68026 z"
       id="path6596"
       inkscape:connector-curvature="0" />
    <path
       inkscape:connector-curvature="0"
       style="fill:none;stroke:#eb1f28;stroke-width:3;stroke-linecap:round;stroke-linejoin:round;stroke-miterlimit:4;stroke-opacity:1;stroke-dasharray:none"
       d="m 643.2648,326.44619 c -100.40242,0 -182.31643,79.22966 -186.67751,178.60724 1.18156,-0.46561 2.46478,-0.71806 3.8152,-0.71806 l 146.82621,0 0,-4.5351 c 0,-9.27276 7.8765,-16.77986 17.5647,-16.77986 l 41.6645,0 c 9.6882,0 17.527,7.5071 17.527,16.77986 l 0,4.5351 145.5797,0 c 0.1076,0 0.1964,-0.002 0.3022,0 -4.7218,-99.0435 -86.4398,-177.88918 -186.602,-177.88918 z"
       id="path6600" />
    <path
       id="path6604"
       style="fill:none;stroke:#eb1f28;stroke-width:3;stroke-linecap:butt;stroke-linejoin:miter;stroke-miterlimit:4;stroke-opacity:1;stroke-dasharray:none"
       d="m 643.2537,320.39418 c 34.9361,0 67.624,9.60231 95.5946,26.30054 1.3765,-6.53659 2.1123,-13.30749 2.1123,-20.25374 0,-53.98882 -43.7449,-97.75553 -97.7069,-97.75553 -53.96197,0 -97.70691,43.76671 -97.70691,97.75553 0,6.94625 0.73432,13.71715 2.1123,20.25374 27.96921,-16.69823 60.65851,-26.30054 95.59461,-26.30054 z"
       inkscape:connector-curvature="0" />
    <path
       id="path6606"
       style="fill:none;stroke:#100f0d;stroke-width:3;stroke-linecap:butt;stroke-linejoin:miter;stroke-miterlimit:4;stroke-opacity:1;stroke-dasharray:none"
       d="m 607.2418,298.72851 c 0,13.63553 -11.04951,24.69058 -24.67826,24.69058 -13.63031,0 -24.67981,-11.05505 -24.67981,-24.69058 0,-13.63703 11.0495,-24.69209 24.67981,-24.69209 13.62875,0 24.67826,11.05506 24.67826,24.69209 z"
       inkscape:connector-curvature="0" />
    <path
       id="path6608"
       style="fill:none;stroke:#100f0d;stroke-width:3;stroke-linecap:butt;stroke-linejoin:miter;stroke-miterlimit:4;stroke-opacity:1;stroke-dasharray:none"
       d="m 730.6364,298.72851 c 0,13.63553 -11.0496,24.69058 -24.6784,24.69058 -13.6302,0 -24.6798,-11.05505 -24.6798,-24.69058 0,-13.63855 11.0496,-24.69209 24.6798,-24.69209 13.6288,0 24.6784,11.05354 24.6784,24.69209 z"
       inkscape:connector-curvature="0" />
    <path
       id="path6610"
       style="fill:none;stroke:#100f0d;stroke-width:3;stroke-linecap:butt;stroke-linejoin:miter;stroke-miterlimit:4;stroke-opacity:1;stroke-dasharray:none"
       d="m 677.1503,300.08299 c 0,6.84649 -4.9453,12.39442 -11.0465,12.39442 l -43.7842,0 c -6.1012,0 -11.0481,-5.54793 -11.0481,-12.39442 l 0,0 c 0,-6.84346 4.9469,-12.3929 11.0481,-12.3929 l 43.7842,0 c 6.1012,0 11.0465,5.54944 11.0465,12.3929 l 0,0 z"
       inkscape:connector-curvature="0" />
    <path
       id="path6612"
       style="fill:none;stroke:#100f0d;stroke-width:3;stroke-linecap:butt;stroke-linejoin:miter;stroke-miterlimit:4;stroke-opacity:1;stroke-dasharray:none"
       d="m 627.3888,287.69009 0,24.78732"
       inkscape:connector-curvature="0" />
    <path
       id="path6614"
       style="fill:none;stroke:#100f0d;stroke-width:3;stroke-linecap:butt;stroke-linejoin:miter;stroke-miterlimit:4;stroke-opacity:1;stroke-dasharray:none"
       d="m 644.2102,287.69009 0,24.78732"
       inkscape:connector-curvature="0" />
    <path
       id="path6616"
       style="fill:none;stroke:#100f0d;stroke-width:3;stroke-linecap:butt;stroke-linejoin:miter;stroke-miterlimit:4;stroke-opacity:1;stroke-dasharray:none"
       d="m 660.6296,287.69009 0,24.78732"
       inkscape:connector-curvature="0" />
    <path
       id="path6618"
       style="fill:none;stroke:none"
       d="m 400.74767,551.65843 c 0,0 -6.05794,-40.75541 -0.62149,-76.6764 7.41903,-49.01986 36.97815,-90.17587 36.97815,-90.17587 l 21.33674,61.55034 c 0,0 -10.13097,23.94078 -12.11466,47.41444 -1.9843,23.47215 2.87733,53.66985 2.87733,53.66985 l -48.45607,4.21764"
       inkscape:connector-curvature="0" />
    <path
       id="path6620"
       d="m 425.424,403.88297 c -9.0137,16.41276 -20.65182,41.79844 -25.1195,69.95387 0.7721,0.0509 1.53052,0.1703 2.34197,0.34014 l 8.23466,1.70066 c 2.52026,-4.5608 7.389,-7.63408 12.95638,-7.63408 7.69888,0 14.05181,5.92737 14.73173,13.45412 l 7.97025,1.66287 c 0.3862,0.0807 0.72695,0.19937 1.0955,0.30234 2.33375,-13.64587 6.57745,-26.17573 8.99013,-32.6527 -1.78098,-0.82255 -5.58663,-2.60525 -8.00802,-4.19497 -15.01717,-9.84924 -23.16844,-26.21776 -23.1931,-42.93225 z m -26.36603,79.8555 c -2.75669,27.07454 0.029,54.55184 1.20876,64.09604 3.68617,-2.87119 8.30049,-4.61068 13.33411,-4.61068 l 23.60855,0 c 4.40937,0 8.50863,1.33422 11.93654,3.59028 -0.28623,-1.80254 -4.75513,-30.32507 -2.83308,-53.06063 0,-0.0372 0,-0.0761 0,-0.11332 -0.61586,-0.0595 -1.25034,-0.16874 -1.88869,-0.30234 l -8.53685,-1.77625 c -2.68026,3.78076 -7.07425,6.23576 -12.0498,6.23576 -7.13273,0 -13.08858,-5.05663 -14.46732,-11.79125 l -8.80127,-1.85189 c -0.52227,-0.10921 -1.02167,-0.2665 -1.51095,-0.41572 z"
       style="fill:none;stroke:#211c1d;stroke-width:3;stroke-linecap:butt;stroke-linejoin:miter;stroke-miterlimit:4;stroke-opacity:1;stroke-dasharray:none"
       inkscape:connector-curvature="0" />
    <path
       id="path6624"
       style="fill:none;stroke:#eb1f28;stroke-width:3;stroke-linecap:round;stroke-linejoin:round;stroke-miterlimit:4;stroke-opacity:1;stroke-dasharray:none"
       d="m 437.19571,543.23222 -23.58498,0 c -12.01732,0 -21.75761,9.74743 -21.75761,21.76998 l -4.63848,28.69053 c 0,9.63708 10.90302,22.43815 19.57507,25.30282 l 0,-19.188 c 0,-8.14049 8.2877,-14.73906 18.5085,-14.73906 10.22246,0 18.50973,6.59857 18.50973,14.73906 l 0,19.2651 c 8.78175,-2.80118 19.67942,-15.55992 19.67942,-25.27561 l -4.53465,-28.79484 c 0,-12.02255 -9.7415,-21.76998 -21.757,-21.76998 z"
       inkscape:connector-curvature="0" />
    <path
       id="path6628"
       style="fill:none;stroke:#eb1f28;stroke-width:3;stroke-linecap:round;stroke-linejoin:round;stroke-miterlimit:4;stroke-opacity:1;stroke-dasharray:none"
       d="m 446.52873,483.35231 -7.97438,-1.67043 c -0.67992,-7.52675 -7.01577,-13.44958 -14.71465,-13.44958 -5.5674,0 -10.42252,3.09898 -12.94278,7.65978 l -8.23164,-1.72183 c -5.10657,-1.06877 -9.71436,0.30083 -10.29159,3.05817 -0.57664,2.75734 3.09685,5.86086 8.2028,6.92811 l 8.78183,1.83823 c 1.37874,6.73462 7.34864,11.81393 14.48138,11.81393 4.97554,0 9.37557,-2.47768 12.05584,-6.25844 l 8.54506,1.78834 c 5.10652,1.06878 9.7137,-0.29931 10.291,-3.05665 0.57658,-2.75885 -3.09635,-5.86237 -8.20287,-6.92963 z"
       inkscape:connector-curvature="0" />
    <path
       id="path6630"
       style="fill:none;stroke:none"
       d="m 885.7503,551.65843 c 0,0 6.0573,-40.75541 0.6209,-76.6764 -7.4188,-49.01986 -36.9774,-90.17587 -36.9774,-90.17587 l -21.3376,61.54883 c 0,0 10.1309,23.94229 12.1163,47.41595 1.9823,23.47215 -2.8783,53.66985 -2.8783,53.66985 l 48.4561,4.21764"
       inkscape:connector-curvature="0" />
    <path
       id="path6632"
       d="m 861.1056,403.92076 c -0.036,16.70144 -8.2249,33.05263 -23.2308,42.89446 -2.4214,1.58972 -6.2271,3.37242 -8.008,4.19497 2.4149,6.47175 6.6566,19.00538 8.9901,32.6527 0.3685,-0.10292 0.7095,-0.22164 1.0954,-0.30234 l 8.008,-1.66287 c 0.683,-7.52675 6.9957,-13.45412 14.6941,-13.45412 5.5663,0 10.436,3.07328 12.9563,7.63408 l 8.2346,-1.70066 c 0.8014,-0.16777 1.5788,-0.28847 2.342,-0.34014 -4.4628,-28.12992 -16.0706,-53.50241 -25.0817,-69.91608 z m 26.3283,79.81771 c -0.4893,0.14922 -0.9885,0.30655 -1.5109,0.41572 l -8.8014,1.85183 c -1.3794,6.73462 -7.3356,11.79125 -14.4672,11.79125 -4.9756,0 -9.3695,-2.455 -12.0499,-6.23576 l -8.5369,1.77625 c -0.6384,0.1336 -1.2725,0.24285 -1.8886,0.30234 0,0.0373 0,0.0761 0,0.11332 1.9166,22.69294 -2.4956,51.12379 -2.7953,53.02284 3.4196,-2.23882 7.5452,-3.55249 11.9365,-3.55249 l 23.5708,0 c 5.0334,0 9.6483,1.73949 13.3341,4.61068 1.1752,-9.54324 3.9646,-37.02134 1.2088,-64.09604 z"
       style="fill:none;stroke:#100f0d;stroke-width:3;stroke-linecap:butt;stroke-linejoin:miter;stroke-miterlimit:4;stroke-opacity:1;stroke-dasharray:none"
       inkscape:connector-curvature="0" />
    <path
       id="path6636"
       style="fill:none;stroke:#eb1f28;stroke-width:3;stroke-linecap:round;stroke-linejoin:round;stroke-miterlimit:4;stroke-opacity:1;stroke-dasharray:none"
       d="m 849.3031,543.23222 23.5844,0 c 12.0166,0 21.7562,9.74743 21.7562,21.76998 l 4.6386,28.69053 c 0,9.63708 -10.9016,22.43815 -19.5744,25.30282 l 0,-19.188 c 0,-8.14049 -8.2875,-14.73906 -18.5091,-14.73906 -10.2231,0 -18.5091,6.59857 -18.5091,14.73906 l 0,19.2651 c -8.7831,-2.80118 -19.6801,-15.55992 -19.6801,-25.27561 l 4.5343,-28.79484 c 0,-12.02255 9.7426,-21.76998 21.7592,-21.76998 z"
       inkscape:connector-curvature="0" />
    <path
       id="path6640"
       style="fill:none;stroke:#eb1f28;stroke-width:3;stroke-linecap:round;stroke-linejoin:round;stroke-miterlimit:4;stroke-opacity:1;stroke-dasharray:none"
       d="m 839.9685,483.35231 7.9732,-1.67043 c 0.683,-7.52675 7.0184,-13.44807 14.7167,-13.44807 5.5663,0 10.421,3.09747 12.9413,7.65827 l 8.2331,-1.72183 c 5.1055,-1.06877 9.7139,0.30083 10.2911,3.05817 0.5772,2.75734 -3.096,5.86086 -8.203,6.92811 l -8.7816,1.83823 c -1.3795,6.73462 -7.3493,11.81393 -14.4809,11.81393 -4.9755,0 -9.377,-2.47768 -12.0574,-6.25844 l -8.5429,1.78834 c -5.1085,1.06878 -9.7154,-0.29931 -10.2926,-3.05665 -0.5772,-2.75885 3.0975,-5.86237 8.203,-6.92963 z"
       inkscape:connector-curvature="0" />
    <path
       id="path6642"
       style="fill:none;stroke:#100f0d;stroke-width:3;stroke-linecap:butt;stroke-linejoin:miter;stroke-miterlimit:4;stroke-opacity:1;stroke-dasharray:none"
       d="m 692.3595,763.60014 c 0,12.02273 -9.7426,21.76847 -21.7591,21.76847 l -51.6744,0 c -12.0151,0 -21.75619,-9.74574 -21.75619,-21.76847 l 0,-155.25149 c 0,-12.02254 9.74109,-21.76846 21.75619,-21.76846 l 51.6744,0 c 12.0165,0 21.7591,9.74592 21.7591,21.76846 l 0,155.25149 z"
       inkscape:connector-curvature="0" />
    <path
       id="path6644"
       style="fill:none;stroke:#000000;stroke-width:3;stroke-linecap:round;stroke-linejoin:round;stroke-miterlimit:4;stroke-opacity:1;stroke-dasharray:none"
       d="m 630.4106,602.83095 -15.6141,12.84944 15.6141,14.36114 -15.6141,13.45413 15.6141,13.75646 -15.6141,14.0588 15.6141,13.15178 -15.6141,14.66348 15.6141,12.5471 -15.6141,15.26816 15.6141,11.94242 -15.6141,15.87284 15.6141,11.33774"
       inkscape:connector-curvature="0" />
    <path
       id="path6646"
       style="fill:none;stroke:#000000;stroke-width:3;stroke-linecap:round;stroke-linejoin:round;stroke-miterlimit:4;stroke-opacity:1;stroke-dasharray:none"
       d="m 652.3708,604.34265 -15.6142,12.84944 15.6142,14.36114 -15.6142,13.45412 15.6142,13.75647 -15.6142,14.0588 15.6142,13.15178 -15.6142,14.66348 15.6142,12.5471 -15.6142,15.26816 15.6142,11.94242 -15.6142,15.87284 15.6142,11.33774"
       inkscape:connector-curvature="0" />
    <path
       id="path6648"
       style="fill:none;stroke:#000000;stroke-width:3;stroke-linecap:round;stroke-linejoin:round;stroke-miterlimit:4;stroke-opacity:1;stroke-dasharray:none"
       d="m 674.4805,604.34265 -15.6141,12.84944 15.6141,14.36114 -15.6141,13.45412 15.6141,13.75647 -15.6141,14.0588 15.6141,13.15178 -15.6141,14.66348 15.6141,12.5471 -15.6141,15.26816 15.6141,11.94242 -15.6141,15.87284 15.6141,11.33774"
       inkscape:connector-curvature="0" />
    <path
       inkscape:connector-curvature="0"
       style="fill:none;stroke:#211c1d;stroke-width:3;stroke-linecap:round;stroke-linejoin:round;stroke-miterlimit:4;stroke-opacity:1;stroke-dasharray:none"
       d="m 459.23145,510.64671 c -1.56583,0 -2.83297,1.82765 -2.83297,4.08159 0,2.25394 1.26714,4.08159 2.83297,4.08159 l 147.99725,0 0,-8.16318 -147.99725,0 z m 224.75345,0 0,8.16318 143.1999,0 c 1.5654,0 2.8331,-1.82765 2.8331,-4.08159 0,-2.25394 -1.2677,-4.08159 -2.8331,-4.08159 l -143.1999,0 z"
       id="path6650" />
    <path
       id="path6652"
       style="fill:none;stroke:#211c1d;stroke-width:3;stroke-linecap:round;stroke-linejoin:round;stroke-miterlimit:4;stroke-opacity:1;stroke-dasharray:none"
       d="m 683.9965,526.4448 c 0,9.27276 -7.8555,16.78742 -17.5437,16.78742 l -41.6673,0 c -9.6882,0 -17.5437,-7.51466 -17.5437,-16.78742 l 0,-26.63462 c 0,-9.27276 7.8555,-16.78893 17.5437,-16.78893 l 41.6673,0 c 9.6882,0 17.5437,7.51617 17.5437,16.78893 l 0,26.63462 z"
       inkscape:connector-curvature="0" />
    <path
       id="path6658"
       style="fill:none;stroke:#eb1f28;stroke-width:3;stroke-linecap:round;stroke-linejoin:round;stroke-miterlimit:4;stroke-opacity:1;stroke-dasharray:none"
       d="m 481.36429,405.49074 c 10.06738,-15.36491 21.3139,-28.41843 31.8469,-37.84992 0,0 -5.23816,-4.76185 -8.28967,-6.76334 -23.72126,-15.55689 -55.55559,-8.93263 -71.10655,14.79953 -15.54916,23.73066 -8.92819,55.58215 14.79367,71.14056 3.05091,2.003 9.50543,4.90697 9.50543,4.90697 6.10459,-13.62494 13.18235,-30.87191 23.25022,-46.2338 z"
       inkscape:connector-curvature="0" />
    <path
       inkscape:connector-curvature="0"
       d="m 805.1326,405.49074 c -10.0673,-15.36491 -21.3139,-28.41843 -31.8468,-37.84992 0,0 5.2382,-4.76185 8.2897,-6.76334 23.7213,-15.55689 55.5555,-8.93263 71.1065,14.79953 15.5491,23.73066 8.9281,55.58215 -14.7938,71.14056 -3.0509,2.003 -9.5053,4.90697 -9.5053,4.90697 -6.1047,-13.62494 -13.1824,-30.87191 -23.2503,-46.2338 z"
       style="fill:none;stroke:#eb1f28;stroke-width:3;stroke-linecap:round;stroke-linejoin:round;stroke-miterlimit:4;stroke-opacity:1;stroke-dasharray:none"
       id="path6664" />
  </g>
</svg>
