<?xml version="1.0" encoding="UTF-8" standalone="no"?>
<!-- Created with Inkscape (http://www.inkscape.org/) -->

<svg
   xmlns:osb="http://www.openswatchbook.org/uri/2009/osb"
   xmlns:dc="http://purl.org/dc/elements/1.1/"
   xmlns:cc="http://creativecommons.org/ns#"
   xmlns:rdf="http://www.w3.org/1999/02/22-rdf-syntax-ns#"
   xmlns:svg="http://www.w3.org/2000/svg"
   xmlns="http://www.w3.org/2000/svg"
   xmlns:xlink="http://www.w3.org/1999/xlink"
   xmlns:sodipodi="http://sodipodi.sourceforge.net/DTD/sodipodi-0.dtd"
   xmlns:inkscape="http://www.inkscape.org/namespaces/inkscape"
   sodipodi:docname="rebel_filled.svg"
   inkscape:version="0.48+devel r"
   version="1.1"
   id="svg27345"
   height="1000"
   width="3200">
  <sodipodi:namedview
     id="base"
     pagecolor="#ffffff"
     bordercolor="#666666"
     borderopacity="1.0"
     inkscape:pageopacity="0.0"
     inkscape:pageshadow="2"
     inkscape:zoom="1.2023805"
     inkscape:cx="1599.3676"
     inkscape:cy="500"
     inkscape:document-units="px"
     inkscape:current-layer="svg27345"
     showgrid="false"
     inkscape:window-width="1280"
     inkscape:window-height="973"
     inkscape:window-x="0"
     inkscape:window-y="24"
     inkscape:window-maximized="1" />
  <defs
     id="defs27347">
    <inkscape:path-effect
       back_thickness="0.25"
       front_thickness="1"
       stroke_width_bottom="1"
       stroke_width_top="1"
       fat_output="false"
       bottom_smth_variation="0;1"
       top_smth_variation="0;1"
       scale_tb="2"
       scale_tf="2"
       scale_bb="2"
       scale_bf="2"
       top_tgt_variation="0;1"
       bottom_tgt_variation="0;1"
       top_edge_variation="0;1"
       bottom_edge_variation="0;1"
       bender="1600,500 , 5,0"
       do_bend="true"
       growth="0"
       dist_rdm="0;1"
       direction="1600,495 , 54.236556,-2.0364761"
       is_visible="true"
       id="path-effect8221"
       effect="rough_hatches" />
    <pattern
       inkscape:collect="always"
       xlink:href="#Strips1_1"
       id="pattern36173"
       patternTransform="matrix(10,0,0,10,-2.1978267e-5,916.04777)" />
    <linearGradient
       id="linearGradient36163"
       osb:paint="solid">
      <stop
         style="stop-color:#000000;stop-opacity:1;"
         offset="0"
         id="stop36165" />
    </linearGradient>
    <pattern
       patternTransform="scale(1.4041947,49.812151)"
       id="pattern17367"
       xlink:href="#Strips1_1"
       inkscape:collect="always" />
    <pattern
       inkscape:collect="always"
       patternUnits="userSpaceOnUse"
       width="2"
       height="1"
       patternTransform="translate(0,0) scale(10,10)"
       id="Strips1_1"
       inkscape:stockid="Stripes 1:1">
      <rect
         style="fill:black;stroke:none"
         x="0"
         y="-0.5"
         width="1"
         height="2"
         id="rect16636" />
    </pattern>
    <linearGradient
       osb:paint="solid"
       id="linearGradient17357">
      <stop
         id="stop17359"
         offset="0"
         style="stop-color:#000000;stop-opacity:1;" />
    </linearGradient>
    <inkscape:perspective
       sodipodi:type="inkscape:persp3d"
       inkscape:vp_x="0 : 526.18109 : 1"
       inkscape:vp_y="0 : 1000 : 0"
       inkscape:vp_z="744.09448 : 526.18109 : 1"
       inkscape:persp3d-origin="372.04724 : 350.78739 : 1"
       id="perspective27353" />
    <linearGradient
       gradientUnits="userSpaceOnUse"
       y2="149.50101"
       x2="294.49808"
       y1="149.50101"
       x1="7.167748"
       id="linearGradient17361"
       xlink:href="#linearGradient17357"
       inkscape:collect="always" />
  </defs>
  <metadata
     id="metadata27350">
    <rdf:RDF>
      <cc:Work
         rdf:about="">
        <dc:format>image/svg+xml</dc:format>
        <dc:type
           rdf:resource="http://purl.org/dc/dcmitype/StillImage" />
        <dc:title />
      </cc:Work>
    </rdf:RDF>
  </metadata>
  <path
     id="path36642"
     d="m 1275.8168,492.05438 c 3.9897,-105.77504 57.5949,-203.3332 155.5894,-267.80007 0.2893,0.10849 2.8279,-0.81605 1.6682,1.37889 -7.7625,7.19739 -147.3205,172.05483 -18.8615,302.18211 0,0 67.4937,64.88507 119.8308,3.3184 0,0 51.6453,-66.85848 -0.6533,-168.20974 0,0 -13.2374,-33.09355 -60.9315,-53.62104 l 38.4102,-42.37965 c 0,0 32.4584,13.92687 57.5928,51.69964 0,0 1.3404,-39.76878 -29.1242,-82.14616 l 59.5526,-67.566 58.9535,66.93081 c 0,0 -27.11,38.40796 -29.106,83.41655 0,0 18.5157,-30.46461 58.2664,-52.33258 l 37.7185,42.37965 c 0,0 -36.2696,11.9512 -60.5676,53.18703 -20.8914,38.20678 -36.9748,119.91892 0.9404,170.04073 0,0 42.4339,60.16969 117.0752,-3.55122 0,0 137.2388,-122.96833 -14.0738,-300.75349 0,0 -8.2688,-7.30816 1.015,-3.33648 66.8788,48.69093 146.9588,112.90236 155.2277,273.15065 -3.2641,194.32516 -133.3959,333.04683 -323.4171,333.04683 -186.0541,-0.002 -330.6892,-155.26392 -325.1057,-339.03486"
     inkscape:connector-curvature="0"
     style="fill:none;stroke:#000000;stroke-width:4;stroke-opacity:1;stroke-miterlimit:4;stroke-dasharray:none" />
  <g
     inkscape:label="Layer 1"
     inkscape:groupmode="layer"
     id="layer1"
     transform="translate(0,-52.36218)" />
  <eggbot
     serialport="/dev/ttyACM0"
     layer="12345"
     node="0"
     id="eggbot8241" />
  <path
     inkscape:original-d="m 1275.8168,492.05438 c 3.9897,-105.77504 57.5949,-203.3332 155.5894,-267.80007 0.2893,0.10849 2.8279,-0.81605 1.6682,1.37889 -7.7625,7.19739 -147.3205,172.05483 -18.8615,302.18211 0,0 67.4937,64.88507 119.8308,3.3184 0,0 51.6453,-66.85848 -0.6533,-168.20974 0,0 -13.2374,-33.09355 -60.9315,-53.62104 l 38.4102,-42.37965 c 0,0 32.4584,13.92687 57.5928,51.69964 0,0 1.3404,-39.76878 -29.1242,-82.14616 l 59.5526,-67.566 58.9535,66.93081 c 0,0 -27.11,38.40796 -29.106,83.41655 0,0 18.5157,-30.46461 58.2664,-52.33258 l 37.7185,42.37965 c 0,0 -36.2696,11.9512 -60.5676,53.18703 -20.8914,38.20678 -36.9748,119.91892 0.9404,170.04073 0,0 42.4339,60.16969 117.0752,-3.55122 0,0 137.2388,-122.96833 -14.0738,-300.75349 0,0 -8.2688,-7.30816 1.015,-3.33648 66.8788,48.69093 146.9588,112.90236 155.2277,273.15065 -3.2641,194.32516 -133.3959,333.04683 -323.4171,333.04683 -186.0541,-0.002 -330.6892,-155.26392 -325.1057,-339.03486"
     inkscape:path-effect="#path-effect8221"
     style="fill:none;stroke:#000000;stroke-width:4;stroke-miterlimit:4;stroke-opacity:1;stroke-dasharray:none"
     inkscape:connector-curvature="0"
     d="m 1913.3913,420.37843 c 0,0 2.536,29.83287 3.8625,64.84595 1.3265,35.01309 1.4318,75.2064 -3.2598,95.9273 -4.6917,20.7209 -6.3353,-26.08402 -8.4139,-81.4337 -1.0393,-27.67483 -2.1897,-57.48586 -3.8375,-82.06043 -1.6478,-24.57458 -3.7895,-43.91272 -6.7782,-50.64177 -5.9774,-13.4581 -3.3889,49.66779 -0.7601,119.09324 1.3144,34.71273 2.6406,71.00035 2.9963,100.07731 0.3557,29.07696 -0.2533,50.94326 -2.7677,56.81335 -2.5144,5.87008 -4.4106,-10.05167 -6.0544,-37.50609 -1.6437,-27.45441 -3.0456,-66.44149 -4.5584,-106.70207 -1.5129,-40.26058 -3.1377,-81.79465 -5.1245,-114.34305 -1.9869,-32.5484 -4.3272,-56.11113 -7.2223,-60.42901 -2.8951,-4.31788 -3.4457,14.89341 -2.8483,46.40616 0.5975,31.51276 2.3304,75.32698 4.0254,120.21495 1.6951,44.88797 3.3511,90.84969 3.9209,126.65746 0.5699,35.80776 0.064,61.46157 -2.5093,65.7337 -2.5731,4.27214 -4.6334,-17.08842 -6.5095,-51.73561 -1.8761,-34.6472 -3.5829,-82.58105 -5.4182,-131.45549 -1.8354,-48.87444 -3.8002,-98.68949 -6.0416,-137.09908 -2.2413,-38.4096 -4.7463,-65.41375 -7.5994,-68.66641 -2.853,-3.25267 -3.1966,20.48626 -2.3351,58.13399 0.8616,37.64774 2.9118,89.20428 4.8861,141.58685 1.9742,52.38258 3.8716,105.59119 4.5993,146.54305 0.7277,40.95186 0.3003,69.64698 -2.3057,73.00257 -2.606,3.35559 -4.5396,-14.46429 -6.162,-42.49886 -1.6223,-28.03457 -2.9435,-66.28383 -4.2943,-103.78699 -2.7017,-75.00633 -5.5383,-147.02827 -10.2433,-128.37954 -2.3525,9.32437 -2.8299,31.98577 -2.4227,60.90343 0.4071,28.91766 1.6948,64.09158 2.9078,98.44098 2.4259,68.69881 4.5306,134.09955 -0.7254,139.55602 -5.2559,5.45647 -7.388,-61.10997 -9.6904,-126.84916 -2.3024,-65.73919 -4.7695,-130.65112 -9.8695,-121.88563 -5.0999,8.76549 -2.662,73.66283 -0.4491,137.4966 2.2129,63.83376 4.2064,126.60396 -1.082,131.11518 -5.2884,4.51122 -7.2742,-58.35757 -9.4256,-120.83822 -2.1513,-62.48064 -4.4659,-124.57314 -9.672,-118.50935 -5.2061,6.06379 -2.9105,68.14692 -0.8083,129.65272 2.1022,61.50579 4.0138,122.43425 -1.3,126.18869 -5.3138,3.75443 -7.2191,-57.2803 -9.2935,-118.29467 -2.0744,-61.01437 -4.3176,-122.00838 -9.6082,-118.17248 -5.2905,3.8359 -3.0585,64.82348 -1.0014,125.63269 2.057,60.80922 3.94,121.44007 -1.3945,124.56249 -5.3346,3.12243 -7.2087,-57.49963 -9.2562,-118.28418 -2.0475,-60.78455 -4.2694,-121.73159 -9.6107,-119.25913 -5.3413,2.47245 -3.1262,63.41487 -1.0796,124.38367 2.0466,60.96879 3.9246,121.96395 -1.4275,124.5419 -5.3521,2.57794 -7.2219,-58.40428 -9.276,-119.79652 -2.0542,-61.39223 -4.2951,-123.19449 -9.6925,-122.25664 -5.3973,0.93785 -3.1581,62.73666 -1.0843,124.8254 2.0739,62.08873 3.9808,124.46737 -1.3865,126.56489 -5.3673,2.09751 -7.2661,-60.25896 -9.369,-123.35717 -2.103,-63.09822 -4.4144,-126.93817 -9.8772,-127.80763 -5.4628,-0.86945 -3.147,62.96786 -0.9977,127.43892 2.1492,64.47105 4.1281,129.57584 -1.2526,131.24134 -5.3808,1.6655 -7.3504,-63.38637 -9.5575,-129.66308 -1.1035,-33.13836 -2.2603,-66.58293 -3.8442,-92.14715 -1.584,-25.56421 -3.5891,-43.24808 -6.3637,-44.86503 -5.5491,-3.2339 -3.0838,64.2656 -0.7921,132.89131 1.1459,34.31286 2.2548,68.90727 2.3932,95.08233 0.1385,26.17507 -0.6869,43.9308 -3.3834,44.56628 -5.3929,1.27097 -7.4807,-68.03528 -9.8773,-139.7965 -1.1984,-35.88061 -2.4676,-72.37497 -4.1673,-100.96778 -1.6997,-28.59281 -3.8237,-49.28409 -6.6972,-53.55854 -2.8734,-4.27445 -3.6185,12.14196 -3.3226,39.19927 0.296,27.05731 1.623,64.75551 2.9125,103.04465 1.2895,38.28914 2.5409,77.16922 2.7813,106.59026 0.2404,29.42104 -0.5215,49.38305 -3.2235,49.83607 -2.702,0.45302 -5.036,-20.92452 -7.0668,-53.24566 -2.0309,-32.32114 -3.7693,-75.58587 -5.2438,-118.90723 -1.4746,-43.32136 -2.6852,-86.69935 -3.542,-119.247 -0.8569,-32.54765 -1.3493,-54.26496 -1.3493,-54.26496 m 187.2784,-204.54431 c 0,0 2.3798,24.01333 3.177,43.14168 0.7972,19.12835 0.025,33.37171 -6.2149,13.83176 -12.4789,-39.07991 -2.6363,-62.68579 -13.9203,-72.48288 -11.284,-9.79709 1.626,38.08628 -10.0751,18.39839 -11.7012,-19.68788 -1.2058,-28.11685 -12.4461,-36.81393 -11.2403,-8.69707 0.7633,17.59808 -10.7496,2.60322 -11.513,-14.99487 -6.0985,-15.32012 -6.0985,-15.32012 m -50.9119,79.43412 c 0,0 5.3613,-1.67644 -5.2962,3.22785 -10.6574,4.90429 -0.4021,-9.6308 -11.8074,-22.44553 -11.4053,-12.81473 1.1499,27.33508 -9.38,35.34549 -5.2649,4.00521 -5.8368,-9.79376 -6.4533,-24.43806 -0.6165,-14.64431 -1.279,-30.13395 -6.6836,-29.5101 -5.4046,0.62385 -4.7452,16.03532 -4.0389,32.84219 0.7063,16.80687 1.4577,35.00913 -3.7186,41.21457 -5.1764,6.20544 -5.8979,-11.41095 -6.6552,-29.54801 -0.7574,-18.13706 -1.5518,-36.79478 -6.8078,-32.67202 -5.2561,4.12276 -4.4887,22.20132 -3.6486,42.42614 0.84,20.22483 1.7504,42.59593 -3.1691,55.30378 -4.9195,12.70785 -5.8168,-9.70975 -6.8092,-33.88678 -0.9924,-24.17703 -2.0853,-50.11349 -7.2781,-44.44334 -5.1928,5.67014 -5.0891,40.55966 -3.7378,74.03165 1.3514,33.47199 3.9544,65.52644 3.9544,65.52644 m 13.1382,-208.16112 c 0,0 5.2619,-3.96457 -4.8179,14.11424 -10.0797,18.07881 -0.895,-20.60065 -12.3297,-33.58266 -5.7173,-6.491 -6.3375,10.18824 -5.5428,28.49023 0.7946,18.30199 3.0009,38.22673 3.0009,38.22673 m -14.6147,-86.19456 c 0,0 2.1239,39.58479 4.9732,98.97961 2.8492,59.39483 6.3881,138.5997 9.3429,217.83988 2.9547,79.24017 5.3252,158.51564 6.2307,218.05168 0.9056,59.53603 0.3818,99.33262 -2.3254,99.61503 -2.7071,0.28241 -5.2414,-39.65692 -7.8681,-99.91818 -2.6267,-60.26126 -5.3827,-140.84445 -8.4108,-221.84973 -3.0281,-81.00527 -6.3291,-162.43265 -9.6408,-224.38229 -3.3117,-61.94965 -6.5988,-104.42156 -9.4536,-107.51591 -2.8547,-3.09436 -2.4153,36.28293 -0.4952,97.09702 1.92,60.81409 5.2797,143.06499 8.3865,225.71786 3.1068,82.65287 5.9601,165.70771 7.3028,228.12968 1.3427,62.42198 1.2144,104.21109 -1.4976,104.33249 -2.712,0.1214 -5.2737,-40.79317 -7.9333,-102.05004 -2.6596,-61.25688 -5.4555,-142.85605 -8.4978,-224.10386 -3.0424,-81.2478 -6.3305,-162.14423 -9.5535,-221.99561 -3.2231,-59.85139 -6.3414,-98.65773 -8.926,-95.72534 -2.5846,2.93238 -2.0574,44.67161 -0.159,105.62863 1.8985,60.95702 5.134,141.13184 8.1061,220.93542 2.9722,79.80358 5.6817,159.23592 6.9211,218.70798 1.2394,59.47206 1.0443,98.98383 -1.6725,98.94628 -2.7168,-0.0376 -5.2391,-39.58687 -7.8246,-98.70635 -2.5855,-59.11949 -5.2698,-137.80913 -8.1816,-216.12732 -2.9118,-78.31819 -6.0504,-156.26493 -9.1532,-213.8986 -3.1028,-57.63367 -6.133,-94.95427 -8.7191,-92.02019 -5.1722,5.86816 -4.3234,25.19921 -3.6877,39.89874 0.6357,14.69953 1.066,24.76754 -4.9093,12.10962 -11.9504,-25.31584 -6.9229,-34.40049 -6.9229,-34.40049 m 14.3222,80.76988 c 0,0 1.7226,32.63921 4.0224,81.58443 2.2998,48.94522 5.1525,114.19645 7.4979,179.42046 2.3455,65.22401 4.1837,130.42081 4.7218,179.25718 0.5381,48.83637 -0.1995,81.31231 -2.9217,81.09461 -2.7221,-0.2177 -4.8078,-24.72121 -6.6157,-60.66909 -1.8079,-35.94788 -3.3514,-83.34013 -4.9316,-129.33531 -1.5801,-45.99518 -3.1954,-90.59329 -5.0011,-120.95288 -1.8057,-30.3596 -3.7851,-46.48068 -6.0851,-35.52181 -2.3001,10.95887 -2.6339,38.03907 -2.064,72.46971 0.57,34.43064 2.0378,76.21173 3.3944,116.57237 1.3566,40.36064 2.6032,79.30085 2.8198,108.04973 0.2166,28.74888 -0.5887,47.30644 -3.3166,46.9018 -2.7278,-0.40465 -4.6646,-19.81752 -6.2385,-48.51541 -1.5738,-28.69788 -2.793,-66.68076 -4.0531,-104.22543 -1.26,-37.54466 -2.5607,-74.65111 -4.2064,-101.5961 -1.6456,-26.94499 -3.6273,-43.72854 -6.2289,-40.62741 -2.6015,3.10113 -3.2245,22.98613 -2.9038,51.0317 0.3207,28.04557 1.5787,64.25172 2.7711,99.99516 2.3849,71.48686 4.481,141.12286 -0.9865,139.92164 -2.7338,-0.60061 -4.6232,-18.35098 -6.1191,-44.54946 -1.496,-26.19849 -2.6052,-60.84507 -3.7525,-95.23811 -2.2946,-68.78607 -4.7679,-136.55793 -10.0953,-133.70229 -2.6636,1.42783 -3.3752,19.08513 -3.1471,44.7174 0.2282,25.63227 1.3901,59.23951 2.4991,92.56721 2.2181,66.6554 4.1997,132.19263 -1.2806,130.5756 -5.4803,-1.61702 -7.4703,-67.18918 -9.6356,-132.18719 -2.1653,-64.99802 -4.5025,-129.42189 -9.9092,-128.74236 -5.4067,0.67954 -3.0732,65.10569 -0.95,128.84582 2.1233,63.74014 4.0404,126.79425 -1.4538,124.72972 -5.4942,-2.06454 -7.4192,-65.13824 -9.5166,-127.9628 -2.0974,-62.82455 -4.3658,-125.39995 -9.8358,-126.46788 -5.47,-1.06792 -3.1994,61.51056 -1.1187,123.71737 2.0806,62.20682 3.9735,124.04198 -1.5362,121.48741 -5.5096,-2.55457 -7.4104,-64.39753 -9.486,-126.25076 -2.0756,-61.85324 -4.3259,-123.71676 -9.8518,-126.31245 -5.5259,-2.5957 -3.2682,59.27208 -1.189,121.01309 2.0793,61.741 3.9809,123.35524 -1.5464,120.25246 -5.5273,-3.10277 -7.4368,-64.69712 -9.529,-126.5595 -2.0923,-61.86238 -4.3687,-123.9928 -9.9534,-128.16771 -5.5847,-4.17491 -3.2957,57.96161 -1.1791,120.20861 2.1165,62.247 4.0599,124.60449 -1.488,120.87153 -5.5479,-3.73296 -7.5023,-66.14207 -9.6638,-129.35067 -2.1614,-63.20861 -4.5342,-127.2167 -10.2238,-134.14761 -5.6895,-6.93091 -3.294,57.08637 -1.0657,121.71544 2.2284,64.62907 4.2858,129.86992 -1.2873,125.38617 -5.5731,-4.48376 -7.6267,-69.30199 -9.9424,-135.99597 -1.1578,-33.34698 -2.3751,-67.1629 -4.0486,-94.14042 -1.6735,-26.97751 -3.7988,-47.11662 -6.7426,-53.10997 -5.8878,-11.98672 -3.2564,56.59789 -0.7854,126.82331 1.2355,35.11271 2.4363,70.63562 2.6172,96.70243 0.1808,26.0668 -0.6499,42.67749 -3.4525,39.96576 -2.8026,-2.71173 -5.1062,-32.4813 -7.2357,-75.41198 -2.1296,-42.93067 -4.1018,-99.02244 -6.1672,-154.37856 -2.0654,-55.35612 -4.223,-109.9766 -6.5307,-149.96467 -2.3076,-39.98808 -4.7468,-65.34376 -7.3287,-62.17029 -2.5819,3.17347 -2.7294,31.70936 -1.7557,72.51912 0.9736,40.80976 3.0539,93.89337 4.9963,146.16228 1.9424,52.2689 3.7479,103.72309 4.3435,141.27399 0.5955,37.5509 -0,61.19852 -2.827,57.85428 -2.8248,-3.34424 -5.0571,-30.34592 -7.0481,-68.72286 -1.9909,-38.37694 -3.7531,-88.12914 -5.5756,-136.97442 -1.8225,-48.84529 -3.7042,-96.78365 -5.7839,-131.53291 -2.0797,-34.74926 -4.3426,-56.30941 -6.8959,-52.39829 -2.5534,3.91112 -2.8486,29.39721 -2.0964,65.15732 0.7522,35.76011 2.5413,81.79423 4.2124,126.80144 1.671,45.0072 3.225,88.98748 3.6342,120.63988 0.4092,31.65241 -0.3137,50.97694 -3.1727,46.67266 -2.8591,-4.30428 -5.0016,-27.95802 -6.8163,-60.69461 -1.8148,-32.73658 -3.3103,-74.55599 -4.827,-115.1916 -1.5167,-40.63561 -3.0534,-80.08741 -4.8464,-108.08877 -1.7931,-28.00136 -3.8318,-44.55228 -6.3373,-39.38612 -2.5054,5.16616 -2.9761,26.93115 -2.4983,56.28752 0.4778,29.35637 1.898,66.30411 3.2155,101.83577 2.6351,71.06332 4.8496,136.46233 -1.0039,124.13738 -2.9267,-6.16248 -4.9544,-25.71482 -6.5307,-51.05446 -1.5763,-25.33964 -2.7052,-56.46658 -3.8006,-85.77827 -2.1908,-58.62336 -4.245,-109.98569 -9.0159,-93.26647 -4.7709,16.71922 -2.6289,71.9362 -1.079,113.94062 0.775,21.00221 1.4117,38.70127 1.0171,46.63341 -0.3947,7.93213 -1.815,6.09732 -5.1829,-11.9682 -6.736,-36.13106 -8.6688,-51.23823 -8.8961,-57.31263 -0.2273,-6.07441 1.2411,-3.11605 1.2411,-3.11605 m 274.1755,-207.09183 c 0,0 3.0197,39.48699 4.3818,73.08437 1.3621,33.59737 1.0911,61.30513 -5.275,37.74664 -6.3662,-23.55849 -7.5522,-52.81776 -8.5652,-77.26017 -1.013,-24.44241 -1.8483,-44.06797 -7.4622,-48.35904 -5.6139,-4.29106 -4.7121,16.86927 -3.8667,37.14368 0.8455,20.2744 1.6367,39.66289 -4.1156,31.82815 -5.7523,-7.83474 -6.5964,-28.3032 -7.3568,-46.39451 -0.7604,-18.0913 -1.4339,-33.80545 -6.7936,-32.13157 -10.7195,3.34776 2.6889,63.94755 -8.5267,55.4423 -11.2156,-8.50525 -2.0188,-48.0464 -12.3966,-36.59606 -10.3779,11.45034 1.1891,28.29726 -9.9033,22.80146 -11.0924,-5.4958 -5.6667,-5.6228 -5.6667,-5.6228 m -46.8944,-80.35495 c 0,0 5.3546,-1.79603 -4.9258,11.5826 -10.2805,13.37862 -0.3551,-8.15868 -10.8737,-0.25492 -10.5187,7.90377 0.5903,13.54039 -9.556,30.2659 -10.1463,16.7255 -0.9638,-22.39335 -11.4328,-13.26775 -10.469,9.1256 1.2636,29.39174 -8.6526,51.9555 -9.9161,22.56377 -1.8181,-42.87778 -12.2258,-32.21901 -5.2039,5.32938 -5.7865,23.5643 -5.0807,40.46687 0.7058,16.90258 2.7017,32.47281 2.7017,32.47281"
     id="path8219" />
</svg>
