<?xml version="1.0" encoding="UTF-8" standalone="no"?>
<!-- Created with Inkscape (http://www.inkscape.org/) -->

<svg
   xmlns:dc="http://purl.org/dc/elements/1.1/"
   xmlns:cc="http://creativecommons.org/ns#"
   xmlns:rdf="http://www.w3.org/1999/02/22-rdf-syntax-ns#"
   xmlns:svg="http://www.w3.org/2000/svg"
   xmlns="http://www.w3.org/2000/svg"
   xmlns:sodipodi="http://sodipodi.sourceforge.net/DTD/sodipodi-0.dtd"
   xmlns:inkscape="http://www.inkscape.org/namespaces/inkscape"
   width="3200"
   height="1000"
   id="svg27345"
   version="1.1"
   inkscape:version="0.48+devel r"
   sodipodi:docname="Jedi_symbol.svg">
  <sodipodi:namedview
     id="base"
     pagecolor="#ffffff"
     bordercolor="#666666"
     borderopacity="1.0"
     inkscape:pageopacity="0.0"
     inkscape:pageshadow="2"
     inkscape:zoom="0.86640904"
     inkscape:cx="1600"
     inkscape:cy="500"
     inkscape:document-units="px"
     inkscape:current-layer="layer1"
     showgrid="false"
     inkscape:window-width="1440"
     inkscape:window-height="825"
     inkscape:window-x="0"
     inkscape:window-y="24"
     inkscape:window-maximized="1" />
  <defs
     id="defs27347">
    <inkscape:path-effect
       effect="rough_hatches"
       id="path-effect5967"
       is_visible="true"
       direction="1600,547.36218 , -0.43067994,45.013381"
       dist_rdm="0;1"
       growth="0"
       do_bend="true"
       bender="1600,552.36218 , 5,0"
       bottom_edge_variation="0;1"
       top_edge_variation="0;1"
       bottom_tgt_variation="0;1"
       top_tgt_variation="0;1"
       scale_bf="2"
       scale_bb="2"
       scale_tf="2"
       scale_tb="2"
       top_smth_variation="0;1"
       bottom_smth_variation="0;1"
       fat_output="false"
       stroke_width_top="1"
       stroke_width_bottom="1"
       front_thickness="1"
       back_thickness="0.25" />
    <inkscape:perspective
       sodipodi:type="inkscape:persp3d"
       inkscape:vp_x="0 : 526.18109 : 1"
       inkscape:vp_y="0 : 1000 : 0"
       inkscape:vp_z="744.09448 : 526.18109 : 1"
       inkscape:persp3d-origin="372.04724 : 350.78739 : 1"
       id="perspective27353" />
    <inkscape:perspective
       id="perspective3006"
       inkscape:persp3d-origin="400 : 166.66667 : 1"
       inkscape:vp_z="800 : 250 : 1"
       inkscape:vp_y="0 : 1000 : 0"
       inkscape:vp_x="0 : 250 : 1"
       sodipodi:type="inkscape:persp3d" />
    <inkscape:perspective
       sodipodi:type="inkscape:persp3d"
       inkscape:vp_x="0 : 0.5 : 1"
       inkscape:vp_y="0 : 1000 : 0"
       inkscape:vp_z="1 : 0.5 : 1"
       inkscape:persp3d-origin="0.5 : 0.33333333 : 1"
       id="perspective3947" />
    <inkscape:perspective
       id="perspective3960"
       inkscape:persp3d-origin="372.04724 : 350.78739 : 1"
       inkscape:vp_z="744.09448 : 526.18109 : 1"
       inkscape:vp_y="0 : 1000 : 0"
       inkscape:vp_x="0 : 526.18109 : 1"
       sodipodi:type="inkscape:persp3d" />
    <inkscape:perspective
       sodipodi:type="inkscape:persp3d"
       inkscape:vp_x="0 : 0.5 : 1"
       inkscape:vp_y="0 : 1000 : 0"
       inkscape:vp_z="1 : 0.5 : 1"
       inkscape:persp3d-origin="0.5 : 0.33333333 : 1"
       id="perspective3947-5" />
    <inkscape:perspective
       id="perspective3960-1"
       inkscape:persp3d-origin="372.04724 : 350.78739 : 1"
       inkscape:vp_z="744.09448 : 526.18109 : 1"
       inkscape:vp_y="0 : 1000 : 0"
       inkscape:vp_x="0 : 526.18109 : 1"
       sodipodi:type="inkscape:persp3d" />
    <inkscape:perspective
       id="perspective13001"
       inkscape:persp3d-origin="210 : 214.66667 : 1"
       inkscape:vp_z="420 : 322 : 1"
       inkscape:vp_y="0 : 1000 : 0"
       inkscape:vp_x="0 : 322 : 1"
       sodipodi:type="inkscape:persp3d" />
    <inkscape:perspective
       sodipodi:type="inkscape:persp3d"
       inkscape:vp_x="0 : 0.5 : 1"
       inkscape:vp_y="0 : 1000 : 0"
       inkscape:vp_z="1 : 0.5 : 1"
       inkscape:persp3d-origin="0.5 : 0.33333333 : 1"
       id="perspective3947-57" />
    <inkscape:perspective
       id="perspective3960-6"
       inkscape:persp3d-origin="372.04724 : 350.78739 : 1"
       inkscape:vp_z="744.09448 : 526.18109 : 1"
       inkscape:vp_y="0 : 1000 : 0"
       inkscape:vp_x="0 : 526.18109 : 1"
       sodipodi:type="inkscape:persp3d" />
    <inkscape:perspective
       id="perspective14366"
       inkscape:persp3d-origin="0.5 : 0.33333333 : 1"
       inkscape:vp_z="1 : 0.5 : 1"
       inkscape:vp_y="0 : 1000 : 0"
       inkscape:vp_x="0 : 0.5 : 1"
       sodipodi:type="inkscape:persp3d" />
    <inkscape:perspective
       id="perspective14573"
       inkscape:persp3d-origin="295.30087 : 200 : 1"
       inkscape:vp_z="590.60175 : 300 : 1"
       inkscape:vp_y="0 : 1000 : 0"
       inkscape:vp_x="0 : 300 : 1"
       sodipodi:type="inkscape:persp3d" />
    <inkscape:perspective
       sodipodi:type="inkscape:persp3d"
       inkscape:vp_x="0 : 0.5 : 1"
       inkscape:vp_y="0 : 1000 : 0"
       inkscape:vp_z="1 : 0.5 : 1"
       inkscape:persp3d-origin="0.5 : 0.33333333 : 1"
       id="perspective3947-6" />
    <inkscape:perspective
       id="perspective3960-7"
       inkscape:persp3d-origin="372.04724 : 350.78739 : 1"
       inkscape:vp_z="744.09448 : 526.18109 : 1"
       inkscape:vp_y="0 : 1000 : 0"
       inkscape:vp_x="0 : 526.18109 : 1"
       sodipodi:type="inkscape:persp3d" />
  </defs>
  <metadata
     id="metadata27350">
    <rdf:RDF>
      <cc:Work
         rdf:about="">
        <dc:format>image/svg+xml</dc:format>
        <dc:type
           rdf:resource="http://purl.org/dc/dcmitype/StillImage" />
        <dc:title />
      </cc:Work>
    </rdf:RDF>
  </metadata>
  <g
     inkscape:label="Layer 1"
     inkscape:groupmode="layer"
     id="layer1"
     transform="translate(0,-52.36218)">
    <path
       inkscape:connector-curvature="0"
       id="path1"
       style="fill:none;stroke:#000000;stroke-width:5;stroke-miterlimit:4;stroke-opacity:1;stroke-dasharray:none"
       d="m 1561.8485,925.14407 c 0,0 34.0671,4.828 99.656,-3.54849 65.5889,-8.37648 -147.5583,-1.4119 -181.644,-10.7421 -34.0858,-9.3302 236.2507,2.26054 262.0385,-6.49676 25.7877,-8.75729 -294.1002,-2.81406 -314.631,-12.01454 -20.5308,-9.20047 157.3955,1.50601 141.3983,-7.65107 -15.9972,-9.15707 -161.495,-1.54527 -176.6908,-10.69465 -15.1959,-9.14938 160.9804,1.54032 148.3386,-7.58462 -12.6418,-9.12495 -163.3623,-1.56312 -175.4824,-10.68305 -12.1201,-9.11994 162.9193,1.55885 152.3855,-7.54589 -10.5339,-9.10474 -164.4175,-1.5732 -174.4635,-10.67327 -10.046,-9.10006 163.9703,1.56891 155.0876,-7.52001 -8.8827,-9.08891 -165.0817,-1.57955 -173.6,-10.66497 -8.5183,-9.08541 164.743,1.5763 157.2515,-7.49928 -7.4915,-9.07558 -165.7363,-1.58581 -173.0627,-10.6598 -7.3264,-9.07398 165.5894,1.58437 159.3157,-7.47951 -6.2737,-9.06389 -166.6192,-1.59425 -172.9764,-10.65893 -6.3573,-9.06468 166.7164,1.59517 161.5343,-7.45826 -5.182,-9.05343 -167.8752,-1.60627 -173.419,-10.66314 -5.5438,-9.05687 168.2477,1.60982 164.0603,-7.43406 -4.1874,-9.04389 -169.5921,-1.62269 -174.4351,-10.67283 -4.8431,-9.05014 36.7755,0.35186 27.5635,-8.74006 -9.212,-9.09193 -32.3977,-0.31 -36.6231,-9.3542 -4.2255,-9.0442 27.6323,0.26439 20.581,-8.80684 -7.0513,-9.07122 -24.7999,-0.23729 -28.4692,-9.27615 -3.6693,-9.03885 21.4819,0.20554 15.5945,-8.85452 -5.8874,-9.06006 -19.2593,-0.18428 -22.4162,-9.2182 -3.1569,-9.03393 16.5597,0.15843 11.4747,-8.89392 -5.085,-9.05236 -14.6293,-0.13998 -17.3013,-9.16924 -2.6719,-9.02925 12.2345,0.11705 7.7604,-8.92943 -4.474,-9.04648 -10.4331,-0.0998 -12.6272,-9.12449 -2.1942,-9.02466 8.1652,0.0781 4.1829,-8.96362 -3.9823,-9.04175 -6.3857,-0.0611 -8.0695,-9.08085 -1.6838,-9.01975 4.0957,0.0392 0.5238,-8.99862 -3.5718,-9.03779 -2.7397,-4.52802 -2.7397,-4.52802 m 390.5513,264.8475 c 0,0 144.3537,5.88325 162.1643,-2.95036 17.8106,-8.8336 -153.4232,-1.46802 -139.653,-10.34026 13.7703,-8.87224 157.1978,1.5041 170.9995,-7.36781 13.8017,-8.87192 -157.349,-1.50557 -145.9654,-10.40062 11.3835,-8.89506 159.6448,1.52753 170.9136,-7.36861 11.2689,-8.89614 -159.5802,-1.52692 -149.9533,-10.43875 9.6269,-8.91183 161.1544,1.54197 170.6289,-7.37131 9.4745,-8.91328 -161.0312,-1.5408 -152.8528,-10.46646 8.1784,-8.92567 162.2853,1.55278 170.3963,-7.37352 8.111,-8.9263 -162.2376,-1.55233 -155.3153,-10.49 6.9224,-8.93766 163.3983,1.56344 170.4222,-7.37323 7.0239,-8.93668 -163.5142,-1.56455 -157.7131,-10.51291 5.8012,-8.94835 164.7173,1.57605 170.8431,-7.36919 6.1257,-8.94524 -165.053,-1.57927 -160.2717,-10.53735 4.7813,-8.95809 166.3831,1.59197 171.7454,-7.36054 5.3623,-8.95252 -166.973,-1.59763 -163.1318,-10.56469 3.8411,-8.96706 128.6858,1.23128 135.4892,-7.70742 6.8033,-8.9387 -131.6554,-1.2597 -128.6896,-10.2351 2.9658,-8.9754 135.4895,1.29637 141.6005,-7.64893 6.1109,-8.94529 -138.6409,-1.32653 -136.4964,-10.30977 2.1445,-8.98323 142.6042,1.36445 148.0485,-7.5872 5.4443,-8.95165 -145.9093,-1.39608 -144.5402,-10.3867 1.369,-8.99063 149.9818,1.43503 154.7828,-7.52275 4.801,-8.95778 -153.4184,-1.46792 -152.7851,-10.46556 0.6333,-8.99763 157.5836,1.50776 161.7624,-7.45594 4.1789,-8.9637 -161.1332,-1.54173 -161.2009,-10.54605 -0.068,-9.00432 165.3775,1.58233 168.9533,-7.38712 3.5757,-8.96944 -169.0247,-1.61723 -169.7629,-10.62793 -0.7381,-9.01071 75.6292,0.72361 80.803,-8.23052 5.1737,-8.95412 -81.5444,-0.78022 -82.9255,-9.79705 -1.3812,-9.01682 88.1001,0.84293 92.7696,-8.11599 4.6696,-8.95892 -94.1537,-0.90086 -96.1533,-9.92358 -1.9995,-9.02271 100.8238,0.96467 104.9822,-7.99912 4.1585,-8.96378 -106.9844,-1.02362 -109.58,-10.05201 -2.5956,-9.02839 113.7395,1.08824 117.3795,-7.88048 3.6401,-8.96872 -119.9776,-1.14794 -123.1489,-10.18181 -3.1714,-9.03387 126.79,1.2131 129.9036,-7.76062 3.1137,-8.97373 -133.0772,-1.27327 -136.8058,-10.31245 -3.7285,-9.03917 139.9206,1.33873 142.4992,-7.64009 2.5786,-8.97882 -146.2297,-1.3991 -150.4982,-10.44342 -4.2685,-9.04431 153.078,1.46461 155.1122,-7.51939 2.0341,-8.984 -159.9266,-1.53015 -163.6314,-10.56904 -3.7048,-9.03889 165.6669,1.58506 167.1464,-7.40422 1.4794,-8.98928 -165.013,-1.57881 -158.0368,-10.51548 6.9762,-8.93668 159.5177,1.52621 160.4313,-7.46845 0.9136,-8.99467 -153.4747,-1.46841 -147.2276,-10.41204 6.2472,-8.94362 148.1428,1.41739 148.4781,-7.58279 0.3352,-9.00017 -142.2359,-1.36086 -136.6299,-10.3106 5.606,-8.94973 136.9669,1.31045 136.7102,-7.69536 -0.2568,-9.00581 -131.1047,-1.25437 -126.1192,-10.21001 4.9855,-8.95564 125.8645,1.20422 125.0004,-7.80737 -0.8641,-9.01159 -120.0132,-1.14825 -115.6535,-10.10985 4.3597,-8.96159 114.7917,1.09828 113.3031,-7.91926 -1.4886,-9.01754 -108.9399,-1.0423 -105.227,-10.01006 3.7129,-8.96775 103.741,0.99255 101.6084,-8.03112 -2.1326,-9.02368 -97.8906,-0.93659 -94.858,-9.91083 3.0325,-8.97424 92.7284,0.88718 89.9294,-8.14284 -2.7989,-9.03002 -86.8904,-0.83133 -84.5837,-9.81249 2.3068,-8.98116 81.7883,0.78251 78.2972,-8.25411 -3.4911,-9.03661 -75.9823,-0.72697 -74.4598,-9.7156 1.5226,-8.98863 70.9728,0.67903 66.7592,-8.36447 -4.2137,-9.0435 -65.2264,-0.62406 -64.5615,-9.62087 0.6648,-8.99681 60.3528,0.57741 55.3802,-8.47332 -4.9727,-9.05072 -54.7025,-0.52337 -54.9873,-9.52924 -0.2848,-9.00586 50.0208,0.47857 44.2446,-8.57983 -5.7762,-9.05839 -44.5132,-0.42588 -45.8635,-9.44191 -1.3503,-9.01604 40.0953,0.3836 33.4591,-8.683 -6.6361,-9.06659 -34.7886,-0.33284 -37.3522,-9.36045 -2.5637,-9.02762 30.7268,0.29396 23.1565,-8.78153 -7.5703,-9.07549 -25.6928,-0.24583 -29.6618,-9.28686 -3.969,-9.04103 22.1071,0.2115 13.4986,-8.87391 -8.6084,-9.08541 -17.4306,-0.16677 -23.0609,-9.22367 -5.6303,-9.0569 14.478,0.13849 4.6708,-8.95834 -9.8072,-9.09683 -10.2491,-0.0981 -17.8936,-9.1742 -7.6445,-9.07614 8.1403,0.0779 -3.1666,-9.03329 -11.307,-9.11117 -4.401,-0.0421 -14.5686,-9.14237 -10.1676,-9.10025 -3.3935,-4.53395 -3.3935,-4.53395 m -176.5407,682.57641 c 0,0 36.4274,4.85056 36.197,-4.15566 -0.2304,-9.00622 -36.0822,-0.34525 -35.8525,-9.34705 0.2298,-9.0018 35.6221,0.34083 35.3916,-8.66536 -0.2304,-9.00619 -35.1618,-0.33644 -34.9319,-9.33821 0.23,-9.00177 34.7015,0.33202 34.471,-8.67414 -0.2304,-9.00616 -34.241,-0.32763 -34.011,-9.32938 0.2301,-9.00174 33.7806,0.32321 33.5501,-8.68291 -0.2304,-9.00613 -33.32,-0.31882 -33.0899,-9.32054 0.2301,-9.00171 32.8595,0.3144 32.629,-8.6917 -0.2304,-9.0061 -32.3988,-0.31 -32.1686,-9.31169 0.2302,-9.00169 31.9382,0.30558 31.7077,-8.7005 -0.2304,-9.00607 -31.4775,-0.30119 -31.2473,-9.30284 0.2303,-9.00166 31.0169,0.29676 30.7864,-8.70929 -0.2304,-9.00604 -30.5561,-0.29237 -30.3258,-9.294 0.2303,-9.00163 30.0954,0.28795 29.8649,-8.71807 -0.2304,-9.00602 -29.5196,-4.78435 -29.5196,-4.78435 m 85.3376,54.83964 c 0,0 3.7122,4.53746 -4.9307,-4.54912 -8.6428,-9.08659 2.6208,0.0251 -1.9993,-9.02302 -4.6202,-9.04808 -6.6435,-0.0636 -15.2865,-9.15013 -8.6429,-9.08655 10.6663,0.10205 6.0462,-8.946 -4.6201,-9.04805 -14.6891,-0.14056 -23.3322,-9.22709 -8.6431,-9.08653 18.7121,0.17904 14.092,-8.86898 -4.6201,-9.04803 -27.0572,-4.7608 -27.0572,-4.7608 m -86.9365,53.19129 c 0,0 -3.473,4.46871 1.1021,-4.4914 4.575,-8.96011 3.1413,0.03 11.6279,-8.89262 8.4865,-8.92268 -7.0529,-0.0675 -2.4779,-9.02758 4.5751,-8.96008 10.9644,0.10491 19.4512,-8.81774 8.4869,-8.92264 -14.8761,-0.14234 -10.3011,-9.1024 4.575,-8.96006 18.7878,0.17976 27.2754,-8.74285 8.4876,-8.9226 -22.7004,-0.2172 -18.1254,-9.17723 4.575,-8.96003 80.8214,0.7733 76.2013,-8.2747 -4.6201,-9.04799 -50.4999,-0.48319 -88.1777,-9.84748 -37.6779,-9.36428 85.3383,0.81653 143.5302,-7.63045 58.1919,-8.44698 -252.1983,-2.41307 -194.0287,-10.86024 58.1696,-8.44718 212.5792,2.03397 160.7729,-7.46546 -51.8064,-9.49942 -88.8488,-0.85011 -92.1336,-9.88526 -3.2847,-9.03515 67.8616,0.64929 71.124,-8.3232 3.2624,-8.97249 -24.2685,-0.23221 -18.1396,-9.17726 6.1289,-8.94505 21.402,0.20476 24.6643,-8.7677 3.2624,-8.97246 -18.5354,-0.17735 -12.4067,-9.12238 6.1288,-8.94503 15.6691,0.14992 18.9315,-8.82252 3.2623,-8.97244 -12.8027,-0.12251 -6.674,-9.0675 6.1287,-8.945 9.9363,0.0951 13.1987,-8.87735 3.2624,-8.97241 -7.07,-0.0676 -0.9413,-9.01263 6.1286,-8.94497 5.8347,-4.44597 5.8347,-4.44597 m 226.9075,128.22289 c 0,0 35.7877,4.84432 40.4858,-4.11452 4.698,-8.95885 -34.3114,-0.3283 -25.8004,-9.25065 8.5109,-8.92235 30.4905,0.29173 34.598,-8.67274 4.1075,-8.96446 -26.2397,-0.25107 -19.5128,-9.19046 6.727,-8.93939 23.6145,0.22594 27.1861,-8.74363 3.5717,-8.96956 -20.5113,-0.19625 -14.8293,-9.14562 5.6821,-8.94936 18.3971,0.17602 21.4716,-8.79827 3.0745,-8.9743 -15.8162,-0.15134 -10.8766,-9.10778 4.9397,-8.95643 13.9493,0.13346 16.5496,-8.84533 2.6004,-8.97879 -11.6261,-0.11126 -7.2611,-9.07316 4.365,-8.96191 9.8629,0.0944 11.9917,-8.88893 2.1287,-8.9833 -7.6376,-0.0731 -3.7402,-9.03944 3.8974,-8.96635 5.8795,0.0562 7.4949,-8.93192 1.6154,-8.98818 -3.6053,-0.0345 -0.1012,-9.00459 3.5041,-8.97009 2.195,-4.48081 2.195,-4.48081 m -660.409,119.733 c 0,0 134.8757,5.79239 131.6053,-3.24268 -3.2704,-9.03508 -135.1231,-1.29288 -141.4397,-10.35709 -6.3166,-9.06421 138.1766,1.32208 135.7595,-7.70481 -2.4171,-9.02689 -142.0724,-1.35937 -147.6922,-10.41688 -5.6198,-9.05752 145.2812,1.39005 143.6637,-7.62916 -1.6175,-9.0192 -149.2802,-1.42833 -154.2311,-10.47941 -4.9508,-9.05109 152.6189,1.46026 151.7551,-7.55171 -0.8638,-9.01197 -156.703,-1.49935 -161.01,-10.54425 -4.3071,-9.0449 160.1509,1.53232 160.0009,-7.47279 -0.15,-9.00511 -164.3053,-1.57208 -167.9911,-10.61101 -3.6858,-9.03892 167.8452,1.60594 168.3741,-7.39265 0.5289,-8.99859 -72.6115,-0.69475 -77.9621,-9.74958 -5.3505,-9.05483 78.4947,0.75103 79.6714,-8.24134 1.1767,-8.99236 -85.0226,-0.8135 -89.8539,-9.86333 -4.8313,-9.04983 91.0339,0.871 92.8307,-8.1154 1.7968,-8.9864 -97.6627,-0.93444 -101.9695,-9.97922 -4.3068,-9.04479 103.7693,0.99285 106.1611,-7.98784 2.3918,-8.98068 -110.4687,-1.05696 -114.2452,-10.09664 -3.7765,-9.03968 116.6397,1.11599 119.6038,-7.85919 2.9642,-8.97518 -123.3811,-1.1805 -126.6211,-10.21502 -3.2399,-9.03453 129.5877,1.23986 133.1035,-7.73001 3.5158,-8.96987 -136.3443,-1.30452 -139.0407,-10.33382 -2.6965,-9.02929 142.5588,1.36397 146.6072,-7.60078 4.0484,-8.96475 -149.3047,-1.42852 -151.4501,-10.45252 -2.1455,-9.02399 155.5006,1.48779 160.0641,-7.472 4.5636,-8.95979 -162.2106,-1.552 -163.7967,-10.57062 -1.5861,-9.01861 169.9567,1.6261 162.5382,-7.44831 -7.4185,-9.0744 -164.1255,-1.57031 -165.1431,-10.58346 -1.0176,-9.01315 157.7651,1.50945 151.1967,-7.5568 -6.5685,-9.06625 -152.2157,-1.45636 -152.6546,-10.46395 -0.4389,-9.00758 146.0947,1.39778 140.2113,-7.66188 -5.8834,-9.05965 -140.6517,-1.34571 -140.5005,-10.34763 0.1511,-9.00191 134.6191,1.28799 129.3815,-7.76547 -5.2376,-9.05345 -129.2321,-1.23645 -128.4782,-10.23257 0.7539,-8.99611 123.2397,1.17911 118.6441,-7.86818 -4.5956,-9.04728 -117.8921,-1.12795 -116.5212,-10.11814 1.371,-8.99018 111.9228,1.07083 107.9839,-7.97015 -3.939,-9.04097 -106.6151,-1.02005 -104.6107,-10.00415 2.0044,-8.9841 100.6674,0.96314 97.4133,-8.07126 -3.2541,-9.03439 -95.4114,-0.91286 -92.7549,-9.89069 2.6566,-8.97783 89.4951,0.85624 86.9659,-8.17119 -2.5293,-9.02743 -84.3123,-0.80667 -80.9819,-9.77802 3.3305,-8.97136 78.4453,0.75052 76.6932,-8.26945 -1.7522,-9.01997 -73.3662,-0.70194 -69.3364,-9.66658 4.0299,-8.96463 67.575,0.64652 66.6658,-8.36536 -0.9092,-9.01187 -62.6401,-0.59931 -57.8803,-9.55693 4.7599,-8.95763 56.9597,0.54495 56.9756,-8.45805 0.016,-9.003 -52.2209,-0.49962 -46.6937,-9.44988 5.5271,-8.95026 46.6953,0.44674 47.7389,-8.54639 1.0436,-8.99314 -42.2184,-0.40393 -35.8771,-9.34637 6.3413,-8.94244 36.9026,0.35305 39.103,-8.62899 2.2004,-8.98204 -32.7704,-0.31353 -25.5541,-9.24757 7.2164,-8.93404 27.7312,0.26531 31.2534,-8.70406 3.5222,-8.96937 -24.0494,-0.23008 -15.8743,-9.15493 8.1751,-8.92486 19.3658,0.18526 24.4247,-8.76938 5.059,-8.95464 -16.269,-0.15566 -7.0105,-9.07011 9.2585,-8.91445 12.0277,0.11507 18.9113,-8.82208 6.8836,-8.93716 -9.6895,-0.0927 0.8678,-8.9947 10.5574,-8.902 5.9566,0.057 15.0643,-8.85887 9.1076,-8.91585 -4.6259,-0.0443 7.7756,-8.92859 12.4015,-8.88432 7.2,-4.4326 7.2,-4.4326 m 165.9363,478.76422 c 0,0 -25.8362,4.25464 -25.6058,-4.74683 0.2304,-9.00147 25.4908,0.2439 25.2604,-8.76199 -0.2305,-9.00588 -25.03,-0.23949 -24.7996,-9.24095 0.2304,-9.00146 24.5691,0.23507 24.3387,-8.77079 -0.2304,-9.00585 -24.1083,-0.23067 -23.8779,-9.23211 0.2303,-9.00143 23.6475,0.22625 23.4171,-8.77957 -0.2304,-9.00583 -23.1868,-0.22186 -22.9564,-9.22327 0.2304,-9.0014 22.726,0.21744 22.4956,-8.78836 -0.2304,-9.0058 -22.2652,-0.21304 -22.0349,-9.21442 0.2304,-9.00138 21.8045,0.20862 21.5742,-8.79716 -0.2304,-9.00577 -21.3438,-0.20422 -21.1135,-9.20557 0.2303,-9.00135 20.8831,0.1998 20.6527,-8.80595 -0.2304,-9.00574 -20.4224,-0.1954 -20.192,-9.19673 0.2303,-9.00132 19.9616,0.19099 19.7313,-8.81473 -0.2304,-9.00572 -19.501,-0.18659 -19.2707,-9.18788 0.2304,-9.0013 19.0403,0.18216 18.8099,-8.82353 -0.2303,-9.00569 -18.5795,-0.17777 -18.3492,-9.17904 0.2303,-9.00127 18.1189,0.17335 17.8885,-8.83231 -0.2304,-9.00566 -17.6582,-0.16896 -17.4279,-9.1702 0.2303,-9.00124 17.1975,0.16454 16.9672,-8.8411 -0.2304,-9.00563 -16.7369,-0.16014 -16.5066,-9.16135 0.2304,-9.00121 16.2762,0.15572 16.0459,-8.84989 -0.2304,-9.0056 -15.8155,-0.15132 -15.5852,-9.15251 0.2303,-9.00118 15.3548,0.14691 15.1245,-8.85867 -0.2304,-9.00558 -14.8942,-0.14251 -14.6639,-9.14367 0.2303,-9.00116 14.4335,0.13809 14.2032,-8.86746 -0.2304,-9.00555 -13.9729,-0.1337 -13.7426,-9.13483 0.2303,-9.00113 13.5122,0.12928 13.2819,-8.87625 -0.2304,-9.00552 -13.0516,-0.12488 -12.8213,-9.12598 0.2303,-9.0011 12.5909,0.12046 12.3606,-8.88504 -0.2303,-9.00549 -12.1303,-0.11606 -11.9,-9.11714 0.2303,-9.00107 11.6697,0.11165 11.4393,-8.89382 -0.2303,-9.00547 -11.209,-0.10725 -10.9787,-9.1083 0.2303,-9.00105 10.7484,0.10283 10.518,-8.90261 -0.2303,-9.00544 -10.2877,-0.0984 -10.0574,-9.09946 0.2303,-9.00101 9.8271,0.094 9.5967,-8.91139 -0.2303,-9.00542 -9.3664,-0.0896 -9.1361,-9.09062 0.2303,-9.00099 8.9058,0.0852 8.6755,-8.92018 -0.2304,-9.00539 -8.4452,-0.0808 -8.2149,-9.08177 0.2303,-9.00097 7.9845,0.0764 7.7542,-8.92897 -0.2304,-9.00536 -7.5239,-0.072 -7.2936,-9.07293 0.2303,-9.00094 7.0632,0.0676 6.8329,-8.93776 -0.2303,-9.00533 -6.6026,-0.0632 -6.3723,-9.06409 0.2303,-9.00091 6.142,0.0588 5.9116,-8.94654 -0.2303,-9.00531 -5.6813,-0.0544 -5.451,-9.05525 0.2303,-9.00088 5.2207,0.0499 4.9903,-8.95533 -0.2303,-9.00528 -4.76,-0.0455 -4.5297,-9.0464 0.2303,-9.00085 4.2994,0.0411 4.069,-8.96412 -0.2303,-9.00523 -3.8387,-0.0367 -3.6084,-9.03755 0.2304,-9.00084 3.3781,0.0323 3.1477,-8.97292 -0.2304,-9.00521 -2.9173,-0.0279 -2.687,-9.02871 0.2303,-9.0008 2.4566,0.0235 2.2262,-8.98171 -0.2303,-9.0052 -1.9959,-0.0191 -1.7655,-9.01987 0.2304,-9.00075 1.5352,0.0147 1.3047,-8.99048 -0.2304,-9.00516 -1.0743,-0.0103 -0.8438,-9.01102 0.2305,-9.00075 0.5725,0.005 0.4238,-8.99889 -0.1487,-9.00435 -0.081,-4.50223 -0.081,-4.50223 m -16.1187,504.03129 c 0,0 -21.2526,4.2985 -24.5374,-4.73662 -3.2847,-9.03513 21.4328,0.20506 15.2236,-8.85803 -6.2092,-9.06308 -18.5083,-0.17709 -21.793,-9.21219 -3.2847,-9.03509 15.5838,0.1491 9.3747,-8.91396 -6.209,-9.06306 -12.6594,-0.12113 -15.9441,-9.1562 -3.2848,-9.03506 9.7351,0.0932 3.5261,-8.96989 -6.209,-9.06303 -6.8109,-0.0652 -10.0956,-9.10021 -3.2847,-9.03504 0.7819,-4.49432 0.7819,-4.49432 m -189.8697,25.1942 c 0,0 -95.9563,3.58371 -99.0411,-5.44944 -3.0849,-9.03315 94.5617,0.90476 86.8548,-8.1726 -7.7069,-9.07736 -89.9376,-0.86053 -92.4395,-9.88807 -2.502,-9.02754 84.7599,0.81097 77.9836,-8.25746 -6.7763,-9.06843 -80.4837,-0.77007 -82.4187,-9.79216 -1.9351,-9.02209 75.6517,0.72382 69.6723,-8.33695 -5.9794,-9.06078 -71.6058,-0.68512 -72.9877,-9.7019 -1.3819,-9.01677 67.0121,0.64116 61.7794,-8.41244 -5.2328,-9.05361 -63.16,-0.60432 -64.0007,-9.61588 -0.8407,-9.01157 58.7691,0.56229 54.2638,-8.48433 -4.5054,-9.04662 -55.1034,-0.52723 -55.4126,-9.53368 -0.3091,-9.00645 50.9068,0.48706 47.126,-8.55259 -3.7808,-9.03966 -47.4343,-0.45385 -47.2193,-9.45526 0.2151,-9.00141 43.4369,0.41559 40.3886,-8.61703 -3.0482,-9.03262 -40.1731,-0.38438 -39.4387,-9.38079 0.7343,-8.99641 36.388,0.34815 34.0884,-8.67728 -2.2995,-9.02543 -33.354,-0.31913 -32.1023,-9.31056 1.2518,-8.99144 29.7995,0.2851 28.2719,-8.73291 -1.5275,-9.01802 -27.0206,-0.25853 -25.2495,-9.24497 1.771,-8.98644 23.7178,0.22691 22.9921,-8.7834 -0.7257,-9.01031 -21.2223,-0.20305 -18.9254,-9.18443 2.2969,-8.98139 18.1947,0.17407 18.3073,-8.8282 0.1126,-9.00226 -16.0127,-0.15321 -13.1762,-9.1294 2.8364,-8.97619 13.2829,0.12708 14.2771,-8.86672 0.9943,-8.9938 -11.4447,-0.1095 -8.0439,-9.08027 3.4008,-8.97077 9.0313,0.0864 10.9581,-8.89845 1.9269,-8.98485 -7.565,-0.0724 -3.5542,-9.03728 4.0108,-8.96491 5.4731,0.0523 8.3922,-8.92298 2.9191,-8.97533 -4.3992,-0.0421 0.3173,-9.00021 4.7166,-8.95812 2.5924,0.0248 6.5733,-8.94035 3.9808,-8.96515 0.9387,-4.49264 0.9387,-4.49264 m 573.5994,266.58752 c 0,0 92.8926,5.39061 95.8824,-3.58441 2.9897,-8.97503 -91.6789,-0.87719 -84.3141,-9.81034 7.3648,-8.93315 87.302,0.8353 89.721,-8.14516 2.4189,-8.98046 -82.3752,-0.78817 -75.8597,-9.72942 6.5156,-8.94125 78.277,0.74895 80.1385,-8.23682 1.8614,-8.98576 -73.6299,-0.70449 -67.8671,-9.65291 5.7627,-8.94842 69.7272,0.66713 71.0426,-8.32383 1.3154,-8.99096 -65.2826,-0.62462 -60.236,-9.57986 5.0467,-8.95525 61.5504,0.58889 62.3293,-8.40717 0.779,-8.99607 -57.2831,-0.54808 -52.9408,-9.51004 4.3422,-8.96196 53.719,0.51396 53.9691,-8.48713 0.2501,-9.0011 -49.6259,-0.47482 -45.9905,-9.44352 3.6354,-8.96869 46.24,0.44241 45.9666,-8.56367 -0.2735,-9.00608 -42.3292,-0.405 -39.4131,-9.38055 2.9161,-8.97555 39.1395,0.37447 38.3453,-8.63656 -0.7942,-9.01104 -35.4262,-0.33896 -33.2498,-9.32156 2.1764,-8.98259 32.4559,0.31052 31.1408,-8.70546 -1.3151,-9.01599 -28.9605,-0.2771 -27.5512,-9.26701 1.4094,-8.98991 26.2368,0.25102 24.3968,-8.76996 -1.8401,-9.02098 -22.9827,-0.2199 -22.3748,-9.21745 0.6079,-8.99755 20.5363,0.19648 18.1619,-8.82959 -2.3743,-9.02608 -17.5484,-0.16791 -17.7835,-9.1735 -0.2351,-9.00558 15.412,0.14745 12.4865,-8.88386 -2.9255,-9.03132 -12.7149,-0.12166 -13.8422,-9.13576 -1.1274,-9.01409 10.9215,0.10449 7.4154,-8.93236 -3.5061,-9.03684 -8.5349,-0.0817 -10.6126,-9.10482 -2.0777,-9.02316 7.1156,0.0681 2.9751,-8.97481 -4.1405,-9.04289 -5.0436,-0.0483 -8.1398,-9.08114 -3.0963,-9.03288 4.0216,0.0385 -0.8699,-9.01157 -4.8915,-9.05004 -2.2155,-0.0212 -6.4105,-9.06457 -4.1949,-9.04336 -1.4163,-4.51516 -1.4163,-4.51516 m -318.4956,-192.1117 c 0,0 -0.01,-5e-5 -0.01,-5e-5"
       inkscape:path-effect="#path-effect5967"
       inkscape:original-d="m 1612.9715,686.78505 c 8.1637,-11.91419 51.7228,-75.49022 51.7228,-75.49022 0,0 -33.1973,91.30205 -33.1973,91.30205 0,0 102.9188,14.94506 102.9188,14.94506 0,0 -102.9188,14.93941 -102.9188,14.93941 0,0 39.8399,78.02259 39.8399,78.02259 0,0 -49.7046,-52.25677 -56.7282,-59.63865 2.895,113.13614 3.6074,140.98111 3.6074,140.98111 0,0 253.9813,-117.86669 112.8798,-378.49335 0,0 175.9644,-194.22648 16.6022,-313.74884 0,0 272.2434,164.34343 99.6017,446.54922 0,0 142.76,-139.4387 68.0601,-280.54588 0,0 129.4806,182.60694 -28.2217,383.47316 0,0 43.1611,-26.5646 81.341,-127.82628 0,0 -27.8506,301.45653 -365.1189,305.41094 0,0.0396 0,0.0396 0,0.0396 -1.1246,0 -2.2421,0 -3.3624,-0.006 -1.1161,0.006 -2.2378,0.006 -3.3595,0.006 0,0 0,0 0,-0.0396 -337.2669,-3.95441 -365.1176,-305.41094 -365.1176,-305.41094 38.1785,101.26168 81.3368,127.82628 81.3368,127.82628 -157.6994,-200.86622 -28.2189,-383.47316 -28.2189,-383.47316 -74.7027,141.10718 68.063,280.54588 68.063,280.54588 -172.6445,-282.20579 99.5961,-446.54922 99.5961,-446.54922 -159.3594,119.52236 16.605,313.74884 16.605,313.74884 -141.1001,260.62666 112.8811,378.49335 112.8811,378.49335 0,0 0.7082,-27.84497 3.6032,-140.98111 -7.025,7.38188 -56.7267,59.63865 -56.7267,59.63865 0,0 39.8384,-78.02259 39.8384,-78.02259 0,0 -102.9159,-14.93941 -102.9159,-14.93941 0,0 102.9159,-14.94506 102.9159,-14.94506 0,0 -33.193,-91.30205 -33.193,-91.30205 0,0 43.5548,63.57603 51.7186,75.49022 3.6994,-144.51063 12.8715,-503.07486 12.9169,-504.76737 0.016,-3.97562 0.016,-3.99829 0.016,-3.99829 0,0 0,0.004 0.04,1.65286 0.044,-1.64862 0.044,-1.65286 0.044,-1.65286 0,0 0,0.024 0.016,3.99829 0.074,2.82839 9.2231,360.58534 12.9126,504.76737 0,0 0,0 0,0 z" />
  </g>
  <eggbot
     id="eggbot6027"
     totaldeltay="0"
     totaldeltax="0"
     lastpathnc="0"
     lastpath="0"
     node="0"
     layer="0"
     serialport="/dev/ttyACM0" />
</svg>
