<?xml version="1.0" encoding="UTF-8" standalone="no"?>
<svg
   xmlns:dc="http://purl.org/dc/elements/1.1/"
   xmlns:cc="http://creativecommons.org/ns#"
   xmlns:rdf="http://www.w3.org/1999/02/22-rdf-syntax-ns#"
   xmlns:svg="http://www.w3.org/2000/svg"
   xmlns="http://www.w3.org/2000/svg"
   xmlns:sodipodi="http://sodipodi.sourceforge.net/DTD/sodipodi-0.dtd"
   xmlns:inkscape="http://www.inkscape.org/namespaces/inkscape"
   version="1.0"
   width="600"
   height="600.00006"
   id="s1"
   inkscape:version="0.48+devel r"
   sodipodi:docname="Imperial_Emblem.svg">
  <sodipodi:namedview
     pagecolor="#ffffff"
     bordercolor="#666666"
     borderopacity="1"
     objecttolerance="10"
     gridtolerance="10"
     guidetolerance="10"
     inkscape:pageopacity="0"
     inkscape:pageshadow="2"
     inkscape:window-width="1280"
     inkscape:window-height="973"
     id="namedview3459"
     showgrid="false"
     inkscape:zoom="1.0266666"
     inkscape:cx="294.43682"
     inkscape:cy="267.80882"
     inkscape:window-x="0"
     inkscape:window-y="24"
     inkscape:window-maximized="1"
     inkscape:current-layer="s1" />
  <metadata
     id="metadata3463">
    <rdf:RDF>
      <cc:Work
         rdf:about="">
        <dc:format>image/svg+xml</dc:format>
        <dc:type
           rdf:resource="http://purl.org/dc/dcmitype/StillImage" />
      </cc:Work>
    </rdf:RDF>
  </metadata>
  <defs
     id="defs3461">
    <inkscape:path-effect
       back_thickness="0.25"
       front_thickness="1"
       stroke_width_bottom="1"
       stroke_width_top="1"
       fat_output="false"
       bottom_smth_variation="0;1"
       top_smth_variation="0;1"
       scale_tb="2"
       scale_tf="2"
       scale_bb="2"
       scale_bf="2"
       top_tgt_variation="0;1"
       bottom_tgt_variation="0;1"
       top_edge_variation="0;1"
       bottom_edge_variation="0;1"
       bender="299.99986,299.9996 , 5,0"
       do_bend="true"
       growth="0"
       dist_rdm="0;1"
       direction="299.99986,294.9996 , 150,0"
       is_visible="true"
       id="path-effect4236"
       effect="rough_hatches" />
  </defs>
  <path
     d="m 299.99984,-4.2e-4 c -165.59998,0 -299.99998,134.40004 -299.99998,300.00004 0,165.6 134.39998,300.00004 299.99998,300 165.6,0 300.00002,-134.39996 300.00002,-300 0,-165.60002 -134.40002,-300.00004 -300.00002,-300.00004 z m -14.15816,24.87248 c 0.1688,-0.009 0.34134,0.008 0.5102,0 l 1.27552,20.34438 c -17.30332,0.82496 -34.14468,3.34834 -50.38266,7.46174 l 5.03828,19.8342 c -42.62194,10.79592 -80.5854,33.2414 -110.33164,63.7755 l -14.6046,-14.2857 C 105.46856,134.18814 94.84904,147.57392 85.5866,161.92564 L 68.49476,150.63736 C 115.17574,78.46006 194.69014,29.49748 285.84168,24.87206 z m 27.80612,0 c 91.36348,4.46928 171.08974,53.45432 217.85716,125.7653 l -17.09184,11.28828 C 505.1715,147.61006 494.56174,134.2264 482.71668,122.06594 L 468.1121,136.28788 C 438.36122,105.73748 400.3535,83.31204 357.7167,72.51238 l 5.03826,-19.8342 C 346.51698,48.56478 329.67564,46.0414 312.3723,45.21644 l 1.2755,-20.34438 z m -13.64796,89.92346 c 8.67348,-0.0199 17.34698,0.5102 24.48982,1.53064 l -11.16072,92.85714 c 23.45946,3.42092 44.02786,15.6988 58.22704,33.35458 l 74.48978,-55.86736 c 9.0481,11.2718 19.30572,28.95476 24.68114,42.34696 l -85.58674,36.60712 c 4.3019,10.62846 6.69644,22.21 6.69644,34.37502 0,11.7196 -2.17876,22.9187 -6.18624,33.22704 l 84.8852,36.28828 c -5.23758,13.47174 -15.3882,31.12314 -24.29846,42.47448 l -73.9796,-55.35714 c -14.1803,18.0591 -34.98424,30.66998 -58.73726,34.18366 l 10.96942,91.32654 c -14.28572,2.19998 -34.69388,2.1684 -48.9796,0.12756 l 10.96938,-91.4541 C 262.70928,387.29972 241.92318,374.64852 227.7422,356.5685 l -73.78826,55.35714 c -9.04808,-11.2718 -19.3057,-28.95476 -24.68114,-42.34694 l 85.07654,-36.41582 c -3.99384,-10.29306 -6.18622,-21.46466 -6.18622,-33.16326 0,-12.18602 2.38038,-23.79538 6.69642,-34.43878 l -85.3954,-36.4796 c 5.2376,-13.47174 15.3882,-31.12314 24.29848,-42.4745 l 74.6811,55.93114 C 242.6429,224.8821 263.2113,212.60422 286.67078,209.1833 l -11.16072,-92.72962 c 7.14286,-1.09998 15.81632,-1.63826 24.48978,-1.65816 z m -245.15304,59.4388 18.36734,9.05612 c -7.74674,15.01834 -14.08054,30.87462 -18.75,47.44896 l 19.64286,5.54848 c -5.71048,20.26526 -8.80102,41.62812 -8.80102,63.71174 0,22.10504 3.07982,43.49278 8.80102,63.7755 l -19.64286,5.54848 c 4.66624,16.54766 11.01278,32.38996 18.75,47.3852 L 54.8468,425.76492 C 35.44862,388.05358 24.48966,345.30044 24.48966,299.99962 c 0,-45.30084 10.95896,-88.05396 30.35714,-125.7653 z m 490.30612,0 c 19.39818,37.71134 30.3571,80.46446 30.3571,125.7653 0,45.30082 -10.95892,88.05396 -30.3571,125.7653 l -18.36736,-9.05612 c 7.7405,-14.9997 14.08224,-30.83214 18.75002,-47.3852 l -19.64286,-5.54848 c 5.72118,-20.28272 8.80102,-41.67046 8.80102,-63.7755 0,-22.08362 -3.09052,-43.44648 -8.80102,-63.71174 l 19.64286,-5.54848 c -4.66816,-16.5697 -11.00646,-32.43422 -18.75002,-47.44896 l 18.36736,-9.05612 z M 85.5866,438.07362 c 9.26598,14.35144 19.88144,27.73692 31.76018,39.92346 l 14.6046,-14.28572 c 29.74624,30.53408 67.7097,52.9796 110.33164,63.77552 l -5.03828,19.83416 c 16.23798,4.11338 33.07934,6.6368 50.38266,7.46176 l -1.27552,20.34438 C 194.98844,570.65786 115.26216,521.67282 68.49476,449.36188 L 85.5866,438.07362 z m 428.8903,0 17.02806,11.28826 C 484.73754,521.67282 405.01128,570.65786 313.6478,575.12718 l -1.2755,-20.34438 c 17.30334,-0.82496 34.14468,-3.34838 50.38266,-7.46176 l -5.03826,-19.83416 c 42.6368,-10.7997 80.64452,-33.22514 110.3954,-63.77552 l 14.60458,14.22194 c 11.85988,-12.17568 22.5073,-25.52476 31.76022,-39.85968 z"
     style="fill:none;fill-opacity:1;stroke:#000000;display:inline;stroke-opacity:1;stroke-width:4;stroke-miterlimit:4;stroke-dasharray:none"
     id="p1"
     inkscape:connector-curvature="0" />
</svg>
