<?xml version="1.0" encoding="UTF-8" standalone="no"?>
<!-- Created with Inkscape (http://www.inkscape.org/) -->

<svg
   xmlns:dc="http://purl.org/dc/elements/1.1/"
   xmlns:cc="http://creativecommons.org/ns#"
   xmlns:rdf="http://www.w3.org/1999/02/22-rdf-syntax-ns#"
   xmlns:svg="http://www.w3.org/2000/svg"
   xmlns="http://www.w3.org/2000/svg"
   xmlns:sodipodi="http://sodipodi.sourceforge.net/DTD/sodipodi-0.dtd"
   xmlns:inkscape="http://www.inkscape.org/namespaces/inkscape"
   width="3200"
   height="1000"
   id="svg27345"
   version="1.1"
   inkscape:version="0.48+devel r"
   sodipodi:docname="yin_yang.svg">
  <sodipodi:namedview
     id="base"
     pagecolor="#ffffff"
     bordercolor="#666666"
     borderopacity="1.0"
     inkscape:pageopacity="0.0"
     inkscape:pageshadow="2"
     inkscape:zoom="1.0385631"
     inkscape:cx="1595.9461"
     inkscape:cy="527.75642"
     inkscape:document-units="px"
     inkscape:current-layer="layer1"
     showgrid="false"
     inkscape:window-width="1280"
     inkscape:window-height="973"
     inkscape:window-x="0"
     inkscape:window-y="24"
     inkscape:window-maximized="1" />
  <defs
     id="defs27347">
    <inkscape:path-effect
       back_thickness="0.25"
       front_thickness="1"
       stroke_width_bottom="1"
       stroke_width_top="1"
       fat_output="false"
       bottom_smth_variation="0;1"
       top_smth_variation="0;1"
       scale_tb="2"
       scale_tf="2"
       scale_bb="2"
       scale_bf="2"
       top_tgt_variation="0;1"
       bottom_tgt_variation="0;1"
       top_edge_variation="0;1"
       bottom_edge_variation="0;1"
       bender="1601.14,374.61012 , 5,0"
       do_bend="true"
       growth="0"
       dist_rdm="0;1"
       direction="1601.14,369.61012 , 22.468875,0"
       is_visible="true"
       id="path-effect13483"
       effect="rough_hatches" />
    <inkscape:perspective
       id="perspective27353"
       inkscape:persp3d-origin="372.04724 : 350.78739 : 1"
       inkscape:vp_z="744.09448 : 526.18109 : 1"
       inkscape:vp_y="0 : 1000 : 0"
       inkscape:vp_x="0 : 526.18109 : 1"
       sodipodi:type="inkscape:persp3d" />
    <inkscape:perspective
       sodipodi:type="inkscape:persp3d"
       inkscape:vp_x="0 : 250 : 1"
       inkscape:vp_y="0 : 1000 : 0"
       inkscape:vp_z="800 : 250 : 1"
       inkscape:persp3d-origin="400 : 166.66667 : 1"
       id="perspective3006" />
    <inkscape:perspective
       id="perspective3947"
       inkscape:persp3d-origin="0.5 : 0.33333333 : 1"
       inkscape:vp_z="1 : 0.5 : 1"
       inkscape:vp_y="0 : 1000 : 0"
       inkscape:vp_x="0 : 0.5 : 1"
       sodipodi:type="inkscape:persp3d" />
    <inkscape:perspective
       sodipodi:type="inkscape:persp3d"
       inkscape:vp_x="0 : 526.18109 : 1"
       inkscape:vp_y="0 : 1000 : 0"
       inkscape:vp_z="744.09448 : 526.18109 : 1"
       inkscape:persp3d-origin="372.04724 : 350.78739 : 1"
       id="perspective3960" />
    <inkscape:perspective
       id="perspective3947-5"
       inkscape:persp3d-origin="0.5 : 0.33333333 : 1"
       inkscape:vp_z="1 : 0.5 : 1"
       inkscape:vp_y="0 : 1000 : 0"
       inkscape:vp_x="0 : 0.5 : 1"
       sodipodi:type="inkscape:persp3d" />
    <inkscape:perspective
       sodipodi:type="inkscape:persp3d"
       inkscape:vp_x="0 : 526.18109 : 1"
       inkscape:vp_y="0 : 1000 : 0"
       inkscape:vp_z="744.09448 : 526.18109 : 1"
       inkscape:persp3d-origin="372.04724 : 350.78739 : 1"
       id="perspective3960-1" />
    <inkscape:perspective
       sodipodi:type="inkscape:persp3d"
       inkscape:vp_x="0 : 322 : 1"
       inkscape:vp_y="0 : 1000 : 0"
       inkscape:vp_z="420 : 322 : 1"
       inkscape:persp3d-origin="210 : 214.66667 : 1"
       id="perspective13001" />
    <inkscape:perspective
       id="perspective3947-57"
       inkscape:persp3d-origin="0.5 : 0.33333333 : 1"
       inkscape:vp_z="1 : 0.5 : 1"
       inkscape:vp_y="0 : 1000 : 0"
       inkscape:vp_x="0 : 0.5 : 1"
       sodipodi:type="inkscape:persp3d" />
    <inkscape:perspective
       sodipodi:type="inkscape:persp3d"
       inkscape:vp_x="0 : 526.18109 : 1"
       inkscape:vp_y="0 : 1000 : 0"
       inkscape:vp_z="744.09448 : 526.18109 : 1"
       inkscape:persp3d-origin="372.04724 : 350.78739 : 1"
       id="perspective3960-6" />
    <inkscape:perspective
       sodipodi:type="inkscape:persp3d"
       inkscape:vp_x="0 : 0.5 : 1"
       inkscape:vp_y="0 : 1000 : 0"
       inkscape:vp_z="1 : 0.5 : 1"
       inkscape:persp3d-origin="0.5 : 0.33333333 : 1"
       id="perspective14366" />
    <inkscape:perspective
       sodipodi:type="inkscape:persp3d"
       inkscape:vp_x="0 : 300 : 1"
       inkscape:vp_y="0 : 1000 : 0"
       inkscape:vp_z="590.60175 : 300 : 1"
       inkscape:persp3d-origin="295.30087 : 200 : 1"
       id="perspective14573" />
    <inkscape:perspective
       id="perspective3947-6"
       inkscape:persp3d-origin="0.5 : 0.33333333 : 1"
       inkscape:vp_z="1 : 0.5 : 1"
       inkscape:vp_y="0 : 1000 : 0"
       inkscape:vp_x="0 : 0.5 : 1"
       sodipodi:type="inkscape:persp3d" />
    <inkscape:perspective
       sodipodi:type="inkscape:persp3d"
       inkscape:vp_x="0 : 526.18109 : 1"
       inkscape:vp_y="0 : 1000 : 0"
       inkscape:vp_z="744.09448 : 526.18109 : 1"
       inkscape:persp3d-origin="372.04724 : 350.78739 : 1"
       id="perspective3960-7" />
    <inkscape:perspective
       sodipodi:type="inkscape:persp3d"
       inkscape:vp_x="0 : 233 : 1"
       inkscape:vp_y="0 : 1000 : 0"
       inkscape:vp_z="466 : 233 : 1"
       inkscape:persp3d-origin="233 : 155.33333 : 1"
       id="perspective17541" />
    <inkscape:perspective
       id="perspective3947-8"
       inkscape:persp3d-origin="0.5 : 0.33333333 : 1"
       inkscape:vp_z="1 : 0.5 : 1"
       inkscape:vp_y="0 : 1000 : 0"
       inkscape:vp_x="0 : 0.5 : 1"
       sodipodi:type="inkscape:persp3d" />
    <inkscape:perspective
       sodipodi:type="inkscape:persp3d"
       inkscape:vp_x="0 : 526.18109 : 1"
       inkscape:vp_y="0 : 1000 : 0"
       inkscape:vp_z="744.09448 : 526.18109 : 1"
       inkscape:persp3d-origin="372.04724 : 350.78739 : 1"
       id="perspective3960-5" />
  </defs>
  <metadata
     id="metadata27350">
    <rdf:RDF>
      <cc:Work
         rdf:about="">
        <dc:format>image/svg+xml</dc:format>
        <dc:type
           rdf:resource="http://purl.org/dc/dcmitype/StillImage" />
        <dc:title />
      </cc:Work>
    </rdf:RDF>
  </metadata>
  <g
     transform="translate(0,-52.36218)"
     id="layer1"
     inkscape:groupmode="layer"
     inkscape:label="Layer 1">
    <path
       transform="translate(0,52.36218)"
       id="path20139"
       d="M 1954.852 560.13243 L 1954.8364 560.14805 "
       style="fill:none;stroke:#000000;stroke-width:1;stroke-miterlimit:4;stroke-dasharray:none" />
    <path
       transform="translate(0,52.36218)"
       id="path19981"
       d="M 1574.791 643.50524 L 1574.9004 643.39585 "
       style="fill:none;stroke:#000000;stroke-width:1;stroke-miterlimit:4;stroke-dasharray:none" />
    <path
       transform="translate(0,52.36218)"
       id="path19979"
       d="M 1569.6192 648.67707 L 1574.791 643.50524 "
       style="fill:none;stroke:#000000;stroke-width:1;stroke-miterlimit:4;stroke-dasharray:none" />
    <path
       id="path18855"
       d="m 1527.2209,892.82732 -1.2187,-1.21875"
       style="fill:none;stroke:#000000;stroke-width:1;stroke-miterlimit:4;stroke-dasharray:none" />
    <path
       id="path18381"
       d="m 1768.2198,427.42581 -0.016,-0.0156"
       style="fill:none;stroke:#000000;stroke-width:1;stroke-miterlimit:4;stroke-dasharray:none" />
    <path
       id="path12971"
       d="m 1575.6727,910.60286 c -154.7979,-8.07216 -294.2,-128.65568 -325.9593,-280.03236 -29.2068,-126.38307 16.5377,-266.22889 115.6236,-350.17524 70.3011,-61.14467 164.7794,-93.37278 257.8437,-86.35825 147.3848,5.9839 282.3248,115.21504 322.0228,256.88199 16.2733,52.06184 16.2276,107.95308 9.6557,161.57424 -22.3944,136.54018 -129.7948,254.46682 -264.4522,287.4669 -37.2327,9.15073 -76.4536,13.9148 -114.7343,10.64272 z"
       style="fill:none;stroke:#204a87;stroke-width:1" />
    <path
       id="path12969"
       d="m 1520.5249,888.56781 c -65.668,-32.23414 -106.2649,-106.9096 -96.9527,-179.56481 7.4406,-85.6468 85.3562,-156.42265 170.9992,-157.95479 71.7015,2.21099 142.415,-42.37389 168.4654,-109.65988 31.193,-73.56826 4.231,-165.90538 -62.041,-210.83504 -54.3236,-40.04615 -127.0084,-31.55259 -188.8355,-17.63417 -142.9153,35.0289 -253.4152,168.88178 -261.3994,315.7019 -10.425,132.49814 62.5274,266.25096 179.2555,329.66574 29.2314,15.78742 70.7411,34.23794 98.088,34.61581 l -3.0249,-1.85098 -4.5546,-2.48378 0,0 z"
       style="fill:none;stroke:#204a87;stroke-width:1"
       inkscape:connector-curvature="0" />
    <path
       id="path12967"
       d="m 1590.4305,418.43935 c -36.1878,-6.95577 -47.1381,-60.0952 -15.9339,-80.23667 31.9799,-24.9091 82.1991,8.97512 69.5931,48.4484 -5.7892,22.72082 -30.931,37.05337 -53.6592,31.78827 z"
       style="fill:none;stroke:#204a87;stroke-width:1" />
    <path
       id="path1351"
       d="m 1608.5745,770.74103 c 44.3706,-5.54885 45.5558,-76.65898 1.2515,-83.37453 -35.0626,-9.18612 -65.5326,34.63469 -44.8588,64.50226 8.7783,13.29641 27.4761,23.84224 43.6073,18.87227 z"
       style="fill:none;stroke:#204a87;stroke-width:1" />
    <path
       inkscape:original-d="m 1590.4305,418.43935 c -36.1878,-6.95577 -47.1381,-60.0952 -15.9339,-80.23667 31.9799,-24.9091 82.1991,8.97512 69.5931,48.4484 -5.7892,22.72082 -30.931,37.05337 -53.6592,31.78827 z"
       inkscape:path-effect="#path-effect13483"
       style="fill:none;stroke:#204a87;stroke-width:1"
       d="m 1642.6643,358.06251 c 0,0 0.7191,7.15986 0.7306,15.42411 0.01,4.13212 -0.1642,8.54034 -0.6407,12.46772 -0.4764,3.92738 -1.2577,7.37392 -2.4384,9.58269 -1.1807,2.20876 -1.6934,0.63191 -1.8925,-3.06202 -0.1991,-3.69393 -0.1021,-9.50494 -0.086,-15.76449 0.016,-6.25954 -0.052,-12.96761 -0.4439,-18.45568 -0.3921,-5.48806 -1.0981,-9.75611 -2.2685,-11.13561 -1.1704,-1.37949 -1.6208,1.45499 -1.7696,6.54707 -0.1487,5.09208 -0.018,12.44174 -0.01,20.09259 0.01,7.65085 -0.1098,15.60288 -0.5549,21.89971 -0.4451,6.29683 -1.2013,10.93844 -2.3669,11.96845 -1.1656,1.03 -1.5617,-2.56785 -1.6602,-8.59467 -0.098,-6.02682 0.074,-14.48261 0.088,-23.16847 0.014,-8.68587 -0.1347,-17.60183 -0.6161,-24.54897 -0.4814,-6.94714 -1.2745,-11.92548 -2.4341,-12.73613 -1.1597,-0.81064 -1.5145,3.3496 -1.5789,10.08376 -0.064,6.73417 0.1312,16.04228 0.1362,25.52737 0,9.48509 -0.1829,19.14718 -0.705,26.58931 -0.5222,7.44212 -1.3524,12.6643 -2.5054,13.26958 -1.153,0.60527 -1.4663,-4.00808 -1.493,-11.29885 -0.027,-7.29076 0.1996,-17.25894 0.2093,-27.36331 0.01,-10.10438 -0.1988,-20.34495 -0.7457,-28.1805 -0.5469,-7.83555 -1.4019,-13.26609 -2.55,-13.75038 -1.1482,-0.4843 -1.4333,4.45963 -1.4373,12.16811 -0,7.70849 0.2366,18.18153 0.2396,28.75546 0,10.57393 -0.2329,21.24875 -0.8065,29.36078 -0.5737,8.11203 -1.4512,13.66128 -2.5919,13.98408 -1.1407,0.3228 -1.3982,-4.90251 -1.3787,-12.9363 0.02,-8.0338 0.278,-18.87608 0.2833,-29.78722 0.01,-10.91115 -0.2436,-21.89116 -0.8313,-30.20041 -0.5878,-8.30926 -1.4783,-13.94776 -2.6141,-14.17588 -1.1359,-0.22813 -1.3773,5.18159 -1.3459,13.4298 0.031,8.24822 0.2963,19.33494 0.2976,30.46081 0,11.12587 -0.2615,22.29091 -0.861,30.69575 -0.5995,8.40485 -1.4975,14.04951 -2.6257,14.13465 -1.1282,0.0851 -1.3567,-5.47434 -1.3168,-13.86082 0.04,-8.38648 0.309,-19.59996 0.3097,-30.82284 7e-4,-11.22288 -0.267,-22.45515 -0.8696,-30.87921 -0.6026,-8.42406 -1.501,-14.03991 -2.6239,-14.02994 -1.1229,0.01 -1.3476,5.63609 -1.307,14.06045 0.041,8.42437 0.3075,19.64699 0.3067,30.84996 -7e-4,11.20297 -0.2688,22.3863 -0.868,30.73209 -0.5992,8.34579 -1.4899,13.85403 -2.6052,13.70685 -1.1153,-0.14719 -1.3425,-5.80346 -1.3086,-14.1888 0.034,-8.38533 0.2916,-19.49973 0.288,-30.56316 -0,-11.06344 -0.2676,-22.07591 -0.8578,-30.2574 -0.5902,-8.18149 -1.4676,-13.532 -2.5769,-13.27149 -1.1093,0.2605 -1.3457,5.87412 -1.3233,14.12532 0.022,8.25121 0.2681,19.14 0.2642,29.95086 -0,10.81086 -0.2561,21.54379 -0.8298,29.48327 -0.5738,7.93947 -1.4313,13.08549 -2.5356,12.72254 -1.1044,-0.36296 -1.3574,-5.87403 -1.3539,-13.90168 0,-8.02766 0.2308,-18.57191 0.2255,-29.00122 -0.01,-10.42932 -0.2416,-20.7437 -0.7918,-28.31163 -0.5502,-7.56793 -1.3784,-12.38941 -2.4739,-11.8329 -1.0955,0.5565 -1.3717,5.93782 -1.3954,13.65325 -0.024,7.71543 0.1763,17.76497 0.1671,27.65792 -0.01,9.89295 -0.226,19.62931 -0.7482,26.71837 -0.5222,7.08905 -1.3172,11.53081 -2.4076,10.83456 -1.0904,-0.69626 -1.3973,-5.82057 -1.4516,-13.06478 -0.054,-7.24421 0.1199,-16.60832 0.1138,-25.78417 -0.01,-9.17585 -0.1904,-18.16343 -0.6739,-24.65459 -0.4835,-6.49116 -1.2377,-10.4859 -2.3261,-9.67605 -1.0885,0.80985 -1.434,5.62446 -1.5279,12.31435 -0.094,6.6899 0.044,15.25508 0.034,23.56609 -0.01,8.31101 -0.1665,16.36784 -0.6094,22.04103 -0.4429,5.67319 -1.1474,8.96274 -2.2242,7.73919 -1.0767,-1.22355 -1.4635,-5.76029 -1.6025,-11.7807 -0.1391,-6.02041 -0.044,-13.5245 -0.059,-20.68277 -0.015,-7.15826 -0.1366,-13.97071 -0.534,-18.60782 -0.3974,-4.63712 -1.0507,-7.09891 -2.1247,-5.55587 -1.0741,1.54304 -1.5081,5.64428 -1.6937,10.74254 -0.1855,5.09826 -0.1301,11.19352 -0.1413,16.7246 -0.011,5.53108 -0.085,10.49797 -0.4181,13.33948 -0.3335,2.8415 -0.9109,3.55762 -1.9771,0.58715 -2.1324,-5.94093 -2.6461,-12.74083 -2.6625,-18.0555 -0.016,-5.31466 0.4816,-9.14409 0.4816,-9.14409"
       id="path12973" />
  </g>
</svg>
