<?xml version="1.0" encoding="UTF-8" standalone="no"?>
<!-- Created with Inkscape (http://www.inkscape.org/) -->

<svg
   xmlns:dc="http://purl.org/dc/elements/1.1/"
   xmlns:cc="http://creativecommons.org/ns#"
   xmlns:rdf="http://www.w3.org/1999/02/22-rdf-syntax-ns#"
   xmlns:svg="http://www.w3.org/2000/svg"
   xmlns="http://www.w3.org/2000/svg"
   xmlns:xlink="http://www.w3.org/1999/xlink"
   xmlns:sodipodi="http://sodipodi.sourceforge.net/DTD/sodipodi-0.dtd"
   xmlns:inkscape="http://www.inkscape.org/namespaces/inkscape"
   width="990"
   height="765"
   id="svg2"
   version="1.1"
   inkscape:version="0.48.1 r9760"
   sodipodi:docname="hackpgh_parking_map.svg">
  <sodipodi:namedview
     id="base"
     pagecolor="#ffffff"
     bordercolor="#666666"
     borderopacity="1.0"
     inkscape:pageopacity="0.0"
     inkscape:pageshadow="2"
     inkscape:zoom="0.85098039"
     inkscape:cx="495"
     inkscape:cy="382.5"
     inkscape:document-units="px"
     inkscape:current-layer="layer1"
     showgrid="false"
     inkscape:window-width="1600"
     inkscape:window-height="823"
     inkscape:window-x="0"
     inkscape:window-y="24"
     inkscape:window-maximized="1"
     inkscape:snap-global="true"
     inkscape:snap-bbox="false"
     inkscape:object-nodes="true"
     inkscape:snap-smooth-nodes="true"
     inkscape:snap-page="true"
     inkscape:snap-midpoints="true" />
  <defs
     id="defs4">
    <marker
       style="overflow:visible"
       id="TriangleInM"
       refX="0.0"
       refY="0.0"
       orient="auto"
       inkscape:stockid="TriangleInM">
      <path
         transform="scale(-0.4)"
         style="fill-rule:evenodd;stroke:#000000;stroke-width:1.0pt;marker-start:none"
         d="M 5.77,0.0 L -2.88,5.0 L -2.88,-5.0 L 5.77,0.0 z "
         id="path4475" />
    </marker>
    <marker
       style="overflow:visible"
       id="TriangleOutM"
       refX="0.0"
       refY="0.0"
       orient="auto"
       inkscape:stockid="TriangleOutM">
      <path
         transform="scale(0.4)"
         style="fill-rule:evenodd;stroke:#000000;stroke-width:1.0pt;marker-start:none"
         d="M 5.77,0.0 L -2.88,5.0 L -2.88,-5.0 L 5.77,0.0 z "
         id="path4484" />
    </marker>
    <marker
       style="overflow:visible;"
       id="Arrow1Mend"
       refX="0.0"
       refY="0.0"
       orient="auto"
       inkscape:stockid="Arrow1Mend">
      <path
         transform="scale(0.4) rotate(180) translate(10,0)"
         style="fill-rule:evenodd;stroke:#000000;stroke-width:1.0pt;marker-start:none;"
         d="M 0.0,0.0 L 5.0,-5.0 L -12.5,0.0 L 5.0,5.0 L 0.0,0.0 z "
         id="path4347" />
    </marker>
    <marker
       style="overflow:visible"
       id="TriangleOutMW"
       refX="0.0"
       refY="0.0"
       orient="auto"
       inkscape:stockid="TriangleOutMW">
      <path
         transform="scale(0.4)"
         style="marker-start:none;stroke:#8f5902;stroke-width:1.0pt;fill:#8f5902;fill-rule:evenodd"
         d="M 5.77,0.0 L -2.88,5.0 L -2.88,-5.0 L 5.77,0.0 z "
         id="path5746" />
    </marker>
  </defs>
  <metadata
     id="metadata7">
    <rdf:RDF>
      <cc:Work
         rdf:about="">
        <dc:format>image/svg+xml</dc:format>
        <dc:type
           rdf:resource="http://purl.org/dc/dcmitype/StillImage" />
        <dc:title />
      </cc:Work>
    </rdf:RDF>
  </metadata>
  <g
     transform="translate(0,-287.36218)"
     id="layer1"
     inkscape:groupmode="layer"
     inkscape:label="Layer 1">
    <rect
       ry="5.8668976"
       rx="5.8668976"
       y="363.75128"
       x="394.87338"
       height="35.441936"
       width="192.42342"
       id="rect5361"
       style="fill:#e9b96e;fill-opacity:0.42796613;stroke:#8f5902;stroke-width:4;stroke-linecap:round;stroke-linejoin:round;stroke-miterlimit:4;stroke-opacity:1;stroke-dasharray:none;stroke-dashoffset:0" />
    <image
       sodipodi:absref="/home/matthew/Dropbox/HackPittsburghClassFliers/hackpgh_parking_map_google_maps.png"
       xlink:href="hackpgh_parking_map_google_maps.png"
       width="1020"
       height="634"
       id="image3127"
       x="-30"
       y="418.36218" />
    <path
       sodipodi:nodetypes="cc"
       transform="translate(0,287.36218)"
       inkscape:connector-curvature="0"
       id="path5363"
       d="M 491.0851,111.83103 C 491.0851,220.91479 530.34693,417.5 617.99994,417.5"
       style="fill:none;stroke:#8f5902;stroke-width:4;stroke-linecap:butt;stroke-linejoin:miter;stroke-miterlimit:4;stroke-opacity:1;stroke-dasharray:none;marker-end:url(#TriangleOutMW)" />
    <path
       sodipodi:nodetypes="sssssssss"
       inkscape:connector-curvature="0"
       id="rect3130"
       d="m 292.00001,546.36217 179,8 c 6.64137,0.29682 12,5.352 12,12 l 0,137 c 0,6.648 -5.35863,12.29682 -12,12 l -179,-8 c -6.64137,-0.29682 -12,-5.352 -12,-12 l 0,-137 c 0,-6.648 5.35863,-12.29682 12,-12 z"
       style="fill:#ef2929;fill-opacity:0.42796613;stroke:#a40000;stroke-width:4;stroke-linecap:round;stroke-linejoin:round;stroke-miterlimit:4;stroke-opacity:1;stroke-dashoffset:0" />
    <text
       sodipodi:linespacing="125%"
       id="text3900"
       y="636.04364"
       x="364.01205"
       style="font-size:42.09840775px;font-style:normal;font-variant:normal;font-weight:bold;font-stretch:normal;text-align:start;line-height:125%;letter-spacing:0px;word-spacing:0px;writing-mode:lr-tb;text-anchor:start;fill:#000000;fill-opacity:1;stroke:none;font-family:Arial;-inkscape-font-specification:Arial Bold"
       xml:space="preserve"><tspan
         y="636.04364"
         x="364.01205"
         id="tspan3902"
         sodipodi:role="line">NO</tspan></text>
    <path
       sodipodi:nodetypes="sssssssss"
       inkscape:connector-curvature="0"
       id="rect3904"
       d="m 588.00001,757.36217 168,6 c 6.64376,0.23728 12.19123,5.35475 12,12 l -4,139 c -0.19123,6.64525 -5.35624,12.23728 -12,12 l -168,-6 c -6.64376,-0.23728 -12.19123,-5.35475 -12,-12 l 4,-139 c 0.19123,-6.64525 5.35624,-12.23728 12,-12 z"
       style="fill:#ef2929;fill-opacity:0.42796613;stroke:#a40000;stroke-width:4;stroke-linecap:round;stroke-linejoin:round;stroke-miterlimit:4;stroke-opacity:1;stroke-dashoffset:0" />
    <text
       xml:space="preserve"
       style="font-size:42.09840775px;font-style:normal;font-variant:normal;font-weight:bold;font-stretch:normal;text-align:start;line-height:125%;letter-spacing:0px;word-spacing:0px;writing-mode:lr-tb;text-anchor:start;fill:#000000;fill-opacity:1;stroke:none;font-family:Arial;-inkscape-font-specification:Arial Bold"
       x="684.01202"
       y="816.04364"
       id="text3906"
       sodipodi:linespacing="125%"><tspan
         sodipodi:role="line"
         id="tspan3908"
         x="684.01202"
         y="816.04364">NO</tspan></text>
    <path
       sodipodi:nodetypes="sssssssss"
       inkscape:connector-curvature="0"
       id="rect3910"
       d="m 636.00001,557.36217 133,6 c 6.64125,0.29961 12,5.352 12,12 l 0,38 c 0,6.648 -5.35875,12.29961 -12,12 l -133,-6 c -6.64125,-0.29961 -12,-5.352 -12,-12 l 0,-38 c 0,-6.648 5.35875,-12.29961 12,-12 z"
       style="fill:#ef2929;fill-opacity:0.42796613;stroke:#a40000;stroke-width:4;stroke-linecap:round;stroke-linejoin:round;stroke-miterlimit:4;stroke-opacity:1;stroke-dashoffset:0" />
    <text
       sodipodi:linespacing="125%"
       id="text3912"
       y="605.04364"
       x="683.01202"
       style="font-size:42.09840775px;font-style:normal;font-variant:normal;font-weight:bold;font-stretch:normal;text-align:start;line-height:125%;letter-spacing:0px;word-spacing:0px;writing-mode:lr-tb;text-anchor:start;fill:#000000;fill-opacity:1;stroke:none;font-family:Arial;-inkscape-font-specification:Arial Bold"
       xml:space="preserve"><tspan
         y="605.04364"
         x="683.01202"
         id="tspan3914"
         sodipodi:role="line">NO</tspan></text>
    <rect
       style="fill:#e9b96e;fill-opacity:0.42796613000000000;stroke:#8f5902;stroke-width:4;stroke-linecap:round;stroke-linejoin:round;stroke-miterlimit:4;stroke-opacity:1;stroke-dasharray:none;stroke-dashoffset:0"
       id="rect3935"
       width="61"
       height="45"
       x="631.99994"
       y="682.36218"
       rx="12"
       ry="12" />
    <text
       xml:space="preserve"
       style="font-size:26.75758362px;font-style:normal;font-variant:normal;font-weight:bold;font-stretch:normal;text-align:start;line-height:125%;letter-spacing:0px;word-spacing:0px;writing-mode:lr-tb;text-anchor:start;fill:#000000;fill-opacity:1;stroke:none;font-family:Arial;-inkscape-font-specification:Arial Bold"
       x="641.88306"
       y="714.43903"
       id="text3937"
       sodipodi:linespacing="125%"><tspan
         sodipodi:role="line"
         id="tspan3939"
         x="641.88306"
         y="714.43903">OK</tspan></text>
    <path
       sodipodi:nodetypes="sssssssss"
       inkscape:connector-curvature="0"
       id="rect3941"
       d="m 704.50633,671.36217 44.98736,2 c 6.36821,0.28311 11.50632,5.13182 11.50632,11.50632 l 0,32.98737 c 0,6.3745 -5.13811,11.78942 -11.50632,11.50631 l -44.98736,-2 c -6.36821,-0.28311 -11.50632,-5.13181 -11.50632,-11.50631 l 0,-32.98737 c 0,-6.3745 5.13811,-11.78943 11.50632,-11.50632 z"
       style="fill:#729fcf;fill-opacity:0.42796613;stroke:#204a87;stroke-width:4;stroke-linecap:round;stroke-linejoin:round;stroke-miterlimit:4;stroke-opacity:1;stroke-dashoffset:0" />
    <text
       sodipodi:linespacing="125%"
       id="text3943"
       y="696.49426"
       x="726.26978"
       style="font-size:23.18412781px;font-style:normal;font-variant:normal;font-weight:bold;font-stretch:normal;text-align:center;line-height:125%;letter-spacing:0px;word-spacing:0px;writing-mode:lr-tb;text-anchor:middle;fill:#000000;fill-opacity:1;stroke:none;font-family:Arial;-inkscape-font-specification:Arial Bold"
       xml:space="preserve"><tspan
         y="696.49426"
         x="726.26978"
         id="tspan3945"
         sodipodi:role="line">Hack</tspan><tspan
         dy="-6.9316058"
         id="tspan3947"
         y="725.47443"
         x="726.26978"
         sodipodi:role="line">PGH</tspan></text>
    <path
       sodipodi:nodetypes="cccccccccsccccccccccccccccccccccccccccccscccccccccccccc"
       inkscape:connector-curvature="0"
       id="rect3952"
       d="m -50.0625,453.37499 c -9.3714,-0.41253 -16.9375,12 -16.9375,12 l 0,34 c 0,0 7.5661,11.58747 16.9375,12 l 177.31251,9.65625 -7.6875,182.6875 -177.62501,-9.34375 c -9.3714,-0.41253 -16.9375,12 -16.9375,12 l 0,2 c 0,0 7.569963,11.5075 16.9375,12 l 176.53126,9.28125 -7.46875,177.65625 -155.06251,-6.9375 c -9.3714,-0.41253 -16.9375,12 -16.9375,12 l -2,28 c 0,0 7.5661,11.58747 16.9375,12 l 154.87501,6.9375 -4.8125,114.21881 c -0.27532,6.5425 12,11.8437 12,11.8437 l 2,0 c 0,0 11.72468,-5.3012 12,-11.8437 l 4.75,-113.06256 630.78125,27.75 -3.70637,80.31256 c -0.27532,6.5425 12,11.8437 12,11.8437 l 2,0 c 0,0 11.72468,-5.3012 12,-11.8437 l 3.67512,-79.15631 204.56252,9 c 9.37147,0.41253 16.93757,-12 16.93757,-12 l 2,-28 c 0,0 -7.5661,-11.58747 -16.93757,-12 l -204.37502,-9 7.46875,-177.65625 196.90627,8.65625 c 9.37147,0.41253 16.93757,-12 16.93757,-12 l 0,-2 c 0,0 -7.5661,-11.58747 -16.93757,-12 l -195.81252,-8.625 7.6875,-182.65625 188.12502,8.28125 c 9.37147,0.41253 16.93757,-12 16.93757,-12 l 0,-34 c 0,0 -7.5661,-11.58747 -16.93757,-12 z m 203.25001,68.8125 630.78125,27.75 -7.6875,182.6875 -630.78125,-27.78125 z m -8.78125,208.625 630.78125,27.75 -7.46875,177.6875 -630.78125,-27.78125 z"
       style="fill:#8ae234;fill-opacity:0.42796613;stroke:#4e9a06;stroke-width:4;stroke-linecap:round;stroke-linejoin:round;stroke-miterlimit:4;stroke-opacity:1;stroke-dashoffset:0" />
    <text
       transform="matrix(0.99939083,0.0348995,-0.0348995,0.99939083,0,0)"
       sodipodi:linespacing="125%"
       id="text3955"
       y="722.18658"
       x="277.80786"
       style="font-size:26.75758362px;font-style:normal;font-variant:normal;font-weight:bold;font-stretch:normal;text-align:start;line-height:125%;letter-spacing:0px;word-spacing:0px;writing-mode:lr-tb;text-anchor:start;fill:#000000;fill-opacity:1;stroke:none;font-family:Arial;-inkscape-font-specification:Arial Bold"
       xml:space="preserve"><tspan
         y="722.18658"
         x="277.80786"
         id="tspan3957"
         sodipodi:role="line">On-street is ok</tspan></text>
    <text
       xml:space="preserve"
       style="font-size:26.75758362px;font-style:normal;font-variant:normal;font-weight:bold;font-stretch:normal;text-align:start;line-height:125%;letter-spacing:0px;word-spacing:0px;writing-mode:lr-tb;text-anchor:start;fill:#000000;fill-opacity:1;stroke:none;font-family:Arial;-inkscape-font-specification:Arial Bold"
       x="279.27676"
       y="490.68344"
       id="text3961"
       sodipodi:linespacing="125%"
       transform="matrix(0.99939083,0.0348995,-0.0348995,0.99939083,0,0)"><tspan
         sodipodi:role="line"
         id="tspan3963"
         x="279.27676"
         y="490.68344">On-street is ok</tspan></text>
    <text
       xml:space="preserve"
       style="font-size:26.75758362px;font-style:normal;font-variant:normal;font-weight:bold;font-stretch:normal;text-align:start;line-height:125%;letter-spacing:0px;word-spacing:0px;writing-mode:lr-tb;text-anchor:start;fill:#000000;fill-opacity:1;stroke:none;font-family:Arial;-inkscape-font-specification:Arial Bold"
       x="580.14996"
       y="946.57697"
       id="text3967"
       sodipodi:linespacing="125%"
       transform="matrix(0.99939083,0.0348995,-0.0348995,0.99939083,0,0)"><tspan
         sodipodi:role="line"
         id="tspan3969"
         x="580.14996"
         y="946.57697">On-street is ok</tspan></text>
    <text
       sodipodi:linespacing="125%"
       id="text3977"
       y="345.21829"
       x="178.39371"
       style="font-size:49.77620316px;font-style:normal;font-variant:normal;font-weight:normal;font-stretch:normal;text-align:start;line-height:125%;letter-spacing:0px;word-spacing:0px;writing-mode:lr-tb;text-anchor:start;fill:#000000;fill-opacity:1;stroke:none;font-family:Arial;-inkscape-font-specification:Arial"
       xml:space="preserve"><tspan
         y="345.21829"
         x="178.39371"
         id="tspan3979"
         sodipodi:role="line">HackPittsburgh Parking Map</tspan></text>
    <text
       xml:space="preserve"
       style="font-size:30.98594475px;font-style:normal;font-variant:normal;font-weight:normal;font-stretch:normal;text-align:start;line-height:125%;letter-spacing:0px;word-spacing:0px;writing-mode:lr-tb;text-anchor:start;fill:#000000;fill-opacity:1;stroke:none;font-family:Arial;-inkscape-font-specification:Arial"
       x="490.66077"
       y="389.7251"
       id="text3981"
       sodipodi:linespacing="125%"><tspan
         style="text-align:center;text-anchor:middle"
         sodipodi:role="line"
         id="tspan3983"
         x="490.66077"
         y="389.7251">You can only use the small mud pit right next to the shop</tspan></text>
    <path
       inkscape:connector-curvature="0"
       id="path3565"
       d="m 554.47072,736.42067 66.76455,2.18396"
       style="fill:none;stroke:#000000;stroke-width:4;stroke-linecap:butt;stroke-linejoin:miter;stroke-miterlimit:4;stroke-opacity:1;stroke-dasharray:none;marker-end:url(#TriangleOutM)" />
    <path
       style="fill:none;stroke:#000000;stroke-width:4;stroke-linecap:butt;stroke-linejoin:miter;stroke-miterlimit:4;stroke-opacity:1;stroke-dasharray:none;marker-end:url(#TriangleOutM)"
       d="m 28.820855,711.92364 66.76455,2.18396"
       id="path5147"
       inkscape:connector-curvature="0" />
    <path
       style="fill:none;stroke:#000000;stroke-width:4;stroke-linecap:butt;stroke-linejoin:miter;stroke-miterlimit:4;stroke-opacity:1;stroke-dasharray:none;marker-end:url(#TriangleOutM)"
       d="m 317.90862,944.30858 66.76455,2.18396"
       id="path5149"
       inkscape:connector-curvature="0" />
    <path
       inkscape:connector-curvature="0"
       id="path5151"
       d="M -3.4813099,929.97148 63.28324,932.15544"
       style="fill:none;stroke:#000000;stroke-width:4;stroke-linecap:butt;stroke-linejoin:miter;stroke-miterlimit:4;stroke-opacity:1;stroke-dasharray:none;marker-end:url(#TriangleOutM)" />
    <path
       inkscape:connector-curvature="0"
       id="path5153"
       d="m 744.43726,961.03519 66.76455,2.18396"
       style="fill:none;stroke:#000000;stroke-width:4;stroke-linecap:butt;stroke-linejoin:miter;stroke-miterlimit:4;stroke-opacity:1;stroke-dasharray:none;marker-end:url(#TriangleOutM)" />
    <path
       inkscape:connector-curvature="0"
       id="path5157"
       d="m 239.42887,495.1018 -66.76455,-2.18396"
       style="fill:none;stroke:#000000;stroke-width:4;stroke-linecap:butt;stroke-linejoin:miter;stroke-miterlimit:4;stroke-opacity:1;stroke-dasharray:none;marker-end:url(#TriangleOutM)" />
    <path
       style="fill:none;stroke:#000000;stroke-width:4;stroke-linecap:butt;stroke-linejoin:miter;stroke-miterlimit:4;stroke-opacity:1;stroke-dasharray:none;marker-end:url(#TriangleOutM)"
       d="m 969.42887,535.1018 -66.76455,-2.18396"
       id="path5159"
       inkscape:connector-curvature="0" />
    <path
       inkscape:connector-curvature="0"
       id="path5161"
       d="m 792.1758,655.74471 2.1839,-66.76458"
       style="fill:none;stroke:#000000;stroke-width:4;stroke-linecap:butt;stroke-linejoin:miter;stroke-miterlimit:4;stroke-opacity:1;stroke-dasharray:none;marker-end:url(#TriangleOutM)" />
    <path
       style="fill:none;stroke:#000000;stroke-width:4;stroke-linecap:butt;stroke-linejoin:miter;stroke-miterlimit:4;stroke-opacity:1;stroke-dasharray:none;marker-end:url(#TriangleOutM)"
       d="m 784.1758,895.74471 2.1839,-66.76458"
       id="path5163"
       inkscape:connector-curvature="0" />
    <path
       inkscape:connector-curvature="0"
       id="path5165"
       d="m 124.1758,853.74471 2.1839,-66.76458"
       style="fill:none;stroke:#000000;stroke-width:4;stroke-linecap:butt;stroke-linejoin:miter;stroke-miterlimit:4;stroke-opacity:1;stroke-dasharray:none;marker-end:url(#TriangleOutM);marker-start:url(#TriangleInM)" />
    <path
       style="fill:none;stroke:#000000;stroke-width:4;stroke-linecap:butt;stroke-linejoin:miter;stroke-miterlimit:4;stroke-opacity:1;stroke-dasharray:none;marker-start:url(#TriangleInM);marker-end:url(#TriangleOutM)"
       d="m 134.1758,607.74471 2.1839,-66.76458"
       id="path5355"
       inkscape:connector-curvature="0" />
    <path
       inkscape:connector-curvature="0"
       id="path5357"
       d="m 116.1758,1045.7447 2.1839,-66.76457"
       style="fill:none;stroke:#000000;stroke-width:4;stroke-linecap:butt;stroke-linejoin:miter;stroke-miterlimit:4;stroke-opacity:1;stroke-dasharray:none;marker-start:url(#TriangleInM);marker-end:url(#TriangleOutM)" />
    <path
       style="fill:none;stroke:#000000;stroke-width:4;stroke-linecap:butt;stroke-linejoin:miter;stroke-miterlimit:4;stroke-opacity:1;stroke-dasharray:none;marker-end:url(#TriangleOutM)"
       d="M 79.42887,489.1018 12.66432,486.91784"
       id="path5359"
       inkscape:connector-curvature="0" />
    <path
       style="fill:none;stroke:#000000;stroke-width:4;stroke-linecap:butt;stroke-linejoin:miter;stroke-miterlimit:4;stroke-opacity:1;stroke-dasharray:none;marker-end:url(#TriangleOutM)"
       d="m 559.42887,509.1018 -66.76455,-2.18396"
       id="path5155"
       inkscape:connector-curvature="0" />
  </g>
</svg>
