<?xml version="1.0" encoding="UTF-8" standalone="no"?>
<!-- Created with Inkscape (http://www.inkscape.org/) -->

<svg
   xmlns:dc="http://purl.org/dc/elements/1.1/"
   xmlns:cc="http://creativecommons.org/ns#"
   xmlns:rdf="http://www.w3.org/1999/02/22-rdf-syntax-ns#"
   xmlns:svg="http://www.w3.org/2000/svg"
   xmlns="http://www.w3.org/2000/svg"
   xmlns:sodipodi="http://sodipodi.sourceforge.net/DTD/sodipodi-0.dtd"
   xmlns:inkscape="http://www.inkscape.org/namespaces/inkscape"
   width="1026"
   height="1026"
   id="svg2"
   sodipodi:version="0.32"
   inkscape:version="0.47 r22583"
   sodipodi:docname="New document 4"
   inkscape:output_extension="org.inkscape.output.svg.inkscape"
   version="1.0">
  <defs
     id="defs4">
    <inkscape:perspective
       sodipodi:type="inkscape:persp3d"
       inkscape:vp_x="0 : 526.18109 : 1"
       inkscape:vp_y="0 : 1000 : 0"
       inkscape:vp_z="744.09448 : 526.18109 : 1"
       inkscape:persp3d-origin="372.04724 : 350.78739 : 1"
       id="perspective10" />
    <inkscape:perspective
       id="perspective2953"
       inkscape:persp3d-origin="0.5 : 0.33333333 : 1"
       inkscape:vp_z="1 : 0.5 : 1"
       inkscape:vp_y="0 : 1000 : 0"
       inkscape:vp_x="0 : 0.5 : 1"
       sodipodi:type="inkscape:persp3d" />
  </defs>
  <sodipodi:namedview
     id="base"
     pagecolor="#ffffff"
     bordercolor="#666666"
     borderopacity="1.0"
     gridtolerance="10000"
     guidetolerance="10"
     objecttolerance="10"
     inkscape:pageopacity="0.0"
     inkscape:pageshadow="2"
     inkscape:zoom="0.35"
     inkscape:cx="40.714286"
     inkscape:cy="520"
     inkscape:document-units="in"
     inkscape:current-layer="layer1"
     showgrid="false"
     units="in"
     inkscape:window-width="1920"
     inkscape:window-height="1005"
     inkscape:window-x="-9"
     inkscape:window-y="-9"
     inkscape:window-maximized="0" />
  <metadata
     id="metadata7">
    <rdf:RDF>
      <cc:Work
         rdf:about="">
        <dc:format>image/svg+xml</dc:format>
        <dc:type
           rdf:resource="http://purl.org/dc/dcmitype/StillImage" />
        <dc:creator>
          <cc:Agent>
            <dc:title>HeatherM</dc:title>
          </cc:Agent>
        </dc:creator>
        <dc:title></dc:title>
      </cc:Work>
    </rdf:RDF>
  </metadata>
  <g
     inkscape:label="stocking"
     inkscape:groupmode="layer"
     id="layer1"
     style="display:inline">
    <path
       style="fill:#a02c2c;stroke:none"
       d="M 71.53125 61.59375 C 63.22985 61.59375 56.53125 68.26107 56.53125 76.5625 L 56.53125 196.78125 C 56.53125 212.51459 64.3636 226.33055 79.75 234.03125 C 83.0466 290.00893 85.86355 341.73137 84.46875 410.84375 C 83.99285 434.42308 57.89565 509.30854 72.21875 553.25 C 81.70345 582.34787 102.20155 604.03728 136.4375 616.15625 C 156.66212 623.31543 179.30044 619.07413 213.53125 617.15625 C 240.86933 615.62455 283.80476 634.91445 322.09375 643.5 C 375.72763 655.52634 407.139 664.54236 461.8125 632.6875 C 495.56242 613.02351 514.17626 551.38059 489.03125 502.3125 C 464.15932 453.77731 430.48211 454.96053 380.1875 426.5 C 361.09475 415.69586 335.87846 384.05909 333.4375 347.34375 C 330.30802 300.27227 330.64 267.95323 331.75 237.5 C 351.82946 231.14279 363.65625 215.31787 363.65625 196.78125 L 363.65625 76.5625 C 363.65625 68.26107 356.98894 61.59375 348.6875 61.59375 L 71.53125 61.59375 z "
       id="path2826-8" />
  </g>
  <g
     inkscape:groupmode="layer"
     id="layer3"
     inkscape:label="cuff"
     style="display:inline">
    <path
       style="fill:#e6e6e6;fill-opacity:1;fill-rule:nonzero;stroke:none"
       d="M 671.96875 61.59375 C 663.66735 61.59375 656.96875 68.261081 656.96875 76.5625 L 656.96875 197.59375 C 656.96875 221.73062 681.1165 241.3125 710.875 241.3125 C 734.60959 241.3125 754.72092 228.84769 761.90625 211.5625 C 769.09158 228.84769 789.2029 241.3125 812.9375 241.3125 C 836.65992 241.3125 856.80505 228.86508 864 211.59375 C 871.19701 228.86212 891.31145 241.3125 915.03125 241.3125 C 944.78972 241.3125 968.90625 221.73062 968.90625 197.59375 L 968.90625 76.5625 C 968.90625 68.261081 962.23894 61.59375 953.9375 61.59375 L 671.96875 61.59375 z "
       id="rect2828-8" />
  </g>
</svg>
