<?xml version="1.0" encoding="UTF-8" standalone="no"?>
<!-- Created with Inkscape (http://www.inkscape.org/) -->

<svg
   xmlns:dc="http://purl.org/dc/elements/1.1/"
   xmlns:cc="http://creativecommons.org/ns#"
   xmlns:rdf="http://www.w3.org/1999/02/22-rdf-syntax-ns#"
   xmlns:svg="http://www.w3.org/2000/svg"
   xmlns="http://www.w3.org/2000/svg"
   xmlns:sodipodi="http://sodipodi.sourceforge.net/DTD/sodipodi-0.dtd"
   xmlns:inkscape="http://www.inkscape.org/namespaces/inkscape"
   sodipodi:docname="merry_xmas_happy_new_year.svg"
   inkscape:version="0.48.1 r9760"
   version="1.1"
   id="svg27345"
   height="1000"
   width="3200">
  <sodipodi:namedview
     id="base"
     pagecolor="#ffffff"
     bordercolor="#666666"
     borderopacity="1.0"
     inkscape:pageopacity="0.0"
     inkscape:pageshadow="2"
     inkscape:zoom="0.3403125"
     inkscape:cx="1600"
     inkscape:cy="500"
     inkscape:document-units="px"
     inkscape:current-layer="layer2"
     showgrid="false"
     inkscape:window-width="1600"
     inkscape:window-height="823"
     inkscape:window-x="0"
     inkscape:window-y="24"
     inkscape:window-maximized="1" />
  <defs
     id="defs27347">
    <inkscape:perspective
       id="perspective27353"
       inkscape:persp3d-origin="372.04724 : 350.78739 : 1"
       inkscape:vp_z="744.09448 : 526.18109 : 1"
       inkscape:vp_y="0 : 1000 : 0"
       inkscape:vp_x="0 : 526.18109 : 1"
       sodipodi:type="inkscape:persp3d" />
    <inkscape:perspective
       id="perspective6460"
       inkscape:persp3d-origin="0.5 : 0.33333333 : 1"
       inkscape:vp_z="1 : 0.5 : 1"
       inkscape:vp_y="0 : 1000 : 0"
       inkscape:vp_x="0 : 0.5 : 1"
       sodipodi:type="inkscape:persp3d" />
    <inkscape:perspective
       id="perspective23322"
       inkscape:persp3d-origin="0.5 : 0.33333333 : 1"
       inkscape:vp_z="1 : 0.5 : 1"
       inkscape:vp_y="0 : 1000 : 0"
       inkscape:vp_x="0 : 0.5 : 1"
       sodipodi:type="inkscape:persp3d" />
    <inkscape:perspective
       id="perspective23344"
       inkscape:persp3d-origin="0.5 : 0.33333333 : 1"
       inkscape:vp_z="1 : 0.5 : 1"
       inkscape:vp_y="0 : 1000 : 0"
       inkscape:vp_x="0 : 0.5 : 1"
       sodipodi:type="inkscape:persp3d" />
    <inkscape:perspective
       id="perspective23344-6"
       inkscape:persp3d-origin="0.5 : 0.33333333 : 1"
       inkscape:vp_z="1 : 0.5 : 1"
       inkscape:vp_y="0 : 1000 : 0"
       inkscape:vp_x="0 : 0.5 : 1"
       sodipodi:type="inkscape:persp3d" />
    <inkscape:perspective
       id="perspective23375"
       inkscape:persp3d-origin="0.5 : 0.33333333 : 1"
       inkscape:vp_z="1 : 0.5 : 1"
       inkscape:vp_y="0 : 1000 : 0"
       inkscape:vp_x="0 : 0.5 : 1"
       sodipodi:type="inkscape:persp3d" />
    <inkscape:perspective
       id="perspective23375-0"
       inkscape:persp3d-origin="0.5 : 0.33333333 : 1"
       inkscape:vp_z="1 : 0.5 : 1"
       inkscape:vp_y="0 : 1000 : 0"
       inkscape:vp_x="0 : 0.5 : 1"
       sodipodi:type="inkscape:persp3d" />
    <inkscape:perspective
       id="perspective23375-9"
       inkscape:persp3d-origin="0.5 : 0.33333333 : 1"
       inkscape:vp_z="1 : 0.5 : 1"
       inkscape:vp_y="0 : 1000 : 0"
       inkscape:vp_x="0 : 0.5 : 1"
       sodipodi:type="inkscape:persp3d" />
    <inkscape:perspective
       id="perspective23375-91"
       inkscape:persp3d-origin="0.5 : 0.33333333 : 1"
       inkscape:vp_z="1 : 0.5 : 1"
       inkscape:vp_y="0 : 1000 : 0"
       inkscape:vp_x="0 : 0.5 : 1"
       sodipodi:type="inkscape:persp3d" />
    <inkscape:perspective
       id="perspective23375-3"
       inkscape:persp3d-origin="0.5 : 0.33333333 : 1"
       inkscape:vp_z="1 : 0.5 : 1"
       inkscape:vp_y="0 : 1000 : 0"
       inkscape:vp_x="0 : 0.5 : 1"
       sodipodi:type="inkscape:persp3d" />
    <inkscape:perspective
       id="perspective23375-5"
       inkscape:persp3d-origin="0.5 : 0.33333333 : 1"
       inkscape:vp_z="1 : 0.5 : 1"
       inkscape:vp_y="0 : 1000 : 0"
       inkscape:vp_x="0 : 0.5 : 1"
       sodipodi:type="inkscape:persp3d" />
    <inkscape:perspective
       id="perspective23375-8"
       inkscape:persp3d-origin="0.5 : 0.33333333 : 1"
       inkscape:vp_z="1 : 0.5 : 1"
       inkscape:vp_y="0 : 1000 : 0"
       inkscape:vp_x="0 : 0.5 : 1"
       sodipodi:type="inkscape:persp3d" />
    <inkscape:perspective
       id="perspective23375-4"
       inkscape:persp3d-origin="0.5 : 0.33333333 : 1"
       inkscape:vp_z="1 : 0.5 : 1"
       inkscape:vp_y="0 : 1000 : 0"
       inkscape:vp_x="0 : 0.5 : 1"
       sodipodi:type="inkscape:persp3d" />
    <inkscape:perspective
       id="perspective23375-38"
       inkscape:persp3d-origin="0.5 : 0.33333333 : 1"
       inkscape:vp_z="1 : 0.5 : 1"
       inkscape:vp_y="0 : 1000 : 0"
       inkscape:vp_x="0 : 0.5 : 1"
       sodipodi:type="inkscape:persp3d" />
    <inkscape:perspective
       id="perspective23375-80"
       inkscape:persp3d-origin="0.5 : 0.33333333 : 1"
       inkscape:vp_z="1 : 0.5 : 1"
       inkscape:vp_y="0 : 1000 : 0"
       inkscape:vp_x="0 : 0.5 : 1"
       sodipodi:type="inkscape:persp3d" />
    <inkscape:perspective
       id="perspective23375-03"
       inkscape:persp3d-origin="0.5 : 0.33333333 : 1"
       inkscape:vp_z="1 : 0.5 : 1"
       inkscape:vp_y="0 : 1000 : 0"
       inkscape:vp_x="0 : 0.5 : 1"
       sodipodi:type="inkscape:persp3d" />
    <inkscape:perspective
       id="perspective23375-6"
       inkscape:persp3d-origin="0.5 : 0.33333333 : 1"
       inkscape:vp_z="1 : 0.5 : 1"
       inkscape:vp_y="0 : 1000 : 0"
       inkscape:vp_x="0 : 0.5 : 1"
       sodipodi:type="inkscape:persp3d" />
    <inkscape:perspective
       id="perspective23375-1"
       inkscape:persp3d-origin="0.5 : 0.33333333 : 1"
       inkscape:vp_z="1 : 0.5 : 1"
       inkscape:vp_y="0 : 1000 : 0"
       inkscape:vp_x="0 : 0.5 : 1"
       sodipodi:type="inkscape:persp3d" />
    <inkscape:perspective
       id="perspective23375-88"
       inkscape:persp3d-origin="0.5 : 0.33333333 : 1"
       inkscape:vp_z="1 : 0.5 : 1"
       inkscape:vp_y="0 : 1000 : 0"
       inkscape:vp_x="0 : 0.5 : 1"
       sodipodi:type="inkscape:persp3d" />
  </defs>
  <metadata
     id="metadata27350">
    <rdf:RDF>
      <cc:Work
         rdf:about="">
        <dc:format>image/svg+xml</dc:format>
        <dc:type
           rdf:resource="http://purl.org/dc/dcmitype/StillImage" />
        <dc:title />
      </cc:Work>
    </rdf:RDF>
  </metadata>
  <g
     style="display:inline"
     transform="translate(0,-52.36218)"
     id="layer1"
     inkscape:groupmode="layer"
     inkscape:label="3black">
    <g
       id="g18294"
       transform="matrix(3.2054894,0,0,3.2054894,111.61302,545.9815)"
       inkscape:label="Hershey Text"
       style="stroke-width:0.79473728;stroke-miterlimit:4;stroke-dasharray:none">
      <path
         id="path18296"
         transform="translate(14,0)"
         d="m -6,-8 -1,1 -1,2 0,2 -2,0 -1,1 0,2 1,-1 2,0 0,4 m 1,-9 0,7 m -3,-3 3,0 m 1,-6 0,8 -1,2 -1,1 m -5,6 2,-2 2,-1 2,0 2,1 1,0 1,-1 m -7,1 3,0 2,1 m -8,1 2,-1 3,0 2,1 1,0 1,-1 1,-2 m -3,-14 4,-4 4,4 0,13 1,2 1,0 M -2,-11 1,-8 1,6 0,7 1,8 2,7 1,6 m -3,-8 3,0 m -5,-8 1,0 3,3 0,4 -3,0 m 0,2 3,0 0,7 -1,1 2,2 3,-2 1,-1 m -3,-14 4,-4 4,4 0,13 1,2 1,0 M 6,-11 9,-8 9,6 11,8 M 6,-2 9,-2 m -5,-8 1,0 3,3 0,4 -3,0 m 0,2 3,0 0,8 2,2 2,-2 M -3,-10 -3,6 M 5,-10 5,6"
         style="fill:none;stroke:#000000;stroke-width:1.24785936;stroke-miterlimit:4;stroke-dasharray:none"
         inkscape:connector-curvature="0" />
      <path
         id="path18298"
         transform="translate(36,0)"
         d="m -4,-3 0,9 -2,1 1,0 2,1 1,1 M -3,-3 -3,7 -1,8 M -2,-3 -2,6 0,7 1,7 -1,8 -2,9 M -4,-3 0,-4 2,-5 5,-1 3,0 -2,3 m 3,-7 3,3 m -6,-2 2,-1 3,4"
         style="fill:none;stroke:#000000;stroke-width:1.24785936;stroke-miterlimit:4;stroke-dasharray:none"
         inkscape:connector-curvature="0" />
      <path
         id="path18300"
         transform="translate(50,0)"
         d="m -6,-3 1,0 1,1 0,8 -2,1 1,0 2,1 1,1 m -3,-13 2,1 0,10 2,1 m -5,-11 2,-2 2,2 0,9 2,1 1,0 -2,1 -1,1 m 0,-12 4,-2 1,1 2,1 1,0 m -5,-1 1,1 2,0 m -4,-1 2,2 2,0 2,-1"
         style="fill:none;stroke:#000000;stroke-width:1.24785936;stroke-miterlimit:4;stroke-dasharray:none"
         inkscape:connector-curvature="0" />
      <path
         id="path18302"
         transform="translate(64,0)"
         d="m -6,-3 1,0 1,1 0,8 -2,1 1,0 2,1 1,1 m -3,-13 2,1 0,10 2,1 m -5,-11 2,-2 2,2 0,9 2,1 1,0 -2,1 -1,1 m 0,-12 4,-2 1,1 2,1 1,0 m -5,-1 1,1 2,0 m -4,-1 2,2 2,0 2,-1"
         style="fill:none;stroke:#000000;stroke-width:1.24785936;stroke-miterlimit:4;stroke-dasharray:none"
         inkscape:connector-curvature="0" />
      <path
         id="path18304"
         transform="translate(79,0)"
         d="m -7,-3 1,0 1,1 0,8 -2,1 m 1,-11 2,1 0,10 2,1 m -5,-11 2,-2 2,2 0,9 2,1 1,0 m -7,0 1,0 2,1 1,1 1,-1 2,-1 3,-1 m 0,-11 1,1 2,1 1,0 -2,1 0,12 -1,3 -2,2 -2,1 -1,-1 -2,-1 -2,0 m 7,-18 2,1 0,13 m -3,5 -2,-1 -1,0 m 5,-19 -2,2 2,1 0,10 1,3 0,2 m -2,2 -1,-1 -2,-1 -2,0 -2,1"
         style="fill:none;stroke:#000000;stroke-width:1.24785936;stroke-miterlimit:4;stroke-dasharray:none"
         inkscape:connector-curvature="0" />
      <path
         id="path18306"
         transform="translate(96,0)"
         d=""
         style="fill:none;stroke:#000000;stroke-width:1.24785936;stroke-miterlimit:4;stroke-dasharray:none"
         inkscape:connector-curvature="0" />
      <path
         id="path18308"
         transform="translate(117,0)"
         d="m -4,-11 -2,1 -2,2 -1,2 -1,3 0,4 1,3 1,2 3,2 3,1 L 1,9 4,8 6,7 8,5 9,3 m -17,-10 -1,3 0,5 2,4 3,2 3,1 3,0 3,-1 m -9,-18 -2,2 -1,2 -1,3 0,4 1,3 3,3 3,1 L 2,7 5,6 7,5 9,3 M -2,-8 -2,4 M -1,-8 -1,2 M 0,-9 0,1 -1,3 -2,4 m 0,-12 2,-1 3,-3 2,1 2,0 1,-1 m -6,1 2,1 2,0 m -5,0 2,1 2,0 2,-1 1,-2 M 5,-9 5,6"
         style="fill:none;stroke:#000000;stroke-width:1.24785936;stroke-miterlimit:4;stroke-dasharray:none"
         inkscape:connector-curvature="0" />
      <path
         id="path18310"
         transform="translate(137,0)"
         d="m -6,-10 1,2 0,14 -2,1 1,0 2,1 1,1 m -1,-17 -1,-2 1,-1 0,18 2,1 m -4,-18 3,-2 0,18 2,1 -2,2 m 0,-11 3,-1 2,-1 1,-1 1,1 2,1 1,0 -2,1 0,9 -2,2 -1,2 M 2,-4 4,-3 4,7 3,9 m -3,-12 1,0 2,1 0,9 -1,4 0,3 1,2 1,0 -2,-2"
         style="fill:none;stroke:#000000;stroke-width:1.24785936;stroke-miterlimit:4;stroke-dasharray:none"
         inkscape:connector-curvature="0" />
      <path
         id="path18312"
         transform="translate(154,0)"
         d="m -6,-3 1,0 1,1 0,8 -2,1 1,0 2,1 1,1 m -3,-13 2,1 0,10 2,1 m -5,-11 2,-2 2,2 0,9 2,1 1,0 -2,1 -1,1 m 0,-12 4,-2 1,1 2,1 1,0 m -5,-1 1,1 2,0 m -4,-1 2,2 2,0 2,-1"
         style="fill:none;stroke:#000000;stroke-width:1.24785936;stroke-miterlimit:4;stroke-dasharray:none"
         inkscape:connector-curvature="0" />
      <path
         id="path18314"
         transform="translate(165,0)"
         d="m 0,-12 -2,2 2,1 2,-1 -2,-2 m 0,1 -1,1 2,0 -1,-1 m 0,6 -1,1 -2,1 2,1 0,9 2,2 2,-2 m -3,-9 1,-1 -1,-1 -1,1 1,1 0,9 1,1 m -1,-13 1,1 2,1 -2,1 0,8 1,1 1,0"
         style="fill:none;stroke:#000000;stroke-width:1.24785936;stroke-miterlimit:4;stroke-dasharray:none"
         inkscape:connector-curvature="0" />
      <path
         id="path18316"
         transform="translate(178,0)"
         d="m -5,-3 0,4 2,1 6,0 2,1 0,4 m -9,-10 0,4 m 8,2 0,4 m -6,-11 -1,1 0,4 2,1 M 1,2 3,3 3,7 2,8 m -7,-11 3,-1 2,-1 2,1 2,0 1,-1 m -6,1 2,0 m -3,0 2,1 2,0 2,-1 M 5,7 2,8 0,9 -2,8 -4,8 -6,9 M 1,8 -1,8 M 2,8 0,7 -3,7 -6,9 M 5,-5 4,-3 2,0 -3,5 -6,9"
         style="fill:none;stroke:#000000;stroke-width:1.24785936;stroke-miterlimit:4;stroke-dasharray:none"
         inkscape:connector-curvature="0" />
      <path
         id="path18318"
         transform="translate(191,0)"
         d="m -2,-10 1,2 0,14 -2,1 1,0 2,1 1,1 M 0,-8 -1,-10 0,-11 0,7 2,8 M -2,-10 1,-12 1,6 3,7 4,7 2,8 1,9 m -5,-14 3,0 m 2,0 3,0"
         style="fill:none;stroke:#000000;stroke-width:1.24785936;stroke-miterlimit:4;stroke-dasharray:none"
         inkscape:connector-curvature="0" />
      <path
         id="path18320"
         transform="translate(209,0)"
         d="m -11,-3 1,0 1,1 0,8 -2,1 1,0 2,1 1,1 m -2,-13 1,1 0,10 2,1 m -5,-11 2,-2 2,2 0,9 2,1 -2,2 m 0,-11 3,-1 2,-1 1,-1 2,2 0,9 2,1 -2,2 M -2,-4 0,-3 0,7 2,8 m -6,-11 1,0 2,1 0,8 -1,1 2,1 1,1 m 0,-11 3,-1 2,-1 1,-1 1,1 2,1 1,0 -2,1 0,8 1,1 1,0 M 6,-4 8,-3 8,7 9,8 m -5,-11 1,0 2,1 0,9 2,2 2,-2"
         style="fill:none;stroke:#000000;stroke-width:1.24785936;stroke-miterlimit:4;stroke-dasharray:none"
         inkscape:connector-curvature="0" />
      <path
         id="path18322"
         transform="translate(230,0)"
         d="m -2,0 -2,2 -1,2 0,2 1,2 2,1 2,-2 3,-1 m -8,-2 1,2 1,1 2,1 m -3,-6 0,2 1,2 2,1 1,0 m -4,-9 2,0 3,-1 2,-1 1,-1 2,2 -1,1 0,8 1,1 1,0 m -10,-11 -1,1 3,0 m 3,0 3,0 -1,-1 0,11 1,1 m -10,-11 2,-2 1,1 2,1 3,1 0,9 2,2 2,-2 M -5,-3 0,2"
         style="fill:none;stroke:#000000;stroke-width:1.24785936;stroke-miterlimit:4;stroke-dasharray:none"
         inkscape:connector-curvature="0" />
      <path
         id="path18324"
         transform="translate(247,0)"
         d="m -5,-3 0,4 2,1 6,0 2,1 0,4 m -9,-10 0,4 m 8,2 0,4 m -6,-11 -1,1 0,4 2,1 M 1,2 3,3 3,7 2,8 m -7,-11 3,-1 2,-1 2,1 2,0 1,-1 m -6,1 2,0 m -3,0 2,1 2,0 2,-1 M 5,7 2,8 0,9 -2,8 -4,8 -6,9 M 1,8 -1,8 M 2,8 0,7 -3,7 -6,9 M 5,-5 4,-3 2,0 -3,5 -6,9"
         style="fill:none;stroke:#000000;stroke-width:1.24785936;stroke-miterlimit:4;stroke-dasharray:none"
         inkscape:connector-curvature="0" />
    </g>
    <g
       style="stroke-width:0.79473728;stroke-miterlimit:4;stroke-dasharray:none"
       inkscape:label="Hershey Text"
       transform="matrix(3.2054894,0,0,3.2054894,2265.6147,545.9815)"
       id="g18944">
      <path
         inkscape:connector-curvature="0"
         style="fill:none;stroke:#000000;stroke-width:1.24785936;stroke-miterlimit:4;stroke-dasharray:none"
         d="m -6,-8 -1,1 -1,2 0,2 -2,0 -1,1 0,2 1,-1 2,0 0,4 m 1,-9 0,7 m -3,-3 3,0 m 1,-6 0,8 -1,2 -1,1 m -5,6 2,-2 2,-1 2,0 2,1 1,0 1,-1 m -7,1 3,0 2,1 m -8,1 2,-1 3,0 2,1 1,0 1,-1 1,-2 m -3,-14 4,-4 4,4 0,13 1,2 1,0 M -2,-11 1,-8 1,6 0,7 1,8 2,7 1,6 m -3,-8 3,0 m -5,-8 1,0 3,3 0,4 -3,0 m 0,2 3,0 0,7 -1,1 2,2 3,-2 1,-1 m -3,-14 4,-4 4,4 0,13 1,2 1,0 M 6,-11 9,-8 9,6 11,8 M 6,-2 9,-2 m -5,-8 1,0 3,3 0,4 -3,0 m 0,2 3,0 0,8 2,2 2,-2 M -3,-10 -3,6 M 5,-10 5,6"
         transform="translate(14,0)"
         id="path18946" />
      <path
         inkscape:connector-curvature="0"
         style="fill:none;stroke:#000000;stroke-width:1.24785936;stroke-miterlimit:4;stroke-dasharray:none"
         d="m -4,-3 0,9 -2,1 1,0 2,1 1,1 M -3,-3 -3,7 -1,8 M -2,-3 -2,6 0,7 1,7 -1,8 -2,9 M -4,-3 0,-4 2,-5 5,-1 3,0 -2,3 m 3,-7 3,3 m -6,-2 2,-1 3,4"
         transform="translate(36,0)"
         id="path18948" />
      <path
         inkscape:connector-curvature="0"
         style="fill:none;stroke:#000000;stroke-width:1.24785936;stroke-miterlimit:4;stroke-dasharray:none"
         d="m -6,-3 1,0 1,1 0,8 -2,1 1,0 2,1 1,1 m -3,-13 2,1 0,10 2,1 m -5,-11 2,-2 2,2 0,9 2,1 1,0 -2,1 -1,1 m 0,-12 4,-2 1,1 2,1 1,0 m -5,-1 1,1 2,0 m -4,-1 2,2 2,0 2,-1"
         transform="translate(50,0)"
         id="path18950" />
      <path
         inkscape:connector-curvature="0"
         style="fill:none;stroke:#000000;stroke-width:1.24785936;stroke-miterlimit:4;stroke-dasharray:none"
         d="m -6,-3 1,0 1,1 0,8 -2,1 1,0 2,1 1,1 m -3,-13 2,1 0,10 2,1 m -5,-11 2,-2 2,2 0,9 2,1 1,0 -2,1 -1,1 m 0,-12 4,-2 1,1 2,1 1,0 m -5,-1 1,1 2,0 m -4,-1 2,2 2,0 2,-1"
         transform="translate(64,0)"
         id="path18952" />
      <path
         inkscape:connector-curvature="0"
         style="fill:none;stroke:#000000;stroke-width:1.24785936;stroke-miterlimit:4;stroke-dasharray:none"
         d="m -7,-3 1,0 1,1 0,8 -2,1 m 1,-11 2,1 0,10 2,1 m -5,-11 2,-2 2,2 0,9 2,1 1,0 m -7,0 1,0 2,1 1,1 1,-1 2,-1 3,-1 m 0,-11 1,1 2,1 1,0 -2,1 0,12 -1,3 -2,2 -2,1 -1,-1 -2,-1 -2,0 m 7,-18 2,1 0,13 m -3,5 -2,-1 -1,0 m 5,-19 -2,2 2,1 0,10 1,3 0,2 m -2,2 -1,-1 -2,-1 -2,0 -2,1"
         transform="translate(79,0)"
         id="path18954" />
      <path
         inkscape:connector-curvature="0"
         style="fill:none;stroke:#000000;stroke-width:1.24785936;stroke-miterlimit:4;stroke-dasharray:none"
         d=""
         transform="translate(96,0)"
         id="path18956" />
      <path
         inkscape:connector-curvature="0"
         style="fill:none;stroke:#000000;stroke-width:1.24785936;stroke-miterlimit:4;stroke-dasharray:none"
         d="m -4,-11 -2,1 -2,2 -1,2 -1,3 0,4 1,3 1,2 3,2 3,1 L 1,9 4,8 6,7 8,5 9,3 m -17,-10 -1,3 0,5 2,4 3,2 3,1 3,0 3,-1 m -9,-18 -2,2 -1,2 -1,3 0,4 1,3 3,3 3,1 L 2,7 5,6 7,5 9,3 M -2,-8 -2,4 M -1,-8 -1,2 M 0,-9 0,1 -1,3 -2,4 m 0,-12 2,-1 3,-3 2,1 2,0 1,-1 m -6,1 2,1 2,0 m -5,0 2,1 2,0 2,-1 1,-2 M 5,-9 5,6"
         transform="translate(117,0)"
         id="path18958" />
      <path
         inkscape:connector-curvature="0"
         style="fill:none;stroke:#000000;stroke-width:1.24785936;stroke-miterlimit:4;stroke-dasharray:none"
         d="m -6,-10 1,2 0,14 -2,1 1,0 2,1 1,1 m -1,-17 -1,-2 1,-1 0,18 2,1 m -4,-18 3,-2 0,18 2,1 -2,2 m 0,-11 3,-1 2,-1 1,-1 1,1 2,1 1,0 -2,1 0,9 -2,2 -1,2 M 2,-4 4,-3 4,7 3,9 m -3,-12 1,0 2,1 0,9 -1,4 0,3 1,2 1,0 -2,-2"
         transform="translate(137,0)"
         id="path18960" />
      <path
         inkscape:connector-curvature="0"
         style="fill:none;stroke:#000000;stroke-width:1.24785936;stroke-miterlimit:4;stroke-dasharray:none"
         d="m -6,-3 1,0 1,1 0,8 -2,1 1,0 2,1 1,1 m -3,-13 2,1 0,10 2,1 m -5,-11 2,-2 2,2 0,9 2,1 1,0 -2,1 -1,1 m 0,-12 4,-2 1,1 2,1 1,0 m -5,-1 1,1 2,0 m -4,-1 2,2 2,0 2,-1"
         transform="translate(154,0)"
         id="path18962" />
      <path
         inkscape:connector-curvature="0"
         style="fill:none;stroke:#000000;stroke-width:1.24785936;stroke-miterlimit:4;stroke-dasharray:none"
         d="m 0,-12 -2,2 2,1 2,-1 -2,-2 m 0,1 -1,1 2,0 -1,-1 m 0,6 -1,1 -2,1 2,1 0,9 2,2 2,-2 m -3,-9 1,-1 -1,-1 -1,1 1,1 0,9 1,1 m -1,-13 1,1 2,1 -2,1 0,8 1,1 1,0"
         transform="translate(165,0)"
         id="path18964" />
      <path
         inkscape:connector-curvature="0"
         style="fill:none;stroke:#000000;stroke-width:1.24785936;stroke-miterlimit:4;stroke-dasharray:none"
         d="m -5,-3 0,4 2,1 6,0 2,1 0,4 m -9,-10 0,4 m 8,2 0,4 m -6,-11 -1,1 0,4 2,1 M 1,2 3,3 3,7 2,8 m -7,-11 3,-1 2,-1 2,1 2,0 1,-1 m -6,1 2,0 m -3,0 2,1 2,0 2,-1 M 5,7 2,8 0,9 -2,8 -4,8 -6,9 M 1,8 -1,8 M 2,8 0,7 -3,7 -6,9 M 5,-5 4,-3 2,0 -3,5 -6,9"
         transform="translate(178,0)"
         id="path18966" />
      <path
         inkscape:connector-curvature="0"
         style="fill:none;stroke:#000000;stroke-width:1.24785936;stroke-miterlimit:4;stroke-dasharray:none"
         d="m -2,-10 1,2 0,14 -2,1 1,0 2,1 1,1 M 0,-8 -1,-10 0,-11 0,7 2,8 M -2,-10 1,-12 1,6 3,7 4,7 2,8 1,9 m -5,-14 3,0 m 2,0 3,0"
         transform="translate(191,0)"
         id="path18968" />
      <path
         inkscape:connector-curvature="0"
         style="fill:none;stroke:#000000;stroke-width:1.24785936;stroke-miterlimit:4;stroke-dasharray:none"
         d="m -11,-3 1,0 1,1 0,8 -2,1 1,0 2,1 1,1 m -2,-13 1,1 0,10 2,1 m -5,-11 2,-2 2,2 0,9 2,1 -2,2 m 0,-11 3,-1 2,-1 1,-1 2,2 0,9 2,1 -2,2 M -2,-4 0,-3 0,7 2,8 m -6,-11 1,0 2,1 0,8 -1,1 2,1 1,1 m 0,-11 3,-1 2,-1 1,-1 1,1 2,1 1,0 -2,1 0,8 1,1 1,0 M 6,-4 8,-3 8,7 9,8 m -5,-11 1,0 2,1 0,9 2,2 2,-2"
         transform="translate(209,0)"
         id="path18970" />
      <path
         inkscape:connector-curvature="0"
         style="fill:none;stroke:#000000;stroke-width:1.24785936;stroke-miterlimit:4;stroke-dasharray:none"
         d="m -2,0 -2,2 -1,2 0,2 1,2 2,1 2,-2 3,-1 m -8,-2 1,2 1,1 2,1 m -3,-6 0,2 1,2 2,1 1,0 m -4,-9 2,0 3,-1 2,-1 1,-1 2,2 -1,1 0,8 1,1 1,0 m -10,-11 -1,1 3,0 m 3,0 3,0 -1,-1 0,11 1,1 m -10,-11 2,-2 1,1 2,1 3,1 0,9 2,2 2,-2 M -5,-3 0,2"
         transform="translate(230,0)"
         id="path18972" />
      <path
         inkscape:connector-curvature="0"
         style="fill:none;stroke:#000000;stroke-width:1.24785936;stroke-miterlimit:4;stroke-dasharray:none"
         d="m -5,-3 0,4 2,1 6,0 2,1 0,4 m -9,-10 0,4 m 8,2 0,4 m -6,-11 -1,1 0,4 2,1 M 1,2 3,3 3,7 2,8 m -7,-11 3,-1 2,-1 2,1 2,0 1,-1 m -6,1 2,0 m -3,0 2,1 2,0 2,-1 M 5,7 2,8 0,9 -2,8 -4,8 -6,9 M 1,8 -1,8 M 2,8 0,7 -3,7 -6,9 M 5,-5 4,-3 2,0 -3,5 -6,9"
         transform="translate(247,0)"
         id="path18974" />
    </g>
    <g
       id="g18976"
       transform="matrix(3.2054894,0,0,3.2054894,1206.1371,545.9815)"
       inkscape:label="Hershey Text"
       style="stroke-width:0.79473728;stroke-miterlimit:4;stroke-dasharray:none">
      <path
         id="path18978"
         transform="translate(14,0)"
         d="m -6,-8 -1,1 -1,2 0,2 -2,0 -1,1 0,2 1,-1 2,0 0,4 m 1,-9 0,7 m -3,-3 3,0 m 1,-6 0,8 -1,2 -1,1 m -5,6 2,-2 2,-1 2,0 2,1 1,0 1,-1 m -7,1 3,0 2,1 m -8,1 2,-1 3,0 2,1 1,0 1,-1 1,-2 m -3,-14 4,-4 4,4 0,13 1,2 1,0 M -2,-11 1,-8 1,6 0,7 1,8 2,7 1,6 m -3,-8 3,0 m -5,-8 1,0 3,3 0,4 -3,0 m 0,2 3,0 0,7 -1,1 2,2 3,-2 1,-1 m -3,-14 4,-4 4,4 0,13 1,2 1,0 M 6,-11 9,-8 9,6 11,8 M 6,-2 9,-2 m -5,-8 1,0 3,3 0,4 -3,0 m 0,2 3,0 0,8 2,2 2,-2 M -3,-10 -3,6 M 5,-10 5,6"
         style="fill:none;stroke:#000000;stroke-width:1.24785936;stroke-miterlimit:4;stroke-dasharray:none"
         inkscape:connector-curvature="0" />
      <path
         id="path18980"
         transform="translate(36,0)"
         d="m -4,-3 0,9 -2,1 1,0 2,1 1,1 M -3,-3 -3,7 -1,8 M -2,-3 -2,6 0,7 1,7 -1,8 -2,9 M -4,-3 0,-4 2,-5 5,-1 3,0 -2,3 m 3,-7 3,3 m -6,-2 2,-1 3,4"
         style="fill:none;stroke:#000000;stroke-width:1.24785936;stroke-miterlimit:4;stroke-dasharray:none"
         inkscape:connector-curvature="0" />
      <path
         id="path18982"
         transform="translate(50,0)"
         d="m -6,-3 1,0 1,1 0,8 -2,1 1,0 2,1 1,1 m -3,-13 2,1 0,10 2,1 m -5,-11 2,-2 2,2 0,9 2,1 1,0 -2,1 -1,1 m 0,-12 4,-2 1,1 2,1 1,0 m -5,-1 1,1 2,0 m -4,-1 2,2 2,0 2,-1"
         style="fill:none;stroke:#000000;stroke-width:1.24785936;stroke-miterlimit:4;stroke-dasharray:none"
         inkscape:connector-curvature="0" />
      <path
         id="path18984"
         transform="translate(64,0)"
         d="m -6,-3 1,0 1,1 0,8 -2,1 1,0 2,1 1,1 m -3,-13 2,1 0,10 2,1 m -5,-11 2,-2 2,2 0,9 2,1 1,0 -2,1 -1,1 m 0,-12 4,-2 1,1 2,1 1,0 m -5,-1 1,1 2,0 m -4,-1 2,2 2,0 2,-1"
         style="fill:none;stroke:#000000;stroke-width:1.24785936;stroke-miterlimit:4;stroke-dasharray:none"
         inkscape:connector-curvature="0" />
      <path
         id="path18986"
         transform="translate(79,0)"
         d="m -7,-3 1,0 1,1 0,8 -2,1 m 1,-11 2,1 0,10 2,1 m -5,-11 2,-2 2,2 0,9 2,1 1,0 m -7,0 1,0 2,1 1,1 1,-1 2,-1 3,-1 m 0,-11 1,1 2,1 1,0 -2,1 0,12 -1,3 -2,2 -2,1 -1,-1 -2,-1 -2,0 m 7,-18 2,1 0,13 m -3,5 -2,-1 -1,0 m 5,-19 -2,2 2,1 0,10 1,3 0,2 m -2,2 -1,-1 -2,-1 -2,0 -2,1"
         style="fill:none;stroke:#000000;stroke-width:1.24785936;stroke-miterlimit:4;stroke-dasharray:none"
         inkscape:connector-curvature="0" />
      <path
         id="path18988"
         transform="translate(96,0)"
         d=""
         style="fill:none;stroke:#000000;stroke-width:1.24785936;stroke-miterlimit:4;stroke-dasharray:none"
         inkscape:connector-curvature="0" />
      <path
         id="path18990"
         transform="translate(117,0)"
         d="m -4,-11 -2,1 -2,2 -1,2 -1,3 0,4 1,3 1,2 3,2 3,1 L 1,9 4,8 6,7 8,5 9,3 m -17,-10 -1,3 0,5 2,4 3,2 3,1 3,0 3,-1 m -9,-18 -2,2 -1,2 -1,3 0,4 1,3 3,3 3,1 L 2,7 5,6 7,5 9,3 M -2,-8 -2,4 M -1,-8 -1,2 M 0,-9 0,1 -1,3 -2,4 m 0,-12 2,-1 3,-3 2,1 2,0 1,-1 m -6,1 2,1 2,0 m -5,0 2,1 2,0 2,-1 1,-2 M 5,-9 5,6"
         style="fill:none;stroke:#000000;stroke-width:1.24785936;stroke-miterlimit:4;stroke-dasharray:none"
         inkscape:connector-curvature="0" />
      <path
         id="path18992"
         transform="translate(137,0)"
         d="m -6,-10 1,2 0,14 -2,1 1,0 2,1 1,1 m -1,-17 -1,-2 1,-1 0,18 2,1 m -4,-18 3,-2 0,18 2,1 -2,2 m 0,-11 3,-1 2,-1 1,-1 1,1 2,1 1,0 -2,1 0,9 -2,2 -1,2 M 2,-4 4,-3 4,7 3,9 m -3,-12 1,0 2,1 0,9 -1,4 0,3 1,2 1,0 -2,-2"
         style="fill:none;stroke:#000000;stroke-width:1.24785936;stroke-miterlimit:4;stroke-dasharray:none"
         inkscape:connector-curvature="0" />
      <path
         id="path18994"
         transform="translate(154,0)"
         d="m -6,-3 1,0 1,1 0,8 -2,1 1,0 2,1 1,1 m -3,-13 2,1 0,10 2,1 m -5,-11 2,-2 2,2 0,9 2,1 1,0 -2,1 -1,1 m 0,-12 4,-2 1,1 2,1 1,0 m -5,-1 1,1 2,0 m -4,-1 2,2 2,0 2,-1"
         style="fill:none;stroke:#000000;stroke-width:1.24785936;stroke-miterlimit:4;stroke-dasharray:none"
         inkscape:connector-curvature="0" />
      <path
         id="path18996"
         transform="translate(165,0)"
         d="m 0,-12 -2,2 2,1 2,-1 -2,-2 m 0,1 -1,1 2,0 -1,-1 m 0,6 -1,1 -2,1 2,1 0,9 2,2 2,-2 m -3,-9 1,-1 -1,-1 -1,1 1,1 0,9 1,1 m -1,-13 1,1 2,1 -2,1 0,8 1,1 1,0"
         style="fill:none;stroke:#000000;stroke-width:1.24785936;stroke-miterlimit:4;stroke-dasharray:none"
         inkscape:connector-curvature="0" />
      <path
         id="path18998"
         transform="translate(178,0)"
         d="m -5,-3 0,4 2,1 6,0 2,1 0,4 m -9,-10 0,4 m 8,2 0,4 m -6,-11 -1,1 0,4 2,1 M 1,2 3,3 3,7 2,8 m -7,-11 3,-1 2,-1 2,1 2,0 1,-1 m -6,1 2,0 m -3,0 2,1 2,0 2,-1 M 5,7 2,8 0,9 -2,8 -4,8 -6,9 M 1,8 -1,8 M 2,8 0,7 -3,7 -6,9 M 5,-5 4,-3 2,0 -3,5 -6,9"
         style="fill:none;stroke:#000000;stroke-width:1.24785936;stroke-miterlimit:4;stroke-dasharray:none"
         inkscape:connector-curvature="0" />
      <path
         id="path19000"
         transform="translate(191,0)"
         d="m -2,-10 1,2 0,14 -2,1 1,0 2,1 1,1 M 0,-8 -1,-10 0,-11 0,7 2,8 M -2,-10 1,-12 1,6 3,7 4,7 2,8 1,9 m -5,-14 3,0 m 2,0 3,0"
         style="fill:none;stroke:#000000;stroke-width:1.24785936;stroke-miterlimit:4;stroke-dasharray:none"
         inkscape:connector-curvature="0" />
      <path
         id="path19002"
         transform="translate(209,0)"
         d="m -11,-3 1,0 1,1 0,8 -2,1 1,0 2,1 1,1 m -2,-13 1,1 0,10 2,1 m -5,-11 2,-2 2,2 0,9 2,1 -2,2 m 0,-11 3,-1 2,-1 1,-1 2,2 0,9 2,1 -2,2 M -2,-4 0,-3 0,7 2,8 m -6,-11 1,0 2,1 0,8 -1,1 2,1 1,1 m 0,-11 3,-1 2,-1 1,-1 1,1 2,1 1,0 -2,1 0,8 1,1 1,0 M 6,-4 8,-3 8,7 9,8 m -5,-11 1,0 2,1 0,9 2,2 2,-2"
         style="fill:none;stroke:#000000;stroke-width:1.24785936;stroke-miterlimit:4;stroke-dasharray:none"
         inkscape:connector-curvature="0" />
      <path
         id="path19004"
         transform="translate(230,0)"
         d="m -2,0 -2,2 -1,2 0,2 1,2 2,1 2,-2 3,-1 m -8,-2 1,2 1,1 2,1 m -3,-6 0,2 1,2 2,1 1,0 m -4,-9 2,0 3,-1 2,-1 1,-1 2,2 -1,1 0,8 1,1 1,0 m -10,-11 -1,1 3,0 m 3,0 3,0 -1,-1 0,11 1,1 m -10,-11 2,-2 1,1 2,1 3,1 0,9 2,2 2,-2 M -5,-3 0,2"
         style="fill:none;stroke:#000000;stroke-width:1.24785936;stroke-miterlimit:4;stroke-dasharray:none"
         inkscape:connector-curvature="0" />
      <path
         id="path19006"
         transform="translate(247,0)"
         d="m -5,-3 0,4 2,1 6,0 2,1 0,4 m -9,-10 0,4 m 8,2 0,4 m -6,-11 -1,1 0,4 2,1 M 1,2 3,3 3,7 2,8 m -7,-11 3,-1 2,-1 2,1 2,0 1,-1 m -6,1 2,0 m -3,0 2,1 2,0 2,-1 M 5,7 2,8 0,9 -2,8 -4,8 -6,9 M 1,8 -1,8 M 2,8 0,7 -3,7 -6,9 M 5,-5 4,-3 2,0 -3,5 -6,9"
         style="fill:none;stroke:#000000;stroke-width:1.24785936;stroke-miterlimit:4;stroke-dasharray:none"
         inkscape:connector-curvature="0" />
    </g>
  </g>
  <g
     style="display:inline"
     inkscape:label="2green"
     id="layer3"
     inkscape:groupmode="layer">
    <path
       sodipodi:nodetypes="ccccccccccccccccccccccccccccccccccccccccccccccccccccccccccc"
       id="path24415"
       d="M 5.7375264e-7,776.41582 55.168358,818.7104 l 55.168352,-42.29458 55.16835,42.29458 55.16836,-42.29458 55.16837,42.29458 55.16836,-42.29458 55.16835,42.29458 55.16836,-42.29458 55.16836,42.29458 55.16835,-42.29458 55.16839,42.29458 55.16839,-42.29458 55.16838,42.29458 55.16839,-42.29458 55.16838,42.29458 55.16839,-42.29458 55.16839,42.29458 55.16842,-42.29458 55.1684,42.29458 55.1683,-42.29458 55.1683,42.29458 55.1684,-42.29458 55.1683,42.29458 55.1683,-42.29458 55.1683,42.29458 55.1683,-42.29458 55.1683,42.29458 55.1683,-42.29458 55.1684,42.29458 55.1683,-42.29458 55.1683,42.29458 55.1683,-42.29458 55.1684,42.29458 55.1683,-42.29458 55.1683,42.29458 55.1684,-42.29458 55.1683,42.29458 55.1683,-42.29458 55.1685,42.29458 55.1684,-42.29458 55.1684,42.29458 55.1685,-42.29458 55.1685,42.29458 55.1684,-42.29458 55.1684,42.29458 55.1685,-42.29458 55.1685,42.29458 55.1684,-42.29458 55.1685,42.29458 55.1684,-42.29458 55.1684,42.29458 55.1685,-42.29458 55.1685,42.29458 55.1684,-42.29458 55.1684,42.29458 55.1685,-42.29458 55.1684,42.29458 55.1684,-42.29458"
       style="fill:none;stroke:#4e9a06;stroke-width:4;stroke-linecap:butt;stroke-linejoin:miter;stroke-miterlimit:4;stroke-opacity:1;stroke-dasharray:none;display:inline"
       inkscape:connector-curvature="0" />
    <path
       style="fill:none;stroke:#4e9a06;stroke-width:4;stroke-linecap:butt;stroke-linejoin:miter;stroke-miterlimit:4;stroke-opacity:1;stroke-dasharray:none;display:inline"
       d="M 5.7375264e-7,760.33766 55.168358,802.63223 l 55.168352,-42.29457 55.16835,42.29457 55.16836,-42.29457 55.16837,42.29457 55.16836,-42.29457 55.16835,42.29457 55.16836,-42.29457 55.16836,42.29457 55.16835,-42.29457 55.16839,42.29457 55.16839,-42.29457 55.16838,42.29457 55.16839,-42.29457 55.16838,42.29457 55.16839,-42.29457 55.16839,42.29457 55.16842,-42.29457 55.1684,42.29457 55.1683,-42.29457 55.1683,42.29457 55.1684,-42.29457 55.1683,42.29457 55.1683,-42.29457 55.1683,42.29457 55.1683,-42.29457 55.1683,42.29457 55.1683,-42.29457 55.1684,42.29457 55.1683,-42.29457 55.1683,42.29457 55.1683,-42.29457 55.1684,42.29457 55.1683,-42.29457 55.1683,42.29457 55.1684,-42.29457 55.1683,42.29457 55.1683,-42.29457 55.1685,42.29457 55.1684,-42.29457 55.1684,42.29457 55.1685,-42.29457 55.1685,42.29457 55.1684,-42.29457 55.1684,42.29457 55.1685,-42.29457 55.1685,42.29457 55.1684,-42.29457 55.1685,42.29457 55.1684,-42.29457 55.1684,42.29457 55.1685,-42.29457 55.1685,42.29457 55.1684,-42.29457 55.1684,42.29457 55.1685,-42.29457 55.1684,42.29457 55.1684,-42.29457"
       id="path24417"
       sodipodi:nodetypes="ccccccccccccccccccccccccccccccccccccccccccccccccccccccccccc"
       inkscape:connector-curvature="0" />
    <path
       inkscape:connector-curvature="0"
       id="path6497"
       style="fill:none;stroke:#4e9a06;stroke-width:4;stroke-linecap:butt;stroke-linejoin:miter;stroke-miterlimit:4;stroke-opacity:1;stroke-dasharray:none;display:inline"
       d="m 3208.5897,705.54506 m -3208.73682721,0 C 231.17642,705.54506 -188.1094,571.56391 43.214146,571.56391 c 231.323534,0 -187.962116,133.98115 43.361413,133.98115 231.323531,-1e-5 -187.962349,-133.98113 43.361191,-133.98115 231.32354,0 -187.962033,133.98115 43.3615,133.98115 231.32354,-1e-5 -187.96241,-133.98113 43.36113,-133.98115 231.32353,0 -187.961966,133.98115 43.36156,133.98115 231.32355,-3e-5 -187.96249,-133.98112 43.36105,-133.98115 231.32354,-2e-5 -187.96188,133.98118 43.36165,133.98115 231.32353,-3e-5 -187.96258,-133.98112 43.36096,-133.98115 231.32354,-2e-5 -187.9618,133.98118 43.36174,133.98115 231.32353,-3e-5 -187.96264,-133.98112 43.3609,-133.98115 231.32353,-2e-5 -187.96174,133.98118 43.36178,133.98115 231.32355,-3e-5 -187.96274,-133.9811 43.3608,-133.98115 231.32353,-3e-5 -187.96163,133.98119 43.36191,133.98115 231.32357,-3e-5 -187.96287,-133.9811 43.36066,-133.98115 231.32357,-5e-5 -187.9615,133.98119 43.36203,133.98115 231.32355,-4e-5 -187.96298,-133.9811 43.36057,-133.98115 231.32358,-5e-5 -187.96141,133.98121 43.36214,133.98115 231.32357,-4e-5 -187.96311,-133.9811 43.36043,-133.98115 231.32354,-5e-5 -187.96134,133.98121 43.36214,133.98115 231.3236,-6e-5 -187.96309,-133.98108 43.36049,-133.98115 231.32351,-5e-5 -187.96139,133.98121 43.3621,133.98115 231.32361,-6e-5 -187.9631,-133.98108 43.36043,-133.98115 231.32358,-5e-5 -187.96136,133.98121 43.36218,133.98115 231.3236,-6e-5 -187.96308,-133.98108 43.3605,-133.98115 231.3235,-5e-5 -187.9615,133.98121 43.3622,133.98115 231.3234,-6e-5 -187.96328,-133.98108 43.3602,-133.98115 231.3236,-5e-5 -187.96127,133.98121 43.3623,133.98115 231.3235,-6e-5 -187.9631,-133.98108 43.3603,-133.98115 231.3236,-5e-5 -187.9613,133.98121 43.3622,133.98115 231.3236,-6e-5 -187.9631,-133.98108 43.3605,-133.98115 231.3235,-5e-5 -187.9613,133.98121 43.3622,133.98115 231.3235,-6e-5 -187.9632,-133.98108 43.3604,-133.98115 231.3235,-5e-5 -187.9615,133.98121 43.3622,133.98115 231.3234,-6e-5 -187.9632,-133.98108 43.3603,-133.98115 231.3236,-5e-5 -187.9614,133.98121 43.3622,133.98115 231.3235,-6e-5 -187.9632,-133.98108 43.3604,-133.98115 231.3235,-5e-5 -187.9613,133.98121 43.3622,133.98115 231.3235,-6e-5 -187.9632,-133.98108 43.3605,-133.98115 231.3234,-5e-5 -187.9615,133.98121 43.3621,133.98115 231.3236,-6e-5 -187.9631,-133.98108 43.3603,-133.98115 231.3236,-5e-5 -187.9612,133.98123 43.3624,133.98115 231.3235,-6e-5 -187.9632,-133.98108 43.3603,-133.98115 231.3237,-5e-5 -187.9613,133.98121 43.3622,133.98115 231.3236,-6e-5 -187.9631,-133.98108 43.3604,-133.98115 231.3236,-5e-5 -187.9614,133.98121 43.3622,133.98115 231.3236,-6e-5 -187.9631,-133.98108 43.3605,-133.98115 231.3235,-5e-5 -187.9615,133.98121 43.3622,133.98115 231.3234,-6e-5 -187.9633,-133.98108 43.3604,-133.98115 231.3235,-5e-5 -187.9614,133.98121 43.3621,133.98115 231.3235,-6e-5 -187.9632,-133.98108 43.3604,-133.98115 231.3234,-5e-5 -187.9613,133.98121 43.3621,133.98115 231.3237,-6e-5 -187.963,-133.98108 43.3604,-133.98115 231.3236,-5e-5 -187.9614,133.98121 43.3622,133.98115 231.3236,-6e-5 -187.963,-133.98108 43.3605,-133.98115 231.3236,-5e-5 -187.9613,133.98121 43.3623,133.98115 231.3233,-6e-5 -187.9634,-133.98108 43.3602,-133.98115 231.3235,-5e-5 -187.9613,133.98121 43.3623,133.98115 231.3235,-6e-5 -187.9632,-133.98108 43.3604,-133.98115 231.3234,-5e-5 -187.9615,133.98121 43.362,133.98115 231.3236,-6e-5 -187.963,-133.98108 43.3605,-133.98115 231.3236,-5e-5 -187.9613,133.98121 43.3623,133.98115 231.3234,-6e-5 -187.9633,-133.98108 43.3603,-133.98115 231.3235,-5e-5 -187.9613,133.98121 43.3622,133.98115 231.3235,-6e-5 -187.9632,-133.98108 43.3604,-133.98115 231.3235,-5e-5 -187.9615,133.98121 43.3622,133.98115 231.3235,-6e-5 -187.9632,-133.98108 43.3603,-133.98115 231.3236,-5e-5 -187.9613,133.98121 43.3622,133.98115 231.3235,-6e-5 -187.9632,-133.98108 43.3605,-133.98115 231.3235,-5e-5 -187.9614,133.98121 43.3621,133.98115 231.3236,-6e-5 -187.9631,-133.98108 43.3605,-133.98115 231.3234,-5e-5 -187.9615,133.98121 43.3621,133.98115 231.3236,-6e-5 -187.9631,-133.98108 43.3603,-133.98115 231.3237,-5e-5 -187.9613,133.98121 43.3624,133.98115"
       sodipodi:nodetypes="cczzzzzzzzzzzzzzzzzzzzzzzzzzzzzzzzzzzzzzzzzzzzzzzzzzzzzzzzzzzzzzzzzzzzzzzzzz" />
    <path
       sodipodi:nodetypes="cczzzzzzzzzzzzzzzzzzzzzzzzzzzzzzzzzzzzzzzzzzzzzzzzzzzzzzzzzzzzzzzzzzzzzzzzzz"
       d="m 3208.5897,292.53898 m -3208.73682721,0 c 231.32354721,0 -187.96227279,133.98116 43.36127321,133.98116 231.323534,0 -187.962116,-133.98116 43.361413,-133.98116 231.323531,2e-5 -187.962349,133.98114 43.361191,133.98116 231.32354,0 -187.962033,-133.98116 43.3615,-133.98116 231.32354,2e-5 -187.96241,133.98114 43.36113,133.98116 231.32353,0 -187.961966,-133.98116 43.36156,-133.98116 231.32355,3e-5 -187.96249,133.98112 43.36105,133.98116 231.32354,10e-6 -187.96188,-133.98118 43.36165,-133.98116 231.32353,3e-5 -187.96258,133.98112 43.36096,133.98116 231.32354,10e-6 -187.9618,-133.98118 43.36174,-133.98116 231.32353,3e-5 -187.96264,133.98112 43.3609,133.98116 231.32353,10e-6 -187.96174,-133.98118 43.36178,-133.98116 231.32355,3e-5 -187.96274,133.98111 43.3608,133.98116 231.32353,3e-5 -187.96163,-133.9812 43.36191,-133.98116 231.32357,3e-5 -187.96287,133.98111 43.36066,133.98116 231.32357,4e-5 -187.9615,-133.9812 43.36203,-133.98116 231.32355,5e-5 -187.96298,133.98111 43.36057,133.98116 231.32358,4e-5 -187.96141,-133.98121 43.36214,-133.98116 231.32357,5e-5 -187.96311,133.98111 43.36043,133.98116 231.32354,4e-5 -187.96134,-133.98121 43.36214,-133.98116 231.3236,7e-5 -187.96309,133.98109 43.36049,133.98116 231.32351,4e-5 -187.96139,-133.98121 43.3621,-133.98116 231.32361,7e-5 -187.9631,133.98109 43.36043,133.98116 231.32358,4e-5 -187.96136,-133.98121 43.36218,-133.98116 231.3236,7e-5 -187.96308,133.98109 43.3605,133.98116 231.3235,4e-5 -187.9615,-133.98121 43.3622,-133.98116 231.3234,7e-5 -187.96328,133.98109 43.3602,133.98116 231.3236,4e-5 -187.96127,-133.98121 43.3623,-133.98116 231.3235,7e-5 -187.9631,133.98109 43.3603,133.98116 231.3236,4e-5 -187.9613,-133.98121 43.3622,-133.98116 231.3236,7e-5 -187.9631,133.98109 43.3605,133.98116 231.3235,4e-5 -187.9613,-133.98121 43.3622,-133.98116 231.3235,7e-5 -187.9632,133.98109 43.3604,133.98116 231.3235,4e-5 -187.9615,-133.98121 43.3622,-133.98116 231.3234,7e-5 -187.9632,133.98109 43.3603,133.98116 231.3236,4e-5 -187.9614,-133.98121 43.3622,-133.98116 231.3235,7e-5 -187.9632,133.98109 43.3604,133.98116 231.3235,4e-5 -187.9613,-133.98121 43.3622,-133.98116 231.3235,7e-5 -187.9632,133.98109 43.3605,133.98116 231.3234,4e-5 -187.9615,-133.98121 43.3621,-133.98116 231.3236,7e-5 -187.9631,133.98109 43.3603,133.98116 231.3236,4e-5 -187.9612,-133.98123 43.3624,-133.98116 231.3235,7e-5 -187.9632,133.98109 43.3603,133.98116 231.3237,4e-5 -187.9613,-133.98121 43.3622,-133.98116 231.3236,7e-5 -187.9631,133.98109 43.3604,133.98116 231.3236,4e-5 -187.9614,-133.98121 43.3622,-133.98116 231.3236,7e-5 -187.9631,133.98109 43.3605,133.98116 231.3235,4e-5 -187.9615,-133.98121 43.3622,-133.98116 231.3234,7e-5 -187.9633,133.98109 43.3604,133.98116 231.3235,4e-5 -187.9614,-133.98121 43.3621,-133.98116 231.3235,7e-5 -187.9632,133.98109 43.3604,133.98116 231.3234,4e-5 -187.9613,-133.98121 43.3621,-133.98116 231.3237,7e-5 -187.963,133.98109 43.3604,133.98116 231.3236,4e-5 -187.9614,-133.98121 43.3622,-133.98116 231.3236,7e-5 -187.963,133.98109 43.3605,133.98116 231.3236,4e-5 -187.9613,-133.98121 43.3623,-133.98116 231.3233,7e-5 -187.9634,133.98109 43.3602,133.98116 231.3235,4e-5 -187.9613,-133.98121 43.3623,-133.98116 231.3235,7e-5 -187.9632,133.98109 43.3604,133.98116 231.3234,4e-5 -187.9615,-133.98121 43.362,-133.98116 231.3236,7e-5 -187.963,133.98109 43.3605,133.98116 231.3236,4e-5 -187.9613,-133.98121 43.3623,-133.98116 231.3234,7e-5 -187.9633,133.98109 43.3603,133.98116 231.3235,4e-5 -187.9613,-133.98121 43.3622,-133.98116 231.3235,7e-5 -187.9632,133.98109 43.3604,133.98116 231.3235,4e-5 -187.9615,-133.98121 43.3622,-133.98116 231.3235,7e-5 -187.9632,133.98109 43.3603,133.98116 231.3236,4e-5 -187.9613,-133.98121 43.3622,-133.98116 231.3235,7e-5 -187.9632,133.98109 43.3605,133.98116 231.3235,4e-5 -187.9614,-133.98121 43.3621,-133.98116 231.3236,7e-5 -187.9631,133.98109 43.3605,133.98116 231.3234,4e-5 -187.9615,-133.98121 43.3621,-133.98116 231.3236,7e-5 -187.9631,133.98109 43.3603,133.98116 231.3237,4e-5 -187.9613,-133.98121 43.3624,-133.98116"
       style="fill:none;stroke:#4e9a06;stroke-width:4;stroke-linecap:butt;stroke-linejoin:miter;stroke-miterlimit:4;stroke-opacity:1;stroke-dasharray:none;display:inline"
       id="path7358"
       inkscape:connector-curvature="0" />
    <path
       style="fill:none;stroke:#4e9a06;stroke-width:4;stroke-linecap:butt;stroke-linejoin:miter;stroke-miterlimit:4;stroke-opacity:1;stroke-dasharray:none;display:inline"
       d="M 5.7375264e-7,221.66817 55.168358,179.37359 l 55.168352,42.29458 55.16835,-42.29458 55.16836,42.29458 55.16837,-42.29458 55.16836,42.29458 55.16835,-42.29458 55.16836,42.29458 55.16836,-42.29458 55.16835,42.29458 55.16839,-42.29458 55.16839,42.29458 55.16838,-42.29458 55.16839,42.29458 55.16838,-42.29458 55.16839,42.29458 55.16839,-42.29458 55.16842,42.29458 55.1684,-42.29458 55.1683,42.29458 55.1683,-42.29458 55.1684,42.29458 55.1683,-42.29458 55.1683,42.29458 55.1683,-42.29458 55.1683,42.29458 55.1683,-42.29458 55.1683,42.29458 55.1684,-42.29458 55.1683,42.29458 55.1683,-42.29458 55.1683,42.29458 55.1684,-42.29458 55.1683,42.29458 55.1683,-42.29458 55.1684,42.29458 55.1683,-42.29458 55.1683,42.29458 55.1685,-42.29458 55.1684,42.29458 55.1684,-42.29458 55.1685,42.29458 55.1685,-42.29458 55.1684,42.29458 55.1684,-42.29458 55.1685,42.29458 55.1685,-42.29458 55.1684,42.29458 55.1685,-42.29458 55.1684,42.29458 55.1684,-42.29458 55.1685,42.29458 55.1685,-42.29458 55.1684,42.29458 55.1684,-42.29458 55.1685,42.29458 55.1684,-42.29458 55.1684,42.29458"
       id="path7360"
       sodipodi:nodetypes="ccccccccccccccccccccccccccccccccccccccccccccccccccccccccccc"
       inkscape:connector-curvature="0" />
    <path
       inkscape:connector-curvature="0"
       sodipodi:nodetypes="ccccccccccccccccccccccccccccccccccccccccccccccccccccccccccc"
       id="path7362"
       d="M 5.7375264e-7,237.74634 55.168358,195.45177 l 55.168352,42.29457 55.16835,-42.29457 55.16836,42.29457 55.16837,-42.29457 55.16836,42.29457 55.16835,-42.29457 55.16836,42.29457 55.16836,-42.29457 55.16835,42.29457 55.16839,-42.29457 55.16839,42.29457 55.16838,-42.29457 55.16839,42.29457 55.16838,-42.29457 55.16839,42.29457 55.16839,-42.29457 55.16842,42.29457 55.1684,-42.29457 55.1683,42.29457 55.1683,-42.29457 55.1684,42.29457 55.1683,-42.29457 55.1683,42.29457 55.1683,-42.29457 55.1683,42.29457 55.1683,-42.29457 55.1683,42.29457 55.1684,-42.29457 55.1683,42.29457 55.1683,-42.29457 55.1683,42.29457 55.1684,-42.29457 55.1683,42.29457 55.1683,-42.29457 55.1684,42.29457 55.1683,-42.29457 55.1683,42.29457 55.1685,-42.29457 55.1684,42.29457 55.1684,-42.29457 55.1685,42.29457 55.1685,-42.29457 55.1684,42.29457 55.1684,-42.29457 55.1685,42.29457 55.1685,-42.29457 55.1684,42.29457 55.1685,-42.29457 55.1684,42.29457 55.1684,-42.29457 55.1685,42.29457 55.1685,-42.29457 55.1684,42.29457 55.1684,-42.29457 55.1685,42.29457 55.1684,-42.29457 55.1684,42.29457"
       style="fill:none;stroke:#4e9a06;stroke-width:4;stroke-linecap:butt;stroke-linejoin:miter;stroke-miterlimit:4;stroke-opacity:1;stroke-dasharray:none;display:inline" />
  </g>
  <g
     style="display:inline"
     inkscape:label="1red"
     id="layer2"
     inkscape:groupmode="layer">
    <path
       style="fill:none;stroke:#a40000;stroke-width:4;stroke-linecap:butt;stroke-linejoin:miter;stroke-miterlimit:4;stroke-opacity:1;stroke-dasharray:none;display:inline"
       d="m 3.1098966,265.64724 3196.9737034,0"
       id="path24389"
       inkscape:connector-curvature="0" />
    <path
       inkscape:connector-curvature="0"
       id="path24407"
       d="m 3.1098966,247.07725 3196.9737034,0"
       style="fill:none;stroke:#a40000;stroke-width:4;stroke-linecap:butt;stroke-linejoin:miter;stroke-miterlimit:4;stroke-opacity:1;stroke-dasharray:none;display:inline" />
    <path
       inkscape:connector-curvature="0"
       id="path24409"
       d="m 3.1098966,751.00677 3196.9737034,0"
       style="fill:none;stroke:#a40000;stroke-width:4;stroke-linecap:butt;stroke-linejoin:miter;stroke-miterlimit:4;stroke-opacity:1;stroke-dasharray:none;display:inline" />
    <path
       style="fill:none;stroke:#a40000;stroke-width:4;stroke-linecap:butt;stroke-linejoin:miter;stroke-miterlimit:4;stroke-opacity:1;stroke-dasharray:none;display:inline"
       d="m 3.1098966,732.43681 3196.9737034,0"
       id="path24411"
       inkscape:connector-curvature="0" />
    <path
       inkscape:connector-curvature="0"
       id="path24419"
       d="m 3.1098966,828.04127 3196.9737034,0"
       style="fill:none;stroke:#a40000;stroke-width:4;stroke-linecap:butt;stroke-linejoin:miter;stroke-miterlimit:4;stroke-opacity:1;stroke-dasharray:none;display:inline" />
    <path
       inkscape:connector-curvature="0"
       style="fill:none;stroke:#a40000;stroke-width:4;stroke-linecap:butt;stroke-linejoin:miter;stroke-miterlimit:4;stroke-opacity:1;stroke-dasharray:none;display:inline"
       d="m 3.1098966,846.61123 3196.9737034,0"
       id="path24421" />
    <path
       inkscape:connector-curvature="0"
       style="fill:none;stroke:#a40000;stroke-width:4;stroke-linecap:butt;stroke-linejoin:miter;stroke-miterlimit:4;stroke-opacity:1;stroke-dasharray:none;display:inline"
       d="m 3.1098966,170.04273 3196.9737034,0"
       id="path24423" />
    <path
       inkscape:connector-curvature="0"
       id="path24425"
       d="m 3.1098966,151.47275 3196.9737034,0"
       style="fill:none;stroke:#a40000;stroke-width:4;stroke-linecap:butt;stroke-linejoin:miter;stroke-miterlimit:4;stroke-opacity:1;stroke-dasharray:none;display:inline" />
  </g>
  <eggbot
     id="eggbot17373"
     totaldeltay="0"
     totaldeltax="0"
     lastpathnc="0"
     lastpath="0"
     node="0"
     layer="0"
     serialport="/dev/ttyACM0" />
</svg>
