<?xml version="1.0" encoding="UTF-8" standalone="no"?>
<!-- Created with Inkscape (http://www.inkscape.org/) -->

<svg
   xmlns:dc="http://purl.org/dc/elements/1.1/"
   xmlns:cc="http://creativecommons.org/ns#"
   xmlns:rdf="http://www.w3.org/1999/02/22-rdf-syntax-ns#"
   xmlns:svg="http://www.w3.org/2000/svg"
   xmlns="http://www.w3.org/2000/svg"
   xmlns:sodipodi="http://sodipodi.sourceforge.net/DTD/sodipodi-0.dtd"
   xmlns:inkscape="http://www.inkscape.org/namespaces/inkscape"
   width="384.47821"
   height="436.29416"
   id="svg2"
   version="1.1"
   inkscape:version="0.48.0 r9654"
   sodipodi:docname="Icon - Snowflake - Monochrome.svg">
  <title
     id="title3324">Snowflake (Monchrome; Icon)</title>
  <defs
     id="defs4" />
  <sodipodi:namedview
     id="base"
     pagecolor="#ffffff"
     bordercolor="#666666"
     borderopacity="1.0"
     inkscape:pageopacity="0.0"
     inkscape:pageshadow="2"
     inkscape:zoom="0.175"
     inkscape:cx="625.71514"
     inkscape:cy="308.70803"
     inkscape:document-units="px"
     inkscape:current-layer="layer1"
     showgrid="false"
     inkscape:window-width="1024"
     inkscape:window-height="719"
     inkscape:window-x="-4"
     inkscape:window-y="-4"
     inkscape:window-maximized="1"
     fit-margin-top="0"
     fit-margin-left="0"
     fit-margin-right="0"
     fit-margin-bottom="0" />
  <metadata
     id="metadata7">
    <rdf:RDF>
      <cc:Work
         rdf:about="">
        <dc:format>image/svg+xml</dc:format>
        <dc:type
           rdf:resource="http://purl.org/dc/dcmitype/StillImage" />
        <dc:title>Snowflake (Monchrome; Icon)</dc:title>
        <cc:license
           rdf:resource="http://creativecommons.org/licenses/publicdomain/" />
        <dc:date>2011-01-23</dc:date>
        <dc:creator>
          <cc:Agent>
            <dc:title>Urs Roesch</dc:title>
          </cc:Agent>
        </dc:creator>
        <dc:rights>
          <cc:Agent>
            <dc:title>Public Domain</dc:title>
          </cc:Agent>
        </dc:rights>
        <dc:publisher>
          <cc:Agent>
            <dc:title>OpenClipart</dc:title>
          </cc:Agent>
        </dc:publisher>
        <dc:subject>
          <rdf:Bag>
            <rdf:li>Snowflake</rdf:li>
            <rdf:li>Icon</rdf:li>
            <rdf:li>Monochrome</rdf:li>
            <rdf:li>Black &amp; White</rdf:li>
            <rdf:li>Symbol</rdf:li>
          </rdf:Bag>
        </dc:subject>
        <dc:description>Monochrome snowflake icon</dc:description>
      </cc:Work>
      <cc:License
         rdf:about="http://creativecommons.org/licenses/publicdomain/">
        <cc:permits
           rdf:resource="http://creativecommons.org/ns#Reproduction" />
        <cc:permits
           rdf:resource="http://creativecommons.org/ns#Distribution" />
        <cc:permits
           rdf:resource="http://creativecommons.org/ns#DerivativeWorks" />
      </cc:License>
    </rdf:RDF>
  </metadata>
  <g
     inkscape:label="Layer 1"
     inkscape:groupmode="layer"
     id="layer1"
     transform="translate(-117.39474,-169.94744)">
    <path
       style="fill:#000000;fill-opacity:1;stroke:none"
       d="m 309.63455,169.94744 c -13.80264,0 -25.32737,11.5247 -25.32737,25.32737 l 0,16.75091 c -4.71248,-4.09587 -10.78155,-6.3036 -16.88492,-6.24249 -4.89251,0.049 -9.85797,1.55517 -14.11543,4.48921 -11.366,7.83289 -14.32279,23.85279 -6.48819,35.22161 l 37.48854,54.40695 0,20.65942 0,23.66347 -38.39309,-22.16702 -28.37603,-59.66675 c -5.92709,-12.46697 -21.27721,-17.92228 -33.7475,-11.99365 -4.68304,2.22641 -8.45818,5.77614 -10.94393,9.98354 -3.10264,5.2519 -4.23109,11.61039 -3.0375,17.74477 l -14.50628,-8.37541 c -11.95524,-6.90248 -27.68867,-2.6651 -34.58504,9.27998 -6.89627,11.94448 -2.6823,27.68512 9.26883,34.58507 l 14.50629,8.37541 c -5.90733,2.02916 -10.85668,6.18067 -13.85859,11.50233 -2.4107,4.27401 -3.58339,9.32197 -3.17151,14.47278 1.10047,13.7594 13.50131,24.32829 27.25932,23.22793 l 65.86457,-5.27095 38.39308,22.16701 -20.50311,11.83731 -17.88997,10.32971 -65.86457,-5.25976 c -13.75805,-1.10036 -26.15885,9.46863 -27.25932,23.22792 -0.41188,5.15092 0.76088,10.19881 3.17151,14.47279 3.00026,5.3188 7.94449,9.47192 13.84742,11.50229 l -14.49512,8.36427 c -11.96181,6.90616 -16.16871,22.64551 -9.26883,34.59624 6.89997,11.95116 22.64052,16.16517 34.58504,9.2688 l 14.50628,-8.37542 c -1.1957,6.13622 -0.0699,12.49592 3.0375,17.75593 2.49647,4.22559 6.29205,7.76077 10.94393,9.97239 12.45857,5.92305 27.8178,0.49011 33.7475,-11.9825 l 28.37603,-59.6779 17.87881,-10.32971 20.51428,-11.83731 0,23.67462 0,20.65945 -37.48854,54.40695 c -7.83464,11.36882 -4.87777,27.38872 6.48819,35.22157 4.25739,2.93401 9.22263,4.44028 14.11543,4.48924 6.10337,0.0611 12.17244,-2.14665 16.88492,-6.24248 l 0,16.7509 c 0,13.80265 11.52473,25.32738 25.32737,25.32738 13.80264,0 25.32737,-11.52473 25.32737,-25.32738 l 0,-16.7509 c 4.71249,4.09583 10.78155,6.30359 16.88492,6.24248 4.8928,-0.049 9.85797,-1.5552 14.11543,-4.48924 11.36596,-7.83285 14.32283,-23.85275 6.48819,-35.22157 l -37.48854,-54.40695 0,-20.65945 0,-23.67462 38.38192,22.16702 28.37604,59.6779 c 5.92969,12.47257 21.28895,17.90555 33.74751,11.9825 4.65195,-2.21162 8.4475,-5.74673 10.94393,-9.97239 3.10761,-5.26012 4.2332,-11.61968 3.0375,-17.75593 l 14.50626,8.37542 c 11.95063,6.8997 27.69009,2.69301 34.59621,-9.2688 6.90595,-11.96145 2.67565,-27.69366 -9.28002,-34.59624 l -14.49508,-8.36427 c 5.90293,-2.03034 10.84712,-6.18328 13.84742,-11.50229 2.41099,-4.27427 3.58343,-9.32198 3.1715,-14.47279 -1.10043,-13.75929 -13.50128,-24.32828 -27.25932,-23.22792 l -65.86458,5.25976 -17.88997,-10.32971 -20.50311,-11.83731 38.39308,-22.16701 65.86458,5.27095 c 13.758,1.10032 26.15889,-9.46863 27.25932,-23.22793 0.41193,-5.15081 -0.76062,-10.19863 -3.1715,-14.47278 -3.00194,-5.32188 -7.95128,-9.47317 -13.8586,-11.50233 l 14.50626,-8.37541 c 11.94491,-6.89638 16.1824,-22.62983 9.28002,-34.58507 -6.90255,-11.95563 -22.63478,-16.18596 -34.59621,-9.27998 l -14.50626,8.37541 c 1.19363,-6.13438 0.0653,-12.4928 -3.0375,-17.74477 -2.48578,-4.20768 -6.26089,-7.75713 -10.94393,-9.98354 -12.47028,-5.92863 -27.82045,-0.47332 -33.74751,11.99365 l -28.37604,59.66675 -38.38192,22.16702 0,-23.66347 0,-20.65942 37.48854,-54.40695 c 7.8346,-11.36882 4.87781,-27.38872 -6.48819,-35.22161 -4.25753,-2.93408 -9.22292,-4.44021 -14.11543,-4.48921 -6.10337,-0.0611 -12.17243,2.14662 -16.88492,6.24249 l 0,-16.75091 c 0,-13.80267 -11.52473,-25.32737 -25.32737,-25.32737 z m 0,13.07686 c 6.78767,0 12.2505,5.46285 12.2505,12.25051 l 0,57.3663 19.6209,-28.4654 c 2.40726,-3.49312 6.27722,-5.35496 10.20688,-5.31562 2.35778,0.0236 4.7385,0.73322 6.83437,2.1776 5.589,3.85166 6.98963,11.45223 3.13801,17.04129 l -39.80016,57.75714 0,24.7243 0,46.3107 61.5205,-35.52308 30.11814,-63.34077 c 2.91438,-6.13017 10.19641,-8.72137 16.32655,-5.80698 2.29881,1.0929 4.10509,2.80526 5.30447,4.83541 1.99889,3.38349 2.324,7.65982 0.50251,11.49111 l -14.84129,31.22369 49.67203,-28.67756 c 5.87827,-3.39381 13.34591,-1.38902 16.73972,4.48929 3.39385,5.87827 1.38903,13.33476 -4.48924,16.72854 l -49.68318,28.67755 34.47335,2.76948 c 4.22881,0.3382 7.7736,2.75265 9.70438,6.17552 1.15843,2.05374 1.7328,4.47577 1.5299,7.01305 -0.5411,6.76608 -6.42248,11.77541 -13.18853,11.23427 l -69.91831,-5.59478 -61.5205,35.52307 40.11284,23.16093 21.40766,12.36215 69.91831,-5.58363 c 6.76605,-0.54114 12.64743,4.46822 13.18853,11.23431 0.2029,2.53724 -0.37147,4.9593 -1.5299,7.01304 -1.93078,3.4229 -5.47557,5.83725 -9.70438,6.17549 l -34.4622,2.75833 49.67203,28.67755 c 5.87827,3.39382 7.88306,10.86146 4.48924,16.73973 -3.39381,5.87831 -10.86145,7.87191 -16.73972,4.47809 l -49.67203,-28.67755 14.84129,31.22369 c 1.82149,3.83129 1.49638,8.11877 -0.50251,11.50226 -1.19938,2.03015 -3.00566,3.73137 -5.30447,4.82426 -6.13014,2.91439 -13.41217,0.33437 -16.32655,-5.7958 l -30.11814,-63.35195 -61.5205,-35.52308 0,46.32185 0,24.72434 39.80016,57.75713 c 3.85165,5.58907 2.45099,13.1896 -3.13801,17.04125 -2.09587,1.44438 -4.47659,2.15401 -6.83437,2.17763 -3.92966,0.0393 -7.79962,-1.82249 -10.20688,-5.31561 l -19.6209,-28.46539 0,57.36628 c 0,6.78763 -5.46283,12.25048 -12.2505,12.25048 -6.78767,0 -12.2505,-5.46285 -12.2505,-12.25048 l 0,-57.36628 -19.6209,28.46539 c -2.40726,3.49312 -6.27722,5.35492 -10.20688,5.31561 -2.35781,-0.0236 -4.7385,-0.73325 -6.83437,-2.17763 -5.589,-3.85165 -6.98966,-11.45218 -3.13801,-17.04125 l 39.80016,-57.75713 0,-24.72434 0,-46.32185 -40.124,23.16093 -21.40767,12.36215 -30.11813,63.35195 c -2.91439,6.13017 -10.19642,8.71019 -16.32656,5.7958 -2.29877,-1.09289 -4.1051,-2.79411 -5.30445,-4.82426 -1.99889,-3.38349 -2.32402,-7.67097 -0.50253,-11.50226 l 14.85248,-31.23488 -49.6832,28.68874 c -5.8782,3.39385 -13.33472,1.40022 -16.72857,-4.47809 -3.39389,-5.87827 -1.4002,-13.34591 4.47807,-16.73973 l 49.67203,-28.67755 -34.4622,-2.75833 c -4.22881,-0.33824 -7.77358,-2.75259 -9.70436,-6.17549 -1.15839,-2.05374 -1.73282,-4.4758 -1.52992,-7.01304 0.54114,-6.76609 6.42251,-11.77545 13.18855,-11.23431 l 69.91829,5.58363 21.40766,-12.36215 40.12401,-23.16093 -61.53167,-35.52307 -69.91829,5.59478 c -6.76597,0.54114 -12.64741,-4.46819 -13.18855,-11.23427 -0.2029,-2.53728 0.37149,-4.95931 1.52992,-7.01305 1.93078,-3.42287 5.47555,-5.83732 9.70436,-6.17552 l 34.47337,-2.7583 -49.6832,-28.68873 c -5.87831,-3.39378 -7.87196,-10.85027 -4.47807,-16.72854 3.39381,-5.87831 10.85037,-7.8831 16.72857,-4.48929 l 49.6832,28.68875 -14.85248,-31.23488 c -1.82149,-3.83129 -1.49636,-8.10762 0.50253,-11.49111 1.19939,-2.03015 3.00568,-3.74251 5.30445,-4.83541 6.13014,-2.91439 13.41217,-0.32319 16.32656,5.80698 l 30.11813,63.34077 61.53167,35.52308 0,-46.3107 0,-24.7243 -39.80016,-57.75714 c -3.85162,-5.58906 -2.45099,-13.18963 3.13801,-17.04129 2.09587,-1.44438 4.47656,-2.15398 6.83437,-2.1776 3.92966,-0.0394 7.79962,1.8225 10.20688,5.31562 l 19.6209,28.4654 0,-57.3663 c 0,-6.78766 5.46283,-12.25051 12.2505,-12.25051 z"
       id="path3210"
       inkscape:connector-curvature="0" />
  </g>
</svg>
