<?xml version="1.0" encoding="UTF-8" standalone="no"?>
<!-- Created with Inkscape (http://www.inkscape.org/) -->

<svg
   xmlns:dc="http://purl.org/dc/elements/1.1/"
   xmlns:cc="http://creativecommons.org/ns#"
   xmlns:rdf="http://www.w3.org/1999/02/22-rdf-syntax-ns#"
   xmlns:svg="http://www.w3.org/2000/svg"
   xmlns="http://www.w3.org/2000/svg"
   xmlns:sodipodi="http://sodipodi.sourceforge.net/DTD/sodipodi-0.dtd"
   xmlns:inkscape="http://www.inkscape.org/namespaces/inkscape"
   sodipodi:docname="snowflakes.svg"
   inkscape:version="0.48.1 r9760"
   version="1.1"
   id="svg27345"
   height="1000"
   width="3200">
  <sodipodi:namedview
     id="base"
     pagecolor="#ffffff"
     bordercolor="#666666"
     borderopacity="1.0"
     inkscape:pageopacity="0.0"
     inkscape:pageshadow="2"
     inkscape:zoom="0.46380973"
     inkscape:cx="1162.1109"
     inkscape:cy="441.55515"
     inkscape:document-units="px"
     inkscape:current-layer="layer2"
     showgrid="false"
     inkscape:window-width="1600"
     inkscape:window-height="823"
     inkscape:window-x="0"
     inkscape:window-y="24"
     inkscape:window-maximized="1"
     inkscape:snap-bbox="true"
     inkscape:snap-page="true"
     inkscape:snap-nodes="false" />
  <defs
     id="defs27347">
    <inkscape:perspective
       sodipodi:type="inkscape:persp3d"
       inkscape:vp_x="0 : 526.18109 : 1"
       inkscape:vp_y="0 : 1000 : 0"
       inkscape:vp_z="744.09448 : 526.18109 : 1"
       inkscape:persp3d-origin="372.04724 : 350.78739 : 1"
       id="perspective27353" />
    <inkscape:perspective
       sodipodi:type="inkscape:persp3d"
       inkscape:vp_x="0 : 0.5 : 1"
       inkscape:vp_y="0 : 1000 : 0"
       inkscape:vp_z="1 : 0.5 : 1"
       inkscape:persp3d-origin="0.5 : 0.33333333 : 1"
       id="perspective6460" />
    <inkscape:perspective
       sodipodi:type="inkscape:persp3d"
       inkscape:vp_x="0 : 0.5 : 1"
       inkscape:vp_y="0 : 1000 : 0"
       inkscape:vp_z="1 : 0.5 : 1"
       inkscape:persp3d-origin="0.5 : 0.33333333 : 1"
       id="perspective23322" />
    <inkscape:perspective
       sodipodi:type="inkscape:persp3d"
       inkscape:vp_x="0 : 0.5 : 1"
       inkscape:vp_y="0 : 1000 : 0"
       inkscape:vp_z="1 : 0.5 : 1"
       inkscape:persp3d-origin="0.5 : 0.33333333 : 1"
       id="perspective23344" />
    <inkscape:perspective
       sodipodi:type="inkscape:persp3d"
       inkscape:vp_x="0 : 0.5 : 1"
       inkscape:vp_y="0 : 1000 : 0"
       inkscape:vp_z="1 : 0.5 : 1"
       inkscape:persp3d-origin="0.5 : 0.33333333 : 1"
       id="perspective23344-6" />
    <inkscape:perspective
       sodipodi:type="inkscape:persp3d"
       inkscape:vp_x="0 : 0.5 : 1"
       inkscape:vp_y="0 : 1000 : 0"
       inkscape:vp_z="1 : 0.5 : 1"
       inkscape:persp3d-origin="0.5 : 0.33333333 : 1"
       id="perspective23375" />
    <inkscape:perspective
       sodipodi:type="inkscape:persp3d"
       inkscape:vp_x="0 : 0.5 : 1"
       inkscape:vp_y="0 : 1000 : 0"
       inkscape:vp_z="1 : 0.5 : 1"
       inkscape:persp3d-origin="0.5 : 0.33333333 : 1"
       id="perspective23375-0" />
    <inkscape:perspective
       sodipodi:type="inkscape:persp3d"
       inkscape:vp_x="0 : 0.5 : 1"
       inkscape:vp_y="0 : 1000 : 0"
       inkscape:vp_z="1 : 0.5 : 1"
       inkscape:persp3d-origin="0.5 : 0.33333333 : 1"
       id="perspective23375-9" />
    <inkscape:perspective
       sodipodi:type="inkscape:persp3d"
       inkscape:vp_x="0 : 0.5 : 1"
       inkscape:vp_y="0 : 1000 : 0"
       inkscape:vp_z="1 : 0.5 : 1"
       inkscape:persp3d-origin="0.5 : 0.33333333 : 1"
       id="perspective23375-91" />
    <inkscape:perspective
       sodipodi:type="inkscape:persp3d"
       inkscape:vp_x="0 : 0.5 : 1"
       inkscape:vp_y="0 : 1000 : 0"
       inkscape:vp_z="1 : 0.5 : 1"
       inkscape:persp3d-origin="0.5 : 0.33333333 : 1"
       id="perspective23375-3" />
    <inkscape:perspective
       sodipodi:type="inkscape:persp3d"
       inkscape:vp_x="0 : 0.5 : 1"
       inkscape:vp_y="0 : 1000 : 0"
       inkscape:vp_z="1 : 0.5 : 1"
       inkscape:persp3d-origin="0.5 : 0.33333333 : 1"
       id="perspective23375-5" />
    <inkscape:perspective
       sodipodi:type="inkscape:persp3d"
       inkscape:vp_x="0 : 0.5 : 1"
       inkscape:vp_y="0 : 1000 : 0"
       inkscape:vp_z="1 : 0.5 : 1"
       inkscape:persp3d-origin="0.5 : 0.33333333 : 1"
       id="perspective23375-8" />
    <inkscape:perspective
       sodipodi:type="inkscape:persp3d"
       inkscape:vp_x="0 : 0.5 : 1"
       inkscape:vp_y="0 : 1000 : 0"
       inkscape:vp_z="1 : 0.5 : 1"
       inkscape:persp3d-origin="0.5 : 0.33333333 : 1"
       id="perspective23375-4" />
    <inkscape:perspective
       sodipodi:type="inkscape:persp3d"
       inkscape:vp_x="0 : 0.5 : 1"
       inkscape:vp_y="0 : 1000 : 0"
       inkscape:vp_z="1 : 0.5 : 1"
       inkscape:persp3d-origin="0.5 : 0.33333333 : 1"
       id="perspective23375-38" />
    <inkscape:perspective
       sodipodi:type="inkscape:persp3d"
       inkscape:vp_x="0 : 0.5 : 1"
       inkscape:vp_y="0 : 1000 : 0"
       inkscape:vp_z="1 : 0.5 : 1"
       inkscape:persp3d-origin="0.5 : 0.33333333 : 1"
       id="perspective23375-80" />
    <inkscape:perspective
       sodipodi:type="inkscape:persp3d"
       inkscape:vp_x="0 : 0.5 : 1"
       inkscape:vp_y="0 : 1000 : 0"
       inkscape:vp_z="1 : 0.5 : 1"
       inkscape:persp3d-origin="0.5 : 0.33333333 : 1"
       id="perspective23375-03" />
    <inkscape:perspective
       sodipodi:type="inkscape:persp3d"
       inkscape:vp_x="0 : 0.5 : 1"
       inkscape:vp_y="0 : 1000 : 0"
       inkscape:vp_z="1 : 0.5 : 1"
       inkscape:persp3d-origin="0.5 : 0.33333333 : 1"
       id="perspective23375-6" />
    <inkscape:perspective
       sodipodi:type="inkscape:persp3d"
       inkscape:vp_x="0 : 0.5 : 1"
       inkscape:vp_y="0 : 1000 : 0"
       inkscape:vp_z="1 : 0.5 : 1"
       inkscape:persp3d-origin="0.5 : 0.33333333 : 1"
       id="perspective23375-1" />
    <inkscape:perspective
       sodipodi:type="inkscape:persp3d"
       inkscape:vp_x="0 : 0.5 : 1"
       inkscape:vp_y="0 : 1000 : 0"
       inkscape:vp_z="1 : 0.5 : 1"
       inkscape:persp3d-origin="0.5 : 0.33333333 : 1"
       id="perspective23375-88" />
  </defs>
  <metadata
     id="metadata27350">
    <rdf:RDF>
      <cc:Work
         rdf:about="">
        <dc:format>image/svg+xml</dc:format>
        <dc:type
           rdf:resource="http://purl.org/dc/dcmitype/StillImage" />
        <dc:title />
      </cc:Work>
    </rdf:RDF>
  </metadata>
  <g
     inkscape:groupmode="layer"
     id="layer2"
     inkscape:label="1blue"
     style="display:inline">
    <path
       id="path9959"
       d="m 0.5006462,294.92977 c 6.7877001,0 12.2505008,5.46285 12.2505008,12.25051 l 0,57.3663 19.6209,-28.4654 c 2.4073,-3.49312 6.2773,-5.35496 10.2069,-5.31562 2.3578,0.0236 4.7385,0.73322 6.8344,2.1776 5.589,3.85166 6.9896,11.45223 3.138,17.04129 l -39.8002,57.75714 0,24.7243 0,46.3107 61.520505,-35.52308 30.118188,-63.34077 c 2.9144,-6.13017 10.1964,-8.72137 16.3265,-5.80698 2.2988,1.0929 4.1051,2.80526 5.3045,4.83541 1.9989,3.38349 2.324,7.65982 0.5025,11.49111 l -14.8413,31.22369 49.6721,-28.67756 c 5.8782,-3.39381 13.3459,-1.38902 16.7397,4.48929 3.3938,5.87827 1.389,13.33476 -4.4893,16.72854 l -49.6831,28.67755 34.4733,2.76948 c 4.2288,0.3382 7.7736,2.75265 9.7044,6.17552 1.1584,2.05374 1.7328,4.47577 1.5299,7.01305 -0.5411,6.76608 -6.4225,11.77541 -13.1886,11.23427 l -69.918288,-5.59478 -61.520505,35.52307 40.112905,23.16093 21.4076,12.36215 69.918288,-5.58363 c 6.7661,-0.54114 12.6475,4.46822 13.1886,11.23431 0.2029,2.53724 -0.3715,4.9593 -1.5299,7.01304 -1.9308,3.4229 -5.4756,5.83725 -9.7044,6.17549 l -34.4622,2.75833 49.672,28.67755 c 5.8783,3.39382 7.8831,10.86146 4.4893,16.73973 -3.3938,5.87831 -10.8615,7.87191 -16.7397,4.47809 l -49.6721,-28.67755 14.8413,31.22369 c 1.8215,3.83129 1.4964,8.11877 -0.5025,11.50226 -1.1994,2.03015 -3.0057,3.73137 -5.3045,4.82426 -6.1301,2.91439 -13.4121,0.33437 -16.3265,-5.7958 L 74.271652,556.7353 12.751147,521.21222 l 0,46.32185 0,24.72434 39.8002,57.75713 c 3.8517,5.58907 2.451,13.1896 -3.138,17.04125 -2.0959,1.44438 -4.4766,2.15401 -6.8344,2.17763 -3.9296,0.0393 -7.7996,-1.82249 -10.2069,-5.31561 l -19.6209,-28.46539 0,57.36628 c 0,6.78763 -5.4628007,12.25048 -12.2505008,12.25048 -6.7875999,0 -12.2504992,-5.46285 -12.2504992,-12.25048 l 0,-57.36628 -19.6208,28.46539 c -2.4073,3.49312 -6.2772,5.35492 -10.2069,5.31561 -2.3578,-0.0236 -4.7385,-0.73325 -6.8344,-2.17763 -5.589,-3.85165 -6.9896,-11.45218 -3.138,-17.04125 l 39.8001,-57.75713 0,-24.72434 0,-46.32185 -40.1239,23.16093 -21.4077,12.36215 -30.118107,63.35195 c -2.9144,6.13017 -10.1964,8.71019 -16.3266,5.7958 -2.2988,-1.09289 -4.1051,-2.79411 -5.3044,-4.82426 -1.9989,-3.38349 -2.3241,-7.67097 -0.5026,-11.50226 l 14.8525,-31.23488 -49.6832,28.68874 c -5.8782,3.39385 -13.3347,1.40022 -16.7286,-4.47809 -3.3938,-5.87827 -1.4002,-13.34591 4.4781,-16.73973 l 49.672,-28.67755 -34.4622,-2.75833 c -4.2288,-0.33824 -7.7735,-2.75259 -9.7043,-6.17549 -1.1584,-2.05374 -1.7328,-4.4758 -1.5299,-7.01304 0.5411,-6.76609 6.4225,-11.77545 13.1885,-11.23431 l 69.918307,5.58363 21.4077,-12.36215 40.1239,-23.16093 -61.5316,-35.52307 -69.918307,5.59478 c -6.766,0.54114 -12.6474,-4.46819 -13.1885,-11.23427 -0.2029,-2.53728 0.3715,-4.95931 1.5299,-7.01305 1.9308,-3.42287 5.4755,-5.83732 9.7043,-6.17552 l 34.4734,-2.7583 -49.6832,-28.68873 c -5.8783,-3.39378 -7.8719,-10.85027 -4.4781,-16.72854 3.3939,-5.87831 10.8504,-7.8831 16.7286,-4.48929 l 49.6832,28.68875 -14.8525,-31.23488 c -1.8215,-3.83129 -1.4963,-8.10762 0.5026,-11.49111 1.1994,-2.03015 3.0056,-3.74251 5.3044,-4.83541 6.1302,-2.91439 13.4122,-0.32319 16.3266,5.80698 l 30.118107,63.34077 61.5316,35.52308 0,-46.3107 0,-24.7243 -39.8001,-57.75714 c -3.8516,-5.58906 -2.451,-13.18963 3.138,-17.04129 2.0959,-1.44438 4.4766,-2.15398 6.8344,-2.1776 3.9297,-0.0394 7.7996,1.8225 10.2069,5.31562 l 19.6208,28.4654 0,-57.3663 c 0,-6.78766 5.4628993,-12.25051 12.2504992,-12.25051 z"
       style="fill:none;stroke:#204a87;stroke-width:4;stroke-miterlimit:4;stroke-dasharray:none" />
    <path
       id="path3210"
       d="m 1600.5007,294.92977 c 6.7877,0 12.2505,5.46285 12.2505,12.25051 l 0,57.3663 19.6209,-28.4654 c 2.4073,-3.49312 6.2773,-5.35496 10.2069,-5.31562 2.3578,0.0236 4.7385,0.73322 6.8344,2.1776 5.589,3.85166 6.9896,11.45223 3.138,17.04129 l -39.8002,57.75714 0,24.7243 0,46.3107 61.5205,-35.52308 30.1182,-63.34077 c 2.9144,-6.13017 10.1964,-8.72137 16.3265,-5.80698 2.2988,1.0929 4.1051,2.80526 5.3045,4.83541 1.9989,3.38349 2.324,7.65982 0.5025,11.49111 l -14.8413,31.22369 49.6721,-28.67756 c 5.8782,-3.39381 13.3459,-1.38902 16.7397,4.48929 3.3938,5.87827 1.389,13.33476 -4.4893,16.72854 l -49.6831,28.67755 34.4733,2.76948 c 4.2288,0.3382 7.7736,2.75265 9.7044,6.17552 1.1584,2.05374 1.7328,4.47577 1.5299,7.01305 -0.5411,6.76608 -6.4225,11.77541 -13.1886,11.23427 l -69.9183,-5.59478 -61.5205,35.52307 40.1129,23.16093 21.4076,12.36215 69.9183,-5.58363 c 6.7661,-0.54114 12.6475,4.46822 13.1886,11.23431 0.2029,2.53724 -0.3715,4.9593 -1.5299,7.01304 -1.9308,3.4229 -5.4756,5.83725 -9.7044,6.17549 l -34.4622,2.75833 49.672,28.67755 c 5.8783,3.39382 7.8831,10.86146 4.4893,16.73973 -3.3938,5.87831 -10.8615,7.87191 -16.7397,4.47809 l -49.6721,-28.67755 14.8413,31.22369 c 1.8215,3.83129 1.4964,8.11877 -0.5025,11.50226 -1.1994,2.03015 -3.0057,3.73137 -5.3045,4.82426 -6.1301,2.91439 -13.4121,0.33437 -16.3265,-5.7958 l -30.1182,-63.35195 -61.5205,-35.52308 0,46.32185 0,24.72434 39.8002,57.75713 c 3.8517,5.58907 2.451,13.1896 -3.138,17.04125 -2.0959,1.44438 -4.4766,2.15401 -6.8344,2.17763 -3.9296,0.0393 -7.7996,-1.82249 -10.2069,-5.31561 l -19.6209,-28.46539 0,57.36628 c 0,6.78763 -5.4628,12.25048 -12.2505,12.25048 -6.7876,0 -12.2505,-5.46285 -12.2505,-12.25048 l 0,-57.36628 -19.6208,28.46539 c -2.4073,3.49312 -6.2772,5.35492 -10.2069,5.31561 -2.3578,-0.0236 -4.7385,-0.73325 -6.8344,-2.17763 -5.589,-3.85165 -6.9896,-11.45218 -3.138,-17.04125 l 39.8001,-57.75713 0,-24.72434 0,-46.32185 -40.1239,23.16093 -21.4077,12.36215 -30.1181,63.35195 c -2.9144,6.13017 -10.1964,8.71019 -16.3266,5.7958 -2.2988,-1.09289 -4.1051,-2.79411 -5.3044,-4.82426 -1.9989,-3.38349 -2.3241,-7.67097 -0.5026,-11.50226 l 14.8525,-31.23488 -49.6832,28.68874 c -5.8782,3.39385 -13.3347,1.40022 -16.7286,-4.47809 -3.3938,-5.87827 -1.4002,-13.34591 4.4781,-16.73973 l 49.672,-28.67755 -34.4622,-2.75833 c -4.2288,-0.33824 -7.7735,-2.75259 -9.7043,-6.17549 -1.1584,-2.05374 -1.7328,-4.4758 -1.5299,-7.01304 0.5411,-6.76609 6.4225,-11.77545 13.1885,-11.23431 l 69.9183,5.58363 21.4077,-12.36215 40.1239,-23.16093 -61.5316,-35.52307 -69.9183,5.59478 c -6.766,0.54114 -12.6474,-4.46819 -13.1885,-11.23427 -0.2029,-2.53728 0.3715,-4.95931 1.5299,-7.01305 1.9308,-3.42287 5.4755,-5.83732 9.7043,-6.17552 l 34.4734,-2.7583 -49.6832,-28.68873 c -5.8783,-3.39378 -7.8719,-10.85027 -4.4781,-16.72854 3.3939,-5.87831 10.8504,-7.8831 16.7286,-4.48929 l 49.6832,28.68875 -14.8525,-31.23488 c -1.8215,-3.83129 -1.4963,-8.10762 0.5026,-11.49111 1.1994,-2.03015 3.0056,-3.74251 5.3044,-4.83541 6.1302,-2.91439 13.4122,-0.32319 16.3266,5.80698 l 30.1181,63.34077 61.5316,35.52308 0,-46.3107 0,-24.7243 -39.8001,-57.75714 c -3.8516,-5.58906 -2.451,-13.18963 3.138,-17.04129 2.0959,-1.44438 4.4766,-2.15398 6.8344,-2.1776 3.9297,-0.0394 7.7996,1.8225 10.2069,5.31562 l 19.6208,28.4654 0,-57.3663 c 0,-6.78766 5.4629,-12.25051 12.2505,-12.25051 z"
       style="fill:none;stroke:#204a87;stroke-width:4;stroke-miterlimit:4;stroke-dasharray:none" />
    <path
       id="path9961"
       d="m 2400.5007,294.92977 c 6.7877,0 12.2505,5.46285 12.2505,12.25051 l 0,57.3663 19.6209,-28.4654 c 2.4073,-3.49312 6.2773,-5.35496 10.2069,-5.31562 2.3578,0.0236 4.7385,0.73322 6.8344,2.1776 5.589,3.85166 6.9896,11.45223 3.138,17.04129 l -39.8002,57.75714 0,24.7243 0,46.3107 61.5205,-35.52308 30.1182,-63.34077 c 2.9144,-6.13017 10.1964,-8.72137 16.3265,-5.80698 2.2988,1.0929 4.1051,2.80526 5.3045,4.83541 1.9989,3.38349 2.324,7.65982 0.5025,11.49111 l -14.8413,31.22369 49.6721,-28.67756 c 5.8782,-3.39381 13.3459,-1.38902 16.7397,4.48929 3.3938,5.87827 1.389,13.33476 -4.4893,16.72854 l -49.6831,28.67755 34.4733,2.76948 c 4.2288,0.3382 7.7736,2.75265 9.7044,6.17552 1.1584,2.05374 1.7328,4.47577 1.5299,7.01305 -0.5411,6.76608 -6.4225,11.77541 -13.1886,11.23427 l -69.9183,-5.59478 -61.5205,35.52307 40.1129,23.16093 21.4076,12.36215 69.9183,-5.58363 c 6.7661,-0.54114 12.6475,4.46822 13.1886,11.23431 0.2029,2.53724 -0.3715,4.9593 -1.5299,7.01304 -1.9308,3.4229 -5.4756,5.83725 -9.7044,6.17549 l -34.4622,2.75833 49.672,28.67755 c 5.8783,3.39382 7.8831,10.86146 4.4893,16.73973 -3.3938,5.87831 -10.8615,7.87191 -16.7397,4.47809 l -49.6721,-28.67755 14.8413,31.22369 c 1.8215,3.83129 1.4964,8.11877 -0.5025,11.50226 -1.1994,2.03015 -3.0057,3.73137 -5.3045,4.82426 -6.1301,2.91439 -13.4121,0.33437 -16.3265,-5.7958 l -30.1182,-63.35195 -61.5205,-35.52308 0,46.32185 0,24.72434 39.8002,57.75713 c 3.8517,5.58907 2.451,13.1896 -3.138,17.04125 -2.0959,1.44438 -4.4766,2.15401 -6.8344,2.17763 -3.9296,0.0393 -7.7996,-1.82249 -10.2069,-5.31561 l -19.6209,-28.46539 0,57.36628 c 0,6.78763 -5.4628,12.25048 -12.2505,12.25048 -6.7876,0 -12.2505,-5.46285 -12.2505,-12.25048 l 0,-57.36628 -19.6208,28.46539 c -2.4073,3.49312 -6.2772,5.35492 -10.2069,5.31561 -2.3578,-0.0236 -4.7385,-0.73325 -6.8344,-2.17763 -5.589,-3.85165 -6.9896,-11.45218 -3.138,-17.04125 l 39.8001,-57.75713 0,-24.72434 0,-46.32185 -40.1239,23.16093 -21.4077,12.36215 -30.1181,63.35195 c -2.9144,6.13017 -10.1964,8.71019 -16.3266,5.7958 -2.2988,-1.09289 -4.1051,-2.79411 -5.3044,-4.82426 -1.9989,-3.38349 -2.3241,-7.67097 -0.5026,-11.50226 l 14.8525,-31.23488 -49.6832,28.68874 c -5.8782,3.39385 -13.3347,1.40022 -16.7286,-4.47809 -3.3938,-5.87827 -1.4002,-13.34591 4.4781,-16.73973 l 49.672,-28.67755 -34.4622,-2.75833 c -4.2288,-0.33824 -7.7735,-2.75259 -9.7043,-6.17549 -1.1584,-2.05374 -1.7328,-4.4758 -1.5299,-7.01304 0.5411,-6.76609 6.4225,-11.77545 13.1885,-11.23431 l 69.9183,5.58363 21.4077,-12.36215 40.1239,-23.16093 -61.5316,-35.52307 -69.9183,5.59478 c -6.766,0.54114 -12.6474,-4.46819 -13.1885,-11.23427 -0.2029,-2.53728 0.3715,-4.95931 1.5299,-7.01305 1.9308,-3.42287 5.4755,-5.83732 9.7043,-6.17552 l 34.4734,-2.7583 -49.6832,-28.68873 c -5.8783,-3.39378 -7.8719,-10.85027 -4.4781,-16.72854 3.3939,-5.87831 10.8504,-7.8831 16.7286,-4.48929 l 49.6832,28.68875 -14.8525,-31.23488 c -1.8215,-3.83129 -1.4963,-8.10762 0.5026,-11.49111 1.1994,-2.03015 3.0056,-3.74251 5.3044,-4.83541 6.1302,-2.91439 13.4122,-0.32319 16.3266,5.80698 l 30.1181,63.34077 61.5316,35.52308 0,-46.3107 0,-24.7243 -39.8001,-57.75714 c -3.8516,-5.58906 -2.451,-13.18963 3.138,-17.04129 2.0959,-1.44438 4.4766,-2.15398 6.8344,-2.1776 3.9297,-0.0394 7.7996,1.8225 10.2069,5.31562 l 19.6208,28.4654 0,-57.3663 c 0,-6.78766 5.4629,-12.25051 12.2505,-12.25051 z"
       style="fill:none;stroke:#204a87;stroke-width:4;stroke-miterlimit:4;stroke-dasharray:none" />
    <path
       id="path9965"
       d="m 2000.5004,617.72568 c 3.7542,0 6.7757,3.02147 6.7757,6.77568 l 0,31.72894 10.8522,-15.74403 c 1.3314,-1.93202 3.4719,-2.9618 5.6454,-2.94004 1.304,0.0131 2.6208,0.40554 3.78,1.20442 3.0913,2.13033 3.8659,6.33416 1.7356,9.42543 l -22.0132,31.94511 0,13.67486 0,25.61415 34.0266,-19.64759 16.6582,-35.03338 c 1.6119,-3.39056 5.6395,-4.82374 9.0301,-3.21181 1.2714,0.60448 2.2705,1.55158 2.9338,2.67444 1.1056,1.87139 1.2854,4.2366 0.278,6.35566 l -8.2087,17.26963 27.4734,-15.86138 c 3.2512,-1.8771 7.3815,-0.76826 9.2586,2.483 1.8771,3.25123 0.7682,7.37537 -2.483,9.25245 l -27.4794,15.86137 19.0669,1.53178 c 2.339,0.18706 4.2996,1.52248 5.3675,3.41564 0.6407,1.13591 0.9584,2.47552 0.8462,3.87888 -0.2993,3.74227 -3.5523,6.5129 -7.2946,6.2136 l -38.6713,-3.09444 -34.0266,19.64759 22.1862,12.81017 11.8404,6.83742 38.6713,-3.08827 c 3.7423,-0.2993 6.9953,2.47135 7.2946,6.21363 0.1122,1.40333 -0.2055,2.74296 -0.8462,3.87887 -1.0679,1.89318 -3.0285,3.22854 -5.3675,3.41562 l -19.0608,1.52562 27.4733,15.86137 c 3.2512,1.8771 4.3601,6.0074 2.483,9.25864 -1.8771,3.25125 -6.0074,4.3539 -9.2586,2.4768 l -27.4734,-15.86137 8.2087,17.26963 c 1.0074,2.11906 0.8276,4.49044 -0.278,6.36182 -0.6633,1.12287 -1.6624,2.0638 -2.9338,2.66827 -3.3906,1.61193 -7.4182,0.18494 -9.0301,-3.20562 l -16.6582,-35.03956 -34.0266,-19.6476 0,25.62033 0,13.67487 22.0132,31.94511 c 2.1304,3.09128 1.3557,7.29509 -1.7356,9.42541 -1.1592,0.79888 -2.476,1.19137 -3.78,1.20443 -2.1735,0.0217 -4.314,-1.00801 -5.6454,-2.94003 l -10.8522,-15.74403 0,31.72893 c 0,3.7542 -3.0215,6.77567 -6.7757,6.77567 -3.7542,0 -6.7757,-3.02147 -6.7757,-6.77567 l 0,-31.72893 -10.8521,15.74403 c -1.3315,1.93202 -3.4719,2.96177 -5.6454,2.94003 -1.3041,-0.0131 -2.6208,-0.40555 -3.78,-1.20443 -3.0913,-2.13032 -3.8659,-6.33413 -1.7357,-9.42541 l 22.0132,-31.94511 0,-13.67487 0,-25.62033 -22.1922,12.81017 -11.8405,6.83743 -16.6581,35.03956 c -1.612,3.39056 -5.6396,4.81755 -9.0302,3.20562 -1.2714,-0.60447 -2.2705,-1.5454 -2.9338,-2.66827 -1.1056,-1.87138 -1.2855,-4.24276 -0.278,-6.36182 l 8.2148,-17.27582 -27.4794,15.86756 c -3.2512,1.87712 -7.3754,0.77445 -9.2525,-2.4768 -1.8771,-3.25124 -0.7745,-7.38154 2.4768,-9.25864 l 27.4733,-15.86137 -19.0609,-1.52562 c -2.3389,-0.18708 -4.2994,-1.52244 -5.3674,-3.41562 -0.6407,-1.13591 -0.9584,-2.47554 -0.8461,-3.87887 0.2992,-3.74228 3.5522,-6.51293 7.2944,-6.21363 l 38.6714,3.08827 11.8405,-6.83742 22.1923,-12.81017 -34.0328,-19.64759 -38.6714,3.09444 c -3.7422,0.2993 -6.9952,-2.47133 -7.2944,-6.2136 -0.1123,-1.40336 0.2054,-2.74297 0.8461,-3.87888 1.068,-1.89316 3.0285,-3.22858 5.3674,-3.41564 l 19.0671,-1.5256 -27.4795,-15.86755 c -3.2513,-1.87708 -4.3539,-6.00122 -2.4768,-9.25245 1.8771,-3.25126 6.0013,-4.3601 9.2525,-2.483 l 27.4794,15.86757 -8.2148,-17.27582 c -1.0075,-2.11906 -0.8276,-4.48427 0.278,-6.35566 0.6634,-1.12286 1.6624,-2.06996 2.9338,-2.67444 3.3906,-1.61193 7.4182,-0.17875 9.0302,3.21181 l 16.6581,35.03338 34.0327,19.64759 0,-25.61415 0,-13.67486 -22.0132,-31.94511 c -2.1302,-3.09127 -1.3556,-7.2951 1.7357,-9.42543 1.1592,-0.79888 2.4759,-1.19135 3.78,-1.20442 2.1735,-0.0218 4.3139,1.00802 5.6454,2.94004 l 10.8521,15.74403 0,-31.72894 c 0,-3.75421 3.0215,-6.77568 6.7757,-6.77568 z"
       style="fill:none;stroke:#204a87;stroke-width:4;stroke-miterlimit:4;stroke-dasharray:none" />
    <path
       id="path9979"
       d="m 2000.5004,155.42821 c 3.7542,0 6.7757,3.02147 6.7757,6.77568 l 0,31.72894 10.8522,-15.74403 c 1.3314,-1.93202 3.4719,-2.9618 5.6454,-2.94004 1.304,0.0131 2.6208,0.40554 3.78,1.20442 3.0913,2.13033 3.8659,6.33416 1.7356,9.42543 l -22.0132,31.94511 0,13.67486 0,25.61415 34.0266,-19.64759 16.6582,-35.03338 c 1.6119,-3.39056 5.6395,-4.82374 9.0301,-3.21181 1.2714,0.60448 2.2705,1.55158 2.9338,2.67444 1.1056,1.87139 1.2854,4.2366 0.278,6.35566 l -8.2087,17.26963 27.4734,-15.86138 c 3.2512,-1.8771 7.3815,-0.76826 9.2586,2.483 1.8771,3.25123 0.7682,7.37537 -2.483,9.25245 l -27.4794,15.86137 19.0669,1.53178 c 2.339,0.18706 4.2996,1.52248 5.3675,3.41564 0.6407,1.13591 0.9584,2.47552 0.8462,3.87888 -0.2993,3.74227 -3.5523,6.5129 -7.2946,6.2136 l -38.6713,-3.09444 -34.0266,19.64759 22.1862,12.81017 11.8404,6.83742 38.6713,-3.08827 c 3.7423,-0.2993 6.9953,2.47135 7.2946,6.21363 0.1122,1.40333 -0.2055,2.74296 -0.8462,3.87887 -1.0679,1.89318 -3.0285,3.22854 -5.3675,3.41562 l -19.0608,1.52562 27.4733,15.86137 c 3.2512,1.8771 4.3601,6.0074 2.483,9.25864 -1.8771,3.25125 -6.0074,4.3539 -9.2586,2.4768 l -27.4734,-15.86137 8.2087,17.26963 c 1.0074,2.11906 0.8276,4.49044 -0.278,6.36182 -0.6633,1.12287 -1.6624,2.0638 -2.9338,2.66827 -3.3906,1.61193 -7.4182,0.18494 -9.0301,-3.20562 l -16.6582,-35.03956 -34.0266,-19.6476 0,25.62033 0,13.67487 22.0132,31.94511 c 2.1304,3.09128 1.3557,7.29509 -1.7356,9.42541 -1.1592,0.79888 -2.476,1.19137 -3.78,1.20443 -2.1735,0.0217 -4.314,-1.00801 -5.6454,-2.94003 l -10.8522,-15.74403 0,31.72893 c 0,3.7542 -3.0215,6.77567 -6.7757,6.77567 -3.7542,0 -6.7757,-3.02147 -6.7757,-6.77567 l 0,-31.72893 -10.8521,15.74403 c -1.3315,1.93202 -3.4719,2.96177 -5.6454,2.94003 -1.3041,-0.0131 -2.6208,-0.40555 -3.78,-1.20443 -3.0913,-2.13032 -3.8659,-6.33413 -1.7357,-9.42541 l 22.0132,-31.94511 0,-13.67487 0,-25.62033 -22.1922,12.81017 -11.8405,6.83743 -16.6581,35.03956 c -1.612,3.39056 -5.6396,4.81755 -9.0302,3.20562 -1.2714,-0.60447 -2.2705,-1.5454 -2.9338,-2.66827 -1.1056,-1.87138 -1.2855,-4.24276 -0.278,-6.36182 l 8.2148,-17.27582 -27.4794,15.86756 c -3.2512,1.87712 -7.3754,0.77445 -9.2525,-2.4768 -1.8771,-3.25124 -0.7745,-7.38154 2.4768,-9.25864 l 27.4733,-15.86137 -19.0609,-1.52562 c -2.3389,-0.18708 -4.2994,-1.52244 -5.3674,-3.41562 -0.6407,-1.13591 -0.9584,-2.47554 -0.8461,-3.87887 0.2992,-3.74228 3.5522,-6.51293 7.2944,-6.21363 l 38.6714,3.08827 11.8405,-6.83742 22.1923,-12.81017 -34.0328,-19.64759 -38.6714,3.09444 c -3.7422,0.2993 -6.9952,-2.47133 -7.2944,-6.2136 -0.1123,-1.40336 0.2054,-2.74297 0.8461,-3.87888 1.068,-1.89316 3.0285,-3.22858 5.3674,-3.41564 l 19.0671,-1.5256 -27.4795,-15.86755 c -3.2513,-1.87708 -4.3539,-6.00122 -2.4768,-9.25245 1.8771,-3.25126 6.0013,-4.3601 9.2525,-2.483 l 27.4794,15.86757 -8.2148,-17.27582 c -1.0075,-2.11906 -0.8276,-4.48427 0.278,-6.35566 0.6634,-1.12286 1.6624,-2.06996 2.9338,-2.67444 3.3906,-1.61193 7.4182,-0.17875 9.0302,3.21181 l 16.6581,35.03338 34.0327,19.64759 0,-25.61415 0,-13.67486 -22.0132,-31.94511 c -2.1302,-3.09127 -1.3556,-7.2951 1.7357,-9.42543 1.1592,-0.79888 2.4759,-1.19135 3.78,-1.20442 2.1735,-0.0218 4.3139,1.00802 5.6454,2.94004 l 10.8521,15.74403 0,-31.72894 c 0,-3.75421 3.0215,-6.77568 6.7757,-6.77568 z"
       style="fill:none;stroke:#204a87;stroke-width:4;stroke-miterlimit:4;stroke-dasharray:none" />
    <g
       transform="translate(403.5001,1.5)"
       id="g10154">
      <path
         inkscape:connector-curvature="0"
         style="fill:none;stroke:#204a87;stroke-width:4;stroke-miterlimit:4;stroke-dasharray:none"
         d="m 1511.3985,481.11221 2.675,2.67505 -2.675,2.67504 -2.6751,-2.67504 0,-2.67505 2.6751,-5.35009 2.675,-2.67504 8.0251,-2.67505 8.0252,0 8.0251,2.67505 2.6751,5.35009 0,5.35009 -2.6751,5.35009 -5.3501,5.35009 -8.0251,5.35009 -10.7002,5.35008 -8.0251,5.35009 -5.3501,5.35009 -5.3501,10.70018 m 34.7756,-56.17594 5.3501,2.67505 2.675,5.35009 0,5.35009 -2.675,5.35009 -5.3501,5.35009 -16.0503,10.70017 m -16.0503,16.05027 2.6751,-2.67504 5.3501,0 13.3752,5.35009 8.0251,0 5.3501,-2.67505 2.6751,-5.35009 m -29.4255,2.67505 13.3752,8.02513 8.0251,0 5.3501,-2.67504 2.6751,-8.02514"
         id="path10156" />
      <path
         inkscape:connector-curvature="0"
         style="fill:none;stroke:#204a87;stroke-width:4;stroke-miterlimit:4;stroke-dasharray:none"
         d="m 1580.9497,470.41203 -8.0251,2.67505 -5.3501,5.35009 -5.3501,8.02513 -2.6751,8.02514 -2.675,10.70017 0,8.02514 2.675,8.02513 2.6751,2.67505 5.3501,2.67504 5.3501,0 8.0251,-2.67504 5.3501,-5.35009 5.3501,-8.02514 2.675,-8.02513 2.6751,-10.70018 0,-8.02513 -2.6751,-8.02514 -2.675,-2.67504 -5.3501,-2.67505 -5.3501,0 m 0,0 -5.3501,2.67505 -5.3501,5.35009 -5.3501,8.02513 -2.675,8.02514 -2.6751,10.70017 0,8.02514 2.6751,8.02513 5.3501,5.35009 m 5.3501,0 5.35,-2.67504 5.3501,-5.35009 5.3501,-8.02514 2.6751,-8.02513 2.675,-10.70018 0,-8.02513 -2.675,-8.02514 -5.3501,-5.35009"
         id="path10158" />
      <path
         inkscape:connector-curvature="0"
         style="fill:none;stroke:#204a87;stroke-width:4;stroke-miterlimit:4;stroke-dasharray:none"
         d="m 1637.1256,481.11221 -13.3752,45.47576 m 18.7253,-56.17594 -16.0503,56.17594 m 16.0503,-56.17594 -8.0252,8.02514 -8.0251,5.35009 -5.3501,2.67504 m 18.7253,-8.02513 -10.7001,5.35009 -8.0252,2.67504"
         id="path10160" />
      <path
         inkscape:connector-curvature="0"
         style="fill:none;stroke:#204a87;stroke-width:4;stroke-miterlimit:4;stroke-dasharray:none"
         d="m 1693.3016,481.11221 -13.3752,45.47576 m 18.7253,-56.17594 -16.0503,56.17594 m 16.0503,-56.17594 -8.0252,8.02514 -8.0251,5.35009 -5.3501,2.67504 m 18.7253,-8.02513 -10.7001,5.35009 -8.0252,2.67504"
         id="path10162" />
    </g>
    <path
       id="path10452"
       d="m 800.50064,294.92977 c 6.7877,0 12.2505,5.46285 12.2505,12.25051 l 0,57.3663 19.6209,-28.4654 c 2.4073,-3.49312 6.2773,-5.35496 10.2069,-5.31562 2.3578,0.0236 4.7385,0.73322 6.8344,2.1776 5.589,3.85166 6.9896,11.45223 3.138,17.04129 l -39.8002,57.75714 0,24.7243 0,46.3107 61.5205,-35.52308 30.1182,-63.34077 c 2.9144,-6.13017 10.1964,-8.72137 16.3265,-5.80698 2.2988,1.0929 4.1051,2.80526 5.3045,4.83541 1.9989,3.38349 2.324,7.65982 0.5025,11.49111 l -14.8413,31.22369 49.6721,-28.67756 c 5.8782,-3.39381 13.3459,-1.38902 16.7397,4.48929 3.3938,5.87827 1.389,13.33476 -4.4893,16.72854 l -49.6831,28.67755 34.4733,2.76948 c 4.2288,0.3382 7.7736,2.75265 9.7044,6.17552 1.1584,2.05374 1.7328,4.47577 1.5299,7.01305 -0.5411,6.76608 -6.4225,11.77541 -13.1886,11.23427 l -69.9183,-5.59478 -61.5205,35.52307 40.1129,23.16093 21.4076,12.36215 69.9183,-5.58363 c 6.7661,-0.54114 12.6475,4.46822 13.1886,11.23431 0.2029,2.53724 -0.3715,4.9593 -1.5299,7.01304 -1.9308,3.4229 -5.4756,5.83725 -9.7044,6.17549 l -34.4622,2.75833 49.672,28.67755 c 5.8783,3.39382 7.8831,10.86146 4.4893,16.73973 -3.3938,5.87831 -10.8615,7.87191 -16.7397,4.47809 l -49.6721,-28.67755 14.8413,31.22369 c 1.8215,3.83129 1.4964,8.11877 -0.5025,11.50226 -1.1994,2.03015 -3.0057,3.73137 -5.3045,4.82426 -6.1301,2.91439 -13.4121,0.33437 -16.3265,-5.7958 l -30.1182,-63.35195 -61.5205,-35.52308 0,46.32185 0,24.72434 39.8002,57.75713 c 3.8517,5.58907 2.451,13.1896 -3.138,17.04125 -2.0959,1.44438 -4.4766,2.15401 -6.8344,2.17763 -3.9296,0.0393 -7.7996,-1.82249 -10.2069,-5.31561 l -19.6209,-28.46539 0,57.36628 c 0,6.78763 -5.4628,12.25048 -12.2505,12.25048 -6.7876,0 -12.2505,-5.46285 -12.2505,-12.25048 l 0,-57.36628 -19.6208,28.46539 c -2.4073,3.49312 -6.2772,5.35492 -10.2069,5.31561 -2.3578,-0.0236 -4.7385,-0.73325 -6.8344,-2.17763 -5.589,-3.85165 -6.9896,-11.45218 -3.138,-17.04125 l 39.8001,-57.75713 0,-24.72434 0,-46.32185 -40.1239,23.16093 -21.4077,12.36215 -30.1181,63.35195 c -2.9144,6.13017 -10.1964,8.71019 -16.3266,5.7958 -2.2988,-1.09289 -4.1051,-2.79411 -5.3044,-4.82426 -1.9989,-3.38349 -2.3241,-7.67097 -0.5026,-11.50226 l 14.8525,-31.23488 -49.6832,28.68874 c -5.8782,3.39385 -13.3347,1.40022 -16.7286,-4.47809 -3.3938,-5.87827 -1.4002,-13.34591 4.4781,-16.73973 l 49.672,-28.67755 -34.4622,-2.75833 c -4.2288,-0.33824 -7.7735,-2.75259 -9.7043,-6.17549 -1.1584,-2.05374 -1.7328,-4.4758 -1.5299,-7.01304 0.5411,-6.76609 6.4225,-11.77545 13.1885,-11.23431 l 69.9183,5.58363 21.4077,-12.36215 40.1239,-23.16093 -61.5316,-35.52307 -69.9183,5.59478 c -6.766,0.54114 -12.6474,-4.46819 -13.1885,-11.23427 -0.2029,-2.53728 0.3715,-4.95931 1.5299,-7.01305 1.9308,-3.42287 5.4755,-5.83732 9.7043,-6.17552 l 34.4734,-2.7583 -49.6832,-28.68873 c -5.8783,-3.39378 -7.8719,-10.85027 -4.4781,-16.72854 3.3939,-5.87831 10.8504,-7.8831 16.7286,-4.48929 l 49.6832,28.68875 -14.8525,-31.23488 c -1.8215,-3.83129 -1.4963,-8.10762 0.5026,-11.49111 1.1994,-2.03015 3.0056,-3.74251 5.3044,-4.83541 6.1302,-2.91439 13.4122,-0.32319 16.3266,5.80698 l 30.1181,63.34077 61.5316,35.52308 0,-46.3107 0,-24.7243 -39.8001,-57.75714 c -3.8516,-5.58906 -2.451,-13.18963 3.138,-17.04129 2.0959,-1.44438 4.4766,-2.15398 6.8344,-2.1776 3.9297,-0.0394 7.7996,1.8225 10.2069,5.31562 l 19.6208,28.4654 0,-57.3663 c 0,-6.78766 5.4629,-12.25051 12.2505,-12.25051 z"
       style="fill:none;stroke:#204a87;stroke-width:4;stroke-miterlimit:4;stroke-dasharray:none" />
    <path
       id="path10471"
       d="m 1200.5004,617.72568 c 3.7542,0 6.7757,3.02147 6.7757,6.77568 l 0,31.72894 10.8522,-15.74403 c 1.3314,-1.93202 3.4719,-2.9618 5.6454,-2.94004 1.304,0.0131 2.6208,0.40554 3.78,1.20442 3.0913,2.13033 3.8659,6.33416 1.7356,9.42543 l -22.0132,31.94511 0,13.67486 0,25.61415 34.0266,-19.64759 16.6582,-35.03338 c 1.6119,-3.39056 5.6395,-4.82374 9.0301,-3.21181 1.2714,0.60448 2.2705,1.55158 2.9338,2.67444 1.1056,1.87139 1.2854,4.2366 0.278,6.35566 l -8.2087,17.26963 27.4734,-15.86138 c 3.2512,-1.8771 7.3815,-0.76826 9.2586,2.483 1.8771,3.25123 0.7682,7.37537 -2.483,9.25245 l -27.4794,15.86137 19.0669,1.53178 c 2.339,0.18706 4.2996,1.52248 5.3675,3.41564 0.6407,1.13591 0.9584,2.47552 0.8462,3.87888 -0.2993,3.74227 -3.5523,6.5129 -7.2946,6.2136 l -38.6713,-3.09444 -34.0266,19.64759 22.1862,12.81017 11.8404,6.83742 38.6713,-3.08827 c 3.7423,-0.2993 6.9953,2.47135 7.2946,6.21363 0.1122,1.40333 -0.2055,2.74296 -0.8462,3.87887 -1.0679,1.89318 -3.0285,3.22854 -5.3675,3.41562 l -19.0608,1.52562 27.4733,15.86137 c 3.2512,1.8771 4.3601,6.0074 2.483,9.25864 -1.8771,3.25125 -6.0074,4.3539 -9.2586,2.4768 l -27.4734,-15.86137 8.2087,17.26963 c 1.0074,2.11906 0.8276,4.49044 -0.278,6.36182 -0.6633,1.12287 -1.6624,2.0638 -2.9338,2.66827 -3.3906,1.61193 -7.4182,0.18494 -9.0301,-3.20562 l -16.6582,-35.03956 -34.0266,-19.6476 0,25.62033 0,13.67487 22.0132,31.94511 c 2.1304,3.09128 1.3557,7.29509 -1.7356,9.42541 -1.1592,0.79888 -2.476,1.19137 -3.78,1.20443 -2.1735,0.0217 -4.314,-1.00801 -5.6454,-2.94003 l -10.8522,-15.74403 0,31.72893 c 0,3.7542 -3.0215,6.77567 -6.7757,6.77567 -3.7542,0 -6.7757,-3.02147 -6.7757,-6.77567 l 0,-31.72893 -10.8521,15.74403 c -1.3315,1.93202 -3.4719,2.96177 -5.6454,2.94003 -1.3041,-0.0131 -2.6208,-0.40555 -3.78,-1.20443 -3.0913,-2.13032 -3.8659,-6.33413 -1.7357,-9.42541 l 22.0132,-31.94511 0,-13.67487 0,-25.62033 -22.1922,12.81017 -11.8405,6.83743 -16.6581,35.03956 c -1.612,3.39056 -5.6396,4.81755 -9.0302,3.20562 -1.2714,-0.60447 -2.2705,-1.5454 -2.9338,-2.66827 -1.1056,-1.87138 -1.2855,-4.24276 -0.278,-6.36182 l 8.2148,-17.27582 -27.4794,15.86756 c -3.2512,1.87712 -7.3754,0.77445 -9.2525,-2.4768 -1.8771,-3.25124 -0.7745,-7.38154 2.4768,-9.25864 l 27.4733,-15.86137 -19.0609,-1.52562 c -2.3389,-0.18708 -4.2994,-1.52244 -5.3674,-3.41562 -0.6407,-1.13591 -0.9584,-2.47554 -0.8461,-3.87887 0.2992,-3.74228 3.5522,-6.51293 7.2944,-6.21363 l 38.6714,3.08827 11.8405,-6.83742 22.1923,-12.81017 -34.0328,-19.64759 -38.6714,3.09444 c -3.7422,0.2993 -6.9952,-2.47133 -7.2944,-6.2136 -0.1123,-1.40336 0.2054,-2.74297 0.8461,-3.87888 1.068,-1.89316 3.0285,-3.22858 5.3674,-3.41564 l 19.0671,-1.5256 -27.4795,-15.86755 c -3.2513,-1.87708 -4.3539,-6.00122 -2.4768,-9.25245 1.8771,-3.25126 6.0013,-4.3601 9.2525,-2.483 l 27.4794,15.86757 -8.2148,-17.27582 c -1.0075,-2.11906 -0.8276,-4.48427 0.278,-6.35566 0.6634,-1.12286 1.6624,-2.06996 2.9338,-2.67444 3.3906,-1.61193 7.4182,-0.17875 9.0302,3.21181 l 16.6581,35.03338 34.0327,19.64759 0,-25.61415 0,-13.67486 -22.0132,-31.94511 c -2.1302,-3.09127 -1.3556,-7.2951 1.7357,-9.42543 1.1592,-0.79888 2.4759,-1.19135 3.78,-1.20442 2.1735,-0.0218 4.3139,1.00802 5.6454,2.94004 l 10.8521,15.74403 0,-31.72894 c 0,-3.75421 3.0215,-6.77568 6.7757,-6.77568 z"
       style="fill:none;stroke:#204a87;stroke-width:4;stroke-miterlimit:4;stroke-dasharray:none" />
    <path
       id="path10473"
       d="m 1200.5004,155.42821 c 3.7542,0 6.7757,3.02147 6.7757,6.77568 l 0,31.72894 10.8522,-15.74403 c 1.3314,-1.93202 3.4719,-2.9618 5.6454,-2.94004 1.304,0.0131 2.6208,0.40554 3.78,1.20442 3.0913,2.13033 3.8659,6.33416 1.7356,9.42543 l -22.0132,31.94511 0,13.67486 0,25.61415 34.0266,-19.64759 16.6582,-35.03338 c 1.6119,-3.39056 5.6395,-4.82374 9.0301,-3.21181 1.2714,0.60448 2.2705,1.55158 2.9338,2.67444 1.1056,1.87139 1.2854,4.2366 0.278,6.35566 l -8.2087,17.26963 27.4734,-15.86138 c 3.2512,-1.8771 7.3815,-0.76826 9.2586,2.483 1.8771,3.25123 0.7682,7.37537 -2.483,9.25245 l -27.4794,15.86137 19.0669,1.53178 c 2.339,0.18706 4.2996,1.52248 5.3675,3.41564 0.6407,1.13591 0.9584,2.47552 0.8462,3.87888 -0.2993,3.74227 -3.5523,6.5129 -7.2946,6.2136 l -38.6713,-3.09444 -34.0266,19.64759 22.1862,12.81017 11.8404,6.83742 38.6713,-3.08827 c 3.7423,-0.2993 6.9953,2.47135 7.2946,6.21363 0.1122,1.40333 -0.2055,2.74296 -0.8462,3.87887 -1.0679,1.89318 -3.0285,3.22854 -5.3675,3.41562 l -19.0608,1.52562 27.4733,15.86137 c 3.2512,1.8771 4.3601,6.0074 2.483,9.25864 -1.8771,3.25125 -6.0074,4.3539 -9.2586,2.4768 l -27.4734,-15.86137 8.2087,17.26963 c 1.0074,2.11906 0.8276,4.49044 -0.278,6.36182 -0.6633,1.12287 -1.6624,2.0638 -2.9338,2.66827 -3.3906,1.61193 -7.4182,0.18494 -9.0301,-3.20562 l -16.6582,-35.03956 -34.0266,-19.6476 0,25.62033 0,13.67487 22.0132,31.94511 c 2.1304,3.09128 1.3557,7.29509 -1.7356,9.42541 -1.1592,0.79888 -2.476,1.19137 -3.78,1.20443 -2.1735,0.0217 -4.314,-1.00801 -5.6454,-2.94003 l -10.8522,-15.74403 0,31.72893 c 0,3.7542 -3.0215,6.77567 -6.7757,6.77567 -3.7542,0 -6.7757,-3.02147 -6.7757,-6.77567 l 0,-31.72893 -10.8521,15.74403 c -1.3315,1.93202 -3.4719,2.96177 -5.6454,2.94003 -1.3041,-0.0131 -2.6208,-0.40555 -3.78,-1.20443 -3.0913,-2.13032 -3.8659,-6.33413 -1.7357,-9.42541 l 22.0132,-31.94511 0,-13.67487 0,-25.62033 -22.1922,12.81017 -11.8405,6.83743 -16.6581,35.03956 c -1.612,3.39056 -5.6396,4.81755 -9.0302,3.20562 -1.2714,-0.60447 -2.2705,-1.5454 -2.9338,-2.66827 -1.1056,-1.87138 -1.2855,-4.24276 -0.278,-6.36182 l 8.2148,-17.27582 -27.4794,15.86756 c -3.2512,1.87712 -7.3754,0.77445 -9.2525,-2.4768 -1.8771,-3.25124 -0.7745,-7.38154 2.4768,-9.25864 l 27.4733,-15.86137 -19.0609,-1.52562 c -2.3389,-0.18708 -4.2994,-1.52244 -5.3674,-3.41562 -0.6407,-1.13591 -0.9584,-2.47554 -0.8461,-3.87887 0.2992,-3.74228 3.5522,-6.51293 7.2944,-6.21363 l 38.6714,3.08827 11.8405,-6.83742 22.1923,-12.81017 -34.0328,-19.64759 -38.6714,3.09444 c -3.7422,0.2993 -6.9952,-2.47133 -7.2944,-6.2136 -0.1123,-1.40336 0.2054,-2.74297 0.8461,-3.87888 1.068,-1.89316 3.0285,-3.22858 5.3674,-3.41564 l 19.0671,-1.5256 -27.4795,-15.86755 c -3.2513,-1.87708 -4.3539,-6.00122 -2.4768,-9.25245 1.8771,-3.25126 6.0013,-4.3601 9.2525,-2.483 l 27.4794,15.86757 -8.2148,-17.27582 c -1.0075,-2.11906 -0.8276,-4.48427 0.278,-6.35566 0.6634,-1.12286 1.6624,-2.06996 2.9338,-2.67444 3.3906,-1.61193 7.4182,-0.17875 9.0302,3.21181 l 16.6581,35.03338 34.0327,19.64759 0,-25.61415 0,-13.67486 -22.0132,-31.94511 c -2.1302,-3.09127 -1.3556,-7.2951 1.7357,-9.42543 1.1592,-0.79888 2.4759,-1.19135 3.78,-1.20442 2.1735,-0.0218 4.3139,1.00802 5.6454,2.94004 l 10.8521,15.74403 0,-31.72894 c 0,-3.75421 3.0215,-6.77568 6.7757,-6.77568 z"
       style="fill:none;stroke:#204a87;stroke-width:4;stroke-miterlimit:4;stroke-dasharray:none" />
    <g
       id="g10475"
       transform="translate(-396.49988,1.5)">
      <path
         id="path10477"
         d="m 1511.3985,481.11221 2.675,2.67505 -2.675,2.67504 -2.6751,-2.67504 0,-2.67505 2.6751,-5.35009 2.675,-2.67504 8.0251,-2.67505 8.0252,0 8.0251,2.67505 2.6751,5.35009 0,5.35009 -2.6751,5.35009 -5.3501,5.35009 -8.0251,5.35009 -10.7002,5.35008 -8.0251,5.35009 -5.3501,5.35009 -5.3501,10.70018 m 34.7756,-56.17594 5.3501,2.67505 2.675,5.35009 0,5.35009 -2.675,5.35009 -5.3501,5.35009 -16.0503,10.70017 m -16.0503,16.05027 2.6751,-2.67504 5.3501,0 13.3752,5.35009 8.0251,0 5.3501,-2.67505 2.6751,-5.35009 m -29.4255,2.67505 13.3752,8.02513 8.0251,0 5.3501,-2.67504 2.6751,-8.02514"
         style="fill:none;stroke:#204a87;stroke-width:4;stroke-miterlimit:4;stroke-dasharray:none"
         inkscape:connector-curvature="0" />
      <path
         id="path10479"
         d="m 1580.9497,470.41203 -8.0251,2.67505 -5.3501,5.35009 -5.3501,8.02513 -2.6751,8.02514 -2.675,10.70017 0,8.02514 2.675,8.02513 2.6751,2.67505 5.3501,2.67504 5.3501,0 8.0251,-2.67504 5.3501,-5.35009 5.3501,-8.02514 2.675,-8.02513 2.6751,-10.70018 0,-8.02513 -2.6751,-8.02514 -2.675,-2.67504 -5.3501,-2.67505 -5.3501,0 m 0,0 -5.3501,2.67505 -5.3501,5.35009 -5.3501,8.02513 -2.675,8.02514 -2.6751,10.70017 0,8.02514 2.6751,8.02513 5.3501,5.35009 m 5.3501,0 5.35,-2.67504 5.3501,-5.35009 5.3501,-8.02514 2.6751,-8.02513 2.675,-10.70018 0,-8.02513 -2.675,-8.02514 -5.3501,-5.35009"
         style="fill:none;stroke:#204a87;stroke-width:4;stroke-miterlimit:4;stroke-dasharray:none"
         inkscape:connector-curvature="0" />
      <path
         id="path10481"
         d="m 1637.1256,481.11221 -13.3752,45.47576 m 18.7253,-56.17594 -16.0503,56.17594 m 16.0503,-56.17594 -8.0252,8.02514 -8.0251,5.35009 -5.3501,2.67504 m 18.7253,-8.02513 -10.7001,5.35009 -8.0252,2.67504"
         style="fill:none;stroke:#204a87;stroke-width:4;stroke-miterlimit:4;stroke-dasharray:none"
         inkscape:connector-curvature="0" />
      <path
         id="path10483"
         d="m 1693.3016,481.11221 -13.3752,45.47576 m 18.7253,-56.17594 -16.0503,56.17594 m 16.0503,-56.17594 -8.0252,8.02514 -8.0251,5.35009 -5.3501,2.67504 m 18.7253,-8.02513 -10.7001,5.35009 -8.0252,2.67504"
         style="fill:none;stroke:#204a87;stroke-width:4;stroke-miterlimit:4;stroke-dasharray:none"
         inkscape:connector-curvature="0" />
    </g>
    <path
       id="path10487"
       d="m 400.5004,617.72568 c 3.7542,0 6.7757,3.02147 6.7757,6.77568 l 0,31.72894 10.8522,-15.74403 c 1.3314,-1.93202 3.4719,-2.9618 5.6454,-2.94004 1.304,0.0131 2.6208,0.40554 3.78,1.20442 3.0913,2.13033 3.8659,6.33416 1.7356,9.42543 l -22.0132,31.94511 0,13.67486 0,25.61415 34.0266,-19.64759 16.6582,-35.03338 c 1.6119,-3.39056 5.6395,-4.82374 9.0301,-3.21181 1.2714,0.60448 2.2705,1.55158 2.9338,2.67444 1.1056,1.87139 1.2854,4.2366 0.278,6.35566 l -8.2087,17.26963 27.4734,-15.86138 c 3.2512,-1.8771 7.3815,-0.76826 9.2586,2.483 1.8771,3.25123 0.7682,7.37537 -2.483,9.25245 l -27.4794,15.86137 19.0669,1.53178 c 2.339,0.18706 4.2996,1.52248 5.3675,3.41564 0.6407,1.13591 0.9584,2.47552 0.8462,3.87888 -0.2993,3.74227 -3.5523,6.5129 -7.2946,6.2136 l -38.6713,-3.09444 -34.0266,19.64759 22.1862,12.81017 11.8404,6.83742 38.6713,-3.08827 c 3.7423,-0.2993 6.9953,2.47135 7.2946,6.21363 0.1122,1.40333 -0.2055,2.74296 -0.8462,3.87887 -1.0679,1.89318 -3.0285,3.22854 -5.3675,3.41562 l -19.0608,1.52562 27.4733,15.86137 c 3.2512,1.8771 4.3601,6.0074 2.483,9.25864 -1.8771,3.25125 -6.0074,4.3539 -9.2586,2.4768 l -27.4734,-15.86137 8.2087,17.26963 c 1.0074,2.11906 0.8276,4.49044 -0.278,6.36182 -0.6633,1.12287 -1.6624,2.0638 -2.9338,2.66827 -3.3906,1.61193 -7.4182,0.18494 -9.0301,-3.20562 l -16.6582,-35.03956 -34.0266,-19.6476 0,25.62033 0,13.67487 22.0132,31.94511 c 2.1304,3.09128 1.3557,7.29509 -1.7356,9.42541 -1.1592,0.79888 -2.476,1.19137 -3.78,1.20443 -2.1735,0.0217 -4.314,-1.00801 -5.6454,-2.94003 l -10.8522,-15.74403 0,31.72893 c 0,3.7542 -3.0215,6.77567 -6.7757,6.77567 -3.7542,0 -6.7757,-3.02147 -6.7757,-6.77567 l 0,-31.72893 -10.8521,15.74403 c -1.3315,1.93202 -3.4719,2.96177 -5.6454,2.94003 -1.3041,-0.0131 -2.6208,-0.40555 -3.78,-1.20443 -3.0913,-2.13032 -3.8659,-6.33413 -1.7357,-9.42541 l 22.0132,-31.94511 0,-13.67487 0,-25.62033 -22.1922,12.81017 -11.8405,6.83743 -16.6581,35.03956 c -1.612,3.39056 -5.6396,4.81755 -9.0302,3.20562 -1.2714,-0.60447 -2.2705,-1.5454 -2.9338,-2.66827 -1.1056,-1.87138 -1.2855,-4.24276 -0.278,-6.36182 l 8.2148,-17.27582 -27.4794,15.86756 c -3.2512,1.87712 -7.3754,0.77445 -9.2525,-2.4768 -1.8771,-3.25124 -0.7745,-7.38154 2.4768,-9.25864 l 27.4733,-15.86137 -19.0609,-1.52562 c -2.3389,-0.18708 -4.2994,-1.52244 -5.3674,-3.41562 -0.6407,-1.13591 -0.9584,-2.47554 -0.8461,-3.87887 0.2992,-3.74228 3.5522,-6.51293 7.2944,-6.21363 l 38.6714,3.08827 11.8405,-6.83742 22.1923,-12.81017 -34.0328,-19.64759 -38.6714,3.09444 c -3.7422,0.2993 -6.9952,-2.47133 -7.2944,-6.2136 -0.1123,-1.40336 0.2054,-2.74297 0.8461,-3.87888 1.068,-1.89316 3.0285,-3.22858 5.3674,-3.41564 l 19.0671,-1.5256 -27.4795,-15.86755 c -3.2513,-1.87708 -4.3539,-6.00122 -2.4768,-9.25245 1.8771,-3.25126 6.0013,-4.3601 9.2525,-2.483 l 27.4794,15.86757 -8.2148,-17.27582 c -1.0075,-2.11906 -0.8276,-4.48427 0.278,-6.35566 0.6634,-1.12286 1.6624,-2.06996 2.9338,-2.67444 3.3906,-1.61193 7.4182,-0.17875 9.0302,3.21181 l 16.6581,35.03338 34.0327,19.64759 0,-25.61415 0,-13.67486 -22.0132,-31.94511 c -2.1302,-3.09127 -1.3556,-7.2951 1.7357,-9.42543 1.1592,-0.79888 2.4759,-1.19135 3.78,-1.20442 2.1735,-0.0218 4.3139,1.00802 5.6454,2.94004 l 10.8521,15.74403 0,-31.72894 c 0,-3.75421 3.0215,-6.77568 6.7757,-6.77568 z"
       style="fill:none;stroke:#204a87;stroke-width:4;stroke-miterlimit:4;stroke-dasharray:none" />
    <path
       id="path10489"
       d="m 400.5004,155.42821 c 3.7542,0 6.7757,3.02147 6.7757,6.77568 l 0,31.72894 10.8522,-15.74403 c 1.3314,-1.93202 3.4719,-2.9618 5.6454,-2.94004 1.304,0.0131 2.6208,0.40554 3.78,1.20442 3.0913,2.13033 3.8659,6.33416 1.7356,9.42543 l -22.0132,31.94511 0,13.67486 0,25.61415 34.0266,-19.64759 16.6582,-35.03338 c 1.6119,-3.39056 5.6395,-4.82374 9.0301,-3.21181 1.2714,0.60448 2.2705,1.55158 2.9338,2.67444 1.1056,1.87139 1.2854,4.2366 0.278,6.35566 l -8.2087,17.26963 27.4734,-15.86138 c 3.2512,-1.8771 7.3815,-0.76826 9.2586,2.483 1.8771,3.25123 0.7682,7.37537 -2.483,9.25245 l -27.4794,15.86137 19.0669,1.53178 c 2.339,0.18706 4.2996,1.52248 5.3675,3.41564 0.6407,1.13591 0.9584,2.47552 0.8462,3.87888 -0.2993,3.74227 -3.5523,6.5129 -7.2946,6.2136 l -38.6713,-3.09444 -34.0266,19.64759 22.1862,12.81017 11.8404,6.83742 38.6713,-3.08827 c 3.7423,-0.2993 6.9953,2.47135 7.2946,6.21363 0.1122,1.40333 -0.2055,2.74296 -0.8462,3.87887 -1.0679,1.89318 -3.0285,3.22854 -5.3675,3.41562 l -19.0608,1.52562 27.4733,15.86137 c 3.2512,1.8771 4.3601,6.0074 2.483,9.25864 -1.8771,3.25125 -6.0074,4.3539 -9.2586,2.4768 l -27.4734,-15.86137 8.2087,17.26963 c 1.0074,2.11906 0.8276,4.49044 -0.278,6.36182 -0.6633,1.12287 -1.6624,2.0638 -2.9338,2.66827 -3.3906,1.61193 -7.4182,0.18494 -9.0301,-3.20562 l -16.6582,-35.03956 -34.0266,-19.6476 0,25.62033 0,13.67487 22.0132,31.94511 c 2.1304,3.09128 1.3557,7.29509 -1.7356,9.42541 -1.1592,0.79888 -2.476,1.19137 -3.78,1.20443 -2.1735,0.0217 -4.314,-1.00801 -5.6454,-2.94003 l -10.8522,-15.74403 0,31.72893 c 0,3.7542 -3.0215,6.77567 -6.7757,6.77567 -3.7542,0 -6.7757,-3.02147 -6.7757,-6.77567 l 0,-31.72893 -10.8521,15.74403 c -1.3315,1.93202 -3.4719,2.96177 -5.6454,2.94003 -1.3041,-0.0131 -2.6208,-0.40555 -3.78,-1.20443 -3.0913,-2.13032 -3.8659,-6.33413 -1.7357,-9.42541 l 22.0132,-31.94511 0,-13.67487 0,-25.62033 -22.1922,12.81017 -11.8405,6.83743 -16.6581,35.03956 c -1.612,3.39056 -5.6396,4.81755 -9.0302,3.20562 -1.2714,-0.60447 -2.2705,-1.5454 -2.9338,-2.66827 -1.1056,-1.87138 -1.2855,-4.24276 -0.278,-6.36182 l 8.2148,-17.27582 -27.4794,15.86756 c -3.2512,1.87712 -7.3754,0.77445 -9.2525,-2.4768 -1.8771,-3.25124 -0.7745,-7.38154 2.4768,-9.25864 l 27.4733,-15.86137 -19.0609,-1.52562 c -2.3389,-0.18708 -4.2994,-1.52244 -5.3674,-3.41562 -0.6407,-1.13591 -0.9584,-2.47554 -0.8461,-3.87887 0.2992,-3.74228 3.5522,-6.51293 7.2944,-6.21363 l 38.6714,3.08827 11.8405,-6.83742 22.1923,-12.81017 -34.0328,-19.64759 -38.6714,3.09444 c -3.7422,0.2993 -6.9952,-2.47133 -7.2944,-6.2136 -0.1123,-1.40336 0.2054,-2.74297 0.8461,-3.87888 1.068,-1.89316 3.0285,-3.22858 5.3674,-3.41564 l 19.0671,-1.5256 -27.4795,-15.86755 c -3.2513,-1.87708 -4.3539,-6.00122 -2.4768,-9.25245 1.8771,-3.25126 6.0013,-4.3601 9.2525,-2.483 l 27.4794,15.86757 -8.2148,-17.27582 c -1.0075,-2.11906 -0.8276,-4.48427 0.278,-6.35566 0.6634,-1.12286 1.6624,-2.06996 2.9338,-2.67444 3.3906,-1.61193 7.4182,-0.17875 9.0302,3.21181 l 16.6581,35.03338 34.0327,19.64759 0,-25.61415 0,-13.67486 -22.0132,-31.94511 c -2.1302,-3.09127 -1.3556,-7.2951 1.7357,-9.42543 1.1592,-0.79888 2.4759,-1.19135 3.78,-1.20442 2.1735,-0.0218 4.3139,1.00802 5.6454,2.94004 l 10.8521,15.74403 0,-31.72894 c 0,-3.75421 3.0215,-6.77568 6.7757,-6.77568 z"
       style="fill:none;stroke:#204a87;stroke-width:4;stroke-miterlimit:4;stroke-dasharray:none" />
    <g
       transform="translate(-1196.4999,1.5)"
       id="g10491">
      <path
         inkscape:connector-curvature="0"
         style="fill:none;stroke:#204a87;stroke-width:4;stroke-miterlimit:4;stroke-dasharray:none"
         d="m 1511.3985,481.11221 2.675,2.67505 -2.675,2.67504 -2.6751,-2.67504 0,-2.67505 2.6751,-5.35009 2.675,-2.67504 8.0251,-2.67505 8.0252,0 8.0251,2.67505 2.6751,5.35009 0,5.35009 -2.6751,5.35009 -5.3501,5.35009 -8.0251,5.35009 -10.7002,5.35008 -8.0251,5.35009 -5.3501,5.35009 -5.3501,10.70018 m 34.7756,-56.17594 5.3501,2.67505 2.675,5.35009 0,5.35009 -2.675,5.35009 -5.3501,5.35009 -16.0503,10.70017 m -16.0503,16.05027 2.6751,-2.67504 5.3501,0 13.3752,5.35009 8.0251,0 5.3501,-2.67505 2.6751,-5.35009 m -29.4255,2.67505 13.3752,8.02513 8.0251,0 5.3501,-2.67504 2.6751,-8.02514"
         id="path10493" />
      <path
         inkscape:connector-curvature="0"
         style="fill:none;stroke:#204a87;stroke-width:4;stroke-miterlimit:4;stroke-dasharray:none"
         d="m 1580.9497,470.41203 -8.0251,2.67505 -5.3501,5.35009 -5.3501,8.02513 -2.6751,8.02514 -2.675,10.70017 0,8.02514 2.675,8.02513 2.6751,2.67505 5.3501,2.67504 5.3501,0 8.0251,-2.67504 5.3501,-5.35009 5.3501,-8.02514 2.675,-8.02513 2.6751,-10.70018 0,-8.02513 -2.6751,-8.02514 -2.675,-2.67504 -5.3501,-2.67505 -5.3501,0 m 0,0 -5.3501,2.67505 -5.3501,5.35009 -5.3501,8.02513 -2.675,8.02514 -2.6751,10.70017 0,8.02514 2.6751,8.02513 5.3501,5.35009 m 5.3501,0 5.35,-2.67504 5.3501,-5.35009 5.3501,-8.02514 2.6751,-8.02513 2.675,-10.70018 0,-8.02513 -2.675,-8.02514 -5.3501,-5.35009"
         id="path10495" />
      <path
         inkscape:connector-curvature="0"
         style="fill:none;stroke:#204a87;stroke-width:4;stroke-miterlimit:4;stroke-dasharray:none"
         d="m 1637.1256,481.11221 -13.3752,45.47576 m 18.7253,-56.17594 -16.0503,56.17594 m 16.0503,-56.17594 -8.0252,8.02514 -8.0251,5.35009 -5.3501,2.67504 m 18.7253,-8.02513 -10.7001,5.35009 -8.0252,2.67504"
         id="path10497" />
      <path
         inkscape:connector-curvature="0"
         style="fill:none;stroke:#204a87;stroke-width:4;stroke-miterlimit:4;stroke-dasharray:none"
         d="m 1693.3016,481.11221 -13.3752,45.47576 m 18.7253,-56.17594 -16.0503,56.17594 m 16.0503,-56.17594 -8.0252,8.02514 -8.0251,5.35009 -5.3501,2.67504 m 18.7253,-8.02513 -10.7001,5.35009 -8.0252,2.67504"
         id="path10499" />
    </g>
    <path
       id="path10503"
       d="m 2800.5004,617.72568 c 3.7542,0 6.7757,3.02147 6.7757,6.77568 l 0,31.72894 10.8522,-15.74403 c 1.3314,-1.93202 3.4719,-2.9618 5.6454,-2.94004 1.304,0.0131 2.6208,0.40554 3.78,1.20442 3.0913,2.13033 3.8659,6.33416 1.7356,9.42543 l -22.0132,31.94511 0,13.67486 0,25.61415 34.0266,-19.64759 16.6582,-35.03338 c 1.6119,-3.39056 5.6395,-4.82374 9.0301,-3.21181 1.2714,0.60448 2.2705,1.55158 2.9338,2.67444 1.1056,1.87139 1.2854,4.2366 0.278,6.35566 l -8.2087,17.26963 27.4734,-15.86138 c 3.2512,-1.8771 7.3815,-0.76826 9.2586,2.483 1.8771,3.25123 0.7682,7.37537 -2.483,9.25245 l -27.4794,15.86137 19.0669,1.53178 c 2.339,0.18706 4.2996,1.52248 5.3675,3.41564 0.6407,1.13591 0.9584,2.47552 0.8462,3.87888 -0.2993,3.74227 -3.5523,6.5129 -7.2946,6.2136 l -38.6713,-3.09444 -34.0266,19.64759 22.1862,12.81017 11.8404,6.83742 38.6713,-3.08827 c 3.7423,-0.2993 6.9953,2.47135 7.2946,6.21363 0.1122,1.40333 -0.2055,2.74296 -0.8462,3.87887 -1.0679,1.89318 -3.0285,3.22854 -5.3675,3.41562 l -19.0608,1.52562 27.4733,15.86137 c 3.2512,1.8771 4.3601,6.0074 2.483,9.25864 -1.8771,3.25125 -6.0074,4.3539 -9.2586,2.4768 l -27.4734,-15.86137 8.2087,17.26963 c 1.0074,2.11906 0.8276,4.49044 -0.278,6.36182 -0.6633,1.12287 -1.6624,2.0638 -2.9338,2.66827 -3.3906,1.61193 -7.4182,0.18494 -9.0301,-3.20562 l -16.6582,-35.03956 -34.0266,-19.6476 0,25.62033 0,13.67487 22.0132,31.94511 c 2.1304,3.09128 1.3557,7.29509 -1.7356,9.42541 -1.1592,0.79888 -2.476,1.19137 -3.78,1.20443 -2.1735,0.0217 -4.314,-1.00801 -5.6454,-2.94003 l -10.8522,-15.74403 0,31.72893 c 0,3.7542 -3.0215,6.77567 -6.7757,6.77567 -3.7542,0 -6.7757,-3.02147 -6.7757,-6.77567 l 0,-31.72893 -10.8521,15.74403 c -1.3315,1.93202 -3.4719,2.96177 -5.6454,2.94003 -1.3041,-0.0131 -2.6208,-0.40555 -3.78,-1.20443 -3.0913,-2.13032 -3.8659,-6.33413 -1.7357,-9.42541 l 22.0132,-31.94511 0,-13.67487 0,-25.62033 -22.1922,12.81017 -11.8405,6.83743 -16.6581,35.03956 c -1.612,3.39056 -5.6396,4.81755 -9.0302,3.20562 -1.2714,-0.60447 -2.2705,-1.5454 -2.9338,-2.66827 -1.1056,-1.87138 -1.2855,-4.24276 -0.278,-6.36182 l 8.2148,-17.27582 -27.4794,15.86756 c -3.2512,1.87712 -7.3754,0.77445 -9.2525,-2.4768 -1.8771,-3.25124 -0.7745,-7.38154 2.4768,-9.25864 l 27.4733,-15.86137 -19.0609,-1.52562 c -2.3389,-0.18708 -4.2994,-1.52244 -5.3674,-3.41562 -0.6407,-1.13591 -0.9584,-2.47554 -0.8461,-3.87887 0.2992,-3.74228 3.5522,-6.51293 7.2944,-6.21363 l 38.6714,3.08827 11.8405,-6.83742 22.1923,-12.81017 -34.0328,-19.64759 -38.6714,3.09444 c -3.7422,0.2993 -6.9952,-2.47133 -7.2944,-6.2136 -0.1123,-1.40336 0.2054,-2.74297 0.8461,-3.87888 1.068,-1.89316 3.0285,-3.22858 5.3674,-3.41564 l 19.0671,-1.5256 -27.4795,-15.86755 c -3.2513,-1.87708 -4.3539,-6.00122 -2.4768,-9.25245 1.8771,-3.25126 6.0013,-4.3601 9.2525,-2.483 l 27.4794,15.86757 -8.2148,-17.27582 c -1.0075,-2.11906 -0.8276,-4.48427 0.278,-6.35566 0.6634,-1.12286 1.6624,-2.06996 2.9338,-2.67444 3.3906,-1.61193 7.4182,-0.17875 9.0302,3.21181 l 16.6581,35.03338 34.0327,19.64759 0,-25.61415 0,-13.67486 -22.0132,-31.94511 c -2.1302,-3.09127 -1.3556,-7.2951 1.7357,-9.42543 1.1592,-0.79888 2.4759,-1.19135 3.78,-1.20442 2.1735,-0.0218 4.3139,1.00802 5.6454,2.94004 l 10.8521,15.74403 0,-31.72894 c 0,-3.75421 3.0215,-6.77568 6.7757,-6.77568 z"
       style="fill:none;stroke:#204a87;stroke-width:4;stroke-miterlimit:4;stroke-dasharray:none" />
    <path
       id="path10505"
       d="m 2800.5004,155.42821 c 3.7542,0 6.7757,3.02147 6.7757,6.77568 l 0,31.72894 10.8522,-15.74403 c 1.3314,-1.93202 3.4719,-2.9618 5.6454,-2.94004 1.304,0.0131 2.6208,0.40554 3.78,1.20442 3.0913,2.13033 3.8659,6.33416 1.7356,9.42543 l -22.0132,31.94511 0,13.67486 0,25.61415 34.0266,-19.64759 16.6582,-35.03338 c 1.6119,-3.39056 5.6395,-4.82374 9.0301,-3.21181 1.2714,0.60448 2.2705,1.55158 2.9338,2.67444 1.1056,1.87139 1.2854,4.2366 0.278,6.35566 l -8.2087,17.26963 27.4734,-15.86138 c 3.2512,-1.8771 7.3815,-0.76826 9.2586,2.483 1.8771,3.25123 0.7682,7.37537 -2.483,9.25245 l -27.4794,15.86137 19.0669,1.53178 c 2.339,0.18706 4.2996,1.52248 5.3675,3.41564 0.6407,1.13591 0.9584,2.47552 0.8462,3.87888 -0.2993,3.74227 -3.5523,6.5129 -7.2946,6.2136 l -38.6713,-3.09444 -34.0266,19.64759 22.1862,12.81017 11.8404,6.83742 38.6713,-3.08827 c 3.7423,-0.2993 6.9953,2.47135 7.2946,6.21363 0.1122,1.40333 -0.2055,2.74296 -0.8462,3.87887 -1.0679,1.89318 -3.0285,3.22854 -5.3675,3.41562 l -19.0608,1.52562 27.4733,15.86137 c 3.2512,1.8771 4.3601,6.0074 2.483,9.25864 -1.8771,3.25125 -6.0074,4.3539 -9.2586,2.4768 l -27.4734,-15.86137 8.2087,17.26963 c 1.0074,2.11906 0.8276,4.49044 -0.278,6.36182 -0.6633,1.12287 -1.6624,2.0638 -2.9338,2.66827 -3.3906,1.61193 -7.4182,0.18494 -9.0301,-3.20562 l -16.6582,-35.03956 -34.0266,-19.6476 0,25.62033 0,13.67487 22.0132,31.94511 c 2.1304,3.09128 1.3557,7.29509 -1.7356,9.42541 -1.1592,0.79888 -2.476,1.19137 -3.78,1.20443 -2.1735,0.0217 -4.314,-1.00801 -5.6454,-2.94003 l -10.8522,-15.74403 0,31.72893 c 0,3.7542 -3.0215,6.77567 -6.7757,6.77567 -3.7542,0 -6.7757,-3.02147 -6.7757,-6.77567 l 0,-31.72893 -10.8521,15.74403 c -1.3315,1.93202 -3.4719,2.96177 -5.6454,2.94003 -1.3041,-0.0131 -2.6208,-0.40555 -3.78,-1.20443 -3.0913,-2.13032 -3.8659,-6.33413 -1.7357,-9.42541 l 22.0132,-31.94511 0,-13.67487 0,-25.62033 -22.1922,12.81017 -11.8405,6.83743 -16.6581,35.03956 c -1.612,3.39056 -5.6396,4.81755 -9.0302,3.20562 -1.2714,-0.60447 -2.2705,-1.5454 -2.9338,-2.66827 -1.1056,-1.87138 -1.2855,-4.24276 -0.278,-6.36182 l 8.2148,-17.27582 -27.4794,15.86756 c -3.2512,1.87712 -7.3754,0.77445 -9.2525,-2.4768 -1.8771,-3.25124 -0.7745,-7.38154 2.4768,-9.25864 l 27.4733,-15.86137 -19.0609,-1.52562 c -2.3389,-0.18708 -4.2994,-1.52244 -5.3674,-3.41562 -0.6407,-1.13591 -0.9584,-2.47554 -0.8461,-3.87887 0.2992,-3.74228 3.5522,-6.51293 7.2944,-6.21363 l 38.6714,3.08827 11.8405,-6.83742 22.1923,-12.81017 -34.0328,-19.64759 -38.6714,3.09444 c -3.7422,0.2993 -6.9952,-2.47133 -7.2944,-6.2136 -0.1123,-1.40336 0.2054,-2.74297 0.8461,-3.87888 1.068,-1.89316 3.0285,-3.22858 5.3674,-3.41564 l 19.0671,-1.5256 -27.4795,-15.86755 c -3.2513,-1.87708 -4.3539,-6.00122 -2.4768,-9.25245 1.8771,-3.25126 6.0013,-4.3601 9.2525,-2.483 l 27.4794,15.86757 -8.2148,-17.27582 c -1.0075,-2.11906 -0.8276,-4.48427 0.278,-6.35566 0.6634,-1.12286 1.6624,-2.06996 2.9338,-2.67444 3.3906,-1.61193 7.4182,-0.17875 9.0302,3.21181 l 16.6581,35.03338 34.0327,19.64759 0,-25.61415 0,-13.67486 -22.0132,-31.94511 c -2.1302,-3.09127 -1.3556,-7.2951 1.7357,-9.42543 1.1592,-0.79888 2.4759,-1.19135 3.78,-1.20442 2.1735,-0.0218 4.3139,1.00802 5.6454,2.94004 l 10.8521,15.74403 0,-31.72894 c 0,-3.75421 3.0215,-6.77568 6.7757,-6.77568 z"
       style="fill:none;stroke:#204a87;stroke-width:4;stroke-miterlimit:4;stroke-dasharray:none" />
    <g
       id="g10507"
       transform="translate(1203.5001,1.5)">
      <path
         id="path10509"
         d="m 1511.3985,481.11221 2.675,2.67505 -2.675,2.67504 -2.6751,-2.67504 0,-2.67505 2.6751,-5.35009 2.675,-2.67504 8.0251,-2.67505 8.0252,0 8.0251,2.67505 2.6751,5.35009 0,5.35009 -2.6751,5.35009 -5.3501,5.35009 -8.0251,5.35009 -10.7002,5.35008 -8.0251,5.35009 -5.3501,5.35009 -5.3501,10.70018 m 34.7756,-56.17594 5.3501,2.67505 2.675,5.35009 0,5.35009 -2.675,5.35009 -5.3501,5.35009 -16.0503,10.70017 m -16.0503,16.05027 2.6751,-2.67504 5.3501,0 13.3752,5.35009 8.0251,0 5.3501,-2.67505 2.6751,-5.35009 m -29.4255,2.67505 13.3752,8.02513 8.0251,0 5.3501,-2.67504 2.6751,-8.02514"
         style="fill:none;stroke:#204a87;stroke-width:4;stroke-miterlimit:4;stroke-dasharray:none"
         inkscape:connector-curvature="0" />
      <path
         id="path10511"
         d="m 1580.9497,470.41203 -8.0251,2.67505 -5.3501,5.35009 -5.3501,8.02513 -2.6751,8.02514 -2.675,10.70017 0,8.02514 2.675,8.02513 2.6751,2.67505 5.3501,2.67504 5.3501,0 8.0251,-2.67504 5.3501,-5.35009 5.3501,-8.02514 2.675,-8.02513 2.6751,-10.70018 0,-8.02513 -2.6751,-8.02514 -2.675,-2.67504 -5.3501,-2.67505 -5.3501,0 m 0,0 -5.3501,2.67505 -5.3501,5.35009 -5.3501,8.02513 -2.675,8.02514 -2.6751,10.70017 0,8.02514 2.6751,8.02513 5.3501,5.35009 m 5.3501,0 5.35,-2.67504 5.3501,-5.35009 5.3501,-8.02514 2.6751,-8.02513 2.675,-10.70018 0,-8.02513 -2.675,-8.02514 -5.3501,-5.35009"
         style="fill:none;stroke:#204a87;stroke-width:4;stroke-miterlimit:4;stroke-dasharray:none"
         inkscape:connector-curvature="0" />
      <path
         id="path10513"
         d="m 1637.1256,481.11221 -13.3752,45.47576 m 18.7253,-56.17594 -16.0503,56.17594 m 16.0503,-56.17594 -8.0252,8.02514 -8.0251,5.35009 -5.3501,2.67504 m 18.7253,-8.02513 -10.7001,5.35009 -8.0252,2.67504"
         style="fill:none;stroke:#204a87;stroke-width:4;stroke-miterlimit:4;stroke-dasharray:none"
         inkscape:connector-curvature="0" />
      <path
         id="path10515"
         d="m 1693.3016,481.11221 -13.3752,45.47576 m 18.7253,-56.17594 -16.0503,56.17594 m 16.0503,-56.17594 -8.0252,8.02514 -8.0251,5.35009 -5.3501,2.67504 m 18.7253,-8.02513 -10.7001,5.35009 -8.0252,2.67504"
         style="fill:none;stroke:#204a87;stroke-width:4;stroke-miterlimit:4;stroke-dasharray:none"
         inkscape:connector-curvature="0" />
    </g>
  </g>
  <eggbot
     serialport="/dev/ttyACM0"
     layer="0"
     node="0"
     lastpath="0"
     lastpathnc="0"
     totaldeltax="0"
     totaldeltay="0"
     id="eggbot4952" />
</svg>
