<?xml version="1.0" encoding="UTF-8" standalone="no"?>
<!-- Created with Inkscape (http://www.inkscape.org/) -->

<svg
   xmlns:dc="http://purl.org/dc/elements/1.1/"
   xmlns:cc="http://creativecommons.org/ns#"
   xmlns:rdf="http://www.w3.org/1999/02/22-rdf-syntax-ns#"
   xmlns:svg="http://www.w3.org/2000/svg"
   xmlns="http://www.w3.org/2000/svg"
   xmlns:sodipodi="http://sodipodi.sourceforge.net/DTD/sodipodi-0.dtd"
   xmlns:inkscape="http://www.inkscape.org/namespaces/inkscape"
   width="3200"
   height="1000"
   id="svg27345"
   version="1.1"
   inkscape:version="0.48.1 r9760"
   sodipodi:docname="xmas_tree_eggbot.svg"
   style="display:inline">
  <sodipodi:namedview
     id="base"
     pagecolor="#ffffff"
     bordercolor="#666666"
     borderopacity="1.0"
     inkscape:pageopacity="0.0"
     inkscape:pageshadow="2"
     inkscape:zoom="0.615"
     inkscape:cx="1761.1378"
     inkscape:cy="485.79418"
     inkscape:document-units="px"
     inkscape:current-layer="layer8"
     showgrid="false"
     inkscape:window-width="1600"
     inkscape:window-height="823"
     inkscape:window-x="0"
     inkscape:window-y="24"
     inkscape:window-maximized="1"
     inkscape:snap-bbox="true"
     inkscape:snap-page="true"
     inkscape:snap-nodes="false" />
  <defs
     id="defs27347">
    <inkscape:path-effect
       effect="rough_hatches"
       id="path-effect23229"
       is_visible="true"
       direction="1905.6045,564.66991 , 11.016985,0"
       dist_rdm="0;1"
       growth="0"
       do_bend="true"
       bender="1905.6045,569.66991 , 5,0"
       bottom_edge_variation="0;1"
       top_edge_variation="0;1"
       bottom_tgt_variation="0;1"
       top_tgt_variation="0;1"
       scale_bf="2"
       scale_bb="2"
       scale_tf="2"
       scale_tb="2"
       top_smth_variation="0;1"
       bottom_smth_variation="0;1"
       fat_output="false"
       stroke_width_top="1"
       stroke_width_bottom="1"
       front_thickness="1"
       back_thickness="0.25" />
    <inkscape:path-effect
       back_thickness="0.25"
       front_thickness="1"
       stroke_width_bottom="1"
       stroke_width_top="1"
       fat_output="false"
       bottom_smth_variation="0;1"
       top_smth_variation="0;1"
       scale_tb="2"
       scale_tf="2"
       scale_bb="2"
       scale_bf="2"
       top_tgt_variation="0;1"
       bottom_tgt_variation="0;1"
       top_edge_variation="0;1"
       bottom_edge_variation="0;1"
       bender="1937.4656,454.46121 , 5,0"
       do_bend="true"
       growth="0"
       dist_rdm="0;1"
       direction="1937.4656,449.46121 , 11.016985,0"
       is_visible="true"
       id="path-effect23103"
       effect="rough_hatches" />
    <inkscape:path-effect
       effect="rough_hatches"
       id="path-effect22979"
       is_visible="true"
       direction="1868.096,279.27339 , 19.757405,2.9134671"
       dist_rdm="0;1"
       growth="0"
       do_bend="true"
       bender="1868.096,284.27339 , 5,0"
       bottom_edge_variation="0;1"
       top_edge_variation="0;1"
       bottom_tgt_variation="0;1"
       top_tgt_variation="0;1"
       scale_bf="2"
       scale_bb="2"
       scale_tf="2"
       scale_tb="2"
       top_smth_variation="0;1"
       bottom_smth_variation="0;1"
       fat_output="false"
       stroke_width_top="1"
       stroke_width_bottom="1"
       front_thickness="1"
       back_thickness="0.25" />
    <inkscape:path-effect
       back_thickness="0.25"
       front_thickness="1"
       stroke_width_bottom="1"
       stroke_width_top="1"
       fat_output="false"
       bottom_smth_variation="0;1"
       top_smth_variation="0;1"
       scale_tb="2"
       scale_tf="2"
       scale_bb="2"
       scale_bf="2"
       top_tgt_variation="0;1"
       bottom_tgt_variation="0;1"
       top_edge_variation="0;1"
       bottom_edge_variation="0;1"
       bender="1828.3236,509.0329 , 5,0"
       do_bend="true"
       growth="0"
       dist_rdm="0;1"
       direction="1828.3236,504.0329 , 20.287581,0"
       is_visible="true"
       id="path-effect22839"
       effect="rough_hatches" />
    <inkscape:path-effect
       back_thickness="0.25"
       front_thickness="1"
       stroke_width_bottom="1"
       stroke_width_top="1"
       fat_output="false"
       bottom_smth_variation="0;1"
       top_smth_variation="0;1"
       scale_tb="2"
       scale_tf="2"
       scale_bb="2"
       scale_bf="2"
       top_tgt_variation="0;1"
       bottom_tgt_variation="0;1"
       top_edge_variation="0;1"
       bottom_edge_variation="0;1"
       bender="2036.4341,490.53442 , 5,0"
       do_bend="true"
       growth="0"
       dist_rdm="0;1"
       direction="2036.4341,485.53442 , 21.661021,-5.6843419e-14"
       is_visible="true"
       id="path-effect22605"
       effect="rough_hatches" />
    <inkscape:path-effect
       effect="rough_hatches"
       id="path-effect22489"
       is_visible="true"
       direction="1946.7155,391.19037 , 20.974291,5.6843419e-14"
       dist_rdm="0;1"
       growth="0"
       do_bend="true"
       bender="1946.7155,396.19037 , 5,0"
       bottom_edge_variation="0;1"
       top_edge_variation="0;1"
       bottom_tgt_variation="0;1"
       top_tgt_variation="0;1"
       scale_bf="2"
       scale_bb="2"
       scale_tf="2"
       scale_tb="2"
       top_smth_variation="0;1"
       bottom_smth_variation="0;1"
       fat_output="false"
       stroke_width_top="1"
       stroke_width_bottom="1"
       front_thickness="1"
       back_thickness="0.25" />
    <inkscape:path-effect
       back_thickness="0.25"
       front_thickness="1"
       stroke_width_bottom="1"
       stroke_width_top="1"
       fat_output="false"
       bottom_smth_variation="0;1"
       top_smth_variation="0;1"
       scale_tb="2"
       scale_tf="2"
       scale_bb="2"
       scale_bf="2"
       top_tgt_variation="0;1"
       bottom_tgt_variation="0;1"
       top_edge_variation="0;1"
       bottom_edge_variation="0;1"
       bender="1423.6058,531.23191 , 5,0"
       do_bend="true"
       growth="0"
       dist_rdm="0;1"
       direction="1423.6058,526.23191 , 19.516985,0"
       is_visible="true"
       id="path-effect22340"
       effect="rough_hatches" />
    <inkscape:path-effect
       effect="rough_hatches"
       id="path-effect22224"
       is_visible="true"
       direction="1175.7233,564.154 , 19.517004,0.5"
       dist_rdm="0;1"
       growth="0"
       do_bend="true"
       bender="1175.7233,569.154 , 5,0"
       bottom_edge_variation="0;1"
       top_edge_variation="0;1"
       bottom_tgt_variation="0;1"
       top_tgt_variation="0;1"
       scale_bf="2"
       scale_bb="2"
       scale_tf="2"
       scale_tb="2"
       top_smth_variation="0;1"
       bottom_smth_variation="0;1"
       fat_output="false"
       stroke_width_top="1"
       stroke_width_bottom="1"
       front_thickness="1"
       back_thickness="0.25" />
    <inkscape:path-effect
       back_thickness="0.25"
       front_thickness="1"
       stroke_width_bottom="1"
       stroke_width_top="1"
       fat_output="false"
       bottom_smth_variation="0;1"
       top_smth_variation="0;1"
       scale_tb="2"
       scale_tf="2"
       scale_bb="2"
       scale_bf="2"
       top_tgt_variation="0;1"
       bottom_tgt_variation="0;1"
       top_edge_variation="0;1"
       bottom_edge_variation="0;1"
       bender="1144.2757,428.56306 , 5,0"
       do_bend="true"
       growth="0"
       dist_rdm="0;1"
       direction="1144.2757,423.56306 , 19.516985,0.5"
       is_visible="true"
       id="path-effect22110"
       effect="rough_hatches" />
    <inkscape:path-effect
       effect="rough_hatches"
       id="path-effect21998"
       is_visible="true"
       direction="1189.9109,223.97623 , 20.516985,0"
       dist_rdm="0;1"
       growth="0"
       do_bend="true"
       bender="1189.9109,228.97623 , 5,0"
       bottom_edge_variation="0;1"
       top_edge_variation="0;1"
       bottom_tgt_variation="0;1"
       top_tgt_variation="0;1"
       scale_bf="2"
       scale_bb="2"
       scale_tf="2"
       scale_tb="2"
       top_smth_variation="0;1"
       bottom_smth_variation="0;1"
       fat_output="false"
       stroke_width_top="1"
       stroke_width_bottom="1"
       front_thickness="1"
       back_thickness="0.25" />
    <inkscape:path-effect
       back_thickness="0.25"
       front_thickness="1"
       stroke_width_bottom="1"
       stroke_width_top="1"
       fat_output="false"
       bottom_smth_variation="0;1"
       top_smth_variation="0;1"
       scale_tb="2"
       scale_tf="2"
       scale_bb="2"
       scale_bf="2"
       top_tgt_variation="0;1"
       bottom_tgt_variation="0;1"
       top_edge_variation="0;1"
       bottom_edge_variation="0;1"
       bender="1325.5628,310.17154 , 5,0"
       do_bend="true"
       growth="0"
       dist_rdm="0;1"
       direction="1325.5628,305.17154 , 21.517004,-0.5"
       is_visible="true"
       id="path-effect21888"
       effect="rough_hatches" />
    <inkscape:path-effect
       effect="rough_hatches"
       id="path-effect21772"
       is_visible="true"
       direction="1584.0858,397.17138 , 25.03125,-5.6843419e-14"
       dist_rdm="0;1"
       growth="0"
       do_bend="true"
       bender="1584.0858,402.17138 , 5,0"
       bottom_edge_variation="0;1"
       top_edge_variation="0;1"
       bottom_tgt_variation="0;1"
       top_tgt_variation="0;1"
       scale_bf="2"
       scale_bb="2"
       scale_tf="2"
       scale_tb="2"
       top_smth_variation="0;1"
       bottom_smth_variation="0;1"
       fat_output="false"
       stroke_width_top="1"
       stroke_width_bottom="1"
       front_thickness="1"
       back_thickness="0.25" />
    <inkscape:path-effect
       back_thickness="0.25"
       front_thickness="1"
       stroke_width_bottom="1"
       stroke_width_top="1"
       fat_output="false"
       bottom_smth_variation="0;1"
       top_smth_variation="0;1"
       scale_tb="2"
       scale_tf="2"
       scale_bb="2"
       scale_bf="2"
       top_tgt_variation="0;1"
       bottom_tgt_variation="0;1"
       top_edge_variation="0;1"
       bottom_edge_variation="0;1"
       bender="1582.2562,317.89197 , 5,0"
       do_bend="true"
       growth="0"
       dist_rdm="0;1"
       direction="1582.2562,312.89197 , 21.955301,3.3204995"
       is_visible="true"
       id="path-effect21574"
       effect="rough_hatches" />
    <inkscape:path-effect
       effect="rough_hatches"
       id="path-effect16863"
       is_visible="true"
       direction="1346.6879,460.65226 , 30.62752,-23.816934"
       dist_rdm="0;1"
       growth="0"
       do_bend="true"
       bender="1346.6879,465.65226 , 5,0"
       bottom_edge_variation="0;1"
       top_edge_variation="0;1"
       bottom_tgt_variation="0;1"
       top_tgt_variation="0;1"
       scale_bf="2"
       scale_bb="2"
       scale_tf="2"
       scale_tb="2"
       top_smth_variation="0;1"
       bottom_smth_variation="0;1"
       fat_output="false"
       stroke_width_top="1"
       stroke_width_bottom="1"
       front_thickness="1"
       back_thickness="0.25" />
    <inkscape:path-effect
       back_thickness="0.25"
       front_thickness="1"
       stroke_width_bottom="1"
       stroke_width_top="1"
       fat_output="false"
       bottom_smth_variation="0;1"
       top_smth_variation="0;1"
       scale_tb="2"
       scale_tf="2"
       scale_bb="2"
       scale_bf="2"
       top_tgt_variation="0;1"
       bottom_tgt_variation="0;1"
       top_edge_variation="0;1"
       bottom_edge_variation="0;1"
       bender="1344.8054,352.17544 , 5,0"
       do_bend="true"
       growth="0"
       dist_rdm="0;1"
       direction="1344.8054,347.17544 , 33.490932,18.667327"
       is_visible="true"
       id="path-effect16763"
       effect="rough_hatches" />
    <inkscape:path-effect
       effect="rough_hatches"
       id="path-effect16662"
       is_visible="true"
       direction="1348.5702,238.3218 , 40.051277,-5.6843419e-14"
       dist_rdm="0;1"
       growth="0"
       do_bend="true"
       bender="1348.5702,243.3218 , 5,0"
       bottom_edge_variation="0;1"
       top_edge_variation="0;1"
       bottom_tgt_variation="0;1"
       top_tgt_variation="0;1"
       scale_bf="2"
       scale_bb="2"
       scale_tf="2"
       scale_tb="2"
       top_smth_variation="0;1"
       bottom_smth_variation="0;1"
       fat_output="false"
       stroke_width_top="1"
       stroke_width_bottom="1"
       front_thickness="1"
       back_thickness="0.25" />
    <inkscape:path-effect
       back_thickness="0.25"
       front_thickness="1"
       stroke_width_bottom="1"
       stroke_width_top="1"
       fat_output="false"
       bottom_smth_variation="0;1"
       top_smth_variation="0;1"
       scale_tb="2"
       scale_tf="2"
       scale_bb="2"
       scale_bf="2"
       top_tgt_variation="0;1"
       bottom_tgt_variation="0;1"
       top_edge_variation="0;1"
       bottom_edge_variation="0;1"
       bender="1592.8692,711.64122 , 5,0"
       do_bend="true"
       growth="0"
       dist_rdm="0;1"
       direction="1592.8692,706.64122 , 28.051405,0"
       is_visible="true"
       id="path-effect16567"
       effect="rough_hatches" />
    <inkscape:path-effect
       effect="rough_hatches"
       id="path-effect16476"
       is_visible="true"
       direction="1594.7516,669.88334 , 29.385516,0"
       dist_rdm="0;1"
       growth="0"
       do_bend="true"
       bender="1594.7516,674.88334 , 5,0"
       bottom_edge_variation="0;1"
       top_edge_variation="0;1"
       bottom_tgt_variation="0;1"
       top_tgt_variation="0;1"
       scale_bf="2"
       scale_bb="2"
       scale_tf="2"
       scale_tb="2"
       top_smth_variation="0;1"
       bottom_smth_variation="0;1"
       fat_output="false"
       stroke_width_top="1"
       stroke_width_bottom="1"
       front_thickness="1"
       back_thickness="0.25" />
    <inkscape:path-effect
       back_thickness="0.25"
       front_thickness="1"
       stroke_width_bottom="1"
       stroke_width_top="1"
       fat_output="false"
       bottom_smth_variation="0;1"
       top_smth_variation="0;1"
       scale_tb="2"
       scale_tf="2"
       scale_bb="2"
       scale_bf="2"
       top_tgt_variation="0;1"
       bottom_tgt_variation="0;1"
       top_edge_variation="0;1"
       bottom_edge_variation="0;1"
       bender="1357.3533,603.44711 , 5,0"
       do_bend="true"
       growth="0"
       dist_rdm="0;1"
       direction="1357.3533,598.44711 , 18.822625,0"
       is_visible="true"
       id="path-effect16396"
       effect="rough_hatches" />
    <inkscape:path-effect
       effect="rough_hatches"
       id="path-effect16292"
       is_visible="true"
       direction="1583.9659,188.54866 , 23.21641,-2.4803129"
       dist_rdm="0;1"
       growth="0"
       do_bend="true"
       bender="1585.4856,196.19978 , 6.8649015,-0.7334081"
       bottom_edge_variation="0;1"
       top_edge_variation="0;1"
       bottom_tgt_variation="0;1"
       top_tgt_variation="0;1"
       scale_bf="2"
       scale_bb="2"
       scale_tf="2"
       scale_tb="2"
       top_smth_variation="0;1"
       bottom_smth_variation="0;1"
       fat_output="false"
       stroke_width_top="1"
       stroke_width_bottom="1"
       front_thickness="1"
       back_thickness="0.25" />
  </defs>
  <metadata
     id="metadata27350">
    <rdf:RDF>
      <cc:Work
         rdf:about="">
        <dc:format>image/svg+xml</dc:format>
        <dc:type
           rdf:resource="http://purl.org/dc/dcmitype/StillImage" />
        <dc:title />
      </cc:Work>
    </rdf:RDF>
  </metadata>
  <g
     style="display:inline"
     inkscape:label="8black"
     id="layer9"
     inkscape:groupmode="layer">
    <path
       style="fill:none;stroke:#000000;stroke-width:3.75;stroke-linecap:butt;stroke-linejoin:bevel;stroke-opacity:1;stroke-dasharray:none;display:inline"
       d="m 1572.3691,501.68328 c 8.3478,0.26724 16.7152,0.33836 25.0465,0.21002 m 36.0515,-1.84479 c 6.8455,-0.60558 13.6073,-1.35682 20.2519,-2.25569 m 47.598,-9.67872 c 36.7827,-10.44753 65.5448,-26.95779 77.8938,-50.03128 -15.2738,-4.40114 -32.4663,-13.66201 -50.1711,-25.71154 m -39.3778,-30.32272 c -4.1221,-3.50165 -8.2159,-7.07187 -12.2636,-10.68449 m -205.0495,5.30095 c -28.2727,23.6195 -58.73,46.63858 -87.1693,63.94905 20.1097,28.99614 73.3387,48.40241 134.6752,56.72715"
       id="path16981"
       inkscape:connector-curvature="0"
       sodipodi:nodetypes="cccccccccccc" />
    <path
       style="fill:none;stroke:#000000;stroke-width:3.75;stroke-linecap:butt;stroke-linejoin:bevel;stroke-opacity:1;stroke-dasharray:none;display:inline"
       d="m 1431.6483,474.45782 c -32.5994,21.87022 -65.1617,42.89222 -91.625,59 8.9111,24.12592 28.0997,43.92233 53.9599,59.46752 m 46.6397,21.29694 c 66.3472,22.88041 153.1357,27.62313 228.1123,14.92846 m 49.6312,-11.56824 c 55.005,-16.79757 97.3382,-44.96374 109.7819,-84.12468 -25.7848,-7.42988 -62.8461,-29.00002 -100.3438,-54.5625"
       id="path16983"
       inkscape:connector-curvature="0"
       sodipodi:nodetypes="cccccccc" />
    <path
       inkscape:connector-curvature="0"
       style="fill:none;stroke:#000000;stroke-width:3.75;stroke-linecap:round;stroke-linejoin:round;stroke-opacity:1;stroke-dasharray:none;display:inline"
       d="m 1606.9745,214.39442 c -16.6745,-25.82776 -23.3875,-41.01622 -24.7714,-46.09106 -2.5737,7.7215 -17.3558,37.54985 -42.8232,71.88874 m -32.7837,39.2937 c -19.1974,20.38374 -41.7766,40.08702 -67.4433,55.71012 8.9205,10.66153 22.1419,19.62538 38.153,26.81958 m 43.6849,13.98011 c 4.2606,0.93187 8.5956,1.77687 12.9893,2.53424 m 52.7503,4.81296 c 61.236,0.90023 122.1275,-14.14853 146.0536,-46.89037 -30.3477,-8.74469 -58.4848,-34.25437 -83.744,-64.62651"
       id="path16979"
       sodipodi:nodetypes="ccccccccccc" />
    <path
       style="fill:none;stroke:#000000;stroke-width:3.75;stroke-linecap:butt;stroke-linejoin:bevel;stroke-opacity:1;stroke-dasharray:none;display:inline"
       d="m 1557.7108,648.98907 c -53.9235,5.33793 -99.9683,23.64647 -101,55.125 0.028,1.6509 0.199,3.26773 0.5,4.84375 l 1.4063,21.5 c 58.9764,69.01617 250.9321,51.63584 268.5,0.1875 l 1.0937,-18.1875 c 0.5759,-2.28013 0.8555,-4.64604 0.8125,-7.09375 -0.5051,-30.80219 -44.3079,-49.40238 -96.625,-55.65625"
       id="path22472"
       inkscape:connector-curvature="0"
       sodipodi:nodetypes="cccccccc" />
    <path
       inkscape:connector-curvature="0"
       d="m 1557.8826,633.8803 -0.7763,70.23748 c 6.7883,16.31269 65.57,18.82435 75.2905,-1.25376 l 0,-70.23886"
       id="path22477"
       sodipodi:nodetypes="cccc"
       style="fill:none;stroke:#000000;stroke-width:3.75000262;stroke-linecap:butt;stroke-linejoin:bevel;stroke-opacity:1;stroke-dasharray:none;display:inline" />
    <path
       inkscape:connector-curvature="0"
       id="path22480"
       d="m 1456.4958,706.45782 c 59.9083,69.01617 254.8972,51.63584 272.7427,0.1875"
       style="fill:none;stroke:#000000;stroke-width:3.75;stroke-linecap:butt;stroke-linejoin:bevel;stroke-opacity:1;stroke-dasharray:none;display:inline"
       sodipodi:nodetypes="cc" />
  </g>
  <g
     inkscape:groupmode="layer"
     id="layer4"
     inkscape:label="7green"
     style="display:inline">
    <path
       sodipodi:nodetypes="cccccccccccccccccccccccccccccccccccccccccccccscccccccscccsccccccccccccccccsccccccccccccccsccccccccccccccccccccccccccccccccccccccc"
       inkscape:connector-curvature="0"
       id="path16976"
       d="m 1825.1934,541.31063 c 0,0 2.5518,-7.88151 -2.4443,-9.58472 -4.9962,-1.7032 -0.097,15.6188 -5.1558,23.17788 -5.059,7.55907 0.1597,-24.89625 -4.8346,-26.9747 -4.9943,-2.07844 -0.2235,34.32222 -5.2708,39.75104 -2.5237,2.71441 -2.4429,-7.74524 -2.3665,-19.17833 0.076,-11.43308 0.1465,-23.83959 -2.3501,-25.01891 -2.4965,-1.17932 -2.5641,11.20962 -2.6522,24.43343 -0.088,13.2238 -0.1987,27.28247 -2.7191,29.44262 -2.5204,2.16014 -2.406,-11.90003 -2.3048,-26.82265 0.1012,-14.92262 0.1868,-30.70771 -2.3095,-31.99741 -2.4963,-1.2897 -2.5787,14.48712 -2.6902,31.03709 -0.1115,16.54997 -0.2544,33.87308 -2.7726,35.67597 -2.5182,1.80289 -2.3712,-15.52126 -2.2475,-33.64116 0.1238,-18.11989 0.2217,-37.03554 -2.2744,-38.41564 -2.4962,-1.3801 -2.5494,9.20684 -2.6105,19.45037 -0.061,10.24354 -0.1292,20.14368 -2.6137,17.38999 -4.9691,-5.50737 0.232,-39.60355 -4.7603,-42.51628 -4.9922,-2.91272 -0.2139,37.69163 -5.2129,36.57256 -4.999,-1.11907 0.2207,-39.48752 -4.7717,-42.53201 -2.4962,-1.52225 -2.5424,8.84301 -2.6015,19.69897 -0.059,10.85595 -0.1321,22.20262 -2.6381,22.6432 -2.5059,0.44058 -2.4319,-10.90651 -2.3675,-22.75882 0.064,-11.85232 0.1183,-24.20985 -2.3781,-25.79015 -2.4964,-1.58031 -2.5473,10.70054 -2.6177,23.86332 -0.071,13.16279 -0.1624,27.20752 -2.6786,29.155 -2.5161,1.94748 -2.4205,-12.09758 -2.3391,-27.0376 0.081,-14.94002 0.146,-30.775 -2.3506,-32.40735 -2.4967,-1.63235 -2.5552,13.36841 -2.6331,28.19229 -0.078,14.82388 -0.1746,29.47089 -2.6625,27.13102 -4.9759,-4.67973 -2.4083,-15.4409 -2.4083,-15.4409 m 44.7376,46.50492 c 0,0 -0.097,11.83731 -0.097,11.83731 m -0.01,0.98762 c 0,0 2.4973,0.70072 -2.5357,3.7927 -5.0331,3.09198 0.1048,-12.48311 -4.9216,-10.02302 -5.0265,2.46009 -0.1114,13.10338 -5.1418,15.80004 -5.0303,2.69666 0.1178,-13.65258 -4.8885,-13.64462 -5.0064,0.008 -0.1418,16.33345 -5.1699,18.71152 -5.028,2.37807 0.1624,-18.55673 -4.8304,-20.1898 -4.9928,-1.63307 -0.1976,22.56232 -5.2236,24.67477 -5.0261,2.11245 0.2206,-24.90835 -4.7257,-32.50946 -4.9463,-7.60111 -0.3004,34.61781 -5.3246,36.50291 -2.5122,0.94255 -2.3541,-15.46276 -2.2152,-32.69022 0.1389,-17.22745 0.2561,-35.27706 -2.2321,-37.62309 -2.4883,-2.34603 -2.6003,15.70279 -2.7496,34.54892 -0.1493,18.84613 -0.3387,38.48956 -2.85,39.33275 -2.5114,0.84319 -2.3305,-17.69352 -2.1809,-36.24327 0.1496,-18.54975 0.2678,-37.11254 -2.2404,-36.32152 -2.5082,0.79103 -2.6277,19.35322 -2.7787,37.90636 -0.1509,18.55314 -0.3332,37.09723 -2.8438,37.85206 -2.5106,0.75484 -2.3261,-17.85853 -2.1719,-36.69856 0.1543,-18.84003 0.2776,-37.90671 -2.2245,-38.05851 -2.5022,-0.1518 -2.6438,21.48852 -2.804,40.76145 -0.1602,19.27294 -0.3285,36.17848 -2.74,26.55714 -2.4115,-9.62134 -2.262,-26.47692 -2.1493,-41.21825 0.1126,-14.74134 0.1921,-27.36843 -2.3037,-28.53279 -2.4957,-1.16436 -2.5843,12.91467 -2.6908,26.98144 -0.1065,14.06677 -0.2309,28.12126 -2.7233,26.90782 -2.4925,-1.21344 -2.9879,-16.14849 -2.8797,-30.78017 0.1082,-14.63168 0.8207,-28.96001 0.8207,-28.96001 m 80.463,-90.89284 c 0,0 2.5142,-6.23884 -2.4893,-8.03389 -5.0034,-1.79506 -0.021,11.82786 -5.0391,16.98956 -5.0183,5.16171 0.036,-18.79715 -4.9674,-21.07411 -5.0032,-2.27696 -0.051,26.12511 -5.0675,29.93823 -5.0167,3.81312 0.064,-32.22405 -4.9388,-34.89824 -5.0032,-2.67418 -0.078,38.66814 -5.0934,41.705 -2.5077,1.51844 -2.4728,-9.57799 -2.4484,-21.43032 0.024,-11.85232 0.037,-24.46055 -2.465,-25.96572 -2.5018,-1.50517 -2.5116,11.09757 -2.5381,24.39052 -0.026,13.29295 -0.071,27.27611 -2.5785,28.53178 -2.5072,1.25567 -2.4599,-12.72873 -2.4299,-27.43966 0.03,-14.71094 0.041,-30.14841 -2.4614,-31.79889 -2.5021,-1.65048 -3.1357,14.04899 -3.1674,30.16109 -0.032,16.11209 0.5374,32.63681 0.5374,32.63681 m 9.6573,70.18298 c 0,0 -0.075,10.84547 -0.075,10.84547 m -4.7513,-40.95807 c 0,0 2.65,-32.20427 -2.344,-35.56374 -4.9939,-3.35947 -0.1211,28.20247 -5.1097,24.5123 -2.4943,-1.84508 -2.3811,-26.20594 -2.3224,-49.51329 0.059,-23.30735 0.068,-45.56118 -2.4369,-43.1922 -2.5044,2.36898 -2.5198,24.71309 -2.5776,46.39903 -0.058,21.68594 -0.1556,42.71372 -2.6575,42.45004 -2.5019,-0.26369 -2.4048,-21.42807 -2.3488,-42.43163 0.056,-21.00356 0.072,-41.84629 -2.4318,-41.46667 -2.5035,0.37962 -2.5198,21.2092 -2.5762,42.12736 -0.056,20.91816 -0.1533,41.92491 -2.6598,42.65886 -2.5066,0.73396 -2.4079,-20.28857 -2.3494,-41.59144 0.059,-21.30287 0.076,-42.88607 -2.4271,-43.27343 -2.5028,-0.38736 -2.5201,22.17956 -2.5823,44.40438 -0.062,22.22482 -0.1678,44.10754 -2.6626,42.35178 -4.9896,-3.51152 -2.4428,-13.64668 -2.4428,-13.64668 m 35.1277,-156.34867 c 0,0 2.5069,1.02777 -2.4845,6.43103 -4.9915,5.40325 -0.021,-7.1538 -5.0336,-9.24732 -5.0129,-2.09352 0.041,14.50763 -4.9559,18.33084 -4.9974,3.8232 -0.057,-20.42957 -5.0724,-23.13787 -5.0154,-2.7083 0.075,26.90992 -4.9255,29.86526 -5.0003,2.95535 -0.09,-32.5779 -5.1081,-35.86283 -2.5091,-1.64246 -2.4726,8.05587 -2.4433,18.46213 0.029,10.40625 0.05,21.52044 -2.451,22.70968 -2.501,1.18924 -2.5198,-9.92584 -2.5528,-21.81697 -0.033,-11.89113 -0.082,-24.55831 -2.5926,-26.47327 -2.5107,-1.91496 -2.4588,10.74867 -2.4203,24.13525 0.039,13.38659 0.062,27.49612 -2.4396,28.47295 -2.5016,0.97683 -2.5227,-13.13342 -2.5653,-28.03152 -0.043,-14.8981 -0.1088,-30.58405 -2.6214,-32.75861 -5.0252,-4.34912 0.094,24.6611 -4.9269,20.40236 -5.0208,-4.25874 -0.098,-24.75369 -5.1276,-29.60165 -5.0295,-4.84796 0.108,25.79762 -4.9008,25.07886 -5.0089,-0.71876 -0.1286,-29.92835 -5.1628,-35.26015 -5.0342,-5.3318 0.1539,34.52385 -4.8478,35.77964 -2.5009,0.62789 -2.5382,-9.86983 -2.5892,-21.03065 -0.051,-11.16082 -0.117,-22.98474 -2.6317,-25.00926 -2.5147,-2.02453 -2.4461,9.69158 -2.3861,22.51246 0.06,12.82087 0.1091,26.74651 -2.386,29.14104 -2.4951,2.39454 -2.5397,-11.56007 -2.6087,-26.6486 -0.069,-15.08853 -0.1654,-31.31097 -2.6816,-33.4521 -2.5162,-2.14113 -2.288,34.67227 -2.1836,71.5678 0.1043,36.89554 0.084,73.8732 -2.418,72.06061 -2.5023,-1.8126 -2.4881,-38.79027 -2.5993,-75.85025 -0.1113,-37.05998 -0.3485,-74.20227 -2.8655,-76.34412 -2.517,-2.14185 -2.271,35.08934 -2.1517,72.7942 0.1193,37.70486 0.1084,75.88338 -2.3946,75.63621 -2.5031,-0.24717 -2.4975,-22.49844 -2.5345,-44.04325 -0.037,-21.54481 -0.1138,-42.38316 -2.6078,-39.8045 -2.494,2.57866 -2.4234,23.40282 -2.392,43.77031 0.031,20.36749 0.025,40.27831 -2.4785,41.03029 -2.5034,0.75197 -2.4959,-19.31466 -2.5254,-39.45718 -0.03,-20.14252 -0.096,-40.36092 -2.5981,-39.91247 -2.5016,0.44845 -2.4354,20.52145 -2.4063,41.17944 0.029,20.65799 0.019,41.90096 -2.4859,44.68935 -2.5049,2.78839 -2.4881,-18.48219 -2.5149,-40.53503 -0.027,-22.05284 -0.1008,-44.88794 -2.605,-45.22856 -2.5043,-0.34062 -2.3883,34.35233 -2.3851,69.93226 0,35.57994 -0.112,72.04687 -2.6259,75.25423 -2.5138,3.20737 -2.3848,-33.17768 -2.3804,-70.77733 0,-37.59965 -0.1246,-76.4139 -2.6334,-78.06494 -1.2545,-0.82551 -1.8184,14.76341 -2.091,38.60244 -0.2727,23.83903 -0.2663,55.92817 -0.3416,88.10309 -0.075,32.17493 -0.2322,64.43564 -0.6996,88.6178 -0.4674,24.18216 -1.2331,40.28579 -2.4835,40.14654 -1.2505,-0.13925 -1.888,-16.79592 -2.1999,-41.70258 -0.312,-24.90666 -0.3109,-58.06333 -0.2397,-91.20259 0.071,-33.13925 0.2126,-66.26111 0.319,-91.09815 0.1064,-24.83703 0.1904,-41.38926 0.1904,-41.38926 m 110.1833,158.25446 c 0,0 0.673,-14.09736 0.7023,-28.63955 0.029,-14.5422 -0.586,-29.52923 -3.0881,-31.30858 -2.5021,-1.77935 -2.509,11.83384 -2.5329,25.49422 -0.024,13.66038 -0.065,27.36795 -2.5635,25.77735 -2.4985,-1.5906 -3.0792,-17.46908 -3.0572,-32.9499 0.022,-15.48083 0.648,-30.56401 0.648,-30.56401 m 9.7318,110.22216 c 0,0 2.5295,-5.16695 -2.4502,-10.99068 -2.4898,-2.91186 -2.5895,19.71229 -2.742,43.06777 -0.1526,23.35549 -0.3613,47.44231 -2.8646,47.45579 -2.5032,0.0135 -2.3054,-22.74246 -2.1556,-45.33945 0.1498,-22.59699 0.2522,-45.03502 -2.2539,-44.38572 -2.5062,0.64931 -2.6098,23.05245 -2.7602,45.57293 -0.1505,22.52048 -0.3484,45.1583 -2.8614,46.27698 -2.5129,1.11868 -2.3118,-21.5748 -2.1561,-44.6035 0.1556,-23.0287 0.2643,-46.39264 -2.2378,-46.61487 -2.5021,-0.22223 -2.6062,22.63122 -2.7699,46.81517 -0.1636,24.18396 -0.3922,49.69841 -2.9426,54.79818 -2.5504,5.09977 -2.3071,-20.35528 -2.1148,-47.41792 0.1923,-27.06265 0.3251,-55.7329 -2.1721,-57.06353 -2.4971,-1.33063 -2.6404,31.10337 -2.8842,63.95928 -0.2438,32.85591 -0.5907,66.13373 -3.0976,66.49076 -2.5069,0.35703 -2.1584,-32.70666 -1.9039,-67.13615 0.2545,-34.42949 0.4069,-70.22478 -2.076,-75.33093 -2.483,-5.10615 -2.6143,30.689 -2.8761,67.83652 -0.2619,37.14753 -0.664,75.64743 -3.1704,75.9508 -2.5063,0.30336 -2.3265,-16.80238 -2.1772,-33.40351 0.1493,-16.60112 0.2698,-32.69762 -2.251,-30.37578 -2.5208,2.32184 -2.6454,18.41823 -2.7881,33.99708 -0.1427,15.57886 -0.3021,30.64017 -2.8079,30.89184 -2.5057,0.25168 -2.345,-14.93963 -2.2057,-30.09215 0.1394,-15.15252 0.2574,-30.26623 -2.2489,-29.85935 -2.5063,0.40688 -2.625,15.52051 -2.764,30.58281 -0.139,15.0623 -0.2982,30.07327 -2.8035,30.27485 -2.5052,0.20157 -2.3455,-14.82965 -2.2051,-30.01427 0.1403,-15.18462 0.2607,-30.52263 -2.2392,-30.93465 -2.4999,-0.41201 -2.6195,14.92593 -2.7622,30.40506 -0.1427,15.47912 -0.3087,31.09942 -2.8135,31.2521 -2.5047,0.15269 -2.331,-16.17508 -2.1841,-32.19796 0.147,-16.02287 0.2682,-31.74086 -2.2456,-30.36861 -2.5138,1.37226 -2.6374,17.0902 -2.7802,32.49124 -0.1428,15.40105 -0.3038,30.4852 -2.8081,30.58989 -5.0084,0.20937 0.3243,-32.4658 -4.7713,-23.1719 -5.0955,9.29389 -0.2371,23.38116 -5.2446,23.49573 -5.0075,0.11458 0.1658,-16.06889 -4.8563,-14.48377 -5.0222,1.58512 -2.6544,14.6085 -2.6544,14.6085 m 101.3661,-253.31815 c 0,0 2.5045,-1.71815 -2.4966,9.77135 -5.0012,11.4895 -0.01,-11.86595 -5.0195,-16.23293 -2.5057,-2.18349 -2.4773,19.60595 -2.4936,41.90168 -0.016,22.29573 -0.079,45.09774 -2.5821,44.9394 -2.5026,-0.15835 -2.4378,-23.2751 -2.4227,-47.03218 0.015,-23.75708 -0.022,-48.15449 -2.53,-50.87415 -2.5077,-2.71965 -2.4626,21.65626 -2.4741,46.92824 -0.012,25.27197 -0.084,51.44 -2.5894,52.30458 -2.5056,0.86457 -2.4323,-24.45634 -2.418,-50.01214 0.014,-25.55579 -0.032,-51.34647 -2.5348,-51.42143 -2.5033,-0.075 -2.4564,25.51958 -2.4718,51.94019 -0.015,26.42061 -0.097,53.6673 -2.6102,56.89664 -2.5134,3.22935 -2.4217,-23.97418 -2.3992,-52.23401 0.023,-28.25983 -0.03,-57.57595 -2.535,-58.5718 -2.505,-0.99584 -2.446,29.44551 -2.4726,60.13839 -0.027,30.69287 -0.1403,61.63727 -2.6434,61.64752 -2.5032,0.0102 -2.4554,-13.13674 -2.4249,-25.17169 0.031,-12.03495 0.047,-22.95787 -2.464,-18.49952 -5.0213,8.91669 -0.1248,45.75709 -5.1163,41.64678 -4.9914,-4.1103 0.097,-34.43779 -4.9128,-32.85589 -5.0096,1.58191 -0.067,25.27468 -5.0636,22.08458 -4.9964,-3.1901 0.054,-20.7787 -4.9511,-21.08081 -5.0056,-0.3021 -2.549,18.02804 -2.549,18.02804 m 60.1227,-110.66424 c 0,0 2.5308,15.76331 -2.4806,12.4071 -5.0114,-3.35622 -2.5172,-8.18397 -2.5172,-8.18397 m -6.1217,266.49248 c 0,0 2.4861,1.65254 -2.5288,2.47886 -5.0148,0.82631 -2.3839,-11.77668 -2.3839,-11.77668 m -18.9734,-194.56276 c 0,0 0.016,-16.76898 0.01,-33.53795 -0.01,-16.76897 -0.045,-33.53794 -0.045,-33.53794 m -0.3921,184.98283 c 0,0 0.7172,-14.40111 0.7896,-28.80309 0.072,-14.40197 -0.4998,-28.80479 -3.0029,-28.80822 -2.5031,-0.003 -2.5535,13.51717 -2.6189,26.75814 -0.065,13.24097 -0.145,26.20233 -2.6413,25.08046 -4.9926,-2.24374 0.2208,-43.0766 -4.8167,-36.03692 -5.0375,7.03968 -0.1771,33.97418 -5.1841,34.10259 -5.0071,0.12842 0.1507,-28.16223 -4.8618,-26.8552 -5.0125,1.30702 -0.1442,26.82459 -5.1649,29.19096 -5.0207,2.36638 0.1535,-28.10852 -4.8507,-28.54777 -5.0041,-0.43926 -2.6934,34.13011 -2.6934,34.13011 m 15.2158,-242.62017 c 0,0 0.5753,-10.7121 0.511,-21.93526 -0.064,-11.22315 -0.7694,-22.95736 -3.2866,-25.00157 -2.5172,-2.04421 -2.4422,8.70779 -2.3767,19.66481 0.066,10.95701 0.1211,22.11904 -2.3882,20.89488 -5.0185,-2.44831 -0.2399,-40.41174 -5.2169,-36.02587 -4.977,4.38586 0.1993,33.7957 -4.8067,33.82745 -5.0061,0.0318 -0.1703,-29.44159 -5.149,-25.05419 -4.9788,4.3874 0.1423,24.95303 -4.8528,27.17558 -4.9951,2.22254 -0.126,-22.78818 -5.1065,-18.39923 -4.9805,4.38895 -2.45,9.3861 -2.45,9.3861 m 25.2647,181.83825 c 0,0 2.5437,-16.18784 -2.4578,-18.521 -5.0015,-2.33316 -0.049,19.91262 -5.0607,21.63071 -5.0115,1.71808 -2.4375,-27.515 -2.4375,-27.515 m 4.2664,-222.40146 c 0,0 2.5136,1.24922 -2.4959,0.86305 -5.0095,-0.38618 -0.039,-4.74361 -5.1204,-13.16916 -5.0818,-8.42554 0.1109,12.78298 -4.8985,12.3968 -5.0095,-0.38618 -0.1824,-20.7565 -5.28,-30.10252 -5.0977,-9.34602 0.2705,29.71634 -4.7391,29.33016 -2.5047,-0.19309 -2.601,-11.57171 -2.7055,-22.60476 -0.1046,-11.03304 -0.2166,-21.7205 -2.7073,-20.53126 -4.9815,2.37848 0.4033,42.74984 -4.6062,42.36366 -5.0095,-0.38618 -0.3314,-35.85803 -5.2506,-26.8795 -4.9191,8.97853 -2.2637,26.30023 -2.2637,26.30023 m 40.2165,351.28218 c 0,0 2.4812,2.9471 -2.5641,7.8852 -2.5227,2.46905 -2.3848,-14.63383 -2.2689,-32.68488 0.1159,-18.05104 0.2066,-37.05026 -2.2904,-38.3739 -2.4969,-1.32364 -2.586,18.11488 -2.7138,38.06254 -0.1278,19.94767 -0.2962,40.40448 -2.8052,41.11743 -2.509,0.71296 -2.9557,-20.79797 -2.8181,-42.48714 0.1376,-21.68917 0.8587,-43.55657 0.8587,-43.55657 m 9.3491,99.95565 c 0,0 2.6807,-20.97149 -2.367,-15.91182 -5.0477,5.05968 -2.557,6.4636 -2.557,6.4636 m 0.1544,-352.30485 c 0,0 2.5543,6.41676 -2.3709,18.37673 -4.9253,11.95998 -0.1434,-19.86477 -5.1729,-22.84134 -2.5148,-1.48829 -3.06,8.71095 -2.9867,19.28226 0.073,10.57132 0.7645,21.5147 0.7645,21.5147 m 0.068,11.98602 c 0,0 2.551,8.80796 -2.4127,18.11608 -2.4818,4.65405 -2.5616,-13.81485 -2.684,-33.81941 -0.1225,-20.00455 -0.2938,-41.54475 -2.8089,-43.03327 -2.5152,-1.48853 -2.2031,36.9228 -2.0265,74.68909 0.1766,37.76628 0.2224,74.88751 -2.2866,70.81879 -2.509,-4.06872 -2.5708,-41.18995 -2.7527,-77.66619 -0.182,-36.47625 -0.4802,-72.30751 -2.9957,-73.79627 -2.5156,-1.48877 -2.2103,34.6982 -2.0244,71.05722 0.1859,36.35901 0.2513,72.89008 -2.2533,72.08952 -5.0091,-1.60113 -0.103,-38.49514 -5.089,-32.37022 -4.9861,6.12492 0.08,30.89011 -4.9252,31.4081 -5.0053,0.51799 -0.064,-26.12498 -5.0671,-24.98005 -5.0028,1.14494 0.062,25.28674 -4.9394,28.37829 -5.0009,3.09155 -0.064,-27.41755 -5.0718,-27.94497 -5.0078,-0.52743 0.074,33.11768 -4.9263,37.61543 -2.5003,2.24887 -2.511,-7.2197 -2.5325,-17.61101 -0.022,-10.39132 -0.056,-21.70538 -2.5633,-23.14749 -2.5076,-1.44211 -2.4735,9.2104 -2.4494,20.12409 0.024,10.9137 0.038,22.08858 -2.466,21.69123 -2.5036,-0.39735 -3.1447,-12.80121 -3.1738,-25.10573 -0.029,-12.30453 0.5541,-24.50971 0.5541,-24.50971 m 58.9578,310.10886 c 0,0 2.6415,-13.32227 -2.3617,-13.62664 -5.0032,-0.30438 -0.1415,13.63686 -5.147,13.56317 -5.0055,-0.0737 0.1419,-13.66941 -4.8412,-15.99438 -4.9831,-2.32497 -0.1643,15.92077 -5.1687,15.75251 -5.0045,-0.16827 -2.2834,-21.57483 -2.2834,-21.57483 m 16.0416,-225.53745 c 0,0 0.656,48.2173 0.4722,96.61425 -0.092,24.19848 -0.3863,48.44187 -0.9808,66.72547 -0.5946,18.2836 -1.4826,30.60741 -2.7371,30.96673 -2.5091,0.71863 -2.12,-46.25281 -1.9325,-92.98182 0.1875,-46.72901 0.1755,-93.2156 -2.3273,-91.52728 -2.5029,1.68833 -2.498,48.03455 -2.6916,94.63808 -0.1936,46.60352 -0.5878,93.46433 -3.1141,96.18183 -2.5264,2.7175 -2.3353,-19.36512 -2.1896,-41.21407 0.1457,-21.84894 0.2469,-43.46421 -2.2739,-39.81201 -2.5208,3.65221 -2.6821,35.49046 -2.9256,66.38267 -0.2435,30.89222 -0.5641,60.8384 -3.0658,60.70648 -2.5017,-0.13193 -2.1799,-30.373 -1.9428,-60.41251 0.2372,-30.0395 0.3908,-59.87743 -2.1158,-59.20307 -2.5066,0.67437 -2.6627,30.51236 -2.8978,60.13663 -0.2352,29.62426 -0.5483,59.03481 -3.0495,58.85429 -2.5012,-0.18052 -2.1882,-29.64952 -1.9546,-59.12561 0.2336,-29.4761 0.3878,-58.95929 -2.1143,-59.16819 -2.502,-0.2089 -2.6556,29.27437 -2.8887,58.75231 -0.233,29.47794 -0.5455,58.95055 -3.0461,58.72033 -5.0014,-0.46045 0.3005,-30.18795 -4.7893,-21.48534 -5.0899,8.70262 -0.2121,21.0253 -5.2124,20.46255 -5.0004,-0.56274 0.1373,-13.41066 -4.8842,-11.88756 -5.0215,1.52311 -2.6158,10.99097 -2.6158,10.99097 m 46.055,-325.12357 c 0,0 0.5068,-27.00796 0.3305,-53.01192 -0.1764,-26.00397 -1.0308,-51.00393 -3.498,-46.98792 -2.4673,4.016 -2.2607,27.84065 -2.1118,50.30701 0.149,22.46636 0.2456,43.57443 -2.2642,42.15726 -2.5098,-1.41716 -2.6117,-22.53029 -2.7434,-42.36802 -0.1317,-19.83773 -0.2884,-38.40007 -2.7612,-34.71566 -2.4728,3.68441 -2.3191,22.96448 -2.2065,40.65156 0.1127,17.68708 0.1892,33.78116 -2.3272,31.09359 -5.0328,-5.37514 -2.6058,-19.07414 -2.6058,-19.07414 m 20.2254,213.54582 c 0,0 0.7115,-21.74232 0.7539,-43.44569 0.043,-21.70337 -0.5839,-43.36778 -3.087,-43.21197 -2.5032,0.15582 -2.5033,20.37956 -2.5392,40.1549 -0.036,19.77534 -0.1059,39.10227 -2.6033,37.46446 -2.4973,-1.63781 -2.4309,-20.94295 -2.3986,-39.98592 0.032,-19.04297 0.032,-37.82377 -2.4715,-38.41291 -2.5031,-0.58913 -2.5015,18.26639 -2.5327,37.22646 -0.031,18.96008 -0.096,38.0247 -2.5982,37.85378 -2.5026,-0.17092 -2.4384,-19.07427 -2.4069,-38.55828 0.031,-19.48401 0.028,-39.54868 -2.4757,-42.04226 -2.5038,-2.49357 -2.4948,17.54995 -2.525,38.42647 -0.03,20.87652 -0.1032,42.58604 -2.6092,43.42445 -2.506,0.83842 -2.4196,-23.9334 -2.3897,-49.01075 0.03,-25.07734 0,-50.46021 -2.5015,-50.84389 -2.5035,-0.38367 -2.4736,25.23698 -2.5053,51.31331 -0.032,26.07633 -0.1272,52.60834 -2.6356,54.04737 -2.5084,1.43903 -2.4081,-25.21542 -2.373,-52.2031 0.035,-26.98768 0,-54.30861 -2.4998,-54.20255 -2.503,0.10606 -2.4722,26.72204 -2.5049,52.96629 -0.033,26.24424 -0.1268,52.11674 -2.625,50.73582 -2.4982,-1.38092 -2.4141,-25.66531 -2.3832,-49.18045 0.031,-23.51515 0.012,-46.26105 -2.4899,-44.565 -2.5019,1.69605 -2.4881,24.44195 -2.5189,46.41856 -0.031,21.97661 -0.103,43.18393 -2.6015,41.80282 -2.4986,-1.38111 -2.4298,-22.67698 -2.4023,-43.58768 0.028,-20.91071 0.015,-41.43627 -2.4877,-41.27676 -2.503,0.1595 -2.4947,15.68035 -2.507,30.52866 -0.012,14.84831 -0.043,29.02407 -2.5411,26.4934 -2.4979,-2.53068 -2.4712,-16.68497 -2.4623,-30.35286 0.01,-13.66789 0,-26.84939 -2.5025,-27.43449 -2.5035,-0.5851 -2.4951,12.74534 -2.5029,26.09913 -0.01,13.35379 -0.032,26.73093 -2.5344,26.23925 -2.5022,-0.49169 -2.4786,-13.70794 -2.4712,-27.42275 0.01,-13.7148 -0,-27.92814 -2.508,-30.414 -2.5053,-2.48586 -2.4911,11.73889 -2.4966,26.71032 -0.01,14.97143 -0.033,30.68954 -2.5368,31.1904 -2.504,0.50085 -2.473,-16.78325 -2.4687,-33.6699 0,-16.88666 -0.017,-33.37587 -2.5176,-31.28523 -2.5007,2.09065 -2.483,18.49524 -2.4899,34.89668 -0.01,16.40144 -0.038,32.79974 -2.5454,34.87778 -2.5073,2.07805 -2.4729,-14.32015 -2.4629,-30.72793 0.01,-16.40777 -0,-32.82511 -2.5061,-30.78536 -2.5015,2.03976 -3.1148,20.39532 -3.1318,38.24095 -0.017,17.84562 0.5642,35.1813 0.5642,35.1813 m 84.6361,-209.85529 c 0,0 2.3648,-18.67607 -2.5897,-11.85227 -4.9546,6.8238 -2.4472,7.55232 -2.4472,7.55232 m 5.3233,52.56216 c 0,0 2.5294,4.69541 -2.5472,-8.75164 -5.0766,-13.44706 0.043,8.56611 -4.9538,10.50447 -4.9971,1.93836 -0.089,-17.37105 -5.0922,-16.73485 -5.0027,0.6362 0.092,17.66189 -4.8826,24.99816 -4.9742,7.33628 -0.1202,-24.37718 -5.1312,-25.23857 -2.5055,-0.43069 -2.3877,20.97029 -2.3133,41.45837 0.074,20.48808 0.1092,40.06326 -2.402,35.98094 -2.5113,-4.08231 -2.5548,-23.66663 -2.6293,-42.59856 -0.074,-18.93192 -0.1779,-37.21146 -2.6895,-38.68421 -2.5115,-1.47275 -2.4039,17.16575 -2.3276,35.97257 0.076,18.80682 0.1207,37.78196 -2.3843,36.98248 -2.505,-0.79948 -2.5488,-18.71856 -2.6171,-35.79667 -0.068,-17.07811 -0.1586,-33.31525 -2.6479,-30.75085 -2.4892,2.56441 -2.4037,18.83184 -2.3436,34.52305 0.06,15.6912 0.096,30.80618 -2.4062,31.06568 -2.5025,0.2595 -2.5391,-14.85599 -2.5939,-29.44037 -0.055,-14.58439 -0.1262,-28.63768 -2.6175,-26.25377 -2.4913,2.38391 -2.4237,16.38511 -2.3743,30.1755 0.049,13.7904 0.081,27.36999 -2.4188,28.9107 -2.4997,1.5407 -2.5295,-12.03931 -2.5754,-25.45179 -0.046,-13.41248 -0.1073,-26.65743 -2.6004,-24.44658 -2.4931,2.21084 -2.4304,16.42618 -2.387,30.19237 0.043,13.76618 0.069,27.08321 -2.4336,27.49743 -2.5023,0.41422 -2.5276,-12.90316 -2.5674,-25.81311 -0.04,-12.90994 -0.093,-25.41245 -2.5875,-23.36847 -2.4947,2.04397 -2.4461,14.16748 -2.4124,25.44399 0.034,11.27651 0.054,21.70602 -2.4518,20.36197 -5.0118,-2.6881 -0.1252,-41.71923 -5.1172,-37.95452 -4.992,3.76472 0.1055,35.29773 -4.9084,31.97266 -5.014,-3.32507 -0.084,-28.209 -5.0779,-24.75846 -4.9943,3.45054 0.064,21.50603 -4.9537,17.15202 -5.0179,-4.35401 -0.041,-13.7024 -5.037,-10.55814 -4.9963,3.14426 -2.4933,3.18483 -2.4933,3.18483 m 94.3589,259.78047 c 0,0 0.8038,-20.06398 0.9462,-40.35142 0.1424,-20.28744 -0.3775,-40.79835 -2.8761,-41.69221 -2.4985,-0.89386 -2.5938,17.85728 -2.7193,36.37636 -0.1254,18.51908 -0.2802,36.8061 -2.7681,34.98402 -4.9757,-3.64416 0.2673,-35.2236 -4.7774,-29.74149 -5.0447,5.4821 -0.2043,26.80039 -5.2006,25.58121 -4.9963,-1.21918 0.1604,-20.8067 -4.8528,-19.85183 -5.0132,0.95487 -2.5302,3.67773 -2.5302,3.67773 m 15.458,-77.4077 c 0,0 2.5071,-0.96393 -2.4888,-3.73648 -2.498,-1.38628 -2.5361,8.98535 -2.5845,19.46258 -0.049,10.47723 -0.1075,21.06006 -2.6053,20.09618 -4.9956,-1.92776 0.1939,-42.33132 -4.8027,-45.10426 -2.4983,-1.38647 -2.535,9.37129 -2.584,20.46681 -0.049,11.09552 -0.1111,22.52879 -2.614,22.49335 -2.503,-0.0354 -2.4394,-11.70469 -2.3879,-23.47577 0.052,-11.77109 0.091,-23.644 -2.4111,-24.08676 -2.5017,-0.44277 -2.54,11.39774 -2.5931,23.60542 -0.053,12.20768 -0.1218,24.78253 -2.6306,25.80846 -2.5088,1.02592 -2.4446,-10.48291 -2.3927,-21.96045 0.052,-11.47754 0.092,-22.92379 -2.4154,-21.77268 -2.5072,1.1511 -2.5467,12.26872 -2.6016,24.13105 -0.055,11.86234 -0.1267,24.46939 -2.6544,28.59939 -2.5276,4.12999 -2.4497,-8.55401 -2.3821,-22.27547 0.068,-13.72145 0.1217,-28.48034 -2.3814,-28.50013 -2.503,-0.0198 -2.6337,36.02496 -2.8818,71.93104 -0.248,35.90609 -0.6125,71.67352 -3.1098,71.0991 -2.4973,-0.57441 -2.1352,-36.30295 -1.8895,-72.10425 0.2457,-35.8013 0.3744,-71.67537 -2.1256,-72.54083 -2.5001,-0.86546 -2.6258,35.00894 -2.8697,70.9385 -0.2439,35.92956 -0.6064,71.91427 -3.1031,71.26941 -2.4966,-0.64486 -2.1393,-36.15919 -1.894,-72.61957 0.2452,-36.46038 0.3726,-73.8668 -2.1166,-78.29585 -2.4891,-4.42904 -2.5982,32.97781 -2.8438,71.31156 -0.2457,38.33375 -0.6348,77.5944 -3.1308,76.87297 -1.248,-0.36071 -1.7235,-14.94696 -1.858,-36.56133 -0.1346,-21.61437 0.062,-50.25686 0.195,-78.73008 0.1324,-28.47321 0.2004,-56.77714 -0.089,-77.71438 -0.2899,-20.93725 -0.9279,-34.5078 -2.1791,-33.51426 -1.2511,0.99354 -1.8658,15.55776 -2.2053,36.82006 -0.3395,21.2623 -0.4122,49.22267 -0.5447,77.0085 -0.1326,27.78583 -0.3248,55.39712 -0.8072,75.96125 -0.4824,20.56414 -1.2461,34.08112 -2.4937,33.67832 -1.2477,-0.40279 -1.7323,-14.32251 -1.8766,-34.91516 -0.1443,-20.59264 0.043,-47.85821 0.1723,-74.95268 0.129,-27.09447 0.1995,-54.01784 -0.086,-73.92611 -0.2854,-19.90826 -0.9179,-32.80141 -2.1694,-31.83544 -2.503,1.93193 -2.5061,48.85184 -2.7008,94.63414 -0.1946,45.78229 -0.5712,90.42698 -3.0527,87.80846 -2.4814,-2.61852 -2.1202,-47.26298 -1.9411,-90.7844 0.1791,-43.52143 0.185,-85.91981 -2.3186,-84.04619 -2.5037,1.87363 -2.5103,18.5573 -2.5398,34.48154 -0.029,15.92423 -0.08,31.08905 -2.579,29.92496 -2.4993,-1.16409 -2.4519,-16.32862 -2.4257,-30.7493 0.026,-14.42068 0.033,-28.0975 -2.4713,-26.28616 -2.5042,1.81135 -2.5143,15.49208 -2.5389,28.37727 -0.025,12.88519 -0.062,24.97484 -2.5609,23.60403 -2.499,-1.37081 -2.4641,-13.46012 -2.4431,-24.77069 0.021,-11.31057 0.03,-21.8424 -2.4751,-20.09824 -5.0095,3.48832 -0.08,42.15645 -5.0771,38.8281 -4.9972,-3.32835 0.068,-35.33811 -4.9429,-31.99621 -5.0104,3.34191 -0.054,28.73492 -5.0504,24.45678 -4.9962,-4.27813 0.04,-21.11281 -4.9712,-17.93217 -5.0112,3.18063 -2.5224,10.73887 -2.5224,10.73887 m 134.9072,71.32754 c 0,0 0.056,-11.15767 0.056,-11.15767 m -0.1272,23.85275 c 0,0 0.063,-11.27171 0.063,-11.27171 M 1514.059,630.2905 c 0,0 2.586,-8.08825 -2.4169,-8.42106 -5.0029,-0.33281 -0.093,9.06663 -5.0911,8.28745 -4.9981,-0.77918 0.086,-8.41594 -4.8963,-10.80217 -4.9826,-2.38623 -0.1018,10.02376 -5.0988,9.12857 -4.997,-0.89518 -2.3519,-15.12807 -2.3519,-15.12807 m 15.4093,-45.32333 c 0,0 2.401,12.97108 -2.6174,14.45014 -5.0184,1.47906 0.1579,-20.30382 -4.8436,-20.94737 -5.0016,-0.64356 -0.1693,21.83361 -5.2232,27.41603 -5.0539,5.58241 0.2196,-27.75847 -4.7641,-30.91857 -2.4919,-1.58005 -2.6143,15.80918 -2.7671,33.46618 -0.1528,17.657 -0.3369,35.58178 -2.8348,35.07282 -2.4979,-0.50895 -2.9256,-19.87677 -2.7626,-39.11735 0.1629,-19.24058 0.9169,-38.35392 0.9169,-38.35392 m -45.5415,60.00459 c 0,0 -0.044,4.57333 -0.044,4.57333 M 1430.019,475.5502 c 0,0 2.3467,37.3682 -2.6314,31.48232 -4.978,-5.88587 0.1228,-29.79815 -4.8954,-26.45533 -5.0182,3.34283 -0.087,21.34119 -5.0877,20.13268 -5.0008,-1.2085 0.069,-16.78977 -4.9497,-13.47282 -5.0191,3.31696 -0.051,12.32733 -5.0613,13.13319 -5.0098,0.80587 0.042,-9.81609 -4.9779,-6.52588 -5.02,3.29021 -0.048,10.78485 -5.0368,7.02583 -4.9893,-3.75901 -2.4937,-2.10436 -2.4937,-2.10436 m 34.8771,32.32719 c 0,0 0.556,11.82339 0.4746,23.51579 -0.082,11.69239 -0.8002,23.25381 -3.2991,22.72987 -4.9979,-1.04788 0.2948,-41.78944 -4.7278,-39.15964 -5.0226,2.62981 -0.2704,38.14791 -5.2842,39.08953 -5.0137,0.94161 0.2635,-36.77485 -4.7432,-36.71045 -5.0067,0.0644 -0.2675,37.32196 -5.3071,41.37367 -2.5197,2.02586 -2.434,-8.26698 -2.3533,-19.25765 0.081,-10.99067 0.1546,-22.67917 -2.3437,-23.44461 -2.4984,-0.76544 -2.5827,12.78753 -2.6852,26.501 -0.1026,13.71347 -0.2237,27.58744 -2.7257,27.464 -2.5021,-0.12344 -2.383,-13.71049 -2.2757,-28.12104 0.1073,-14.41056 0.2009,-29.64461 -2.2819,-33.06205 -2.4829,-3.41744 -2.569,11.49012 -2.6789,26.83762 -0.1099,15.34749 -0.245,31.13493 -2.734,29.47725 -2.4891,-1.65768 -2.3114,-22.82442 -2.1784,-43.17274 0.133,-20.34833 0.2243,-39.87823 -2.2865,-38.26224 -2.5109,1.616 -2.6067,21.15119 -2.7299,39.79739 -0.1231,18.64621 -0.2706,36.40342 -2.7579,34.46348 -2.4872,-1.93994 -2.3443,-19.69706 -2.2345,-36.5693 0.1098,-16.87224 0.1893,-32.85961 -2.322,-31.26007 -2.5112,1.59955 -2.5944,17.59649 -2.6931,32.60917 -0.099,15.01268 -0.21,29.04111 -2.6949,26.70363 -2.4849,-2.33748 -2.3778,-16.36576 -2.2937,-29.41438 0.084,-13.04863 0.1476,-25.11759 -2.364,-23.53643 -2.5116,1.58116 -2.5781,13.67108 -2.6493,24.62399 -0.071,10.95291 -0.1446,20.76881 -2.626,17.80193 -4.9629,-5.93375 0.252,-39.2628 -4.7719,-36.14268 -5.0239,3.12013 -0.192,30.47875 -5.1419,22.01865 -4.9499,-8.46011 -2.3943,-17.36229 -2.3943,-17.36229 m 50.191,-24.16248 c 0,0 2.5366,-7.26138 -2.4781,-5.37643 -5.0148,1.88496 -2.5664,13.116 -2.5664,13.116"
       style="fill:none;stroke:#4e9a06;stroke-width:3.75;stroke-linecap:butt;stroke-linejoin:bevel;stroke-opacity:1;stroke-dasharray:none"
       inkscape:path-effect="#path-effect21772"
       inkscape:original-d="m 1594.906,293.39296 c 3.2778,-2.00726 7.2791,-3.28011 11.9298,-3.43514 28.6735,-0.92499 28.667,40.71875 1.8437,40.71875 -28.322,0.76539 -30.0339,-26.99009 -14.0546,-37.10854 l -7.2891,-15.26646 16.5625,-40.21875 -37.4375,-22.15625 43.375,3.34375 0.125,-0.5 c -16.0625,-25.07562 -26.3958,-45.50268 -27.75,-50.46875 -2.6383,7.91518 -18.1233,39.07558 -44.7813,74.5 15.0821,6.27571 15.7342,28.5239 2.6185,36.31348 l 7.0691,17.31152 c 27.343,0.37806 26.9354,40.71875 0.5312,40.71875 -34.223,0.92486 -29.6234,-39.76251 -1.875,-40.6875 l -6.4028,-16.95999 c -2.7436,1.47303 -6.0487,2.33499 -9.9097,2.33499 -8.951,0.2419 -15.2389,-2.34741 -19.1563,-6.34375 -19.9799,21.79817 -43.8108,43.07381 -71.1562,59.71875 9.2126,11.01076 23.0269,20.19476 39.75,27.5 3.0728,-7.24051 10.2508,-13.18438 20.6562,-13.53125 16.8056,-0.54212 23.7592,13.5271 21.2364,25.26696 l 17.3537,2.75424 c 2.3807,-8.32414 9.9279,-15.63532 21.5037,-16.0212 28.6736,-0.92499 28.6983,40.71875 1.875,40.71875 -19.3554,0.52307 -26.2927,-12.27415 -23.6476,-23.65929 l -17.3595,-2.66039 c -2.1132,7.79761 -8.5241,14.28843 -19.1179,14.28843 -15.8093,0.42724 -23.314,-8.03067 -24.0938,-17.34375 -29.6431,25.06073 -62.0169,49.76803 -92.125,68.09375 9.2722,13.36637 25.5741,24.69791 46.4688,33.84375 -12.4062,8.32307 -24.8071,16.52329 -36.8685,24.37655 l 3.3212,4.97918 c 3.4042,-2.2669 7.6485,-3.72055 12.6411,-3.88698 28.6734,-0.92499 28.667,40.6875 1.8437,40.6875 -27.6907,0.74833 -29.9444,-25.74629 -15.0969,-36.37777 l -3.2287,-5.06364 c -19.4427,12.65347 -37.9893,24.39553 -54.2369,34.28516 9.4551,25.59889 30.4918,46.30633 58.7812,62.25 1.2796,-9.4827 9.1758,-18.56833 22.125,-19 22.6154,-0.72955 27.3693,24.99748 15.2188,35.90625 23.6774,8.58093 50.1289,14.78556 77.8246,18.64516 l 0.8204,-9.22862 c -33.6992,0.53293 -29.013,-39.77715 -1.395,-40.69779 l -5.5312,-19.4375 c -34.2234,0.92486 -29.5922,-39.76251 -1.8438,-40.6875 0.448,-0.0145 0.8785,-0.0372 1.3125,-0.0312 4.9863,0.0689 9.0498,1.46679 12.201,3.70659 l 10.1706,-12.78368 c -8.4914,-6.28574 -9.1284,-17.86526 -3.5541,-26.24272 l -25.1681,-13.96745 c -3.0985,5.51558 -8.8438,9.53721 -17.1807,9.53721 -34.2228,0.92486 -29.5921,-39.76251 -1.8437,-40.6875 0.448,-0.0145 0.8785,-0.0372 1.3125,-0.0312 l 0,-5e-5 c 18.3234,0.25334 24.1848,18.45178 18.1125,30.43118 l 25.2836,13.97589 c 3.7503,-5.16023 9.9537,-8.94471 18.1977,-9.21952 0.4474,-0.0149 0.8787,-0.0372 1.3124,-0.0312 27.3445,0.37806 26.9354,40.71875 0.5313,40.71875 -7.0322,0.19004 -12.4239,-1.37691 -16.3116,-3.99484 l -10.1336,12.84076 c 13.083,10.30852 8.918,35.82393 -11.6178,36.45467 l 6.0943,19.41816 c 27.3436,0.37806 26.9354,40.71875 0.5312,40.71875 l -0.823,9.30518 c 22.9124,3.1691 46.6696,4.735 70.4067,4.7154 l -0.1694,-13.47935 c -33.7201,0.54836 -29.0061,-39.80791 -1.3831,-40.72873 5.5735,-0.1798 10.0634,1.24873 13.4834,3.66713 l 15.9135,-15.57526 c -15.0185,-10.12735 -7.5635,-35.95097 14.4781,-36.68572 0.4484,-0.0145 0.8785,-0.0372 1.3126,-0.0312 l 0,-5e-5 c 27.3426,0.37806 26.9258,40.00545 0.5312,40.71875 -6.7073,0.18126 -11.9221,-1.23584 -15.763,-3.63872 l -15.7291,15.76639 c 13.2754,10.428 8.8398,36.49743 -12.3829,36.49743 l 0.2899,13.48853 c 29.1998,-0.0559 58.3586,-2.51102 85.8663,-7.33228 -14.2146,-10.40533 -6.6799,-35.55647 15.0626,-36.28125 18.4076,-0.59385 24.9876,16.32425 20.25,28.53125 28.2538,-7.57524 53.6602,-17.98222 74.0888,-31.17278 l -5.2985,-9.51665 c -3.1331,2.37807 -7.2236,3.84568 -12.2591,3.84568 -24.7348,0.66845 -29.1734,-20.41674 -19.2568,-32.50878 l -14.1533,-13.3444 c -3.2845,3.12539 -7.8836,5.13443 -13.7774,5.13443 -26.1856,0.70765 -29.6242,-22.94652 -17.3651,-34.51045 l -8.3159,-9.81915 c -3.2349,2.80637 -7.6279,4.5795 -13.1627,4.5795 -17.4125,0.47054 -24.7669,-9.83824 -24.1363,-20.20155 l -16.3872,-0.0224 c 1.8525,11.21424 -4.7882,23.9114 -19.6015,23.9114 -34.2241,0.92486 -29.5922,-39.76251 -1.8438,-40.6875 l 1.5263,-18.59881 c -23.4194,-6.22606 -17.0921,-38.85521 7.7237,-39.68244 28.6735,-0.92499 28.6669,40.6875 1.8438,40.6875 -3.2244,0.0871 -6.1039,-0.19509 -8.6517,-0.77863 l -1.0983,18.34113 c 11.7361,0.16227 18.354,7.687 19.9972,16.224 l 16.5437,-0.0677 c 0.9208,-9.77902 8.9153,-19.39966 22.2403,-19.84385 22.4602,-0.72455 27.323,24.66987 15.4843,35.70941 l 8.2622,9.85934 c 3.7287,-3.33538 8.8218,-5.57831 15.0973,-5.7875 21.9083,-0.70676 27.0735,23.42032 16.3261,34.84401 l 14.1166,13.27647 c 3.8131,-4.22801 9.4885,-7.19109 16.7447,-7.43298 23.088,-0.74476 27.5813,26.10698 14.4548,36.59889 l 5.3698,9.51675 c 23.2204,-15.08785 39.9468,-33.79604 47.0192,-56.05314 -25.78,-7.42848 -62.822,-29.00633 -100.3125,-54.5625 23.9058,-10.10583 42.1861,-23.64356 51.375,-40.8125 -16.0499,-4.62475 -34.2197,-14.63986 -52.875,-27.59375 -3.169,5.21857 -8.7976,8.96875 -16.8437,8.96875 -26.5199,0.71664 -29.6919,-23.54099 -16.875,-34.9375 -5.1187,-4.2925 -10.2082,-8.68416 -15.2188,-13.15625 l -5.3431,-9.37509 c -2.0676,0.68407 -4.3808,1.06259 -6.9381,1.06259 -34.2249,0.92486 -29.6249,-39.79376 -1.875,-40.71875 25.7408,-0.8304 28.3931,32.64678 9.2596,39.50234 l 5.3021,9.39851 c 24.0225,-7.75455 43.6386,-19.26989 54.9695,-34.77585 -28.226,-8.1333 -56.272,-32.50714 -80.375,-60.3125 l 0.6875,1.59375 -33.125,-28.1875 -32.3726,28.52762 z" />
  </g>
  <g
     inkscape:groupmode="layer"
     id="layer10"
     inkscape:label="6orange"
     style="display:inline">
    <path
       transform="matrix(0.69880374,0,0,0.69744528,89.916964,-31.715894)"
       d="m 2081.4204,501.79132 c 0.9059,0.90587 -0.7742,1.66802 -1.5056,1.50562 -1.9822,-0.44011 -2.3008,-2.97902 -1.5056,-4.51685 1.4224,-2.75082 5.1162,-3.07307 7.5281,-1.50562 3.5395,2.30031 3.8682,7.28233 1.5056,10.53932 -3.149,4.34105 -9.4588,4.67311 -13.5506,1.50561 -5.1491,-3.98598 -5.483,-11.64011 -1.5056,-16.56178 4.8172,-5.96079 13.8242,-6.29591 19.573,-1.50561 6.7748,5.64521 7.1106,16.01005 1.5056,22.58424 -6.4712,7.59016 -18.197,7.92653 -25.5954,1.50561 -8.4066,-7.29586 -8.7433,-20.38482 -1.5056,-28.6067 8.1196,-9.22371 22.5732,-9.56071 31.6179,-1.50561 10.0414,8.94268 10.3786,24.76202 1.5056,34.62917 -9.7653,10.85943 -26.9512,11.19678 -37.6404,1.5056 -11.6778,-10.58747 -12.0153,-29.14061 -1.5056,-40.65163 11.4094,-12.49644 31.3303,-12.834 43.6629,-1.5056 13.3152,12.23105 13.6529,33.52009 1.5056,46.67409"
       sodipodi:t0="0"
       sodipodi:argument="-18.064157"
       sodipodi:radius="34.068199"
       sodipodi:revolution="4"
       sodipodi:expansion="1"
       sodipodi:cy="501.79132"
       sodipodi:cx="2081.4204"
       id="path22967-4"
       style="fill:none;stroke:#ce5c00;stroke-width:5.72963953;stroke-linecap:butt;stroke-linejoin:miter;stroke-miterlimit:4;stroke-opacity:1;stroke-dasharray:none;display:inline"
       sodipodi:type="spiral" />
    <path
       sodipodi:type="spiral"
       style="fill:none;stroke:#ce5c00;stroke-width:5.72963953;stroke-linecap:butt;stroke-linejoin:miter;stroke-miterlimit:4;stroke-opacity:1;stroke-dasharray:none;display:inline"
       id="path23375"
       sodipodi:cx="2081.4204"
       sodipodi:cy="501.79132"
       sodipodi:expansion="1"
       sodipodi:revolution="4"
       sodipodi:radius="34.068199"
       sodipodi:argument="-18.064157"
       sodipodi:t0="0"
       d="m 2081.4204,501.79132 c 0.9059,0.90587 -0.7742,1.66802 -1.5056,1.50562 -1.9822,-0.44011 -2.3008,-2.97902 -1.5056,-4.51685 1.4224,-2.75082 5.1162,-3.07307 7.5281,-1.50562 3.5395,2.30031 3.8682,7.28233 1.5056,10.53932 -3.149,4.34105 -9.4588,4.67311 -13.5506,1.50561 -5.1491,-3.98598 -5.483,-11.64011 -1.5056,-16.56178 4.8172,-5.96079 13.8242,-6.29591 19.573,-1.50561 6.7748,5.64521 7.1106,16.01005 1.5056,22.58424 -6.4712,7.59016 -18.197,7.92653 -25.5954,1.50561 -8.4066,-7.29586 -8.7433,-20.38482 -1.5056,-28.6067 8.1196,-9.22371 22.5732,-9.56071 31.6179,-1.50561 10.0414,8.94268 10.3786,24.76202 1.5056,34.62917 -9.7653,10.85943 -26.9512,11.19678 -37.6404,1.5056 -11.6778,-10.58747 -12.0153,-29.14061 -1.5056,-40.65163 11.4094,-12.49644 31.3303,-12.834 43.6629,-1.5056 13.3152,12.23105 13.6529,33.52009 1.5056,46.67409"
       transform="matrix(0.69880374,0,0,0.69744528,158.86901,139.2075)" />
    <path
       transform="matrix(0.69880374,0,0,0.69744528,127.79203,253.80387)"
       d="m 2081.4204,501.79132 c 0.9059,0.90587 -0.7742,1.66802 -1.5056,1.50562 -1.9822,-0.44011 -2.3008,-2.97902 -1.5056,-4.51685 1.4224,-2.75082 5.1162,-3.07307 7.5281,-1.50562 3.5395,2.30031 3.8682,7.28233 1.5056,10.53932 -3.149,4.34105 -9.4588,4.67311 -13.5506,1.50561 -5.1491,-3.98598 -5.483,-11.64011 -1.5056,-16.56178 4.8172,-5.96079 13.8242,-6.29591 19.573,-1.50561 6.7748,5.64521 7.1106,16.01005 1.5056,22.58424 -6.4712,7.59016 -18.197,7.92653 -25.5954,1.50561 -8.4066,-7.29586 -8.7433,-20.38482 -1.5056,-28.6067 8.1196,-9.22371 22.5732,-9.56071 31.6179,-1.50561 10.0414,8.94268 10.3786,24.76202 1.5056,34.62917 -9.7653,10.85943 -26.9512,11.19678 -37.6404,1.5056 -11.6778,-10.58747 -12.0153,-29.14061 -1.5056,-40.65163 11.4094,-12.49644 31.3303,-12.834 43.6629,-1.5056 13.3152,12.23105 13.6529,33.52009 1.5056,46.67409"
       sodipodi:t0="0"
       sodipodi:argument="-18.064157"
       sodipodi:radius="34.068199"
       sodipodi:revolution="4"
       sodipodi:expansion="1"
       sodipodi:cy="501.79132"
       sodipodi:cx="2081.4204"
       id="path23377"
       style="fill:none;stroke:#ce5c00;stroke-width:5.72963953;stroke-linecap:butt;stroke-linejoin:miter;stroke-miterlimit:4;stroke-opacity:1;stroke-dasharray:none;display:inline"
       sodipodi:type="spiral" />
  </g>
  <g
     style="display:inline"
     inkscape:label="5purple"
     id="layer12"
     inkscape:groupmode="layer">
    <path
       transform="matrix(0.69880374,0,0,0.69744528,43.301484,20.726512)"
       d="m 2081.4204,501.79132 c 0.9059,0.90587 -0.7742,1.66802 -1.5056,1.50562 -1.9822,-0.44011 -2.3008,-2.97902 -1.5056,-4.51685 1.4224,-2.75082 5.1162,-3.07307 7.5281,-1.50562 3.5395,2.30031 3.8682,7.28233 1.5056,10.53932 -3.149,4.34105 -9.4588,4.67311 -13.5506,1.50561 -5.1491,-3.98598 -5.483,-11.64011 -1.5056,-16.56178 4.8172,-5.96079 13.8242,-6.29591 19.573,-1.50561 6.7748,5.64521 7.1106,16.01005 1.5056,22.58424 -6.4712,7.59016 -18.197,7.92653 -25.5954,1.50561 -8.4066,-7.29586 -8.7433,-20.38482 -1.5056,-28.6067 8.1196,-9.22371 22.5732,-9.56071 31.6179,-1.50561 10.0414,8.94268 10.3786,24.76202 1.5056,34.62917 -9.7653,10.85943 -26.9512,11.19678 -37.6404,1.5056 -11.6778,-10.58747 -12.0153,-29.14061 -1.5056,-40.65163 11.4094,-12.49644 31.3303,-12.834 43.6629,-1.5056 13.3152,12.23105 13.6529,33.52009 1.5056,46.67409"
       sodipodi:t0="0"
       sodipodi:argument="-18.064157"
       sodipodi:radius="34.068199"
       sodipodi:revolution="4"
       sodipodi:expansion="1"
       sodipodi:cy="501.79132"
       sodipodi:cx="2081.4204"
       id="path22967-6-0"
       style="fill:none;stroke:#5c3566;stroke-width:5.72963953;stroke-linecap:butt;stroke-linejoin:miter;stroke-miterlimit:4;stroke-opacity:1;stroke-dasharray:none;display:inline"
       sodipodi:type="spiral" />
    <path
       sodipodi:type="spiral"
       style="fill:none;stroke:#5c3566;stroke-width:5.72963953;stroke-linecap:butt;stroke-linejoin:miter;stroke-miterlimit:4;stroke-opacity:1;stroke-dasharray:none;display:inline"
       id="path23423"
       sodipodi:cx="2081.4204"
       sodipodi:cy="501.79132"
       sodipodi:expansion="1"
       sodipodi:revolution="4"
       sodipodi:radius="34.068199"
       sodipodi:argument="-18.064157"
       sodipodi:t0="0"
       d="m 2081.4204,501.79132 c 0.9059,0.90587 -0.7742,1.66802 -1.5056,1.50562 -1.9822,-0.44011 -2.3008,-2.97902 -1.5056,-4.51685 1.4224,-2.75082 5.1162,-3.07307 7.5281,-1.50562 3.5395,2.30031 3.8682,7.28233 1.5056,10.53932 -3.149,4.34105 -9.4588,4.67311 -13.5506,1.50561 -5.1491,-3.98598 -5.483,-11.64011 -1.5056,-16.56178 4.8172,-5.96079 13.8242,-6.29591 19.573,-1.50561 6.7748,5.64521 7.1106,16.01005 1.5056,22.58424 -6.4712,7.59016 -18.197,7.92653 -25.5954,1.50561 -8.4066,-7.29586 -8.7433,-20.38482 -1.5056,-28.6067 8.1196,-9.22371 22.5732,-9.56071 31.6179,-1.50561 10.0414,8.94268 10.3786,24.76202 1.5056,34.62917 -9.7653,10.85943 -26.9512,11.19678 -37.6404,1.5056 -11.6778,-10.58747 -12.0153,-29.14061 -1.5056,-40.65163 11.4094,-12.49644 31.3303,-12.834 43.6629,-1.5056 13.3152,12.23105 13.6529,33.52009 1.5056,46.67409"
       transform="matrix(0.69880374,0,0,0.69744528,251.1288,49.861184)" />
    <path
       transform="matrix(0.69880374,0,0,0.69744528,171.49403,205.24609)"
       d="m 2081.4204,501.79132 c 0.9059,0.90587 -0.7742,1.66802 -1.5056,1.50562 -1.9822,-0.44011 -2.3008,-2.97902 -1.5056,-4.51685 1.4224,-2.75082 5.1162,-3.07307 7.5281,-1.50562 3.5395,2.30031 3.8682,7.28233 1.5056,10.53932 -3.149,4.34105 -9.4588,4.67311 -13.5506,1.50561 -5.1491,-3.98598 -5.483,-11.64011 -1.5056,-16.56178 4.8172,-5.96079 13.8242,-6.29591 19.573,-1.50561 6.7748,5.64521 7.1106,16.01005 1.5056,22.58424 -6.4712,7.59016 -18.197,7.92653 -25.5954,1.50561 -8.4066,-7.29586 -8.7433,-20.38482 -1.5056,-28.6067 8.1196,-9.22371 22.5732,-9.56071 31.6179,-1.50561 10.0414,8.94268 10.3786,24.76202 1.5056,34.62917 -9.7653,10.85943 -26.9512,11.19678 -37.6404,1.5056 -11.6778,-10.58747 -12.0153,-29.14061 -1.5056,-40.65163 11.4094,-12.49644 31.3303,-12.834 43.6629,-1.5056 13.3152,12.23105 13.6529,33.52009 1.5056,46.67409"
       sodipodi:t0="0"
       sodipodi:argument="-18.064157"
       sodipodi:radius="34.068199"
       sodipodi:revolution="4"
       sodipodi:expansion="1"
       sodipodi:cy="501.79132"
       sodipodi:cx="2081.4204"
       id="path23425"
       style="fill:none;stroke:#5c3566;stroke-width:5.72963953;stroke-linecap:butt;stroke-linejoin:miter;stroke-miterlimit:4;stroke-opacity:1;stroke-dasharray:none;display:inline"
       sodipodi:type="spiral" />
    <path
       sodipodi:type="spiral"
       style="fill:none;stroke:#5c3566;stroke-width:5.72963953;stroke-linecap:butt;stroke-linejoin:miter;stroke-miterlimit:4;stroke-opacity:1;stroke-dasharray:none;display:inline"
       id="path23427"
       sodipodi:cx="2081.4204"
       sodipodi:cy="501.79132"
       sodipodi:expansion="1"
       sodipodi:revolution="4"
       sodipodi:radius="34.068199"
       sodipodi:argument="-18.064157"
       sodipodi:t0="0"
       d="m 2081.4204,501.79132 c 0.9059,0.90587 -0.7742,1.66802 -1.5056,1.50562 -1.9822,-0.44011 -2.3008,-2.97902 -1.5056,-4.51685 1.4224,-2.75082 5.1162,-3.07307 7.5281,-1.50562 3.5395,2.30031 3.8682,7.28233 1.5056,10.53932 -3.149,4.34105 -9.4588,4.67311 -13.5506,1.50561 -5.1491,-3.98598 -5.483,-11.64011 -1.5056,-16.56178 4.8172,-5.96079 13.8242,-6.29591 19.573,-1.50561 6.7748,5.64521 7.1106,16.01005 1.5056,22.58424 -6.4712,7.59016 -18.197,7.92653 -25.5954,1.50561 -8.4066,-7.29586 -8.7433,-20.38482 -1.5056,-28.6067 8.1196,-9.22371 22.5732,-9.56071 31.6179,-1.50561 10.0414,8.94268 10.3786,24.76202 1.5056,34.62917 -9.7653,10.85943 -26.9512,11.19678 -37.6404,1.5056 -11.6778,-10.58747 -12.0153,-29.14061 -1.5056,-40.65163 11.4094,-12.49644 31.3303,-12.834 43.6629,-1.5056 13.3152,12.23105 13.6529,33.52009 1.5056,46.67409"
       transform="matrix(0.69880374,0,0,0.69744528,-35.362126,248.9481)" />
  </g>
  <g
     style="display:inline"
     inkscape:label="4blue"
     id="layer11"
     inkscape:groupmode="layer">
    <path
       transform="matrix(0.69880374,0,0,0.69744528,151.09977,-37.542825)"
       d="m 2081.4204,501.79132 c 0.9059,0.90587 -0.7742,1.66802 -1.5056,1.50562 -1.9822,-0.44011 -2.3008,-2.97902 -1.5056,-4.51685 1.4224,-2.75082 5.1162,-3.07307 7.5281,-1.50562 3.5395,2.30031 3.8682,7.28233 1.5056,10.53932 -3.149,4.34105 -9.4588,4.67311 -13.5506,1.50561 -5.1491,-3.98598 -5.483,-11.64011 -1.5056,-16.56178 4.8172,-5.96079 13.8242,-6.29591 19.573,-1.50561 6.7748,5.64521 7.1106,16.01005 1.5056,22.58424 -6.4712,7.59016 -18.197,7.92653 -25.5954,1.50561 -8.4066,-7.29586 -8.7433,-20.38482 -1.5056,-28.6067 8.1196,-9.22371 22.5732,-9.56071 31.6179,-1.50561 10.0414,8.94268 10.3786,24.76202 1.5056,34.62917 -9.7653,10.85943 -26.9512,11.19678 -37.6404,1.5056 -11.6778,-10.58747 -12.0153,-29.14061 -1.5056,-40.65163 11.4094,-12.49644 31.3303,-12.834 43.6629,-1.5056 13.3152,12.23105 13.6529,33.52009 1.5056,46.67409"
       sodipodi:t0="0"
       sodipodi:argument="-18.064157"
       sodipodi:radius="34.068199"
       sodipodi:revolution="4"
       sodipodi:expansion="1"
       sodipodi:cy="501.79132"
       sodipodi:cx="2081.4204"
       id="path22967-6"
       style="fill:none;stroke:#204a87;stroke-width:5.72963953;stroke-linecap:butt;stroke-linejoin:miter;stroke-miterlimit:4;stroke-opacity:1;stroke-dasharray:none;display:inline"
       sodipodi:type="spiral" />
    <path
       sodipodi:type="spiral"
       style="fill:none;stroke:#204a87;stroke-width:5.72963953;stroke-linecap:butt;stroke-linejoin:miter;stroke-miterlimit:4;stroke-opacity:1;stroke-dasharray:none;display:inline"
       id="path23394"
       sodipodi:cx="2081.4204"
       sodipodi:cy="501.79132"
       sodipodi:expansion="1"
       sodipodi:revolution="4"
       sodipodi:radius="34.068199"
       sodipodi:argument="-18.064157"
       sodipodi:t0="0"
       d="m 2081.4204,501.79132 c 0.9059,0.90587 -0.7742,1.66802 -1.5056,1.50562 -1.9822,-0.44011 -2.3008,-2.97902 -1.5056,-4.51685 1.4224,-2.75082 5.1162,-3.07307 7.5281,-1.50562 3.5395,2.30031 3.8682,7.28233 1.5056,10.53932 -3.149,4.34105 -9.4588,4.67311 -13.5506,1.50561 -5.1491,-3.98598 -5.483,-11.64011 -1.5056,-16.56178 4.8172,-5.96079 13.8242,-6.29591 19.573,-1.50561 6.7748,5.64521 7.1106,16.01005 1.5056,22.58424 -6.4712,7.59016 -18.197,7.92653 -25.5954,1.50561 -8.4066,-7.29586 -8.7433,-20.38482 -1.5056,-28.6067 8.1196,-9.22371 22.5732,-9.56071 31.6179,-1.50561 10.0414,8.94268 10.3786,24.76202 1.5056,34.62917 -9.7653,10.85943 -26.9512,11.19678 -37.6404,1.5056 -11.6778,-10.58747 -12.0153,-29.14061 -1.5056,-40.65163 11.4094,-12.49644 31.3303,-12.834 43.6629,-1.5056 13.3152,12.23105 13.6529,33.52009 1.5056,46.67409"
       transform="matrix(0.69880374,0,0,0.69744528,103.51314,33.35154)" />
    <path
       transform="matrix(0.69880374,0,0,0.69744528,219.08067,135.32288)"
       d="m 2081.4204,501.79132 c 0.9059,0.90587 -0.7742,1.66802 -1.5056,1.50562 -1.9822,-0.44011 -2.3008,-2.97902 -1.5056,-4.51685 1.4224,-2.75082 5.1162,-3.07307 7.5281,-1.50562 3.5395,2.30031 3.8682,7.28233 1.5056,10.53932 -3.149,4.34105 -9.4588,4.67311 -13.5506,1.50561 -5.1491,-3.98598 -5.483,-11.64011 -1.5056,-16.56178 4.8172,-5.96079 13.8242,-6.29591 19.573,-1.50561 6.7748,5.64521 7.1106,16.01005 1.5056,22.58424 -6.4712,7.59016 -18.197,7.92653 -25.5954,1.50561 -8.4066,-7.29586 -8.7433,-20.38482 -1.5056,-28.6067 8.1196,-9.22371 22.5732,-9.56071 31.6179,-1.50561 10.0414,8.94268 10.3786,24.76202 1.5056,34.62917 -9.7653,10.85943 -26.9512,11.19678 -37.6404,1.5056 -11.6778,-10.58747 -12.0153,-29.14061 -1.5056,-40.65163 11.4094,-12.49644 31.3303,-12.834 43.6629,-1.5056 13.3152,12.23105 13.6529,33.52009 1.5056,46.67409"
       sodipodi:t0="0"
       sodipodi:argument="-18.064157"
       sodipodi:radius="34.068199"
       sodipodi:revolution="4"
       sodipodi:expansion="1"
       sodipodi:cy="501.79132"
       sodipodi:cx="2081.4204"
       id="path23396"
       style="fill:none;stroke:#204a87;stroke-width:5.72963953;stroke-linecap:butt;stroke-linejoin:miter;stroke-miterlimit:4;stroke-opacity:1;stroke-dasharray:none;display:inline"
       sodipodi:type="spiral" />
    <path
       sodipodi:type="spiral"
       style="fill:none;stroke:#204a87;stroke-width:5.72963953;stroke-linecap:butt;stroke-linejoin:miter;stroke-miterlimit:4;stroke-opacity:1;stroke-dasharray:none;display:inline"
       id="path23398"
       sodipodi:cx="2081.4204"
       sodipodi:cy="501.79132"
       sodipodi:expansion="1"
       sodipodi:revolution="4"
       sodipodi:radius="34.068199"
       sodipodi:argument="-18.064157"
       sodipodi:t0="0"
       d="m 2081.4204,501.79132 c 0.9059,0.90587 -0.7742,1.66802 -1.5056,1.50562 -1.9822,-0.44011 -2.3008,-2.97902 -1.5056,-4.51685 1.4224,-2.75082 5.1162,-3.07307 7.5281,-1.50562 3.5395,2.30031 3.8682,7.28233 1.5056,10.53932 -3.149,4.34105 -9.4588,4.67311 -13.5506,1.50561 -5.1491,-3.98598 -5.483,-11.64011 -1.5056,-16.56178 4.8172,-5.96079 13.8242,-6.29591 19.573,-1.50561 6.7748,5.64521 7.1106,16.01005 1.5056,22.58424 -6.4712,7.59016 -18.197,7.92653 -25.5954,1.50561 -8.4066,-7.29586 -8.7433,-20.38482 -1.5056,-28.6067 8.1196,-9.22371 22.5732,-9.56071 31.6179,-1.50561 10.0414,8.94268 10.3786,24.76202 1.5056,34.62917 -9.7653,10.85943 -26.9512,11.19678 -37.6404,1.5056 -11.6778,-10.58747 -12.0153,-29.14061 -1.5056,-40.65163 11.4094,-12.49644 31.3303,-12.834 43.6629,-1.5056 13.3152,12.23105 13.6529,33.52009 1.5056,46.67409"
       transform="matrix(0.69880374,0,0,0.69744528,230.73454,264.48659)" />
    <path
       transform="matrix(0.69880374,0,0,0.69744528,88.945814,148.91906)"
       d="m 2081.4204,501.79132 c 0.9059,0.90587 -0.7742,1.66802 -1.5056,1.50562 -1.9822,-0.44011 -2.3008,-2.97902 -1.5056,-4.51685 1.4224,-2.75082 5.1162,-3.07307 7.5281,-1.50562 3.5395,2.30031 3.8682,7.28233 1.5056,10.53932 -3.149,4.34105 -9.4588,4.67311 -13.5506,1.50561 -5.1491,-3.98598 -5.483,-11.64011 -1.5056,-16.56178 4.8172,-5.96079 13.8242,-6.29591 19.573,-1.50561 6.7748,5.64521 7.1106,16.01005 1.5056,22.58424 -6.4712,7.59016 -18.197,7.92653 -25.5954,1.50561 -8.4066,-7.29586 -8.7433,-20.38482 -1.5056,-28.6067 8.1196,-9.22371 22.5732,-9.56071 31.6179,-1.50561 10.0414,8.94268 10.3786,24.76202 1.5056,34.62917 -9.7653,10.85943 -26.9512,11.19678 -37.6404,1.5056 -11.6778,-10.58747 -12.0153,-29.14061 -1.5056,-40.65163 11.4094,-12.49644 31.3303,-12.834 43.6629,-1.5056 13.3152,12.23105 13.6529,33.52009 1.5056,46.67409"
       sodipodi:t0="0"
       sodipodi:argument="-18.064157"
       sodipodi:radius="34.068199"
       sodipodi:revolution="4"
       sodipodi:expansion="1"
       sodipodi:cy="501.79132"
       sodipodi:cx="2081.4204"
       id="path23400"
       style="fill:none;stroke:#204a87;stroke-width:5.72963953;stroke-linecap:butt;stroke-linejoin:miter;stroke-miterlimit:4;stroke-opacity:1;stroke-dasharray:none;display:inline"
       sodipodi:type="spiral" />
    <path
       sodipodi:type="spiral"
       style="fill:none;stroke:#204a87;stroke-width:5.72963953;stroke-linecap:butt;stroke-linejoin:miter;stroke-miterlimit:4;stroke-opacity:1;stroke-dasharray:none;display:inline"
       id="path23402"
       sodipodi:cx="2081.4204"
       sodipodi:cy="501.79132"
       sodipodi:expansion="1"
       sodipodi:revolution="4"
       sodipodi:radius="34.068199"
       sodipodi:argument="-18.064157"
       sodipodi:t0="0"
       d="m 2081.4204,501.79132 c 0.9059,0.90587 -0.7742,1.66802 -1.5056,1.50562 -1.9822,-0.44011 -2.3008,-2.97902 -1.5056,-4.51685 1.4224,-2.75082 5.1162,-3.07307 7.5281,-1.50562 3.5395,2.30031 3.8682,7.28233 1.5056,10.53932 -3.149,4.34105 -9.4588,4.67311 -13.5506,1.50561 -5.1491,-3.98598 -5.483,-11.64011 -1.5056,-16.56178 4.8172,-5.96079 13.8242,-6.29591 19.573,-1.50561 6.7748,5.64521 7.1106,16.01005 1.5056,22.58424 -6.4712,7.59016 -18.197,7.92653 -25.5954,1.50561 -8.4066,-7.29586 -8.7433,-20.38482 -1.5056,-28.6067 8.1196,-9.22371 22.5732,-9.56071 31.6179,-1.50561 10.0414,8.94268 10.3786,24.76202 1.5056,34.62917 -9.7653,10.85943 -26.9512,11.19678 -37.6404,1.5056 -11.6778,-10.58747 -12.0153,-29.14061 -1.5056,-40.65163 11.4094,-12.49644 31.3303,-12.834 43.6629,-1.5056 13.3152,12.23105 13.6529,33.52009 1.5056,46.67409"
       transform="matrix(0.69880374,0,0,0.69744528,-45.073677,172.2268)" />
  </g>
  <g
     inkscape:label="3brown"
     id="layer6"
     inkscape:groupmode="layer"
     style="display:inline">
    <path
       style="fill:none;stroke:#623e35;stroke-width:3.75000262;stroke-linecap:butt;stroke-linejoin:bevel;stroke-opacity:1;stroke-dasharray:none;display:inline"
       sodipodi:nodetypes="cccc"
       id="path16474"
       d="m 1630.6,705.68672 c 0,0 0.3989,-4.56693 0.7684,-11.41578 0.3696,-6.84886 0.6806,-15.97963 0.6076,-25.10732 -0.073,-9.12768 -0.5303,-18.25227 -1.3762,-25.08876 -0.8458,-6.83649 -2.051,-11.38488 -3.5188,-11.36016 -1.4679,0.0247 -1.8986,4.82782 -1.9611,12.06145 -0.062,7.23363 0.2116,16.8978 0.2588,26.64469 0.047,9.74688 -0.1333,19.57647 -0.7514,27.14094 -0.618,7.56447 -1.6438,12.86382 -3.1489,13.55022 -1.505,0.68641 -1.9727,-3.92654 -2.0742,-11.23052 -0.1015,-7.30398 0.1239,-17.29899 0.1045,-27.37671 -0.02,-10.07772 -0.285,-20.23815 -0.965,-27.87297 -0.6799,-7.63482 -1.7375,-12.74403 -3.2053,-12.7193 -1.4678,0.0247 -1.8787,5.14722 -1.9324,12.83422 -0.054,7.687 0.2131,17.9385 0.2263,28.22121 0.013,10.28271 -0.2278,20.59664 -0.8958,28.4085 -0.668,7.81187 -1.7275,13.12167 -3.2125,13.39612 -1.485,0.27446 -1.9056,-4.76089 -1.9663,-12.46674 -0.061,-7.70585 0.1991,-18.08221 0.1981,-28.48979 -10e-4,-10.40758 -0.2632,-20.84637 -0.9457,-28.67709 -0.6824,-7.83072 -1.7465,-13.05336 -3.2143,-13.02864 -1.4678,0.0247 -1.872,5.26974 -1.9242,13.12656 -0.052,7.85682 0.2093,18.32546 0.2071,28.79743 -0,10.47197 -0.2682,20.94728 -0.9547,28.81745 -0.6865,7.87018 -1.7554,13.13521 -3.2278,13.18664 -1.4723,0.0514 -1.8748,-5.16218 -1.9219,-13.00998 -0.047,-7.84779 0.2224,-18.32978 0.2272,-28.8151 0,-10.48533 -0.255,-20.97399 -0.936,-28.83514 -0.681,-7.86115 -1.7445,-13.09478 -3.2124,-13.07006 -1.4678,0.0247 -1.8726,5.28315 -1.9269,13.14828 -0.054,7.86512 0.2035,18.33695 0.1982,28.78847 -0.01,10.45152 -0.2734,20.88273 -0.9571,28.66664 -0.6836,7.78391 -1.7438,12.92051 -3.205,12.78279 -1.4613,-0.13771 -1.8647,-5.41203 -1.9188,-13.24449 -0.054,-7.83245 0.2043,-18.22306 0.2039,-28.59336 -4e-4,-10.3703 -0.2593,-20.7203 -0.9358,-28.47153 -0.6766,-7.75124 -1.7334,-12.90373 -3.2012,-12.879 -1.4678,0.0247 -1.8795,5.20493 -1.9389,12.93818 -0.059,7.73325 0.1961,18.01954 0.1988,28.25642 0,10.23687 -0.2471,20.42435 -0.9074,27.95996 -0.6604,7.53562 -1.6928,12.41938 -3.1414,12.04884 -1.4486,-0.37054 -1.8713,-5.62485 -1.9537,-13.29632 -0.082,-7.67148 0.1421,-17.76014 0.1243,-27.79938 -0.018,-10.03925 -0.2774,-20.02909 -0.9457,-27.50293 -0.6684,-7.47385 -1.7109,-12.4317 -3.1788,-12.40697 -1.4678,0.0247 -1.8929,5.03042 -1.9613,12.46713 -0.068,7.43672 0.1852,17.30444 0.2079,27.0532 0.023,9.74877 -0.184,19.37858 -0.7918,26.33946 -0.6078,6.96089 -1.5788,11.25285 -3.0026,10.32592 -1.4239,-0.92693 -2.0757,-6.14273 -2.4062,-13.44503 -0.3306,-7.3023 -0.3657,-16.6911 -0.4228,-25.96404 -0.057,-9.27294 -0.135,-18.43001 -0.2354,-25.26885 -0.1004,-6.83884 -0.1949,-11.35944 -0.1949,-11.35944"
       inkscape:connector-curvature="0"
       inkscape:path-effect="#path-effect16476"
       inkscape:original-d="m 1557.8826,633.8803 -0.7763,70.23748 c 6.7883,16.31269 65.57,18.82435 75.2905,-1.25376 l 0,-70.23886" />
    <path
       inkscape:original-d="m 1593.3358,647.33282 c -67.6046,-0.31361 -135.3706,18.50913 -136.625,56.78125 0.028,1.6509 0.199,3.26773 0.5,4.84375 l 1.4063,21.5 c 58.9764,69.01617 250.9321,51.63584 268.5,0.1875 l 1.0937,-18.1875 c 0.5759,-2.28013 0.8555,-4.64604 0.8125,-7.09375 -0.6276,-38.27282 -68.0829,-57.71764 -135.6875,-58.03125 z"
       inkscape:path-effect="#path-effect16567"
       id="path749"
       d="m 1728.7647,709.63306 c 0,0 0.7023,-0.20876 0.6971,-2.22634 -0.01,-2.01758 -0.7107,-5.84399 -3.5916,-13.07928 -1.4404,-3.61765 -2.1331,-2.86273 -2.4503,0.40245 -0.3173,3.26517 -0.2705,9.0406 -0.2649,15.46398 0.01,6.42337 -0.033,13.49469 -0.4469,19.35165 -0.414,5.85695 -1.1981,10.49954 -2.629,12.06545 -2.8619,3.13182 -2.5578,-11.56711 -2.5353,-27.65916 0.011,-8.04603 -0.045,-16.44034 -0.48,-23.12823 -0.4348,-6.6879 -1.2395,-11.66937 -2.6669,-12.88972 -1.4275,-1.22035 -2.0424,2.51505 -2.2977,8.86173 -0.2553,6.34669 -0.1659,15.30466 -0.1641,24.52945 0,9.2248 -0.086,18.71642 -0.552,26.13041 -0.4664,7.41399 -1.2998,12.75034 -2.7242,13.6646 -1.4244,0.91426 -2.0085,-3.49724 -2.2341,-10.67973 -0.2256,-7.1825 -0.1098,-17.136 -0.1007,-27.30576 0.01,-10.16975 -0.09,-20.55576 -0.572,-28.60328 -0.4826,-8.04752 -1.3344,-13.75654 -2.7575,-14.57232 -1.4231,-0.81578 -1.9877,4.07251 -2.1974,11.90532 -0.2096,7.83281 -0.084,18.61015 -0.083,29.57247 0,10.96232 -0.1228,22.10961 -0.6313,30.68234 -0.5086,8.57273 -1.3844,14.5709 -2.8053,15.23495 -1.421,0.66405 -1.9602,-4.66678 -2.1449,-13.07469 -0.1848,-8.40791 -0.037,-19.8929 -0.029,-31.53715 0.01,-11.64426 -0.1258,-23.44778 -0.6481,-32.49277 -0.5223,-9.04498 -1.4138,-15.33142 -2.8338,-15.94151 -1.42,-0.61009 -1.9428,5.06437 -2.1142,13.95145 -0.1713,8.88707 -0.015,20.98676 -0.014,33.22713 0,12.24038 -0.1539,24.62144 -0.6983,34.07125 -0.5444,9.44981 -1.4563,15.96838 -2.8746,16.48376 -1.4182,0.51539 -1.9195,-5.4863 -2.0696,-14.80854 -0.1501,-9.32224 0.025,-21.96503 0.032,-34.73184 0.01,-12.7668 -0.1565,-25.65763 -0.7126,-35.47593 -0.5561,-9.81831 -1.4813,-16.56411 -2.8988,-17.04085 -1.4175,-0.47675 -1.9048,5.79135 -2.0434,15.48732 -0.1387,9.69597 0.044,22.81981 0.045,36.05452 9e-4,13.23471 -0.1806,26.58031 -0.7556,36.71979 -0.575,10.13949 -1.5177,17.07287 -2.9337,17.48315 -1.416,0.41029 -1.8848,-6.11199 -2.0053,-16.14989 -0.1205,-10.0379 0.079,-23.59142 0.084,-37.2436 0.01,-13.65218 -0.1826,-27.40303 -0.7674,-37.83559 -0.5849,-10.43256 -1.5389,-17.54683 -2.9541,-17.92586 -1.4151,-0.37903 -1.8722,6.35567 -1.9831,16.69144 -0.1109,10.33578 0.094,24.27263 0.094,38.29789 6e-4,14.02526 -0.2035,28.13893 -0.8045,38.82836 -0.601,10.68943 -1.5699,17.95461 -2.9838,18.28288 -1.4138,0.32826 -1.8552,-6.60815 -1.9505,-17.21629 -0.095,-10.60813 0.1234,-24.88799 0.1284,-39.24658 0,-14.3586 -0.2046,-28.79595 -0.8138,-39.71907 -0.6091,-10.92312 -1.5872,-18.33201 -3.0003,-18.63372 -1.4131,-0.3017 -1.8446,6.80517 -1.9322,17.65141 -0.088,10.84625 0.1357,25.43188 0.1361,40.08771 4e-4,14.65584 -0.2227,29.38187 -0.8455,40.50893 -0.6228,11.12705 -1.6134,18.65513 -3.0253,18.91505 -1.4119,0.25991 -1.8302,-7.00793 -1.9046,-18.07072 -0.074,-11.06279 0.1608,-25.92052 0.165,-40.84037 0,-14.91986 -0.223,-29.90183 -0.8522,-41.21312 -0.6292,-11.31128 -1.6272,-18.95187 -3.0384,-19.18895 -1.4111,-0.23708 -1.8215,7.16622 -1.8898,18.41703 -0.068,11.25082 0.1701,26.34915 0.1702,41.50213 10e-5,15.15299 -0.2386,30.36062 -0.8791,41.83005 -0.6405,11.46942 -1.6486,19.20063 -3.0586,19.40077 -1.41,0.20013 -1.8094,-7.33073 -1.8669,-18.75091 -0.057,-11.42017 0.1908,-26.72965 0.1943,-42.08674 0,-15.3571 -0.2382,-30.7618 -0.8835,-42.37243 -0.6454,-11.61062 -1.6591,-19.42716 -3.0684,-19.60793 -1.4093,-0.18076 -1.8027,7.45488 -1.8557,19.01914 -0.053,11.56425 0.1975,27.05713 0.1974,42.59083 -10e-5,15.5337 -0.2511,31.10822 -0.9055,42.83579 -0.6543,11.72756 -1.6759,19.60815 -3.084,19.75399 -1.4081,0.14585 -1.7928,-7.58877 -1.8373,-19.28085 -0.044,-11.69209 0.2137,-27.34164 0.2165,-43.02567 0,-15.68403 -0.2502,-31.40253 -0.9079,-43.23252 -0.6577,-11.83 -1.6832,-19.77147 -3.0907,-19.90145 -1.4075,-0.12998 -1.7879,7.68145 -1.8293,19.47763 -0.042,11.79618 0.2178,27.57712 0.2176,43.38617 -2e-4,15.80906 -0.2602,31.64623 -0.9246,43.55489 -0.6643,11.90865 -1.6953,19.88878 -3.1015,19.98375 -1.4062,0.095 -1.7802,-7.7901 -1.8156,-19.67631 -0.035,-11.8862 0.2295,-27.77354 0.2314,-43.6831 0,-15.90955 -0.2592,-31.84133 -0.9255,-43.81642 -0.6663,-11.97508 -1.6998,-19.99347 -3.1056,-20.07626 -1.4057,-0.0828 -1.777,7.85277 -1.8106,19.80556 -0.034,11.95279 0.2317,27.92281 0.2314,43.90893 -2e-4,15.98612 -0.266,31.98833 -0.9365,44.00553 -0.6704,12.01719 -1.707,20.04935 -3.1113,20.09536 -1.4044,0.046 -1.7716,-7.94009 -1.8016,-19.94749 -0.03,-12.0074 0.2382,-28.03609 0.2392,-44.07526 9e-4,-16.03916 -0.2654,-32.0888 -0.9367,-44.13809 -0.6714,-12.04928 -1.709,-20.09821 -3.113,-20.13597 -1.4041,-0.0378 -1.77,7.97341 -1.7994,20.01126 -0.029,12.03785 0.2389,28.10239 0.2388,44.17137 -10e-5,16.06898 -0.2685,32.14239 -0.9413,44.198 -0.6728,12.05562 -1.7109,20.09342 -3.1134,20.09118 -1.4025,-0.002 -1.7669,-8.04228 -1.7954,-20.10068 -0.029,-12.0584 0.2399,-28.13517 0.2398,-44.21086 -1e-4,-16.07569 -0.2687,-32.15032 -0.9415,-44.20444 -0.6728,-12.05413 -1.7107,-20.08775 -3.1131,-20.08145 -1.4023,0.006 -1.7668,8.04627 -1.7954,20.09948 -0.029,12.05321 0.2395,28.11967 0.2397,44.17899 2e-4,16.05932 -0.2675,32.11149 -0.9388,44.13612 -0.6713,12.02463 -1.707,20.02171 -3.1076,19.97084 -1.4006,-0.0509 -1.7662,-8.09883 -1.797,-20.13902 -0.031,-12.04018 0.2345,-28.07257 0.2331,-44.0923 -0,-16.01972 -0.2693,-32.02678 -0.94,-44.01628 -0.6706,-11.9895 -1.7051,-19.96144 -3.1057,-19.91095 -1.4006,0.0505 -1.7674,8.073 -1.799,20.07204 -0.032,11.99904 0.2338,27.97462 0.2345,43.93128 6e-4,15.95666 -0.2632,31.89439 -0.9292,43.81774 -0.6659,11.92334 -1.6952,19.8323 -3.0939,19.7314 -1.3987,-0.1009 -1.7694,-8.11081 -1.8063,-20.06293 -0.037,-11.95211 0.2219,-27.84643 0.219,-43.71616 -0,-15.86972 -0.2672,-31.71484 -0.9321,-43.56855 -0.6649,-11.85372 -1.6922,-19.71603 -3.0911,-19.62013 -1.3988,0.0959 -1.7717,8.05421 -1.8098,19.92814 -0.038,11.87393 0.2215,27.66347 0.2228,43.42185 0,15.75838 -0.2553,31.48558 -0.912,43.23483 -0.6567,11.74925 -1.6756,19.52054 -3.0724,19.36708 -1.3968,-0.15347 -1.7765,-8.07831 -1.8236,-19.87028 -0.047,-11.79196 0.2022,-27.45104 0.1976,-43.07297 -0,-15.62193 -0.2623,-31.2067 -0.9179,-42.85006 -0.6555,-11.64335 -1.6716,-19.34528 -3.0688,-19.20153 -1.3971,0.14376 -1.78,7.98959 -1.8281,19.66437 -0.048,11.67477 0.2025,27.17847 0.2046,42.63798 0,15.45951 -0.2439,30.87481 -0.8874,42.37277 -0.6436,11.49797 -1.648,19.07859 -3.0428,18.86873 -1.3948,-0.20986 -1.7878,-8.00049 -1.8489,-19.55617 -0.061,-11.55568 0.1751,-26.87641 0.1687,-42.14645 -0.01,-15.27004 -0.2547,-30.4894 -0.8971,-41.84235 -0.6425,-11.35295 -1.6435,-18.83948 -3.0389,-18.64388 -1.3953,0.19561 -1.792,7.87795 -1.8541,19.27445 -0.062,11.3965 0.1768,26.50717 0.1799,41.55941 0,15.05224 -0.229,30.04607 -0.8554,41.2089 -0.6263,11.16283 -1.6121,18.49466 -3.005,18.22292 -1.3928,-0.27175 -1.8031,-7.87555 -1.8822,-19.11256 -0.079,-11.23701 0.1405,-26.10722 0.1321,-40.91177 -0.01,-14.80455 -0.244,-29.54344 -0.8696,-40.51781 -0.6256,-10.97437 -1.6074,-18.18422 -3.0009,-17.93068 -1.3935,0.25353 -1.8081,7.71719 -1.8878,18.74874 -0.08,11.03156 0.1441,25.631 0.1482,40.15608 0,14.52508 -0.2105,28.9758 -0.8157,39.70991 -0.6052,10.73412 -1.5681,17.75163 -2.959,17.41029 -1.3909,-0.34135 -1.8227,-7.70055 -1.9239,-18.52731 -0.1012,-10.82676 0.098,-25.12107 0.088,-39.33264 -0.01,-14.21156 -0.2303,-28.34038 -0.835,-38.83615 -0.6048,-10.49577 -1.5632,-17.35848 -2.9547,-17.03785 -1.3915,0.32064 -1.8282,7.5044 -1.9296,18.07332 -0.1014,10.56891 0.104,24.52298 0.1093,38.38424 0.01,13.86125 -0.1887,27.62969 -0.7686,37.82735 -0.5799,10.19766 -1.5157,16.82454 -2.9046,16.40267 -1.3889,-0.42188 -1.8465,-7.47118 -1.9739,-17.78271 -0.1275,-10.31152 0.049,-23.88528 0.036,-37.35605 -0.013,-13.47078 -0.213,-26.83858 -0.7927,-36.7382 -0.5797,-9.89962 -1.5104,-16.33106 -2.8998,-15.92911 -1.3894,0.40194 -1.8524,7.23592 -1.9797,17.22841 -0.1273,9.99249 0.056,23.14348 0.062,36.17944 0.01,13.03597 -0.1636,25.9569 -0.7141,35.48927 -0.5505,9.53237 -1.4548,15.67618 -2.8418,15.15789 -1.3869,-0.5183 -1.8748,-7.18133 -2.0325,-16.85268 -0.1578,-9.67135 -0.01,-22.35103 -0.023,-34.9026 -0.014,-12.55158 -0.192,-24.97506 -0.7421,-34.13402 -0.5502,-9.15897 -1.4483,-15.05342 -2.8354,-14.54693 -1.3871,0.50649 -1.881,6.90836 -2.0387,16.18633 -0.1577,9.27798 -2e-4,21.43207 0.01,33.44298 0.01,12.01091 -0.1355,23.87865 -0.6526,32.58394 -0.517,8.70529 -1.3855,14.24813 -2.7706,13.60924 -1.3851,-0.63889 -1.9075,-6.82241 -2.0997,-15.69749 -0.1923,-8.87508 -0.073,-20.44172 -0.089,-31.84688 -0.016,-11.40516 -0.1662,-22.64883 -0.6819,-30.87795 -0.5157,-8.22912 -1.3761,-13.4437 -2.7605,-12.79067 -1.3845,0.65302 -1.9142,6.52222 -2.1074,14.90875 -0.1931,8.38653 -0.066,19.29039 -0.059,30.01274 0.01,10.72236 -0.1053,21.2632 -0.5849,28.92371 -0.4797,7.6605 -1.3081,12.44066 -2.6916,11.64163 -1.3835,-0.79903 -1.945,-6.38246 -2.1755,-14.25252 -0.2305,-7.87005 -0.1438,-18.02673 -0.1602,-27.97224 -0.016,-9.94552 -0.1344,-19.67986 -0.61,-26.70526 -0.4756,-7.0254 -1.2923,-11.34184 -2.6734,-10.45155 -1.3811,0.89029 -1.9522,6.10014 -2.1866,13.34965 -0.2344,7.24951 -0.1434,16.53867 -0.1383,25.58759 0.01,9.04891 -0.074,17.85758 -0.5131,24.1461 -0.4389,6.28853 -1.2233,10.0569 -2.6057,9.02522 -1.3825,-1.03168 -1.9873,-5.84842 -2.2594,-12.40463 -0.272,-6.55621 -0.22,-14.85189 -0.2345,-22.84147 -0.029,-15.97915 -0.339,-30.73387 -3.0912,-27.8995 -1.3761,1.41718 -1.9954,5.82226 -2.2791,11.54351 -0.2837,5.72124 -0.237,12.75866 -0.2373,19.44053 -6e-4,13.36373 -0.1921,25.30526 -2.9584,22.45084 -2.7663,-2.85443 -3.3502,-13.29685 -3.3532,-23.02566 -0,-9.72882 0.5894,-18.74402 0.5894,-18.74402"
       style="fill:none;stroke:#623e35;stroke-width:3.75;stroke-linecap:butt;stroke-linejoin:bevel;stroke-opacity:1;stroke-dasharray:none;display:inline"
       inkscape:connector-curvature="0" />
  </g>
  <g
     style="display:inline"
     inkscape:label="2red"
     id="layer5"
     inkscape:groupmode="layer">
    <path
       sodipodi:type="spiral"
       style="fill:none;stroke:#a40000;stroke-width:5.72963953;stroke-linecap:butt;stroke-linejoin:miter;stroke-miterlimit:4;stroke-opacity:1;stroke-dasharray:none;display:inline"
       id="path22965"
       sodipodi:cx="2081.4204"
       sodipodi:cy="501.79132"
       sodipodi:expansion="1"
       sodipodi:revolution="4"
       sodipodi:radius="34.068199"
       sodipodi:argument="-18.064157"
       sodipodi:t0="0"
       d="m 2081.4204,501.79132 c 0.9059,0.90587 -0.7742,1.66802 -1.5056,1.50562 -1.9822,-0.44011 -2.3008,-2.97902 -1.5056,-4.51685 1.4224,-2.75082 5.1162,-3.07307 7.5281,-1.50562 3.5395,2.30031 3.8682,7.28233 1.5056,10.53932 -3.149,4.34105 -9.4588,4.67311 -13.5506,1.50561 -5.1491,-3.98598 -5.483,-11.64011 -1.5056,-16.56178 4.8172,-5.96079 13.8242,-6.29591 19.573,-1.50561 6.7748,5.64521 7.1106,16.01005 1.5056,22.58424 -6.4712,7.59016 -18.197,7.92653 -25.5954,1.50561 -8.4066,-7.29586 -8.7433,-20.38482 -1.5056,-28.6067 8.1196,-9.22371 22.5732,-9.56071 31.6179,-1.50561 10.0414,8.94268 10.3786,24.76202 1.5056,34.62917 -9.7653,10.85943 -26.9512,11.19678 -37.6404,1.5056 -11.6778,-10.58747 -12.0153,-29.14061 -1.5056,-40.65163 11.4094,-12.49644 31.3303,-12.834 43.6629,-1.5056 13.3152,12.23105 13.6529,33.52009 1.5056,46.67409"
       transform="matrix(0.69880374,0,0,0.69744528,72.452044,-86.268297)" />
    <path
       transform="matrix(0.69880374,0,0,0.69744528,206.47153,-6.6335274)"
       d="m 2081.4204,501.79132 c 0.9059,0.90587 -0.7742,1.66802 -1.5056,1.50562 -1.9822,-0.44011 -2.3008,-2.97902 -1.5056,-4.51685 1.4224,-2.75082 5.1162,-3.07307 7.5281,-1.50562 3.5395,2.30031 3.8682,7.28233 1.5056,10.53932 -3.149,4.34105 -9.4588,4.67311 -13.5506,1.50561 -5.1491,-3.98598 -5.483,-11.64011 -1.5056,-16.56178 4.8172,-5.96079 13.8242,-6.29591 19.573,-1.50561 6.7748,5.64521 7.1106,16.01005 1.5056,22.58424 -6.4712,7.59016 -18.197,7.92653 -25.5954,1.50561 -8.4066,-7.29586 -8.7433,-20.38482 -1.5056,-28.6067 8.1196,-9.22371 22.5732,-9.56071 31.6179,-1.50561 10.0414,8.94268 10.3786,24.76202 1.5056,34.62917 -9.7653,10.85943 -26.9512,11.19678 -37.6404,1.5056 -11.6778,-10.58747 -12.0153,-29.14061 -1.5056,-40.65163 11.4094,-12.49644 31.3303,-12.834 43.6629,-1.5056 13.3152,12.23105 13.6529,33.52009 1.5056,46.67409"
       sodipodi:t0="0"
       sodipodi:argument="-18.064157"
       sodipodi:radius="34.068199"
       sodipodi:revolution="4"
       sodipodi:expansion="1"
       sodipodi:cy="501.79132"
       sodipodi:cx="2081.4204"
       id="path22967"
       style="fill:none;stroke:#a40000;stroke-width:5.72963953;stroke-linecap:butt;stroke-linejoin:miter;stroke-miterlimit:4;stroke-opacity:1;stroke-dasharray:none;display:inline"
       sodipodi:type="spiral" />
    <path
       sodipodi:type="spiral"
       style="fill:none;stroke:#a40000;stroke-width:5.72963953;stroke-linecap:butt;stroke-linejoin:miter;stroke-miterlimit:4;stroke-opacity:1;stroke-dasharray:none;display:inline"
       id="path22969"
       sodipodi:cx="2081.4204"
       sodipodi:cy="501.79132"
       sodipodi:expansion="1"
       sodipodi:revolution="4"
       sodipodi:radius="34.068199"
       sodipodi:argument="-18.064157"
       sodipodi:t0="0"
       d="m 2081.4204,501.79132 c 0.9059,0.90587 -0.7742,1.66802 -1.5056,1.50562 -1.9822,-0.44011 -2.3008,-2.97902 -1.5056,-4.51685 1.4224,-2.75082 5.1162,-3.07307 7.5281,-1.50562 3.5395,2.30031 3.8682,7.28233 1.5056,10.53932 -3.149,4.34105 -9.4588,4.67311 -13.5506,1.50561 -5.1491,-3.98598 -5.483,-11.64011 -1.5056,-16.56178 4.8172,-5.96079 13.8242,-6.29591 19.573,-1.50561 6.7748,5.64521 7.1106,16.01005 1.5056,22.58424 -6.4712,7.59016 -18.197,7.92653 -25.5954,1.50561 -8.4066,-7.29586 -8.7433,-20.38482 -1.5056,-28.6067 8.1196,-9.22371 22.5732,-9.56071 31.6179,-1.50561 10.0414,8.94268 10.3786,24.76202 1.5056,34.62917 -9.7653,10.85943 -26.9512,11.19678 -37.6404,1.5056 -11.6778,-10.58747 -12.0153,-29.14061 -1.5056,-40.65163 11.4094,-12.49644 31.3303,-12.834 43.6629,-1.5056 13.3152,12.23105 13.6529,33.52009 1.5056,46.67409"
       transform="matrix(0.69880374,0,0,0.69744528,25.836574,112.81862)" />
    <path
       transform="matrix(0.69880374,0,0,0.69744528,56.913554,252.66504)"
       d="m 2081.4204,501.79132 c 0.9059,0.90587 -0.7742,1.66802 -1.5056,1.50562 -1.9822,-0.44011 -2.3008,-2.97902 -1.5056,-4.51685 1.4224,-2.75082 5.1162,-3.07307 7.5281,-1.50562 3.5395,2.30031 3.8682,7.28233 1.5056,10.53932 -3.149,4.34105 -9.4588,4.67311 -13.5506,1.50561 -5.1491,-3.98598 -5.483,-11.64011 -1.5056,-16.56178 4.8172,-5.96079 13.8242,-6.29591 19.573,-1.50561 6.7748,5.64521 7.1106,16.01005 1.5056,22.58424 -6.4712,7.59016 -18.197,7.92653 -25.5954,1.50561 -8.4066,-7.29586 -8.7433,-20.38482 -1.5056,-28.6067 8.1196,-9.22371 22.5732,-9.56071 31.6179,-1.50561 10.0414,8.94268 10.3786,24.76202 1.5056,34.62917 -9.7653,10.85943 -26.9512,11.19678 -37.6404,1.5056 -11.6778,-10.58747 -12.0153,-29.14061 -1.5056,-40.65163 11.4094,-12.49644 31.3303,-12.834 43.6629,-1.5056 13.3152,12.23105 13.6529,33.52009 1.5056,46.67409"
       sodipodi:t0="0"
       sodipodi:argument="-18.064157"
       sodipodi:radius="34.068199"
       sodipodi:revolution="4"
       sodipodi:expansion="1"
       sodipodi:cy="501.79132"
       sodipodi:cx="2081.4204"
       id="path22971"
       style="fill:none;stroke:#a40000;stroke-width:5.72963953;stroke-linecap:butt;stroke-linejoin:miter;stroke-miterlimit:4;stroke-opacity:1;stroke-dasharray:none;display:inline"
       sodipodi:type="spiral" />
    <path
       sodipodi:type="spiral"
       style="fill:none;stroke:#a40000;stroke-width:5.72963953;stroke-linecap:butt;stroke-linejoin:miter;stroke-miterlimit:4;stroke-opacity:1;stroke-dasharray:none;display:inline"
       id="path22973"
       sodipodi:cx="2081.4204"
       sodipodi:cy="501.79132"
       sodipodi:expansion="1"
       sodipodi:revolution="4"
       sodipodi:radius="34.068199"
       sodipodi:argument="-18.064157"
       sodipodi:t0="0"
       d="m 2081.4204,501.79132 c 0.9059,0.90587 -0.7742,1.66802 -1.5056,1.50562 -1.9822,-0.44011 -2.3008,-2.97902 -1.5056,-4.51685 1.4224,-2.75082 5.1162,-3.07307 7.5281,-1.50562 3.5395,2.30031 3.8682,7.28233 1.5056,10.53932 -3.149,4.34105 -9.4588,4.67311 -13.5506,1.50561 -5.1491,-3.98598 -5.483,-11.64011 -1.5056,-16.56178 4.8172,-5.96079 13.8242,-6.29591 19.573,-1.50561 6.7748,5.64521 7.1106,16.01005 1.5056,22.58424 -6.4712,7.59016 -18.197,7.92653 -25.5954,1.50561 -8.4066,-7.29586 -8.7433,-20.38482 -1.5056,-28.6067 8.1196,-9.22371 22.5732,-9.56071 31.6179,-1.50561 10.0414,8.94268 10.3786,24.76202 1.5056,34.62917 -9.7653,10.85943 -26.9512,11.19678 -37.6404,1.5056 -11.6778,-10.58747 -12.0153,-29.14061 -1.5056,-40.65163 11.4094,-12.49644 31.3303,-12.834 43.6629,-1.5056 13.3152,12.23105 13.6529,33.52009 1.5056,46.67409"
       transform="matrix(0.69880374,0,0,0.69744528,306.50057,214.78997)" />
  </g>
  <g
     style="display:inline"
     inkscape:label="1yellow"
     id="layer8"
     inkscape:groupmode="layer">
    <g
       id="g21670"
       style="display:inline"
       transform="matrix(0.75302119,0,0,0.75302119,428.18212,80.689466)">
      <path
         style="font-size:12px;fill:none;stroke:#edd400;stroke-width:4.97994089;stroke-linecap:round;stroke-linejoin:round;stroke-opacity:1"
         d="m 1615.6964,245.21008 -33.1374,-28.19159 -32.6314,28.7761 16.5659,-40.23415 -37.4453,-22.14877 43.3757,3.32552 9.4888,-42.46479 10.2418,42.28944 43.3097,-4.09592 -37.0459,22.81079 z"
         id="polygon878"
         inkscape:connector-curvature="0" />
      <path
         inkscape:connector-curvature="0"
         inkscape:original-d="m 1611.7434,239.26893 -29.2201,-24.85357 -28.774,25.36887 14.6076,-35.47024 -33.0189,-19.52624 38.2482,2.93176 8.3672,-37.43675 9.0311,37.28216 38.19,-3.61094 -32.6666,20.10989 z"
         inkscape:path-effect="#path-effect16292"
         id="path16222"
         d="m 1627.4501,184.11702 c 0,0 2.2941,-0.51325 -2.0938,2.18798 -4.3879,2.70123 -0.2312,-1.96815 -4.8812,-1.52848 -4.65,0.43967 0.4934,4.2297 -3.9098,6.94035 -2.2016,1.35533 -2.3751,-0.27107 -2.5899,-2.18024 -0.2147,-1.90917 -0.4753,-4.10061 -2.8003,-3.88077 -2.325,0.21983 -2.0621,2.41103 -1.7856,4.88891 0.2766,2.47788 0.5633,5.24283 -1.6461,6.60292 -2.2093,1.36009 -2.4832,-1.40623 -2.815,-4.45452 -0.3318,-3.04828 -0.7283,-6.37781 -3.0533,-6.15798 -2.325,0.21984 -1.9251,3.54899 -1.5342,7.16827 0.3908,3.61927 0.7667,7.52929 -1.4504,8.89418 -2.2172,1.3649 -2.4965,-1.7421 -2.932,-5.93489 -0.4355,-4.1928 -1.0498,-9.46898 -3.7768,-12.45954 -1.3635,-1.49528 -1.7105,0.34911 -1.5823,3.89551 0.1281,3.5464 0.712,8.79686 1.2194,14.11275 0.5073,5.31589 0.9375,10.69727 0.9159,14.48865 -0.022,3.79137 -0.4768,5.99083 -1.7124,4.93987 -1.2356,-1.05096 -2.1367,-6.12067 -3.0107,-12.92544 -0.8739,-6.80476 -1.746,-15.34189 -2.7424,-23.34705 -0.9963,-8.00516 -2.1095,-15.47915 -3.1522,-20.19112 -1.0427,-4.71198 -1.9747,-6.66624 -2.6539,-3.62711 -0.6793,3.03913 -0.5015,7.83731 -0.01,13.36795 0.4955,5.53063 1.3035,11.7943 1.9772,17.75449 0.6738,5.9602 1.2155,11.61669 1.2951,15.92055 0.08,4.30386 -0.2934,7.25405 -1.4231,7.79886 -1.1297,0.54481 -1.8704,-1.66211 -2.4533,-5.16251 -0.5828,-3.50041 -1.0197,-8.29303 -1.5034,-12.92374 -0.4836,-4.63071 -1.0126,-9.09965 -1.6636,-11.96509 -0.6509,-2.86544 -1.4091,-4.12895 -2.3565,-2.34825 -0.9473,1.78071 -1.1436,4.87895 -1.0114,8.58958 0.1323,3.71063 0.5899,8.03398 0.9888,12.26081 0.7977,8.45366 1.3349,16.52396 -0.8775,18.47456 -1.1062,0.97529 -1.7961,-0.79153 -2.3161,-3.99252 -0.52,-3.20099 -0.8819,-7.8349 -1.3201,-12.59503 -0.4382,-4.76013 -0.9537,-9.64638 -1.6728,-13.36363 -0.7191,-3.71725 -1.6322,-6.26653 -2.82,-6.35758 -2.3756,-0.18209 -1.8748,3.80497 -1.459,7.47335 0.4157,3.66837 0.7565,7.01697 -1.7456,5.53728 -2.5022,-1.47969 -2.8657,-4.82586 -3.222,-7.84508 -0.3564,-3.01922 -0.7015,-5.71192 -3.0784,-5.89411 -2.3768,-0.18219 -2.0308,2.51044 -1.7453,4.87805 0.2854,2.36761 0.5179,4.40941 -2.0058,2.91699 -5.0474,-2.98486 -1.0026,-8.15942 -5.7588,-8.52399 -4.7563,-0.36457 0.7115,5.53921 -4.3801,2.52821 -5.0916,-3.011 -2.7557,-3.07514 -2.7557,-3.07514 m 69.6948,45.25671 c 0,0 2.6663,7.95651 -2.1644,3.84764 -2.4154,-2.05444 -2.5215,-4.46871 -2.7148,-8.028 -0.1932,-3.55928 -0.4658,-8.26442 -3.3322,-14.88797 -1.4333,-3.31178 -2.2268,-3.92259 -2.5861,-2.97858 -0.3594,0.94401 -0.2966,3.44414 -0.08,6.36096 0.2164,2.91682 0.5832,6.25068 0.8843,8.85658 0.3011,2.60589 0.5421,4.48323 0.5421,4.48323 m -33.7184,-14.65911 c 0,0 0.8741,3.48625 1.1511,7.46841 0.277,3.98217 -0.052,8.46117 -2.2826,10.42793 -2.2308,1.96675 -2.4026,-1.34414 -2.5554,-3.90359 -0.1529,-2.55946 -0.2585,-4.37051 -2.3013,0.59001 -2.0429,4.96051 -2.5293,7.27052 -2.4802,8.33777 0.049,1.06725 0.6235,0.8928 0.6235,0.8928"
         style="font-size:12px;fill:none;stroke:#edd400;stroke-width:4.97994184;stroke-linecap:round;stroke-linejoin:round;stroke-opacity:1" />
    </g>
    <path
       sodipodi:type="spiral"
       style="fill:none;stroke:#edd400;stroke-width:5.72963953;stroke-linecap:butt;stroke-linejoin:miter;stroke-miterlimit:4;stroke-opacity:1;stroke-dasharray:none"
       id="path22959"
       sodipodi:cx="2081.4204"
       sodipodi:cy="501.79132"
       sodipodi:expansion="1"
       sodipodi:revolution="4"
       sodipodi:radius="34.068199"
       sodipodi:argument="-18.064157"
       sodipodi:t0="0"
       d="m 2081.4204,501.79132 c 0.9059,0.90587 -0.7742,1.66802 -1.5056,1.50562 -1.9822,-0.44011 -2.3008,-2.97902 -1.5056,-4.51685 1.4224,-2.75082 5.1162,-3.07307 7.5281,-1.50562 3.5395,2.30031 3.8682,7.28233 1.5056,10.53932 -3.149,4.34105 -9.4588,4.67311 -13.5506,1.50561 -5.1491,-3.98598 -5.483,-11.64011 -1.5056,-16.56178 4.8172,-5.96079 13.8242,-6.29591 19.573,-1.50561 6.7748,5.64521 7.1106,16.01005 1.5056,22.58424 -6.4712,7.59016 -18.197,7.92653 -25.5954,1.50561 -8.4066,-7.29586 -8.7433,-20.38482 -1.5056,-28.6067 8.1196,-9.22371 22.5732,-9.56071 31.6179,-1.50561 10.0414,8.94268 10.3786,24.76202 1.5056,34.62917 -9.7653,10.85943 -26.9512,11.19678 -37.6404,1.5056 -11.6778,-10.58747 -12.0153,-29.14061 -1.5056,-40.65163 11.4094,-12.49644 31.3303,-12.834 43.6629,-1.5056 13.3152,12.23105 13.6529,33.52009 1.5056,46.67409"
       transform="matrix(0.69880374,0,0,0.69744528,258.94297,175.45816)" />
    <path
       transform="matrix(0.69880374,0,0,0.69744528,168.13991,80.770486)"
       d="m 2081.4204,501.79132 c 0.9059,0.90587 -0.7742,1.66802 -1.5056,1.50562 -1.9822,-0.44011 -2.3008,-2.97902 -1.5056,-4.51685 1.4224,-2.75082 5.1162,-3.07307 7.5281,-1.50562 3.5395,2.30031 3.8682,7.28233 1.5056,10.53932 -3.149,4.34105 -9.4588,4.67311 -13.5506,1.50561 -5.1491,-3.98598 -5.483,-11.64011 -1.5056,-16.56178 4.8172,-5.96079 13.8242,-6.29591 19.573,-1.50561 6.7748,5.64521 7.1106,16.01005 1.5056,22.58424 -6.4712,7.59016 -18.197,7.92653 -25.5954,1.50561 -8.4066,-7.29586 -8.7433,-20.38482 -1.5056,-28.6067 8.1196,-9.22371 22.5732,-9.56071 31.6179,-1.50561 10.0414,8.94268 10.3786,24.76202 1.5056,34.62917 -9.7653,10.85943 -26.9512,11.19678 -37.6404,1.5056 -11.6778,-10.58747 -12.0153,-29.14061 -1.5056,-40.65163 11.4094,-12.49644 31.3303,-12.834 43.6629,-1.5056 13.3152,12.23105 13.6529,33.52009 1.5056,46.67409"
       sodipodi:t0="0"
       sodipodi:argument="-18.064157"
       sodipodi:radius="34.068199"
       sodipodi:revolution="4"
       sodipodi:expansion="1"
       sodipodi:cy="501.79132"
       sodipodi:cx="2081.4204"
       id="path22961"
       style="fill:none;stroke:#edd400;stroke-width:5.72963953;stroke-linecap:butt;stroke-linejoin:miter;stroke-miterlimit:4;stroke-opacity:1;stroke-dasharray:none"
       sodipodi:type="spiral" />
    <path
       sodipodi:type="spiral"
       style="fill:none;stroke:#edd400;stroke-width:5.72963953;stroke-linecap:butt;stroke-linejoin:miter;stroke-miterlimit:4;stroke-opacity:1;stroke-dasharray:none"
       id="path22963"
       sodipodi:cx="2081.4204"
       sodipodi:cy="501.79132"
       sodipodi:expansion="1"
       sodipodi:revolution="4"
       sodipodi:radius="34.068199"
       sodipodi:argument="-18.064157"
       sodipodi:t0="0"
       d="m 2081.4204,501.79132 c 0.9059,0.90587 -0.7742,1.66802 -1.5056,1.50562 -1.9822,-0.44011 -2.3008,-2.97902 -1.5056,-4.51685 1.4224,-2.75082 5.1162,-3.07307 7.5281,-1.50562 3.5395,2.30031 3.8682,7.28233 1.5056,10.53932 -3.149,4.34105 -9.4588,4.67311 -13.5506,1.50561 -5.1491,-3.98598 -5.483,-11.64011 -1.5056,-16.56178 4.8172,-5.96079 13.8242,-6.29591 19.573,-1.50561 6.7748,5.64521 7.1106,16.01005 1.5056,22.58424 -6.4712,7.59016 -18.197,7.92653 -25.5954,1.50561 -8.4066,-7.29586 -8.7433,-20.38482 -1.5056,-28.6067 8.1196,-9.22371 22.5732,-9.56071 31.6179,-1.50561 10.0414,8.94268 10.3786,24.76202 1.5056,34.62917 -9.7653,10.85943 -26.9512,11.19678 -37.6404,1.5056 -11.6778,-10.58747 -12.0153,-29.14061 -1.5056,-40.65163 11.4094,-12.49644 31.3303,-12.834 43.6629,-1.5056 13.3152,12.23105 13.6529,33.52009 1.5056,46.67409"
       transform="matrix(0.69880374,0,0,0.69744528,51.115654,192.45339)" />
  </g>
  <eggbot
     id="eggbot4952"
     totaldeltay="0"
     totaldeltax="0"
     lastpathnc="0"
     lastpath="0"
     node="0"
     layer="0"
     serialport="/dev/ttyACM0" />
</svg>
