<?xml version="1.0" encoding="UTF-8" standalone="no"?>
<!-- Created with Inkscape (http://www.inkscape.org/) -->

<svg
   xmlns:dc="http://purl.org/dc/elements/1.1/"
   xmlns:cc="http://creativecommons.org/ns#"
   xmlns:rdf="http://www.w3.org/1999/02/22-rdf-syntax-ns#"
   xmlns:svg="http://www.w3.org/2000/svg"
   xmlns="http://www.w3.org/2000/svg"
   xmlns:sodipodi="http://sodipodi.sourceforge.net/DTD/sodipodi-0.dtd"
   xmlns:inkscape="http://www.inkscape.org/namespaces/inkscape"
   width="612"
   height="696"
   id="svg2"
   version="1.1"
   inkscape:version="0.48.1 r9760"
   sodipodi:docname="hackpgh_spatula.svg"
   inkscape:export-filename="hackpgh_spatula.png"
   inkscape:export-xdpi="147.06"
   inkscape:export-ydpi="147.06">
  <defs
     id="defs4" />
  <sodipodi:namedview
     id="base"
     pagecolor="#ffffff"
     bordercolor="#666666"
     borderopacity="1.0"
     inkscape:pageopacity="0.0"
     inkscape:pageshadow="2"
     inkscape:zoom="0.93534483"
     inkscape:cx="306"
     inkscape:cy="348"
     inkscape:document-units="px"
     inkscape:current-layer="layer1"
     showgrid="false"
     showguides="false"
     inkscape:guide-bbox="true"
     inkscape:window-width="1600"
     inkscape:window-height="823"
     inkscape:window-x="0"
     inkscape:window-y="24"
     inkscape:window-maximized="1"
     fit-margin-top="0"
     fit-margin-left="0"
     fit-margin-right="0"
     fit-margin-bottom="0"
     inkscape:snap-global="true">
    <sodipodi:guide
       position="4e-06,695.99999"
       orientation="610.78199,0"
       id="guide3540" />
    <sodipodi:guide
       position="4e-06,85.218"
       orientation="0,611.5"
       id="guide3542" />
    <sodipodi:guide
       position="611.5,85.218"
       orientation="-610.78199,0"
       id="guide3544" />
    <sodipodi:guide
       position="-539.64608,616.70455"
       orientation="0,-611.5"
       id="guide3546" />
    <sodipodi:guide
       orientation="0,1"
       position="-951.48545,436.41109"
       id="guide5084" />
    <sodipodi:guide
       orientation="0,1"
       position="-1003.9108,411.60268"
       id="guide5086" />
    <sodipodi:guide
       orientation="1,0"
       position="-870.97515,463.09183"
       id="guide5088" />
    <sodipodi:guide
       orientation="1,0"
       position="-832.59234,472.92157"
       id="guide5090" />
    <sodipodi:guide
       position="-851.7838,730.83539"
       orientation="55.233815,0"
       id="guide5102" />
    <sodipodi:guide
       position="-910.7623,491.6449"
       orientation="55.23381,0"
       id="guide5112" />
    <sodipodi:guide
       position="-792.8053,491.6449"
       orientation="55.23381,0"
       id="guide5114" />
    <sodipodi:guide
       orientation="0,1"
       position="-1044.1659,235.60342"
       id="guide5120" />
    <sodipodi:guide
       orientation="0,1"
       position="-1011.4001,494.92148"
       id="guide5122" />
    <sodipodi:guide
       orientation="0,1"
       position="-880.2198,215.94393"
       id="guide5124" />
    <sodipodi:guide
       orientation="1,0"
       position="-383.42127,670.32408"
       id="guide3041" />
    <sodipodi:guide
       position="-358.5974,633.93508"
       orientation="139.0136,0"
       id="guide3053" />
    <sodipodi:guide
       position="-408.2451,633.93508"
       orientation="139.0136,0"
       id="guide3055" />
    <sodipodi:guide
       position="-433.069,633.93508"
       orientation="139.0136,0"
       id="guide3057" />
    <sodipodi:guide
       position="-333.77359,633.93508"
       orientation="139.0136,0"
       id="guide3059" />
    <sodipodi:guide
       position="-465.17452,555.80335"
       orientation="99.29543,0"
       id="guide3073" />
    <sodipodi:guide
       position="-301.66802,555.80335"
       orientation="99.29543,0"
       id="guide3075" />
    <sodipodi:guide
       orientation="0,1"
       position="-655.49074,359.86038"
       id="guide3077" />
    <sodipodi:guide
       orientation="0,1"
       position="-485.50868,395.9219"
       id="guide3859" />
    <sodipodi:guide
       orientation="0,1"
       position="-602.53318,-20.110128"
       id="guide3893" />
    <sodipodi:guide
       orientation="0,1"
       position="-503.29584,-4.523228"
       id="guide3895" />
    <sodipodi:guide
       position="0,695.99999"
       orientation="610.78198,0"
       id="guide4080" />
    <sodipodi:guide
       position="0,85.21801"
       orientation="0,611.5"
       id="guide4082" />
    <sodipodi:guide
       position="611.5,85.21801"
       orientation="-610.78198,0"
       id="guide4084" />
    <sodipodi:guide
       position="611.5,695.99999"
       orientation="0,-611.5"
       id="guide4086" />
    <sodipodi:guide
       orientation="0,1"
       position="293.11726,81.76172"
       id="guide4088" />
  </sodipodi:namedview>
  <metadata
     id="metadata7">
    <rdf:RDF>
      <cc:Work
         rdf:about="">
        <dc:format>image/svg+xml</dc:format>
        <dc:type
           rdf:resource="http://purl.org/dc/dcmitype/StillImage" />
        <dc:title></dc:title>
      </cc:Work>
    </rdf:RDF>
  </metadata>
  <g
     inkscape:label="Layer 1"
     inkscape:groupmode="layer"
     id="layer1"
     transform="translate(700,-88.076473)">
    <g
       id="Background_1_"
       transform="translate(-700,88.076473)">
      <path
         style="fill:#231f20"
         inkscape:connector-curvature="0"
         id="Negative_Text"
         d="m 573.142,645.449 c -0.21,1.768 -0.342,3.698 -0.389,5.671 l 0.127,0 c 0.282,-1.995 0.365,-3.898 0.262,-5.671 z M 0,8.3789063e-6 0,696 612,696 612,8.3789063e-6 z M 288.96,633.36 c 10.245,-0.085 15.686,4.634 14.88,15.6 l -9.36,0 c -0.154,-3.366 -1.973,-5.067 -5.52,-5.04 z m -42,0 c 0.559,2.48 0.081,5.999 0.24,8.88 -2.821,-0.261 -4.296,0.824 -4.56,3.12 l -9.12,0 c -0.281,-8.761 5.041,-11.919 13.44,-12 z M 12.24,672.48 C 8.948,660.011 6.183,647.017 2.88,634.559 c 2.801,-0.559 6.64,-0.08 9.84,-0.239 2.553,12.727 5.194,25.365 7.68,38.16 z M 24.96,672 c -0.7,-2.637 -1.361,-5.376 -1.92,-8.16 -0.545,-2.719 -1.691,-5.878 -1.68,-8.399 0.018,-3.838 2.581,-7.104 2.64,-11.04 0.855,4.906 3.56,10.057 3.6,15.359 0.032,4.191 -2.415,8.052 -2.64,12.24 z m 9.84,0.48 c -2.521,-12.92 -5.589,-25.291 -8.16,-38.16 l 8.88,0 c 2.425,12.854 5.075,25.484 7.68,38.16 z m 31.2,0 c -2.869,-12.572 -6.157,-24.724 -8.88,-37.44 -3.454,12.065 -6.306,24.734 -9.36,37.2 -1.184,-3.286 -1.438,-6.727 -2.16,-10.32 -0.656,-3.269 -2.179,-6.854 -2.16,-10.08 0.016,-2.761 1.356,-5.669 1.92,-8.399 0.586,-2.842 0.894,-5.629 1.68,-8.4 l 0,-0.72 19.68,0 c 2.247,12.953 5.278,25.121 7.44,38.16 l -8.16,0 z m 12.96,-0.72 c -0.799,-5.175 -3.624,-10.829 -3.6,-16.319 0.018,-4.001 2.386,-7.395 2.64,-11.28 1.464,4.936 2.232,10.567 3.6,15.6 -0.882,3.997 -1.936,7.823 -2.64,11.999 z m 9.84,0.72 c -2.847,-12.594 -5.418,-25.462 -8.4,-37.921 2.481,-0.559 6,-0.08 8.88,-0.239 2.606,12.674 5.248,25.312 7.68,38.16 z m 31.2,0 c -3.169,-12.351 -6.079,-24.961 -9.12,-37.44 -3.449,12.071 -5.819,25.221 -9.6,36.96 -0.239,-6.975 -3.84,-13.374 -3.84,-20.16 0,-5.692 3.084,-10.916 3.36,-16.8 0.207,-0.193 0.143,-0.657 0.48,-0.72 l 19.2,0 c 2.567,12.713 5.209,25.351 7.68,38.16 z M 132.72,672 c -0.679,-2.65 -1.364,-5.388 -1.92,-8.16 -0.543,-2.707 -1.678,-5.898 -1.68,-8.399 -0.003,-3.832 2.598,-7.112 2.64,-11.04 0.901,4.873 3.539,10.06 3.6,15.359 0.049,4.208 -2.415,8.07 -2.64,12.24 z m 9.84,0.48 c -2.512,-12.929 -5.571,-25.309 -8.16,-38.16 l 8.88,0 c 2.442,12.838 5.09,25.47 7.68,38.16 z m 12.96,-0.24 c -1.054,-3.299 -1.444,-6.753 -2.16,-10.32 -0.657,-3.273 -2.189,-6.863 -2.16,-10.08 0.048,-5.362 3.201,-11.107 3.6,-16.8 l 0,-0.72 10.08,0 c -3.158,12.602 -6.335,25.185 -9.36,37.92 z m 21.84,0.24 -10.56,0 0,-15.36 10.56,0 z m 25.92,-20.88 -10.32,0 0,20.881 -10.8,0 c 0.16,-18.08 -0.32,-36.801 0.24,-54.48 l 10.56,0 0,19.92 c 2.97,0.55 6.953,0.088 10.32,0.24 z m 25.44,20.88 -10.8,0 0,-20.64 c -2.961,-0.559 -6.959,-0.08 -10.32,-0.24 l 0,-13.44 10.08,0 c 0.717,-6.163 -0.238,-13.998 0.48,-20.16 l 10.56,0 z m 23.76,-16.32 c -3.814,0.027 -9.078,-0.873 -10.56,1.68 -1.238,2.132 -0.31,5.264 1.68,6.24 2.309,1.133 5.793,0.119 8.88,0.479 l 0,7.921 c -5.298,0.876 -13.824,1.754 -17.28,-1.2 -4.061,-3.472 -4.024,-17.137 0,-20.88 4.086,-3.802 10.697,-1.595 17.28,-1.92 z m 13.68,16.32 -9.36,0 0,-15.12 c 0,-6.879 1.754,-15.853 -5.28,-15.12 0.159,-2.881 -0.319,-6.399 0.24,-8.88 5.077,0.228 8.823,0.304 11.28,2.64 6.725,6.392 1.37,25.036 3.12,36.48 z m 18.48,-28.56 c -8.683,-0.901 -8.415,19.775 0,18.96 l 0,10.32 c -4.042,-0.276 -8.585,-0.659 -11.04,-2.88 -5.551,-5.021 -6.241,-27.481 -0.48,-33.601 2.516,-2.672 6.902,-2.831 11.04,-3.359 l 0.24,0 c 0.559,3.04 0.08,7.119 0.24,10.56 z m 4.32,29.28 0,-10.32 c 3.916,0.156 5.37,-2.15 6,-5.28 l 9.12,0 c 0.54,10.78 -4.35,16.13 -15.12,15.6 z m 27.36,-0.72 -9.12,0 0,-53.76 c -0.021,-0.34 -0.04,-0.68 0.24,-0.72 l 8.88,0 z m 12.72,0 c -2.709,-5.212 -5.543,-10.297 -8.4,-15.36 0.384,-3.862 -0.531,-6.877 0,-9.84 0.646,-3.602 4.733,-8.828 6.24,-12.24 0.105,-0.238 0.22,-0.624 0.48,-0.72 l 12.24,0 c -3.454,5.905 -7.126,11.594 -10.56,17.52 3.815,7.225 8.503,13.578 12.479,20.641 l -12.479,0 z m 24.24,0 -10.8,0 0,-53.76 c -0.021,-0.34 -0.04,-0.68 0.239,-0.72 l 10.561,0 z m 28.08,-15.6 c -5.333,4.553 -15.143,0.954 -23.761,2.16 l 0,-13.2 c 5.299,-1.143 10.719,1.84 15.12,-0.72 2.939,-1.709 3.288,-10.626 0.48,-12.96 -3.13,-2.602 -10.438,-0.025 -15.601,-0.96 0.16,-4.32 -0.319,-9.279 0.24,-13.2 10.488,1.041 21.272,-3.111 25.68,5.04 3.961,7.322 3.374,29.117 -2.158,33.84 z m 28.56,-26.4 c -2.096,0.07 -5.256,-0.292 -6.96,0.479 -3.719,1.683 -3.532,12.24 -3.12,19.68 0.381,6.87 2.215,10.456 10.08,9.601 l 0,12.479 c -6.384,0.005 -13.375,0.293 -17.04,-3.6 -3.805,-4.041 -3.995,-12.749 -4.08,-20.88 -0.128,-12.22 -0.495,-25.908 7.92,-29.28 4.037,-1.618 8.83,-0.971 13.2,-1.44 z m 22.8,38.4 c -3.354,4.773 -10.303,3.762 -18.479,3.84 l 0,-12.48 c 6.98,0.74 11.348,-1.132 10.56,-8.16 -4.16,-0.56 -9.359,-0.08 -13.92,-0.24 0.159,-3.28 -0.319,-7.199 0.24,-10.08 l 24.24,0 c -0.713,10.211 1.641,21.028 -2.641,27.12 z m 2.64,-32.4 -10.8,0 c 1.122,-6.642 -4.837,-6.203 -10.319,-6.24 l 0,-12.72 c 15.228,-1.127 22.496,3.009 21.119,18.96 z m 25.92,15.12 -10.32,0 0,20.881 -10.8,0 c 0.16,-18.08 -0.32,-36.801 0.24,-54.48 l 10.56,0 0,19.92 c 2.97,0.55 6.952,0.088 10.32,0.24 z m 25.44,20.88 -10.8,0 0,-20.64 c -2.961,-0.559 -6.959,-0.08 -10.32,-0.24 l 0,-13.44 10.08,0 c 0.718,-6.163 -0.237,-13.998 0.48,-20.16 l 10.56,0 z m 15.36,0 -10.56,0 0,-15.36 10.561,0 0,15.36 z m 18.72,-28.56 c -5.704,-0.775 -6.503,4.182 -6.479,9.84 0.023,5.781 0.775,9.441 6.479,9.12 l 0,10.32 c -4.408,-0.239 -9.299,-0.238 -12,-2.641 -4.42,-3.931 -4.16,-16.127 -3.6,-24.479 0.633,-9.438 5.462,-12.578 15.12,-12.72 1.11,2.57 0.167,7.193 0.48,10.56 z m 18.72,23.28 c -2.01,4.832 -7.539,5.942 -14.399,6 l 0,-10.32 c 5.345,0.387 6.311,-2.826 6.479,-8.64 0.163,-5.595 -0.47,-11.146 -6.479,-10.32 l 0,-10.56 c 6.223,0.451 12.621,0.892 14.64,6.479 1.778,4.927 2.073,21.8 -0.241,27.361 z m 13.68,5.28 -9.36,0 c 0.16,-12.641 -0.32,-25.92 0.24,-38.16 l 9.12,0 z m 11.04,-21.36 c 0.375,-4.799 -2.19,-7.587 -6.96,-6.48 l 0,-10.08 c 9.613,-4.029 15.319,1.614 15.861,10.89 0.346,-2.909 0.904,-5.369 1.658,-6.81 2.807,-5.361 12.839,-6.35 20.641,-4.319 l 0,9.84 c -3.93,-0.021 -7.827,-0.928 -10.561,0.479 -2.711,1.396 -4.159,13.745 -0.72,16.08 2.885,1.959 7.05,0.864 11.28,0.96 l 0,9.36 c -7.798,2.709 -17.646,1.744 -20.641,-4.32 -1.555,-3.149 -2.192,-9.561 -2.047,-15.6 z m 24.72,39.36 c -10.063,0.463 -15.196,-4.004 -14.88,-13.921 l 9.36,0 c 0.108,3.091 2.206,4.193 5.52,4.08 z m 4.08,-0.24 0,-9.601 c 9.227,0.381 6.96,-12.925 6.96,-23.52 0,-8.746 -0.188,-17.108 0.24,-22.8 l 8.64,0 0,24.239 c 10e-4,17.461 1.934,32.899 -15.84,31.682 z"
         sodipodi:nodetypes="ccccccccccccccccccccccccccccccccccccccccccccccccccccccccccccscccccccccccccccccscccccccccccccccccccccccccccccccccccccccscccccccccccccccccccccccccccccccccccccccscccccccscccccccccccccccccccccccccccccccccccccccccccccccccccccccccccccccccccccccccccccccccccccccccscccc" />
      <rect
         style="fill:#231f20;fill-rule:evenodd;display:none"
         y="0"
         x="0"
         id="Background"
         display="none"
         clip-rule="evenodd"
         width="612"
         height="696" />
    </g>
    <rect
       style="fill:#eccc79;fill-opacity:1;stroke:none"
       id="rect4464"
       width="611.5"
       height="610.78198"
       x="-700"
       y="88.076477"
       inkscape:export-filename="hackpgh_spatula.png"
       inkscape:export-xdpi="147.06"
       inkscape:export-ydpi="147.06" />
    <path
       d="m -360.4,722.39647 c -3.454,5.905 -7.126,11.594 -10.56,17.52 3.815,7.225 8.503,13.578 12.479,20.641 -4.159,0 -8.319,0 -12.479,0 -2.709,-5.212 -5.543,-10.297 -8.4,-15.36 0.384,-3.862 -0.531,-6.877 0,-9.84 0.646,-3.602 4.733,-8.828 6.24,-12.24 0.105,-0.238 0.22,-0.624 0.48,-0.72 4.08,-10e-4 8.16,-10e-4 12.24,-10e-4 z m 204.24,38.16 c 3.12,0 6.24,0 9.36,0 0,-12.721 0,-25.44 0,-38.16 -3.04,0 -6.08,0 -9.12,0 -0.56,12.241 -0.08,25.52 -0.24,38.16 z m 56.16,-15.36 c 0,10.595 2.267,23.9 -6.96,23.52 0,3.2 0,6.4 0,9.601 17.774,1.217 15.841,-14.222 15.84,-31.681 0,-8.712 0,-17.415 0,-24.239 -2.88,0 -5.76,0 -8.64,0 -0.428,5.691 -0.24,14.053 -0.24,22.799 z m -189.12,-5.28 c 4.561,0.16 9.76,-0.319 13.92,0.24 0.788,7.028 -3.579,8.9 -10.56,8.16 0,4.16 0,8.319 0,12.479 8.177,-0.078 15.125,0.934 18.479,-3.84 4.282,-6.092 1.929,-16.909 2.641,-27.12 -8.08,0 -16.16,0 -24.24,0 -0.559,2.882 -0.081,6.801 -0.24,10.081 z m -335.52,3.6 c -0.024,5.49 2.801,11.145 3.6,16.319 0.704,-4.176 1.758,-8.002 2.64,-12 -1.368,-5.032 -2.136,-10.664 -3.6,-15.6 -0.254,3.887 -2.623,7.28 -2.64,11.281 z m -54,0 c -0.011,2.521 1.135,5.681 1.68,8.399 0.559,2.784 1.22,5.523 1.92,8.16 0.225,-4.188 2.672,-8.049 2.64,-12.24 -0.041,-5.303 -2.745,-10.453 -3.6,-15.359 -0.059,3.936 -2.623,7.203 -2.64,11.04 z m 107.76,0 c 0.002,2.501 1.137,5.692 1.68,8.399 0.557,2.772 1.242,5.51 1.92,8.16 0.225,-4.17 2.688,-8.032 2.64,-12.24 -0.061,-5.3 -2.699,-10.486 -3.6,-15.359 -0.042,3.928 -2.643,7.208 -2.64,11.04 z m 106.08,-5.04 c -4.024,3.743 -4.061,17.408 0,20.88 3.456,2.954 11.981,2.076 17.28,1.2 0,-2.641 0,-5.28 0,-7.921 -3.086,-0.36 -6.571,0.653 -8.88,-0.479 -1.99,-0.977 -2.918,-4.108 -1.68,-6.24 1.482,-2.553 6.746,-1.652 10.56,-1.68 0,-2.561 0,-5.12 0,-7.68 -6.583,0.326 -13.194,-1.881 -17.28,1.92 z m -68.4,6.72 c 0,5.12 0,10.24 0,15.36 3.52,0 7.04,0 10.56,0 0,-5.12 0,-10.24 0,-15.36 -3.52,0 -7.04,0 -10.56,0 z m 324.72,0 c 0,5.12 0,10.24 0,15.36 3.521,0 7.04,0 10.561,0 0,-5.12 0,-10.24 0,-15.36 -3.52,0 -7.041,0 -10.561,0 z m -196.56,0.48 c -0.63,3.13 -2.084,5.437 -6,5.28 0,3.44 0,6.88 0,10.32 10.771,0.53 15.66,-4.82 15.12,-15.601 -3.04,10e-4 -6.08,10e-4 -9.12,10e-4 z m 279.12,18.96 c -0.316,9.917 4.816,14.384 14.88,13.921 0,-3.28 0,-6.561 0,-9.841 -3.313,0.113 -5.411,-0.989 -5.52,-4.08 -3.12,0 -6.24,0 -9.36,0 z m -285.12,-32.64 c 3.547,-0.027 5.366,1.674 5.52,5.04 3.12,0 6.24,0 9.36,0 0.806,-10.966 -4.635,-15.685 -14.88,-15.6 0,3.52 0,7.04 0,10.56 z m 216.24,2.16 c -0.561,8.353 -0.82,20.549 3.6,24.479 2.701,2.402 7.592,2.401 12,2.641 0,-3.44 0,-6.88 0,-10.32 -5.704,0.321 -6.456,-3.339 -6.479,-9.12 -0.023,-5.658 0.775,-10.615 6.479,-9.84 -0.312,-3.367 0.63,-7.99 -0.479,-10.56 -9.659,0.142 -14.488,3.283 -15.121,12.72 z m 34.32,21.12 c 2.314,-5.562 2.02,-22.435 0.24,-27.36 -2.019,-5.588 -8.417,-6.028 -14.64,-6.479 0,3.52 0,7.04 0,10.56 6.01,-0.826 6.643,4.726 6.479,10.32 -0.169,5.813 -1.135,9.026 -6.479,8.64 0,3.44 0,6.88 0,10.32 6.86,-0.058 12.39,-1.169 14.4,-6.001 z m 17.76,-32.64 c 0,3.36 0,6.721 0,10.08 4.77,-1.106 7.335,1.682 6.96,6.48 2.88,0 5.76,0 8.64,0 1.761,-12.439 -4.15,-21.359 -15.6,-16.56 z m 17.52,4.08 c -2.612,4.991 -2.899,22.208 0,28.08 2.994,6.064 12.843,7.029 20.641,4.32 0,-3.12 0,-6.24 0,-9.36 -4.23,-0.096 -8.396,0.999 -11.28,-0.96 -3.439,-2.335 -1.991,-14.684 0.72,-16.08 2.733,-1.407 6.631,-0.501 10.561,-0.479 0,-3.28 0,-6.561 0,-9.84 -7.803,-2.031 -17.836,-1.043 -20.642,4.319 z m -562.56,33.84 c 2.72,0 5.44,0 8.16,0 -2.485,-12.795 -5.127,-25.434 -7.68,-38.16 -3.201,0.159 -7.04,-0.319 -9.84,0.239 3.303,12.459 6.068,25.453 9.36,37.921 z m 22.56,0 c 2.8,0 5.6,0 8.4,0 -2.605,-12.676 -5.255,-25.306 -7.68,-38.16 -2.96,0 -5.92,0 -8.88,0 2.57,12.869 5.639,25.241 8.16,38.16 z m 12.24,-38.16 c 0,0.239 0,0.479 0,0.72 -0.786,2.771 -1.094,5.559 -1.68,8.4 -0.563,2.73 -1.904,5.639 -1.92,8.399 -0.019,3.226 1.504,6.812 2.16,10.08 0.721,3.594 0.976,7.034 2.16,10.32 3.054,-12.466 5.906,-25.135 9.36,-37.2 2.723,12.717 6.011,24.868 8.88,37.44 2.72,0 5.44,0 8.16,0 -2.162,-13.039 -5.193,-25.207 -7.44,-38.16 -6.56,10e-4 -13.12,10e-4 -19.68,10e-4 z m 41.76,38.16 c 2.72,0 5.44,0 8.16,0 -2.432,-12.849 -5.074,-25.486 -7.68,-38.16 -2.88,0.159 -6.399,-0.319 -8.88,0.239 2.982,12.46 5.553,25.328 8.4,37.921 z m 12.48,-38.16 c -0.337,0.062 -0.273,0.526 -0.48,0.72 -0.275,5.884 -3.36,11.107 -3.36,16.8 0,6.786 3.601,13.186 3.84,20.16 3.781,-11.739 6.151,-24.889 9.6,-36.96 3.041,12.479 5.951,25.09 9.12,37.44 2.72,0 5.44,0 8.16,0 -2.471,-12.81 -5.113,-25.447 -7.68,-38.16 -6.4,0 -12.8,0 -19.2,0 z m 41.28,38.16 c 2.8,0 5.6,0 8.4,0 -2.59,-12.69 -5.238,-25.322 -7.68,-38.16 -2.96,0 -5.92,0 -8.88,0 2.589,12.852 5.648,25.232 8.16,38.16 z m 12.24,-38.16 c 0,0.239 0,0.479 0,0.72 -0.398,5.692 -3.551,11.438 -3.6,16.8 -0.029,3.217 1.503,6.807 2.16,10.08 0.716,3.567 1.106,7.021 2.16,10.32 3.025,-12.735 6.202,-25.318 9.36,-37.92 -3.36,0 -6.72,0 -10.08,0 z m 241.92,-15.36 c -8.415,3.372 -8.048,17.061 -7.92,29.28 0.085,8.131 0.275,16.839 4.08,20.88 3.665,3.893 10.656,3.604 17.04,3.6 0,-4.16 0,-8.319 0,-12.479 -7.865,0.855 -9.699,-2.73 -10.08,-9.601 -0.412,-7.439 -0.599,-17.997 3.12,-19.68 1.704,-0.771 4.864,-0.409 6.96,-0.479 0,-4.32 0,-8.641 0,-12.961 -4.37,0.469 -9.163,-0.178 -13.2,1.44 z m 17.52,-1.44 c 0,4.24 0,8.48 0,12.721 5.482,0.037 11.441,-0.401 10.319,6.24 3.601,0 7.2,0 10.801,0 1.377,-15.952 -5.891,-20.088 -21.12,-18.961 z m -231.84,0.48 c -0.56,17.68 -0.08,36.4 -0.24,54.48 3.6,0 7.2,0 10.8,0 0,-6.961 0,-13.921 0,-20.881 3.44,0 6.88,0 10.32,0 0,-4.479 0,-8.96 0,-13.439 -3.367,-0.152 -7.35,0.31 -10.32,-0.24 0,-6.64 0,-13.28 0,-19.92 -3.52,0 -7.04,0 -10.56,0 z m 35.76,0 c -0.718,6.162 0.237,13.997 -0.48,20.16 -3.36,0 -6.72,0 -10.08,0 0,4.479 0,8.96 0,13.439 3.36,0.16 7.359,-0.318 10.32,0.24 0,6.88 0,13.76 0,20.641 3.6,0 7.2,0 10.8,0 0,-18.16 0,-36.32 0,-54.48 -3.52,0 -7.04,0 -10.56,0 z m 89.04,0.72 c 0,17.92 0,35.84 0,53.761 3.04,0 6.08,0 9.12,0 0,-18.16 0,-36.32 0,-54.48 -2.96,0 -5.92,0 -8.88,0 -0.28,0.039 -0.26,0.379 -0.24,0.719 z m 35.28,0 c 0,17.92 0,35.84 0,53.761 3.6,0 7.199,0 10.8,0 0,-18.16 0,-36.32 0,-54.48 -3.521,0 -7.04,0 -10.561,0 -0.279,0.039 -0.26,0.379 -0.239,0.719 z m 15.12,12.48 c 5.163,0.935 12.471,-1.642 15.601,0.96 2.808,2.334 2.459,11.251 -0.48,12.96 -4.401,2.56 -9.821,-0.423 -15.12,0.72 0,4.4 0,8.8 0,13.2 8.618,-1.206 18.428,2.393 23.761,-2.16 5.531,-4.723 6.119,-26.518 2.159,-33.84 -4.407,-8.151 -15.191,-3.999 -25.68,-5.04 -0.561,3.921 -0.081,8.88 -0.241,13.2 z m 82.8,-13.2 c -0.561,17.68 -0.08,36.4 -0.24,54.48 3.6,0 7.2,0 10.8,0 0,-6.961 0,-13.921 0,-20.881 3.44,0 6.88,0 10.32,0 0,-4.479 0,-8.96 0,-13.439 -3.368,-0.152 -7.351,0.31 -10.32,-0.24 0,-6.64 0,-13.28 0,-19.92 -3.52,0 -7.04,0 -10.56,0 z m 35.76,0 c -0.718,6.162 0.237,13.997 -0.48,20.16 -3.359,0 -6.72,0 -10.08,0 0,4.479 0,8.96 0,13.439 3.361,0.16 7.359,-0.318 10.32,0.24 0,6.88 0,13.76 0,20.641 3.6,0 7.2,0 10.8,0 0,-18.16 0,-36.32 0,-54.48 -3.52,0 -7.04,0 -10.56,0 z m -229.2,15.36 c -8.399,0.081 -13.721,3.238 -13.44,12 3.04,0 6.08,0 9.12,0 0.264,-2.296 1.739,-3.381 4.56,-3.12 -0.159,-2.881 0.319,-6.399 -0.24,-8.88 z m 16.08,2.64 c -2.458,-2.336 -6.203,-2.412 -11.28,-2.64 -0.559,2.48 -0.081,5.999 -0.24,8.88 7.034,-0.732 5.28,8.241 5.28,15.12 0,5.778 0,11.162 0,15.12 3.12,0 6.24,0 9.36,0 -1.75,-11.444 3.605,-30.088 -3.12,-36.48 z m 21.12,-2.64 c -4.138,0.528 -8.524,0.688 -11.04,3.359 -5.761,6.119 -5.071,28.579 0.48,33.601 2.455,2.221 6.998,2.604 11.04,2.88 0,-3.44 0,-6.88 0,-10.32 -8.415,0.815 -8.683,-19.861 0,-18.96 -0.16,-3.44 0.319,-7.52 -0.24,-10.56 -0.08,0 -0.16,0 -0.24,0 z"
       clip-rule="evenodd"
       id="Text"
       inkscape:connector-curvature="0"
       style="fill:#eccc79;fill-rule:evenodd" />
    <g
       id="g5710"
       inkscape:export-filename="hackpgh_spatula.png"
       inkscape:export-xdpi="147.06"
       inkscape:export-ydpi="147.06">
      <path
         id="path5685"
         d="m -374.64557,329.81877 -73.55236,-241.742297 -134.50443,0 184.30881,249.239517 c 8.54417,-1.97393 15.99331,-4.48001 23.74798,-7.49722 z"
         style="fill:#231f20;fill-opacity:1;fill-rule:evenodd"
         inkscape:connector-curvature="0" />
      <path
         id="path5667"
         d="m -88.5,698.85846 0,-121.3528 c -52.447,-35.475 -105.35278,-71.55456 -158.20978,-107.42156 -4.037,6.923 -6.80073,14.69209 -11.45122,21.19237 -2.78767,3.8965 -6.59545,6.95092 -9.89317,10.42638 l 80.45317,98.05362 c 27.436,32.791 55.26528,66.53299 81.88828,99.10199 l 0,3.45629 17.21272,0 z"
         style="fill:#231f20;fill-opacity:1;fill-rule:evenodd"
         inkscape:connector-curvature="0"
         sodipodi:nodetypes="cccsccc" />
      <path
         id="path5665"
         d="m -251.28244,698.85846 -58.62865,-171.94261 c -4.71,1.498 -9.58191,3.55562 -14.24891,4.67962 -5.22,1.259 -10.599,1.035 -15.359,2.641 -3.874,1.307 -7.539,4.78 -10.801,6.72 -3.498,2.081 -6.55017,3.77578 -10.33017,5.27078 l -6.63551,152.63121 0,3.45629 116.00324,0 z"
         style="fill:#231f20;fill-opacity:1;fill-rule:evenodd"
         inkscape:connector-curvature="0"
         sodipodi:nodetypes="ccccccc" />
      <path
         id="path5663"
         d="m -423.52,347.27647 c -91.667,-66.716 -185.13,-133.147 -276.48,-198.72 v 111.36 c 85.561,33.941 171.964,68.446 259.44,102.96 2.178,-8.701 9.738,-12.022 17.04,-15.6 z"
         style="fill:#231f20;fill-opacity:1;fill-rule:evenodd"
         inkscape:connector-curvature="0" />
      <path
         id="path5661"
         d="m -448.48,451.19647 c 1.468,-8.853 2.316,-18.324 3.6,-27.36 -84.608,24.596 -170.978,50.503 -255.12,75.6 v 95.76 c 41.221,-23.011 83.891,-48.046 125.04,-71.28 42.141,-24.261 84.344,-48.452 126.48,-72.72 z"
         style="fill:#231f20;fill-opacity:1;fill-rule:evenodd"
         inkscape:connector-curvature="0" />
      <path
         id="path5659"
         d="m -665.2,416.39647 c 15.265,-1.373 30.728,-1.738 46.08,-3.12 8.195,-0.738 16.514,-0.481 24.72,-1.2 2.009,-0.176 5.665,-0.233 8.64,-0.48 47.257,-3.916 96.19,-5.554 143.28,-9.12 1.116,-5.364 0.993,-11.967 1.44,-18 -84.711,-13.089 -174.911,-25.675 -258.96,-37.92 v 72 c 1.695,-0.457 7.093,-0.698 10.08,-0.96 7.966,-0.698 17.108,-0.515 24.72,-1.2 z"
         style="fill:#231f20;fill-opacity:1;fill-rule:evenodd"
         inkscape:connector-curvature="0" />
      <path
         id="path5657"
         d="m -258.4,420.23647 c 4.818,5.021 10.724,8.957 13.92,15.6 52.242,18.32 103.649,36.73468 155.98,54.96668 l 0,-60.78466 c -56.428,-7.396 -112.527,-13.96202 -169.9,-21.30202 0.506,3.225 0.915,8.383 0,11.52 z"
         style="fill:#231f20;fill-opacity:1;fill-rule:evenodd"
         inkscape:connector-curvature="0" />
      <path
         id="path5655"
         d="m -296.01053,331.90418 c 5.162,4.758 7.90053,11.16129 8.33053,20.65229 2.039,1.889 5.47115,-1.02147 8.31015,-2.82647 L -88.5,228.79514 -88.5,99.201716 C -158.03,176.87071 -226.40753,254.31118 -296.01053,331.90418 z"
         style="fill:#231f20;fill-opacity:1;fill-rule:evenodd"
         inkscape:connector-curvature="0" />
      <path
         id="path5653"
         d="m -271.82881,370.4881 c 3.04,5.859 -3.99266,16.58468 3.36534,18.14168 l 179.981997,-17.75869 -0.0063,-59.51189 z"
         style="fill:#231f20;fill-opacity:1;fill-rule:evenodd"
         inkscape:connector-curvature="0" />
      <path
         id="path3412"
         d="m -354.16795,318.1249 c 9.6659,-7.87077 9.79446,-7.67453 16.56895,-8.28843 6.298,-0.374 11.459,3.026 15.359,6.24 l 89.52497,-227.999997 -121.45292,0 z"
         style="fill:#231f20;fill-opacity:1;fill-rule:evenodd"
         inkscape:connector-curvature="0" />
    </g>
    <g
       id="g5108"
       transform="translate(-1.4043,0)" />
    <g
       id="g3067"
       transform="translate(-0.99292,0)" />
    <g
       id="g3923"
       transform="translate(-900,0)"
       inkscape:export-filename="hackpgh_spatula.png"
       inkscape:export-xdpi="147.06"
       inkscape:export-ydpi="147.06">
      <path
         inkscape:connector-curvature="0"
         id="path3925"
         style="fill:#231f20;fill-opacity:1;fill-rule:evenodd"
         d="m 630.09375,443.28125 c 3.86,0.056 7.5375,5.81475 6.9375,9.34375 -0.686,4.04 -6.351,4.68775 -5.5,9.84375 -1.994,3.143 -5.1145,5.0035 -7.6875,7.9375 -2.999,3.419 -5.013,8.4945 -9.375,10.5625 -3.627,1.719 -8.47975,2.104 -15.34375,2.625 -3.044,0.231 -5.96425,1.7815 -8.65625,1.1875 -2.059,-0.453 -3.97325,-3.37325 -5.28125,-4.78125 -1.422,-1.53 -3.8245,-3.812 -4.3125,-5.75 -0.826,-3.277 0.94625,-7.95975 2.65625,-9.84375 2.207,-2.43 7.33525,-4.557 10.78125,-6.25 7.66,-3.766 14.87425,-6.9215 23.28125,-10.5625 3.628,-1.57 8.824,-4.3665 12.5,-4.3125 z m -79.125,-30.5 c 0.14439,-0.0202 0.27069,-0.0183 0.40625,0 1.624,0.218 2.045,4.03225 2.875,5.78125 2.96,6.238 7.9405,8.045 16.0625,9.125 -2.416,2.241 -4.72225,6.15675 -8.40625,6.46875 -3.352,0.283 -7.0115,-2.80825 -9.8125,-5.28125 -2.736,-2.415 -7.014,-5.90175 -6.5,-10.09375 0.16125,-1.30781 3.20921,-5.69749 5.375,-6 z M 614,408 c 2.316,1.317 3.95325,4 5.53125,6.25 1.531,2.184 3.7815,4.8145 4.0625,7.4375 0.381,3.547 -2.1765,9.25975 -4.5625,9.84375 -2.621,0.641 -5.43125,-1.5395 -7.90625,-1.9375 -2.91,-0.467 -7.03575,-0.969 -9.59375,-0.25 -1.757,0.495 -3.82325,2.8845 -5.28125,4.5625 -1.716,1.974 -3.0045,3.43825 -4.5625,5.28125 -3.05,3.61 -5.832,8.67675 -9.375,10.34375 -2.452,1.152 -8.316,1.71975 -12,0.21875 -1.639,-0.667 -2.48925,-3.74475 -4.78125,-3.59375 -2.955,0.195 -2.96525,6.042 -5.78125,6.25 -1.73,0.128 -6.57075,-4.66975 -6.46875,-6.96875 0.062,-1.44 3.25325,-3.99525 5.03125,-5.28125 5.957,-4.31 13.53375,-7.995 19.21875,-11.75 4.079,-2.693 8.35375,-5.48825 12.21875,-8.40625 4.052,-3.058 7.95825,-6.72225 11.78125,-8.65625 C 605.14825,409.51475 609.189,408.152 614,408 z m -45.375,-35.28125 c 6.285,0.115 9.12975,5.764 10.09375,12 -3.544,-3.816 -5.03875,-9.695 -10.09375,-12 z M 605.84375,362.75 c 2.64399,0.0594 4.3095,2.318 6,4.6875 1.086,1.521 2.834,4.08525 2.875,5.28125 0.093,2.673 -3.605,7.33825 -6,8.15625 -2.815,0.962 -7.2375,0.41425 -10.5625,1.90625 -3.317,1.489 -5.909,6.206 -8.625,6.25 -2.406,0.039 -5.846,-2.60025 -6.25,-5.03125 -0.818,-4.917 6.12,-9.61 8.875,-12 4.06,-3.521 7.67,-6.801 12,-8.875 0.16,-0.077 0.18675,-0.192 0.46875,-0.25 0.42037,-0.0867 0.84104,-0.13349 1.21875,-0.125 z m -50.5,-40 c 0.27557,6.6e-4 0.54062,-0.003 0.8125,0.0312 2.719,0.339 5.05625,2.257 8.15625,3.125 4.559,1.275 9.6,0.80575 15.375,1.21875 3.894,0.279 14.07625,4.16425 14.40625,7.90625 0.321,3.641 -4.9645,6.1075 -7.9375,7.4375 -3.557,1.592 -7.85475,2.724 -9.34375,6 -2.588,5.695 1.422,13.928 -3.375,18 -9.106,-4.46 -6.62575,-17.96475 -9.84375,-27.84375 -0.354,-1.09 -1.0425,-2.057 -1.6875,-2.875 -3.496,-4.441 -8.91725,-7.6655 -17.03125,-7.4375 1.87313,-2.01844 6.33519,-5.57247 10.46875,-5.5625 z m 7.53125,-9.3125 c -4.441,0.162 -9.21675,4.51375 -12.71875,6.96875 -4.096,2.871 -7.29325,6.347 -11.03125,8.625 -5.085,3.1 -12.10475,5.05375 -18.71875,7.21875 -6.522,2.135 -13.54125,3.46 -20.15625,5.5 -6.333,1.952 -12.38975,4.06875 -18.71875,6.96875 -5.372,2.46 -13.03775,5.80075 -16.09375,9.59375 -4.745,5.889 -2.923,17.54625 -2.875,26.40625 0.06,11.054 -1.39725,21.4505 -2.65625,31.4375 -1.886,14.961 -3.65675,30.42525 -6.46875,44.40625 -0.979,4.865 -2.84425,8.182 -5.53125,11.5 -4.726,5.834 -10.40875,11.795 -15.84375,18 -15.573,17.781 -31.85725,35.92775 -49.65625,52.09375 -5.862,5.323 -11.1565,11.4985 -17.0625,16.8125 -5.869,5.281 -12.4345,10.19875 -18.9375,15.09375 -6.498,4.893 -13.1215,10.1815 -19.9375,13.9375 -7.346,4.049 -15.33125,7.19425 -23.03125,10.78125 -15.255,7.111 -29.8105,15.374 -43.4375,24.5 -20.032,13.414 -40.484,27.876 -60,41.5 l 0,34.5625 227.75,0 c 18.194,-41.438 43.638,-78.88775 69.375,-114.21875 6.211,-8.526 12.8915,-17.70625 19.4375,-26.65625 3.759,-5.139 6.076,-10.00075 12,-12.71875 2.655,-1.218 5.72625,-1.584 8.40625,-2.625 2.546,-0.989 5.0615,-2.131 7.4375,-3.375 4.726,-2.474 8.8025,-6.33525 13.1875,-8.40625 5.227,-2.47 13.069,-1.4715 17.75,-4.0625 15.141,-3.285 28.60075,-9.82 39.84375,-17.75 10.77579,-7.15065 17.77937,-12.1452 24.71875,-21.84375 2.537,-3.613 3.544,-8.539 6,-12.5 0.55,-0.889 1.6365,-1.54225 2.1875,-2.40625 1.253,-1.968 3.52675,-7.67475 3.09375,-9.34375 0.02,0.074 -0.016,0.175 0,0.25 -3.254,7.227 -10.0215,10.90575 -16.3125,15.09375 -13.88691,8.56981 -19.12121,12.36209 -30.46875,14.40625 -5.302,0.619 -14.07425,4.18225 -17.53125,-0.46875 -4.789,4.903 -11.25625,10.073 -17.03125,15.125 -1.957,1.712 -4.247,4.60725 -6.25,5.28125 -3.723,1.253 -8.50725,0.6845 -13.90625,1.1875 -3.201,0.298 -5.2975,2.39925 -7.6875,2.40625 -10.302,0.036 -1.716,-17.434 -11.75,-18 -0.321,2.998 2.804,4.04125 2.875,8.40625 0.059,3.58 -0.0278,8.28225 -0.96875,11.28125 -6.501,0.611 -9.59675,-5.24225 -15.59375,-5.28125 -1.669,-0.011 -3.70525,1.1535 -5.53125,0.9375 -1.98,-0.234 -5.25975,-3.2565 -6.96875,-4.5625 -2.332,-1.782 -4.06275,-3.72225 -6.46875,-4.78125 1.187,2.411 3.18225,3.65 5.28125,5.75 2.134,2.134 7.7765,7.999 1.6875,9.375 -4.333,0.979 -8.489,-3.17075 -12.25,-1.21875 -0.722,1.513 0.161,3.3295 0.5,4.5625 -5.355,10.14 -12.41475,19.1735 -18.96875,28.5625 -6.525,9.349 -12.62375,19.0855 -18.96875,28.5625 -12.725,19.004 -25.32125,38.00125 -38.40625,56.65625 4.335,-13.699 14.383,-25.14375 18.5,-40.09375 1.464,-5.315 1.44075,-10.62075 3.84375,-15.84375 1.861,-4.044 4.668,-7.87325 8.375,-11.28125 3.602,-3.311 5.91225,-7.679 8.15625,-11.5 2.368,-4.032 5.6145,-7.72825 7.9375,-11.78125 2.486,-4.338 4.18775,-9.06775 6.96875,-12.46875 1.212,-1.482 3.58025,-2.7465 5.03125,-4.3125 1.699,-1.833 3.4675,-5.4835 4.3125,-7.9375 1.022,-2.966 1.271,-7.654 3.125,-8.875 1.778,-1.171 5.5805,-0.1785 7.4375,-1.1875 -0.938,-5.381 -4.39,-8.25775 -8.875,-10.09375 -1.35,1.496 0.76675,3.777 0.46875,6 -0.44,3.28 -5.6825,4.8605 -7.4375,7.4375 -1.189,1.747 -1.33425,4.099 -2.15625,6.25 -1.173,3.071 -4.07775,6.29875 -6.46875,9.59375 -6.62,9.126 -13.91125,18.78375 -20.15625,27.84375 -8.868,12.862 -17.2885,25.98425 -25.9375,37.90625 -13.577,18.716 -27.428,36.29325 -42,53.78125 -4.845,5.813 -9.61875,11.8215 -15.59375,16.3125 1.912,-7.212 6.01375,-12.92475 9.34375,-18.71875 10.421,-18.13 20.0405,-34.22975 32.1875,-52.09375 3.705,-5.448 7.604,-10.7435 11.5,-16.5625 3.827,-5.716 8.28725,-10.8985 8.65625,-19.4375 0.386,-8.934 -1.35925,-17.2705 -2.65625,-25.4375 -1.168,-7.357 -3.041,-17.52175 0.25,-24.71875 1.789,-3.91 6.029,-7.603 8.875,-11.5 3.001,-4.108 5.83125,-8.04825 8.65625,-11.53125 6.202,-7.646 11.09575,-16.03575 18.21875,-22.09375 3.905,1.68 6.496,5.27725 9.375,8.15625 5.792,5.793 11.71625,11.50225 17.28125,17.78125 2.699,3.045 5.045,6.456 8.375,8.875 -7,-15.64 -21.01925,-24.247 -31.65625,-36.25 3.041,1.12 5.749,4.667 8.875,6.5 -2.465,-5.315 -9.3095,-7.77825 -10.3125,-14.40625 -0.182,-1.201 0.15175,-3.51225 0.21875,-5.03125 0.378,-8.601 -0.0933,-16.07325 0.96875,-23.28125 0.998,-6.777 2.085,-13.58125 3.125,-20.90625 0.916,-6.451 0.8085,-14.42525 1.1875,-22.78125 0.5,-11.011 0.473,-20.33675 6.5,-25.21875 2.045,-1.656 4.9025,-2.8485 7.4375,-4.3125 7.491,-4.324 15.6975,-7.0045 24.9375,-10.0625 8.826,-2.921 17.38,-5.35025 27.125,-8.15625 5.747,-1.655 10.81075,-3.97475 12.96875,1.90625 1.94,5.291 -0.46775,12.756 -0.46875,18.25 1.553,1.103 4.115,0.7685 5.75,1.4375 2.649,1.084 6.27575,3.74275 6.46875,6.21875 0.396,5.072 -6.65375,6.85375 -9.59375,9.84375 -1.521,1.547 -2.882,4.04675 -2.625,6.96875 0.346,3.914 4.53175,8.38825 6.46875,11.28125 2.623,3.918 4.16525,7.22175 8.15625,9.59375 -1.512,-3.054 -3.51325,-6.2985 -5.53125,-10.3125 -1.542,-3.067 -5.32225,-7.47725 -4.78125,-11.53125 0.415,-3.119 5.4665,-6.5205 10.0625,-6.9375 11.423,-1.036 21.1135,12.9965 22.8125,22.3125 1.172,6.424 -5.4835,8.20875 -10.3125,9.84375 -4.355,1.476 -9.1675,2.93625 -13.9375,1.65625 -3.808,-1.022 -8.89375,-3.52475 -12.21875,-6.21875 -5.427,-4.396 -8.974,-11.69175 -15.375,-15.84375 -2.306,-1.495 -5.01975,-2.26475 -6.46875,-3.84375 -5.217,-5.684 -2.07025,-16.955 0.21875,-23.75 -8.555,1.446 -5.56725,14.4015 -7.65625,22.3125 -8.654,-1.827 -10.70325,-10.2865 -17.78125,-13.6875 -0.669,1.939 1.46125,3.1405 2.40625,4.3125 1.027,1.273 1.997,2.80375 2.875,4.09375 1.944,2.859 4.266,5.32025 6,8.15625 -1.239,1.939 -4.10075,2.89175 -6.71875,3.84375 -2.588,0.941 -5.14225,2.738 -7.65625,2.875 -4.154,0.227 -6.6605,-2.933 -10.5625,-2.875 -0.479,9.815 15.829,4.778 23.75,5.75 2.011,0.247 5.649,1.571 5.75,2.875 0.133,1.719 -3.94025,2.80925 -5.03125,2.90625 -3.689,0.327 -6.93375,-1.53675 -9.84375,-0.71875 1.176,6.986 15.136,3.276 21.375,6 0.205,4.847 -4.9955,6.09425 -5.0625,10.78125 -0.059,4.097 4.9085,5.827 4.8125,9.375 -0.179,6.607 -11.12025,0.95075 -14.40625,0.21875 1.814,4.563 4.906,6.69 9.125,9.125 3.319,1.917 10.3125,3.9185 10.3125,7.9375 0,4.8 -10.026,5.57375 -9.125,9.84375 0.483,2.284 4.32,0.97525 6.5,1.65625 -1.243,4.705 -5.67875,7.35375 -9.59375,10.09375 -2.024,1.417 -4.072,2.66675 -6.25,3.84375 -2.08,1.124 -4.826,1.9565 -5.75,4.3125 3.035,2.367 8.28375,1.45875 12.21875,0.71875 4.054,-0.764 7.85925,-2.871 11.28125,-2.625 0.272,2.583 -1.93675,4.55875 -3.59375,6.46875 -1.477,1.701 -3.29825,4.51125 -5.03125,5.28125 -0.947,0.42 -2.165,0.14375 -3.125,0.46875 -1.938,0.658 -2.9575,2.13425 -4.5625,2.65625 -4.481,1.454 -9.8635,1.37575 -13.6875,0.71875 -8.898,-1.53 -15.94225,-8.574 -22.78125,-12.25 5.64,6.76 15.05725,11.80525 22.78125,17.28125 -0.248,0.952 -2.263,0.13075 -2.625,0.96875 2.384,2.901 7.00125,4.335 11.28125,6 5.428,2.111 10.429,5.2175 17.75,4.3125 10.365,-1.281 17.169,-12.34425 21.125,-20.65625 4.866,-10.221 6.60625,-21.89775 8.15625,-33.59375 2.67,7.84 6.082,14.3415 12,19.6875 4.333,3.914 8.65075,7.8595 15.59375,7.6875 0.908,5.342 4.7265,8.68375 7.9375,12.21875 2.382,2.624 5.15725,5.12875 7.90625,7.21875 16.362,-2.737 27.9115,-9.1435 40.3125,-16.3125 3.952,-2.284 8.50825,-4.5355 11.28125,-7.4375 2.453,-2.566 4.704,-6.9445 6.5,-11.0625 1.885,-4.32 4.55075,-10.4615 3.34375,-16.0625 -1.464,-6.799 -6.49125,-11.01 -11.03125,-14.875 -1.673,-1.425 -3.8005,-2.63375 -4.3125,-4.34375 -0.563,-1.879 0.11575,-3.2105 0.21875,-4.5625 0.854,-11.258 -3.20325,-19.31275 -8.15625,-24.46875 -1.993,-2.074 -5.937,-3.8165 -6.25,-7.6875 -0.204,-2.511 1.03275,-5.0465 1.21875,-7.1875 0.64,-7.342 -2.4465,-15.8865 -7.9375,-19.4375 -1.781,-1.151 -7.228,-1.9285 -8.375,-4.3125 -1.308,-2.718 -0.68375,-5.67725 -1.21875,-8.40625 -2.694,-13.758 -19.84275,-18.9205 -30.46875,-25.6875 -3.692,-2.351 -7.99825,-6.95175 -14.40625,-6.71875 z M 478.88,551.03647 c 4.721,-7.05 9.856,-16.25 16.8,-20.4 h 0.48 c -3.761,7.052 -8.817,13.397 -13.44,19.921 -4.61,6.503 -9.229,13.005 -13.68,19.68 -8.911,13.363 -15.059,28.653 -25.92,40.56 8.984,-20.012 23.248,-41.076 35.76,-59.761 z" />
      <g
         id="g3927"
         transform="translate(1467.2967,0)">
        <path
           id="path3929"
           d="m -817.0625,457.20147 c -1.796,4.118 -4.047,8.4965 -6.5,11.0625 -2.773,2.902 -7.32925,5.1535 -11.28125,7.4375 -12.401,7.169 -23.9505,13.5755 -40.3125,16.3125 -2.749,-2.09 -5.52425,-4.59475 -7.90625,-7.21875 -3.211,-3.535 -7.0295,-6.87675 -7.9375,-12.21875 -6.943,0.172 -11.26075,-3.7735 -15.59375,-7.6875 -5.918,-5.346 -9.33,-11.8475 -12,-19.6875 -1.55,11.696 -3.29025,23.37275 -8.15625,33.59375 -3.956,8.312 -10.76,19.37525 -21.125,20.65625 -7.321,0.905 -12.322,-2.2015 -17.75,-4.3125 -4.28,-1.665 -8.89725,-3.099 -11.28125,-6 0.362,-0.838 2.377,-0.0168 2.625,-0.96875 -7.724,-5.476 -17.14125,-10.52125 -22.78125,-17.28125 6.839,3.676 13.88325,10.72 22.78125,12.25 3.824,0.657 9.2065,0.73525 13.6875,-0.71875 1.605,-0.522 2.6245,-1.99825 4.5625,-2.65625 0.96,-0.325 2.178,-0.0487 3.125,-0.46875 1.733,-0.77 3.55425,-3.58025 5.03125,-5.28125 1.657,-1.91 3.86575,-3.88575 3.59375,-6.46875 -3.422,-0.246 -7.22725,1.861 -11.28125,2.625 -3.935,0.74 -9.18375,1.64825 -12.21875,-0.71875 0.924,-2.356 3.67,-3.1885 5.75,-4.3125 2.178,-1.177 4.226,-2.42675 6.25,-3.84375 3.915,-2.74 8.35075,-5.38875 9.59375,-10.09375 -2.18,-0.681 -6.017,0.62775 -6.5,-1.65625 -0.901,-4.27 9.125,-5.04375 9.125,-9.84375 0,-4.019 -6.9935,-6.0205 -10.3125,-7.9375 -4.219,-2.435 -7.311,-4.562 -9.125,-9.125 3.286,0.732 14.22725,6.38825 14.40625,-0.21875 0.096,-3.548 -4.8715,-5.278 -4.8125,-9.375 0.067,-4.687 5.2675,-5.93425 5.0625,-10.78125 -6.239,-2.724 -20.199,0.986 -21.375,-6 2.91,-0.818 6.15475,1.04575 9.84375,0.71875 1.091,-0.097 5.16425,-1.18725 5.03125,-2.90625 -0.101,-1.304 -3.739,-2.628 -5.75,-2.875 -7.921,-0.972 -24.229,4.065 -23.75,-5.75 3.902,-0.058 6.4085,3.102 10.5625,2.875 2.514,-0.137 5.06825,-1.934 7.65625,-2.875 2.618,-0.952 5.47975,-1.90475 6.71875,-3.84375 -1.734,-2.836 -4.056,-5.29725 -6,-8.15625 -0.878,-1.29 -1.848,-2.82075 -2.875,-4.09375 -0.945,-1.172 -3.07525,-2.3735 -2.40625,-4.3125 7.078,3.401 9.12725,11.8605 17.78125,13.6875 2.089,-7.911 -0.89875,-20.8665 7.65625,-22.3125 -2.289,6.795 -5.43575,18.066 -0.21875,23.75 1.449,1.579 4.16275,2.34875 6.46875,3.84375 6.401,4.152 9.948,11.44775 15.375,15.84375 3.325,2.694 8.41075,5.19675 12.21875,6.21875 4.77,1.28 9.5825,-0.18025 13.9375,-1.65625 4.829,-1.635 11.4845,-3.41975 10.3125,-9.84375 -1.699,-9.316 -11.3895,-23.3485 -22.8125,-22.3125 -4.596,0.417 -9.6475,3.8185 -10.0625,6.9375 -0.541,4.054 3.23925,8.46425 4.78125,11.53125 2.018,4.014 4.01925,7.2585 5.53125,10.3125 -3.991,-2.372 -5.53325,-5.67575 -8.15625,-9.59375 -1.937,-2.893 -6.12275,-7.36725 -6.46875,-11.28125 -0.257,-2.922 1.104,-5.42175 2.625,-6.96875 2.94,-2.99 9.98975,-4.77175 9.59375,-9.84375 -0.193,-2.476 -3.81975,-5.13475 -6.46875,-6.21875 -1.635,-0.669 -4.197,-0.3345 -5.75,-1.4375 10e-4,-5.494 2.40875,-12.959 0.46875,-18.25 -2.158,-5.881 -7.22175,-3.56125 -12.96875,-1.90625 -9.745,2.806 -18.299,5.23525 -27.125,8.15625 -9.24,3.058 -17.4465,5.7385 -24.9375,10.0625 -2.535,1.464 -5.3925,2.6565 -7.4375,4.3125 -6.02695,4.882 -5.99995,14.20775 -6.49995,25.21875 -0.3791,8.356 -0.2716,16.33025 -1.1875,22.78125 -1.04,7.325 -2.127,14.12925 -3.125,20.90625 -1.0618,7.208 -0.5908,14.68025 -0.9688,23.28125 -0.067,1.519 -0.4008,3.83025 -0.2187,5.03125 1.0029,6.628 7.8475,9.09125 10.31245,14.40625 -3.12595,-1.833 -5.83405,-5.38 -8.87495,-6.5 10.63693,12.003 24.6562,20.61 31.6562,36.25 -3.33,-2.419 -5.676,-5.83 -8.375,-8.875 -5.565,-6.279 -11.48927,-11.98825 -17.2812,-17.78125 -2.8791,-2.879 -5.4701,-6.47625 -9.375,-8.15625 -7.1231,6.058 -12.0168,14.44775 -18.2188,22.09375 -2.825,3.483 -5.6553,7.42325 -8.6563,11.53125 -2.846,3.897 -7.086,7.59 -8.875,11.5 -3.291,7.197 -1.418,17.36175 -0.25,24.71875 1.297,8.167 3.0423,16.5035 2.6563,25.4375 -0.369,8.539 -4.8293,13.7215 -8.6563,19.4375 -3.896,5.819 -7.795,11.1145 -11.5,16.5625 -12.147,17.864 -21.7665,33.96375 -32.1875,52.09375 -3.33,5.794 -7.4317,11.50675 -9.3437,18.71875 5.975,-4.491 10.7487,-10.4995 15.5937,-16.3125 14.5721,-17.488 28.423,-35.06525 42,-53.78125 8.649,-11.922 17.0695,-25.04425 25.9376,-37.90625 6.245,-9.06 13.5362,-18.71775 20.1562,-27.84375 2.39103,-3.295 5.29575,-6.52275 6.46875,-9.59375 0.822,-2.151 0.96725,-4.503 2.15625,-6.25 1.755,-2.577 6.9975,-4.1575 7.4375,-7.4375 0.298,-2.223 -1.81875,-4.504 -0.46875,-6 4.485,1.836 7.937,4.71275 8.875,10.09375 -1.857,1.009 -5.6595,0.0165 -7.4375,1.1875 -1.854,1.221 -2.103,5.909 -3.125,8.875 -0.845,2.454 -2.6135,6.1045 -4.3125,7.9375 -1.451,1.566 -3.81925,2.8305 -5.03125,4.3125 -2.781,3.401 -4.4827,8.13075 -6.9687,12.46875 -2.323,4.053 -5.5696,7.74925 -7.9375,11.78125 -2.2441,3.821 -4.5543,8.189 -8.1563,11.5 -3.707,3.408 -6.514,7.23725 -8.375,11.28125 -2.403,5.223 -2.3798,10.52875 -3.8438,15.84375 -4.117,14.95 -14.165,26.39475 -18.5,40.09375 13.085,-18.655 25.6813,-37.65225 38.4063,-56.65625 6.345,-9.477 12.44375,-19.2135 18.96875,-28.5625 6.554,-9.389 13.61375,-18.4225 18.96875,-28.5625 -0.339,-1.233 -1.222,-3.0495 -0.5,-4.5625 3.761,-1.952 7.917,2.19775 12.25,1.21875 6.089,-1.376 0.4465,-7.241 -1.6875,-9.375 -2.099,-2.1 -4.09425,-3.339 -5.28125,-5.75 2.406,1.059 4.13675,2.99925 6.46875,4.78125 1.709,1.306 4.98875,4.3285 6.96875,4.5625 1.826,0.216 3.86225,-0.9485 5.53125,-0.9375 5.997,0.039 9.09275,5.89225 15.59375,5.28125 0.94095,-2.999 1.02775,-7.70125 0.96875,-11.28125 -0.071,-4.365 -3.196,-5.40825 -2.875,-8.40625 10.034,0.566 1.448,18.036 11.75,18 2.39,-0.007 4.4865,-2.10825 7.6875,-2.40625 5.399,-0.503 10.18325,0.0655 13.90625,-1.1875 2.003,-0.674 4.293,-3.56925 6.25,-5.28125 5.775,-5.052 12.24225,-10.222 17.03125,-15.125 3.457,4.651 12.22925,1.08775 17.53125,0.46875 11.34754,-2.04416 16.58184,-5.83644 30.46875,-14.40625 6.291,-4.188 13.0585,-7.86675 16.3125,-15.09375"
           style="fill:#eccc79;fill-opacity:1;stroke:none"
           inkscape:connector-curvature="0" />
        <path
           id="path3931"
           d="m -911.96875,322.76397 c -4.13356,-0.01 -8.59562,3.54406 -10.46875,5.5625 8.114,-0.228 13.53525,2.9965 17.03125,7.4375 0.645,0.818 1.3335,1.785 1.6875,2.875 3.218,9.879 0.73775,23.38375 9.84375,27.84375 4.797,-4.072 0.787,-12.305 3.375,-18 1.489,-3.276 5.78675,-4.408 9.34375,-6 2.973,-1.33 8.2585,-3.7965 7.9375,-7.4375 -0.33,-3.742 -10.51225,-7.62725 -14.40625,-7.90625 -5.775,-0.413 -10.816,0.0562 -15.375,-1.21875 -3.1,-0.868 -5.43725,-2.786 -8.15625,-3.125 -0.27188,-0.0342 -0.53693,-0.0306 -0.8125,-0.0312 z"
           style="fill:#eccc79;fill-opacity:1;stroke:none"
           inkscape:connector-curvature="0" />
        <path
           id="path3933"
           d="m -862.0625,362.76397 c -0.20493,0.0215 -0.41481,0.0817 -0.625,0.125 -0.282,0.058 -0.30875,0.173 -0.46875,0.25 -4.33,2.074 -7.94,5.354 -12,8.875 -2.755,2.39 -9.693,7.083 -8.875,12 0.404,2.431 3.844,5.07025 6.25,5.03125 2.716,-0.044 5.308,-4.761 8.625,-6.25 3.325,-1.492 7.7475,-0.94425 10.5625,-1.90625 2.395,-0.818 6.093,-5.48325 6,-8.15625 -0.041,-1.196 -1.789,-3.76025 -2.875,-5.28125 -1.6905,-2.3695 -3.35601,-4.6281 -6,-4.6875 -0.18885,-0.004 -0.38882,-0.0215 -0.59375,0 z"
           style="fill:#eccc79;fill-opacity:1;stroke:none"
           inkscape:connector-curvature="0" />
        <path
           id="path3935"
           d="m -898.6875,372.73272 c 5.055,2.305 6.54975,8.184 10.09375,12 -0.964,-6.236 -3.80875,-11.885 -10.09375,-12 z"
           style="fill:#eccc79;fill-opacity:1;stroke:none"
           inkscape:connector-curvature="0" />
        <path
           id="path3937"
           d="m -853.3125,408.01397 c -4.811,0.152 -8.85175,1.51475 -12.46875,3.34375 -3.823,1.934 -7.72925,5.59825 -11.78125,8.65625 -3.865,2.918 -8.13975,5.71325 -12.21875,8.40625 -5.685,3.755 -13.26175,7.44 -19.21875,11.75 -1.778,1.286 -4.96925,3.84125 -5.03125,5.28125 -0.102,2.299 4.73875,7.09675 6.46875,6.96875 2.816,-0.208 2.82625,-6.055 5.78125,-6.25 2.292,-0.151 3.14225,2.92675 4.78125,3.59375 3.684,1.501 9.548,0.93325 12,-0.21875 3.543,-1.667 6.325,-6.73375 9.375,-10.34375 1.558,-1.843 2.8465,-3.30725 4.5625,-5.28125 1.458,-1.678 3.52425,-4.0675 5.28125,-4.5625 2.558,-0.719 6.68375,-0.217 9.59375,0.25 2.475,0.398 5.28525,2.5785 7.90625,1.9375 2.386,-0.584 4.9435,-6.29675 4.5625,-9.84375 -0.281,-2.623 -2.5315,-5.2535 -4.0625,-7.4375 -1.578,-2.25 -3.21525,-4.933 -5.53125,-6.25 z"
           style="fill:#eccc79;fill-opacity:1;stroke:none"
           inkscape:connector-curvature="0" />
        <path
           id="path3939"
           d="m -916.34375,412.79522 c -2.16579,0.30251 -5.21375,4.69219 -5.375,6 -0.514,4.192 3.764,7.67875 6.5,10.09375 2.801,2.473 6.4605,5.56425 9.8125,5.28125 3.684,-0.312 5.99025,-4.22775 8.40625,-6.46875 -8.122,-1.08 -13.1025,-2.887 -16.0625,-9.125 -0.83,-1.749 -1.251,-5.56325 -2.875,-5.78125 -0.13556,-0.0183 -0.26186,-0.0202 -0.40625,0 z"
           style="fill:#eccc79;fill-opacity:1;stroke:none"
           inkscape:connector-curvature="0" />
        <path
           id="path3941"
           d="m -837.9375,443.29522 c -3.61307,0.26849 -8.38,2.84062 -11.78125,4.3125 -8.407,3.641 -15.62125,6.7965 -23.28125,10.5625 -3.446,1.693 -8.57425,3.82 -10.78125,6.25 -1.71,1.884 -3.48225,6.56675 -2.65625,9.84375 0.488,1.938 2.8905,4.22 4.3125,5.75 1.308,1.408 3.22225,4.32825 5.28125,4.78125 2.692,0.594 5.61225,-0.9565 8.65625,-1.1875 6.864,-0.521 11.71675,-0.906 15.34375,-2.625 4.362,-2.068 6.376,-7.1435 9.375,-10.5625 2.573,-2.934 5.6935,-4.7945 7.6875,-7.9375 -0.851,-5.156 4.814,-5.80375 5.5,-9.84375 0.6,-3.529 -3.0775,-9.28775 -6.9375,-9.34375 -0.22975,-0.003 -0.47788,-0.0179 -0.71875,0 z"
           style="fill:#eccc79;fill-opacity:1;stroke:none"
           inkscape:connector-curvature="0" />
        <path
           id="path3943"
           d="m -971.625,530.63897 c -6.944,4.15 -12.0915,13.35625 -16.8125,20.40625 -12.512,18.685 -26.766,39.738 -35.75,59.75 10.861,-11.907 16.9952,-27.1995 25.90625,-40.5625 4.451,-6.675 9.0775,-13.1845 13.6875,-19.6875 4.623,-6.524 9.6765,-12.85425 13.4375,-19.90625 z"
           style="fill:#eccc79;fill-opacity:1;stroke:none"
           inkscape:connector-curvature="0" />
      </g>
    </g>
    <g
       id="g4047"
       transform="translate(-620,0)"
       style="stroke:#eccc79;stroke-width:4;stroke-miterlimit:4;stroke-opacity:1;stroke-dasharray:none"
       inkscape:export-filename="hackpgh_spatula.png"
       inkscape:export-xdpi="147.06"
       inkscape:export-ydpi="147.06">
      <path
         id="path4043"
         d="m 186.75,136.82647 c -0.98853,-0.0801 -1.98623,0.11554 -2.84375,0.625 -2.25084,1.33739 -3.08731,4.59286 -1.75,6.84375 l 44,76.21875 c 1.28843,2.30634 4.58711,3.22717 6.875,1.90625 2.28789,-1.32092 3.16567,-4.63729 1.8125,-6.90625 l -44,-76.21875 c -0.81318,-1.44995 -2.4462,-2.3353 -4.09375,-2.46875 z"
         style="fill:#eccc79;fill-opacity:1;stroke:#eccc79;stroke-width:4;stroke-miterlimit:4;stroke-opacity:1;stroke-dasharray:none"
         inkscape:connector-curvature="0" />
      <path
         id="path4041"
         d="m 162.78125,146.70147 c -0.65605,0.0743 -1.27193,0.28043 -1.84375,0.625 -2.23366,1.34613 -3.05102,4.6018 -1.71875,6.84375 l 52.8125,91.5 c 1.28842,2.30634 4.58711,3.22716 6.875,1.90625 2.28789,-1.32091 3.13443,-4.6373 1.78125,-6.90625 l -52.8125,-91.5 c -0.97951,-1.74695 -3.12561,-2.69173 -5.09375,-2.46875 z"
         style="fill:#eccc79;fill-opacity:1;stroke:#eccc79;stroke-width:4;stroke-miterlimit:4;stroke-opacity:1;stroke-dasharray:none"
         inkscape:connector-curvature="0" />
      <path
         id="path4039"
         d="m 141.78125,158.17022 c -0.99266,-0.0767 -2.01728,0.1394 -2.875,0.65625 -2.23367,1.34613 -3.05101,4.60181 -1.71875,6.84375 l 61,105.65625 c 1.28843,2.30634 4.58711,3.19592 6.875,1.875 2.2879,-1.32092 3.13442,-4.60604 1.78125,-6.875 l -61,-105.65625 c -0.81626,-1.45579 -2.40807,-2.37209 -4.0625,-2.5 z"
         style="fill:#eccc79;fill-opacity:1;stroke:#eccc79;stroke-width:4;stroke-miterlimit:4;stroke-opacity:1;stroke-dasharray:none"
         inkscape:connector-curvature="0" />
      <path
         id="path4037"
         d="m 120.8125,171.51397 c -0.98853,-0.0801 -1.98623,0.11554 -2.84375,0.625 -2.25084,1.33738 -3.08731,4.62412 -1.75,6.875 l 52.8125,91.5 c 1.28843,2.30633 4.5871,3.19593 6.875,1.875 2.28789,-1.3209 3.13442,-4.60604 1.78125,-6.875 l -52.8125,-91.5 c -0.81317,-1.44994 -2.41495,-2.36655 -4.0625,-2.5 z"
         style="fill:#eccc79;fill-opacity:1;stroke:#eccc79;stroke-width:4;stroke-miterlimit:4;stroke-opacity:1;stroke-dasharray:none"
         inkscape:connector-curvature="0" />
      <path
         id="rect4029"
         d="m 99.78125,186.48272 c -0.65605,0.0743 -1.30319,0.28043 -1.875,0.625 -2.23366,1.34612 -3.05102,4.6018 -1.71875,6.84375 l 44,76.21875 c 1.28843,2.30634 4.58711,3.19591 6.875,1.875 2.28789,-1.32092 3.13441,-4.60604 1.78125,-6.875 l -44,-76.21875 c -0.97952,-1.74695 -3.09436,-2.69173 -5.0625,-2.46875 z"
         style="fill:#eccc79;fill-opacity:1;stroke:#eccc79;stroke-width:4;stroke-miterlimit:4;stroke-opacity:1;stroke-dasharray:none"
         inkscape:connector-curvature="0" />
      <path
         style="fill:#231f20;fill-opacity:1;stroke:#eccc79;stroke-width:4;stroke-miterlimit:4;stroke-opacity:1;stroke-dasharray:none"
         d="m 248.42016,336.74725 c -8.95029,-16.24335 -5.19809,-34.76591 2.6634,-60.82437 4.26603,-14.14068 20.96807,-50.18222 17.37747,-56.40133 l -8.25001,-14.28942 -59.07533,-90.38399 c -5.44072,-9.73042 -40.82588,4.51566 -73.50686,23.4949 -32.68099,18.97923 -62.6716,42.69958 -57.29004,52.02072 l 48.25002,96.63399 8.25,14.28943 c 3.65476,6.33022 38.40882,8.96965 57.60879,13.46884 17.74875,3.15129 41.86521,9.38953 53.16399,28.52024 L 397.16793,654.0634 c 3.29172,5.70142 12.90918,10.83578 17.99168,7.90139 7.16602,-4.1373 14.33206,-8.27461 21.49809,-12.41192 4.66594,-2.69388 7.03814,-11.03047 2.11731,-19.55359 z M 138.91039,158.82076 c 2.28725,-1.37828 5.63654,-0.49189 6.94256,1.83738 l 61,105.65509 c 1.35317,2.26896 0.49338,5.57088 -1.79452,6.8918 -2.28789,1.32092 -5.5773,0.41454 -6.86573,-1.8918 l -61,-105.6551 c -1.33226,-2.24194 -0.51598,-5.49124 1.71769,-6.83737 z m -20.95701,13.3264 c 2.28672,-1.35857 5.61443,-0.4669 6.9155,1.853 l 52.82813,91.501 c 1.35317,2.26896 0.49337,5.57089 -1.79452,6.89179 -2.2879,1.32093 -5.57731,0.41454 -6.86574,-1.89179 l -52.82812,-91.501 c -1.33731,-2.25088 -0.50609,-5.51562 1.74475,-6.853 z m 42.97651,-24.8125 c 2.28726,-1.37828 5.63654,-0.49189 6.94256,1.83738 l 52.82813,91.501 c 1.35318,2.26895 0.49337,5.57088 -1.79452,6.89179 -2.28789,1.32091 -5.57731,0.41454 -6.86573,-1.8918 l -52.82812,-91.50099 c -1.33227,-2.24195 -0.51598,-5.49125 1.71768,-6.83738 z m -63.02308,39.77833 c 2.28725,-1.37828 5.63654,-0.4919 6.94257,1.83737 l 44,76.21024 c 1.35316,2.26896 0.49337,5.57088 -1.79452,6.8918 -2.28789,1.32091 -5.57731,0.41454 -6.86574,-1.8918 L 96.18913,193.95036 c -1.33227,-2.24195 -0.51598,-5.49125 1.71768,-6.83737 z m 86.00715,-49.65626 c 2.28672,-1.35856 5.61442,-0.46691 6.9155,1.85301 l 44.00001,76.21023 c 1.35317,2.26896 0.49336,5.57088 -1.79453,6.8918 -2.28789,1.32092 -5.5773,0.41454 -6.86573,-1.8918 l -44,-76.21023 c -1.33731,-2.25089 -0.50609,-5.51562 1.74475,-6.85301 z"
         id="path3899"
         inkscape:connector-curvature="0"
         sodipodi:nodetypes="cssccsccscccccccccccccccccccccccccccccccccccccccccc" />
    </g>
    <g
       id="g4019"
       transform="translate(-900,0)"
       inkscape:export-filename="hackpgh_spatula.png"
       inkscape:export-xdpi="147.06"
       inkscape:export-ydpi="147.06">
      <path
         id="path5669"
         transform="translate(-720,68.076473)"
         d="m 1282.875,245.375 c -4.441,0.162 -9.2168,4.51375 -12.7188,6.96875 -4.096,2.871 -7.2932,6.347 -11.0312,8.625 -5.085,3.1 -12.1047,5.05375 -18.7188,7.21875 -6.5219,2.135 -13.5412,3.46 -20.1562,5.5 -6.333,1.952 -12.3898,4.06875 -18.7188,6.96875 -5.372,2.46 -13.0377,5.80075 -16.0937,9.59375 -4.745,5.889 -2.923,17.54625 -2.875,26.40625 0.06,11.054 -1.3972,21.4505 -2.6563,31.4375 -1.8859,14.961 -3.6567,30.42525 -6.4687,44.40625 -0.979,4.865 -2.8443,8.182 -5.5313,11.5 -2.1828,2.69456 -4.5901,5.39598 -7.0624,8.15625 0.6633,0.42746 1.327,0.83126 2,1.25 4.4902,-6.06569 8.6659,-12.14776 14.1874,-16.84375 3.905,1.68 6.4961,5.27725 9.375,8.15625 5.792,5.793 11.7163,11.50225 17.2813,17.78125 2.699,3.045 5.045,6.456 8.375,8.875 -7,-15.64 -21.0193,-24.247 -31.6563,-36.25 3.041,1.12 5.7491,4.667 8.875,6.5 -2.4649,-5.315 -9.3095,-7.77825 -10.3124,-14.40625 -0.1821,-1.201 0.1517,-3.51225 0.2187,-5.03125 0.378,-8.601 -0.093,-16.07325 0.9687,-23.28125 0.9981,-6.777 2.0851,-13.58125 3.125,-20.90625 0.916,-6.451 0.8086,-14.42525 1.1876,-22.78125 0.5,-11.011 0.4729,-20.33675 6.5,-25.21875 2.045,-1.656 4.9024,-2.8485 7.4374,-4.3125 7.491,-4.324 15.6975,-7.0045 24.9376,-10.0625 8.826,-2.921 17.38,-5.35025 27.125,-8.15625 5.7469,-1.655 10.8107,-3.97475 12.9687,1.90625 1.94,5.291 -0.4678,12.756 -0.4687,18.25 1.5529,1.103 4.115,0.7685 5.75,1.4375 2.6489,1.084 6.2757,3.74275 6.4687,6.21875 0.396,5.072 -6.6537,6.85375 -9.5937,9.84375 -1.521,1.547 -2.8821,4.04675 -2.625,6.96875 0.346,3.914 4.5317,8.38825 6.4687,11.28125 2.623,3.918 4.1653,7.22175 8.1563,9.59375 -1.512,-3.054 -3.5133,-6.2985 -5.5313,-10.3125 -1.542,-3.067 -5.3223,-7.47725 -4.7813,-11.53125 0.415,-3.119 5.4665,-6.5205 10.0626,-6.9375 11.423,-1.036 21.1134,12.9965 22.8124,22.3125 1.1721,6.424 -5.4835,8.20875 -10.3124,9.84375 -4.3551,1.476 -9.1676,2.93625 -13.9376,1.65625 -3.8079,-1.022 -8.8937,-3.52475 -12.2187,-6.21875 -5.427,-4.396 -8.974,-11.69175 -15.375,-15.84375 -2.306,-1.495 -5.0197,-2.26475 -6.4687,-3.84375 -5.2171,-5.684 -2.0703,-16.955 0.2187,-23.75 -8.555,1.446 -5.5673,14.4015 -7.6563,22.3125 -8.6539,-1.827 -10.7032,-10.2865 -17.7812,-13.6875 -0.669,1.939 1.4613,3.1405 2.4062,4.3125 1.0271,1.273 1.9971,2.80375 2.875,4.09375 1.944,2.859 4.2661,5.32025 6,8.15625 -1.239,1.939 -4.1007,2.89175 -6.7187,3.84375 -2.588,0.941 -5.1422,2.738 -7.6563,2.875 -4.1539,0.227 -6.6604,-2.933 -10.5624,-2.875 -0.4791,9.815 15.8289,4.778 23.75,5.75 2.0109,0.247 5.6489,1.571 5.75,2.875 0.133,1.719 -3.9403,2.80925 -5.0313,2.90625 -3.689,0.327 -6.9337,-1.53675 -9.8437,-0.71875 1.1759,6.986 15.1359,3.276 21.375,6 0.2049,4.847 -4.9955,6.09425 -5.0626,10.78125 -0.059,4.097 4.9086,5.827 4.8126,9.375 -0.1791,6.607 -11.1203,0.95075 -14.4063,0.21875 1.814,4.563 4.906,6.69 9.125,9.125 3.319,1.917 10.3125,3.9185 10.3125,7.9375 0,4.8 -10.026,5.57375 -9.125,9.84375 0.483,2.284 4.32,0.97525 6.5,1.65625 -1.243,4.705 -5.6788,7.35375 -9.5938,10.09375 -2.0239,1.417 -4.072,2.66675 -6.25,3.84375 -2.0799,1.124 -4.826,1.9565 -5.75,4.3125 3.0351,2.367 8.2838,1.45875 12.2188,0.71875 4.054,-0.764 7.8592,-2.871 11.2812,-2.625 0.272,2.583 -1.9367,4.55875 -3.5937,6.46875 -1.477,1.701 -3.2983,4.51125 -5.0313,5.28125 -0.947,0.42 -2.1649,0.14375 -3.125,0.46875 -1.938,0.658 -2.9574,2.13425 -4.5624,2.65625 -4.481,1.454 -9.8635,1.37575 -13.6876,0.71875 -8.898,-1.53 -15.9422,-8.574 -22.7812,-12.25 5.64,6.76 15.0573,11.80525 22.7812,17.28125 -0.248,0.952 -2.2629,0.13075 -2.625,0.96875 2.3841,2.901 7.0013,4.335 11.2813,6 5.428,2.111 10.429,5.2175 17.75,4.3125 10.365,-1.281 17.169,-12.34425 21.125,-20.65625 4.866,-10.221 6.6063,-21.89775 8.1563,-33.59375 2.67,7.84 6.0819,14.3415 12,19.6875 4.333,3.914 8.6507,7.8595 15.5937,7.6875 0.908,5.342 4.7265,8.68375 7.9375,12.21875 2.382,2.624 5.1572,5.12875 7.9062,7.21875 16.3621,-2.737 27.9116,-9.1435 40.3126,-16.3125 3.9519,-2.284 8.5082,-4.5355 11.2812,-7.4375 2.453,-2.566 4.704,-6.9445 6.5,-11.0625 1.885,-4.32 4.5507,-10.4615 3.3438,-16.0625 -1.464,-6.799 -6.4913,-11.01 -11.0313,-14.875 -1.673,-1.425 -3.8005,-2.63375 -4.3125,-4.34375 -0.563,-1.879 0.1157,-3.2105 0.2188,-4.5625 0.854,-11.258 -3.2033,-19.31275 -8.1563,-24.46875 -1.993,-2.074 -5.937,-3.8165 -6.25,-7.6875 -0.204,-2.511 1.0327,-5.0465 1.2187,-7.1875 0.64,-7.342 -2.4465,-15.8865 -7.9374,-19.4375 -1.781,-1.151 -7.2281,-1.9285 -8.375,-4.3125 -1.308,-2.718 -0.6838,-5.67725 -1.2188,-8.40625 -2.694,-13.758 -19.8428,-18.9205 -30.4688,-25.6875 -3.692,-2.351 -7.9982,-6.95175 -14.4062,-6.71875 z m -7.5312,9.3125 c 0.2755,6.6e-4 0.5406,-0.003 0.8124,0.0312 2.7191,0.339 5.0563,2.257 8.1563,3.125 4.559,1.275 9.6,0.80575 15.375,1.21875 3.894,0.279 14.0763,4.16425 14.4063,7.90625 0.3209,3.641 -4.9646,6.1075 -7.9376,7.4375 -3.557,1.592 -7.8547,2.724 -9.3437,6 -2.588,5.695 1.422,13.928 -3.375,18 -9.106,-4.46 -6.6258,-17.96475 -9.8437,-27.84375 -0.3541,-1.09 -1.0426,-2.057 -1.6876,-2.875 -3.496,-4.441 -8.9172,-7.6655 -17.0312,-7.4375 1.8731,-2.01844 6.3352,-5.57247 10.4688,-5.5625 z m 49.9062,40 c 0.2049,-0.0215 0.4049,-0.004 0.5938,0 2.6439,0.0594 4.3094,2.318 6,4.6875 1.086,1.521 2.8339,4.08525 2.875,5.28125 0.093,2.673 -3.6051,7.33825 -6,8.15625 -2.8151,0.962 -7.2375,0.41425 -10.5626,1.90625 -3.317,1.489 -5.909,6.206 -8.625,6.25 -2.4059,0.039 -5.846,-2.60025 -6.25,-5.03125 -0.8179,-4.917 6.12,-9.61 8.875,-12 4.06,-3.521 7.6701,-6.801 12,-8.875 0.16,-0.077 0.1868,-0.192 0.4688,-0.25 0.2102,-0.0433 0.4201,-0.10353 0.625,-0.125 z m -36.625,9.96875 c 6.285,0.115 9.1298,5.764 10.0938,12 -3.544,-3.816 -5.0388,-9.695 -10.0938,-12 z M 1334,339.9375 c 2.316,1.317 3.9533,4 5.5312,6.25 1.531,2.184 3.7816,4.8145 4.0626,7.4375 0.3809,3.547 -2.1766,9.25975 -4.5626,9.84375 -2.621,0.641 -5.4312,-1.5395 -7.9062,-1.9375 -2.91,-0.467 -7.0358,-0.969 -9.5938,-0.25 -1.757,0.495 -3.8232,2.8845 -5.2812,4.5625 -1.716,1.974 -3.0045,3.43825 -4.5625,5.28125 -3.05,3.61 -5.832,8.67675 -9.375,10.34375 -2.452,1.152 -8.316,1.71975 -12,0.21875 -1.639,-0.667 -2.4893,-3.74475 -4.7813,-3.59375 -2.9549,0.195 -2.9652,6.042 -5.7812,6.25 -1.73,0.128 -6.5707,-4.66975 -6.4688,-6.96875 0.062,-1.44 3.2533,-3.99525 5.0313,-5.28125 5.957,-4.31 13.5338,-7.995 19.2187,-11.75 4.079,-2.693 8.3538,-5.48825 12.2188,-8.40625 4.052,-3.058 7.9583,-6.72225 11.7812,-8.65625 3.617,-1.829 7.6578,-3.19175 12.4688,-3.34375 z m -63.0312,4.78125 c 0.1443,-0.0202 0.2706,-0.0183 0.4062,0 1.624,0.218 2.045,4.03225 2.875,5.78125 2.96,6.238 7.9405,8.045 16.0625,9.125 -2.416,2.241 -4.7223,6.15675 -8.4063,6.46875 -3.3519,0.283 -7.0115,-2.80825 -9.8124,-5.28125 -2.736,-2.415 -7.0141,-5.90175 -6.5,-10.09375 0.1612,-1.30781 3.2092,-5.69749 5.375,-6 z m 78.4062,30.5 c 0.2409,-0.0179 0.489,-0.003 0.7188,0 3.86,0.056 7.5374,5.81475 6.9374,9.34375 -0.686,4.04 -6.351,4.68775 -5.5,9.84375 -1.994,3.143 -5.1145,5.0035 -7.6874,7.9375 -2.9991,3.419 -5.013,8.4945 -9.375,10.5625 -3.627,1.719 -8.4798,2.104 -15.3438,2.625 -3.044,0.231 -5.9642,1.7815 -8.6562,1.1875 -2.059,-0.453 -3.9733,-3.37325 -5.2813,-4.78125 -1.422,-1.53 -3.8245,-3.812 -4.3125,-5.75 -0.826,-3.277 0.9462,-7.95975 2.6562,-9.84375 2.207,-2.43 7.3353,-4.557 10.7813,-6.25 7.66,-3.766 14.8742,-6.9215 23.2813,-10.5625 3.4012,-1.47188 8.1681,-4.04401 11.7812,-4.3125 z m -24.9688,49.90625 c -9.1145,-6.0685 -14.0742,4.18225 -17.5312,-0.46875 -2.3526,2.40861 -5.1184,4.88316 -8,7.375 8.105,-2.24894 7.4942,-3.28587 16.59,-5.25733 l 8.941,-1.64892 z m -74.1562,5.53125 c -0.3194,2.98311 2.7743,4.03315 2.875,8.34375 0.9346,0.0184 1.8737,0.0261 2.8125,0.0312 -0.3841,-4.14358 -0.9905,-8.11005 -5.6875,-8.375 z"
         style="fill:#231f20;fill-opacity:1;fill-rule:evenodd"
         inkscape:connector-curvature="0"
         sodipodi:nodetypes="ccccccccccccccccccccccccccsccccccccccccccccccccccccccccccccccccscccscccccccccccccccccccccccccccccccccccccccccccccccccccccsccccccccccccccccccccccccccccccccccsccccccccccccsccccccccccc" />
      <path
         id="path5766"
         transform="translate(-720,68.076473)"
         d="m 1258.2812,265.59375 c -2.254,0.0517 -4.9702,1.0475 -7.8437,1.875 -9.745,2.806 -18.299,5.23525 -27.125,8.15625 -9.24,3.058 -17.4465,5.7385 -24.9375,10.0625 -2.535,1.464 -5.3925,2.6565 -7.4375,4.3125 -6.0269,4.882 -6,14.20775 -6.5,25.21875 -0.3791,8.356 -0.2716,16.33025 -1.1875,22.78125 -1.04,7.325 -2.127,14.12925 -3.125,20.90625 -1.0618,7.208 -0.5907,14.68025 -0.9688,23.28125 -0.067,1.519 -0.4008,3.83025 -0.2187,5.03125 1.0029,6.628 7.8476,9.09125 10.3125,14.40625 -3.1259,-1.833 -5.8341,-5.38 -8.875,-6.5 10.6369,12.003 24.6562,20.61 31.6562,36.25 -3.3299,-2.419 -5.6759,-5.83 -8.375,-8.875 -5.5649,-6.279 -11.4893,-11.98825 -17.2812,-17.78125 -2.8791,-2.879 -5.4701,-6.47625 -9.375,-8.15625 -5.5167,4.69183 -9.7018,10.78337 -14.1875,16.84375 24.813,15.44522 56.12,24.9156 90.2813,25.59375 -0.1009,-4.31034 -3.1944,-5.36072 -2.875,-8.34375 4.697,0.26495 5.3033,4.23142 5.6874,8.375 0.3755,0.002 0.749,0 1.125,0 15.3943,0 28.3907,-3.26713 41.8438,-7 2.8816,-2.49184 5.6161,-4.96639 7.9688,-7.375 3.457,4.651 12.2292,1.08775 17.5312,0.46875 11.3475,-2.04416 16.5818,-5.83644 30.4688,-14.40625 6.291,-4.188 13.0585,-7.86675 16.3124,-15.09375 l -0.9374,-6.5 c -1.796,4.118 -4.047,8.4965 -6.5,11.0625 -2.773,2.902 -7.3293,5.1535 -11.2813,7.4375 -12.401,7.169 -23.9505,13.5755 -40.3125,16.3125 -2.749,-2.09 -5.5242,-4.59475 -7.9062,-7.21875 -3.211,-3.535 -7.0295,-6.87675 -7.9376,-12.21875 -6.9429,0.172 -11.2607,-3.7735 -15.5937,-7.6875 -5.918,-5.346 -9.33,-11.8475 -12,-19.6875 -1.55,11.696 -3.2903,23.37275 -8.1563,33.59375 -3.9559,8.312 -10.7599,19.37525 -21.125,20.65625 -7.3209,0.905 -12.3219,-2.2015 -17.75,-4.3125 -4.2799,-1.665 -8.8972,-3.099 -11.2812,-6 0.362,-0.838 2.377,-0.0168 2.625,-0.96875 -7.724,-5.476 -17.1412,-10.52125 -22.7812,-17.28125 6.839,3.676 13.8832,10.72 22.7812,12.25 3.824,0.657 9.2065,0.73525 13.6875,-0.71875 1.605,-0.522 2.6245,-1.99825 4.5625,-2.65625 0.96,-0.325 2.178,-0.0487 3.125,-0.46875 1.733,-0.77 3.5543,-3.58025 5.0312,-5.28125 1.6571,-1.91 3.8658,-3.88575 3.5938,-6.46875 -3.422,-0.246 -7.2272,1.861 -11.2812,2.625 -3.935,0.74 -9.1838,1.64825 -12.2188,-0.71875 0.924,-2.356 3.67,-3.1885 5.75,-4.3125 2.178,-1.177 4.226,-2.42675 6.25,-3.84375 3.915,-2.74 8.3508,-5.38875 9.5938,-10.09375 -2.18,-0.681 -6.017,0.62775 -6.5,-1.65625 -0.901,-4.27 9.125,-5.04375 9.125,-9.84375 0,-4.019 -6.9936,-6.0205 -10.3126,-7.9375 -4.2189,-2.435 -7.3109,-4.562 -9.125,-9.125 3.2861,0.732 14.2273,6.38825 14.4063,-0.21875 0.096,-3.548 -4.8715,-5.278 -4.8125,-9.375 0.067,-4.687 5.2675,-5.93425 5.0625,-10.78125 -6.239,-2.724 -20.199,0.986 -21.375,-6 2.91,-0.818 6.1548,1.04575 9.8437,0.71875 1.0911,-0.097 5.1643,-1.18725 5.0313,-2.90625 -0.101,-1.304 -3.739,-2.628 -5.75,-2.875 -7.921,-0.972 -24.229,4.065 -23.75,-5.75 3.902,-0.058 6.4085,3.102 10.5625,2.875 2.514,-0.137 5.0683,-1.934 7.6562,-2.875 2.6181,-0.952 5.4798,-1.90475 6.7188,-3.84375 -1.734,-2.836 -4.056,-5.29725 -6,-8.15625 -0.878,-1.29 -1.848,-2.82075 -2.875,-4.09375 -0.945,-1.172 -3.0752,-2.3735 -2.4062,-4.3125 7.0779,3.401 9.1272,11.8605 17.7812,13.6875 2.089,-7.911 -0.8987,-20.8665 7.6562,-22.3125 -2.2889,6.795 -5.4357,18.066 -0.2187,23.75 1.449,1.579 4.1627,2.34875 6.4687,3.84375 6.4011,4.152 9.9481,11.44775 15.375,15.84375 3.3251,2.694 8.4108,5.19675 12.2188,6.21875 4.77,1.28 9.5825,-0.18025 13.9375,-1.65625 4.829,-1.635 11.4845,-3.41975 10.3125,-9.84375 -1.699,-9.316 -11.3895,-23.3485 -22.8125,-22.3125 -4.596,0.417 -9.6475,3.8185 -10.0625,6.9375 -0.541,4.054 3.2393,8.46425 4.7812,11.53125 2.0181,4.014 4.0193,7.2585 5.5313,10.3125 -3.991,-2.372 -5.5332,-5.67575 -8.1563,-9.59375 -1.9369,-2.893 -6.1227,-7.36725 -6.4687,-11.28125 -0.257,-2.922 1.104,-5.42175 2.625,-6.96875 2.94,-2.99 9.9898,-4.77175 9.5937,-9.84375 -0.1929,-2.476 -3.8197,-5.13475 -6.4687,-6.21875 -1.635,-0.669 -4.197,-0.3345 -5.75,-1.4375 10e-4,-5.494 2.4088,-12.959 0.4687,-18.25 -1.0789,-2.9405 -2.8709,-3.83294 -5.125,-3.78125 z"
         style="fill:#eccc79;fill-opacity:1;stroke:none"
         inkscape:connector-curvature="0" />
      <path
         id="path5762"
         d="m 555.32795,322.76397 c -4.13356,-0.01 -8.59562,3.54406 -10.46875,5.5625 8.114,-0.228 13.53525,2.9965 17.03125,7.4375 0.645,0.818 1.3335,1.785 1.6875,2.875 3.218,9.879 0.73775,23.38375 9.84375,27.84375 4.797,-4.072 0.787,-12.305 3.375,-18 1.489,-3.276 5.78675,-4.408 9.34375,-6 2.973,-1.33 8.2585,-3.7965 7.9375,-7.4375 -0.33,-3.742 -10.51225,-7.62725 -14.40625,-7.90625 -5.775,-0.413 -10.816,0.0562 -15.375,-1.21875 -3.1,-0.868 -5.43725,-2.786 -8.15625,-3.125 -0.27188,-0.0342 -0.53693,-0.0306 -0.8125,-0.0312 z"
         style="fill:#eccc79;fill-opacity:1;stroke:none"
         inkscape:connector-curvature="0" />
      <path
         id="path5760"
         d="m 605.2342,362.76397 c -0.20493,0.0215 -0.41481,0.0817 -0.625,0.125 -0.282,0.058 -0.30875,0.173 -0.46875,0.25 -4.33,2.074 -7.94,5.354 -12,8.875 -2.755,2.39 -9.693,7.083 -8.875,12 0.404,2.431 3.844,5.07025 6.25,5.03125 2.716,-0.044 5.308,-4.761 8.625,-6.25 3.325,-1.492 7.7475,-0.94425 10.5625,-1.90625 2.395,-0.818 6.093,-5.48325 6,-8.15625 -0.041,-1.196 -1.789,-3.76025 -2.875,-5.28125 -1.6905,-2.3695 -3.35601,-4.6281 -6,-4.6875 -0.18885,-0.004 -0.38882,-0.0215 -0.59375,0 z"
         style="fill:#eccc79;fill-opacity:1;stroke:none"
         inkscape:connector-curvature="0" />
      <path
         id="path5758"
         d="m 568.6092,372.73272 c 5.055,2.305 6.54975,8.184 10.09375,12 -0.964,-6.236 -3.80875,-11.885 -10.09375,-12 z"
         style="fill:#eccc79;fill-opacity:1;stroke:none"
         inkscape:connector-curvature="0" />
      <path
         id="path5756"
         d="m 613.9842,408.01397 c -4.811,0.152 -8.85175,1.51475 -12.46875,3.34375 -3.823,1.934 -7.72925,5.59825 -11.78125,8.65625 -3.865,2.918 -8.13975,5.71325 -12.21875,8.40625 -5.685,3.755 -13.26175,7.44 -19.21875,11.75 -1.778,1.286 -4.96925,3.84125 -5.03125,5.28125 -0.102,2.299 4.73875,7.09675 6.46875,6.96875 2.816,-0.208 2.82625,-6.055 5.78125,-6.25 2.292,-0.151 3.14225,2.92675 4.78125,3.59375 3.684,1.501 9.548,0.93325 12,-0.21875 3.543,-1.667 6.325,-6.73375 9.375,-10.34375 1.558,-1.843 2.8465,-3.30725 4.5625,-5.28125 1.458,-1.678 3.52425,-4.0675 5.28125,-4.5625 2.558,-0.719 6.68375,-0.217 9.59375,0.25 2.475,0.398 5.28525,2.5785 7.90625,1.9375 2.386,-0.584 4.9435,-6.29675 4.5625,-9.84375 -0.281,-2.623 -2.5315,-5.2535 -4.0625,-7.4375 -1.578,-2.25 -3.21525,-4.933 -5.53125,-6.25 z"
         style="fill:#eccc79;fill-opacity:1;stroke:none"
         inkscape:connector-curvature="0" />
      <path
         id="path5754"
         d="m 550.95295,412.79522 c -2.16579,0.30251 -5.21375,4.69219 -5.375,6 -0.514,4.192 3.764,7.67875 6.5,10.09375 2.801,2.473 6.4605,5.56425 9.8125,5.28125 3.684,-0.312 5.99025,-4.22775 8.40625,-6.46875 -8.122,-1.08 -13.1025,-2.887 -16.0625,-9.125 -0.83,-1.749 -1.251,-5.56325 -2.875,-5.78125 -0.13556,-0.0183 -0.26186,-0.0202 -0.40625,0 z"
         style="fill:#eccc79;fill-opacity:1;stroke:none"
         inkscape:connector-curvature="0" />
      <path
         id="path5752"
         d="m 629.3592,443.29522 c -3.61307,0.26849 -8.38,2.84062 -11.78125,4.3125 -8.407,3.641 -15.62125,6.7965 -23.28125,10.5625 -3.446,1.693 -8.57425,3.82 -10.78125,6.25 -1.71,1.884 -3.48225,6.56675 -2.65625,9.84375 0.488,1.938 2.8905,4.22 4.3125,5.75 1.308,1.408 3.22225,4.32825 5.28125,4.78125 2.692,0.594 5.61225,-0.9565 8.65625,-1.1875 6.864,-0.521 11.71675,-0.906 15.34375,-2.625 4.362,-2.068 6.376,-7.1435 9.375,-10.5625 2.573,-2.934 5.6935,-4.7945 7.6875,-7.9375 -0.851,-5.156 4.814,-5.80375 5.5,-9.84375 0.6,-3.529 -3.0775,-9.28775 -6.9375,-9.34375 -0.22975,-0.003 -0.47788,-0.0179 -0.71875,0 z"
         style="fill:#eccc79;fill-opacity:1;stroke:none"
         inkscape:connector-curvature="0" />
    </g>
  </g>
</svg>
