<?xml version="1.0" encoding="UTF-8" standalone="no"?>
<!-- Generator: Adobe Illustrator 15.0.0, SVG Export Plug-In . SVG Version: 6.00 Build 0)  -->

<svg
   xmlns:dc="http://purl.org/dc/elements/1.1/"
   xmlns:cc="http://creativecommons.org/ns#"
   xmlns:rdf="http://www.w3.org/1999/02/22-rdf-syntax-ns#"
   xmlns:svg="http://www.w3.org/2000/svg"
   xmlns="http://www.w3.org/2000/svg"
   xmlns:sodipodi="http://sodipodi.sourceforge.net/DTD/sodipodi-0.dtd"
   xmlns:inkscape="http://www.inkscape.org/namespaces/inkscape"
   version="1.1"
   x="0px"
   y="0px"
   width="480px"
   height="240px"
   viewBox="0 0 480 240"
   enable-background="new 0 0 480 240"
   xml:space="preserve"
   id="svg2"
   inkscape:version="0.48.1 r9760"
   sodipodi:docname="HackPGH.license.svgz"><metadata
   id="metadata17"><rdf:RDF><cc:Work
       rdf:about=""><dc:format>image/svg+xml</dc:format><dc:type
         rdf:resource="http://purl.org/dc/dcmitype/StillImage" /><dc:title></dc:title></cc:Work></rdf:RDF></metadata><defs
   id="defs15" /><sodipodi:namedview
   pagecolor="#ffffff"
   bordercolor="#666666"
   borderopacity="1"
   objecttolerance="10"
   gridtolerance="10"
   guidetolerance="10"
   inkscape:pageopacity="0"
   inkscape:pageshadow="2"
   inkscape:window-width="1600"
   inkscape:window-height="823"
   id="namedview13"
   showgrid="false"
   inkscape:zoom="0.99791667"
   inkscape:cx="240"
   inkscape:cy="132.5261"
   inkscape:window-x="0"
   inkscape:window-y="24"
   inkscape:window-maximized="1"
   inkscape:current-layer="svg2" />
<g
   id="Background"
   display="none">
	<path
   id="Larger"
   display="inline"
   fill-rule="evenodd"
   clip-rule="evenodd"
   fill="#000033"
   d="M0.25,0.009   c159.75,0,319.529,0,479.269,0c0.279-0.039,0.428,0.053,0.48,0.24c0,79.914,0,159.828,0,239.742c-159.836,0-319.675,0-479.51,0   c-0.279,0.039-0.427-0.053-0.48-0.24c0-79.677,0-159.345,0-239.022C-0.01,0.388-0.029,0.049,0.25,0.009z" />
	<path
   id="Smaller"
   display="inline"
   fill-rule="evenodd"
   clip-rule="evenodd"
   fill="#000033"
   d="M30.73,21.127   c3.364-0.536,9.157-0.24,13.439-0.24c65.438,0,131.718,0,197.515,0c65.912,0,130.688,0,197.757,0c4.556,0,9.385-0.4,12.479,0.48   c3.844,1.094,7.377,4.129,7.92,8.88c0.396,3.463,0,7.504,0,11.279c0,47.31,0,96.379,0,144.229c0,7.378,0.307,14.86,0,22.078   c-0.233,5.491-3.013,8.823-7.2,10.32c-2.966,1.061-7.678,0.72-12.718,0.72c-133.808,0-264.58,0-398.873,0   c-4.943,0-9.583,0.357-12.479-0.72c-2.756-1.025-5.499-3.494-6.48-6.72c-0.846-2.78-0.48-6.785-0.48-11.039   c0-52.973,0-106.745,0-160.069c0-4.384-0.567-9.453,0.72-12.719C23.878,23.676,27.516,21.639,30.73,21.127z" />
</g>
<g
   id="Dark">
	<path
   fill-rule="evenodd"
   clip-rule="evenodd"
   fill="#000033"
   d="M0.25,0.009c159.75,0,319.529,0,479.269,0   c0.279-0.039,0.428,0.053,0.48,0.24c0,79.914,0,159.828,0,239.742c-159.836,0-319.675,0-479.51,0   c-0.279,0.039-0.427-0.053-0.48-0.24c0-79.677,0-159.345,0-239.022C-0.01,0.388-0.029,0.049,0.25,0.009z M22.33,13.928   c-0.646,0.381-1.34,0.938-1.92,1.2c-0.076,0.034-0.154,0.42-0.24,0.48c-1.479,1.025-2.605,1.878-3.6,3.12   c-1.635,2.039-2.873,4.194-3.6,6.959c-0.736,2.801-0.96,5.764-0.96,9.599c0,12.328,0,28.256,0,42.237c0,43.515,0,84.884,0,126.23   c0,1.935-0.127,3.701,0,5.279c0.125,1.552,0.622,2.918,0.96,4.32c0.388,1.606,0.559,2.868,1.2,4.08   c0.552,1.041,1.351,2.031,2.16,3.119c1.204,1.619,2.651,2.835,4.08,3.84c0.543,0.382,1.677,0.967,1.92,1.199   c0.623,0.597,1.571,0.976,2.16,1.2c0.358,0.137,0.737,0.104,1.2,0.24c1.767,0.523,4.497,1.291,6.239,1.44   c2.678,0.228,5.237,0,7.92,0c133.284-0.001,266.83,0,400.552,0c3.661,0,7.148,0.26,10.318-0.24c1.437-0.227,2.785-0.632,4.08-0.96   c0.774-0.196,1.491-0.235,2.16-0.48c0.609-0.223,1.049-0.611,1.68-0.96c2.448-1.351,5.117-3.308,6.48-5.279   c0.658-0.951,1.226-1.644,1.68-2.399c1.396-2.322,2.013-5.274,2.4-8.16c0.207-1.543,0.24-3.105,0.24-5.039   c-0.001-55.354,0-113.701,0-168.468c-0.001-3.864-0.038-6.939-0.721-9.839c-0.66-2.808-1.712-4.936-3.359-7.199   c-0.804-1.104-1.832-2.407-2.88-2.88c-0.076-0.034-0.154-0.42-0.24-0.48c-0.271-0.188-0.648-0.257-0.96-0.48   c-0.517-0.37-0.911-0.85-1.44-1.2c-2.159-1.429-4.655-1.988-7.92-2.64c-0.694-0.139-1.268-0.414-1.92-0.479   c-2.754-0.275-5.278,0-7.92,0c-129.418,0-260.481,0-389.991,0c-7.024,0-14.265-0.503-21.12,0c-0.169,0.013-0.239,0.24-0.24,0.24   C27.694,11.935,24.601,12.59,22.33,13.928z M30.73,21.127c3.364-0.536,9.157-0.24,13.439-0.24c65.438,0,131.718,0,197.515,0   c65.912,0,130.688,0,197.757,0c4.556,0,9.385-0.4,12.479,0.48c3.844,1.094,7.377,4.129,7.92,8.88c0.396,3.463,0,7.504,0,11.279   c0,47.31,0,96.379,0,144.229c0,7.378,0.307,14.86,0,22.078c-0.233,5.491-3.013,8.823-7.2,10.32   c-2.966,1.061-7.678,0.72-12.718,0.72c-133.808,0-264.58,0-398.873,0c-4.943,0-9.583,0.357-12.479-0.72   c-2.756-1.025-5.499-3.494-6.48-6.72c-0.846-2.78-0.48-6.785-0.48-11.039c0-52.973,0-106.745,0-160.069   c0-4.384-0.567-9.453,0.72-12.719C23.878,23.676,27.516,21.639,30.73,21.127z M59.289,29.047c0,0.16,0,0.32,0,0.48   c0.404,2.123,1.008,4.108,1.68,6.239c0.591,1.874,1.66,3.86,1.92,5.76c0.442,3.233-0.32,6.513,0,10.559   c0.58,0.46,1.929,0.151,2.88,0.24c0.652-4.481-0.249-9.398,0.72-12.479c0.54-1.714,0.968-3.299,1.44-4.799   c0.649-2.062,1.905-4.103,1.44-6.24c-2.46-0.488-2.611,1.844-3.12,3.36c-0.569,1.696-0.798,3.646-1.92,4.56   c-1.337-2.263-1.596-5.604-2.88-7.92C60.698,28.856,59.687,28.645,59.289,29.047z M76.808,30.007c-0.075,0.081,0.047,0.376,0,0.479   c-0.039,0.086-0.424,0.138-0.48,0.24c-0.987,1.816-0.48,7.129-0.48,11.039c0,1.926-0.202,4.161,0,5.76   c0.428,3.382,2.168,4.887,5.28,4.799c6.115-0.172,4.8-7.446,4.8-14.158c0-1.265,0.129-3.034,0-4.56   c-0.243-2.876-0.94-4.011-3.12-4.56c-1.351-0.34-2.816-0.104-3.36,0C78.41,29.247,77.363,29.408,76.808,30.007z M92.888,29.527   c-0.418,1.919-0.24,6.755-0.24,11.279c0,4.6-0.362,8.726,1.2,10.319c0.381,0.389,1.681,1.069,2.4,1.2   c2.726,0.496,5.045-0.743,5.759-2.16c0.552-1.096,0.454-2.377,0.48-4.08c0.078-5.12,0.224-10.312,0-14.879   c-0.039-0.792,0.463-2.272-0.72-2.4c-2.544-0.615-1.92,2.374-1.92,4.32c0,4.329,0.145,8.333,0,12.479   c-0.086,2.472-0.102,4.123-2.159,4.08c-3.299-0.07-2.16-6.275-2.16-9.359c0-4.251,0.195-8.092-0.24-11.279   c-0.349-0.371-1.229-0.211-1.92-0.24C93.067,28.905,92.878,29.116,92.888,29.527z M118.088,28.807   c-0.013,0.307-0.308,0.333-0.24,0.72c-0.014,0.146-0.036,0.284-0.24,0.24c0.94,5.998,2.123,12.006,3.12,17.759   c0.231,1.334,0.241,3.648,0.96,4.319c0.619,0.578,1.429,0.451,1.92,0.24c0.722-0.558,0.796-1.616,0.96-2.4   c0.632-3.025,0.895-5.892,1.44-8.879c0.707-3.868,1.954-7.926,1.68-11.759c-0.398-0.402-1.409-0.191-2.16-0.24   c-0.935,1.484-1.107,3.634-1.44,5.76c-0.327,2.085-0.347,4.391-1.2,6c-0.84-0.569-0.53-1.709-0.719-2.64   c-0.183-0.895-0.552-1.933-0.721-2.88c-0.372-2.087-0.387-4.306-1.2-6C119.85,28.645,118.839,28.856,118.088,28.807z    M169.206,29.767c-0.263,0.252-0.991,1.457-1.2,2.64c-0.308,1.743,0,4.997,0,8.16c0,5.84-0.664,10.513,2.64,11.519   c2.436,0.741,5.665-0.236,6.48-1.44c0.226-0.334,0.623-1.551,0.72-2.16c0.322-2.021-0.05-4.94-0.24-6.959   c-1.263-0.247-4.826-0.866-5.04,0.72c-0.147,1.746,2.375,0.824,2.64,2.159c-0.099,1.582,0.313,3.673-0.48,4.56   c-1.167,0.791-3.709,0.654-4.08-0.72c0.088-4.053-0.118-9.117,0-12.959c0.039-1.286-0.344-2.809,0.72-3.6   c1.063-0.261,1.88-0.502,2.64-0.24c1.385,0.478,0.668,2.187,1.92,2.64c0.759,0.33,0.802,0.052,1.68,0   C179.183,28.642,171.55,27.527,169.206,29.767z M185.046,30.966c-0.906,2.137-0.24,6.695-0.24,10.56   c0,5.587-0.358,9.573,2.88,10.559c1.381,0.42,3.436,0.247,4.56-0.24c1.025-0.444,1.485-1.06,1.92-2.16   c0.868-2.199,0.48-5.088,0.48-8.159c0-3.376,0.592-9.258-0.48-11.04c-0.979-1.626-3.99-1.866-6-1.439   C186.87,29.322,185.505,29.886,185.046,30.966z M201.846,28.807c-0.472,0.648-0.143,2.097-0.24,3.12   c1.169,0.11,2.811-0.251,3.6,0.24c0,6.64,0,13.279,0,19.918c0.613,0.378,2.507,0.378,3.119,0c0.158-6.642-0.316-13.916,0.24-20.159   c1.12,0,2.24,0,3.36,0c-0.097-1.023,0.232-2.472-0.24-3.12C208.405,28.807,205.126,28.807,201.846,28.807z M238.805,28.807   c-0.013,0.307-0.308,0.333-0.24,0.72c-0.87,3.544-1.311,7.457-1.92,11.279c-0.292,1.837-0.68,3.68-0.959,5.52   c-0.289,1.9-0.652,3.909-0.48,5.76c0.516,0.445,1.758,0.162,2.64,0.24c0.699-0.821,0.212-2.827,0.96-3.599c0.8,0,1.6,0,2.4,0   c0.736,0.863,0.278,2.921,1.2,3.599c0.814-0.065,1.945,0.186,2.399-0.24c0.474-0.853-0.127-1.78-0.24-2.64   c-0.431-3.275-0.739-5.999-1.199-8.879c-0.31-1.939-0.661-3.848-0.96-5.76c-0.306-1.95-0.604-3.957-1.2-5.759   C240.75,28.621,239.62,28.872,238.805,28.807z M295.204,38.886c0.729-1.885,0.186-7.412-0.48-8.4   c-1.169-1.736-6.566-2.092-9.12-1.439c-0.146,0.014-0.284,0.036-0.239,0.24c0,5.736,0,12.005,0,17.519   c0,2.125-0.347,4.204,0.479,5.52c0.691-0.028,1.571,0.131,1.92-0.24c0.434-1.399,0.24-3.417,0.24-5.76   c0-2.119-0.675-4.968,1.2-5.04c1.576-0.06,1.641,3.367,2.16,5.52c0.111,0.465,0.342,0.875,0.479,1.44   c0.566,2.32,0.44,5.321,3.36,3.839c0.228-1.73-0.692-3.499-1.2-5.28c-0.522-1.83-0.982-3.72-1.44-5.52   C293.271,40.472,294.66,40.289,295.204,38.886z M303.844,28.807c-0.46,0.58-0.151,1.928-0.24,2.88   c0.388,0.573,2.116-0.195,2.161,0.72c0,5.44,0,10.879,0,16.319c-0.319,0.641-1.605,0.314-2.161,0.72   c0.089,0.951-0.22,2.299,0.24,2.879c2.239,0,4.479,0,6.719,0c0.46-0.58,0.152-1.928,0.24-2.879c-0.387-0.573-2.114,0.194-2.16-0.72   c0-5.52,0-11.039,0-16.559c0.39-0.491,1.771,0.011,2.16-0.48c-0.089-0.952,0.22-2.3-0.24-2.88   C308.323,28.807,306.083,28.807,303.844,28.807z M335.763,29.527c-0.434,4.631-0.24,12.207-0.24,17.278   c0,1.964-0.318,3.946,0.48,5.52c0.814-0.065,1.945,0.186,2.4-0.24c0.712-3.368-0.234-8.394,0.479-11.759   c0.497,0.137,0.562,0.729,0.72,1.2c0.139,0.416,0.354,1.026,0.48,1.44c0.325,1.067,0.407,2.302,0.72,3.359   c0.15,0.508,0.341,0.964,0.48,1.44c0.503,1.721,0.954,3.235,1.68,4.56c0.8,0,1.601,0,2.4,0c0.396-7.207,0.401-16.072,0-23.278   c-0.454-0.426-1.585-0.175-2.4-0.24c-0.48,2.565-0.174,6.409-0.24,9.12c-0.024,1.005,0.365,2.333-0.479,2.879   c-1.058-1.656-1.336-3.826-1.92-5.759c-0.618-2.045-1.487-3.963-1.92-6C337.777,28.883,335.663,28.283,335.763,29.527z    M389.762,28.807c-0.058,0.343-0.395,0.405-0.479,0.72c-1.049,7.511-2.39,14.729-3.36,22.318c0.445,0.675,1.783,0.457,2.88,0.48   c0.62-0.98,0.098-3.102,1.2-3.599c0.814,0.065,1.944-0.186,2.399,0.24c0.363,1.076,0.086,2.793,0.961,3.359   c0.926,0.047,1.768,0.009,2.398-0.24c-0.061-4.012-1.084-7.778-1.68-11.519c-0.617-3.884-0.928-7.77-1.92-11.519   C391.708,28.621,390.577,28.872,389.762,28.807z M402.961,28.807c-0.473,0.648-0.143,2.097-0.24,3.12   c1.17,0.11,2.812-0.251,3.601,0.24c0,6.64,0,13.279,0,19.918c0.612,0.378,2.507,0.378,3.12,0   c0.157-6.642-0.317-13.916,0.239-20.159c1.12,0,2.24,0,3.36,0c-0.097-1.023,0.232-2.472-0.24-3.12   C409.521,28.807,406.241,28.807,402.961,28.807z M135.127,29.287c-0.346,0.135-0.586,0.375-0.72,0.72   c0.158,7.441-0.318,15.516,0.24,22.558c2.659,0.397,6.94,0.397,9.6,0c0.323-0.725,0.323-1.916,0-2.64   c-1.873-0.607-5.11,0.15-6.96-0.479c0.124-2.436-0.27-5.39,0.24-7.439c1.32-0.12,3.145,0.265,4.08-0.24   c0.311-0.696,0.311-1.703,0-2.399c-0.887-0.633-3.193,0.154-4.08-0.48c-0.394-1.639-0.394-4.841,0-6.48   c2.204-0.117,4.899,0.26,6.72-0.24c0.249-0.632,0.287-1.473,0.24-2.4C142.222,28.752,138.163,29.532,135.127,29.287z    M268.804,29.527c-0.146,0.014-0.283,0.036-0.24,0.24c0,5.736,0,12.005,0,17.519c0,2.124-0.346,4.204,0.48,5.52   c0.64,0,1.28,0,1.92,0c0.813-1.262,0.48-3.254,0.48-5.279c0-1.942-0.186-4.057,0.239-5.52c1.32-0.12,3.145,0.265,4.08-0.24   c0-0.8,0-1.6,0-2.399c-0.887-0.633-3.193,0.154-4.08-0.48c-0.379-1.624-0.414-4.861,0-6.48c2.204-0.117,4.9,0.26,6.721-0.24   c0.323-0.725,0.323-1.916,0-2.64C275.726,29.149,271.477,29.116,268.804,29.527z M324.964,29.287c-1.738-0.026-3.734,0.021-5.281,0   c-0.24,0-0.285,0.195-0.479,0.24c-0.146,0.014-0.284,0.036-0.24,0.24c0,7.6,0,15.199,0,22.798c2.77,0.392,7.07,0.392,9.84,0   c0-0.8,0-1.6,0-2.4c-1.531-0.948-4.679-0.281-6.96-0.48c0.147-2.493-0.302-5.582,0.24-7.679c1.28,0,2.561,0,3.84,0   c0.287-0.673,0.264-1.656,0.24-2.64c-1.01-0.591-3.29,0.09-4.32-0.48c0.158-2.082-0.317-4.798,0.24-6.48   c2.17-0.23,5.314,0.515,6.72-0.48c-0.117-0.757,0.433-0.848,0.24-1.679C328.428,28.951,326.688,29.313,324.964,29.287z    M352.323,29.767c-0.404,7.054-0.395,15.743,0,22.798c1.896,0.192,5.039,0.557,6.959,0.24c0.569-0.094,1.723-0.528,1.92-0.72   c0.073-0.071-0.044-0.383,0-0.48c0.039-0.087,0.426-0.135,0.479-0.24c0.189-0.364,0.185-0.852,0.24-1.2   c0.415-2.609,0-6.438,0-8.639c0-2.962,0.765-9.2-0.479-11.04c-1.5-2.214-5.438-0.743-8.4-1.2   C352.759,29.403,352.499,29.543,352.323,29.767z M108.728,31.687c0.149,0.89,0.674,1.405,0.96,2.16   c-0.216,0.71-1.038,1.667-0.48,2.4c2.09-0.451,3.053-3.103,2.4-5.52C110.708,29.893,108.661,30.186,108.728,31.687z    M379.922,85.683c-0.518-1.576-1.104-2.459-1.68-3.36c-0.237-0.37-0.217-0.608-0.48-0.96c-1.062-1.418-2.456-2.563-3.84-3.36   c-3.562-2.049-8.801-2.946-14.4-2.399c-3.383,0.33-6.589,1.82-8.399,3.359c-1.104,0.939-2.098,1.918-2.639,3.12   c-0.039,0.084-0.424,0.14-0.48,0.24c-1.108,1.962-1.94,5.084-2.16,7.439c-0.448,4.813,0,9.847,0,14.4c0,9.227,0,19.466,0,28.797   c0,4.857-0.445,9.83,0,14.399c0.28,2.872,1.377,5.844,2.16,7.198c0.055,0.096,0.404,0.14,0.48,0.24   c0.151,0.203,0.108,0.538,0.239,0.72c0.833,1.153,2.13,2.434,3.119,2.881c0.079,0.035,0.149,0.421,0.241,0.479   c0.311,0.204,0.938,0.484,1.438,0.72c5.396,2.531,15.485,2.049,20.16-0.479c0.274-0.148,0.468-0.555,0.721-0.72   c0.447-0.294,0.966-0.298,1.199-0.48c0.441-0.345,1.849-1.949,2.16-2.64c0.035-0.078,0.421-0.151,0.48-0.24   c0.073-0.11-0.056-0.357,0-0.48c0.037-0.083,0.422-0.142,0.479-0.239c0.513-0.872,0.897-2.17,1.2-3.12   c0.111-0.349,0.42-0.736,0.48-0.96c1.044-3.897,0.72-10.198,0.72-14.158c0-3.477,0.805-12.395-0.96-14.159   c-1.509-1.509-5.056-0.96-7.92-0.96c-3.124,0-7.029-0.394-8.4,0.72c-1.13,0.917-1.731,4.957-0.479,6.48   c1.214,1.479,5.252,0.781,6.959,2.159c1.849,1.494,1.68,4.211,1.68,7.68c0,1.467,0.04,3.135,0,4.799   c-0.062,2.594-0.381,4.262-1.44,5.521c-1.219,1.447-2.765,2.053-4.8,2.398c-4.641,0.79-8.506-0.072-10.08-2.879   c-1.856-3.311-0.96-10.507-0.96-15.358c0-10.563,0-21.853,0-32.638c0-3.085-0.273-5.859,0-8.159   c0.438-3.689,2.53-6.151,5.521-6.719c3.846-0.73,8.264,0.349,10.08,2.639c0.73,0.921,1.177,1.837,1.439,2.88   c0.354,1.398-0.118,2.698,0.721,3.84c1.801,1.333,6.612,1.344,8.399,0C381.366,91.051,380.673,87.966,379.922,85.683z    M50.169,159.117c0.145-0.775-0.023-1.618,0-2.4c0.282-9.52-0.291-19.229,0-29.037c0.081-2.738,0.245-4.058,1.68-4.8   c2.113-1.093,8.876-1.097,10.32,0c1.582,1.202,1.44,4.627,1.44,8.159c0,7.304,0,12.888,0,19.678c0,2.787-0.496,7.929,0.48,9.36   c0.789,1.157,2.697,1.173,5.28,1.2c1.741,0.018,3.736,0.114,4.8-0.24c0.863-0.288,0.985-0.484,1.199-0.96   c0.04-0.089,0.429-0.131,0.48-0.24c0.495-1.052,0.219-2.476,0.24-3.84c0.364-23.862,0-45.721,0-69.354   c0-3.752,0.356-8.506-0.959-9.839c-1.68-1.702-9.098-1.461-10.56,0c-1.235,1.235-0.96,4.275-0.96,7.92c0,2.274,0,6.433,0,9.119   c0,4.088,0.913,15.433-0.96,17.279c-1.227,1.209-9.268,1.604-11.04,0.48c-1.831-1.161-1.44-5.017-1.44-7.919   c0-6.764,0-12.068,0-18.719c0-2.754,0.406-7.192-0.96-8.399c-1.052-0.93-6.118-1.119-7.92-0.72c-3.604,0.797-2.88,4.797-2.88,9.12   c0,22.011,0,43.656,0,65.274c0,3.519-0.362,9.227,0.72,10.319c0.867,0.876,2.937,0.721,5.04,0.721c2.194,0,4.462,0.114,5.28-0.48   C49.57,160.159,50.055,159.728,50.169,159.117z M136.567,88.082c-0.273-1.656-0.555-3.272-1.2-4.559   c-0.279-0.557-0.832-0.948-1.2-1.44c-0.158-0.211-0.094-0.533-0.24-0.72c-0.906-1.163-2.371-2.194-3.36-2.64   c-0.085-0.039-0.139-0.424-0.24-0.48c-0.344-0.192-0.917-0.269-1.44-0.48c-0.444-0.18-0.942-0.554-1.44-0.719   c-6.619-2.199-16.66-1.238-20.879,1.919c-0.985,0.737-1.997,1.729-2.64,2.4c-0.155,0.163-0.086,0.287-0.24,0.48   c-0.331,0.416-0.945,0.772-1.2,1.2c-0.782,1.31-1.63,3.724-1.92,5.039c-0.131,0.595-0.153,1.471-0.24,2.16   c-0.345,2.737-0.24,5.778-0.24,9.119c0,11.726,0,25.811,0,37.438c0,6.446,0.133,12.544,2.16,16.798   c0.047,0.101,0.375,0.611,0.48,0.721c0.183,0.191,0.073,0.229,0.24,0.479c0.536,0.805,1.288,1.288,1.92,1.92   c0.873,0.873,2.235,2.219,3.12,2.641c6.223,2.965,17.398,2.83,22.799-0.721c0.344-0.226,0.524-0.605,0.96-0.96   c0.321-0.261,0.92-0.434,1.2-0.72c0.134-0.137,0.13-0.577,0.24-0.72c0.116-0.152,0.341-0.312,0.48-0.48   c0.957-1.165,1.38-1.922,1.92-3.359c0.985-2.626,1.578-5.191,0.96-8.64c-1.985-1.153-7.024-0.927-9.36-0.24   c-0.584,0.991-0.509,1.902-0.72,2.641c-0.275,0.964-0.285,1.7-0.96,2.398c-0.292,0.305-0.921,0.451-1.44,0.721   c-3.677,1.911-9.859,1.36-12-1.439c-1.977-2.587-1.44-9.239-1.44-14.639c0-12.75-0.239-25.332,0-37.438   c0.032-1.602-0.11-3.409,0.24-4.56c0.027-0.089,0.43-0.36,0.48-0.48c0.209-0.502,0.289-1.194,0.48-1.44   c0.96-1.236,3.702-2.309,6.48-2.399c3.803-0.124,7.735,0.872,8.4,3.599c-0.042,1.245,0.029,1.949,0.48,2.4   c1.519,1.52,7.824,0.736,9.36,0C137.261,91.304,136.811,89.563,136.567,88.082z M167.766,75.843   c-1.898-0.056-4.264-0.235-4.799,0.48c-1.712,0.956-1.2,6.013-1.2,9.6c0,22.038,0,43.632,0,64.794c0,3.464-0.481,7.002,0.72,10.08   c1.049,0.732,2.982,0.48,4.799,0.48c1.816,0,3.751,0.252,4.8-0.48c0.609-10.313,0.009-22.021,0.24-33.117   c0.042-1.985-0.191-3.318,0.96-3.84c0.796-0.36,2.293-0.076,2.88,0.24c0.699,0.378,0.909,1.544,1.2,2.16   c0.813,1.721,1.292,3.772,1.681,5.039c1.538,5.019,3.329,10.657,4.799,15.358c0.529,1.69,1.15,3.355,1.68,5.039   c0.521,1.66,0.908,3.64,1.439,5.28c0.51,1.574,1.053,3.462,2.64,4.08c2.598,0.306,7.386,0.616,9.36-0.24   c0.408-2.366-0.769-4.608-1.439-6.72c-1.441-4.528-3.305-9.395-4.32-13.918c-0.021-0.092-0.44-0.593-0.48-0.72   c-0.913-2.913-1.737-5.643-2.64-8.4c-1.928-5.887-3.397-10.81-5.28-16.559c-0.771-2.358-2.026-5.088-1.919-6.959   c0.072-1.272,1.006-2.465,1.68-3.839c3.865-7.875,7.686-15.532,11.279-22.799c0.627-1.268,1.663-2.646,1.44-4.319   c-1.217-1.04-3.445-0.72-5.521-0.72c-2.147,0-4.678-0.414-6,0.24c-0.967,0.479-2.14,3.389-2.639,4.319   c-2.122,3.951-3.845,7.536-5.52,10.799c-1.157,2.253-2.039,4.377-3.12,6.479c-0.541,1.052-1.025,2.279-2.16,2.64   c0-3.855,0-8.229,0-12.479c0-4.154,0.584-8.527-0.96-11.519C170.654,75.741,169.16,75.885,167.766,75.843z M286.324,76.083   c-1.524,0.263-1.957,1.676-2.16,3.359c-0.11,0.917,0,3.424,0,5.52c0,12.575,0,18.812,0,32.877c0,13.768,0,20.257,0,32.638   c0,3.499-0.361,8.835,0.96,10.079c0.986,0.93,6.271,1.092,7.68,0.48c0.747-0.323,0.792-0.586,0.96-0.96   c0.039-0.085,0.425-0.139,0.48-0.24c0.513-0.934,0.417-2.203,0.479-3.359c0.501-9.287,0-16.917,0-25.679   c0-3.096-0.514-8.069,0.96-9.358c2.002-1.751,7.865-0.269,12.239-0.72c2.23-0.23,5.139-1.151,6.48-1.92   c0.261-0.149,0.543-0.65,0.96-0.96c0.428-0.318,0.873-0.394,1.199-0.72c0.255-0.255,0.465-0.856,0.721-1.2   c0.31-0.416,0.797-0.676,0.96-0.959c2.163-3.775,1.92-8.986,1.92-15.599c0-2.984,0.17-6.078,0-8.879   c-0.247-4.08-1.393-7.056-2.88-8.879c-0.812-0.996-1.706-1.886-2.88-2.64c-4.617-2.964-11.089-3.12-18.479-3.12   c-3.184,0-7.448-0.199-9.12,0.24C286.655,76.123,286.477,76.057,286.324,76.083z M417.601,156.957c0.426-8.348,0-15.259,0-23.998   c0-2.816-0.537-7.826,0.48-9.359c1.486-2.237,10.589-1.993,12-0.239c0.194,0.241,0.104,0.679,0.24,0.96   c0.096,0.196,0.423,0.431,0.479,0.72c0.126,0.643-0.029,1.556,0,2.4c0.294,8.395,0,15.835,0,23.997c0,2.732-0.468,7.521,0.72,8.88   c1.314,1.502,9.789,1.363,11.039,0.239c1.492-1.338,0.96-6.452,0.96-9.6c0-22.229,0.001-42.545,0-64.794   c0-4.212,0.519-8.979-2.159-10.08c-1.978-0.812-8.268-0.424-9.359,0.48c-1.271,1.051-1.2,4.387-1.2,7.68   c0.001,5.953,0,12.079,0,17.999c0,3.336,0.191,7.701-0.479,8.639c-0.939,1.312-3.35,1.175-5.761,1.2   c-2.76,0.029-5.239,0.199-6.239-0.96c-1.361-1.577-0.721-5.414-0.721-8.399c0-6.825,0-12.225,0-18.479   c0-3.372,0.059-6.933-1.439-7.92c-0.754-0.496-1.946-0.425-3.36-0.48c-3.175-0.124-5.304-0.274-6.479,1.44   c-1.059,1.542-0.721,6.259-0.721,9.84c0,21.559,0,42.318,0,63.594c0,3.652-0.28,8.721,0.96,9.84   c0.938,0.847,2.737,0.709,4.801,0.721c2.181,0.012,4.443,0.219,5.279-0.48C417.652,159.665,417.532,158.31,417.601,156.957z    M223.686,89.522c0.229,2.572,1.577,5.301,1.44,7.439c-5.52,0-11.04,0-16.56,0c3.501,16.418,7.075,32.763,10.8,48.957   c12.56,0,25.12,0,37.68,0c3.671-16.246,7.32-32.516,10.799-48.957c-5.599,0-11.199,0-16.799,0c0.667-2.693,1.229-5.49,1.92-8.16   c-9.84,0-19.68,0-29.52,0C223.435,89.132,223.559,89.329,223.686,89.522z M96.729,184.316c-0.945,0.888-0.319,2.268-0.24,3.598   c0.181,3.052,0.339,6.976,0.479,10.08c0.086,1.895-0.309,3.586,0.48,5.04c0.64,0,1.28,0,1.919,0c0.306-1.27,0.521-3.124,0.72-4.32   c0.077-0.461-0.368-1.551,0.48-1.439c0.877,1.442,0.502,4.138,1.2,5.76c0.56,0,1.12,0,1.68,0c0.761-0.892,0.385-2.502,0.48-4.32   c0.195-3.725,0.448-8.541,0.48-11.279c0.019-1.574,0.744-3.537-1.44-3.118c-1.591,1.209-0.039,5.559-1.2,7.197   c-0.596-0.777-0.568-2.166-0.72-3.6c-0.132-1.251,0.33-3.103-0.96-3.358c-0.222,1.061-0.344,2.707-0.48,4.078   c-0.109,1.098,0.456,2.583-0.72,2.88c-0.506-2.133-0.045-5.233-0.72-7.197C97.688,184.316,97.208,184.316,96.729,184.316z    M110.168,184.316c-0.979,0.996-0.319,2.534-0.24,4.078c0.158,3.102,0.321,6.989,0.48,10.08c0.085,1.652-0.286,3.231,0.48,4.56   c0.56,0,1.12,0,1.68,0c0.623-0.98,0.755-3.098,0.96-4.32c0.083-0.498-0.368-1.561,0.48-1.439c0.803,1.517,0.501,4.139,1.2,5.76   c0.56,0,1.12,0,1.68,0c0.774-1.357,0.403-3.138,0.48-4.8c0.171-3.675,0.458-7.628,0.48-11.04c0.006-0.979,0.593-2.085-0.24-2.878   c-0.48,0-0.96,0-1.44,0c-1.028,1.69-0.042,5.396-0.96,7.197c-0.997-1.091-0.366-3.825-0.72-5.519   c-0.106-0.508-0.193-1.551-0.96-1.439c-0.198,0.954-0.357,2.248-0.48,3.599c-0.116,1.268,0.457,2.922-0.721,3.359   c-0.604-2.114,0.109-5.548-0.959-7.197C110.968,184.316,110.568,184.316,110.168,184.316z M123.607,184.316   c-0.989,1.027-0.318,2.846-0.24,4.558c0.147,3.232,0.306,7.01,0.48,10.08c0.084,1.482-0.329,2.865,0.48,4.08c0.56,0,1.12,0,1.68,0   c0.848-0.975,0.435-3.076,0.72-4.56c0.06-0.312,0.126-1.298,0.72-1.2c0.748,1.571,0.458,4.183,1.2,5.76c0.56,0,1.12,0,1.68,0   c0.816-1.55,0.39-3.589,0.48-5.521c0.153-3.277,0.487-7.111,0.48-10.319c-0.002-1.006,0.363-2.107-0.24-2.878   c-0.48,0-0.96,0-1.44,0c-1.154,1.724,0.105,6.047-1.2,7.197c-0.589-1.256-0.206-3.39-0.48-5.039   c-0.106-0.636-0.072-1.95-0.96-1.919c-0.236,0.853-0.379,2.097-0.48,3.358c-0.109,1.362,0.476,3.111-0.72,3.6   c-0.618-2.102,0.053-5.491-0.96-7.197C124.407,184.316,124.007,184.316,123.607,184.316z M159.607,184.316   c-1.135,5.983-2.098,12.141-2.88,18.478c0.454,0.426,1.585,0.175,2.4,0.24c0.426-0.854-0.045-2.605,0.96-2.88c0.48,0,0.96,0,1.44,0   c0.76,0.52,0.256,2.304,0.96,2.88c0.75-0.049,1.761,0.162,2.16-0.24c-0.227-3.167-0.965-6.308-1.439-9.359   c-0.51-3.278-0.726-6.378-1.68-9.118C160.887,184.316,160.247,184.316,159.607,184.316z M173.046,184.316   c-2.003,0.311-2.816,1.407-3.12,3.118c-0.211,1.188,0,3.89,0,6.239c0,4.048-0.316,7.293,1.2,8.641   c1.986,1.766,8.146,1.107,6.72-3.36c-1.238-0.198-1.966,0.114-2.16,0.96c-0.158,1.041-2.078,0.779-2.88,0.48   c-0.761-1.603-0.48-4.088-0.48-6.48c0-2.453-0.332-5.074,0.48-6.72c1.232-0.825,2.13-0.263,3.12,0.24   c0.101,0.051-0.084,0.635,0,0.72c0.491,0.491,1.526-0.363,2.16,0C178.551,185.015,175.699,183.904,173.046,184.316z    M183.606,184.556c0,6.158,0,12.318,0,18.479c0.72,0,1.439,0,2.159,0c0.705-2.176-0.228-5.987,0.48-8.16   c1.005-0.051,0.764,1.17,0.96,1.68c0.857,2.23,1.548,4.43,2.16,6.48c0.8,0,1.6,0,2.4,0c-0.957-4.163-2.457-7.782-3.6-11.76   c0.968-2.393,2.549-4.171,3.12-6.958c-0.88,0-1.76,0-2.64,0c-0.657,1.903-1.685,3.433-2.64,5.038   c-0.037-1.724,0.144-3.662-0.24-5.038C185.015,184.365,184.004,184.154,183.606,184.556z M204.486,185.755   c-0.96-1.551-5.294-1.804-7.44-1.199c0,0.16,0,0.32,0,0.48c0,4.391,0,9.688,0,13.918c0,1.449-0.521,3.749,0.72,4.08   c0.4,0,0.8,0,1.2,0c1.172-2.027-0.078-6.478,0.72-8.88c1.804,0.044,3.644,0.124,4.56-0.72   C205.054,191.559,205.571,187.507,204.486,185.755z M211.686,184.316c-0.202,0.598-0.314,1.285-0.24,2.158   c0.269,0.69,1.757,0.163,1.92,0.96c-0.147,4.332,0.303,9.262-0.24,13.199c-0.638,0.003-1.371-0.091-1.68,0.24c0,0.64,0,1.28,0,1.92   c1.485,0.394,4.515,0.394,6,0c0-0.64,0-1.28,0-1.92c-0.351-0.529-1.901,0.141-1.92-0.72c0-4.4,0-8.8,0-13.2   c0.916,0.116,1.532-0.068,1.92-0.479c0-0.64,0-1.278,0-1.919C215.976,184.026,213.547,184.454,211.686,184.316z M224.166,184.316   c-0.625,0.237-0.642,1.878-0.24,2.397c0.494,0.627,2.409-0.169,2.88,0.48c0,5.279,0,10.56,0,15.84c0.8,0,1.6,0,2.4,0   c0-5.36,0-10.72,0-16.08c0.951-0.089,2.3,0.22,2.88-0.24c0-0.799,0-1.598,0-2.397C229.445,184.316,226.805,184.316,224.166,184.316   z M237.365,184.316c-0.426,0.454-0.175,1.585-0.24,2.397c0.494,0.627,2.409-0.169,2.88,0.48c0.157,5.203-0.315,11.035,0.24,15.84   c0.72,0,1.439,0,2.16,0c0.556-4.885,0.083-10.797,0.239-16.08c0.952-0.089,2.3,0.22,2.88-0.24c0-0.719,0-1.438,0-2.158   C243.27,184.012,240.017,184.465,237.365,184.316z M257.045,184.796c-1.296-0.854-4.835-0.35-5.521,0.24   c-0.556,0.479-1.184,2.175-1.199,3.358c-0.013,0.864,0.376,2.139,0.479,2.399c0.616,1.552,2.718,2.878,3.84,4.561   c1.111,1.665,1.624,3.261,1.2,5.279c-0.598,0.202-1.286,0.314-2.16,0.24c-0.795-0.264-0.578-1.322-0.96-1.68   c-0.604-0.565-1.282-0.178-2.16,0c-0.192,2.406,0.651,3.489,2.4,3.84c1.61,0.322,3.612-0.169,4.08-0.48   c2.523-1.675,0.892-6.958-0.48-8.64c-1.087-1.333-2.093-2.481-2.88-3.6c-0.293-0.418-0.645-0.59-0.72-0.96   c-0.157-0.771-0.25-1.915,0.72-2.641c0.73,0.075,1.102-0.116,1.44,0c1.314,0.452,0.376,2.291,1.68,2.641c0.32,0,0.641,0,0.96,0   C259.207,188.015,257.943,185.388,257.045,184.796z M277.444,185.036c0.837,4.604-1.895,16.234,1.92,17.758   c1.406,0.562,2.819,0.195,4.319,0c0.132-0.625,0.938-0.743,1.2-1.2c1.106-1.919,0.533-10.214,0.48-13.68   c-0.027-1.761,0.543-3.773-1.2-3.598c-1.081,0.108-0.792,0.308-0.96,1.199c-0.401,2.126,0,5.031,0,7.198   c0,4.147,0.971,9.85-3.12,7.92c-0.473-3.674-0.182-8.68-0.24-12.479c-0.021-1.347,0.249-2.812-0.479-3.838   C278.558,184.39,277.283,183.996,277.444,185.036z M298.804,192.234c0.385-1.242-0.131-6.114-0.479-6.479   c-0.372-0.387-0.551-0.658-1.2-0.959c-1.174-0.543-5.148-0.73-6.24-0.24c0.157,6.081-0.316,12.795,0.24,18.479   c0.56,0,1.12,0,1.68,0c0.425-1.134,0.23-3.06,0.24-4.8c0.009-1.675-0.539-3.781,0.96-4.08c0.956,0.042,0.683,1.049,0.96,1.92   c0.223,0.699,0.516,1.541,0.72,2.4c0.433,1.814,0.43,4.172,1.681,4.56c0.474,0.146,0.913-0.108,1.439,0   c-0.372-3.229-1.516-5.685-2.16-8.64C297.451,193.612,298.498,193.219,298.804,192.234z M310.803,184.796   c-0.874-0.575-2.992-0.728-4.079-0.479c-3.333,0.759-2.399,5.46-2.399,10.078c0,3.247-0.162,6.465,0.479,7.439   c1.021,1.549,4.28,1.861,5.999,0.72c1.754-1.164,1.611-5.086,1.2-8.159c-1.101-0.326-3.633-0.586-4.08,0.479   c-0.181,1.673,1.645,0.772,2.16,2.16c0.774,2.085-0.42,4.191-2.64,3.84c-0.081-0.013-0.179-0.418-0.479-0.24   c-0.754-0.761-0.438-1.95-0.48-3.12c-0.098-2.667-0.074-5.255,0-7.68c0.039-1.272-0.289-2.537,0.48-3.359c0.719,0,1.439,0,2.159,0   c1.282,0.317,0.383,2.816,2.64,2.159C312.581,187.53,311.655,185.357,310.803,184.796z M342.003,203.034   c4.301-0.122,3.84-3.966,3.84-8.64c0-2.339,0.299-5.291,0-7.2c-0.335-2.145-2.357-3.317-5.04-2.878   c-1.214,0.198-1.98,0.845-2.64,1.438c-0.39,2.004-0.24,4.93-0.24,7.919c0,3.001-0.455,6.337,0.48,7.92   c0.318,0.54,1.108,0.587,1.199,1.2C340.417,202.968,341.191,203.058,342.003,203.034z M359.282,192.234   c-0.072-2.089,0.194-4.516-0.24-6.239c-1.073-1.683-4.401-1.983-7.2-1.679c-0.237,0.025-0.288,0.173-0.479,0.239   c0,6.158,0,12.318,0,18.479c0.64,0,1.279,0,1.92,0c0.523-1.774,0.088-4.971,0.239-6.96c0.058-0.745-0.276-1.835,0.721-1.92   c1.281-0.118,0.955,1.396,1.2,2.16c0.315,0.988,0.497,1.929,0.72,2.88c0.231,0.99,0.671,3.558,1.2,3.84   c0.437,0.232,0.979-0.152,1.92,0c-0.375-3.226-1.652-5.548-2.16-8.64C357.831,193.663,358.775,193.167,359.282,192.234z    M371.282,184.796c-0.916-0.613-3.017-0.722-4.08-0.479c-3.239,0.737-2.4,4.564-2.4,9.357c0,4.362-0.401,7.975,1.44,9.12   c2.336,0.34,4.384,0.579,5.52-0.72c1.442-1.648,0.39-4.776,0.721-7.68c-1.101-0.198-4.335-0.945-4.08,0.96   c0.082,1.117,1.924,0.476,2.159,1.439c0.48,2.942-0.694,4.426-2.399,4.08c-2.121-0.431-1.44-4.282-1.44-6.96   c0-3.764-0.91-8.629,2.88-7.439c1.188,0.331,0.364,2.676,2.4,2.159C373.234,187.607,371.936,185.234,371.282,184.796z    M143.047,185.516c0.157,5.921-0.316,12.475,0.24,17.998c0.72,0,1.44,0,2.16,0c0.695-2.265-0.215-6.135,0.48-8.399   c0.882,0.078,2.125-0.205,2.64,0.24c0.148,2.651-0.304,5.904,0.24,8.159c0.8,0,1.6,0,2.4,0c0.397-5.694,0.397-13.024,0-18.718   c-0.801,0-1.6,0-2.4,0c-0.702,2.016,0.227,5.665-0.48,7.679c-0.437,0.366-1.962,0.366-2.4,0c-0.541-2.02-0.094-5.026-0.24-7.438   C145.174,184.759,142.871,184.349,143.047,185.516z M271.204,185.755c-1.412-1.432-4.778-0.84-7.2-0.959   c-0.397,5.614-0.397,12.862,0,18.479c1.818,0.418,5.132,0.361,6.96,0c1.661-1.952,1.558-7.355,0.24-9.601   C272.457,191.993,272.735,187.309,271.204,185.755z M317.522,185.516c0.158,5.921-0.316,12.475,0.24,17.998c0.721,0,1.44,0,2.16,0   c0.695-2.265-0.215-6.135,0.48-8.399c0.8,0,1.6,0,2.399,0c0.672,2.288-0.198,6.118,0.48,8.399c0.72,0,1.44,0,2.16,0   c0.75-1.177,0.471-2.743,0.479-4.319c0.019-3.404,0-6.687,0-9.84c0-1.674,0.276-3.316-0.479-4.559c-0.72,0-1.44,0-2.16,0   c-0.801,2.078,0.459,6.217-0.721,7.918c-0.814-0.064-1.945,0.187-2.399-0.239c-0.126-2.515,0.272-5.553-0.24-7.679   C319.029,184.943,317.39,184.343,317.522,185.516z M138.487,202.314c-0.354-1.697-2.808-0.811-2.64,0.479   c0.06,0.461,0.611,0.78,1.44,1.2c0.041-0.279,0.379-0.261,0.72-0.24C138.241,203.008,138.641,203.05,138.487,202.314z    M332.403,201.354c-1.322-0.123-2.006,0.394-1.92,1.68c0.561,0.957,1.431,0.99,2.399,0.479   C333.22,202.464,332.953,202.033,332.403,201.354z M78.968,32.406c-0.353,3.694-0.339,9.057-0.24,12.959   c0.037,1.478-0.266,2.92,0.72,3.84c0.761,0.333,2.12,0.333,2.88,0c0.975-0.851,0.685-2.444,0.72-3.84c0.037-1.456,0-3.103,0-4.56   c0-3.229,0.317-6.585-0.48-8.879C81.405,31.182,79.658,31.41,78.968,32.406z M188.406,31.687c-1.39,1.865-0.96,5.377-0.96,8.639   c0,3.21-0.386,6.806,0.72,8.879c0.803,0.342,2.317,0.342,3.12,0c1.167-2.013,0.72-5.659,0.72-8.879c0-3.294,0.493-6.822-0.96-8.639   C190.23,31.272,189.287,31.52,188.406,31.687z M288.004,31.926c0.116,2.204-0.26,4.9,0.24,6.72c0.746,0.383,2.854,0.383,3.6,0   c1.149-1.141,0.917-5.226,0.24-6.72C291.199,31.329,288.848,31.176,288.004,31.926z M355.202,32.406c0,5.76,0,11.519,0,17.279   c0.88,0.38,3.288,0.481,3.84-0.24c0.404-5.052,0.392-11.746,0-16.799C358.181,32.148,356.446,32.522,355.202,32.406z    M239.045,45.845c0.691-0.028,1.571,0.131,1.92-0.24c-0.236-1.764,0.31-4.309-1.2-4.8C239.1,42.034,238.659,44.405,239.045,45.845z    M389.762,45.605c0.39,0.36,1.771,0.36,2.159,0c-0.053-1.786-0.143-3.536-0.719-4.8c-0.24,0-0.48,0-0.72,0   C390.18,42.343,389.738,43.741,389.762,45.605z M294.724,99.361c0,3.397-0.705,9.544,0.96,11.039   c1.354,1.215,5.469,0.833,7.681,0.72c2.998-0.154,5.329-0.823,6.238-2.16c1.26-1.852,0.721-6.478,0.721-9.119   c0-3.312,0.544-7.417-0.24-9.839c-0.033-0.101-0.716-1.433-0.72-1.44c-0.127-0.184-0.614-0.419-0.96-0.72   c-0.355-0.308-0.656-0.791-0.96-0.959c-1.69-0.931-7.202-1.473-9.84-0.96c-0.937,0.182-1.874,0.4-2.64,1.919   C294.531,91.182,294.724,94.962,294.724,99.361z M199.446,186.714c0,1.761,0,3.521,0,5.28c1.107-0.013,2.346,0.106,3.12-0.24   c0-1.52,0-3.04,0-4.56C201.809,186.551,200.585,186.352,199.446,186.714z M293.284,186.475c-0.424,1.515-0.351,4.473,0,6   c1.044,0.004,2.159,0.079,2.88-0.24c0.665-1.25,0.737-4.283,0-5.521C295.443,186.395,294.328,186.471,293.284,186.475z    M340.562,187.194c-0.316,0.003-0.219,0.421-0.479,0.479c0,2.072,0,4.433,0,6.721c0,2.26-0.328,4.574,0.479,6.239   c3.821,1.42,3.12-2.69,3.12-6.239c0-3.078,0.191-6.396-0.479-7.44C342.643,186.414,340.758,186.118,340.562,187.194z    M353.762,186.475c-0.392,1.484-0.392,4.515,0,6c1.393,0.111,2.522-0.038,3.12-0.721c0-1.6,0-3.2,0-4.8   C356.268,186.369,354.982,186.453,353.762,186.475z M266.644,187.194c-0.392,1.332-0.392,4.188,0,5.52   c1.113,0.073,2.078-0.002,2.641-0.479c0.369-1.144,0.369-3.417,0-4.561C268.722,187.196,267.757,187.121,266.644,187.194z    M159.847,197.754c0.56,0,1.12,0,1.68,0c-0.055-1.385-0.229-2.65-0.48-3.84c-0.24,0-0.48,0-0.72,0   C160.087,195.114,159.762,196.229,159.847,197.754z M266.644,194.874c-0.534,1.626-0.099,4.221-0.239,6.24   c1.044,0.004,2.159,0.079,2.88-0.24c0.469-1.371,0.145-3.534,0.239-5.28C268.876,195.042,267.96,194.758,266.644,194.874z"
   id="path8" />
</g>
<g
   id="Light">
	<path
   fill-rule="evenodd"
   clip-rule="evenodd"
   fill="#FFCC33"
   d="M61.449,28.807c1.284,2.316,1.542,5.657,2.88,7.92   c1.123-0.915,1.351-2.864,1.92-4.56c0.509-1.516,0.659-3.848,3.12-3.36c0.465,2.137-0.791,4.177-1.44,6.24   c-0.472,1.5-0.9,3.085-1.44,4.799c-0.969,3.081-0.068,7.998-0.72,12.479c-0.951-0.088-2.3,0.22-2.88-0.24   c-0.32-4.046,0.442-7.326,0-10.559c-0.26-1.9-1.329-3.886-1.92-5.76c-0.672-2.131-1.276-4.116-1.68-6.239c0-0.16,0-0.32,0-0.48   C59.687,28.645,60.698,28.856,61.449,28.807z M76.808,30.007c-0.075,0.081,0.047,0.376,0,0.479c-0.039,0.086-0.424,0.138-0.48,0.24   c-0.987,1.816-0.48,7.129-0.48,11.039c0,1.926-0.202,4.161,0,5.76c0.428,3.382,2.168,4.887,5.28,4.799   c6.115-0.172,4.8-7.446,4.8-14.158c0-1.265,0.129-3.034,0-4.56c-0.243-2.876-0.94-4.011-3.12-4.56c-1.351-0.34-2.816-0.104-3.36,0   C78.41,29.247,77.363,29.408,76.808,30.007z M82.568,31.926c0.797,2.294,0.48,5.65,0.48,8.879c0,1.457,0.037,3.104,0,4.56   c-0.036,1.396,0.254,2.989-0.72,3.84c-0.76,0.333-2.119,0.333-2.88,0c-0.986-0.919-0.683-2.362-0.72-3.84   c-0.099-3.902-0.113-9.265,0.24-12.959C79.658,31.41,81.405,31.182,82.568,31.926z M92.888,29.527   c-0.418,1.919-0.24,6.755-0.24,11.279c0,4.6-0.362,8.726,1.2,10.319c0.381,0.389,1.681,1.069,2.4,1.2   c2.726,0.496,5.045-0.743,5.759-2.16c0.552-1.096,0.454-2.377,0.48-4.08c0.078-5.12,0.224-10.312,0-14.879   c-0.039-0.792,0.463-2.272-0.72-2.4c-2.544-0.615-1.92,2.374-1.92,4.32c0,4.329,0.145,8.333,0,12.479   c-0.086,2.472-0.102,4.123-2.159,4.08c-3.299-0.07-2.16-6.275-2.16-9.359c0-4.251,0.195-8.092-0.24-11.279   c-0.349-0.371-1.229-0.211-1.92-0.24C93.067,28.905,92.878,29.116,92.888,29.527z M118.088,28.807   c-0.013,0.307-0.308,0.333-0.24,0.72c-0.014,0.146-0.036,0.284-0.24,0.24c0.94,5.998,2.123,12.006,3.12,17.759   c0.231,1.334,0.241,3.648,0.96,4.319c0.619,0.578,1.429,0.451,1.92,0.24c0.722-0.558,0.796-1.616,0.96-2.4   c0.632-3.025,0.895-5.892,1.44-8.879c0.707-3.868,1.954-7.926,1.68-11.759c-0.398-0.402-1.409-0.191-2.16-0.24   c-0.935,1.484-1.107,3.634-1.44,5.76c-0.327,2.085-0.347,4.391-1.2,6c-0.84-0.569-0.53-1.709-0.719-2.64   c-0.183-0.895-0.552-1.933-0.721-2.88c-0.372-2.087-0.387-4.306-1.2-6C119.85,28.645,118.839,28.856,118.088,28.807z    M169.206,29.767c-0.263,0.252-0.991,1.457-1.2,2.64c-0.308,1.743,0,4.997,0,8.16c0,5.84-0.664,10.513,2.64,11.519   c2.436,0.741,5.665-0.236,6.48-1.44c0.226-0.334,0.623-1.551,0.72-2.16c0.322-2.021-0.05-4.94-0.24-6.959   c-1.263-0.247-4.826-0.866-5.04,0.72c-0.147,1.746,2.375,0.824,2.64,2.159c-0.099,1.582,0.313,3.673-0.48,4.56   c-1.167,0.791-3.709,0.654-4.08-0.72c0.088-4.053-0.118-9.117,0-12.959c0.039-1.286-0.344-2.809,0.72-3.6   c1.063-0.261,1.88-0.502,2.64-0.24c1.385,0.478,0.668,2.187,1.92,2.64c0.759,0.33,0.802,0.052,1.68,0   C179.183,28.642,171.55,27.527,169.206,29.767z M185.046,30.966c-0.906,2.137-0.24,6.695-0.24,10.56   c0,5.587-0.358,9.573,2.88,10.559c1.381,0.42,3.436,0.247,4.56-0.24c1.025-0.444,1.485-1.06,1.92-2.16   c0.868-2.199,0.48-5.088,0.48-8.159c0-3.376,0.592-9.258-0.48-11.04c-0.979-1.626-3.99-1.866-6-1.439   C186.87,29.322,185.505,29.886,185.046,30.966z M191.046,31.687c1.453,1.817,0.96,5.345,0.96,8.639c0,3.22,0.447,6.866-0.72,8.879   c-0.803,0.342-2.317,0.342-3.12,0c-1.106-2.074-0.72-5.669-0.72-8.879c0-3.262-0.43-6.774,0.96-8.639   C189.287,31.52,190.23,31.272,191.046,31.687z M201.846,28.807c-0.472,0.648-0.143,2.097-0.24,3.12   c1.169,0.11,2.811-0.251,3.6,0.24c0,6.64,0,13.279,0,19.918c0.613,0.378,2.507,0.378,3.119,0c0.158-6.642-0.316-13.916,0.24-20.159   c1.12,0,2.24,0,3.36,0c-0.097-1.023,0.232-2.472-0.24-3.12C208.405,28.807,205.126,28.807,201.846,28.807z M238.805,28.807   c-0.013,0.307-0.308,0.333-0.24,0.72c-0.87,3.544-1.311,7.457-1.92,11.279c-0.292,1.837-0.68,3.68-0.959,5.52   c-0.289,1.9-0.652,3.909-0.48,5.76c0.516,0.445,1.758,0.162,2.64,0.24c0.699-0.821,0.212-2.827,0.96-3.599c0.8,0,1.6,0,2.4,0   c0.736,0.863,0.278,2.921,1.2,3.599c0.814-0.065,1.945,0.186,2.399-0.24c0.474-0.853-0.127-1.78-0.24-2.64   c-0.431-3.275-0.739-5.999-1.199-8.879c-0.31-1.939-0.661-3.848-0.96-5.76c-0.306-1.95-0.604-3.957-1.2-5.759   C240.75,28.621,239.62,28.872,238.805,28.807z M239.765,40.806c1.51,0.491,0.964,3.036,1.2,4.8c-0.349,0.371-1.229,0.211-1.92,0.24   C238.659,44.405,239.1,42.034,239.765,40.806z M295.204,38.886c0.729-1.885,0.186-7.412-0.48-8.4   c-1.169-1.736-6.566-2.092-9.12-1.439c-0.146,0.014-0.284,0.036-0.239,0.24c0,5.736,0,12.005,0,17.519   c0,2.125-0.347,4.204,0.479,5.52c0.691-0.028,1.571,0.131,1.92-0.24c0.434-1.399,0.24-3.417,0.24-5.76   c0-2.119-0.675-4.968,1.2-5.04c1.576-0.06,1.641,3.367,2.16,5.52c0.111,0.465,0.342,0.875,0.479,1.44   c0.566,2.32,0.44,5.321,3.36,3.839c0.228-1.73-0.692-3.499-1.2-5.28c-0.522-1.83-0.982-3.72-1.44-5.52   C293.271,40.472,294.66,40.289,295.204,38.886z M292.084,31.926c0.677,1.495,0.909,5.579-0.24,6.72c-0.746,0.383-2.854,0.383-3.6,0   c-0.5-1.82-0.124-4.517-0.24-6.72C288.848,31.176,291.199,31.329,292.084,31.926z M303.844,28.807   c-0.46,0.58-0.151,1.928-0.24,2.88c0.388,0.573,2.116-0.195,2.161,0.72c0,5.44,0,10.879,0,16.319   c-0.319,0.641-1.605,0.314-2.161,0.72c0.089,0.951-0.22,2.299,0.24,2.879c2.239,0,4.479,0,6.719,0   c0.46-0.58,0.152-1.928,0.24-2.879c-0.387-0.573-2.114,0.194-2.16-0.72c0-5.52,0-11.039,0-16.559c0.39-0.491,1.771,0.011,2.16-0.48   c-0.089-0.952,0.22-2.3-0.24-2.88C308.323,28.807,306.083,28.807,303.844,28.807z M335.763,29.527   c-0.434,4.631-0.24,12.207-0.24,17.278c0,1.964-0.318,3.946,0.48,5.52c0.814-0.065,1.945,0.186,2.4-0.24   c0.712-3.368-0.234-8.394,0.479-11.759c0.497,0.137,0.562,0.729,0.72,1.2c0.139,0.416,0.354,1.026,0.48,1.44   c0.325,1.067,0.407,2.302,0.72,3.359c0.15,0.508,0.341,0.964,0.48,1.44c0.503,1.721,0.954,3.235,1.68,4.56c0.8,0,1.601,0,2.4,0   c0.396-7.207,0.401-16.072,0-23.278c-0.454-0.426-1.585-0.175-2.4-0.24c-0.48,2.565-0.174,6.409-0.24,9.12   c-0.024,1.005,0.365,2.333-0.479,2.879c-1.058-1.656-1.336-3.826-1.92-5.759c-0.618-2.045-1.487-3.963-1.92-6   C337.777,28.883,335.663,28.283,335.763,29.527z M389.762,28.807c-0.058,0.343-0.395,0.405-0.479,0.72   c-1.049,7.511-2.39,14.729-3.36,22.318c0.445,0.675,1.783,0.457,2.88,0.48c0.62-0.98,0.098-3.102,1.2-3.599   c0.814,0.065,1.944-0.186,2.399,0.24c0.363,1.076,0.086,2.793,0.961,3.359c0.926,0.047,1.768,0.009,2.398-0.24   c-0.061-4.012-1.084-7.778-1.68-11.519c-0.617-3.884-0.928-7.77-1.92-11.519C391.708,28.621,390.577,28.872,389.762,28.807z    M390.482,40.806c0.239,0,0.479,0,0.72,0c0.576,1.264,0.666,3.014,0.719,4.8c-0.388,0.36-1.77,0.36-2.159,0   C389.738,43.741,390.18,42.343,390.482,40.806z M402.961,28.807c-0.473,0.648-0.143,2.097-0.24,3.12   c1.17,0.11,2.812-0.251,3.601,0.24c0,6.64,0,13.279,0,19.918c0.612,0.378,2.507,0.378,3.12,0   c0.157-6.642-0.317-13.916,0.239-20.159c1.12,0,2.24,0,3.36,0c-0.097-1.023,0.232-2.472-0.24-3.12   C409.521,28.807,406.241,28.807,402.961,28.807z M135.127,29.287c-0.346,0.135-0.586,0.375-0.72,0.72   c0.158,7.441-0.318,15.516,0.24,22.558c2.659,0.397,6.94,0.397,9.6,0c0.323-0.725,0.323-1.916,0-2.64   c-1.873-0.607-5.11,0.15-6.96-0.479c0.124-2.436-0.27-5.39,0.24-7.439c1.32-0.12,3.145,0.265,4.08-0.24   c0.311-0.696,0.311-1.703,0-2.399c-0.887-0.633-3.193,0.154-4.08-0.48c-0.394-1.639-0.394-4.841,0-6.48   c2.204-0.117,4.899,0.26,6.72-0.24c0.249-0.632,0.287-1.473,0.24-2.4C142.222,28.752,138.163,29.532,135.127,29.287z    M268.804,29.527c-0.146,0.014-0.283,0.036-0.24,0.24c0,5.736,0,12.005,0,17.519c0,2.124-0.346,4.204,0.48,5.52   c0.64,0,1.28,0,1.92,0c0.813-1.262,0.48-3.254,0.48-5.279c0-1.942-0.186-4.057,0.239-5.52c1.32-0.12,3.145,0.265,4.08-0.24   c0-0.8,0-1.6,0-2.399c-0.887-0.633-3.193,0.154-4.08-0.48c-0.379-1.624-0.414-4.861,0-6.48c2.204-0.117,4.9,0.26,6.721-0.24   c0.323-0.725,0.323-1.916,0-2.64C275.726,29.149,271.477,29.116,268.804,29.527z M324.964,29.287c-1.738-0.026-3.734,0.021-5.281,0   c-0.24,0-0.285,0.195-0.479,0.24c-0.146,0.014-0.284,0.036-0.24,0.24c0,7.6,0,15.199,0,22.798c2.77,0.392,7.07,0.392,9.84,0   c0-0.8,0-1.6,0-2.4c-1.531-0.948-4.679-0.281-6.96-0.48c0.147-2.493-0.302-5.582,0.24-7.679c1.28,0,2.561,0,3.84,0   c0.287-0.673,0.264-1.656,0.24-2.64c-1.01-0.591-3.29,0.09-4.32-0.48c0.158-2.082-0.317-4.798,0.24-6.48   c2.17-0.23,5.314,0.515,6.72-0.48c-0.117-0.757,0.433-0.848,0.24-1.679C328.428,28.951,326.688,29.313,324.964,29.287z    M352.323,29.767c-0.404,7.054-0.395,15.743,0,22.798c1.896,0.192,5.039,0.557,6.959,0.24c0.569-0.094,1.723-0.528,1.92-0.72   c0.073-0.071-0.044-0.383,0-0.48c0.039-0.087,0.426-0.135,0.479-0.24c0.189-0.364,0.185-0.852,0.24-1.2   c0.415-2.609,0-6.438,0-8.639c0-2.962,0.765-9.2-0.479-11.04c-1.5-2.214-5.438-0.743-8.4-1.2   C352.759,29.403,352.499,29.543,352.323,29.767z M359.042,32.646c0.392,5.053,0.404,11.747,0,16.799   c-0.552,0.721-2.96,0.62-3.84,0.24c0-5.76,0-11.519,0-17.279C356.446,32.522,358.181,32.148,359.042,32.646z M108.728,31.687   c0.149,0.89,0.674,1.405,0.96,2.16c-0.216,0.71-1.038,1.667-0.48,2.4c2.09-0.451,3.053-3.103,2.4-5.52   C110.708,29.893,108.661,30.186,108.728,31.687z M379.922,85.683c-0.518-1.576-1.104-2.459-1.68-3.36   c-0.237-0.37-0.217-0.608-0.48-0.96c-1.062-1.418-2.456-2.563-3.84-3.36c-3.562-2.049-8.801-2.946-14.4-2.399   c-3.383,0.33-6.589,1.82-8.399,3.359c-1.104,0.939-2.098,1.918-2.639,3.12c-0.039,0.084-0.424,0.14-0.48,0.24   c-1.108,1.962-1.94,5.084-2.16,7.439c-0.448,4.813,0,9.847,0,14.4c0,9.227,0,19.466,0,28.797c0,4.857-0.445,9.83,0,14.399   c0.28,2.872,1.377,5.844,2.16,7.198c0.055,0.096,0.404,0.14,0.48,0.24c0.151,0.203,0.108,0.538,0.239,0.72   c0.833,1.153,2.13,2.434,3.119,2.881c0.079,0.035,0.149,0.421,0.241,0.479c0.311,0.204,0.938,0.484,1.438,0.72   c5.396,2.531,15.485,2.049,20.16-0.479c0.274-0.148,0.468-0.555,0.721-0.72c0.447-0.294,0.966-0.298,1.199-0.48   c0.441-0.345,1.849-1.949,2.16-2.64c0.035-0.078,0.421-0.151,0.48-0.24c0.073-0.11-0.056-0.357,0-0.48   c0.037-0.083,0.422-0.142,0.479-0.239c0.513-0.872,0.897-2.17,1.2-3.12c0.111-0.349,0.42-0.736,0.48-0.96   c1.044-3.897,0.72-10.198,0.72-14.158c0-3.477,0.805-12.395-0.96-14.159c-1.509-1.509-5.056-0.96-7.92-0.96   c-3.124,0-7.029-0.394-8.4,0.72c-1.13,0.917-1.731,4.957-0.479,6.48c1.214,1.479,5.252,0.781,6.959,2.159   c1.849,1.494,1.68,4.211,1.68,7.68c0,1.467,0.04,3.135,0,4.799c-0.062,2.594-0.381,4.262-1.44,5.521   c-1.219,1.447-2.765,2.053-4.8,2.398c-4.641,0.79-8.506-0.072-10.08-2.879c-1.856-3.311-0.96-10.507-0.96-15.358   c0-10.563,0-21.853,0-32.638c0-3.085-0.273-5.859,0-8.159c0.438-3.689,2.53-6.151,5.521-6.719c3.846-0.73,8.264,0.349,10.08,2.639   c0.73,0.921,1.177,1.837,1.439,2.88c0.354,1.398-0.118,2.698,0.721,3.84c1.801,1.333,6.612,1.344,8.399,0   C381.366,91.051,380.673,87.966,379.922,85.683z M50.169,159.117c0.145-0.775-0.023-1.618,0-2.4c0.282-9.52-0.291-19.229,0-29.037   c0.081-2.738,0.245-4.058,1.68-4.8c2.113-1.093,8.876-1.097,10.32,0c1.582,1.202,1.44,4.627,1.44,8.159c0,7.304,0,12.888,0,19.678   c0,2.787-0.496,7.929,0.48,9.36c0.789,1.157,2.697,1.173,5.28,1.2c1.741,0.018,3.736,0.114,4.8-0.24   c0.863-0.288,0.985-0.484,1.199-0.96c0.04-0.089,0.429-0.131,0.48-0.24c0.495-1.052,0.219-2.476,0.24-3.84   c0.364-23.862,0-45.721,0-69.354c0-3.752,0.356-8.506-0.959-9.839c-1.68-1.702-9.098-1.461-10.56,0   c-1.235,1.235-0.96,4.275-0.96,7.92c0,2.274,0,6.433,0,9.119c0,4.088,0.913,15.433-0.96,17.279   c-1.227,1.209-9.268,1.604-11.04,0.48c-1.831-1.161-1.44-5.017-1.44-7.919c0-6.764,0-12.068,0-18.719   c0-2.754,0.406-7.192-0.96-8.399c-1.052-0.93-6.118-1.119-7.92-0.72c-3.604,0.797-2.88,4.797-2.88,9.12c0,22.011,0,43.656,0,65.274   c0,3.519-0.362,9.227,0.72,10.319c0.867,0.876,2.937,0.721,5.04,0.721c2.194,0,4.462,0.114,5.28-0.48   C49.57,160.159,50.055,159.728,50.169,159.117z M136.567,88.082c-0.273-1.656-0.555-3.272-1.2-4.559   c-0.279-0.557-0.832-0.948-1.2-1.44c-0.158-0.211-0.094-0.533-0.24-0.72c-0.906-1.163-2.371-2.194-3.36-2.64   c-0.085-0.039-0.139-0.424-0.24-0.48c-0.344-0.192-0.917-0.269-1.44-0.48c-0.444-0.18-0.942-0.554-1.44-0.719   c-6.619-2.199-16.66-1.238-20.879,1.919c-0.985,0.737-1.997,1.729-2.64,2.4c-0.155,0.163-0.086,0.287-0.24,0.48   c-0.331,0.416-0.945,0.772-1.2,1.2c-0.782,1.31-1.63,3.724-1.92,5.039c-0.131,0.595-0.153,1.471-0.24,2.16   c-0.345,2.737-0.24,5.778-0.24,9.119c0,11.726,0,25.811,0,37.438c0,6.446,0.133,12.544,2.16,16.798   c0.047,0.101,0.375,0.611,0.48,0.721c0.183,0.191,0.073,0.229,0.24,0.479c0.536,0.805,1.288,1.288,1.92,1.92   c0.873,0.873,2.235,2.219,3.12,2.641c6.223,2.965,17.398,2.83,22.799-0.721c0.344-0.226,0.524-0.605,0.96-0.96   c0.321-0.261,0.92-0.434,1.2-0.72c0.134-0.137,0.13-0.577,0.24-0.72c0.116-0.152,0.341-0.312,0.48-0.48   c0.957-1.165,1.38-1.922,1.92-3.359c0.985-2.626,1.578-5.191,0.96-8.64c-1.985-1.153-7.024-0.927-9.36-0.24   c-0.584,0.991-0.509,1.902-0.72,2.641c-0.275,0.964-0.285,1.7-0.96,2.398c-0.292,0.305-0.921,0.451-1.44,0.721   c-3.677,1.911-9.859,1.36-12-1.439c-1.977-2.587-1.44-9.239-1.44-14.639c0-12.75-0.239-25.332,0-37.438   c0.032-1.602-0.11-3.409,0.24-4.56c0.027-0.089,0.43-0.36,0.48-0.48c0.209-0.502,0.289-1.194,0.48-1.44   c0.96-1.236,3.702-2.309,6.48-2.399c3.803-0.124,7.735,0.872,8.4,3.599c-0.042,1.245,0.029,1.949,0.48,2.4   c1.519,1.52,7.824,0.736,9.36,0C137.261,91.304,136.811,89.563,136.567,88.082z M167.766,75.843   c-1.898-0.056-4.264-0.235-4.799,0.48c-1.712,0.956-1.2,6.013-1.2,9.6c0,22.038,0,43.632,0,64.794c0,3.464-0.481,7.002,0.72,10.08   c1.049,0.732,2.982,0.48,4.799,0.48c1.816,0,3.751,0.252,4.8-0.48c0.609-10.313,0.009-22.021,0.24-33.117   c0.042-1.985-0.191-3.318,0.96-3.84c0.796-0.36,2.293-0.076,2.88,0.24c0.699,0.378,0.909,1.544,1.2,2.16   c0.813,1.721,1.292,3.772,1.681,5.039c1.538,5.019,3.329,10.657,4.799,15.358c0.529,1.69,1.15,3.355,1.68,5.039   c0.521,1.66,0.908,3.64,1.439,5.28c0.51,1.574,1.053,3.462,2.64,4.08c2.598,0.306,7.386,0.616,9.36-0.24   c0.408-2.366-0.769-4.608-1.439-6.72c-1.441-4.528-3.305-9.395-4.32-13.918c-0.021-0.092-0.44-0.593-0.48-0.72   c-0.913-2.913-1.737-5.643-2.64-8.4c-1.928-5.887-3.397-10.81-5.28-16.559c-0.771-2.358-2.026-5.088-1.919-6.959   c0.072-1.272,1.006-2.465,1.68-3.839c3.865-7.875,7.686-15.532,11.279-22.799c0.627-1.268,1.663-2.646,1.44-4.319   c-1.217-1.04-3.445-0.72-5.521-0.72c-2.147,0-4.678-0.414-6,0.24c-0.967,0.479-2.14,3.389-2.639,4.319   c-2.122,3.951-3.845,7.536-5.52,10.799c-1.157,2.253-2.039,4.377-3.12,6.479c-0.541,1.052-1.025,2.279-2.16,2.64   c0-3.855,0-8.229,0-12.479c0-4.154,0.584-8.527-0.96-11.519C170.654,75.741,169.16,75.885,167.766,75.843z M286.324,76.083   c-1.524,0.263-1.957,1.676-2.16,3.359c-0.11,0.917,0,3.424,0,5.52c0,12.575,0,18.812,0,32.877c0,13.768,0,20.257,0,32.638   c0,3.499-0.361,8.835,0.96,10.079c0.986,0.93,6.271,1.092,7.68,0.48c0.747-0.323,0.792-0.586,0.96-0.96   c0.039-0.085,0.425-0.139,0.48-0.24c0.513-0.934,0.417-2.203,0.479-3.359c0.501-9.287,0-16.917,0-25.679   c0-3.096-0.514-8.069,0.96-9.358c2.002-1.751,7.865-0.269,12.239-0.72c2.23-0.23,5.139-1.151,6.48-1.92   c0.261-0.149,0.543-0.65,0.96-0.96c0.428-0.318,0.873-0.394,1.199-0.72c0.255-0.255,0.465-0.856,0.721-1.2   c0.31-0.416,0.797-0.676,0.96-0.959c2.163-3.775,1.92-8.986,1.92-15.599c0-2.984,0.17-6.078,0-8.879   c-0.247-4.08-1.393-7.056-2.88-8.879c-0.812-0.996-1.706-1.886-2.88-2.64c-4.617-2.964-11.089-3.12-18.479-3.12   c-3.184,0-7.448-0.199-9.12,0.24C286.655,76.123,286.477,76.057,286.324,76.083z M294.964,87.842   c0.766-1.519,1.703-1.737,2.64-1.919c2.638-0.513,8.149,0.029,9.84,0.96c0.304,0.168,0.604,0.651,0.96,0.959   c0.346,0.301,0.833,0.536,0.96,0.72c0.004,0.007,0.687,1.339,0.72,1.44c0.784,2.422,0.24,6.527,0.24,9.839   c0,2.642,0.539,7.268-0.721,9.119c-0.909,1.337-3.24,2.006-6.238,2.16c-2.212,0.113-6.326,0.495-7.681-0.72   c-1.665-1.495-0.96-7.642-0.96-11.039C294.724,94.962,294.531,91.182,294.964,87.842z M417.601,156.957   c0.426-8.348,0-15.259,0-23.998c0-2.816-0.537-7.826,0.48-9.359c1.486-2.237,10.589-1.993,12-0.239   c0.194,0.241,0.104,0.679,0.24,0.96c0.096,0.196,0.423,0.431,0.479,0.72c0.126,0.643-0.029,1.556,0,2.4   c0.294,8.395,0,15.835,0,23.997c0,2.732-0.468,7.521,0.72,8.88c1.314,1.502,9.789,1.363,11.039,0.239   c1.492-1.338,0.96-6.452,0.96-9.6c0-22.229,0.001-42.545,0-64.794c0-4.212,0.519-8.979-2.159-10.08   c-1.978-0.812-8.268-0.424-9.359,0.48c-1.271,1.051-1.2,4.387-1.2,7.68c0.001,5.953,0,12.079,0,17.999   c0,3.336,0.191,7.701-0.479,8.639c-0.939,1.312-3.35,1.175-5.761,1.2c-2.76,0.029-5.239,0.199-6.239-0.96   c-1.361-1.577-0.721-5.414-0.721-8.399c0-6.825,0-12.225,0-18.479c0-3.372,0.059-6.933-1.439-7.92   c-0.754-0.496-1.946-0.425-3.36-0.48c-3.175-0.124-5.304-0.274-6.479,1.44c-1.059,1.542-0.721,6.259-0.721,9.84   c0,21.559,0,42.318,0,63.594c0,3.652-0.28,8.721,0.96,9.84c0.938,0.847,2.737,0.709,4.801,0.721   c2.181,0.012,4.443,0.219,5.279-0.48C417.652,159.665,417.532,158.31,417.601,156.957z M223.686,89.522   c0.229,2.572,1.577,5.301,1.44,7.439c-5.52,0-11.04,0-16.56,0c3.501,16.418,7.075,32.763,10.8,48.957c12.56,0,25.12,0,37.68,0   c3.671-16.246,7.32-32.516,10.799-48.957c-5.599,0-11.199,0-16.799,0c0.667-2.693,1.229-5.49,1.92-8.16c-9.84,0-19.68,0-29.52,0   C223.435,89.132,223.559,89.329,223.686,89.522z M96.729,184.316c-0.945,0.888-0.319,2.268-0.24,3.598   c0.181,3.052,0.339,6.976,0.479,10.08c0.086,1.895-0.309,3.586,0.48,5.04c0.64,0,1.28,0,1.919,0c0.306-1.27,0.521-3.124,0.72-4.32   c0.077-0.461-0.368-1.551,0.48-1.439c0.877,1.442,0.502,4.138,1.2,5.76c0.56,0,1.12,0,1.68,0c0.761-0.892,0.385-2.502,0.48-4.32   c0.195-3.725,0.448-8.541,0.48-11.279c0.019-1.574,0.744-3.537-1.44-3.118c-1.591,1.209-0.039,5.559-1.2,7.197   c-0.596-0.777-0.568-2.166-0.72-3.6c-0.132-1.251,0.33-3.103-0.96-3.358c-0.222,1.061-0.344,2.707-0.48,4.078   c-0.109,1.098,0.456,2.583-0.72,2.88c-0.506-2.133-0.045-5.233-0.72-7.197C97.688,184.316,97.208,184.316,96.729,184.316z    M110.168,184.316c-0.979,0.996-0.319,2.534-0.24,4.078c0.158,3.102,0.321,6.989,0.48,10.08c0.085,1.652-0.286,3.231,0.48,4.56   c0.56,0,1.12,0,1.68,0c0.623-0.98,0.755-3.098,0.96-4.32c0.083-0.498-0.368-1.561,0.48-1.439c0.803,1.517,0.501,4.139,1.2,5.76   c0.56,0,1.12,0,1.68,0c0.774-1.357,0.403-3.138,0.48-4.8c0.171-3.675,0.458-7.628,0.48-11.04c0.006-0.979,0.593-2.085-0.24-2.878   c-0.48,0-0.96,0-1.44,0c-1.028,1.69-0.042,5.396-0.96,7.197c-0.997-1.091-0.366-3.825-0.72-5.519   c-0.106-0.508-0.193-1.551-0.96-1.439c-0.198,0.954-0.357,2.248-0.48,3.599c-0.116,1.268,0.457,2.922-0.721,3.359   c-0.604-2.114,0.109-5.548-0.959-7.197C110.968,184.316,110.568,184.316,110.168,184.316z M123.607,184.316   c-0.989,1.027-0.318,2.846-0.24,4.558c0.147,3.232,0.306,7.01,0.48,10.08c0.084,1.482-0.329,2.865,0.48,4.08c0.56,0,1.12,0,1.68,0   c0.848-0.975,0.435-3.076,0.72-4.56c0.06-0.312,0.126-1.298,0.72-1.2c0.748,1.571,0.458,4.183,1.2,5.76c0.56,0,1.12,0,1.68,0   c0.816-1.55,0.39-3.589,0.48-5.521c0.153-3.277,0.487-7.111,0.48-10.319c-0.002-1.006,0.363-2.107-0.24-2.878   c-0.48,0-0.96,0-1.44,0c-1.154,1.724,0.105,6.047-1.2,7.197c-0.589-1.256-0.206-3.39-0.48-5.039   c-0.106-0.636-0.072-1.95-0.96-1.919c-0.236,0.853-0.379,2.097-0.48,3.358c-0.109,1.362,0.476,3.111-0.72,3.6   c-0.618-2.102,0.053-5.491-0.96-7.197C124.407,184.316,124.007,184.316,123.607,184.316z M159.607,184.316   c-1.135,5.983-2.098,12.141-2.88,18.478c0.454,0.426,1.585,0.175,2.4,0.24c0.426-0.854-0.045-2.605,0.96-2.88c0.48,0,0.96,0,1.44,0   c0.76,0.52,0.256,2.304,0.96,2.88c0.75-0.049,1.761,0.162,2.16-0.24c-0.227-3.167-0.965-6.308-1.439-9.359   c-0.51-3.278-0.726-6.378-1.68-9.118C160.887,184.316,160.247,184.316,159.607,184.316z M160.327,193.914c0.24,0,0.48,0,0.72,0   c0.25,1.189,0.425,2.455,0.48,3.84c-0.56,0-1.12,0-1.68,0C159.762,196.229,160.087,195.114,160.327,193.914z M173.046,184.316   c-2.003,0.311-2.816,1.407-3.12,3.118c-0.211,1.188,0,3.89,0,6.239c0,4.048-0.316,7.293,1.2,8.641   c1.986,1.766,8.146,1.107,6.72-3.36c-1.238-0.198-1.966,0.114-2.16,0.96c-0.158,1.041-2.078,0.779-2.88,0.48   c-0.761-1.603-0.48-4.088-0.48-6.48c0-2.453-0.332-5.074,0.48-6.72c1.232-0.825,2.13-0.263,3.12,0.24   c0.101,0.051-0.084,0.635,0,0.72c0.491,0.491,1.526-0.363,2.16,0C178.551,185.015,175.699,183.904,173.046,184.316z    M183.606,184.556c0,6.158,0,12.318,0,18.479c0.72,0,1.439,0,2.159,0c0.705-2.176-0.228-5.987,0.48-8.16   c1.005-0.051,0.764,1.17,0.96,1.68c0.857,2.23,1.548,4.43,2.16,6.48c0.8,0,1.6,0,2.4,0c-0.957-4.163-2.457-7.782-3.6-11.76   c0.968-2.393,2.549-4.171,3.12-6.958c-0.88,0-1.76,0-2.64,0c-0.657,1.903-1.685,3.433-2.64,5.038   c-0.037-1.724,0.144-3.662-0.24-5.038C185.015,184.365,184.004,184.154,183.606,184.556z M204.486,185.755   c-0.96-1.551-5.294-1.804-7.44-1.199c0,0.16,0,0.32,0,0.48c0,4.391,0,9.688,0,13.918c0,1.449-0.521,3.749,0.72,4.08   c0.4,0,0.8,0,1.2,0c1.172-2.027-0.078-6.478,0.72-8.88c1.804,0.044,3.644,0.124,4.56-0.72   C205.054,191.559,205.571,187.507,204.486,185.755z M202.566,187.194c0,1.52,0,3.04,0,4.56c-0.774,0.347-2.013,0.228-3.12,0.24   c0-1.76,0-3.52,0-5.28C200.585,186.352,201.809,186.551,202.566,187.194z M211.686,184.316c-0.202,0.598-0.314,1.285-0.24,2.158   c0.269,0.69,1.757,0.163,1.92,0.96c-0.147,4.332,0.303,9.262-0.24,13.199c-0.638,0.003-1.371-0.091-1.68,0.24c0,0.64,0,1.28,0,1.92   c1.485,0.394,4.515,0.394,6,0c0-0.64,0-1.28,0-1.92c-0.351-0.529-1.901,0.141-1.92-0.72c0-4.4,0-8.8,0-13.2   c0.916,0.116,1.532-0.068,1.92-0.479c0-0.64,0-1.278,0-1.919C215.976,184.026,213.547,184.454,211.686,184.316z M224.166,184.316   c-0.625,0.237-0.642,1.878-0.24,2.397c0.494,0.627,2.409-0.169,2.88,0.48c0,5.279,0,10.56,0,15.84c0.8,0,1.6,0,2.4,0   c0-5.36,0-10.72,0-16.08c0.951-0.089,2.3,0.22,2.88-0.24c0-0.799,0-1.598,0-2.397C229.445,184.316,226.805,184.316,224.166,184.316   z M237.365,184.316c-0.426,0.454-0.175,1.585-0.24,2.397c0.494,0.627,2.409-0.169,2.88,0.48c0.157,5.203-0.315,11.035,0.24,15.84   c0.72,0,1.439,0,2.16,0c0.556-4.885,0.083-10.797,0.239-16.08c0.952-0.089,2.3,0.22,2.88-0.24c0-0.719,0-1.438,0-2.158   C243.27,184.012,240.017,184.465,237.365,184.316z M257.045,184.796c-1.296-0.854-4.835-0.35-5.521,0.24   c-0.556,0.479-1.184,2.175-1.199,3.358c-0.013,0.864,0.376,2.139,0.479,2.399c0.616,1.552,2.718,2.878,3.84,4.561   c1.111,1.665,1.624,3.261,1.2,5.279c-0.598,0.202-1.286,0.314-2.16,0.24c-0.795-0.264-0.578-1.322-0.96-1.68   c-0.604-0.565-1.282-0.178-2.16,0c-0.192,2.406,0.651,3.489,2.4,3.84c1.61,0.322,3.612-0.169,4.08-0.48   c2.523-1.675,0.892-6.958-0.48-8.64c-1.087-1.333-2.093-2.481-2.88-3.6c-0.293-0.418-0.645-0.59-0.72-0.96   c-0.157-0.771-0.25-1.915,0.72-2.641c0.73,0.075,1.102-0.116,1.44,0c1.314,0.452,0.376,2.291,1.68,2.641c0.32,0,0.641,0,0.96,0   C259.207,188.015,257.943,185.388,257.045,184.796z M277.444,185.036c0.837,4.604-1.895,16.234,1.92,17.758   c1.406,0.562,2.819,0.195,4.319,0c0.132-0.625,0.938-0.743,1.2-1.2c1.106-1.919,0.533-10.214,0.48-13.68   c-0.027-1.761,0.543-3.773-1.2-3.598c-1.081,0.108-0.792,0.308-0.96,1.199c-0.401,2.126,0,5.031,0,7.198   c0,4.147,0.971,9.85-3.12,7.92c-0.473-3.674-0.182-8.68-0.24-12.479c-0.021-1.347,0.249-2.812-0.479-3.838   C278.558,184.39,277.283,183.996,277.444,185.036z M298.804,192.234c0.385-1.242-0.131-6.114-0.479-6.479   c-0.372-0.387-0.551-0.658-1.2-0.959c-1.174-0.543-5.148-0.73-6.24-0.24c0.157,6.081-0.316,12.795,0.24,18.479   c0.56,0,1.12,0,1.68,0c0.425-1.134,0.23-3.06,0.24-4.8c0.009-1.675-0.539-3.781,0.96-4.08c0.956,0.042,0.683,1.049,0.96,1.92   c0.223,0.699,0.516,1.541,0.72,2.4c0.433,1.814,0.43,4.172,1.681,4.56c0.474,0.146,0.913-0.108,1.439,0   c-0.372-3.229-1.516-5.685-2.16-8.64C297.451,193.612,298.498,193.219,298.804,192.234z M296.164,186.714   c0.737,1.237,0.665,4.271,0,5.521c-0.721,0.319-1.836,0.244-2.88,0.24c-0.351-1.527-0.424-4.485,0-6   C294.328,186.471,295.443,186.395,296.164,186.714z M310.803,184.796c-0.874-0.575-2.992-0.728-4.079-0.479   c-3.333,0.759-2.399,5.46-2.399,10.078c0,3.247-0.162,6.465,0.479,7.439c1.021,1.549,4.28,1.861,5.999,0.72   c1.754-1.164,1.611-5.086,1.2-8.159c-1.101-0.326-3.633-0.586-4.08,0.479c-0.181,1.673,1.645,0.772,2.16,2.16   c0.774,2.085-0.42,4.191-2.64,3.84c-0.081-0.013-0.179-0.418-0.479-0.24c-0.754-0.761-0.438-1.95-0.48-3.12   c-0.098-2.667-0.074-5.255,0-7.68c0.039-1.272-0.289-2.537,0.48-3.359c0.719,0,1.439,0,2.159,0c1.282,0.317,0.383,2.816,2.64,2.159   C312.581,187.53,311.655,185.357,310.803,184.796z M342.003,203.034c4.301-0.122,3.84-3.966,3.84-8.64c0-2.339,0.299-5.291,0-7.2   c-0.335-2.145-2.357-3.317-5.04-2.878c-1.214,0.198-1.98,0.845-2.64,1.438c-0.39,2.004-0.24,4.93-0.24,7.919   c0,3.001-0.455,6.337,0.48,7.92c0.318,0.54,1.108,0.587,1.199,1.2C340.417,202.968,341.191,203.058,342.003,203.034z    M343.203,186.954c0.671,1.044,0.479,4.362,0.479,7.44c0,3.549,0.701,7.659-3.12,6.239c-0.808-1.665-0.479-3.979-0.479-6.239   c0-2.288,0-4.648,0-6.721c0.261-0.059,0.163-0.477,0.479-0.479C340.758,186.118,342.643,186.414,343.203,186.954z M359.282,192.234   c-0.072-2.089,0.194-4.516-0.24-6.239c-1.073-1.683-4.401-1.983-7.2-1.679c-0.237,0.025-0.288,0.173-0.479,0.239   c0,6.158,0,12.318,0,18.479c0.64,0,1.279,0,1.92,0c0.523-1.774,0.088-4.971,0.239-6.96c0.058-0.745-0.276-1.835,0.721-1.92   c1.281-0.118,0.955,1.396,1.2,2.16c0.315,0.988,0.497,1.929,0.72,2.88c0.231,0.99,0.671,3.558,1.2,3.84   c0.437,0.232,0.979-0.152,1.92,0c-0.375-3.226-1.652-5.548-2.16-8.64C357.831,193.663,358.775,193.167,359.282,192.234z    M356.882,186.954c0,1.6,0,3.2,0,4.8c-0.598,0.683-1.728,0.832-3.12,0.721c-0.392-1.485-0.392-4.516,0-6   C354.982,186.453,356.268,186.369,356.882,186.954z M371.282,184.796c-0.916-0.613-3.017-0.722-4.08-0.479   c-3.239,0.737-2.4,4.564-2.4,9.357c0,4.362-0.401,7.975,1.44,9.12c2.336,0.34,4.384,0.579,5.52-0.72   c1.442-1.648,0.39-4.776,0.721-7.68c-1.101-0.198-4.335-0.945-4.08,0.96c0.082,1.117,1.924,0.476,2.159,1.439   c0.48,2.942-0.694,4.426-2.399,4.08c-2.121-0.431-1.44-4.282-1.44-6.96c0-3.764-0.91-8.629,2.88-7.439   c1.188,0.331,0.364,2.676,2.4,2.159C373.234,187.607,371.936,185.234,371.282,184.796z M143.047,185.516   c0.157,5.921-0.316,12.475,0.24,17.998c0.72,0,1.44,0,2.16,0c0.695-2.265-0.215-6.135,0.48-8.399   c0.882,0.078,2.125-0.205,2.64,0.24c0.148,2.651-0.304,5.904,0.24,8.159c0.8,0,1.6,0,2.4,0c0.397-5.694,0.397-13.024,0-18.718   c-0.801,0-1.6,0-2.4,0c-0.702,2.016,0.227,5.665-0.48,7.679c-0.437,0.366-1.962,0.366-2.4,0c-0.541-2.02-0.094-5.026-0.24-7.438   C145.174,184.759,142.871,184.349,143.047,185.516z M271.204,185.755c-1.412-1.432-4.778-0.84-7.2-0.959   c-0.397,5.614-0.397,12.862,0,18.479c1.818,0.418,5.132,0.361,6.96,0c1.661-1.952,1.558-7.355,0.24-9.601   C272.457,191.993,272.735,187.309,271.204,185.755z M269.284,187.674c0.369,1.144,0.369,3.417,0,4.561   c-0.562,0.478-1.527,0.553-2.641,0.479c-0.392-1.332-0.392-4.188,0-5.52C267.757,187.121,268.722,187.196,269.284,187.674z    M269.523,195.594c-0.095,1.746,0.229,3.909-0.239,5.28c-0.721,0.319-1.836,0.244-2.88,0.24c0.141-2.02-0.295-4.614,0.239-6.24   C267.96,194.758,268.876,195.042,269.523,195.594z M317.522,185.516c0.158,5.921-0.316,12.475,0.24,17.998c0.721,0,1.44,0,2.16,0   c0.695-2.265-0.215-6.135,0.48-8.399c0.8,0,1.6,0,2.399,0c0.672,2.288-0.198,6.118,0.48,8.399c0.72,0,1.44,0,2.16,0   c0.75-1.177,0.471-2.743,0.479-4.319c0.019-3.404,0-6.687,0-9.84c0-1.674,0.276-3.316-0.479-4.559c-0.72,0-1.44,0-2.16,0   c-0.801,2.078,0.459,6.217-0.721,7.918c-0.814-0.064-1.945,0.187-2.399-0.239c-0.126-2.515,0.272-5.553-0.24-7.679   C319.029,184.943,317.39,184.343,317.522,185.516z M138.487,202.314c-0.354-1.697-2.808-0.811-2.64,0.479   c0.06,0.461,0.611,0.78,1.44,1.2c0.041-0.279,0.379-0.261,0.72-0.24C138.241,203.008,138.641,203.05,138.487,202.314z    M332.403,201.354c-1.322-0.123-2.006,0.394-1.92,1.68c0.561,0.957,1.431,0.99,2.399,0.479   C333.22,202.464,332.953,202.033,332.403,201.354z M22.33,13.928c-0.646,0.381-1.34,0.938-1.92,1.2   c-0.076,0.034-0.154,0.42-0.24,0.48c-1.479,1.025-2.605,1.878-3.6,3.12c-1.635,2.039-2.873,4.194-3.6,6.959   c-0.736,2.801-0.96,5.764-0.96,9.599c0,12.328,0,28.256,0,42.237c0,43.515,0,84.884,0,126.23c0,1.935-0.127,3.701,0,5.279   c0.125,1.552,0.622,2.918,0.96,4.32c0.388,1.606,0.559,2.868,1.2,4.08c0.552,1.041,1.351,2.031,2.16,3.119   c1.204,1.619,2.651,2.835,4.08,3.84c0.543,0.382,1.677,0.967,1.92,1.199c0.623,0.597,1.571,0.976,2.16,1.2   c0.358,0.137,0.737,0.104,1.2,0.24c1.767,0.523,4.497,1.291,6.239,1.44c2.678,0.228,5.237,0,7.92,0   c133.284-0.001,266.83,0,400.552,0c3.661,0,7.148,0.26,10.318-0.24c1.437-0.227,2.785-0.632,4.08-0.96   c0.774-0.196,1.491-0.235,2.16-0.48c0.609-0.223,1.049-0.611,1.68-0.96c2.448-1.351,5.117-3.308,6.48-5.279   c0.658-0.951,1.226-1.644,1.68-2.399c1.396-2.322,2.013-5.274,2.4-8.16c0.207-1.543,0.24-3.105,0.24-5.039   c-0.001-55.354,0-113.701,0-168.468c-0.001-3.864-0.038-6.939-0.721-9.839c-0.66-2.808-1.712-4.936-3.359-7.199   c-0.804-1.104-1.832-2.407-2.88-2.88c-0.076-0.034-0.154-0.42-0.24-0.48c-0.271-0.188-0.648-0.257-0.96-0.48   c-0.517-0.37-0.911-0.85-1.44-1.2c-2.159-1.429-4.655-1.988-7.92-2.64c-0.694-0.139-1.268-0.414-1.92-0.479   c-2.754-0.275-5.278,0-7.92,0c-129.418,0-260.481,0-389.991,0c-7.024,0-14.265-0.503-21.12,0c-0.169,0.013-0.239,0.24-0.24,0.24   C27.694,11.935,24.601,12.59,22.33,13.928z M30.73,21.127c3.364-0.536,9.157-0.24,13.439-0.24c65.438,0,131.718,0,197.515,0   c65.912,0,130.688,0,197.757,0c4.556,0,9.385-0.4,12.479,0.48c3.844,1.094,7.377,4.129,7.92,8.88c0.396,3.463,0,7.504,0,11.279   c0,47.31,0,96.379,0,144.229c0,7.378,0.307,14.86,0,22.078c-0.233,5.491-3.013,8.823-7.2,10.32   c-2.966,1.061-7.678,0.72-12.718,0.72c-133.808,0-264.58,0-398.873,0c-4.943,0-9.583,0.357-12.479-0.72   c-2.756-1.025-5.499-3.494-6.48-6.72c-0.846-2.78-0.48-6.785-0.48-11.039c0-52.973,0-106.745,0-160.069   c0-4.384-0.567-9.453,0.72-12.719C23.878,23.676,27.516,21.639,30.73,21.127z"
   id="path11" />
</g>
</svg>